<svg xmlns="http://www.w3.org/2000/svg" version="1.1" xmlns:xlink="http://www.w3.org/1999/xlink" width="512" height="512" x="0" y="0" viewBox="0 0 70 70" style="enable-background:new 0 0 512 512" xml:space="preserve" class=""><g><path d="M53.832 53.965a.75.75 0 0 0-.75.75v9.505a.35.35 0 0 1-.349.349H17.267a.35.35 0 0 1-.349-.349v-9.505a.75.75 0 0 0-1.5 0v9.505c0 1.019.829 1.849 1.849 1.849h35.467a1.85 1.85 0 0 0 1.849-1.849v-9.505a.752.752 0 0 0-.751-.75zM54.597 37.96l.24 12.44 12.5-7.41V30.11zM40.327 42.99l13.01 7.42-.24-12.44-12.77-7.86z" fill="#ffffff" opacity="1" data-original="#000000"></path><path d="m16.173 36.66 12.79-7.87-12.045-7.415V5.78a.35.35 0 0 1 .349-.349h35.467a.35.35 0 0 1 .349.349v15.589L41.047 28.79l12.79 7.87 12.79-7.87-12.045-7.415V5.78a1.851 1.851 0 0 0-1.849-1.849H17.267a1.851 1.851 0 0 0-1.849 1.849v15.59L3.383 28.79z" fill="#ffffff" opacity="1" data-original="#000000"></path><path d="m17.173 50.4 12.5-7.41V30.11l-12.74 7.85zM15.433 37.97l-12.77-7.86v12.88l13.01 7.42z" fill="#ffffff" opacity="1" data-original="#000000"></path></g></svg>