<svg xmlns="http://www.w3.org/2000/svg" version="1.1" xmlns:xlink="http://www.w3.org/1999/xlink" width="512" height="512" x="0" y="0" viewBox="0 0 60 60" style="enable-background:new 0 0 512 512" xml:space="preserve" class=""><g><g fill="#000"><path d="M16 35a8 8 0 1 0 0-16 8 8 0 0 0 0 16zM30 56v-5c0-8-7.925-13-14-13S2 43 2 51v5zM53 5H28a4 4 0 0 0-4 4v9.074c2.449 2.196 4 5.376 4 8.926 0 1.728-.373 3.365-1.029 4.85.33.088.672.15 1.029.15h8v3.465a1.535 1.535 0 0 0 2.387 1.277L45.5 32H53a4 4 0 0 0 4-4V9a4 4 0 0 0-4-4z" fill="#ffffff" opacity="1" data-original="#000000" class=""></path></g></g></svg>