<svg xmlns="http://www.w3.org/2000/svg" version="1.1" xmlns:xlink="http://www.w3.org/1999/xlink" width="512" height="512" x="0" y="0" viewBox="0 0 512 512" style="enable-background:new 0 0 512 512" xml:space="preserve" class=""><g><path d="M0 421.993h512v60H0zM392 287.327c0-8.455-6.878-15.333-15.333-15.333s-15.333 6.878-15.333 15.333v104.667H392zM150.667 287.327c0-8.455-6.878-15.333-15.333-15.333s-15.333 6.878-15.333 15.333v104.667h30.666zM271.334 287.327c0-8.455-6.878-15.333-15.333-15.333s-15.334 6.878-15.334 15.333v104.667h30.667zM482 151.993v-28.355L256 30.007 30 123.638v28.355z" fill="#ffffff" opacity="1" data-original="#000000" class=""></path><path d="M90.001 391.993V287.327c0-24.997 20.336-45.333 45.333-45.333s45.333 20.336 45.333 45.333v104.667h30V287.327c0-24.997 20.336-45.333 45.333-45.333s45.334 20.336 45.334 45.333v104.667h30V287.327c0-24.997 20.336-45.333 45.333-45.333S422 262.33 422 287.327v104.667h60v-180h30v-30H0v30h30v180h60.001z" fill="#ffffff" opacity="1" data-original="#000000" class=""></path></g></svg>