<svg xmlns="http://www.w3.org/2000/svg" version="1.1" xmlns:xlink="http://www.w3.org/1999/xlink" width="512" height="512" x="0" y="0" viewBox="0 0 512 512" style="enable-background:new 0 0 512 512" xml:space="preserve" class=""><g><path fill-rule="evenodd" d="M503 263.929v33.218h-41.364a208.518 208.518 0 0 1-31.1 75.031l29.264 29.261-58.292 58.291-29.259-29.26a208.514 208.514 0 0 1-75.031 31.1v41.361h-82.436v-41.36a208.526 208.526 0 0 1-75.032-31.1l-29.26 29.26-58.29-58.292 29.258-29.259a208.541 208.541 0 0 1-31.1-75.033H9v-33.218h82.24a164.952 164.952 0 0 0 329.516 0zm-247-35.8a27.8 27.8 0 1 0 27.8 27.8 27.8 27.8 0 0 0-27.8-27.8zm64.678-57.856a14.831 14.831 0 1 1 20.973 20.974l-46.02 46.02a43.967 43.967 0 0 0-20.976-20.967l46.021-46.02zM264 91.171a164 164 0 0 1 67.5 18.062l41.058-71.115A245.618 245.618 0 0 0 264 9.071zm81.286 26.04a165.837 165.837 0 0 1 49.432 49.43l71.11-41.055A248.313 248.313 0 0 0 386.34 46.1l-41.056 71.111zm57.41 63.219 71.114-41.058a245.684 245.684 0 0 1 29.06 108.557h-82.109a164.047 164.047 0 0 0-18.067-67.5zM248 9.071a245.688 245.688 0 0 0-108.556 29.047l41.056 71.114A164.032 164.032 0 0 1 248 91.171zM125.657 46.1l41.055 71.11a165.837 165.837 0 0 0-49.431 49.431l-71.11-41.056A248.29 248.29 0 0 1 125.657 46.1zm-87.469 93.272A245.647 245.647 0 0 0 9.126 247.929h82.11a164.016 164.016 0 0 1 18.067-67.5zm329.918 116.559h-68.312a43.8 43.8 0 0 1-87.591 0h-68.309a112.106 112.106 0 0 0 224.212 0z" fill="#ffffff" opacity="1" data-original="#000000"></path></g></svg>