<svg xmlns="http://www.w3.org/2000/svg" version="1.1" xmlns:xlink="http://www.w3.org/1999/xlink" width="512" height="512" x="0" y="0" viewBox="0 0 512 512" style="enable-background:new 0 0 512 512" xml:space="preserve" class=""><g><path d="M478.4 212.53v-.33c-1.16-47-6-89.35-13.57-119.31l-.32-1.57-.51-1.71c-5.8-18.44-23.21-25.19-30.64-28.07-48.68-18.86-106-40.62-162.11-59.06A52.33 52.33 0 0 0 257.14.06L256 0h-1.15a52.53 52.53 0 0 0-14 2.4c-56.17 18.52-113.5 40.28-162.19 59.15-7.43 2.88-24.82 9.63-30.66 28.06l-.54 1.71-.29 1.46v.18c-7.58 29.88-12.4 72.23-13.56 119.24v.33c-.94 64.54 5.22 96 9.06 109.14l.52 1.86c6.15 19.74 17.43 40 33.56 60.3 17.2 21.62 40 43.62 67.83 65.36 46.32 36.35 89.15 57.41 89.58 57.62l.69.33h.1A48.48 48.48 0 0 0 256 512a48.58 48.58 0 0 0 21.16-4.84l.68-.33.37-.18a569.44 569.44 0 0 0 89.15-57.4c27.84-21.78 50.69-43.78 67.9-65.41 16.12-20.27 27.4-40.55 33.55-60.29l.35-1.14.17-.72c3.83-13.12 10.01-44.55 9.07-109.16zm-223.56-84.67a56 56 0 1 1-56 56 56 56 0 0 1 56-56zM348.24 324v.24a40.46 40.46 0 0 1-9.91 22.22A38.85 38.85 0 0 1 317.47 359c-11.55 2.62-40.35 5.19-58.32 5.07-18 .44-53.29-2.35-64.83-5.09a38.86 38.86 0 0 1-20.84-12.61 40.5 40.5 0 0 1-9.91-22.21v-.25A128.13 128.13 0 0 1 163 306a88.28 88.28 0 0 1 .56-14.84v-.24a34.36 34.36 0 0 1 9.94-20.74 35.08 35.08 0 0 1 20.9-10.06c11.58-1.23 46.81-1.9 64.72-1.89s46.64.66 58.22 1.89a35 35 0 0 1 20.9 10.07 34.43 34.43 0 0 1 9.97 20.81v.24a128.38 128.38 0 0 1 .89 14.76 171.41 171.41 0 0 1-.86 18z" data-name="Layer 16" fill="#ffffff" opacity="1" data-original="#000000" class=""></path></g></svg>