<svg xmlns="http://www.w3.org/2000/svg" version="1.1" xmlns:xlink="http://www.w3.org/1999/xlink" width="512" height="512" x="0" y="0" viewBox="0 0 510 510" style="enable-background:new 0 0 512 512" xml:space="preserve" fill-rule="evenodd" class=""><g><path d="M438.259 487h40.088c4.415 0 8 3.585 8 8s-3.585 8-8 8H31.653c-4.415 0-8-3.585-8-8s3.585-8 8-8h40.088V332.138c9.563 5.893 23.726 10.09 39.751 10.09s30.188-4.197 39.751-10.09V487h64.006V245.9c9.563 5.893 23.726 10.09 39.751 10.09s30.188-4.197 39.751-10.09V487h64.006V143.604c9.563 5.892 23.726 10.09 39.751 10.09s30.188-4.198 39.751-10.09zM404.37 35.431C306.148 119.3 198.667 172.279 97.025 206.523c-4.184 1.41-8.726-.843-10.136-5.027s.843-8.726 5.027-10.135c99.5-33.523 204.718-85.273 300.941-167.14l-15.374.82a8.004 8.004 0 0 1-8.414-7.563 8.003 8.003 0 0 1 7.562-8.415l38.472-2.052a7.998 7.998 0 0 1 8.338 9.178l-5.55 36.933a8.003 8.003 0 0 1-9.1 6.722 8.003 8.003 0 0 1-6.722-9.099zM111.492 286.703c21.939 0 39.751 8.856 39.751 19.763s-17.812 19.762-39.751 19.762-39.751-8.855-39.751-19.762 17.812-19.763 39.751-19.763zM255 200.466c21.939 0 39.751 8.855 39.751 19.762S276.939 239.99 255 239.99s-39.751-8.855-39.751-19.762 17.812-19.762 39.751-19.762zM398.508 98.169c21.939 0 39.751 8.855 39.751 19.762 0 10.908-17.812 19.763-39.751 19.763s-39.751-8.855-39.751-19.763c0-10.907 17.812-19.762 39.751-19.762z" fill="#ffffff" opacity="1" data-original="#000000"></path></g></svg>