<svg xmlns="http://www.w3.org/2000/svg" version="1.1" xmlns:xlink="http://www.w3.org/1999/xlink" width="512" height="512" x="0" y="0" viewBox="0 0 512 512" style="enable-background:new 0 0 512 512" xml:space="preserve" class=""><g><path d="M456.833 401.809c-25.219 0-46.525 17.017-53.077 40.167h-38.817c-14.486-42.59-74.875-42.563-89.344 0h-39.19c-14.486-42.59-74.875-42.563-89.344 0h-38.818C89.896 381.214 1.405 392.797 0 456.977c1.411 64.19 89.907 75.75 108.244 14.999h38.818c14.485 42.59 74.875 42.562 89.344 0h39.19c14.485 42.59 74.875 42.562 89.344 0h38.817c18.356 60.77 106.839 49.171 108.244-15.001-.001-30.418-24.749-55.166-55.168-55.166zM321.333 145.624 160.667 52.863l-65.333 37.72L256 183.345zM416.666 90.583 263.5 2.153a14.998 14.998 0 0 0-15 0l-57.833 33.39 160.666 92.761z" fill="#ffffff" opacity="1" data-original="#000000" class=""></path><path d="M87.833 306.416 241 394.847V209.325L80.333 116.564v176.862a15 15 0 0 0 7.5 12.99zM271 209.325v185.522l153.167-88.431a15 15 0 0 0 7.5-12.99V116.564l-65.334 37.72v35.82c-.735 19.875-29.267 19.871-30 0v-18.499z" fill="#ffffff" opacity="1" data-original="#000000" class=""></path></g></svg>