<svg xmlns="http://www.w3.org/2000/svg" version="1.1" xmlns:xlink="http://www.w3.org/1999/xlink" width="512" height="512" x="0" y="0" viewBox="0 0 512 512" style="enable-background:new 0 0 512 512" xml:space="preserve" class=""><g><path d="M392 195c0 11.125-2.593 21.599-6.958 31.104 24.564-9.6 44.852-22.126 57.48-31.104-12.629-8.978-32.917-21.504-57.48-31.104C389.407 173.401 392 183.875 392 195zM272 195c0 24.814 20.186 45 45 45s45-20.186 45-45-20.186-45-45-45-45 20.186-45 45zm30-15h30v30h-30zM242 195c0-11.125 2.593-21.599 6.958-31.104-24.564 9.6-44.852 22.126-57.48 31.104 12.629 8.978 32.917 21.504 57.48 31.104C244.593 216.599 242 206.125 242 195z" fill="#ffffff" opacity="1" data-original="#000000"></path><path d="M317 0C209.305 0 122 87.305 122 195s87.305 195 195 195 195-87.305 195-195S424.695 0 317 0zm0 270c-50.704 0-109.846-19.679-172.515-75 62.276-54.974 121.421-75 172.515-75 50.704 0 109.846 19.679 172.515 75-62.276 54.974-121.422 75-172.515 75zM129.432 318.994 0 448.162 63.838 512l129.169-129.432a226.6 226.6 0 0 1-63.575-63.574z" fill="#ffffff" opacity="1" data-original="#000000"></path></g></svg>