<svg xmlns="http://www.w3.org/2000/svg" version="1.1" xmlns:xlink="http://www.w3.org/1999/xlink" width="512" height="512" x="0" y="0" viewBox="0 0 53 53" style="enable-background:new 0 0 512 512" xml:space="preserve" class=""><g><path d="M12.665 11.407a2 2 0 0 1 2-2h23.67a2 2 0 0 1 2 2v3.89h2.33v-7.43c0-.6-.49-1.09-1.09-1.09h-17.43c-1.19 0-2.26-.66-2.8-1.71l-.95-1.86c-.2-.38-.59-.62-1.02-.62h-7.91c-.61 0-1.1.49-1.1 1.09v11.62h2.3z" fill="#ffffff" opacity="1" data-original="#000000" class=""></path><path d="M14.665 11.407h23.67v3.89h-23.67zM44.335 17.297H8.665c-.671 0-1.238.595-1.13 1.31l2.59 17.52c.08.57.56.99 1.13.99h3.36v-7.73c0-1.61 1.27-2.93 2.9-2.99 3.08-.15 5.43-.85 7.14-2.15.56-.41 1.19-.62 1.85-.62.65 0 1.28.21 1.82.6 1.73 1.32 4.08 2.02 7.19 2.18 1.59.05 2.86 1.37 2.86 2.98v7.73h3.37c.56 0 1.05-.42 1.13-.98l2.59-17.53a1.14 1.14 0 0 0-1.13-1.31z" fill="#ffffff" opacity="1" data-original="#000000" class=""></path><path d="M35.415 28.4c-3.23-.16-6.07-.89-8.28-2.56-.38-.28-.89-.28-1.27 0-2.21 1.67-5.05 2.4-8.28 2.56-.54.02-.97.46-.97.99v7.96c0 3.56 1.41 7.03 4.04 9.44 2.25 2.07 4.57 3.17 5.46 3.54.25.11.52.11.77 0 .86-.36 3.03-1.38 5.21-3.31.02-.01.03-.04.05-.05 2.74-2.41 4.23-5.97 4.23-9.63v-7.95c0-.53-.42-.97-.96-.99zm-7.343 9.466a.768.768 0 0 0-.275.694c.112.736.326 2.192.463 3.126a.764.764 0 0 1-.762.873h-1.996a.767.767 0 0 1-.762-.882l.454-3.117a.722.722 0 0 0-.257-.685 2.47 2.47 0 0 1-.908-1.919c0-1.627 1.585-2.903 3.272-2.347.728.24 1.31.831 1.541 1.55a2.482 2.482 0 0 1-.77 2.707z" fill="#ffffff" opacity="1" data-original="#000000" class=""></path></g></svg>