<svg xmlns="http://www.w3.org/2000/svg" version="1.1" xmlns:xlink="http://www.w3.org/1999/xlink" width="512" height="512" x="0" y="0" viewBox="0 0 64 64" style="enable-background:new 0 0 512 512" xml:space="preserve" class=""><g><path d="M59.243 59.243c-1.17 1.17-2.706 1.755-4.243 1.755s-3.073-.585-4.243-1.755l-4.293-4.293 8.486-8.486 4.293 4.293a6.007 6.007 0 0 1 0 8.486zM53.536 45.05l-2.69-2.688a27.203 27.203 0 0 1-8.484 8.485l2.688 2.689zM39.258 33.5c.261.451.087.85 0 1s-.344.5-.866.5H17.608c-.522 0-.78-.35-.866-.5s-.261-.549 0-1l10.392-18c.26-.451.693-.5.866-.5s.606.049.866.5zM27 26a1 1 0 0 0 2 0v-5a1 1 0 0 0-2 0zm2.75 5c0-.965-.785-1.75-1.75-1.75s-1.75.785-1.75 1.75.785 1.75 1.75 1.75 1.75-.785 1.75-1.75zM47 28c0 10.477-8.523 19-19 19S9 38.477 9 28 17.523 9 28 9s19 8.523 19 19zm-6.01 4.5-10.392-18C30.056 13.56 29.084 13 28 13s-2.056.56-2.598 1.5l-10.393 18a2.97 2.97 0 0 0 0 3 2.97 2.97 0 0 0 2.599 1.5h20.784a2.97 2.97 0 0 0 2.598-1.5 2.97 2.97 0 0 0 0-3zM53 28c0 13.785-11.215 25-25 25S3 41.785 3 28 14.215 3 28 3s25 11.215 25 25zm-4 0c0-11.58-9.42-21-21-21S7 16.42 7 28s9.42 21 21 21 21-9.42 21-21z" fill="#ffffff" opacity="1" data-original="#000000" class=""></path></g></svg>