<svg xmlns="http://www.w3.org/2000/svg" version="1.1" xmlns:xlink="http://www.w3.org/1999/xlink" width="512" height="512" x="0" y="0" viewBox="0 0 512 512" style="enable-background:new 0 0 512 512" xml:space="preserve" class=""><g><path fill-rule="evenodd" d="M275.999 152.682c-19.52 4.904-38.901 14.442-50.781 30.276-22.77-38.935-16.22-88.298 15.533-120.051 38.707-38.707 101.467-38.707 140.174 0 30.745 30.745 38.004 78.209 17.359 116.787-11.995-13.869-30.019-22.443-48.146-27.007 23.35-21.173 24.29-57.596 1.962-79.925-21.556-21.556-56.502-21.556-78.058 0-22.313 22.313-21.41 58.719 1.957 79.92zm80.268-40.891c0-23.858-19.337-43.196-43.195-43.196s-43.196 19.338-43.196 43.196 19.338 43.196 43.196 43.196 43.195-19.339 43.195-43.196zm14.93 61.629c-10.188-5.546-22.321-9.35-35.202-11.405-6.982 3.192-14.745 4.972-22.923 4.972a55 55 0 0 1-22.938-4.979c-13.716 2.186-26.607 6.37-37.224 12.551-8.659 5.04-15.769 11.399-20.491 19.061 40.726 52.606 120.601 50.928 159.161-3.122-5.042-6.853-12.064-12.549-20.383-17.078zm-150.693 49.91c-49.889-49.889-49.89-130.781 0-180.67s130.781-49.889 180.67 0c49.89 49.889 49.889 130.781 0 180.67s-130.781 49.889-180.67 0zm-20.782-90.335c0 61.367 49.75 111.118 111.117 111.118s111.118-49.751 111.118-111.118-49.75-111.117-111.118-111.117-111.117 49.751-111.117 111.117zM18.686 388.5l118.257 118.258 45.826-45.826L64.512 342.674zm450.795-122.415-71.498 77.23c-6.495 7.338-15.052 11.887-25.52 11.887h-90.264a6 6 0 0 1 0-12h90.264c18.797 0 28.731-22.955 15.129-36.557-3.886-3.886-9.242-6.299-15.129-6.299h-104.13a5.968 5.968 0 0 1-3.359-1.028l-11.49-6.634c-9.938-5.738-19.663-8.335-31.167-8.335h-38.63c-17.291 0-31.812 6.261-44.147 18.304l-49.627 48.453 84.161 84.161c7.051-8.099 11.756-14.541 21.925-19.17 5.759-2.622 12.035-3.958 18.716-3.958h149.732c22.485 0 41.042-10.49 54.166-28.585l72.186-99.535c9.535-13.148-10.308-29.825-21.316-17.934z" fill="#ffffff" opacity="1" data-original="#000000" class=""></path></g></svg>