<svg xmlns="http://www.w3.org/2000/svg" version="1.1" xmlns:xlink="http://www.w3.org/1999/xlink" width="512" height="512" x="0" y="0" viewBox="0 0 512 512" style="enable-background:new 0 0 512 512" xml:space="preserve" class=""><g><path fill-rule="evenodd" d="M76.124 66.847h21.848v363.306c0 15.988 13.011 29 28.999 29h273.056V481c0 8.262-6.738 15-15 15H76.124c-8.262 0-15-6.738-15-15V81.847c.001-8.261 6.739-15 15-15zM126.972 16c-8.262 0-15 6.738-15 15v399.153c0 8.262 6.738 15 15 15h308.904c8.262 0 15-6.738 15-15V99.781h-54.781c-15.988 0-29-13.011-29-29V16zm41.952 94.826h129a7 7 0 1 0 0-14h-129a7 7 0 1 0 0 14zm0 33.75h73.5a7 7 0 1 0 0-14h-73.5a7 7 0 1 0 0 14zm212.17-73.794c0 8.262 6.738 15 15 15h53.481c-.727-1.593-1.759-3.06-3.093-4.394l-60.994-60.994c-1.334-1.334-2.8-2.366-4.393-3.093v53.481zm-207.17 234.521a5.01 5.01 0 0 0-5 5v62.808c0 2.754 2.246 5 5 5h25.102c2.754 0 5-2.246 5-5v-62.808c0-2.754-2.246-5-5-5zm63.299-31.675a5.01 5.01 0 0 0-5 5v94.483c0 2.754 2.246 5 5 5h25.102c2.754 0 5-2.246 5-5v-94.483c0-2.754-2.246-5-5-5h-25.102zm63.3-31.676a5.01 5.01 0 0 0-5 5V373.11c0 2.754 2.246 5 5 5h25.102c2.754 0 5-2.246 5-5V246.952c0-2.754-2.246-5-5-5h-25.102zm63.3-31.675a5.01 5.01 0 0 0-5 5V373.11c0 2.754 2.246 5 5 5h25.102c2.754 0 5-2.246 5-5V215.277c0-2.754-2.246-5-5-5zm-40.033-53.215 10.833-2.811c-14.368 21.521-34.459 40.767-58.826 56.253-28.882 18.356-63.694 31.395-102.049 36.673a6.98 6.98 0 0 0 1.86 13.836c40.474-5.57 77.207-19.329 107.682-38.697 25.009-15.894 45.855-35.591 61.162-57.676l.537 8.148c.241 3.851 3.559 6.777 7.41 6.535s6.777-3.559 6.535-7.41l-1.939-29.306c-.346-5.23-5.791-7.076-10.748-5.789l-25.956 6.736a6.977 6.977 0 0 0 3.499 13.508z" clip-rule="evenodd" fill="#ffffff" opacity="1" data-original="#000000" class=""></path></g></svg>