<svg xmlns="http://www.w3.org/2000/svg" version="1.1" xmlns:xlink="http://www.w3.org/1999/xlink" width="512" height="512" x="0" y="0" viewBox="0 0 500 500" style="enable-background:new 0 0 512 512" xml:space="preserve" class=""><g><path fill-rule="evenodd" d="M324.647 268.482c19.646 39.122 33.78 78.876 43.351 119.153 3.176 13.367-12.212 23.321-23.102 14.945-15.596-11.997-30.219-24.678-43.504-38.296a.915.915 0 0 1-.243-.867l21.741-94.724c.197-.857 1.362-.997 1.757-.211zm63.127-201.427c-12.633 0-22.937 10.304-22.937 22.937v84.701a.92.92 0 0 1-.511.836l-37.945 19.505a.94.94 0 0 0 0 1.673l37.945 19.505a.92.92 0 0 1 .511.836v45.994c0 12.633 10.304 22.937 22.937 22.937h56.093c10.983 0 20.219-7.511 22.456-18.264 12.097-58.133 12.973-118.714-.063-182.328-2.21-10.783-11.463-18.332-22.47-18.332zm12.463 61.784a7.054 7.054 0 0 1 0-14.108h39.008a7.054 7.054 0 0 1 0 14.108zm0 54.731a7.054 7.054 0 0 1 0-14.108h39.008a7.054 7.054 0 0 1 0 14.108zm0 54.731a7.054 7.054 0 0 1 0-14.108h39.008a7.054 7.054 0 0 1 0 14.108zm-84.969-80.844a.939.939 0 0 1-1.417-.81V87.711a.939.939 0 0 1 1.417-.81l28.766 16.949a.918.918 0 0 1 .463.81v35.038a.918.918 0 0 1-.463.81zm-237.834 0-28.765-16.949a.918.918 0 0 1-.463-.81V104.66c0-.342.168-.636.463-.81l28.765-16.949a.939.939 0 0 1 1.417.81v68.936a.938.938 0 0 1-1.417.81zm77.217-61.34c14.394 0 26.062 11.669 26.062 26.062 0 14.394-11.669 26.062-26.062 26.062-14.394 0-26.062-11.669-26.062-26.062s11.669-26.062 26.062-26.062zm83.4 0c14.394 0 26.062 11.669 26.062 26.062 0 14.394-11.668 26.062-26.062 26.062s-26.062-11.669-26.062-26.062c-.001-14.393 11.668-26.062 26.062-26.062zm-116.899-46.95c-17.065 3.415-29.051 18.036-29.051 35.44v75.224c0 17.446 12.05 32.097 29.168 35.463 48.282 9.494 98.257 9.192 149.853-.487 17.255-3.237 29.478-17.966 29.478-35.523V85.2c0-17.525-12.174-32.232-29.39-35.506-51.959-9.881-101.996-10.144-150.058-.527zm4.522 306.761-12.817-68.665c-3.56-19.073 9.631-37.003 28.873-39.342 36.324-4.415 73.157-4.299 109.225.06 19.14 2.313 32.479 20.122 28.891 39.344l-12.734 68.223c-2.623 14.054-13.314 24.543-27.386 26.89-29.106 4.853-58.476 5.327-86.933.344-13.995-2.451-24.508-12.858-27.119-26.854zm70.677-142.924c-43.755 0-84.099 12.595-116.459 33.803a.928.928 0 0 0-.401.997l32.863 143.178c9.093 39.619 43.348 66.902 83.997 66.902s74.903-27.283 83.997-66.902l32.863-143.178a.925.925 0 0 0-.401-.997c-32.36-21.208-72.704-33.803-116.459-33.803zm69.584 63.856c-1.816-7.965-8.515-13.901-16.634-14.882-35.464-4.286-70.225-4.398-105.918-.06-11.224 1.364-18.765 11.715-16.695 22.81l12.817 68.666c1.5 8.035 7.175 13.603 15.069 15.363a.937.937 0 0 0 1.145-.918v-27.742a7.054 7.054 0 0 1 6.467-7.029v-.025h.586a7.054 7.054 0 0 1 7.054 7.054v30.011c0 .484.362.885.844.935 5.928.613 11.914.994 17.959 1.14a.937.937 0 0 0 .963-.94v-55.761a7.054 7.054 0 0 1 6.464-7.029v-.025h.59a7.054 7.054 0 0 1 7.054 7.054v55.605c0 .538.443.962.98.939a259.128 259.128 0 0 0 17.95-1.406.936.936 0 0 0 .835-.934v-78.73a7.055 7.055 0 0 1 6.464-7.029v-.025h.59a7.054 7.054 0 0 1 7.054 7.054v76.416a.938.938 0 0 0 1.153.916c7.576-1.765 13.109-7.535 14.553-15.275l12.734-68.223c.519-2.781.491-5.434-.078-7.93zm-197.88-8.378c.395-.786 1.56-.646 1.757.212l21.741 94.724a.915.915 0 0 1-.243.867c-13.285 13.618-27.908 26.299-43.504 38.296-10.89 8.377-26.277-1.578-23.102-14.945 9.571-40.278 23.705-80.032 43.351-119.154z" clip-rule="evenodd" fill="#ffffff" opacity="1" data-original="#000000"></path></g></svg>