<svg xmlns="http://www.w3.org/2000/svg" version="1.1" xmlns:xlink="http://www.w3.org/1999/xlink" width="512" height="512" x="0" y="0" viewBox="0 0 512 512" style="enable-background:new 0 0 512 512" xml:space="preserve" class=""><g><path fill-rule="evenodd" d="m446.88 384.66 8.32-24.13-11.61-6.7-16.73 19.27a5.995 5.995 0 0 1-5.53 1.98c-4.82-.81-9.72-.81-14.55.01-2.06.35-4.16-.4-5.53-1.98l-16.74-19.28-11.61 6.7 8.33 24.14c.68 1.97.28 4.15-1.04 5.77-1.55 1.88-2.96 3.9-4.17 6.01-1.21 2.1-2.26 4.32-3.12 6.61a6.005 6.005 0 0 1-4.47 3.79l-25.07 4.85v13.41l25.07 4.86a6 6 0 0 1 4.48 3.79 43.7 43.7 0 0 0 7.27 12.61 5.983 5.983 0 0 1 1.04 5.78l-8.32 24.12 11.61 6.71 16.73-19.27a6.002 6.002 0 0 1 5.53-1.99c4.82.81 9.72.81 14.55-.01 2.07-.34 4.16.41 5.53 1.99l16.74 19.28 11.61-6.71-8.32-24.13a5.994 5.994 0 0 1 1.04-5.77c1.55-1.88 2.95-3.9 4.16-6.01 1.21-2.1 2.26-4.32 3.12-6.61a5.988 5.988 0 0 1 4.48-3.78l25.06-4.86V411.7l-25.07-4.85a6.012 6.012 0 0 1-4.48-3.8 43.7 43.7 0 0 0-7.27-12.61 6.008 6.008 0 0 1-1.04-5.78zm-144.36-33.04c-13.67 0-24.8 11.12-24.8 24.8s11.13 24.8 24.8 24.8c13.68 0 24.81-11.12 24.81-24.8s-11.13-24.8-24.81-24.8zm-44.17-235.78h79.42l-79.42-79.42zm87.91 204.19-2.26.78a69.484 69.484 0 0 0-14.05-8.12l-6.74-34.77a6.008 6.008 0 0 0-5.89-4.86h-29.59c-2.87 0-5.34 2.03-5.89 4.86l-6.74 34.77a69.484 69.484 0 0 0-14.05 8.12l-33.5-11.55c-2.71-.94-5.71.18-7.15 2.67l-14.79 25.62a5.993 5.993 0 0 0 1.26 7.53l26.76 23.23a68.806 68.806 0 0 0 0 16.22l-26.76 23.24a5.993 5.993 0 0 0-1.26 7.53l14.79 25.62a5.995 5.995 0 0 0 7.15 2.67l33.5-11.55c4.36 3.25 9.06 5.97 14.05 8.12l5.36 27.63H45.72c-10.48 0-18.98-8.51-18.98-18.97V46.91c0-10.46 8.51-18.98 18.98-18.98h200.63v93.91c0 3.32 2.68 6 6 6h93.91zM65.33 228.38c-3.31 0-6 2.69-6 6s2.69 6 6 6h242.33c3.31 0 6-2.69 6-6s-2.69-6-6-6zm0 57.62c-3.31 0-6 2.68-6 6s2.69 6 6 6h196.9c3.31 0 6-2.68 6-6s-2.69-6-6-6zm0 57.62c-3.31 0-6 2.69-6 6 0 3.32 2.69 6 6 6h121.49c3.32 0 6-2.69 6-6s-2.68-6-6-6zm0-172.85c-3.31 0-6 2.69-6 6 0 3.32 2.69 6 6 6h242.33c3.31 0 6-2.69 6-6s-2.69-6-6-6zm118.03-55.17c3.31 0 6-2.69 6-6s-2.69-6-6-6H89.92c-3.31 0-6 2.69-6 6s2.69 6 6 6zm176.58 244.17 8.89 25.75a53.745 53.745 0 0 0-3.2 4.92c-.98 1.69-1.87 3.44-2.67 5.23l-26.74 5.18a6 6 0 0 0-4.86 5.89v19.27c-2.8 1.63-5.74 3.03-8.78 4.16a6 6 0 0 0-3.79 4.48l-6.42 33.12h-19.69l-6.42-33.12a6 6 0 0 0-3.79-4.48 56.961 56.961 0 0 1-16.46-9.52 5.992 5.992 0 0 0-5.78-1.04l-31.91 11-9.84-17.05 25.48-22.12a6.001 6.001 0 0 0 1.98-5.52c-.52-3.14-.79-6.34-.79-9.52 0-3.17.27-6.37.79-9.51.35-2.06-.41-4.15-1.98-5.52l-25.48-22.13 9.84-17.05 31.91 11.01c1.98.69 4.16.29 5.78-1.05a57.154 57.154 0 0 1 16.46-9.52 6 6 0 0 0 3.79-4.48l6.42-33.12h19.69l6.42 33.12a6 6 0 0 0 3.79 4.48 57.058 57.058 0 0 1 16.46 9.52 6.012 6.012 0 0 0 5.78 1.05l31.91-11.01 9.84 17.05-1.06.93c-.93.04-1.86.29-2.71.78l-20.18 11.65a6.042 6.042 0 0 0-2.68 7.17zm-57.42-20.15c20.3 0 36.81 16.51 36.81 36.8s-16.51 36.81-36.81 36.81c-20.29 0-36.8-16.51-36.8-36.81 0-20.29 16.51-36.8 36.8-36.8zm85.45 63.72c8.3-14.39 26.76-19.33 41.14-11.03 6.97 4.03 11.95 10.52 14.04 18.29 2.08 7.77 1.01 15.89-3.01 22.86-5.58 9.65-15.72 15.05-26.14 15.05-5.11 0-10.28-1.3-15.01-4.03-6.97-4.02-11.95-10.52-14.03-18.29-2.09-7.76-1.02-15.88 3.01-22.85z" clip-rule="evenodd" fill="#ffffff" opacity="1" data-original="#000000" class=""></path></g></svg>