<svg xmlns="http://www.w3.org/2000/svg" version="1.1" xmlns:xlink="http://www.w3.org/1999/xlink" width="512" height="512" x="0" y="0" viewBox="0 0 32 32" style="enable-background:new 0 0 512 512" xml:space="preserve"><g><path d="M21 28h-1.559c-.745-.852-1.282-1.89-1.441-3h-4c-.16 1.111-.696 2.148-1.441 3H11a1 1 0 0 0 0 2h10a1 1 0 1 0 0-2zM20 10h-8a3 3 0 0 0-3 3v4a3 3 0 0 0 3 3h8a3 3 0 0 0 3-3v-4a3 3 0 0 0-3-3zm-8 3.5c0-.827.673-1.5 1.5-1.5s1.5.673 1.5 1.5-.673 1.5-1.5 1.5-1.5-.673-1.5-1.5zm5.5 4.5h-3a.5.5 0 1 1 0-1h3a.5.5 0 1 1 0 1zm1-3c-.827 0-1.5-.673-1.5-1.5s.673-1.5 1.5-1.5 1.5.673 1.5 1.5-.673 1.5-1.5 1.5zM8 17a2 2 0 1 1 0-4zM24 17a2 2 0 1 0 0-4z" fill="#ffffff" opacity="1" data-original="#000000"></path><path d="M26 6h-8v3h2c1.859 0 3.41 1.28 3.858 3H24c1.654 0 3 1.346 3 3s-1.346 3-3 3h-.142c-.447 1.72-2 3-3.858 3h-8c-1.858 0-3.41-1.28-3.858-3H8c-1.654 0-3-1.346-3-3s1.346-3 3-3h.142c.447-1.72 2-3 3.858-3h2V6H6c-2.206 0-4 1.794-4 4v10c0 2.206 1.794 4 4 4h20c2.206 0 4-1.794 4-4V10c0-2.206-1.794-4-4-4z" fill="#ffffff" opacity="1" data-original="#000000"></path><path d="M18 4a2 2 0 1 0-4 0c0 .738.405 1.376 1 1.723V9h2V5.723c.595-.347 1-.985 1-1.723z" fill="#ffffff" opacity="1" data-original="#000000"></path></g></svg>