<svg xmlns="http://www.w3.org/2000/svg" version="1.1" xmlns:xlink="http://www.w3.org/1999/xlink" width="512" height="512" x="0" y="0" viewBox="0 0 468 468" style="enable-background:new 0 0 512 512" xml:space="preserve" class=""><g><path d="M412.963 234c0-9.647-.8-19.108-2.314-28.334L468 165.073l-56.376-96.145-64.396 28.615a179.462 179.462 0 0 0-49.827-28.364L290.376 0H177.624l-7.026 69.178a179.462 179.462 0 0 0-49.827 28.364L56.376 68.927 0 165.073l57.351 40.593c-1.515 9.226-2.314 18.687-2.314 28.334s.8 19.108 2.314 28.334L0 302.927l56.376 96.145 64.396-28.615a179.462 179.462 0 0 0 49.827 28.364L177.624 468h112.751l7.026-69.178a179.462 179.462 0 0 0 49.827-28.364l64.396 28.615L468 302.927l-57.351-40.593A174.727 174.727 0 0 0 412.963 234zM126.23 262.802l-38.331-31.967 19.161-22.977 13.277 11.073c6.446-49.056 45.139-89.226 93.761-97.799 38.986-6.876 78.167 6.536 104.811 35.87l-22.146 20.116c-19.698-21.687-48.66-31.599-77.47-26.523-36.753 6.48-65.683 37.35-69.537 74.552l20.428-12.59 15.697 25.47-42.222 26.022c-2.418 1.489-9.83 4.811-17.429-1.247zm234.709-2.66-13.276-11.072c-6.446 49.055-45.139 89.226-93.761 97.798-40.43 7.129-82.637-8.558-108.64-40.309l23.146-18.956c19.406 23.694 50.175 35.113 80.299 29.802 36.753-6.48 65.683-37.351 69.538-74.552l-20.428 12.59-15.698-25.47 42.221-26.022a14.965 14.965 0 0 1 17.43 1.246l38.331 31.967z" fill="#ffffff" opacity="1" data-original="#000000" class=""></path></g></svg>