<svg xmlns="http://www.w3.org/2000/svg" version="1.1" xmlns:xlink="http://www.w3.org/1999/xlink" width="512" height="512" x="0" y="0" viewBox="0 0 512 512" style="enable-background:new 0 0 512 512" xml:space="preserve" class=""><g><path fill-rule="evenodd" d="M286.51 41.253c0-5.22-.939-10.32-2.659-15.102l64.252 64.251c-4.822-1.756-9.947-2.718-15.161-2.718h-46.284l-.148-.148zm25.843 420.341H18.289c-4.029 0-7.314-3.286-7.314-7.314V18.308c0-4.029 3.286-7.315 7.314-7.315H243.18c16.005 0 28.7 14.721 28.7 30.259v53.717c0 4.044 3.299 7.344 7.344 7.344h53.718c15.57 0 30.951 13.287 30.951 29.393v118.396c-24.038 11.48-50.287 20.028-75.33 26.419l-5.269 1.344c-3.142.802-5.269 3.541-5.269 6.783v107.921c0 15.173 3.727 29.157 11.482 42.215 5.727 9.643 13.663 18.544 22.845 26.808zM51.343 77.242a7 7 0 0 0 7 7h149.084a7 7 0 1 0 0-14H58.342a7 7 0 0 0-7 7zm0 53.017a7 7 0 0 0 7 7h149.084a7 7 0 1 0 0-14H58.342a7 7 0 0 0-7 7zm0 53.017a7 7 0 0 0 7 7h258.264a7 7 0 1 0 0-14H58.342a7 7 0 0 0-7 7zm0 53.018a7 7 0 0 0 7 7h258.264a7 7 0 1 0 0-14H58.342a7 7 0 0 0-7 7zm205.963 159.052a7 7 0 0 0-7-7H58.342a7 7 0 1 0 0 14h191.964a7 7 0 0 0 7-7zm0-53.017a7 7 0 0 0-7-7H58.342a7 7 0 1 0 0 14h191.964a7 7 0 0 0 7-7zm0-53.017a7 7 0 0 0-7-7H58.342a7 7 0 1 0 0 14h191.964a7 7 0 0 0 7-7zm101.958 78.052 16.051 27.8c2.978 5.142 10.067 6.084 14.274 1.882l42.758-42.758a9.088 9.088 0 0 0 0-12.854 9.088 9.088 0 0 0-12.854 0l-34.397 34.397-10.137-17.557a9.068 9.068 0 0 0-12.393-3.302c-4.334 2.51-5.812 8.059-3.303 12.393zm141.761-77.276v102.483c0 12.682-3.041 24.159-9.519 35.066-17.747 29.883-61.961 53.408-94.981 73.371-33.02-19.962-77.234-43.488-94.981-73.371-6.478-10.907-9.519-22.384-9.519-35.066V290.088c23.769-6.066 67.983-19.056 104.5-41.855 36.517 22.799 80.732 35.79 104.5 41.855zm-18.366 19.408a6.98 6.98 0 0 0-5.013-6.719c-29.547-8.657-55.72-19.169-77.747-31.253a6.953 6.953 0 0 0-6.7 0c-22.076 12.084-48.2 22.596-77.747 31.253-2.989.877-5.061 3.61-5.061 6.719v83.131c0 9.544 2.217 17.709 6.989 25.686 13.496 22.755 50.9 44.749 75.626 59.296a6.841 6.841 0 0 0 3.519.969 7.012 7.012 0 0 0 3.567-.969c24.727-14.547 62.13-36.536 75.626-59.296 4.772-7.977 6.941-16.138 6.941-25.686zm-86.134-23.878c20.919 11.12 45.164 20.89 72.156 29.094v77.916c0 7.018-1.542 12.735-5.013 18.533-11.038 18.649-44.827 39.153-67.143 52.297-22.269-13.144-56.057-33.649-67.143-52.297-3.422-5.799-4.965-11.515-4.965-18.533v-77.916c26.992-8.204 51.237-17.974 72.108-29.094zm0 30.469c-29.271 0-53.144 23.873-53.144 53.143s23.873 53.143 53.144 53.143 53.143-23.873 53.143-53.143-23.873-53.143-53.143-53.143z" fill="#ffffff" opacity="1" data-original="#000000"></path></g></svg>