<svg xmlns="http://www.w3.org/2000/svg" version="1.1" xmlns:xlink="http://www.w3.org/1999/xlink" width="512" height="512" x="0" y="0" viewBox="0 0 496 496" style="enable-background:new 0 0 512 512" xml:space="preserve"><g><path d="M267.2 383.2c-8-3.2-30.4-2.4-38.4 0-20.8 4.8-56 22.402-56 60l-.8 45.6c0 1.598.8 3.2 1.602 4.802.796 1.597 3.199 1.597 4.796 1.597H311.2L316 496h.8c1.598 0 3.2-.8 4-1.602 1.598-1.597 2.4-3.199 2.4-4.796v-46.403c0-38.398-34.4-56-56-60zM288.8 323.2c0-22.532-18.265-40.802-40.8-40.802s-40.8 18.27-40.8 40.801C207.2 345.734 225.464 364 248 364s40.8-18.266 40.8-40.8zM440 383.2c-8-3.2-30.398-2.4-38.398 0-20.801 4.8-56 22.402-56 60l-.801 45.6c0 1.598.8 3.2 1.597 4.802.801 1.597 3.204 1.597 4.801 1.597H484l4.8.801h.802c1.597 0 3.199-.8 4-1.602 1.597-1.597 2.398-3.199 2.398-4.796v-46.403c0-38.398-35.2-56-56-60zM461.602 323.2c0-22.532-18.27-40.802-40.801-40.802-22.535 0-40.801 18.27-40.801 40.801C380 345.734 398.266 364 420.8 364c22.532 0 40.802-18.266 40.802-40.8zM95.2 383.2c-8-3.2-30.4-2.4-38.4 0-20.8 4.8-56 22.402-56 60L0 488.8c0 1.598.8 3.2 1.602 4.802.796 1.597 3.199 1.597 4.796 1.597H139.2L144 496h.8c1.598 0 3.2-.8 4-1.602 1.598-1.597 2.4-3.199 2.4-4.796v-46.403c0-38.398-35.2-56-56-60zM116 323.2c0-22.532-18.266-40.802-40.8-40.802-22.532 0-40.802 18.27-40.802 40.801C34.398 345.734 52.668 364 75.2 364 97.734 364 116 345.734 116 323.2zM34.398 234.398c3.204.801 7.204 0 9.602-2.398 2.398-1.602 4-4.8 4-8v-55.2c0-2.402 1.602-4 4-4s4 1.598 4 4v85.598h80.8v-80c0-2.398 1.598-4 4-4 2.4 0 4 1.602 4 4v10.403l51.2 28c4 1.597 8 .8 12-.801s7.2-5.602 8.8-9.602c0-.796.802-1.597.802-2.398V194.398c0-1.597-.801-2.398-1.602-4v-.796c-.8-1.602-1.602-2.403-2.398-3.204l-.801-.796c-1.602-.801-2.403-2.403-4-2.403l-39.2-20.8c-.8 0-.8-.797-1.601-.797l.8-1.602-19.198-30.398c-5.602-8.801-15.204-15.204-24.801-16H72c-5.602 0-12 .796-16.8 3.199-4.802 1.597-8.802 5.597-12 9.597-11.2 16.801-17.598 36-17.598 56.801v40c0 5.602 4 10.403 8.796 11.2zM132 62.398c0-19.878-16.117-36-36-36s-36 16.122-36 36c0 19.883 16.117 36 36 36s36-16.117 36-36zm0 0" fill="#ffffff" opacity="1" data-original="#000000"></path><path d="M209.602 171.2 260 96.8l10.398 7.2L220 178.398c1.602 1.602 2.398 2.403 3.2 4 2.402 3.204 4 7.204 4.8 11.204h229.602V0H175.199v149.602l2.403 4zM416 28.8h12.8v142.4H416zm-44.8 64H384V172h-12.8zm-32.802 24.802H351.2v53.597h-12.8zm-33.597-30.403h12.8v84h-12.8zm0 0" fill="#ffffff" opacity="1" data-original="#000000"></path></g></svg>