<svg xmlns="http://www.w3.org/2000/svg" version="1.1" xmlns:xlink="http://www.w3.org/1999/xlink" width="512" height="512" x="0" y="0" viewBox="0 0 512 512" style="enable-background:new 0 0 512 512" xml:space="preserve" class=""><g><path d="M256 112c30.9 0 56-25.1 56-56S286.9 0 256 0s-56 25.1-56 56 25.1 56 56 56z" fill="#ffffff" opacity="1" data-original="#000000" class=""></path><path d="m432 112.8-.5.1-.4.1-3 .9c-18.6 5.5-108.9 30.9-172.6 30.9-59.1 0-141.3-22-167.6-29.5-2.6-1-5.3-1.9-8-2.6-19-5-32 14.3-32 31.9 0 17.5 15.7 25.8 31.5 31.8v.3l95.2 29.7c9.7 3.7 12.3 7.5 13.6 10.8 4.1 10.6.8 31.6-.3 38.9l-5.8 45L150 477.4l-.3 1.5-.2 1.3c-2.3 16.1 9.5 31.8 32 31.8 19.6 0 28.3-13.5 32-31.9 0 0 28-157.6 42-157.6s42.8 157.6 42.8 157.6c3.8 18.4 12.4 31.9 32 31.9 22.5 0 34.4-15.7 32-31.9-.2-1.4-.5-2.7-.8-4.1L329 301.3l-5.8-45c-4.2-26.2-.8-34.9.3-36.9 0 0 .1-.1.1-.2 1.1-2 6-6.5 17.5-10.8l89.3-31.2c.5-.1 1.1-.3 1.6-.5 16-6 32-14.3 32-31.9s-13-37-32-32z" fill="#ffffff" opacity="1" data-original="#000000" class=""></path></g></svg>