<svg xmlns="http://www.w3.org/2000/svg" version="1.1" xmlns:xlink="http://www.w3.org/1999/xlink" width="512" height="512" x="0" y="0" viewBox="0 0 173.397 173.397" style="enable-background:new 0 0 512 512" xml:space="preserve" fill-rule="evenodd" class=""><g><path d="M56.187 125.623V93.801c.212-.098.421-.206.626-.324l2.197-1.267a38.732 38.732 0 0 0 3.28 2.558v33.907a3.051 3.051 0 0 1-3.052 3.052H36.766a12.773 12.773 0 0 0 0-6.104zm61.024.003h19.417a12.767 12.767 0 0 0 0 6.104h-22.47a3.053 3.053 0 0 1-3.051-3.052v-33.91a38.846 38.846 0 0 0 3.281-2.557l2.191 1.265c.207.119.417.228.631.326zm-33.568 13.695v-29.127h6.104v29.126a12.77 12.77 0 0 0-6.104 0zM60.262 59.542c.001 14.577 11.859 26.436 26.433 26.436 14.578 0 26.437-11.859 26.437-26.436 0-14.578-11.859-26.436-26.436-26.436-14.575 0-26.434 11.858-26.434 26.436zM86.696 142.507c-5.083 0-9.223 4.136-9.223 9.223 0 5.086 4.14 9.222 9.222 9.222 5.087 0 9.226-4.137 9.226-9.223 0-5.086-4.14-9.222-9.225-9.222zM149.038 119.455c-5.083 0-9.223 4.137-9.223 9.223 0 5.086 4.14 9.222 9.223 9.222 5.086 0 9.225-4.136 9.225-9.222 0-5.086-4.14-9.223-9.225-9.223z" fill="#ffffff" opacity="1" data-original="#000000"></path><path d="M86.696 89.542c-16.54 0-29.998-13.458-29.998-30 .001-16.543 13.458-30 29.997-30 16.543 0 30 13.457 30 30 .001 16.542-13.457 30-30 30zm-42.549-18.01a4.26 4.26 0 0 0-1.556 5.811l6.64 11.496a4.211 4.211 0 0 0 2.582 1.974 4.23 4.23 0 0 0 3.224-.417l3.219-1.856a1.77 1.77 0 0 1 1.087-.291 1.786 1.786 0 0 1 1.13.494 38.917 38.917 0 0 0 14.101 8.14 1.779 1.779 0 0 1 1.231 1.696v3.808a4.257 4.257 0 0 0 4.254 4.25h13.276a4.256 4.256 0 0 0 4.254-4.25v-3.805c0-.774.495-1.457 1.23-1.696a39.015 39.015 0 0 0 14.149-8.18 1.766 1.766 0 0 1 1.19-.458c.306 0 .614.078.892.239l3.307 1.909a4.23 4.23 0 0 0 3.224.417 4.21 4.21 0 0 0 2.583-1.973l6.639-11.497a4.258 4.258 0 0 0-1.556-5.81l-3.3-1.906a1.78 1.78 0 0 1-.852-1.912 39.533 39.533 0 0 0 0-16.347 1.78 1.78 0 0 1 .854-1.912l3.298-1.906a4.213 4.213 0 0 0 1.974-2.583 4.237 4.237 0 0 0-.418-3.227l-6.639-11.496a4.257 4.257 0 0 0-5.807-1.556l-3.31 1.912a1.784 1.784 0 0 1-2.082-.22A38.913 38.913 0 0 0 98.82 22.2a1.78 1.78 0 0 1-1.231-1.695v-3.809c0-2.345-1.91-4.25-4.254-4.25H80.06a4.257 4.257 0 0 0-4.255 4.25v3.809c0 .773-.495 1.457-1.23 1.695a38.942 38.942 0 0 0-14.145 8.18 1.788 1.788 0 0 1-2.086.22l-3.306-1.912a4.256 4.256 0 0 0-5.808 1.556l-6.639 11.5a4.256 4.256 0 0 0 1.556 5.806l3.298 1.906a1.78 1.78 0 0 1 .854 1.912 39.568 39.568 0 0 0 0 16.347 1.78 1.78 0 0 1-.854 1.912zM24.356 119.452c-5.085 0-9.222 4.14-9.222 9.223 0 5.085 4.136 9.225 9.222 9.225 5.087 0 9.223-4.14 9.223-9.226 0-5.083-4.136-9.222-9.223-9.222z" fill="#ffffff" opacity="1" data-original="#000000"></path></g></svg>