<svg xmlns="http://www.w3.org/2000/svg" version="1.1" xmlns:xlink="http://www.w3.org/1999/xlink" width="512" height="512" x="0" y="0" viewBox="0 0 24 24" style="enable-background:new 0 0 512 512" xml:space="preserve" class=""><g><path d="M14.504 9.496c-1.349-1.35.207-4.317 2.44-6.552C19.178.71 22.146-.846 23.496.504c1.349 1.35-.207 4.317-2.44 6.552-2.234 2.233-5.203 3.79-6.552 2.44zm3.501-5.491c-2.231 2.232-2.729 4.142-2.44 4.431.291.291 2.2-.21 4.431-2.44 2.231-2.231 2.729-4.142 2.44-4.431-.681-.674-3.718 1.727-4.431 2.44z" fill="#089768" opacity="1" data-original="#000000" class=""></path><path d="M16.944 7.056c-2.234-2.234-3.79-5.202-2.44-6.552 1.35-1.349 4.317.207 6.552 2.44 2.234 2.234 3.79 5.202 2.44 6.552-1.551 1.551-4.865-.754-6.552-2.44zm-1.38-5.492c-.288.289.209 2.199 2.44 4.431 2.231 2.231 4.144 2.727 4.431 2.44.289-.289-.209-2.199-2.44-4.431-2.23-2.229-4.14-2.728-4.431-2.44z" fill="#089768" opacity="1" data-original="#000000" class=""></path><path d="M19 11.09c-2.016 1.059-4.308 1.422-5.91-.18-1.4-1.4-1.4-3.56-.18-5.91-.98-1.88-1.17-3.64-.48-4.99C12.29 0 12.14 0 12 0 7.04 0 3 4.04 3 9c0 .62-.17 1.23-.51 1.76L.16 14.47c-.11.16-.16.34-.16.53 0 .56.44 1 1 1h2v3c0 1.1.9 2 2 2 .22 0 .42-.03.59-.09L8 20.17v3.33c0 .28.22.5.5.5h9c.28 0 .5-.22.5-.5v-5.03c0-1.54.47-3.03 1.36-4.3.53-.75.94-1.57 1.21-2.43-.54-.16-1.07-.39-1.57-.65z" fill="#089768" opacity="1" data-original="#000000" class=""></path></g></svg>