<svg xmlns="http://www.w3.org/2000/svg" version="1.1" xmlns:xlink="http://www.w3.org/1999/xlink" width="512" height="512" x="0" y="0" viewBox="0 0 32 32" style="enable-background:new 0 0 512 512" xml:space="preserve" class=""><g><path d="m15.004 5 1.65-3H7.346l1.65 3zM12.094 21.424A1 1 0 0 0 13 22h2.382l.723 1.447A1 1 0 0 0 17 24h.03a1 1 0 0 0 .889-.606l2.334-5.446a5.993 5.993 0 0 1-4.048-2.356l-3.973 4.767a1 1 0 0 0-.138 1.065zM29.768 20.36l-3.973-4.768a5.993 5.993 0 0 1-4.048 2.356s2.835 6.04 3.224 6.052H25a1 1 0 0 0 .895-.553L26.618 22H29a1 1 0 0 0 .768-1.64zM26 12c0-2.757-2.243-5-5-5s-5 2.243-5 5 2.243 5 5 5 5-2.243 5-5zm-3.146-1.146-2 2a.498.498 0 0 1-.708 0l-1-1a.5.5 0 1 1 .708-.708l.646.647 1.646-1.647a.5.5 0 1 1 .708.708z" fill="#ffffff" opacity="1" data-original="#000000"></path><path d="M17.06 25H9.5a.5.5 0 1 1 0-1h5.783c-.021-.037-.053-.066-.072-.105L14.764 23H13a2.007 2.007 0 0 1-1.812-1.152A1.992 1.992 0 0 1 11.291 20H9.667C9.298 20 9 19.776 9 19.5s.298-.5.667-.5h2.396l3.333-4H9.5a.5.5 0 1 1 0-1h5.85c-.222-.627-.35-1.298-.35-2s.128-1.373.35-2H9.5a.5.5 0 1 1 0-1h6.312c1.04-1.79 2.973-3 5.188-3V3a1 1 0 0 0-1-1h-2.204l-2.058 3.741A.5.5 0 0 1 15.3 6H8.7a.5.5 0 0 1-.438-.259L6.204 2H3a1 1 0 0 0-1 1v26a1 1 0 0 0 1 1h17a1 1 0 0 0 1-1V18.742l-2.162 5.045A2.007 2.007 0 0 1 17.06 25zm-9.206-2.146-2 2a.498.498 0 0 1-.708 0l-1-1a.5.5 0 1 1 .708-.708l.646.647 1.646-1.647a.5.5 0 1 1 .708.708zm0-5-2 2a.498.498 0 0 1-.708 0l-1-1a.5.5 0 1 1 .708-.708l.646.647 1.646-1.647a.5.5 0 1 1 .708.708zm0-5-2 2a.498.498 0 0 1-.708 0l-1-1a.5.5 0 1 1 .708-.708l.646.647 1.646-1.647a.5.5 0 1 1 .708.708zm0-5-2 2a.498.498 0 0 1-.708 0l-1-1a.5.5 0 1 1 .708-.708l.646.647 1.646-1.647a.5.5 0 1 1 .708.708z" fill="#ffffff" opacity="1" data-original="#000000"></path></g></svg>