<svg xmlns="http://www.w3.org/2000/svg" version="1.1" xmlns:xlink="http://www.w3.org/1999/xlink" width="512" height="512" x="0" y="0" viewBox="0 0 609.609 609.609" style="enable-background:new 0 0 512 512" xml:space="preserve" class=""><g><path d="m17.025 348.862 39.781 6.52a245.001 245.001 0 0 0 35.441 85.41l-23.558 32.879a18.6 18.6 0 0 0 .207 22.298 272.447 272.447 0 0 0 18.909 20.82c6.716 6.727 13.639 12.926 20.769 18.919a18.6 18.6 0 0 0 22.319.207l32.858-23.569a244.54 244.54 0 0 0 85.348 35.462l6.51 39.812a18.413 18.413 0 0 0 15.912 15.499c5.662.641 11.366 1.033 17.194 1.323a10.404 10.404 0 0 0 10.911-10.312v-82.806a10.395 10.395 0 0 0-10.043-10.333c-104.417-5.413-186.304-91.655-186.304-196.212s81.887-190.799 186.304-196.212a10.395 10.395 0 0 0 10.043-10.333V15.5a10.397 10.397 0 0 0-10.881-10.333 293.82 293.82 0 0 0-17.225 1.219 18.65 18.65 0 0 0-15.912 15.623l-6.51 39.812a244.773 244.773 0 0 0-85.348 35.472l-32.858-23.579a18.598 18.598 0 0 0-22.319.207A274.878 274.878 0 0 0 87.804 92.84a238.508 238.508 0 0 0-18.909 20.82 18.598 18.598 0 0 0-.207 22.339l23.558 32.879a245.01 245.01 0 0 0-35.441 85.379l-39.781 6.51A18.423 18.423 0 0 0 1.525 276.69a255.859 255.859 0 0 0 0 55.796 18.683 18.683 0 0 0 15.5 16.376z" fill="#089768" opacity="1" data-original="#000000" class=""></path><path d="M289.745 150.134c-81.631 5.171-145.192 72.886-145.192 154.68s63.562 149.509 145.192 154.68a9.482 9.482 0 0 0 9.878-9.568V159.702a9.482 9.482 0 0 0-9.878-9.568zM371.952 160.157h-51.663v20.665h51.663c17.099-.051 30.947-13.899 30.998-30.998V85.927c14.234-5.032 22.772-19.587 20.219-34.467s-15.454-25.756-30.552-25.756c-15.097 0-27.999 10.876-30.552 25.756s5.985 29.435 20.219 34.467v63.897c0 5.707-4.626 10.333-10.332 10.333zM320.288 222.153h103.327c5.707 0 10.333-4.626 10.333-10.333s-4.626-10.333-10.333-10.333H320.288zM320.288 449.471h51.663c5.707 0 10.333 4.626 10.333 10.333v63.897c-14.234 5.032-22.772 19.587-20.219 34.467s15.454 25.756 30.552 25.756c15.097 0 27.999-10.876 30.552-25.756s-5.985-29.435-20.219-34.467v-63.897c-.051-17.099-13.899-30.947-30.998-30.998h-51.663v20.665zM475.278 346.145h-154.99v20.665h154.99c5.707 0 10.333 4.626 10.333 10.333v53.565c-14.234 5.032-22.772 19.587-20.219 34.467s15.454 25.756 30.552 25.756c15.097 0 27.999-10.876 30.552-25.756s-5.985-29.435-20.219-34.467v-53.565c-.052-17.099-13.9-30.947-30.999-30.998zM578.605 273.816a30.998 30.998 0 0 0-29.097 20.665h-229.22v20.665h229.22c5.28 14.823 20.843 23.324 36.169 19.756s25.534-18.068 23.724-33.699c-1.809-15.63-15.061-27.415-30.796-27.387z" fill="#089768" opacity="1" data-original="#000000" class=""></path><path d="M433.948 397.808c0-5.707-4.626-10.333-10.333-10.333H320.288v20.665h103.327c5.707.001 10.333-4.625 10.333-10.332zM506.276 232.486v-53.565c14.234-5.032 22.772-19.587 20.219-34.467s-15.454-25.756-30.552-25.756c-15.097 0-27.999 10.876-30.552 25.756s5.985 29.435 20.219 34.467v53.565c0 5.707-4.626 10.333-10.333 10.333h-154.99v20.665h154.99c17.1-.052 30.948-13.9 30.999-30.998z" fill="#089768" opacity="1" data-original="#000000" class=""></path></g></svg>