<svg xmlns="http://www.w3.org/2000/svg" version="1.1" xmlns:xlink="http://www.w3.org/1999/xlink" width="512" height="512" x="0" y="0" viewBox="0 0 160 160" style="enable-background:new 0 0 512 512" xml:space="preserve" class=""><g><path d="M85.754 118a32.959 32.959 0 0 1-.754-7c0-18.196 14.804-33 33-33a32.85 32.85 0 0 1 21 7.563V40c0-2.206-1.794-4-4-4H27c-2.206 0-4 1.794-4 4v74c0 2.206 1.794 4 4 4zM89 51h40a2 2 0 0 1 0 4H89a2 2 0 0 1 0-4zm0 14h40a2 2 0 0 1 0 4H89a2 2 0 0 1 0-4zM55 47c8.271 0 15 6.729 15 15s-6.729 15-15 15-15-6.729-15-15 6.729-15 15-15zM34 97c0-8.822 7.178-16 16-16h10c8.822 0 16 7.178 16 16v8a2 2 0 0 1-2 2H36a2 2 0 0 1-2-2z" fill="#ffffff" opacity="1" data-original="#000000" class=""></path><circle cx="55" cy="62" r="11" fill="#ffffff" opacity="1" data-original="#000000" class=""></circle><path d="M72 97c0-6.617-5.383-12-12-12H50c-6.617 0-12 5.383-12 12v6h34zM118 82c-15.991 0-29 13.009-29 29s13.009 29 29 29 29-13.009 29-29-13.009-29-29-29zm-.586 44.414c-.39.391-.902.586-1.414.586s-1.024-.195-1.414-.586l-14.5-14.5a2 2 0 1 1 2.828-2.828L116 122.171l20.086-20.085a2 2 0 1 1 2.828 2.828z" fill="#ffffff" opacity="1" data-original="#000000" class=""></path></g></svg>