<svg xmlns="http://www.w3.org/2000/svg" version="1.1" xmlns:xlink="http://www.w3.org/1999/xlink" width="512" height="512" x="0" y="0" viewBox="0 0 32 32" style="enable-background:new 0 0 512 512" xml:space="preserve"><g><path d="M15 23.025h-1v1.004a1 1 0 0 1-1.625.784l-5-4.015a1.006 1.006 0 0 1 0-1.568l5-4.014A.999.999 0 0 1 14 16v1.004h1v-3.011c0-.555.447-1.004 1-1.004h3c.526 0 .957.408.997.925l2.402-1.929-2.402-1.929c-.04.518-.47.926-.997.926h-3c-.553 0-1-.45-1-1.004V2C7.747 2.518 2 8.591 2 16s5.747 13.482 13 14z" fill="#ffffff" opacity="1" data-original="#000000"></path><path d="M17 2v6.975h1V7.97c0-.386.22-.737.566-.905s.758-.12 1.059.12l5 4.015a1.006 1.006 0 0 1 0 1.569l-5 4.014a.994.994 0 0 1-1.059.12A1.005 1.005 0 0 1 18 16v-1.004h-1v3.011c0 .555-.447 1.004-1 1.004h-3c-.526 0-.957-.408-.997-.925L9.6 20.015l2.402 1.928c.04-.517.47-.925.997-.925h3c.553 0 1 .45 1 1.004V30c7.253-.518 13-6.591 13-14S24.253 2.518 17 2z" fill="#ffffff" opacity="1" data-original="#000000"></path></g></svg>