<svg xmlns="http://www.w3.org/2000/svg" version="1.1" xmlns:xlink="http://www.w3.org/1999/xlink" width="512" height="512" x="0" y="0" viewBox="0 0 512 512" style="enable-background:new 0 0 512 512" xml:space="preserve" class=""><g><path d="M284.771 238.771C284.771 222.906 271.864 210 256 210s-28.771 12.906-28.771 28.771 12.906 28.771 28.771 28.771 28.771-12.907 28.771-28.771zM310.859 352.401c0-30.25-24.609-54.859-54.859-54.859s-54.859 24.609-54.859 54.859V392H241v32.58c-17.459 6.192-30 22.865-30 42.42 0 24.813 20.187 45 45 45s45-20.187 45-45c0-19.555-12.541-36.228-30-42.42V392h39.859z" fill="#ffffff" opacity="1" data-original="#000000" class=""></path><path d="M461.231 322.529c-16.933-9.777-37.644-7.253-51.736 4.771l-28.216-16.29 31.76-55.01-31.76-55.01 28.211-16.288c8.21 7.006 18.666 10.789 29.316 10.789a44.72 44.72 0 0 0 22.425-6.021c21.488-12.406 28.877-39.982 16.471-61.471-12.405-21.489-39.981-28.877-61.471-16.471-16.934 9.777-25.103 28.975-21.736 47.19l-28.216 16.29L334.52 120H271V87.42c17.459-6.192 30-22.865 30-42.42 0-24.813-20.187-45-45-45s-45 20.187-45 45c0 19.555 12.541 36.228 30 42.42V120h-63.52l-31.76 55.01-28.216-16.29c3.367-18.216-4.802-37.413-21.736-47.19-21.486-12.408-49.063-5.019-61.47 16.47-12.406 21.488-5.018 49.064 16.471 61.471a44.714 44.714 0 0 0 22.425 6.021c10.648 0 21.105-3.783 29.315-10.789l28.212 16.288L98.961 256l31.76 55.01-28.215 16.29c-14.091-12.024-34.802-14.548-51.737-4.77C29.28 334.936 21.892 362.512 34.298 384c8.325 14.421 23.481 22.491 39.046 22.491a44.72 44.72 0 0 0 22.425-6.021c16.934-9.777 25.103-28.975 21.736-47.19l28.216-16.29 25.42 44.029v-28.618c0-31.236 16.976-58.565 42.174-73.296-9.959-10.534-16.085-24.728-16.085-40.335C197.229 206.364 223.594 180 256 180s58.771 26.364 58.771 58.771c0 15.606-6.126 29.801-16.085 40.335 25.198 14.731 42.174 42.06 42.174 73.296v28.618l25.42-44.029 28.216 16.29c-3.367 18.216 4.802 37.413 21.736 47.19a44.714 44.714 0 0 0 22.425 6.021c15.562 0 30.721-8.072 39.046-22.491 12.405-21.489 5.017-49.065-16.472-61.472z" fill="#ffffff" opacity="1" data-original="#000000" class=""></path></g></svg>