<svg xmlns="http://www.w3.org/2000/svg" version="1.1" xmlns:xlink="http://www.w3.org/1999/xlink" width="512" height="512" x="0" y="0" viewBox="0 0 64 64" style="enable-background:new 0 0 512 512" xml:space="preserve" class=""><g><path d="M26 59h-6a1 1 0 0 1-1-1H4.32l.23 1.32a1.014 1.014 0 0 0 .95.68h35a1.014 1.014 0 0 0 .95-.68l.23-1.32H27a1 1 0 0 1-1 1ZM7 36a.988.988 0 0 0-.89.55A1.064 1.064 0 0 0 6 37v19h14a1 1 0 0 1 1 1h4a1 1 0 0 1 1-1h14V44h-1a1 1 0 0 1-.97-.76l-.17-.67-.59.36a1 1 0 0 1-1.22-.15l-2.83-2.83a1 1 0 0 1-.15-1.22l.36-.59-.67-.17A1 1 0 0 1 32 37v-1Zm13 11h-2v-2h2Zm4 0h-2v-2h2Zm4 0h-2v-2h2Z" fill="#ffffff" opacity="1" data-original="#000000"></path><circle cx="41" cy="35" r="2" fill="#ffffff" opacity="1" data-original="#000000"></circle><path d="M8 22h11.54A6 6 0 0 1 24 20h1.04A11.02 11.02 0 0 1 36 10c.3 0 .6.02.9.05a4.992 4.992 0 0 0-8.41-2.61 1 1 0 0 1-.75.29 1.021 1.021 0 0 1-.73-.37A9 9 0 0 0 11 13a1 1 0 0 1-1 1H8a4 4 0 0 0 0 8Z" fill="#ffffff" opacity="1" data-original="#000000"></path><path d="M56 22h-2.35a1.028 1.028 0 0 1-.82-.42 1.014 1.014 0 0 1-.12-.91A5.2 5.2 0 0 0 53 19a5 5 0 0 0-8.51-3.56 1 1 0 0 1-.75.29 1.021 1.021 0 0 1-.73-.37A9 9 0 0 0 27 21a1 1 0 0 1-1 1h-2a4 4 0 0 0 0 8h9.27l2.78-2.78a1 1 0 0 1 1.22-.15l.59.36.17-.67A1 1 0 0 1 39 26h4a1 1 0 0 1 .97.76l.17.67.59-.36a1 1 0 0 1 1.22.15L48.73 30H56a4 4 0 0 0 0-8Z" fill="#ffffff" opacity="1" data-original="#000000"></path><path d="m45.09 40.81 1.72-1.72-.65-1.08a1.019 1.019 0 0 1-.06-.9 1.007 1.007 0 0 1 .68-.59l1.22-.3v-2.44l-1.22-.3a1.007 1.007 0 0 1-.68-.59 1.019 1.019 0 0 1 .06-.9l.65-1.08-1.72-1.72-1.08.64a.989.989 0 0 1-.9.07 1.007 1.007 0 0 1-.59-.68l-.3-1.22h-2.44l-.3 1.22a1.007 1.007 0 0 1-.59.68.989.989 0 0 1-.9-.07l-1.08-.64-1.72 1.72.65 1.08a1.019 1.019 0 0 1 .06.9 1.007 1.007 0 0 1-.68.59l-1.22.3v2.44l1.22.3a1.007 1.007 0 0 1 .68.59 1.019 1.019 0 0 1-.06.9l-.65 1.08 1.72 1.72 1.08-.65a1.019 1.019 0 0 1 .9-.06 1.007 1.007 0 0 1 .59.68l.3 1.22h2.44l.3-1.22a1.007 1.007 0 0 1 .59-.68 1.019 1.019 0 0 1 .9.06ZM41 39a4 4 0 1 1 4-4 4 4 0 0 1-4 4ZM55 46a3 3 0 0 1-3 3h-8v2h8a5.006 5.006 0 0 0 5-5V34h-2Z" fill="#ffffff" opacity="1" data-original="#000000"></path></g></svg>