<svg xmlns="http://www.w3.org/2000/svg" version="1.1" xmlns:xlink="http://www.w3.org/1999/xlink" width="512" height="512" x="0" y="0" viewBox="0 0 32 32" style="enable-background:new 0 0 512 512" xml:space="preserve" class=""><g><path d="M16 2C11.58 2 7.505 4.047 4.863 7.524A.988.988 0 0 0 4 7a1 1 0 0 0-1 1v2a1 1 0 0 0 1 1h2a1 1 0 0 0 1-1 .985.985 0 0 0-.754-.95C8.5 5.886 12.086 4 16 4c6.617 0 12 5.383 12 12a1 1 0 1 0 2 0c0-7.72-6.28-14-14-14zM28 21h-2a1 1 0 0 0-1 1c0 .466.325.84.756.95C23.5 26.115 19.909 28 16 28 9.383 28 4 22.617 4 16a1 1 0 1 0-2 0c0 7.72 6.28 14 14 14 4.415 0 8.483-2.063 11.125-5.542A.99.99 0 0 0 28 25a1 1 0 0 0 1-1v-2a1 1 0 0 0-1-1z" fill="#ffffff" opacity="1" data-original="#000000" class=""></path><path d="M21.306 12.5 16 10.05l-5.306 2.45L16 14.949zM15.5 15.82 10 13.28v5.898l5.5 2.54z" fill="#ffffff" opacity="1" data-original="#000000" class=""></path><path d="M5.684 14.052A.999.999 0 0 0 5 15v2c0 .43.275.813.684.948l1.675.56c.185.634.439 1.245.76 1.826l-.792 1.583a1 1 0 0 0 .188 1.154l1.414 1.414c.305.307.77.38 1.154.188l1.583-.791c.581.32 1.192.574 1.826.759l.56 1.675A.999.999 0 0 0 15 27h2c.43 0 .813-.275.948-.684l.56-1.675a8.981 8.981 0 0 0 1.826-.76l1.583.792a1 1 0 0 0 1.154-.188l1.414-1.414a1 1 0 0 0 .188-1.154l-.791-1.583c.32-.581.574-1.192.759-1.826l1.675-.56A.999.999 0 0 0 27 17v-2a.999.999 0 0 0-.684-.948l-1.675-.56a8.981 8.981 0 0 0-.76-1.826l.792-1.583a1 1 0 0 0-.188-1.154l-1.414-1.414a.999.999 0 0 0-1.154-.188l-1.583.791a8.981 8.981 0 0 0-1.826-.759l-.56-1.675A.999.999 0 0 0 17 5h-2a.999.999 0 0 0-.948.684l-.56 1.675a8.981 8.981 0 0 0-1.826.76l-1.583-.792a.996.996 0 0 0-1.154.188L7.515 8.929a1 1 0 0 0-.188 1.154l.791 1.583a8.981 8.981 0 0 0-.759 1.826zM9 12.5c0-.171.087-.33.23-.421.014-.009 6.56-3.033 6.56-3.033a.508.508 0 0 1 .42 0l6.56 3.033c.143.092.23.25.23.42v7a.5.5 0 0 1-.29.455l-6.5 3a.512.512 0 0 1-.42 0l-6.5-3A.5.5 0 0 1 9 19.5z" fill="#ffffff" opacity="1" data-original="#000000" class=""></path><path d="M16.5 21.718 22 19.18v-5.898l-5.5 2.539z" fill="#ffffff" opacity="1" data-original="#000000" class=""></path></g></svg>