<svg xmlns="http://www.w3.org/2000/svg" version="1.1" xmlns:xlink="http://www.w3.org/1999/xlink" width="512" height="512" x="0" y="0" viewBox="0 0 100 100" style="enable-background:new 0 0 512 512" xml:space="preserve" class=""><g><path d="M63.324 67.656c0-7.346-5.978-13.322-13.324-13.322-7.347 0-13.324 5.977-13.324 13.322 0 7.347 5.977 13.324 13.324 13.324s13.324-5.977 13.324-13.324zM64.93 58.912l8.86-3.172a26.805 26.805 0 0 0-10.666-11.226l-4.451 8.169a17.44 17.44 0 0 1 6.257 6.229z" fill="#ffffff" opacity="1" data-original="#000000" class=""></path><path d="m75.314 59.442-8.754 3.134c.494 1.607.764 3.313.764 5.08 0 7.415-4.691 13.738-11.254 16.205l2.792 8.891c10.332-3.66 17.755-13.524 17.755-25.095 0-2.866-.461-5.626-1.303-8.215zM50 94.274a26.56 26.56 0 0 0 4.998-.478l-2.817-8.969c-.716.09-1.44.152-2.181.152-9.553 0-17.324-7.771-17.324-17.324 0-9.552 7.771-17.322 17.324-17.322 1.736 0 3.412.264 4.994.741l4.51-8.275A26.479 26.479 0 0 0 50 41.039c-14.677 0-26.617 11.94-26.617 26.617S35.323 94.274 50 94.274z" fill="#ffffff" opacity="1" data-original="#000000" class=""></path><path d="M96 76.82V19.526H4V76.82h16.785a30.509 30.509 0 0 1-1.402-9.163C19.383 50.774 33.118 37.04 50 37.04c4.691 0 9.138 1.063 13.116 2.958.052.023.105.038.156.066.012.006.021.016.032.022a30.794 30.794 0 0 1 15.048 16.032c.014.033.033.063.046.097.006.018.008.035.013.053a30.433 30.433 0 0 1 2.206 11.39c0 3.19-.492 6.269-1.402 9.163H96zM19.302 36.981h-8.018a2 2 0 0 1 0-4h8.018a2 2 0 0 1 0 4zm5.886-8.118H11.285a2 2 0 0 1 0-4h13.904a2 2 0 0 1-.001 4zm49.624 0a2 2 0 0 1 0-4h13.904a2 2 0 0 1 0 4zm3.886 6.118a2 2 0 0 1 2-2h8.018a2 2 0 0 1 0 4h-8.018a2 2 0 0 1-2-2zM4 5.726v9.801h92V5.726zm26.211 6.9h-19.89a2 2 0 0 1 0-4h19.891a2 2 0 0 1-.001 4z" fill="#ffffff" opacity="1" data-original="#000000" class=""></path></g></svg>