<svg xmlns="http://www.w3.org/2000/svg" version="1.1" xmlns:xlink="http://www.w3.org/1999/xlink" width="512" height="512" x="0" y="0" viewBox="0 0 512 512" style="enable-background:new 0 0 512 512" xml:space="preserve" class=""><g><path fill-rule="evenodd" d="M90.35 79.54h367.57V25.27a4.28 4.28 0 0 0-4.27-4.27H94.62a4.28 4.28 0 0 0-4.27 4.27zm.75 390.97v-34.34H56.76zM330.77 233.3c-.1 3.6-2.52 6.61-6.01 7.5a92.3 92.3 0 0 0-24.3 10.06c-3.09 1.84-6.93 1.41-9.55-1.05l-13.33-12.56-23.15 23.15 12.55 13.33c2.47 2.62 2.89 6.46 1.06 9.55a91.885 91.885 0 0 0-10.06 24.3c-.89 3.48-3.9 5.9-7.5 6.01l-18.31.55v32.74l18.31.55c3.6.11 6.61 2.52 7.5 6.01a91.828 91.828 0 0 0 10.06 24.3c1.83 3.09 1.41 6.93-1.06 9.55l-12.55 13.33 23.15 23.15 13.33-12.55c2.62-2.47 6.46-2.89 9.55-1.05a92.342 92.342 0 0 0 24.28 10.05c3.48.89 5.9 3.9 6.01 7.49l.57 18.33h32.75l.57-18.33c.11-3.59 2.53-6.6 6.01-7.49a92.122 92.122 0 0 0 24.25-10.04c3.1-1.84 6.93-1.41 9.55 1.05l13.35 12.55 23.17-23.16-12.56-13.36c-2.46-2.61-2.88-6.45-1.04-9.54a92.384 92.384 0 0 0 10.04-24.26c.88-3.48 3.89-5.9 7.49-6.01l18.32-.57v-32.75l-18.32-.57c-3.6-.11-6.61-2.53-7.49-6.01a92.46 92.46 0 0 0-10.04-24.25c-1.84-3.09-1.42-6.93 1.04-9.55l12.56-13.36-23.17-23.16-13.35 12.55a7.939 7.939 0 0 1-9.55 1.05 91.777 91.777 0 0 0-24.27-10.04c-3.49-.89-5.91-3.9-6.01-7.5l-.55-18.31h-32.75zm-25.15 55.13C316.86 277.19 331.8 271 347.69 271c15.9 0 30.84 6.19 42.08 17.43 23.21 23.2 23.21 60.96 0 84.16-11.6 11.6-26.84 17.4-42.08 17.4-15.23 0-30.47-5.8-42.07-17.4-23.21-23.2-23.21-60.95 0-84.16zm13.82-77.57-.57 19.1c-7.63 2.18-14.97 5.22-21.9 9.06l-14-13.18a7.948 7.948 0 0 0-11.12.16l-10.4 10.4H81.7c-3.32 0-6 2.69-6 6s2.68 6 6 6h167.75l-6.26 6.26a7.948 7.948 0 0 0-.17 11.12l7.44 7.9H81.7c-3.32 0-6 2.69-6 6 0 3.32 2.68 6 6 6h171.48a104.05 104.05 0 0 0-6.04 15.99l-19.23.58a7.947 7.947 0 0 0-7.74 7.98v.73H81.7c-3.32 0-6 2.68-6 6 0 3.31 2.68 6 6 6h138.47v25.29H81.7c-3.32 0-6 2.69-6 6s2.68 6 6 6h165.72c2.16 7.29 5.1 14.32 8.79 20.97l-4.07 4.32H81.7c-3.32 0-6 2.69-6 6 0 3.32 2.68 6 6 6h159.8a7.956 7.956 0 0 0 1.69 8.81l28.66 28.66a7.958 7.958 0 0 0 11.12.17l14-13.18c6.92 3.84 14.26 6.88 21.88 9.06l.59 19.17V479H103.1v-48.82c0-3.31-2.68-6-6-6H48.28V135.2h271.16zm-27.42-5.74c0-3.32-2.68-6-6-6H81.7c-3.32 0-6 2.68-6 6s2.68 6 6 6h204.32c3.32 0 6-2.69 6-6zm-6-31.29c3.32 0 6-2.69 6-6 0-3.32-2.68-6-6-6H81.7c-3.32 0-6 2.69-6 6s2.68 6 6 6zm45.42-44.63c0-3.31-2.68-6-6-6H90.35V91.54h367.57v210.42l-9.68-.3a103.6 103.6 0 0 0-9.05-21.86l13.19-14.03a7.946 7.946 0 0 0-.18-11.11L423.54 226a7.958 7.958 0 0 0-11.12-.17l-14.02 13.18c-6.92-3.84-14.26-6.88-21.88-9.06l-.58-19.23a7.94 7.94 0 0 0-7.98-7.74h-36.52zm37.59-72.93c-3.32 0-6-2.69-6-6 0-3.32 2.68-6 6-6h.44c3.31 0 6 2.69 6 6s-2.69 6-6 6zm42.06 0c-3.31 0-6-2.69-6-6 0-3.32 2.69-6 6-6h.44c3.31 0 6 2.69 6 6s-2.69 6-6 6zm-83.67 0c-3.32 0-6-2.69-6-6 0-3.32 2.68-6 6-6h.44c3.31 0 6 2.69 6 6s-2.69 6-6 6z" clip-rule="evenodd" fill="#ffffff" opacity="1" data-original="#000000" class=""></path></g></svg>