<svg xmlns="http://www.w3.org/2000/svg" version="1.1" xmlns:xlink="http://www.w3.org/1999/xlink" width="512" height="512" x="0" y="0" viewBox="0 0 64 64" style="enable-background:new 0 0 512 512" xml:space="preserve" class=""><g><path d="M55.915 21.362a1.96 1.96 0 0 0-.59 1.41l-.01 12.403a2.743 2.743 0 0 1-.79 1.9l-8.022 8.012a1 1 0 0 1-1.42-1.41l8.031-8.012a.699.699 0 0 0 0-.99 4.143 4.143 0 0 0-5.821 0l-6.961 6.981a6.621 6.621 0 0 0-2.22 4.961v7.662h10.931a6.954 6.954 0 0 1 1.39-4.191l7.862-10.472a4.995 4.995 0 0 0 1-2.98l.01-13.863a2.002 2.002 0 0 0-3.39-1.41z" fill="#ffffff" opacity="1" data-original="#000000" class=""></path><rect width="17.743" height="3.721" x="34.56" y="56.279" rx="1" fill="#ffffff" opacity="1" data-original="#000000" class=""></rect><path d="M14.957 54.279h10.932v-7.652a6.62 6.62 0 0 0-2.18-4.94l-7.002-7.012a4.143 4.143 0 0 0-5.821 0 .699.699 0 0 0 0 .99l8.031 8.012a1 1 0 1 1-1.42 1.41l-8.021-8.011a2.714 2.714 0 0 1-.79-1.87l-.01-12.433a1.95 1.95 0 0 0-.58-1.4 2 2 0 0 0-3.401 1.4l.01 13.862a4.995 4.995 0 0 0 1 2.981l7.861 10.472a6.954 6.954 0 0 1 1.39 4.19z" fill="#ffffff" opacity="1" data-original="#000000" class=""></path><rect width="17.743" height="3.721" x="11.696" y="56.279" rx="1" fill="#ffffff" opacity="1" data-original="#000000" class=""></rect><path d="M41.492 32.175v-2.37a3.592 3.592 0 0 0-2.46-3.412c-2.601-.72-6.352-2.76-9.102-1.65l-4.961 1.65a3.592 3.592 0 0 0-2.46 3.411v2.37a.278.278 0 0 1-.01.09c4.963 3.301 8.485 5.052 9.5 5.272 1.02-.235 4.535-1.96 9.503-5.271a.276.276 0 0 1-.01-.09zM32 13.481a4.461 4.461 0 0 0 0 8.922 4.461 4.461 0 0 0 0-8.922z" fill="#ffffff" opacity="1" data-original="#000000" class=""></path><path d="M20.508 30.824a8.666 8.666 0 0 1 .18-2.4 5.594 5.594 0 0 1 3.64-3.93l3.921-1.301a6.457 6.457 0 1 1 7.502 0l3.92 1.3a5.625 5.625 0 0 1 3.821 5.311v1.02c4.951-3.76 9.652-8.841 9.512-14.512C53.03 6.002 40.449.255 32.54 6.75l-.54.43-.54-.43c-7.914-6.497-20.486-.747-20.464 9.562-.14 5.67 4.56 10.752 9.512 14.512z" fill="#ffffff" opacity="1" data-original="#000000" class=""></path></g></svg>