<svg xmlns="http://www.w3.org/2000/svg" version="1.1" xmlns:xlink="http://www.w3.org/1999/xlink" width="512" height="512" x="0" y="0" viewBox="0 0 500 500" style="enable-background:new 0 0 512 512" xml:space="preserve"><g><path fill-rule="evenodd" d="m1.39 92.46 84.75 9.17 39.76-75.41c-15.75-6.97-32.89-9.09-49.36-6.66-22.56 3.34-43.86 15.22-58.6 34.88-.16.25-.34.49-.53.72C9 66.6 3.72 79.37 1.39 92.46zm162.97-33.83c7.37 11.09 12.08 23.59 13.99 36.51 3.36 22.71-1.94 46.7-16.7 66.57-14.75 19.87-36.17 31.88-58.87 35.24-22.58 3.34-46.41-1.88-66.21-16.43-.23-.2-.47-.37-.72-.53-19.66-14.74-31.54-36.04-34.88-58.6a90.98 90.98 0 0 1-.91-16.58L89 114.43c1.74.18 3.38-.37 4.62-1.4zm-55.95 27.38 28.47-53.98c2.12 1.31 4.2 2.73 6.23 4.24 5.08 3.77 9.64 7.98 13.68 12.53zm257.01-26.34a6.22 6.22 0 0 1 0-12.44h89.84a6.22 6.22 0 0 1 6.22 6.22v89.84a6.22 6.22 0 0 1-12.44 0V68.47L283.9 233.61a6.223 6.223 0 0 1-8.8 0l-52.39-52.39L61.74 342.19a6.223 6.223 0 0 1-8.8-8.8l165.37-165.37a6.223 6.223 0 0 1 8.8 0l52.39 52.39L440.24 59.67zM171.43 268.22a6.22 6.22 0 0 0-6.22 6.22v200.73a6.22 6.22 0 0 0 6.22 6.22h85.19a6.22 6.22 0 0 0 6.22-6.22V274.45a6.22 6.22 0 0 0-6.22-6.22h-85.19zM500 281.71v-96.74a6.22 6.22 0 0 0-6.22-6.22h-85.19a6.22 6.22 0 0 0-6.22 6.22v290.21a6.22 6.22 0 0 0 6.22 6.22h85.19a6.22 6.22 0 0 0 6.22-6.22zM52.85 372.22h85.19a6.22 6.22 0 0 1 6.22 6.22v96.74a6.22 6.22 0 0 1-6.22 6.22H52.85a6.22 6.22 0 0 1-6.22-6.22v-96.74c0-3.43 2.79-6.22 6.22-6.22zm328.57 26.37v76.59a6.22 6.22 0 0 1-6.22 6.22h-85.19a6.22 6.22 0 0 1-6.22-6.22V360.29a6.22 6.22 0 0 1 6.22-6.22h85.19a6.22 6.22 0 0 1 6.22 6.22z" clip-rule="evenodd" fill="#ffffff" opacity="1" data-original="#000000"></path></g></svg>