<svg xmlns="http://www.w3.org/2000/svg" version="1.1" xmlns:xlink="http://www.w3.org/1999/xlink" width="512" height="512" x="0" y="0" viewBox="0 0 32 32" style="enable-background:new 0 0 512 512" xml:space="preserve" class=""><g><circle cx="16" cy="16" r="2" fill="#ffffff" opacity="1" data-original="#000000" class=""></circle><path d="M24 7c-.432 0-.853.048-1.26.135C21.925 4.175 19.22 2 16 2s-5.924 2.176-6.74 5.135A6 6 0 1 0 8 19h1.923l.385-.642-1.172-.294A1.498 1.498 0 0 1 8 16.61v-1.218c0-.69.467-1.288 1.136-1.455l1.172-.294-.621-1.036a1.496 1.496 0 0 1 .225-1.832l.862-.862a1.502 1.502 0 0 1 1.833-.226l1.035.622.293-1.171A1.499 1.499 0 0 1 15.391 8h1.218c.69 0 1.288.468 1.455 1.137l.294 1.17 1.036-.62a1.498 1.498 0 0 1 1.832.225l.862.862c.488.489.58 1.243.225 1.833l-.62 1.035 1.171.294A1.498 1.498 0 0 1 24 15.39v1.218c0 .69-.468 1.288-1.137 1.455l-1.17.294.384.642H24a6 6 0 1 0 0-12z" fill="#ffffff" opacity="1" data-original="#000000" class=""></path><path d="m22.621 14.905-1.897-.474a4.927 4.927 0 0 0-.273-.664l1.005-1.675a.5.5 0 0 0-.075-.61l-.862-.863a.5.5 0 0 0-.611-.075l-1.675 1.005a4.935 4.935 0 0 0-.664-.273l-.474-1.897A.5.5 0 0 0 16.61 9h-1.22a.5.5 0 0 0-.485.379l-.474 1.897c-.23.076-.45.165-.664.273l-1.675-1.005a.5.5 0 0 0-.61.075l-.863.862a.5.5 0 0 0-.075.611l1.005 1.675a4.927 4.927 0 0 0-.273.664l-1.897.474A.5.5 0 0 0 9 15.39v1.22a.5.5 0 0 0 .379.485l1.897.474c.076.23.165.45.273.664l-1.005 1.675a.5.5 0 0 0 .075.61l.862.863a.5.5 0 0 0 .611.075l1.675-1.005c.213.108.434.197.664.273l.474 1.897a.5.5 0 0 0 .485.379h1.22a.5.5 0 0 0 .485-.379l.474-1.897c.23-.076.45-.165.664-.273l1.675 1.005a.5.5 0 0 0 .61-.075l.863-.862a.5.5 0 0 0 .075-.611l-1.005-1.675c.108-.213.197-.434.273-.664l1.897-.474A.5.5 0 0 0 23 16.61v-1.22a.5.5 0 0 0-.379-.485zM16 19a3 3 0 1 1 0-6 3 3 0 0 1 0 6z" fill="#ffffff" opacity="1" data-original="#000000" class=""></path><circle cx="16" cy="16" r="2" fill="#ffffff" opacity="1" data-original="#000000" class=""></circle><path d="M10.382 26H7.816A2.995 2.995 0 0 0 5 24c-1.654 0-3 1.346-3 3s1.346 3 3 3a2.995 2.995 0 0 0 2.816-2H11a1 1 0 0 0 .895-.553l2-4-1.79-.894zM27 24a2.995 2.995 0 0 0-2.816 2h-2.566l-1.723-3.447-1.79.894 2 4A1 1 0 0 0 21 28h3.184A2.995 2.995 0 0 0 27 30c1.654 0 3-1.346 3-3s-1.346-3-3-3z" fill="#ffffff" opacity="1" data-original="#000000" class=""></path></g></svg>