<svg xmlns="http://www.w3.org/2000/svg" version="1.1" xmlns:xlink="http://www.w3.org/1999/xlink" width="512" height="512" x="0" y="0" viewBox="0 0 512 512" style="enable-background:new 0 0 512 512" xml:space="preserve" class=""><g><path fill-rule="evenodd" d="M205.338 377.477c-.577-20.266-36.792-63.221-66.96-79.37-10.412-5.575-18.894-7.178-23.27-4.4-3.993 2.537-5.931 9.7-5.5 20.218 7.219 10.379 19.152 23.712 38.292 40.8a6.153 6.153 0 0 1-8.2 9.179c-37.3-33.313-54.368-58.564-52.159-77.166l-2.272-91.718v-.348c.356-11.213-4.239-20.62-12.289-25.162-5.762-3.25-12.248-3.385-16.928-.351-5.6 3.633-8.146 11.384-7.168 21.829a6.357 6.357 0 0 1 .027.69l-2.669 140.415v.113c-.505 13.189 4.6 24.214 15.616 33.7.105.092.208.183.308.286l57.51 56.791c.626.615 1.106 1.025 1.53 1.394 3.442 2.965 3.722 5.211 3.519 9.283l-.271 5.405h79.664l1.224-61.59zm101.325 0 1.224 61.591h79.664l-.271-5.405c-.2-4.072.076-6.319 3.519-9.283.423-.369.9-.779 1.529-1.4l57.511-56.78c.1-.1.2-.195.307-.287 11.014-9.487 16.121-20.513 15.616-33.7v-.114l-2.673-140.408a6.365 6.365 0 0 1 .025-.692c.979-10.444-1.566-18.2-7.167-21.829-4.678-3.033-11.166-2.9-16.927.351-8.051 4.543-12.645 13.948-12.289 25.162v.348l-2.273 91.718c2.209 18.6-14.861 43.852-52.158 77.166a6.153 6.153 0 0 1-8.2-9.179c19.139-17.088 31.072-30.422 38.291-40.8.434-10.513-1.5-17.681-5.5-20.218-4.376-2.779-12.856-1.179-23.269 4.4-30.169 16.15-66.384 59.1-66.96 79.369zm92.471 73.9H293.21a9.835 9.835 0 0 0-9.79 9.794v25.036a9.8 9.8 0 0 0 9.79 9.793h105.925a9.8 9.8 0 0 0 9.791-9.8v-25.031a9.837 9.837 0 0 0-9.791-9.795zm-78.425 6.471a18.295 18.295 0 1 1-13.879-1.824 18.316 18.316 0 0 1 13.879 1.824zM184.6 482.831a18.285 18.285 0 1 1 15.87 9.148 18.313 18.313 0 0 1-15.87-9.148zm43.983 3.373v-25.035a9.838 9.838 0 0 0-9.789-9.795H112.866a9.807 9.807 0 0 0-9.791 9.794v25.036a9.8 9.8 0 0 0 9.79 9.794h105.926a9.8 9.8 0 0 0 9.79-9.8zm-33.923-14.06a5.98 5.98 0 1 0 7.327-4.236 6.145 6.145 0 0 0-1.558-.205 6.01 6.01 0 0 0-5.769 4.441zm111.722-1.444a5.982 5.982 0 1 1 2.19 8.174 5.968 5.968 0 0 1-2.19-8.174zM257.2 235.491a6.154 6.154 0 0 0-6.154 6.154v52.189a11.884 11.884 0 1 1-23.768 0V141.6a6.154 6.154 0 0 0-12.308 0v63.35h-3.706a13.582 13.582 0 0 1-13.564-13.569v-70.229a27.548 27.548 0 0 1 26.189-27.481 15.222 15.222 0 0 0 1.859 10.236l16.94 29.342a15.372 15.372 0 0 0 26.627 0l16.94-29.343a15.235 15.235 0 0 0 1.859-10.236 27.549 27.549 0 0 1 26.186 27.483v70.227a13.584 13.584 0 0 1-13.567 13.568h-1.567V141.6a6.154 6.154 0 0 0-12.307 0v152.234a11.884 11.884 0 0 1-23.594 2.027 24.7 24.7 0 0 0 .091-2.026v-52.192a6.154 6.154 0 0 0-6.154-6.152zm-3.858-108.4a3.064 3.064 0 0 0 5.309 0L275.6 97.753a2.849 2.849 0 0 0 0-3.063 3.123 3.123 0 0 0-.966-1.053H237.37a3.137 3.137 0 0 0-.965 1.052 2.849 2.849 0 0 0 0 3.063l16.94 29.344zM256 66.224a25.112 25.112 0 1 0-25.112-25.111A25.141 25.141 0 0 0 256 66.224z" fill="#ffffff" opacity="1" data-original="#000000"></path></g></svg>