<svg xmlns="http://www.w3.org/2000/svg" version="1.1" xmlns:xlink="http://www.w3.org/1999/xlink" width="512" height="512" x="0" y="0" viewBox="0 0 512 512" style="enable-background:new 0 0 512 512" xml:space="preserve" class=""><g><path d="M112.677 490.906a5.188 5.188 0 0 1-3.658 6.337l-20.829 5.581a5.188 5.188 0 0 1-6.336-3.659L51.657 386.469c-.736-2.75.909-5.601 3.658-6.337l20.829-5.581c2.749-.737 5.599.909 6.336 3.659zM249.303 360.63h13.393c9.358 0 17.17-6.881 18.636-15.837h-50.666c1.466 8.96 9.278 15.837 18.637 15.837zm45.08-44.638v-2.608h-76.766v2.608c0 7.051 5.75 12.801 12.801 12.801h51.164c7.05 0 12.801-5.751 12.801-12.801zm176.422-57.145a19.533 19.533 0 0 0-10.473 3.027l-21.25-14.206v-46.966h8.622v-31.99H415.6a161.853 161.853 0 0 0-24.135-58.232l22.71-22.711-45.241-45.242-22.711 22.711c-17.351-11.578-37.049-19.913-58.232-24.136V9H224.01v32.103a161.858 161.858 0 0 0-58.233 24.135l-22.71-22.71-45.244 45.241 22.71 22.71a161.842 161.842 0 0 0-24.136 58.233H64.296v31.99h8.622v46.966l-21.25 14.206a19.524 19.524 0 0 0-10.473-3.027c-10.835 0-19.62 8.784-19.62 19.62 0 10.835 8.784 19.62 19.62 19.62s19.62-8.784 19.62-19.62c0-1.137-.098-2.25-.283-3.335l24.271-16.226a7.997 7.997 0 0 0 4.116-6.995v-51.209h26.632v60.312L97.777 293.46a20.246 20.246 0 0 0-1.623-.067c-10.835 0-19.619 8.784-19.619 19.62 0 10.835 8.784 19.619 19.619 19.619s19.62-8.784 19.62-19.619c0-4.472-1.497-8.594-4.016-11.894l18.453-33.687a7.96 7.96 0 0 0 1.339-4.431v-62.299h5.622c0-65.626 53.201-118.826 118.827-118.826s118.826 53.2 118.826 118.826h5.624v62.299a7.96 7.96 0 0 0 1.339 4.431l18.454 33.687a19.528 19.528 0 0 0-4.016 11.894c0 10.835 8.784 19.619 19.62 19.619s19.619-8.784 19.619-19.619c0-10.836-8.784-19.62-19.619-19.62-.547 0-1.087.024-1.623.067l-17.773-32.446v-60.312h26.632v51.209a7.998 7.998 0 0 0 4.116 6.995l24.271 16.226a19.707 19.707 0 0 0-.283 3.335c0 10.835 8.784 19.62 19.62 19.62 10.835 0 19.62-8.784 19.62-19.62-.001-10.835-8.785-19.62-19.621-19.62zm-186.991-62.559c-4.974 0-9.073 4.098-9.073 9.072v15.138c6.448-1.978 18.146-7.436 18.146-15.138 0-4.974-4.098-9.072-9.073-9.072zM340.56 364.68l-70.776 40.861c.54 4.265.274 8.695-.919 13.079-4.907 18.029-23.678 28.782-41.71 23.874l-46.761-12.727c-4.263-1.156-6.782-5.55-5.625-9.812s5.55-6.781 9.812-5.625l46.761 12.727c9.481 2.58 19.518-3.121 22.085-12.624 3.749-13.771-4.477-28.151-18.249-31.899l-87.539-23.826c-11.618-1.538-22.167 1.275-31.472 8.402l-16.676 12.771 25.107 93.703c9.539-4.544 19.65-5.811 31.626-3.066l50.141 11.495c11.417 2.617 22.148 1.606 32.294-4.252l125.391-72.392c11.188-6.46 15.056-20.898 8.597-32.089-6.458-11.19-20.899-15.06-32.087-8.6zm-46.177-67.698c0-6.841 3.342-12.721 9.219-16.223 27.261-16.243 45.522-46.017 45.522-80.057 0-51.43-41.693-93.123-93.125-93.123s-93.125 41.694-93.125 93.123c0 34.04 18.262 63.814 45.522 80.057 5.877 3.502 9.219 9.379 9.219 16.223v.401h19.641V237.01c-15.227-3.614-34.145-13.859-34.145-31.65 0-13.807 11.266-25.072 25.072-25.072 13.807 0 25.073 11.266 25.073 25.072v17.746c1.827.07 3.657.07 5.484 0V205.36c0-13.806 11.267-25.072 25.073-25.072 13.807 0 25.073 11.266 25.073 25.072 0 17.792-18.919 28.035-34.146 31.65v60.374h19.641v-.402zm-41.126-57.869v58.27h5.484v-58.27c-1.827.06-3.656.06-5.484 0zm-25.072-42.825c-4.974 0-9.073 4.098-9.073 9.072 0 7.703 11.698 13.16 18.146 15.138V205.36c-.001-4.974-4.1-9.072-9.073-9.072z" fill="#ffffff" opacity="1" data-original="#000000" class=""></path></g></svg>