<svg xmlns="http://www.w3.org/2000/svg" version="1.1" xmlns:xlink="http://www.w3.org/1999/xlink" width="512" height="512" x="0" y="0" viewBox="0 0 512 512" style="enable-background:new 0 0 512 512" xml:space="preserve"><g><path d="M317.5 178h-123c-24.537 0-44.5 19.962-44.5 44.5s19.962 44.5 44.5 44.5h123c24.537 0 44.5-19.962 44.5-44.5S342.037 178 317.5 178zm-104.664 49.999c0 8.284-6.716 15-15 15s-15-6.716-15-15v-11c0-8.284 6.716-15 15-15s15 6.716 15 15zm116.327 0c0 8.284-6.716 15-15 15s-15-6.716-15-15v-11c0-8.284 6.716-15 15-15s15 6.716 15 15z" fill="#ffffff" opacity="1" data-original="#000000"></path><path d="M437 257.997v-28.994C437 128.728 355.752 50 256 50c-99.859 0-181 78.74-181 179.003v28.994C75 304.264 112.741 342 159.003 342h193.994C399.259 342 437 304.259 437 257.997zm-242.5 39.002c-41.079 0-74.5-33.42-74.5-74.5s33.42-74.5 74.5-74.5h123c41.079 0 74.5 33.42 74.5 74.5s-33.421 74.5-74.5 74.5zM334 402h-33c-16.5 0-30 13.5-30 30s13.5 30 30 30h33c16.5 0 30-13.5 30-30s-13.5-30-30-30zM482 356.497C482 389.835 453.144 418 418.986 418h-26.652A59.896 59.896 0 0 1 394 432c0 5.541-.771 10.902-2.183 16h27.169C469.405 448 512 406.097 512 356.497V327.18c-8.725 6.565-18.922 11.274-30 13.532zM467 161.221h-1.298V74.477c0-8.284-6.716-15-15-15s-15 6.716-15 15v44.348C456.087 151.477 467 189.324 467 229.003v28.994c0 19.615-4.98 38.089-13.742 54.224H467c24.813 0 45-20.187 45-45v-61c0-24.813-20.187-45-45-45zM45 229.003c0-39.697 10.913-77.556 31.297-110.212V74.477c0-8.284-6.716-15-15-15s-15 6.716-15 15v86.744H45c-24.813 0-45 20.187-45 45v61c0 24.813 20.187 45 45 45h13.742C49.98 296.086 45 277.613 45 257.997z" fill="#ffffff" opacity="1" data-original="#000000"></path></g></svg>