<svg xmlns="http://www.w3.org/2000/svg" version="1.1" xmlns:xlink="http://www.w3.org/1999/xlink" width="512" height="512" x="0" y="0" viewBox="0 0 66 66" style="enable-background:new 0 0 512 512" xml:space="preserve" class=""><g><path d="M56.26 24.15v-1.34c1.71-.4 3-1.93 3-3.76 0-2.12-1.74-3.86-3.87-3.86-2.12 0-3.86 1.74-3.86 3.86 0 1.76 1.18 3.23 2.79 3.69v1.41c0 .96-.79 1.75-1.75 1.75h-10.8v1.94h10.8a3.7 3.7 0 0 0 3.69-3.69zM48.89 15.1v-1.34c1.71-.4 3-1.93 3-3.76 0-2.12-1.74-3.85-3.87-3.85-2.12 0-3.86 1.73-3.86 3.85 0 1.76 1.18 3.23 2.79 3.69v1.41c0 .96-.79 1.75-1.75 1.75h-3.43v1.94h3.43a3.7 3.7 0 0 0 3.69-3.69zM56.26 48.45v-1.34a3.69 3.69 0 0 0-3.68-3.68h-10.8v1.94h10.8c.96 0 1.75.79 1.75 1.75v1.41c-1.61.47-2.79 1.94-2.79 3.69 0 2.12 1.74 3.86 3.86 3.86 2.13 0 3.87-1.74 3.87-3.86a3.922 3.922 0 0 0-3.01-3.77zM47.26 54.91v-1.34c0-2.04-1.65-3.68-3.68-3.68h-1.8v1.94h1.8c.96 0 1.75.78 1.75 1.75v1.4c-1.6.48-2.78 1.94-2.78 3.7 0 2.12 1.73 3.85 3.85 3.85 2.13 0 3.87-1.73 3.87-3.85a3.912 3.912 0 0 0-3.01-3.77zM55.28 39.49a3.88 3.88 0 0 0 3.87-3.87c0-2.12-1.74-3.85-3.87-3.85-1.78 0-3.29 1.23-3.71 2.89h-9.79v1.94h9.79c.43 1.66 1.92 2.89 3.71 2.89zM31.38 3.48c-4.62 0-8.37 3.75-8.37 8.45 0 .48.08.96.16 1.43-.88-.32-1.83-.48-2.87-.48-4.62 0-8.37 3.75-8.37 8.45 0 .5.05.98.14 1.46.01.01.03.02.04.03 1.42 1.5 3.35 2.32 5.43 2.32.54 0 .97.43.97.97s-.43.97-.97.97c-2.16 0-4.19-.72-5.85-2.03a8.32 8.32 0 0 0-4.94 7.61c0 3.91 2.71 7.25 6.38 8.13-.8 1.28-1.2 2.71-1.2 4.3 0 4.54 3.75 8.37 8.37 8.37.42 0 .84-.04 1.26-.1a9.24 9.24 0 0 1 6.31-6.03 9.262 9.262 0 0 1-2.52-4.24c-.87.72-1.93 1.24-3.13 1.47-.06.01-.12.02-.18.02a.975.975 0 0 1-.18-1.93 4.975 4.975 0 0 0 3.21-2.13c.04-.15.11-.28.22-.39.53-.96.76-2.1.56-3.29a.973.973 0 1 1 1.92-.32c.28 1.66-.03 3.26-.78 4.61.27 3.87 3.47 6.85 7.43 6.85.54 0 .97.43.97.97s-.43.97-.97.97a9.52 9.52 0 0 1-4.27-1c-3.52.12-6.35 2.65-6.99 6.01.7 3.92 4.11 6.9 8.23 6.9 4.62 0 8.45-3.75 8.45-8.37V32.1c-.24.02-.48.05-.71.05-1.28 0-2.54-.34-3.68-.99a7.326 7.326 0 0 1-3.01-3.34c-1.12.65-2.38.99-3.7.99-.13 0-.26 0-.39-.01-.54-.03-.95-.48-.92-1.02s.49-.94 1.02-.92a5.49 5.49 0 0 0 3.93-1.38 5.38 5.38 0 0 0 1.8-3.79c.03-.54.5-.95 1.02-.92.53.03.95.48.92 1.02a7.335 7.335 0 0 1-2.07 4.77c.43 1.23 1.25 2.26 2.38 2.91 1.04.6 2.23.82 3.42.66v-18.2c-.02-4.71-3.85-8.45-8.47-8.45z" fill="#ffffff" opacity="1" data-original="#000000" class=""></path></g></svg>