<svg xmlns="http://www.w3.org/2000/svg" version="1.1" xmlns:xlink="http://www.w3.org/1999/xlink" width="512" height="512" x="0" y="0" viewBox="0 0 48 48" style="enable-background:new 0 0 512 512" xml:space="preserve" class=""><g><g data-name="Processing information data"><path d="M40.26 7.74A23 23 0 0 0 11 5h.37a2 2 0 0 1 1.63.55c.9.92.53 2 .4 3.13a18.61 18.61 0 0 1 25.85 26l-1.34-1.34c-.2 1.74-.66 6-.77 7l7-.77-1.72-1.72a23 23 0 0 0-2.16-30.11zM37.17 42.26a2 2 0 0 1-2-2.22l.14-1.26a18.61 18.61 0 0 1-25.93-26.3l1.45 1.45c.3-2.64-.05.5.78-7l-7 .78 1.66 1.65a23 23 0 0 0 31.81 32.81 6.29 6.29 0 0 1-.91.09z" fill="#ffffff" opacity="1" data-original="#000000" class=""></path><path d="M28 18h4l-4-4z" fill="#ffffff" opacity="1" data-original="#000000" class=""></path><path d="M26 13h-9a2 2 0 0 0-2 2v18a2 2 0 0 0 2 2h14a2 2 0 0 0 2-2c0-14.55.08-13-.18-13H27a1 1 0 0 1-1-1v-6zm-1 18h-6a1 1 0 0 1 0-2h6a1 1 0 0 1 0 2zm0-4h-6a1 1 0 0 1 0-2h6a1 1 0 0 1 0 2zm0-4h-6a1 1 0 0 1 0-2h6a1 1 0 0 1 0 2z" fill="#ffffff" opacity="1" data-original="#000000" class=""></path></g></g></svg>