<svg xmlns="http://www.w3.org/2000/svg" version="1.1" xmlns:xlink="http://www.w3.org/1999/xlink" width="512" height="512" x="0" y="0" viewBox="0 0 500 500" style="enable-background:new 0 0 512 512" xml:space="preserve" class=""><g><path fill-rule="evenodd" d="M335.467 241.504a73.646 73.646 0 0 0 3.321-9.892 6.672 6.672 0 0 1 4.405-4.7l-.005-.015 15.632-5.079c.45-.146.741-.547.741-1.02v-15.556c0-.473-.292-.874-.741-1.02l-15.634-5.08c-2.516-.818-3.983-2.767-4.517-5.165-1.281-5.691-4.88-13.723-7.892-18.816a6.689 6.689 0 0 1-.204-6.44l-.006-.003 7.471-14.662a1.059 1.059 0 0 0-.197-1.246l-10.987-10.987a1.058 1.058 0 0 0-1.246-.197l-14.663 7.471c-2.279 1.16-4.721.867-6.728-.377-5.237-3.247-13.026-6.319-18.984-7.844a6.672 6.672 0 0 1-4.7-4.405l-.015.005-5.079-15.633a1.058 1.058 0 0 0-1.02-.741h-15.555c-.473 0-.874.292-1.02.741l-5.079 15.633c-.818 2.517-2.768 3.984-5.167 4.517-5.69 1.279-13.725 4.883-18.817 7.893a6.689 6.689 0 0 1-6.44.204l-.003.006-14.661-7.47a1.059 1.059 0 0 0-1.246.197l-10.987 10.987a1.058 1.058 0 0 0-.197 1.246l7.471 14.662c1.16 2.279.867 4.721-.377 6.727-3.246 5.236-6.317 13.027-7.842 18.983a6.672 6.672 0 0 1-4.405 4.7l.005.015-15.634 5.08c-.45.146-.741.547-.741 1.02v15.556c0 .473.292.874.741 1.02l15.634 5.08c2.516.818 3.983 2.767 4.517 5.165 1.28 5.691 4.881 13.723 7.892 18.816a6.689 6.689 0 0 1 .204 6.44l.006.003-7.471 14.663c-.215.421-.137.911.197 1.246l10.987 10.987a1.06 1.06 0 0 0 1.246.198l14.662-7.471c2.279-1.16 4.722-.867 6.728.377 5.238 3.247 13.025 6.319 18.983 7.843a6.672 6.672 0 0 1 4.7 4.405l.015-.005 5.079 15.632c.146.45.547.741 1.02.741h15.555c.473 0 .874-.292 1.02-.741l5.08-15.635c.818-2.517 2.767-3.983 5.166-4.517 5.688-1.28 13.724-4.882 18.816-7.892a6.689 6.689 0 0 1 6.44-.204l.003-.006 14.663 7.471c.421.215.911.137 1.246-.198l10.987-10.987c.334-.334.412-.824.197-1.246l-7.471-14.662c-1.208-2.373-.841-4.644.384-6.74a74.065 74.065 0 0 0 4.517-9.078zm-190.235 44.207c5.974 5.974 7.507 14.881 4.238 22.373-.18.413-.094.869.225 1.187l21.236 21.236c.208.208.461.313.755.314l87.182.266c.59.002 1.07.483 1.07 1.073v11.213c0 .597-.479 1.075-1.076 1.073l-89.825-.273c-2.02-.003-3.656-.252-5.345-1.94l-23.478-23.478a1.055 1.055 0 0 0-1.189-.224c-13.176 5.769-28.291-3.847-28.291-18.529 0-17.955 21.804-26.985 34.498-14.291zm36.893-46.067c.475-.003.879.289 1.026.741a85.662 85.662 0 0 0 4.466 11.049 1.071 1.071 0 0 1-.958 1.543l-92.997.54a1.037 1.037 0 0 0-.752.314l-5.17 5.17a1.057 1.057 0 0 0-.225 1.187c3.269 7.492 1.736 16.399-4.238 22.373-12.693 12.694-34.499 3.665-34.499-14.289 0-14.681 15.113-24.299 28.291-18.529.413.181.87.095 1.189-.224l7.403-7.404c1.693-1.693 3.314-1.928 5.325-1.942zm4.508-66.527a1.07 1.07 0 0 1 .958 1.542 85.56 85.56 0 0 0-4.457 11.049 1.058 1.058 0 0 1-1.027.741l-100.413-.583c-2.011-.014-3.632-.248-5.326-1.942l-7.404-7.404a1.055 1.055 0 0 0-1.187-.224c-7.491 3.268-16.4 1.735-22.372-4.238-12.695-12.695-3.664-34.499 14.289-34.499 14.681 0 24.299 15.115 18.529 28.291-.181.413-.095.87.224 1.189l5.17 5.17c.207.207.459.312.752.314zm-41.401-32.789c-12.694 12.694-34.499 3.664-34.499-14.29 0-14.684 15.119-24.297 28.291-18.529.413.181.87.095 1.189-.224l23.478-23.478c1.688-1.688 3.325-1.937 5.345-1.94l89.825-.273a1.068 1.068 0 0 1 1.076 1.073V93.88c0 .59-.48 1.071-1.07 1.073l-87.182.266a1.036 1.036 0 0 0-.755.314l-21.236 21.236a1.057 1.057 0 0 0-.225 1.187c3.27 7.491 1.737 16.399-4.237 22.372zm187.111-11.98c-2.231-2.231-5.33-2.493-8.042-1.097l-15.747 8.023a1.042 1.042 0 0 1-.988-.007 85.928 85.928 0 0 0-14.888-6.162 1.046 1.046 0 0 1-.705-.694l-5.551-17.085a6.696 6.696 0 0 0-6.365-4.625v-.011h-5.637a1.075 1.075 0 0 1-1.073-1.073V83.442c0-.591.482-1.073 1.073-1.073l33.002.013c32.934 5.148 57.913 21.591 75.496 42.775 21.859 26.336 32.403 59.932 32.681 88.387h-.026v43.087c0 1.406.433 2.71 1.172 3.788l43.598 65.396a1.072 1.072 0 0 1-.893 1.668h-37.172a6.709 6.709 0 0 0-6.451 4.871.707.707 0 0 1-.024.074l-31.007 85.27a1.07 1.07 0 0 1-1.575.544l-109.37-68.061a1.046 1.046 0 0 1-.506-.911v-28.847c0-.591.482-1.073 1.073-1.073 5.418 0 10.172.954 12.146-5.08l5.408-16.643c.111-.343.36-.587.704-.694a86.096 86.096 0 0 0 14.887-6.159c.318-.168.667-.171.988-.007l16.01 8.157a6.703 6.703 0 0 0 7.777-1.233l18.974-18.97c2.231-2.231 2.493-5.33 1.097-8.042l-8.023-15.746a1.045 1.045 0 0 1 .007-.988 85.928 85.928 0 0 0 6.162-14.888c.106-.344.351-.593.694-.705l17.085-5.551a6.696 6.696 0 0 0 4.625-6.365h.011v-26.831c0-3.326-2.074-5.525-5.08-6.509l-16.643-5.408a1.044 1.044 0 0 1-.694-.704 85.989 85.989 0 0 0-6.16-14.887 1.042 1.042 0 0 1-.007-.988l8.157-16.009a6.703 6.703 0 0 0-1.233-7.777zm-65.7 50.781c18.719 0 33.891 15.171 33.891 33.891 0 18.719-15.172 33.891-33.891 33.891s-33.891-15.172-33.891-33.891 15.172-33.891 33.891-33.891z" clip-rule="evenodd" fill="#ffffff" opacity="1" data-original="#000000"></path></g></svg>