<svg xmlns="http://www.w3.org/2000/svg" version="1.1" xmlns:xlink="http://www.w3.org/1999/xlink" width="512" height="512" x="0" y="0" viewBox="0 0 32 32" style="enable-background:new 0 0 512 512" xml:space="preserve" class=""><g><path d="M10 15c1.28-1.28 3.017-2 4.828-2H16V2h-1.172c-1.81 0-3.547.72-4.828 2a6.828 6.828 0 0 0-4.828-2H4v11h1.172c1.81 0 3.547.72 4.828 2zM6.5 5c1.04 0 2.637.582 3.5 1.569C10.863 5.582 12.46 5 13.5 5a.5.5 0 1 1 0 1c-.937 0-2.661.722-3.034 1.681a.5.5 0 0 1-.932 0C9.161 6.722 7.437 6 6.5 6a.5.5 0 1 1 0-1zm0 4c1.04 0 2.637.582 3.5 1.569C10.863 9.582 12.46 9 13.5 9a.5.5 0 1 1 0 1c-.937 0-2.661.722-3.034 1.681a.5.5 0 0 1-.932 0C9.161 10.722 7.437 10 6.5 10a.5.5 0 1 1 0-1z" fill="#ffffff" opacity="1" data-original="#000000" class=""></path><path d="M11 16.177A6.827 6.827 0 0 1 14.828 15H17a1 1 0 0 0 1-1v-4h3v3h2V9a1 1 0 0 0-1-1h-4V4a1 1 0 0 0-1-1v11h-2.172c-1.81 0-3.547.72-4.828 2a6.828 6.828 0 0 0-4.828-2H3V3a1 1 0 0 0-1 1v10a1 1 0 0 0 1 1h2.172c1.375 0 2.706.417 3.828 1.177V22a1 1 0 0 0 1 1h3v-2h-2z" fill="#ffffff" opacity="1" data-original="#000000" class=""></path><path d="m29.686 20.874-1.932-.566a5.963 5.963 0 0 0-.487-1.183l.964-1.764a.5.5 0 0 0-.106-.55l-.936-.936a.5.5 0 0 0-.55-.106l-1.764.964a5.963 5.963 0 0 0-1.183-.487l-.566-1.932A.5.5 0 0 0 22.66 14H21.34a.5.5 0 0 0-.465.314l-.566 1.932c-.415.122-.811.284-1.183.487l-1.764-.964a.5.5 0 0 0-.55.106l-.936.936a.5.5 0 0 0-.106.55l.964 1.764a5.963 5.963 0 0 0-.487 1.183l-1.932.566a.5.5 0 0 0-.314.465v1.322a.5.5 0 0 0 .314.465l1.932.566c.122.415.284.811.487 1.183l-.964 1.764a.5.5 0 0 0 .106.55l.936.936a.5.5 0 0 0 .55.106l1.764-.964c.372.203.768.365 1.183.487l.566 1.932a.5.5 0 0 0 .465.314h1.322a.5.5 0 0 0 .465-.314l.566-1.932c.415-.122.811-.284 1.183-.487l1.764.964a.5.5 0 0 0 .55-.106l.936-.936a.5.5 0 0 0 .106-.55l-.964-1.764c.203-.372.365-.768.487-1.183l1.932-.566A.5.5 0 0 0 30 22.66V21.34a.5.5 0 0 0-.314-.465zM22 25a3 3 0 1 1 0-6 3 3 0 0 1 0 6z" fill="#ffffff" opacity="1" data-original="#000000" class=""></path><circle cx="22" cy="22" r="2" fill="#ffffff" opacity="1" data-original="#000000" class=""></circle></g></svg>