<svg xmlns="http://www.w3.org/2000/svg" version="1.1" xmlns:xlink="http://www.w3.org/1999/xlink" width="512" height="512" x="0" y="0" viewBox="0 0 512 512" style="enable-background:new 0 0 512 512" xml:space="preserve" class=""><g><path d="M497 482H15c-8.284 0-15 6.716-15 15s6.716 15 15 15h482c8.284 0 15-6.716 15-15s-6.716-15-15-15zM46 360c-8.284 0-15 6.716-15 15v62c0 8.284 6.716 15 15 15h60c8.284 0 15-6.716 15-15v-62c0-8.284-6.716-15-15-15zM166 452h60c8.284 0 15-6.716 15-15V325c0-8.284-6.716-15-15-15h-60c-8.284 0-15 6.716-15 15v112c0 8.284 6.716 15 15 15zM286 340c-8.284 0-15 6.716-15 15v82c0 8.284 6.716 15 15 15h60c8.284 0 15-6.716 15-15v-82c0-8.284-6.716-15-15-15zM391 255v182c0 8.284 6.716 15 15 15h60c8.284 0 15-6.716 15-15V255c0-8.284-6.716-15-15-15h-60c-8.284 0-15 6.716-15 15zM120 240c66.274 0 120-53.726 120-120S186.274 0 120 0 0 53.726 0 120s53.726 120 120 120zm0-40c-8.284 0-15-6.716-15-15s6.716-15 15-15 15 6.716 15 15-6.716 15-15 15zM75.433 78.747c3.146-22.546 22.734-39.196 45.488-38.738 23.467.473 42.801 19.192 44.018 42.617.647 12.468-3.723 24.312-12.305 33.352A45.136 45.136 0 0 1 135 127.408V140c0 8.284-6.716 15-15 15s-15-6.716-15-15v-25c0-8.284 6.716-15 15-15 4.149 0 8.013-1.662 10.878-4.679 2.861-3.014 4.317-6.97 4.102-11.14-.398-7.663-6.976-14.024-14.662-14.179a32.039 32.039 0 0 0-.308-.002c-7.471 0-13.832 5.49-14.864 12.889A15.225 15.225 0 0 0 105 85c0 8.284-6.716 15-15 15s-15-6.716-15-15c0-2.088.146-4.191.433-6.253zM217.5 233.894a150.512 150.512 0 0 1-31.294 20.679l124.75 44.554a14.999 14.999 0 0 0 17.299-5.476l99.228-140.573 4.164 23.617c1.438 8.158 9.219 13.606 17.377 12.167s13.605-9.219 12.167-17.377l-10.419-59.089c-1.438-8.158-9.218-13.606-17.377-12.167l-59.089 10.419c-8.158 1.439-13.606 9.219-12.167 17.377s9.219 13.606 17.377 12.167l23.233-4.097-92.434 130.947zM120 270c-3.78 0-7.526-.144-11.236-.42L66.63 303.287c-6.469 5.175-7.518 14.614-2.343 21.083 5.175 6.469 14.614 7.518 21.083 2.343l79.437-63.549C150.652 267.603 135.601 270 120 270z" fill="#ffffff" opacity="1" data-original="#000000" class=""></path></g></svg>