<svg xmlns="http://www.w3.org/2000/svg" version="1.1" xmlns:xlink="http://www.w3.org/1999/xlink" width="512" height="512" x="0" y="0" viewBox="0 0 64 64" style="enable-background:new 0 0 512 512" xml:space="preserve" class=""><g><path d="M43 39a1 1 0 0 0 1-1V21a1 1 0 0 0-1-1H21a1 1 0 0 0-1 1v17a1 1 0 0 0 1 1h10v2h-3v2h8v-2h-3v-2zm-21-4V22h20v13z" fill="#ffffff" opacity="1" data-original="#000000" class=""></path><path d="M26 30h2v3h-2zM31 27h2v6h-2zM36 24h2v9h-2z" fill="#ffffff" opacity="1" data-original="#000000" class=""></path><path d="m4.651 36.54-2.428.789a1.034 1.034 0 0 0-.664 1.3l1.916 5.9a1.032 1.032 0 0 0 1.3.663L7.21 44.4a1.032 1.032 0 0 1 1.225.5 26.946 26.946 0 0 0 4.015 5.528 1.033 1.033 0 0 1 .1 1.319l-1.5 2.069a1.033 1.033 0 0 0 .229 1.443l5.008 3.641a1.033 1.033 0 0 0 1.443-.229l1.5-2.068a1.031 1.031 0 0 1 1.284-.317 26.708 26.708 0 0 0 6.5 2.116 1.032 1.032 0 0 1 .854 1.011v2.552A1.033 1.033 0 0 0 28.9 63h6.2a1.033 1.033 0 0 0 1.033-1.033v-2.552a1.032 1.032 0 0 1 .854-1.011c.313-.059.618-.137.927-.206a10.929 10.929 0 0 1-1.858-5.093 21.535 21.535 0 1 1 15.063-11.3 11.03 11.03 0 0 1 4.381 3.209c.021-.039.046-.076.068-.116a1.032 1.032 0 0 1 1.225-.5l2.433.79a1.032 1.032 0 0 0 1.3-.663l1.916-5.9a1.034 1.034 0 0 0-.664-1.3l-2.428-.789a1.036 1.036 0 0 1-.7-1.125 26.736 26.736 0 0 0 0-6.83 1.036 1.036 0 0 1 .7-1.125l2.428-.789a1.033 1.033 0 0 0 .664-1.3l-1.916-5.9a1.032 1.032 0 0 0-1.3-.663l-2.433.79a1.032 1.032 0 0 1-1.225-.5 26.946 26.946 0 0 0-4.015-5.528 1.033 1.033 0 0 1-.095-1.319l1.5-2.069a1.033 1.033 0 0 0-.229-1.443L47.713 5.1a1.033 1.033 0 0 0-1.443.229L44.767 7.4a1.032 1.032 0 0 1-1.285.317A26.687 26.687 0 0 0 36.987 5.6a1.032 1.032 0 0 1-.854-1.011V2.033A1.033 1.033 0 0 0 35.1 1h-6.2a1.033 1.033 0 0 0-1.033 1.033v2.552a1.032 1.032 0 0 1-.854 1.015 26.687 26.687 0 0 0-6.5 2.116 1.032 1.032 0 0 1-1.28-.316l-1.5-2.068a1.033 1.033 0 0 0-1.446-.232l-5.016 3.643a1.033 1.033 0 0 0-.229 1.443l1.5 2.069a1.033 1.033 0 0 1-.1 1.319A26.946 26.946 0 0 0 8.435 19.1a1.032 1.032 0 0 1-1.225.5l-2.433-.79a1.032 1.032 0 0 0-1.3.663l-1.916 5.9a1.033 1.033 0 0 0 .664 1.3l2.428.789a1.036 1.036 0 0 1 .7 1.125 26.736 26.736 0 0 0 0 6.83 1.036 1.036 0 0 1-.702 1.123z" fill="#ffffff" opacity="1" data-original="#000000" class=""></path><path d="M56 52a9 9 0 1 0-9 9 9 9 0 0 0 9-9zm-11.5-4 7 4-7 4z" fill="#ffffff" opacity="1" data-original="#000000" class=""></path></g></svg>