<svg xmlns="http://www.w3.org/2000/svg" version="1.1" xmlns:xlink="http://www.w3.org/1999/xlink" width="512" height="512" x="0" y="0" viewBox="0 0 512 512" style="enable-background:new 0 0 512 512" xml:space="preserve" class=""><g><path d="M282 330H0v15c0 24.853 20.147 45 45 45h237zM282 420h-76v32h-29.189a14.999 14.999 0 0 0-14.23 10.257l-10 30c-3.238 9.713 3.992 19.743 14.23 19.743h123.261A59.608 59.608 0 0 1 282 482zM467 0H45a44.818 44.818 0 0 0-19.399 4.388L110 88.787V75c0-8.284 6.716-15 15-15s15 6.716 15 15v50c0 8.284-6.716 15-15 15H75c-8.284 0-15-6.716-15-15s6.716-15 15-15h13.787L4.388 25.6A44.826 44.826 0 0 0 0 45v255h282v-78c0-33.084 26.916-60 60-60h140a59.608 59.608 0 0 1 30 8.072V45c0-24.853-20.147-45-45-45z" fill="#ffffff" opacity="1" data-original="#000000" class=""></path><path d="M482 192H342c-2.687 0-5.288.358-7.766 1.021L407 265.787V252c0-8.284 6.716-15 15-15s15 6.716 15 15v50c0 8.284-6.716 15-15 15h-50c-8.284 0-15-6.716-15-15s6.716-15 15-15h13.787l-72.766-72.767A30.006 30.006 0 0 0 312 222v260c0 16.569 13.431 30 30 30h140c16.569 0 30-13.431 30-30V222c0-16.569-13.431-30-30-30z" fill="#ffffff" opacity="1" data-original="#000000" class=""></path></g></svg>