<svg xmlns="http://www.w3.org/2000/svg" version="1.1" xmlns:xlink="http://www.w3.org/1999/xlink" width="512" height="512" x="0" y="0" viewBox="0 0 64 64" style="enable-background:new 0 0 512 512" xml:space="preserve" class=""><g><path d="m61.09 27.18-4.44-.39c-.64-3.06-1.83-5.92-3.53-8.53l2.86-3.42c.33-.4.3-.98-.06-1.35l-5.41-5.41a1.01 1.01 0 0 0-1.35-.06l-3.42 2.86c-2.61-1.7-5.47-2.89-8.53-3.53l-.39-4.44c-.05-.51-.48-.91-1-.91h-7.64c-.52 0-.95.4-1 .91l-.39 4.44c-3.06.64-5.92 1.83-8.53 3.53l-3.42-2.86c-.4-.33-.98-.3-1.35.06l-5.41 5.41c-.36.37-.39.95-.06 1.35l2.86 3.42c-1.7 2.61-2.89 5.47-3.53 8.53l-4.44.39c-.51.05-.91.48-.91 1v7.64c0 .52.4.95.91 1l4.44.39c.64 3.06 1.83 5.92 3.53 8.53l-2.86 3.42c-.33.4-.3.98.06 1.35l5.41 5.41c.37.36.95.39 1.35.06l3.42-2.86c2.61 1.7 5.47 2.89 8.53 3.53l.39 4.44c.05.51.48.91 1 .91h7.64c.52 0 .95-.4 1-.91l.39-4.44c3.06-.64 5.92-1.83 8.53-3.53l3.42 2.86c.4.33.98.3 1.35-.06l5.41-5.41c.36-.37.39-.95.06-1.35l-2.86-3.42c1.7-2.61 2.89-5.47 3.53-8.53l4.44-.39c.51-.05.91-.48.91-1v-7.64c0-.52-.4-.95-.91-1zM32 48.28c-8.98 0-16.28-7.3-16.28-16.28S23.02 15.72 32 15.72 48.28 23.02 48.28 32 40.98 48.28 32 48.28z" fill="#ffffff" opacity="1" data-original="#000000" class=""></path><path d="m39.41 30.42-5.51-.77.41-6.35a.984.984 0 0 0-.6-.98 1 1 0 0 0-1.13.24l-8.59 9.35c-.25.27-.33.67-.2 1.01.12.36.43.61.8.66l5.51.77-.41 6.35c-.03.42.21.82.6.98.13.06.26.08.39.08.28 0 .55-.11.74-.32l8.59-9.35c.25-.27.33-.67.2-1.01a.975.975 0 0 0-.8-.66z" fill="#ffffff" opacity="1" data-original="#000000" class=""></path></g></svg>