<svg xmlns="http://www.w3.org/2000/svg" version="1.1" xmlns:xlink="http://www.w3.org/1999/xlink" width="512" height="512" x="0" y="0" viewBox="0 0 32 32" style="enable-background:new 0 0 512 512" xml:space="preserve" class=""><g><path d="m6.87 24.56-1.51 3.63c-.27.62-.2 1.34.18 1.91.38.56 1.01.9 1.69.9h17.54c.68 0 1.31-.34 1.69-.9.38-.57.45-1.29.18-1.92l-1.51-3.62c2.77-2.51 4.41-6.1 4.41-10.01C29.54 7.08 23.47 1 16 1S2.46 7.08 2.46 14.55c0 3.91 1.64 7.5 4.41 10.01zm12.93 4.43-7.6-.02v-1.79l1.32-7.2h4.96l1.32 7.2zm-6.08-11.01v-1.52h4.6v1.52zm8.08 11.01v-1.9c0-.06-.04-.29-.04-.29.6-.28 1.18-.6 1.72-.96L24.77 29zM8.84 11.57l.83.48a.972.972 0 0 0 1.32-.35.958.958 0 0 0-.36-1.32l-.82-.48A7.785 7.785 0 0 1 15 6.87v.95c0 .56.45 1 1 1s1-.44 1-1v-.95c2.04.27 3.9 1.34 5.15 2.97l-.83.48c-.48.27-.64.89-.36 1.36.18.32.52.5.86.5.17 0 .34-.04.5-.13l.83-.48c.4.93.6 1.95.6 2.98a7.71 7.71 0 0 1-3.1 6.18l-.33-1.81v-2.43c0-1.12-.92-2.03-2.04-2.03h-4.56c-1.12 0-2.04.91-2.04 2.03v2.43l-.33 1.81a7.71 7.71 0 0 1-3.1-6.18c0-1.03.2-2.04.59-2.98zm-.33 14.26c.55.36 1.12.69 1.73.97 0 0-.04.23-.04.29v1.87h-3z" fill="#ffffff" opacity="1" data-original="#000000" class=""></path></g></svg>