<svg xmlns="http://www.w3.org/2000/svg" version="1.1" xmlns:xlink="http://www.w3.org/1999/xlink" width="512" height="512" x="0" y="0" viewBox="0 0 682.667 682.667" style="enable-background:new 0 0 512 512" xml:space="preserve" class=""><g><defs><clipPath id="a" clipPathUnits="userSpaceOnUse"><path d="M0 512h512V0H0Z" fill="#ffffff" opacity="1" data-original="#000000" class=""></path></clipPath></defs><g clip-path="url(#a)" transform="matrix(1.33333 0 0 -1.33333 0 682.667)"><path d="M0 0h-30.496c-8.284 0-15 6.716-15 15 0 8.284 6.716 15 15 15H0c8.284 0 15-6.716 15-15C15 6.716 8.284 0 0 0m0-60h-30.496c-8.284 0-15 6.716-15 15 0 8.284 6.716 15 15 15H0c8.284 0 15-6.716 15-15 0-8.284-6.716-15-15-15m0-60h-30.496c-8.284 0-15 6.716-15 15 0 8.284 6.716 15 15 15H0c8.284 0 15-6.716 15-15 0-8.284-6.716-15-15-15m0-60h-30.496c-8.284 0-15 6.716-15 15 0 8.284 6.716 15 15 15H0c8.284 0 15-6.716 15-15 0-8.284-6.716-15-15-15M35.515 94.351-.248 108.656V120c0 8.285-6.716 15-15 15-8.284 0-15-6.715-15-15v-11.344l-35.826-14.33a15.001 15.001 0 0 1-9.429-13.928v-320.899H44.943V80.424a15 15 0 0 1-9.428 13.927" style="fill-opacity:1;fill-rule:nonzero;stroke:none" transform="translate(270.748 240.5)" fill="#ffffff" data-original="#000000" opacity="1" class=""></path><path d="M0 0c-23.363 0-45.604-11.214-59.496-29.998-4.926-6.661-3.52-16.054 3.141-20.98a14.938 14.938 0 0 1 8.907-2.94 14.98 14.98 0 0 1 12.072 6.081C-27.116-36.668-13.891-30 0-30c13.891 0 27.116-6.667 35.376-17.836 4.927-6.66 14.319-8.065 20.98-3.14 6.66 4.927 8.066 14.319 3.14 20.98C45.603-11.213 23.362 0 0 0" style="fill-opacity:1;fill-rule:nonzero;stroke:none" transform="translate(255.5 512.001)" fill="#ffffff" data-original="#000000" opacity="1" class=""></path><path d="M0 0a14.98 14.98 0 0 1 12.072 6.082 4.553 4.553 0 0 0 3.645 1.837 4.555 4.555 0 0 0 3.646-1.838C24.289-.58 33.682-1.982 40.342 2.943c6.66 4.927 8.065 14.32 3.138 20.98-6.483 8.764-16.862 13.996-27.763 13.996-10.903 0-21.282-5.233-27.765-13.999-4.926-6.66-3.52-16.053 3.14-20.979A14.933 14.933 0 0 1 0 0" style="fill-opacity:1;fill-rule:nonzero;stroke:none" transform="translate(239.784 412.582)" fill="#ffffff" data-original="#000000" opacity="1" class=""></path><path d="M0 0c0 8.284-6.716 15-15 15-8.284 0-15-6.716-15-15v-224h82.745v210H0Z" style="fill-opacity:1;fill-rule:nonzero;stroke:none" transform="translate(112.5 224.001)" fill="#ffffff" data-original="#000000" opacity="1" class=""></path><path d="M0 0c13.891 0 27.116-6.667 35.375-17.835 4.928-6.662 14.32-8.067 20.98-3.141C63.016-16.05 64.421-6.657 59.496.003 45.604 18.786 23.362 30 0 30-23.363 30-45.605 18.786-59.497.002c-4.925-6.661-3.519-16.054 3.142-20.98a14.936 14.936 0 0 1 8.907-2.94c4.594 0 9.13 2.104 12.072 6.081C-27.117-6.668-13.892 0 0 0" style="fill-opacity:1;fill-rule:nonzero;stroke:none" transform="translate(97.5 352.001)" fill="#ffffff" data-original="#000000" opacity="1" class=""></path><path d="M0 0a4.551 4.551 0 0 0 3.644 1.837A4.553 4.553 0 0 0 7.289 0c4.927-6.661 14.321-8.065 20.98-3.14 6.66 4.927 8.065 14.32 3.139 20.98-6.483 8.765-16.862 13.997-27.764 13.997-10.903 0-21.282-5.233-27.765-13.999-4.926-6.661-3.519-16.054 3.142-20.98a14.938 14.938 0 0 1 8.907-2.94A14.98 14.98 0 0 1 0 0" style="fill-opacity:1;fill-rule:nonzero;stroke:none" transform="translate(93.856 288.664)" fill="#ffffff" data-original="#000000" opacity="1" class=""></path><path d="M0 0a14.93 14.93 0 0 1 8.908-2.941c4.594 0 9.13 2.104 12.071 6.081 8.261 11.169 21.487 17.837 35.377 17.837 13.892 0 27.117-6.667 35.376-17.835 4.925-6.661 14.32-8.066 20.979-3.141 6.661 4.926 8.067 14.319 3.141 20.979-13.891 18.783-36.132 29.997-59.496 29.997-23.362 0-45.603-11.214-59.496-29.998C-8.066 14.319-6.66 4.926 0 0" style="fill-opacity:1;fill-rule:nonzero;stroke:none" transform="translate(377.144 411.024)" fill="#ffffff" data-original="#000000" opacity="1" class=""></path><path d="M0 0c-10.902 0-21.282-5.233-27.765-13.999-4.926-6.66-3.52-16.053 3.14-20.98a14.936 14.936 0 0 1 8.908-2.94c4.594 0 9.13 2.104 12.071 6.081A4.553 4.553 0 0 0 0-30a4.555 4.555 0 0 0 3.646-1.838c4.925-6.661 14.321-8.063 20.979-3.139 6.66 4.927 8.064 14.32 3.138 20.98C21.279-5.232 10.901 0 0 0" style="fill-opacity:1;fill-rule:nonzero;stroke:none" transform="translate(433.5 400.502)" fill="#ffffff" data-original="#000000" opacity="1" class=""></path><path d="m0 0-58.487 47.755-.001 74.651c0 8.284-6.716 15-15 15-8.284 0-15-6.716-15-15v-11.363l-72.808-56.094v-253.284H-9.487c8.284 0 15 6.716 15 15v171.716C5.513-7.114 3.488-2.849 0 0" style="fill-opacity:1;fill-rule:nonzero;stroke:none" transform="translate(506.987 198.336)" fill="#ffffff" data-original="#000000" opacity="1" class=""></path><path d="M-.5 75.262h53v59.479h-53z" style="fill-opacity:1;fill-rule:nonzero;stroke:none" fill="#ffffff" data-original="#000000" opacity="1" class=""></path><path d="M0 0v-30.261h53V15H15C6.716 15 0 8.284 0 0" style="fill-opacity:1;fill-rule:nonzero;stroke:none" transform="translate(-.5 195.001)" fill="#ffffff" data-original="#000000" opacity="1" class=""></path><path d="M0 0c0-8.284 6.716-15 15-15h38v45.261H0Z" style="fill-opacity:1;fill-rule:nonzero;stroke:none" transform="translate(-.5 15.001)" fill="#ffffff" data-original="#000000" opacity="1" class=""></path></g></g></svg>