<svg xmlns="http://www.w3.org/2000/svg" version="1.1" xmlns:xlink="http://www.w3.org/1999/xlink" width="512" height="512" x="0" y="0" viewBox="0 0 512 512" style="enable-background:new 0 0 512 512" xml:space="preserve" class=""><g><path d="M166 346c-24.814 0-45 20.186-45 45v15h150v-15c0-24.814-20.186-45-45-45z" fill="#ffffff" opacity="1" data-original="#000000" class=""></path><circle cx="196" cy="241" r="45" fill="#ffffff" opacity="1" data-original="#000000" class=""></circle><path d="M91 391c0-41.353 33.647-75 75-75h30c-41.353 0-75-33.647-75-75s33.647-75 75-75 75 33.647 75 75-33.647 75-75 75h30c41.353 0 75 33.647 75 75v15h180V166H368.075L271 214.545V106H30v300h61zM0 451c0 24.853 20.147 45 45 45h421c24.853 0 46-20.147 46-45v-15H0z" fill="#ffffff" opacity="1" data-original="#000000" class=""></path><path d="m301 166 60-30h151V16H301zM451 61h30v30h-30zm-60 0h30v30h-30zm-60 0h30v30h-30z" fill="#ffffff" opacity="1" data-original="#000000" class=""></path></g></svg>