<svg xmlns="http://www.w3.org/2000/svg" version="1.1" xmlns:xlink="http://www.w3.org/1999/xlink" width="512" height="512" x="0" y="0" viewBox="0 0 512 512" style="enable-background:new 0 0 512 512" xml:space="preserve" class=""><g><path d="M120 195C53.727 195 0 248.727 0 315s53.727 120 120 120 120-53.727 120-120-53.727-120-120-120zm0 165c-24.813 0-45-20.188-45-45s20.188-45 45-45 45 20.188 45 45-20.188 45-45 45zm0 0" fill="#089768" opacity="1" data-original="#000000" class=""></path><path d="M120 300c-8.27 0-15 6.73-15 15s6.73 15 15 15 15-6.73 15-15-6.73-15-15-15zM392 90c0-8.27 6.73-15 15-15V45c-24.813 0-45 20.188-45 45v45h30zM318.11 285c20.777-35.84 59.566-60 103.89-60 21.844 0 42.34 5.867 60 16.11V225c0-33.086-26.914-60-60-60H219.383c-28.5-18.945-62.672-30-99.383-30-41.738 0-82.422 14.613-114.55 41.148l19.1 23.133C51.32 177.176 85.22 165 120 165c72.438 0 133.047 51.617 146.984 120zM305.797 315H270v45h32.938a120.347 120.347 0 0 1-.938-15c0-10.355 1.32-20.406 3.797-30zm0 0" fill="#089768" opacity="1" data-original="#000000" class=""></path><path d="M422 255c-49.707 0-90 40.293-90 90s40.293 90 90 90 90-40.293 90-90-40.293-90-90-90zm0 105c-8.285 0-15-6.715-15-15s6.715-15 15-15 15 6.715 15 15-6.715 15-15 15zM75 109.895A209.703 209.703 0 0 1 120 105c38.285 0 75.445 10.344 108.066 30H286.5L258.937 30H285V0H45v30h30zm0 0" fill="#089768" opacity="1" data-original="#000000" class=""></path></g></svg>