<svg xmlns="http://www.w3.org/2000/svg" width="51.5" height="42.076" viewBox="0 0 51.5 42.076">
  <g id="heart-beat" transform="translate(0 -46.844)">
    <path id="Path_4610" data-name="Path 4610" d="M84.662,198.977l-2.483-3.92-5.093,8.892a1.509,1.509,0,0,1-1.309.759h-.039a1.509,1.509,0,0,1-1.307-.826L68.261,191.7,65.3,198.754a1.509,1.509,0,0,1-1.391.925H55.846q.216.237.443.465l18.623,18.623a1.508,1.508,0,0,0,2.134,0l18.623-18.623q.228-.228.443-.465H85.937A1.509,1.509,0,0,1,84.662,198.977Z" transform="translate(-50.229 -130.287)" fill="#089768"/>
    <path id="Path_4611" data-name="Path 4611" d="M35.4,57.239a1.509,1.509,0,0,1,2.737-.1l6.38,12.592L49.464,61.1a1.509,1.509,0,0,1,2.584-.058l3.378,5.334H66.849A13.484,13.484,0,0,0,45.264,50.792l-.626.626-.626-.626A13.486,13.486,0,0,0,22.426,66.373h9.139Z" transform="translate(-18.888)" fill="#089768"/>
    <path id="Path_4612" data-name="Path 4612" d="M1.509,241a1.509,1.509,0,0,0,0,3.018H5.617A13.462,13.462,0,0,1,3.538,241Z" transform="translate(0 -174.627)" fill="#089768"/>
    <path id="Path_4613" data-name="Path 4613" d="M460.263,241h-2.03a13.465,13.465,0,0,1-2.079,3.018h4.109a1.509,1.509,0,0,0,0-3.018Z" transform="translate(-410.271 -174.627)" fill="#089768"/>
  </g>
</svg>
