<svg xmlns="http://www.w3.org/2000/svg" version="1.1" xmlns:xlink="http://www.w3.org/1999/xlink" width="512" height="512" x="0" y="0" viewBox="0 0 512.001 512" style="enable-background:new 0 0 512 512" xml:space="preserve" class=""><g><path d="M15.309 479.883c6.601-.301 13.8 3.297 18 9.297 9.597 14.398 26.199 22.8 43.3 22.8h1.5c16.465-.472 30.454-7.718 41.098-22.8 8.102-11.7 27-11.7 35.098 0 9.597 14.398 25.199 22.8 42.297 22.8 21.738 0 31.777-10.289 44.398-24.324v-241.61L39.008 332.189c-6.899 3-10.5 10.796-8.399 18l38.5 129.992c-3.902-1.2-8.199-3.899-10.902-7.496-9.598-14.704-26.398-22.801-43.496-22.801-8.399.3-15 6.898-14.7 15.3.301 8.399 7.798 14.399 15.298 14.7zm180.695-148.895c8.281 0 15 6.711 15 15 0 8.282-6.719 14.996-15 14.996-8.285 0-15-6.714-15-14.996 0-8.289 6.715-15 15-15zM496.691 449.883c-16.8.3-33.097 9-42.398 22.8-2.7 4.196-6.898 6.899-11.398 8.098l37.496-130.594c2.101-7.203-1.5-15-8.399-18L271 246.048v240.336c7.5 6.812 18.207 25.597 45.602 25.597 17.398 0 32.996-8.402 42.597-22.8 8.098-11.7 27-11.7 35.098 0 16.805 24.449 39.289 21.925 42.297 22.8 17.398 0 33-8.402 42.597-22.8 3.903-5.7 11.204-9 18.102-9.297 8.398-.301 14.996-6.903 14.7-15.301-.302-8.402-6.302-14.398-15.302-14.7zM316 360.984c-8.285 0-15-6.714-15-14.996 0-8.289 6.715-15 15-15 8.281 0 14.996 6.711 14.996 15 0 8.282-6.715 14.996-14.996 14.996zM286 0h-59.996c-8.293 0-15 6.71-15 15v45.996h-45c-8.29 0-15 6.711-15 15v45h209.992v-45c0-8.289-6.707-15-15-15H301V15c0-8.29-6.71-15-15-15zm0 0" fill="#089768" opacity="1" data-original="#000000"></path><path d="M91.008 165.992V277.75l147.27-63.11c5.609-2.417 11.57-3.648 17.722-3.648s12.113 1.23 17.754 3.649l147.242 63.109V165.992c0-8.289-6.71-14.996-15-14.996H106.008c-8.293 0-15 6.707-15 14.996zm0 0" fill="#089768" opacity="1" data-original="#000000"></path></g></svg>