<svg xmlns="http://www.w3.org/2000/svg" version="1.1" xmlns:xlink="http://www.w3.org/1999/xlink" width="512" height="512" x="0" y="0" viewBox="0 0 511.999 511" style="enable-background:new 0 0 512 512" xml:space="preserve"><g><path d="M256 361.492c-8.277 0-15 6.727-15 15 0 8.278 6.723 15 15 15 8.273 0 15-6.722 15-15 0-8.273-6.723-15-15-15zm0 0" fill="#089768" opacity="1" data-original="#000000"></path><path d="M507.602 245.89 266.605 4.896c-5.859-5.86-15.351-5.86-21.21 0L4.398 245.89a14.985 14.985 0 0 0-3.253 16.347 14.988 14.988 0 0 0 13.859 9.258h46v225.996c0 8.293 6.707 15 14.996 15h359.996c8.293 0 15-6.707 15-15V271.496h46c6.063 0 11.543-3.648 13.856-9.258a14.976 14.976 0 0 0-3.25-16.347zM256 421.493c-24.813 0-45-20.183-45-45 0-24.812 20.188-44.996 45-44.996s45 20.184 45 44.996c0 24.817-20.188 45-45 45zm78.719-91.082c-6.266 5.25-15.746 4.531-21.121-1.902-27.22-32.594-80.625-35.024-110.594-5.012-5.86 5.86-15.356 5.86-21.211 0-5.86-5.844-5.86-15.351 0-21.21 19.832-19.848 46.184-30.79 74.207-30.79 31.188 0 60.57 13.77 80.625 37.793 5.3 6.356 4.45 15.82-1.906 21.121zm46.07-38.39c-6.336 5.304-15.82 4.472-21.125-1.907C333.871 259.22 296.09 241.496 256 241.496c-36.008 0-69.887 14.063-95.406 39.594-5.856 5.86-15.352 5.86-21.207 0-5.86-5.86-5.86-15.352 0-21.211 31.183-31.2 72.593-48.383 116.613-48.383 48.996 0 95.184 21.652 126.691 59.399 5.317 6.359 4.454 15.82-1.902 21.125zM450.996 46.5c0-8.293-6.707-15-15-15h-60c-8.289 0-15 6.707-15 15v11.363l90 90zm0 0" fill="#089768" opacity="1" data-original="#000000"></path></g></svg>