<svg xmlns="http://www.w3.org/2000/svg" version="1.1" xmlns:xlink="http://www.w3.org/1999/xlink" width="512" height="512" x="0" y="0" viewBox="0 0 512 512" style="enable-background:new 0 0 512 512" xml:space="preserve" class=""><g><path d="m498.941 200.291-37.329-7.465a213.461 213.461 0 0 0-16.255-39.257L466.47 121.9a14.997 14.997 0 0 0-1.874-18.927l-56.568-56.569a15.002 15.002 0 0 0-18.927-1.875L357.43 65.642a213.539 213.539 0 0 0-39.257-16.254l-7.465-37.33A14.999 14.999 0 0 0 296 0h-80a15 15 0 0 0-14.709 12.058l-7.465 37.33a213.609 213.609 0 0 0-39.257 16.254l-31.671-21.113a15.002 15.002 0 0 0-18.927 1.875l-56.568 56.569a14.998 14.998 0 0 0-1.874 18.927l21.113 31.669a213.53 213.53 0 0 0-16.255 39.257l-37.329 7.465A15 15 0 0 0 1 215v80c0 7.15 5.047 13.307 12.059 14.708l37.329 7.466a213.48 213.48 0 0 0 16.255 39.256L45.53 388.1a14.999 14.999 0 0 0 1.874 18.927l56.568 56.568a15 15 0 0 0 18.927 1.875l31.022-20.68v-94.165C130.429 325.62 116 292.025 116 255c0-77.32 62.68-140 140-140s140 62.68 140 140c0 37.025-14.429 70.62-37.921 95.625v94.165l31.022 20.68a14.962 14.962 0 0 0 8.315 2.52c3.871 0 7.713-1.495 10.611-4.394l56.568-56.568a14.999 14.999 0 0 0 1.874-18.927l-21.113-31.67a213.55 213.55 0 0 0 16.255-39.256l37.329-7.466A15 15 0 0 0 511 295v-80a15 15 0 0 0-12.059-14.709z" fill="#089768" opacity="1" data-original="#000000"></path><path d="M303.519 172.811c-7.549-4.373-17.127.267-18.374 8.901L276 245h-40l-9.144-63.288c-1.248-8.634-10.825-13.274-18.374-8.901C179.193 189.776 161 221.27 161 255c0 36.552 20.47 69.25 53.421 85.333l1.579.771V497c0 8.284 6.716 15 15 15h50c8.284 0 15-6.716 15-15V341.104l1.579-.771C330.53 324.25 351 291.552 351 255c0-33.73-18.193-65.224-47.481-82.189z" fill="#089768" opacity="1" data-original="#000000"></path></g></svg>