<svg xmlns="http://www.w3.org/2000/svg" version="1.1" xmlns:xlink="http://www.w3.org/1999/xlink" width="512" height="512" x="0" y="0" viewBox="0 0 510 510" style="enable-background:new 0 0 512 512" xml:space="preserve" fill-rule="evenodd" class=""><g><path d="M158.504 366.313c-41.4 0-75.147-33.787-75.147-75.187s33.747-75.187 75.147-75.187c41.44 0 75.187 33.787 75.187 75.187s-33.747 75.187-75.187 75.187zm0 0c74.773 0 136.63 55.164 147.118 127.001a4.989 4.989 0 0 1-4.942 5.674C263.416 499 53.605 499 16.331 499a4.998 4.998 0 0 1-4.952-5.69c10.537-71.835 72.393-126.997 147.125-126.997zm119.607 35.474v-59.208a4.998 4.998 0 0 1 5-5h30.923a5 5 0 0 1 5 5v118.197h-4.979c-7.742-22.214-20.107-42.262-35.944-58.989zm40.62 74.989h166.938a5 5 0 0 1 5 5V494a5.001 5.001 0 0 1-5 5H322.34a15.9 15.9 0 0 0-.091-1.7 164.278 164.278 0 0 0-3.518-20.524zm35.369-16v-90.294a5 5 0 0 1 5-5h30.924a5 5 0 0 1 5 5v90.294zm76.016 0V288.875a5.001 5.001 0 0 1 5-5h30.924a5 5 0 0 1 5 5v171.901zm-12.003-194.217-.006 6.915c0 7.109-5.805 12.914-12.888 12.914v12.915c0 7.11-5.832 12.915-12.915 12.915h-.346v12.914c0 7.083-5.805 12.915-12.888 12.915h-16.776c-7.083 0-12.914-5.832-12.914-12.915v-12.914h-.32c-7.11 0-12.915-5.805-12.915-12.915v-12.915c-7.109 0-12.914-5.805-12.914-12.914v-6.915zm-69.144-16h-25.738c-3.808-65.026-32.007-62.39-32.007-106.513 0-43.883 35.575-79.459 79.458-79.459s79.459 35.576 79.459 79.459c0 44.123-28.2 41.487-32.007 106.513h-25.738v-79.474h10.48c14.543 0 26.453-11.91 26.453-26.453 0-14.579-11.913-26.48-26.453-26.48-14.576 0-26.48 11.904-26.48 26.48v10.453h-11.427v-10.453c0-14.576-11.905-26.48-26.48-26.48-14.541 0-26.454 11.901-26.454 26.48 0 14.543 11.91 26.453 26.454 26.453h10.48zm27.427 0h-11.427v-79.474h11.427zm16-95.474v-10.453c0-5.769 4.711-10.48 10.48-10.48 5.75 0 10.453 4.715 10.453 10.48 0 5.747-4.706 10.453-10.453 10.453zm-43.427 0h-10.48c-5.747 0-10.454-4.706-10.454-10.453 0-5.765 4.703-10.48 10.454-10.48 5.768 0 10.48 4.711 10.48 10.48zM378.682 37.72c0 4.415-3.585 8-8 8s-8-3.585-8-8V19c0-4.415 3.585-8 8-8s8 3.585 8 8zm-61.009 12.062a8.004 8.004 0 0 1-2.936 10.926 8.004 8.004 0 0 1-10.926-2.937l-9.347-16.216c-2.204-3.826-.889-8.722 2.937-10.926a8.004 8.004 0 0 1 10.926 2.936zm-46.784 40.951a8.005 8.005 0 0 1 2.923 10.93 8.005 8.005 0 0 1-10.93 2.923l-16.217-9.373a8.004 8.004 0 0 1-2.922-10.93 8.004 8.004 0 0 1 10.929-2.923zM437.522 57.78a8.005 8.005 0 0 1-10.93 2.923 8.005 8.005 0 0 1-2.923-10.93l9.373-16.216a8.004 8.004 0 0 1 10.93-2.923 8.002 8.002 0 0 1 2.923 10.929zm40.965 46.803a8.005 8.005 0 0 1-10.932-2.915 8.004 8.004 0 0 1 2.916-10.932l16.19-9.373c3.821-2.212 8.719-.906 10.931 2.915s.906 8.72-2.915 10.932z" fill="#ffffff" opacity="1" data-original="#000000" class=""></path></g></svg>