<svg xmlns="http://www.w3.org/2000/svg" version="1.1" xmlns:xlink="http://www.w3.org/1999/xlink" width="512" height="512" x="0" y="0" viewBox="0 0 36 36" style="enable-background:new 0 0 512 512" xml:space="preserve" class=""><g><g fill-rule="evenodd"><path d="M26.13 4.1A2.1 2.1 0 0 0 24 2H4.1A2.1 2.1 0 0 0 2 4.1V12h24.13zM5.93 8.3a.79.79 0 0 1 0-1.58.79.79 0 0 1 0 1.58zm3.94 0a.79.79 0 0 1 0-1.58.79.79 0 1 1 0 1.58zm12.06 0h-5.24a.79.79 0 1 1 0-1.58h5.24a.79.79 0 0 1 0 1.58zM16.89 18.14a1.58 1.58 0 0 1 1.57-1.58 13.83 13.83 0 0 0 5.67-1.22l1.56-.72a1.12 1.12 0 0 1 .44-.09v-1H2v8.92h14.89zm-11 .65a.79.79 0 0 1 0-1.58.79.79 0 1 1 0 1.58zm3.94 0a.79.79 0 1 1 0-1.58.79.79 0 0 1 0 1.58zM16.89 26.66V24H2v7.9A2.08 2.08 0 0 0 4.1 34h17.81-.1a7.89 7.89 0 0 1-4.92-7.34zm-11 2.88a.79.79 0 0 1 0-1.57.79.79 0 1 1 0 1.57zm3.94 0a.79.79 0 1 1 .79-.79.79.79 0 0 1-.75.79z" fill="#ffffff" opacity="1" data-original="#000000" class=""></path><path d="m27.7 16.84-1.53-.66-1.35.61a15.18 15.18 0 0 1-6.32 1.38v8.52a6.31 6.31 0 0 0 3.9 5.81l3.73 1.5 1.57-.62 2.31-.9a6.31 6.31 0 0 0 4-5.87v-8.47a15.86 15.86 0 0 1-6.31-1.3z" fill="#ffffff" opacity="1" data-original="#000000" class=""></path></g></g></svg>