<svg xmlns="http://www.w3.org/2000/svg" version="1.1" xmlns:xlink="http://www.w3.org/1999/xlink" width="512" height="512" x="0" y="0" viewBox="0 0 64 64" style="enable-background:new 0 0 512 512" xml:space="preserve" class=""><g><path d="M36.298 19.001h.002c1.255 0 2.436.488 3.323 1.376S41 22.446 41 23.702v2.597a4.707 4.707 0 0 1-4.701 4.702c-.97 0-1.928-.155-2.848-.463l-.451-.15V41h13v-7.974l13 9.533V30.388l-.453.151a8.988 8.988 0 0 1-2.845.461A4.707 4.707 0 0 1 51 26.299v-2.598A4.707 4.707 0 0 1 55.701 19c.971 0 1.929.155 2.849.463l.45.15V12a1 1 0 0 0-1-1H47.612l1.219-3.654A3.303 3.303 0 0 0 45.698 3h-1.396a3.306 3.306 0 0 0-3.133 4.346L42.388 11H34a1 1 0 0 0-1 1v7.613l.452-.15a8.972 8.972 0 0 1 2.846-.462z" fill="#ffffff" opacity="1" data-original="#000000"></path><path d="M9.293 37.635c.44.441.944.276 1.09.219a.985.985 0 0 0 .617-.925V35h8v1.929c0 .62.473.864.617.925a.983.983 0 0 0 1.09-.218l1.365-1.363L26.8 41H31V27.614l3.084 1.026c.716.239 1.461.36 2.215.36A2.704 2.704 0 0 0 39 26.299v-2.597c0-.722-.281-1.4-.791-1.91a2.678 2.678 0 0 0-1.909-.791h-.002c-.753 0-1.498.121-2.214.359L31 22.389V12a1 1 0 0 0-1-1H19.612l1.219-3.654A3.303 3.303 0 0 0 17.698 3h-1.396a3.306 3.306 0 0 0-3.133 4.346L14.388 11H6a1 1 0 0 0-1 1v27.2l2.928-2.928zM26 22a2 2 0 1 1 .001 3.999A2 2 0 0 1 26 22zm-8 0a2 2 0 1 1 .001 3.999A2 2 0 0 1 18 22zm-8 0a2 2 0 1 1 .001 3.999A2 2 0 0 1 10 22zM60.397 46.065 48 36.974V43H26.658l-.292.293a.984.984 0 0 0-.219 1.09c.06.144.304.617.924.617H29v6h19v5.81z" fill="#ffffff" opacity="1" data-original="#000000"></path><path d="M24.299 45.147a2.951 2.951 0 0 1 .602-3.218l-2.83-2.83a2.951 2.951 0 0 1-3.218.602A2.952 2.952 0 0 1 17.001 37h-4.002c-.026 1.206-.73 2.237-1.852 2.701s-2.346.232-3.218-.602L5.1 41.93a2.953 2.953 0 0 1 .602 3.218A2.952 2.952 0 0 1 3 46.999v4.002a2.95 2.95 0 0 1 2.701 1.852 2.951 2.951 0 0 1-.602 3.218l2.83 2.83a2.956 2.956 0 0 1 3.218-.602A2.952 2.952 0 0 1 12.999 61h4.002c.026-1.206.73-2.237 1.852-2.701s2.346-.233 3.218.602l2.83-2.83a2.953 2.953 0 0 1-.602-3.218A2.952 2.952 0 0 1 27 51.001v-4.002a2.95 2.95 0 0 1-2.701-1.852zM15 56a7 7 0 1 1 0-14 7 7 0 0 1 0 14z" fill="#ffffff" opacity="1" data-original="#000000"></path><circle cx="15" cy="49" r="3" fill="#ffffff" opacity="1" data-original="#000000"></circle></g></svg>