<svg xmlns="http://www.w3.org/2000/svg" version="1.1" xmlns:xlink="http://www.w3.org/1999/xlink" width="512" height="512" x="0" y="0" viewBox="0 0 512 512" style="enable-background:new 0 0 512 512" xml:space="preserve"><g><path d="M256 88.136c-86.598 0-157.052 70.453-157.052 157.052.001 53.106 27.114 102.742 71.323 131.607v6.55h70.587v-78.279c-19.656-6.395-33.908-24.882-33.908-46.644 0-8.36 6.778-15.138 15.138-15.138s15.138 6.778 15.138 15.138c0 10.349 8.42 18.77 18.77 18.77s18.769-8.42 18.769-18.77c0-8.36 6.778-15.138 15.138-15.138s15.138 6.778 15.138 15.138c0 21.762-14.251 40.249-33.908 46.644v78.279h70.59v-6.548c44.212-28.865 71.327-78.502 71.327-131.609.002-86.598-70.452-157.052-157.05-157.052zM170.272 413.62v12.653c0 47.27 38.457 85.726 85.727 85.726s85.727-38.457 85.727-85.726V413.62H170.272zM256 0c-8.36 0-15.138 6.778-15.138 15.138v26.575c0 8.36 6.778 15.138 15.138 15.138s15.138-6.778 15.138-15.138V15.138C271.138 6.778 264.36 0 256 0zM213.417 45.596l-9.396-24.86c-2.956-7.82-11.694-11.763-19.512-8.808-7.82 2.955-11.764 11.691-8.808 19.512l9.396 24.86c2.29 6.059 8.048 9.79 14.163 9.79a15.1 15.1 0 0 0 5.349-.982c7.82-2.955 11.764-11.691 8.808-19.512zM327.49 11.927c-7.821-2.956-16.556.989-19.512 8.809l-9.396 24.86c-2.955 7.82.989 16.556 8.809 19.512 1.762.666 3.571.982 5.349.982 6.115 0 11.874-3.732 14.163-9.791l9.396-24.86c2.955-7.821-.989-16.556-8.809-19.512z" fill="#ffffff" opacity="1" data-original="#000000"></path></g></svg>