<svg xmlns="http://www.w3.org/2000/svg" version="1.1" xmlns:xlink="http://www.w3.org/1999/xlink" width="512" height="512" x="0" y="0" viewBox="0 0 512.007 512.007" style="enable-background:new 0 0 512 512" xml:space="preserve" class=""><g><path d="M497 482.006h-16v-296c0-8.284-6.716-15-15-15h-60c-8.284 0-15 6.716-15 15v296h-30v-196c0-8.284-6.716-15-15-15h-60c-8.284 0-15 6.716-15 15v196h-30v-141c0-8.284-6.716-15-15-15h-60c-8.284 0-15 6.716-15 15v141h-30v-105c0-8.284-6.716-15-15-15H46c-8.284 0-15 6.716-15 15v105H15c-8.284 0-15 6.716-15 15s6.716 15 15 15h482c8.284 0 15-6.716 15-15s-6.716-15-15-15z" fill="#ffffff" opacity="1" data-original="#000000" class=""></path><path d="M15 322.31c93.618 0 195.14-33.622 285.866-94.673 71.055-47.815 130.286-108.898 167.078-171.445l14.568 54.367c1.796 6.702 10.467 12.492 18.371 10.606 8.058-1.922 12.75-10.369 10.606-18.371l-24.563-91.67C484.781 3.123 476.56-1.627 468.555.518l-91.67 24.563c-8.002 2.144-12.75 10.369-10.606 18.371 2.145 8.002 10.366 12.752 18.371 10.606l59.055-15.824C409.38 97.88 352.652 156.628 284.117 202.747 198.289 260.503 102.715 292.31 15 292.31c-8.284 0-15 6.716-15 15s6.716 15 15 15z" fill="#ffffff" opacity="1" data-original="#000000" class=""></path></g></svg>