<svg xmlns="http://www.w3.org/2000/svg" version="1.1" xmlns:xlink="http://www.w3.org/1999/xlink" width="512" height="512" x="0" y="0" viewBox="0 0 64 64" style="enable-background:new 0 0 512 512" xml:space="preserve" class=""><g><path d="M20 47.001h-4c-.552 0-1 .449-1 1V58c0 1.654 1.346 3 3 3s3-1.346 3-3v-9.999c0-.551-.448-1-1-1zM18 11C9.729 11 3 17.729 3 26s6.729 15 15 15 15-6.729 15-15-6.729-15-15-15zm0 27c-6.627 0-12-5.373-12-12s5.373-12 12-12 12 5.373 12 12-5.373 12-12 12zM19 45.001c.552 0 1-.449 1-1v-1.13c-.657.078-1.322.129-2 .129s-1.343-.051-2-.128v1.13c0 .551.448 1 1 1h2z" fill="#ffffff" opacity="1" data-original="#000000" class=""></path><path d="m45.083 24.806.263-.468a13.01 13.01 0 0 0 1.152-2.796l.146-.517L49 20.271V15.73l-2.356-.755-.146-.517a13.01 13.01 0 0 0-1.152-2.796l-.263-.468 1.13-2.195-3.212-3.211-2.194 1.129-.469-.262a12.893 12.893 0 0 0-2.797-1.153l-.517-.146L36.271 3H31.73l-.754 2.356-.517.146c-.986.278-1.927.667-2.797 1.153l-.469.262-2.214-1.139-3.747 3.539a16.905 16.905 0 0 1 5.335 2.018C28.398 9.294 31.043 8 34 8c5.523 0 10 4.477 10 10 0 5.226-4.01 9.509-9.12 9.956A16.953 16.953 0 0 1 33.474 33h2.796l.754-2.356.517-.146a12.91 12.91 0 0 0 2.797-1.153l.468-.262 2.195 1.129 3.212-3.211zM14 31l10-5-10-5zM26 48h6v14h-6zM56 36h6v26h-6zM46 40h6v22h-6zM36 44h6v18h-6z" fill="#ffffff" opacity="1" data-original="#000000" class=""></path></g></svg>