<svg xmlns="http://www.w3.org/2000/svg" version="1.1" xmlns:xlink="http://www.w3.org/1999/xlink" width="512" height="512" x="0" y="0" viewBox="0 0 64 64" style="enable-background:new 0 0 512 512" xml:space="preserve" class=""><g><path d="M54.266 4H9.734v56h44.532zM24.093 46.909l-4.483 4.483a.997.997 0 0 1-1.414 0l-2.689-2.689a.999.999 0 1 1 1.414-1.414l1.982 1.982 3.776-3.776a.999.999 0 1 1 1.414 1.414zm0-10.87-4.483 4.483a.997.997 0 0 1-1.414 0l-2.689-2.69a.999.999 0 1 1 1.414-1.414l1.982 1.983 3.776-3.776a.999.999 0 1 1 1.414 1.414zm0-10.87-4.483 4.483a.997.997 0 0 1-1.414 0l-2.689-2.689a.999.999 0 1 1 1.414-1.414l1.982 1.982 3.776-3.776a.999.999 0 1 1 1.414 1.414zm0-10.87-4.483 4.483a.997.997 0 0 1-1.414 0l-2.689-2.69a.999.999 0 1 1 1.414-1.414l1.982 1.983 3.776-3.776a.999.999 0 1 1 1.414 1.414zm23.694 35.144h-19.92a1 1 0 1 1 0-2h19.92a1 1 0 1 1 0 2zm0-10.87h-19.92a1 1 0 1 1 0-2h19.92a1 1 0 1 1 0 2zm0-10.87h-19.92a1 1 0 1 1 0-2h19.92a1 1 0 1 1 0 2zm0-10.87h-19.92a1 1 0 1 1 0-2h19.92a1 1 0 1 1 0 2z" fill="#ffffff" opacity="1" data-original="#000000" class=""></path></g></svg>