<svg xmlns="http://www.w3.org/2000/svg" version="1.1" xmlns:xlink="http://www.w3.org/1999/xlink" width="512" height="512" x="0" y="0" viewBox="0 0 512 512" style="enable-background:new 0 0 512 512" xml:space="preserve" class=""><g><path d="M184.108 237.811c-64.342 0-124.287-17.9-164.803-45.124-.43-.29-.859-.58-1.279-.87v55.517c8.125 7.766 18.409 15.241 30.532 22.037 36.738 20.588 86.14 32.401 135.551 32.401 19.229 0 38.098-1.449 56.127-4.258v-63.643c-18.17 2.6-37.019 3.94-56.128 3.94zM240.235 346.987v-19.169c-18.169 2.599-37.018 3.938-56.127 3.938-64.462 0-124.507-17.959-165.023-45.283-.36-.23-.71-.47-1.059-.71v61.024c7.206 6.146 15.781 12.053 25.535 17.53 36.738 20.588 86.14 32.401 135.551 32.401 26.524 0 52.369-2.758 76.275-8.025-9.655-11.444-15.152-26.085-15.152-41.706zM349.861 448.357l-1.019-.55-61.934-36.409c-32.741 9.974-69.729 15.301-107.797 15.301-62.403 0-120.669-16.83-161.086-42.685v57.736c0 46.123 83.751 70.249 166.482 70.249 78.534 0 157.987-21.747 165.833-63.413-.159-.069-.319-.149-.479-.229zM184.508 0C104.382 0 23.31 22.631 18.277 65.941 25.33 71.868 33.64 77.57 43.073 82.854c36.732 20.587 86.139 32.393 135.549 32.393 50.846 0 99.213-10.153 136.189-28.589 14.721-7.34 26.694-15.642 35.323-24.251C341.215 21.4 262.411 0 184.508 0z" fill="#ffffff" opacity="1" data-original="#000000" class=""></path><path d="M328.184 113.494c-41.046 20.468-94.165 31.741-149.562 31.741-62.154 0-120.2-17.71-160.596-43.385v53.539c8.125 7.765 17.41 13.242 29.533 20.038 36.738 20.588 87.139 32.401 136.55 32.401 19.229 0 38.098-1.449 56.127-4.258v-17.2c0-12.673 8.485-23.786 20.668-27.134l90.077-26.325V100.25c-6.887 4.679-14.482 9.096-22.797 13.244zM476.889 181.994l-93.049-27.197-.374-.104a16.884 16.884 0 0 0-8.621 0l-93.423 27.301c-10.072 2.77-17.086 11.955-17.086 22.423v132.757c0 20.167 11.089 38.358 28.978 47.598l60.789 35.73.841.459c7.58 3.826 15.896 5.739 24.211 5.739 8.315 0 16.631-1.913 24.211-5.739l.428-.216 61.203-35.973c17.888-9.241 28.978-27.431 28.978-47.598V204.417c0-10.468-7.014-19.651-17.086-22.423zm-43.57 91.233-61.217 56.648c-.125.116-.26.215-.388.326-.177.153-.352.306-.534.449-.206.163-.418.313-.631.464-.187.132-.373.266-.565.389-.223.143-.451.272-.679.401-.19.108-.378.219-.571.318-.244.124-.492.233-.74.344-.187.083-.371.171-.56.246-.266.105-.536.193-.807.282-.179.059-.355.125-.535.177-.292.084-.588.149-.883.216-.164.037-.325.083-.49.114-.332.063-.667.104-1 .145-.132.016-.262.042-.394.054-.467.044-.935.067-1.403.067h-.003c-.494 0-.986-.026-1.477-.074-.138-.014-.275-.042-.413-.06-.352-.044-.703-.09-1.05-.159-.174-.035-.345-.086-.518-.126-.308-.073-.617-.144-.92-.236-.19-.058-.375-.131-.563-.197-.281-.098-.562-.193-.838-.309-.199-.083-.392-.181-.588-.273-.257-.12-.513-.239-.764-.375-.203-.11-.399-.234-.598-.353-.234-.141-.468-.281-.695-.436-.201-.137-.394-.286-.59-.434a15.003 15.003 0 0 1-.637-.499c-.19-.16-.373-.332-.557-.503-.131-.122-.27-.232-.398-.36l-26.746-26.75c-5.855-5.855-5.855-15.346 0-21.201s15.347-5.855 21.201 0l16.55 16.55 50.632-46.853c6.075-5.624 15.561-5.255 21.185.822 5.628 6.077 5.262 15.562-.816 21.186z" fill="#ffffff" opacity="1" data-original="#000000" class=""></path></g></svg>