<svg xmlns="http://www.w3.org/2000/svg" version="1.1" xmlns:xlink="http://www.w3.org/1999/xlink" width="512" height="512" x="0" y="0" viewBox="0 0 512 512" style="enable-background:new 0 0 512 512" xml:space="preserve" class=""><g><path d="M409.418 325.288c22.903-18.325 37.577-46.507 37.577-78.12 0-55.229-44.771-100-100-100-55.228 0-100 44.771-100 100 0 55.228 44.771 100 100 100 12.864 0 25.16-2.431 36.456-6.856l16.497 28.574a60.343 60.343 0 0 1 12.047-9.134 60.06 60.06 0 0 1 13.946-5.846zm-16.478-84.837-47.141 47.14c-5.858 5.858-15.355 5.858-21.213 0l-23.57-23.57c-5.858-5.858-5.858-15.355 0-21.213 5.858-5.858 15.355-5.858 21.213 0l12.964 12.964 36.534-36.534c5.858-5.858 15.355-5.858 21.213 0 5.858 5.858 5.858 15.355 0 21.213zM507.975 465.995l-40-69.282c-8.284-14.349-26.632-19.265-40.981-10.981s-19.265 26.632-10.981 40.981l40 69.282c8.284 14.349 26.632 19.265 40.981 10.981 14.35-8.285 19.266-26.632 10.981-40.981z" fill="#ffffff" opacity="1" data-original="#000000" class=""></path><path d="M228.675 301H75.424c-8.077 0-15.027-6.207-15.407-14.275C59.612 278.111 66.475 271 75 271h144.192a130.189 130.189 0 0 1-2.197-23.832c0-2.068.054-4.123.15-6.168H75.424c-8.077 0-15.027-6.207-15.407-14.275C59.612 218.111 66.475 211 75 211h147.119a129.322 129.322 0 0 1 13.018-30H75.424c-8.077 0-15.027-6.207-15.407-14.275C59.612 158.111 66.475 151 75 151h184.619c23.1-21.007 53.767-33.832 87.376-33.832V16c0-8.284-6.716-15-15-15H15C6.716 1 0 7.715 0 16v480c0 8.284 6.716 15 15 15h316.995c8.284 0 15-6.716 15-15V377.168c-52.493 0-97.814-31.275-118.32-76.168zM75 91h140c8.284 0 15 6.716 15 15s-6.716 15-15 15H75c-8.284 0-15-6.716-15-15s6.716-15 15-15zM60 346c0-8.284 6.716-15 15-15h140c8.284 0 15 6.716 15 15s-6.716 15-15 15H75c-8.284 0-15-6.716-15-15zm230 60c0 8.284-6.716 15-15 15H175c-8.284 0-15-6.716-15-15s6.716-15 15-15h100c8.284 0 15 6.716 15 15zM346.995 117.168v.01c.251-.006.503-.01 0-.01z" fill="#ffffff" opacity="1" data-original="#000000" class=""></path><path d="M346.995 117.206v-.028c-.25.007-.499.017 0 .028zM346.995 377.168c.504 0 .251-.004 0-.011zM346.995 377.157v-.027c-.499.011-.25.02 0 .027z" fill="#ffffff" opacity="1" data-original="#000000" class=""></path></g></svg>