<svg xmlns="http://www.w3.org/2000/svg" version="1.1" xmlns:xlink="http://www.w3.org/1999/xlink" width="512" height="512" x="0" y="0" viewBox="0 0 512.348 512.348" style="enable-background:new 0 0 512 512" xml:space="preserve" class=""><g><path d="M496.816 211.974h-47.043a198.085 198.085 0 0 0-20.616-51.837l36.922-36.922c6.065-6.066 6.065-15.9 0-21.966l-48.39-48.39c-6.066-6.066-15.9-6.066-21.966 0l-35.919 35.919a198.221 198.221 0 0 0-52.208-22.368V15.706c0-8.578-6.954-15.532-15.532-15.532H223.63c-8.578 0-15.532 6.954-15.532 15.532v49.776a198.105 198.105 0 0 0-53.923 22.152l-31.997-31.997c-6.066-6.066-15.9-6.066-21.966 0l-48.39 48.39c-6.066 6.066-6.066 15.9 0 21.966l32.211 32.211a198.067 198.067 0 0 0-21.764 53.771H15.532C6.954 211.974 0 218.928 0 227.507v68.434c0 8.578 6.954 15.532 15.532 15.532h48.134a198.268 198.268 0 0 0 22.127 51.318l-34.664 34.664c-6.066 6.066-6.066 15.9 0 21.966l48.39 48.39c6.066 6.066 15.9 6.066 21.966 0l35.667-35.667a198.146 198.146 0 0 0 48.926 19.903v44.596c0 8.578 6.954 15.532 15.532 15.532h68.434c8.578 0 15.532-6.954 15.532-15.532v-44.498a198.091 198.091 0 0 0 51.26-21.139l37.152 37.152c6.066 6.066 15.9 6.066 21.966 0l48.39-48.39c6.066-6.066 6.066-15.9 0-21.966l-36.939-36.939a198.192 198.192 0 0 0 20.973-49.39h48.439c8.578 0 15.532-6.954 15.532-15.532v-68.434c-.001-8.579-6.955-15.533-15.533-15.533zm-376.695-.722c-4.72-7.441-2.514-17.299 4.927-22.018 6.967-4.419 16.048-2.766 21.052 3.565 22.311-38.238 63.816-63.035 109.573-63.035 55.263 0 103.753 35.321 120.662 87.891 2.698 8.388-1.914 17.374-10.303 20.072-8.391 2.7-17.374-1.915-20.072-10.303-12.65-39.328-48.933-65.752-90.287-65.752-32.177 0-61.53 16.389-78.805 42.101 7.252-.142 13.913 4.698 15.766 12.033 2.158 8.543-3.017 17.218-11.56 19.375l-28.258 7.139c-6.221 1.593-13.697-.905-17.38-6.923zm267.178 111.862c-6.966 4.419-16.048 2.767-21.052-3.565-22.311 38.237-63.816 63.035-109.573 63.035-55.262 0-103.752-35.32-120.662-87.89-2.698-8.388 1.914-17.375 10.302-20.073 8.387-2.701 17.375 1.915 20.073 10.302 12.651 39.328 48.934 65.752 90.287 65.752 32.173 0 61.524-16.385 78.8-42.092-.101.002-.203.009-.304.009-7.134 0-13.63-4.818-15.457-12.05-2.158-8.543 3.017-17.218 11.56-19.375l28.258-7.138c6.197-1.557 13.917.91 17.532 7.161l15.163 23.906c4.72 7.441 2.514 17.298-4.927 22.018z" fill="#ffffff" opacity="1" data-original="#000000" class=""></path></g></svg>