<svg xmlns="http://www.w3.org/2000/svg" version="1.1" xmlns:xlink="http://www.w3.org/1999/xlink" width="512" height="512" x="0" y="0" viewBox="0 0 512 512" style="enable-background:new 0 0 512 512" xml:space="preserve" class=""><g><path fill-rule="evenodd" d="M63.888 66.068h353.436c17.659 0 32.107 14.449 32.107 32.107v118.838a98.061 98.061 0 0 0-26.849-11.373V97.37a4.466 4.466 0 0 0-4.453-4.453H63.083a4.466 4.466 0 0 0-4.453 4.453v199.712h240.871c-.771 19.027 3.846 37.668 13.531 54.085h-6.795v51.011h48.872c15.059 0 27.38 9.844 27.38 21.877v21.877H98.723v-21.877c0-12.032 12.321-21.877 27.381-21.877h48.872v-51.011H63.888c-17.659 0-32.107-14.448-32.107-32.108V98.176c0-17.659 14.448-32.108 32.107-32.108zM416.583 220.65a105.435 105.435 0 0 1 21.182 23.883c4.925-1.751 9.538-3.861 13.716-6.331-9.896-8.417-21.801-14.543-34.898-17.552zm46.196 29.247c-3.477 3.031-12.898 7.133-17.333 8.824a103.573 103.573 0 0 1 8.671 34.428h26.103c-1.563-16.254-7.838-31.131-17.441-43.252zm17.44 59.253h-26.125a104.794 104.794 0 0 1-8.661 34.423c4.439 1.691 13.866 5.796 17.346 8.829 9.603-12.121 15.878-26.998 17.44-43.252zm-28.738 54.947c-4.174-2.467-8.782-4.575-13.702-6.326a104.465 104.465 0 0 1-21.165 23.871c13.085-3.012 24.979-9.135 34.867-17.545zm-72.079 17.545a104.413 104.413 0 0 1-21.165-23.87c-4.919 1.75-9.527 3.858-13.701 6.325 9.888 8.409 21.782 14.532 34.866 17.545zm-46.164-29.241c3.472-3.03 12.914-7.14 17.346-8.829a104.794 104.794 0 0 1-8.661-34.423h-26.124c1.561 16.255 7.836 31.132 17.439 43.252zm-17.44-59.251H341.9a103.549 103.549 0 0 1 8.671-34.428c-4.442-1.693-13.848-5.789-17.333-8.824-9.602 12.12-15.877 26.997-17.44 43.252zm28.738-54.948c4.178 2.47 8.791 4.579 13.716 6.33a105.459 105.459 0 0 1 21.182-23.883c-13.097 3.011-25.002 9.137-34.898 17.553zm45.472-5.583a89.445 89.445 0 0 0-15.352 16.241 127.45 127.45 0 0 0 15.352 1.834zm-23.994 30.764a87.679 87.679 0 0 0-8.061 29.767h32.056v-26.434c-8.165-.439-16.256-1.549-23.995-3.333zm-8.038 45.767a88.783 88.783 0 0 0 8.045 29.765c7.736-1.783 15.825-2.893 23.987-3.331V309.15zm16.658 44.293a88.646 88.646 0 0 0 15.375 16.252v-18.09c-5.215.309-10.372.921-15.375 1.838zm31.374 16.252a88.646 88.646 0 0 0 15.375-16.252 127.203 127.203 0 0 0-15.375-1.838zm23.987-30.78a88.808 88.808 0 0 0 8.046-29.765h-32.032v26.434c8.161.438 16.25 1.548 23.986 3.331zm8.069-45.765a87.708 87.708 0 0 0-8.061-29.767c-7.738 1.784-15.83 2.894-23.994 3.333v26.434zm-16.703-44.29a89.514 89.514 0 0 0-15.352-16.241v18.075a127.45 127.45 0 0 0 15.352-1.834zm-222.786-48.285c0 23.215 18.816 42.031 42.031 42.031s42.031-18.816 42.031-42.031zm0-16h16v-32.64a8 8 0 0 0-8-8h-43.524c-3.001-6.344-9.459-10.734-16.944-10.734-10.347 0-18.734 8.387-18.734 18.734s8.387 18.734 18.734 18.734c7.485 0 13.943-4.389 16.944-10.734h35.524zm136.53-51.374c-7.485 0-13.943 4.389-16.944 10.734h-43.524a8 8 0 0 0-8 8v32.64h16v-24.64h35.524c3.001 6.345 9.46 10.734 16.944 10.734 10.347 0 18.734-8.387 18.734-18.734.001-10.347-8.387-18.734-18.734-18.734zm-94.499-21.421c-10.347 0-18.734 8.387-18.734 18.734 0 7.485 4.389 13.943 10.734 16.944v37.116h16v-37.117c6.345-3.001 10.734-9.459 10.734-16.944.001-10.345-8.387-18.733-18.734-18.733zm77.645 88.795h-19.613c0 32.046-25.985 58.031-58.031 58.031s-58.031-25.985-58.031-58.031h-19.613v10.508l12.864 4.952a66.284 66.284 0 0 0 8.046 19.409l-5.598 12.605 14.861 14.86 12.608-5.6a66.31 66.31 0 0 0 19.403 8.044l4.953 12.867h21.015l4.951-12.864a66.257 66.257 0 0 0 19.409-8.046l12.604 5.598 14.861-14.861-5.6-12.608a66.294 66.294 0 0 0 8.044-19.404l12.867-4.952z" clip-rule="evenodd" fill="#089768" opacity="1" data-original="#000000"></path></g></svg>