<svg xmlns="http://www.w3.org/2000/svg" version="1.1" xmlns:xlink="http://www.w3.org/1999/xlink" width="512" height="512" x="0" y="0" viewBox="0 0 32 32" style="enable-background:new 0 0 512 512" xml:space="preserve" class=""><g><path d="M23.31 11.5h6.89l-5.85-5.85A.469.469 0 0 0 24 5.5H8c-.13 0-.26.05-.35.15L1.8 11.5h6.89l2.5-5h1.12l-2.5 5h5.69v-5h1v5h5.69l-2.5-5h1.12l2.5 5zM17.83 23.46 16 25.29l-1.83-1.83L8.69 12.5H1.8l13.85 13.85c.09.1.22.15.35.15s.26-.05.35-.15l2.92-2.92c-.34-.34-.62-.72-.86-1.13l-.58 1.16zM28.43 14.27l1.77-1.77H24a6.4 6.4 0 0 1 4.43 1.77z" fill="#ffffff" opacity="1" data-original="#000000" class=""></path><path d="m16.5 23.88 1.37-2.74c-.24-.67-.37-1.39-.37-2.14 0-2.9 1.91-5.36 4.54-6.2l.15-.3H16.5v11.38zM15.5 12.5H9.81l5.69 11.38z" fill="#ffffff" opacity="1" data-original="#000000" class=""></path><path d="M24 13.5a5.51 5.51 0 0 0-5.5 5.5c0 3.03 2.47 5.5 5.5 5.5s5.5-2.47 5.5-5.5-2.47-5.5-5.5-5.5zm1.85 4.85-2 2c-.09.1-.22.15-.35.15s-.26-.05-.35-.15l-1-1c-.2-.19-.2-.51 0-.7.19-.2.51-.2.7 0l.65.64 1.65-1.64c.19-.2.51-.2.7 0 .2.19.2.51 0 .7z" fill="#ffffff" opacity="1" data-original="#000000" class=""></path></g></svg>