<svg xmlns="http://www.w3.org/2000/svg" version="1.1" xmlns:xlink="http://www.w3.org/1999/xlink" width="512" height="512" x="0" y="0" viewBox="0 0 511.996 511.996" style="enable-background:new 0 0 512 512" xml:space="preserve" class=""><g><path d="M134.567 310.511v-.622c-.001-52.193 19.538-101.405 55.149-139.373H0v221.363c0 6.339 5.139 11.478 11.478 11.478h145.576c-13.415-27.201-21.049-58.246-22.461-92.223zM338.431 105.821h.406c13.251 0 26.208 1.291 38.766 3.726V40.429c0-6.339-5.139-11.478-11.478-11.478H11.478C5.139 28.951 0 34.09 0 40.429v100.086h224.854c33.369-22.56 72.584-34.694 113.577-34.694zM90.48 85.131c0 8.284-6.716 15-15 15s-15-6.716-15-15v-.892c0-8.284 6.716-15 15-15s15 6.716 15 15zm60 0c0 8.284-6.716 15-15 15s-15-6.716-15-15v-.892c0-8.284 6.716-15 15-15s15 6.716 15 15zm60 0c0 8.284-6.716 15-15 15s-15-6.716-15-15v-.892c0-8.284 6.716-15 15-15s15 6.716 15 15zM243.609 164.135l94.511 120.881 94.854-121.321c-27.275-17.673-59.713-27.914-94.34-27.874-34.927-.04-67.614 10.373-95.025 28.314zM511.996 294.37c-3.931-44.331-24.529-83.796-55.334-112.266L368.888 294.37z" fill="#ffffff" opacity="1" data-original="#000000" class=""></path><path d="m338.13 324.371-.009-.001h-.004a14.973 14.973 0 0 1-11.815-5.76L220.003 182.651c-34.017 31.731-55.437 76.933-55.436 127.236 9.394 226.123 324.815 230.601 347.065 14.483h-173.49l-.012.001z" fill="#ffffff" opacity="1" data-original="#000000" class=""></path></g></svg>