<svg xmlns="http://www.w3.org/2000/svg" version="1.1" xmlns:xlink="http://www.w3.org/1999/xlink" width="512" height="512" x="0" y="0" viewBox="0 0 100 100" style="enable-background:new 0 0 512 512" xml:space="preserve" class=""><g><path d="M2.5 56.659h18.349V97.5H2.5zM27.952 34.463h18.349V97.5H27.952zM53.403 56.659h18.349V97.5H53.403zM78.855 34.463h18.349V97.5H78.855z" fill="#089768" opacity="1" data-original="#000000" class=""></path><path d="M18.185 40.678c2.664-2.664 3.256-6.511 2.072-10.063l12.43-10.95c2.96 1.776 6.215 1.776 9.174 0l12.43 10.95c-1.48 3.256-.592 7.399 2.072 10.063 3.551 3.551 9.47 3.551 13.022 0 2.663-2.664 3.255-6.511 2.071-10.063l12.43-10.95c3.552 2.072 7.99 1.48 10.95-1.48 3.552-3.551 3.552-9.47 0-13.021-3.551-3.552-9.47-3.552-13.021 0-2.664 2.663-3.256 6.51-2.072 10.062L67.017 26.472c-2.663-1.48-6.215-1.48-9.174 0l-12.43-10.95c1.184-3.256.592-7.103-2.072-9.767-3.551-3.55-9.47-3.55-13.022 0-2.367 2.368-2.96 6.215-1.775 9.47l-12.43 11.247c-3.552-2.072-7.99-1.776-10.95 1.184-3.552 3.551-3.552 9.47 0 13.022s9.47 3.551 13.021 0z" fill="#089768" opacity="1" data-original="#000000" class=""></path></g></svg>