<svg xmlns="http://www.w3.org/2000/svg" version="1.1" xmlns:xlink="http://www.w3.org/1999/xlink" width="512" height="512" x="0" y="0" viewBox="0 0 64 64" style="enable-background:new 0 0 512 512" xml:space="preserve" class=""><g><path d="M32 2a30 30 0 1 0 30 30A30.037 30.037 0 0 0 32 2zm.01 42.5a12.5 12.5 0 1 1 0-25c16.58.68 16.59 24.32 0 25zm9.71 5.02c-6.26 3.44-13.53 3.19-19.96-.1C4.97 40 11.34 13.32 30.25 12a2.328 2.328 0 0 1 .37 4.64 15.335 15.335 0 0 0-13.94 16.31c1.7 18.82 28.49 19.25 30.69.44a2.327 2.327 0 0 1 4.64.37 20.052 20.052 0 0 1-10.29 15.76z" fill="#089768" opacity="1" data-original="#000000" class=""></path><path d="M31.3 23.43v6.55a2.14 2.14 0 1 0 2.72 2.73h4.51a.715.715 0 0 0 .72-.71.723.723 0 0 0-.72-.72h-4.51a2.197 2.197 0 0 0-1.3-1.3v-6.55a.71.71 0 0 0-1.42 0zm.71 9.28a.715.715 0 0 1 0-1.43.715.715 0 0 1 0 1.43z" fill="#089768" opacity="1" data-original="#000000" class=""></path></g></svg>