<svg xmlns="http://www.w3.org/2000/svg" version="1.1" xmlns:xlink="http://www.w3.org/1999/xlink" width="512" height="512" x="0" y="0" viewBox="0 0 512.001 512.001" style="enable-background:new 0 0 512 512" xml:space="preserve" class=""><g><path d="M255.7 240.001h124.801c3.6-9.901 6.299-19.799 7.799-30H269.501a76.324 76.324 0 0 1-13.801 30zM196.001 150.001c-24.9 0-45 20.099-45 45s20.1 45 45 45 45-20.099 45-45-20.1-45-45-45zm15 60h-30v-30h30z" fill="#ffffff" opacity="1" data-original="#000000" class=""></path><path d="M121.001 195.001c0-41.4 33.6-75 75-75h184.501c-24.3-69.6-90.601-119.7-169.501-120-90.3-.3-160.8 64.799-176.4 143.101-5.7 28.499-4.799 56.699 2.701 83.699l-37.301 62.4 61 43.5V420h60v92h210v-62.199c0-55.801 12.299-115.3 37.8-179.801h-172.8c-41.401.001-75-33.599-75-74.999z" fill="#ffffff" opacity="1" data-original="#000000" class=""></path><path d="M269.501 180.001h121.5c0-10.201-.901-20.099-2.701-30H255.7a76.324 76.324 0 0 1 13.801 30zM446.671 115.631a44.728 44.728 0 0 0 19.329 4.37c24.814 0 46-20.186 46-45s-21.186-45-46-45-45 20.186-45 45c0 6.916 1.571 13.47 4.37 19.329l-25.67 25.671h-19.198c3.6 9.6 6.299 19.501 7.799 30h24.001z" fill="#ffffff" opacity="1" data-original="#000000" class=""></path><path d="M423.58 210.001c6.192 17.459 22.864 30 42.42 30 24.814 0 46-20.186 46-45s-21.186-45-46-45c-19.556 0-36.229 12.541-42.42 30H391c0 10.201-.901 20.099-2.701 30zM368.801 270.001H399.7l25.671 25.671a44.728 44.728 0 0 0-4.37 19.329c0 24.814 20.186 45 45 45s46-20.186 46-45-21.186-45-46-45a44.725 44.725 0 0 0-19.329 4.37l-34.37-34.37h-31.8c-2.215 8.109-5.632 13.315-11.701 30z" fill="#ffffff" opacity="1" data-original="#000000" class=""></path></g></svg>