<svg xmlns="http://www.w3.org/2000/svg" version="1.1" xmlns:xlink="http://www.w3.org/1999/xlink" width="512" height="512" x="0" y="0" viewBox="0 0 510.416 510.416" style="enable-background:new 0 0 512 512" xml:space="preserve" class=""><g><path d="M272.344 238.804c0-9.447-7.687-17.134-17.134-17.134-22.699.862-22.693 33.409 0 34.267 9.447 0 17.134-7.685 17.134-17.133z" fill="#089768" opacity="1" data-original="#000000"></path><path d="M402.365 176.957c-53.939-129.467-240.409-129.409-294.311 0C-46.52 203.791-30.78 426.238 126.679 430.538h49.265V373.55l-28.289-28.289c-30.504 15.77-68.572-7.693-68.111-42.191 0-25.989 21.144-47.133 47.133-47.133 34.494-.458 57.964 37.607 42.19 68.111l32.683 32.683a14.998 14.998 0 0 1 4.394 10.606v63.2h34.267V283.476c-49.884-17.604-38.543-90.754 15.001-91.805 53.552 1.056 64.876 74.211 14.999 91.805v147.062h34.267v-63.2c0-3.979 1.58-7.794 4.394-10.606l32.683-32.683c-15.77-30.504 7.693-68.572 42.191-68.111 25.989 0 47.133 21.144 47.133 47.133.458 34.494-37.607 57.964-68.111 42.19l-28.289 28.289v56.987h49.267c157.492-4.304 173.149-226.779 18.619-253.58z" fill="#089768" opacity="1" data-original="#000000"></path><path d="M400.877 303.071c0-9.447-7.687-17.134-17.134-17.134-22.697.861-22.692 33.409 0 34.267 9.447 0 17.134-7.686 17.134-17.133zM109.543 303.071c0 9.447 7.687 17.133 17.134 17.133 22.698-.861 22.691-33.409 0-34.267-9.448 0-17.134 7.687-17.134 17.134z" fill="#089768" opacity="1" data-original="#000000"></path></g></svg>