<svg xmlns="http://www.w3.org/2000/svg" version="1.1" xmlns:xlink="http://www.w3.org/1999/xlink" width="512" height="512" x="0" y="0" viewBox="0 0 512 512" style="enable-background:new 0 0 512 512" xml:space="preserve" class=""><g><path d="M45 0C20.187 0 0 20.187 0 45v77h247.661l60-122zm31 76c-8.284 0-15-6.716-15-15s6.716-15 15-15 15 6.716 15 15-6.716 15-15 15zm60 0c-8.284 0-15-6.716-15-15s6.716-15 15-15 15 6.716 15 15-6.716 15-15 15zm60 0c-8.284 0-15-6.716-15-15s6.716-15 15-15 15 6.716 15 15-6.716 15-15 15z" fill="#ffffff" opacity="1" data-original="#000000" class=""></path><path d="M467 0H341.093L270.46 143.62A14.999 14.999 0 0 1 257 152H0v315c0 24.813 20.187 45 45 45h422c24.813 0 45-20.187 45-45V45c0-24.813-20.187-45-45-45zM227 415c0 8.284-6.716 15-15 15H72c-8.284 0-15-6.716-15-15v-10c0-31.763 17.524-59.495 43.4-74.083C92.062 321.273 87 308.72 87 295c0-30.327 24.673-55 55-55s55 24.673 55 55c0 13.72-5.062 26.273-13.4 35.917C209.476 345.505 227 373.237 227 405zm213 15H300c-8.284 0-15-6.716-15-15V235c0-8.284 6.716-15 15-15s15 6.716 15 15v83.787l24.394-24.394a15.03 15.03 0 0 1 11.67-4.356 15.008 15.008 0 0 1 10.937 5.962l19.623 26.164 37.771-37.771c5.857-5.858 15.355-5.858 21.213 0s5.858 15.355 0 21.213l-50 50a15.006 15.006 0 0 1-11.67 4.356 15.008 15.008 0 0 1-10.937-5.962l-19.623-26.164L315 361.213V400h125c8.284 0 15 6.716 15 15s-6.716 15-15 15z" fill="#ffffff" opacity="1" data-original="#000000" class=""></path><circle cx="142" cy="295" r="25" fill="#ffffff" opacity="1" data-original="#000000" class=""></circle><path d="M142 350c-28.643 0-52.241 22.006-54.774 50h109.549c-2.534-27.994-26.132-50-54.775-50z" fill="#ffffff" opacity="1" data-original="#000000" class=""></path></g></svg>