<svg xmlns="http://www.w3.org/2000/svg" version="1.1" xmlns:xlink="http://www.w3.org/1999/xlink" width="512" height="512" x="0" y="0" viewBox="0 0 512 512" style="enable-background:new 0 0 512 512" xml:space="preserve" class=""><g><path d="M211.159 227.055c17.733 13.513 35.553 23.698 44.836 28.686 9.367-5.038 27.421-15.362 45.207-28.961 21.743-16.625 47.661-41.591 47.661-66.12V35.354c-14.095-1.194-25.964-4.175-36.01-9.019-12.304-5.933-22.055-14.593-29.603-26.334h-54.738c-14.327 21.422-35.091 32.669-65.375 35.33v125.328c0 24.633 26.115 49.702 48.022 66.396zm-.648-135.905 33.57 33.57 57.408-57.407 21.213 21.213-78.621 78.62-54.783-54.783zM512 361.374H0v60.625h207.712l-9.638 43.283a40.408 40.408 0 0 1-8.083 16.717H135.5v30h241v-30h-54.491a40.408 40.408 0 0 1-8.083-16.717l-9.638-43.283H512z" fill="#ffffff" opacity="1" data-original="#000000" class=""></path><path d="M512 331.374V76.999H378.863v83.66c0 29.635-20.133 60.002-59.841 90.258C291.186 272.128 256 289.311 256 289.311s-35.186-17.184-63.023-38.394c-39.708-30.256-59.841-60.623-59.841-90.258v-83.66H0v254.375z" fill="#ffffff" opacity="1" data-original="#000000" class=""></path></g></svg>