<svg xmlns="http://www.w3.org/2000/svg" version="1.1" xmlns:xlink="http://www.w3.org/1999/xlink" width="512" height="512" x="0" y="0" viewBox="0 0 512 512" style="enable-background:new 0 0 512 512" xml:space="preserve" class=""><g><path d="M356 482h-38.511l-5.366-22H199.877l-5.366 22H156c-8.284 0-15 6.716-15 15s6.716 15 15 15h200c8.284 0 15-6.716 15-15s-6.716-15-15-15zM147.491 320H241v-80h-83.509zM241 350h-97.259l-10 80H241zM271 350v80h107.259l-10-80zM271 320h93.509l-10-80H271zM471.545 251.362A15 15 0 0 0 456.993 240h-72.251l10 80h93.963zM511.545 411.362 496.204 350h-97.713l10 80h88.501c9.759 0 16.92-9.171 14.553-18.638zM.455 411.362C-1.912 420.829 5.249 430 15.007 430h88.501l10-80H15.796zM40.455 251.362 23.296 320h93.963l10-80H55.007a15 15 0 0 0-14.552 11.362zM164.069 188.702c1.737 6.652 7.716 11.298 14.54 11.298H333.39c6.824 0 12.803-4.646 14.54-11.297A93.81 93.81 0 0 0 351 165c0-52.383-42.617-95-95-95s-95 42.617-95 95a93.84 93.84 0 0 0 3.069 23.702zM406 180c8.284 0 15-6.716 15-15 0-8.284-6.716-15-15-15h-25.903c.591 4.92.903 9.924.903 15 0 5.002-.319 10.012-.934 15zM131.903 150H106c-8.284 0-15 6.716-15 15 0 8.284 6.716 15 15 15h25.934a122.578 122.578 0 0 1-.934-15c0-5.076.312-10.08.903-15zM271 40.903V15c0-8.284-6.716-15-15-15s-15 6.716-15 15v25.903c4.92-.591 9.924-.903 15-.903s10.08.312 15 .903zM354.32 87.893l18.353-18.353c5.858-5.858 5.858-15.355 0-21.213s-15.355-5.858-21.213 0L333.107 66.68a126.079 126.079 0 0 1 21.213 21.213zM157.68 87.893a126.079 126.079 0 0 1 21.213-21.213L160.54 48.327c-5.858-5.858-15.355-5.858-21.213 0s-5.858 15.355 0 21.213z" fill="#089768" opacity="1" data-original="#000000" class=""></path></g></svg>