<svg xmlns="http://www.w3.org/2000/svg" version="1.1" xmlns:xlink="http://www.w3.org/1999/xlink" width="512" height="512" x="0" y="0" viewBox="0 0 512 512" style="enable-background:new 0 0 512 512" xml:space="preserve" class=""><g><path d="M120 345.022v63.956L167.959 377z" fill="#089768" opacity="1" data-original="#000000" class=""></path><path d="M0 242v270h270V242zm90 223.022V288.978L222.041 377zM302 182v330h210V182zm150 270h-90v-30h90zm0-60h-90v-30h90zm0-60h-90v-30h90zm0-60h-90v-30h90zM75.044 83.833 105 113.789l60-60 105 105V0H0v158.298z" fill="#089768" opacity="1" data-original="#000000" class=""></path><path d="m165 96.211-60 60-30.044-30.044L0 200.554V210h270v-8.789zM512 150H302V0h210z" fill="#089768" opacity="1" data-original="#000000" class=""></path></g></svg>