<svg xmlns="http://www.w3.org/2000/svg" version="1.1" xmlns:xlink="http://www.w3.org/1999/xlink" width="512" height="512" x="0" y="0" viewBox="0 0 512 512" style="enable-background:new 0 0 512 512" xml:space="preserve" class=""><g><path d="M160.595 212.021C135.062 186.504 121 152.622 121 116.616s14.062-69.888 39.595-95.405L139.384 0C108.183 31.187 91 72.598 91 116.616s17.183 85.43 48.384 116.616z" fill="#089768" opacity="1" data-original="#000000" class=""></path><path d="m181.791 190.84 21.211-21.211C188.808 155.435 181 136.611 181 116.616s7.808-38.818 22.002-52.998l-21.211-21.211C161.942 62.241 151 88.594 151 116.616c0 28.008 10.928 54.375 30.791 74.224zM347.802 212.021l21.211 21.211c31.187-31.187 48.369-72.598 48.384-116.616 0-44.004-17.183-85.415-48.384-116.616l-21.211 21.211c25.532 25.532 39.595 59.414 39.595 95.405-.015 36.006-14.078 69.888-39.595 95.405z" fill="#089768" opacity="1" data-original="#000000" class=""></path><path d="M326.605 190.84c19.849-19.863 30.776-46.216 30.791-74.224 0-28.022-10.942-54.375-30.791-74.209l-21.211 21.211c14.194 14.18 22.002 33.003 22.002 52.983-.015 20.01-7.822 38.833-22.002 53.027z" fill="#089768" opacity="1" data-original="#000000" class=""></path><path d="M386.157 482 271 191.733v-32.88c17.422-6.213 30-22.707 30-42.237 0-24.814-20.186-45-45-45s-45 20.186-45 45c0 19.53 12.578 36.024 30 42.237v32.88L125.843 482H91v30h330v-30zM256 341.25l-28.762-31.957L256 235.005l28.762 74.288zm41.179-.913 33.598 83.998-54.598-60.665zm-61.357 23.333-54.598 60.665 33.598-83.998zM256 386.089 342.321 482H169.679z" fill="#089768" opacity="1" data-original="#000000" class=""></path></g></svg>