<svg xmlns="http://www.w3.org/2000/svg" version="1.1" xmlns:xlink="http://www.w3.org/1999/xlink" width="512" height="512" x="0" y="0" viewBox="0 0 512 512" style="enable-background:new 0 0 512 512" xml:space="preserve" class=""><g><path fill-rule="evenodd" d="M139.171 88.109h233.66c45.118 35.762 71.395 89.732 71.395 147.566 0 103.969-84.252 188.219-188.223 188.219S67.782 339.645 67.782 235.676c0-57.834 26.268-111.805 71.389-147.567m116.832 106.032c18.56 0 33.607 15.045 33.607 33.607 0 18.559-15.048 33.604-33.607 33.604-18.565 0-33.61-15.045-33.61-33.604 0-18.562 15.045-33.607 33.61-33.607zm-60.837-47.703h121.675c23.495 18.623 37.175 46.727 37.175 76.842 0 54.141-43.871 98.016-98.013 98.016s-98.017-43.875-98.017-98.016c0-30.116 13.684-58.219 37.18-76.842zm8.506 252.671v-5.732l-60.712-99.203-52.818-14.465c-3.722-14.049-5.707-28.809-5.707-44.033 0-14.342 1.77-28.42 5.178-41.988l59.369-11.65a114.676 114.676 0 0 0-7.646 41.242c0 63.332 51.337 114.666 114.668 114.666 63.333 0 114.663-51.334 114.663-114.666a114.66 114.66 0 0 0-8.147-42.529l59.554 11.693a172.133 172.133 0 0 1 5.5 43.232c0 15.867-2.165 31.232-6.193 45.816l-46.308 12.682-60.713 99.203v3.688c-18.215 6.582-37.865 10.176-58.355 10.176-18.254-.001-35.835-2.854-52.333-8.132zm52.331 86.192c137.863 0 249.623-111.764 249.623-249.625 0-80.957-38.541-152.902-98.271-198.508-9.27-7.082-19.297-10.469-30.957-10.469H135.61c-11.664 0-21.688 3.387-30.959 10.469C44.916 82.773 6.374 154.719 6.374 235.676c0 137.861 111.761 249.625 249.629 249.625z" clip-rule="evenodd" fill="#089768" opacity="1" data-original="#000000" class=""></path></g></svg>