<svg xmlns="http://www.w3.org/2000/svg" version="1.1" xmlns:xlink="http://www.w3.org/1999/xlink" width="512" height="512" x="0" y="0" viewBox="0 0 32 32" style="enable-background:new 0 0 512 512" xml:space="preserve" class=""><g><path d="M29.975 17.035C29.705 19.892 27.159 22 24.29 22h-1.279c.359-1.512.471-3.088.487-4.618a2 2 0 0 0-1.37-1.92l-5.495-1.832a2.008 2.008 0 0 0-1.266 0l-5.496 1.832a2.001 2.001 0 0 0-1.369 1.922c.016 1.529.128 3.104.487 4.616H7.221c-2.629 0-4.974-1.933-5.202-4.551A5.002 5.002 0 0 1 5.04 12.4c-.281-2.784 2.198-4.857 4.787-4.312A7.493 7.493 0 0 1 16.5 4c3.887 0 7.074 2.959 7.453 6.745a.29.29 0 0 0 .305.262 5.5 5.5 0 0 1 5.717 6.028z" fill="#ffffff" opacity="1" data-original="#000000" class=""></path><path d="m15.842 15.053-5.495 1.832a.507.507 0 0 0-.345.484c.05 4.827 1.121 8.68 5.998 10.631 4.877-1.951 5.948-5.804 5.998-10.632a.507.507 0 0 0-.345-.484l-5.495-1.832a.495.495 0 0 0-.316.001zm3.006 4.477-2.5 4a1 1 0 0 1-1.555.177l-1.483-1.482a.999.999 0 1 1 1.414-1.414l.594.594 1.833-2.935a.998.998 0 0 1 1.378-.317c.47.291.612.909.319 1.377z" fill="#ffffff" opacity="1" data-original="#000000" class=""></path></g></svg>