<svg xmlns="http://www.w3.org/2000/svg" version="1.1" xmlns:xlink="http://www.w3.org/1999/xlink" width="512" height="512" x="0" y="0" viewBox="0 0 60 60" style="enable-background:new 0 0 512 512" xml:space="preserve" class=""><g><ellipse cx="21" cy="8" rx="19" ry="6" fill="#ffffff" opacity="1" data-original="#000000" class=""></ellipse><path d="M2 32c0 2.838 7.8 6 19 6a48.042 48.042 0 0 0 11.019-1.191A5 5 0 0 1 37 32v-6.709C33.094 27 27.281 28 21 28c-7.532 0-15.409-1.536-19-4.439z" fill="#ffffff" opacity="1" data-original="#000000" class=""></path><path d="M2 20c0 2.838 7.8 6 19 6 6.436 0 12.509-1.126 16.062-2.955A7.993 7.993 0 0 1 40 17.765v-6.2C36.409 14.464 28.532 16 21 16S5.591 14.464 2 11.561zm7.026-.38a.994.994 0 0 1 1.2-.747c.317.073.64.144.97.21a1 1 0 0 1-.2 1.98.955.955 0 0 1-.2-.019q-.525-.105-1.03-.224a1 1 0 0 1-.74-1.2zm-4.932-1.844a1 1 0 0 1 1.33-.482q.45.211.943.406a1 1 0 1 1-.734 1.86c-.368-.146-.722-.3-1.057-.454a1 1 0 0 1-.482-1.33zM39 32h2v-8a4 4 0 0 1 4-4h2a4 4 0 0 1 4 4v8h2v-8a6.006 6.006 0 0 0-6-6h-2a6.006 6.006 0 0 0-6 6zM46 41a3 3 0 0 0-1.5 5.593 1 1 0 0 1 .5.867V50h2v-2.54a1 1 0 0 1 .5-.867A3 3 0 0 0 46 41zM21 50a47.936 47.936 0 0 0 11-1.187v-9.942A50.8 50.8 0 0 1 21 40c-7.532 0-15.409-1.536-19-4.439V44c0 2.838 7.8 6 19 6z" fill="#ffffff" opacity="1" data-original="#000000" class=""></path><path d="M58 37a3 3 0 0 0-3-3H37a3 3 0 0 0-3 3v18a3 3 0 0 0 3 3h18a3 3 0 0 0 3-3zm-9 11v2a2 2 0 0 1-2 2h-2a2 2 0 0 1-2-2v-2a5 5 0 1 1 6 0z" fill="#ffffff" opacity="1" data-original="#000000" class=""></path></g></svg>