<svg xmlns="http://www.w3.org/2000/svg" version="1.1" xmlns:xlink="http://www.w3.org/1999/xlink" width="512" height="512" x="0" y="0" viewBox="0 0 24 24" style="enable-background:new 0 0 512 512" xml:space="preserve" class=""><g><path d="m10.29 7.571-6.588-4.98c.388-.21.826-.341 1.298-.341h12c.472 0 .91.13 1.298.341l-6.573 4.968a1.245 1.245 0 0 1-1.436.012zM15 9.5h4c.26 0 .51.04.75.13V5c0-.49-.14-.95-.37-1.35l-6.77 5.12c-.48.35-1.05.52-1.61.52-.57 0-1.12-.17-1.6-.51L2.62 3.65c-.23.4-.37.86-.37 1.35v8c0 1.52 1.23 2.75 2.75 2.75h5.76c-.01-.12-.01-.25-.01-.37v-2.61c0-.86.47-1.63 1.23-2.01l2-1.02c.32-.16.67-.24 1.02-.24zm6.75 3.265v2.618c0 2.657-1.66 5.07-4.131 6.004a1.748 1.748 0 0 1-1.235.001c-2.474-.935-4.134-3.348-4.134-6.005v-2.618a.75.75 0 0 1 .41-.669l2-1.015A.756.756 0 0 1 15 11h4a.76.76 0 0 1 .34.081l2 1.015a.75.75 0 0 1 .41.669zM19 14.179a.752.752 0 0 0-1.06.06l-1.24 1.389-.641-.717a.751.751 0 0 0-1.12.999l1.2 1.344a.753.753 0 0 0 1.12 0l1.8-2.015a.75.75 0 0 0-.06-1.059z" fill="#ffffff" opacity="1" data-original="#000000" class=""></path></g></svg>