<svg xmlns="http://www.w3.org/2000/svg" version="1.1" xmlns:xlink="http://www.w3.org/1999/xlink" width="512" height="512" x="0" y="0" viewBox="0 0 510 510" style="enable-background:new 0 0 512 512" xml:space="preserve" class=""><g><path d="M397.375 22.5c0-12.426-10.073-22.5-22.5-22.5s-22.5 10.074-22.5 22.5V45h22.5c12.427 0 22.5-10.074 22.5-22.5zM299.875 45h22.5V22.5c0-12.426-10.073-22.5-22.5-22.5s-22.5 10.074-22.5 22.5 10.073 22.5 22.5 22.5zM217.375 157h150v53h-150zM217.375 75h150v52h-150zM397.375 75h60v52h-60zM397.375 157h60v53h-60zM464.875 465h-141.68a60.091 60.091 0 0 1-38.116-13.672l-60.394-49.673 19.059-23.17 38.402 31.465c10.529 8.628 26.035 7.213 34.829-3.179 8.781-10.376 7.632-25.873-2.582-34.84L215.375 285H22.625v150h142.962l105.038 75h194.25c12.426 0 22.5-10.073 22.5-22.5s-10.073-22.5-22.5-22.5z" fill="#ffffff" opacity="1" data-original="#000000" class=""></path></g></svg>