<svg xmlns="http://www.w3.org/2000/svg" version="1.1" xmlns:xlink="http://www.w3.org/1999/xlink" width="512" height="512" x="0" y="0" viewBox="0 0 32 32" style="enable-background:new 0 0 512 512" xml:space="preserve" class=""><g><path d="M23 4c2.757 0 5 2.243 5 5a1 1 0 0 0 2 0c0-3.86-3.14-7-7-7a1 1 0 0 0 0 2z" fill="#ffffff" opacity="1" data-original="#000000" class=""></path><path d="M23 7c1.103 0 2 .897 2 2a1 1 0 0 0 2 0c0-2.206-1.794-4-4-4a1 1 0 0 0 0 2zM9 28c-2.757 0-5-2.243-5-5a1 1 0 0 0-2 0c0 3.86 3.14 7 7 7a1 1 0 0 0 0-2z" fill="#ffffff" opacity="1" data-original="#000000" class=""></path><path d="M9 25c-1.103 0-2-.897-2-2a1 1 0 0 0-2 0c0 2.206 1.794 4 4 4a1 1 0 0 0 0-2zM26.707 22.293a.988.988 0 0 0-1.165-.165l-.835-.835c-.05-.05-.113-.075-.17-.113a10.057 10.057 0 0 1-3.357 3.357c.038.057.063.12.113.17l.835.835a.988.988 0 0 0 .165 1.165l2.379 2.379a3.1 3.1 0 0 0 2.207.914c.833 0 1.617-.325 2.207-.914a3.125 3.125 0 0 0 0-4.414z" fill="#ffffff" opacity="1" data-original="#000000" class=""></path><path d="M25 16c0-4.962-4.038-9-9-9s-9 4.038-9 9 4.038 9 9 9 9-4.038 9-9zm-9 7c-3.86 0-7-3.14-7-7s3.14-7 7-7 7 3.14 7 7-3.14 7-7 7z" fill="#ffffff" opacity="1" data-original="#000000" class=""></path><path d="M16 10c-3.309 0-6 2.691-6 6s2.691 6 6 6 6-2.691 6-6-2.691-6-6-6zm.03 11c-.552 0-1.005-.448-1.005-1s.443-1 .995-1h.01a1 1 0 1 1 0 2zm.956-3.835a1 1 0 0 1-1.972 0l-1-5A1 1 0 0 1 15 11h2a1 1 0 0 1 .986 1.165zM4 8h6.025a9.934 9.934 0 0 1 8.922-1.556c.032-.143.053-.29.053-.444V4a2 2 0 0 0-2-2H4a2 2 0 0 0-2 2v2a2 2 0 0 0 2 2zm11-3.5a.5.5 0 1 1 1 0v1a.5.5 0 1 1-1 0zm-2 0a.5.5 0 1 1 1 0v1a.5.5 0 1 1-1 0zm-2 0a.5.5 0 1 1 1 0v1a.5.5 0 1 1-1 0zm-2 0a.5.5 0 1 1 1 0v1a.5.5 0 1 1-1 0z" fill="#ffffff" opacity="1" data-original="#000000" class=""></path></g></svg>