<svg xmlns="http://www.w3.org/2000/svg" version="1.1" xmlns:xlink="http://www.w3.org/1999/xlink" width="512" height="512" x="0" y="0" viewBox="0 0 512 512" style="enable-background:new 0 0 512 512" xml:space="preserve" class=""><g><path fill-rule="evenodd" d="M105.79 118.54h205.16c3.25 0 5.9-2.64 5.9-5.88V73.51c0-3.24-2.64-5.88-5.9-5.88h-66.96c-3.21 0-5.86-2.55-5.98-5.76-.61-15.71-13.91-28.49-29.62-28.49-15.74 0-29.01 12.78-29.62 28.49-.12 3.22-2.77 5.76-6.02 5.76h-66.96c-3.21 0-5.86 2.64-5.86 5.88v39.15c0 3.25 2.65 5.88 5.86 5.88zm284.16 137.79-63.75 36.92c.33 46.13 21.2 80.98 63.75 106.37 42.51-25.39 63.38-60.24 63.71-106.37zm-42.27 63.43a6.024 6.024 0 0 1 8.5 0l20.46 20.47 47.07-47.07c2.36-2.34 6.14-2.34 8.46 0a5.975 5.975 0 0 1 0 8.49l-51.3 51.31c-1.14 1.13-2.64 1.76-4.23 1.76s-3.13-.63-4.23-1.76l-24.73-24.71a5.975 5.975 0 0 1 0-8.49zm10.3-206.57c0-3.32-2.69-6-5.98-6h-23.15V81.23h39.18c8.79 0 15.91 7.15 15.91 15.93v148.77l-25.95 15.04V113.19zM58.8 459.42c0 3.31 2.68 6 5.98 6H352c3.3 0 5.98-2.69 5.98-6V391.2c7.69 6.77 16.35 13.04 25.95 18.79v65.46c0 8.78-7.12 15.93-15.91 15.93H48.76c-8.79 0-15.91-7.15-15.91-15.93V97.16c0-8.78 7.12-15.93 15.91-15.93h39.18v25.96H64.78c-3.29 0-5.98 2.68-5.98 6zm252.15-328.87c7.57 0 14.04-4.72 16.64-11.35h18.39v148.73l-28.76 16.66c-1.83 1.06-2.97 2.99-2.97 5.1-.41 28.13 6.31 53.09 19.93 74.21 3.46 5.34 7.4 10.47 11.8 15.39v74.13H70.8V119.19h18.39c2.6 6.64 9.07 11.35 16.6 11.35h205.16zM205.14 242.49c-3.3 0-5.98 2.68-5.98 6 0 3.31 2.68 6 5.98 6h99.63c3.3 0 5.98-2.68 5.98-6s-2.68-6-5.98-6zm0 75.63c-3.3 0-5.98 2.68-5.98 6s2.68 6 5.98 6h95.48c3.29 0 5.98-2.68 5.98-6 0-3.31-2.68-6-5.98-6zm0 75.63c-3.3 0-5.98 2.68-5.98 6s2.68 6 5.98 6h99.63c3.3 0 5.98-2.69 5.98-6s-2.68-6-5.98-6zm-52.93-89.21-26.4 26.43-9.56-9.54c-2.32-2.34-6.14-2.34-8.46 0a5.975 5.975 0 0 0 0 8.49l13.75 13.78a6.06 6.06 0 0 0 4.27 1.76c1.51 0 3.05-.59 4.23-1.76l30.67-30.67c2.32-2.34 2.32-6.14 0-8.49a6.024 6.024 0 0 0-8.5 0zm-26.4 102.06-9.56-9.54c-2.32-2.34-6.14-2.34-8.46 0a5.975 5.975 0 0 0 0 8.49l13.75 13.77a6.06 6.06 0 0 0 4.27 1.76c1.51 0 3.05-.59 4.23-1.76l30.67-30.67c2.32-2.34 2.32-6.14 0-8.49a6.024 6.024 0 0 0-8.5 0zm0-151.26-9.56-9.54c-2.32-2.34-6.14-2.34-8.46 0a5.975 5.975 0 0 0 0 8.49l13.75 13.77a6.018 6.018 0 0 0 4.27 1.76c1.51 0 3.05-.59 4.23-1.76l30.67-30.67c2.32-2.34 2.32-6.14 0-8.49a6.024 6.024 0 0 0-8.5 0zm79.33-88.48c-3.3 0-5.98 2.68-5.98 6s2.68 6 5.98 6h99.63c3.3 0 5.98-2.68 5.98-6 0-3.31-2.68-6-5.98-6zm-44.43-13.58a6.014 6.014 0 0 0-8.5 0l-26.4 26.42-9.56-9.54c-2.32-2.34-6.14-2.34-8.46 0a5.975 5.975 0 0 0 0 8.49l13.75 13.78a6.05 6.05 0 0 0 4.27 1.75c1.51 0 3.05-.59 4.23-1.75l30.67-30.67c2.32-2.34 2.32-6.13 0-8.48z" clip-rule="evenodd" fill="#ffffff" opacity="1" data-original="#000000" class=""></path></g></svg>