<svg xmlns="http://www.w3.org/2000/svg" version="1.1" xmlns:xlink="http://www.w3.org/1999/xlink" width="512" height="512" x="0" y="0" viewBox="0 0 24 24" style="enable-background:new 0 0 512 512" xml:space="preserve" class=""><g><path d="m23.491 11.826-5.25-1.786a.737.737 0 0 0-.482 0l-5.25 1.786a.748.748 0 0 0-.509.71v4.018c0 4.904 5.474 7.288 5.707 7.387a.763.763 0 0 0 .586-.001c.233-.099 5.707-2.482 5.707-7.386v-4.018a.748.748 0 0 0-.509-.71zm-2.205 3.792-2.75 3.5a1 1 0 0 1-1.437.142l-1.75-1.5a1 1 0 1 1 1.301-1.518l.958.821 2.105-2.679a.998.998 0 0 1 1.404-.168.996.996 0 0 1 .169 1.402zM19 0H3a3 3 0 1 0 0 6h16a3 3 0 1 0 0-6zM3 4a1 1 0 1 1 0-2 1 1 0 0 1 0 2zm4 0a1 1 0 1 1 0-2 1 1 0 0 1 0 2z" fill="#ffffff" opacity="1" data-original="#000000" class=""></path><path d="M3 8c-1.66 0-3 1.34-3 3s1.34 3 3 3h7v-1.46c0-1.18.75-2.23 1.87-2.61l5.24-1.78c.29-.1.59-.15.89-.15zm0 4c-.55 0-1-.45-1-1s.45-1 1-1 1 .45 1 1-.45 1-1 1zm4 0c-.55 0-1-.45-1-1s.45-1 1-1 1 .45 1 1-.45 1-1 1zM10 16.55V16H3c-1.66 0-3 1.34-3 3s1.34 3 3 3h8.97C10.82 20.54 10 18.71 10 16.55zM3 20c-.55 0-1-.45-1-1s.45-1 1-1 1 .45 1 1-.45 1-1 1zm4 0c-.55 0-1-.45-1-1s.45-1 1-1 1 .45 1 1-.45 1-1 1z" fill="#ffffff" opacity="1" data-original="#000000" class=""></path></g></svg>