<svg xmlns="http://www.w3.org/2000/svg" version="1.1" xmlns:xlink="http://www.w3.org/1999/xlink" width="512" height="512" x="0" y="0" viewBox="0 0 512 512" style="enable-background:new 0 0 512 512" xml:space="preserve" class=""><g><path d="M320.509 82.4a24 24 0 0 0 1.085 30.818l24.886 27.653a72.337 72.337 0 0 0 60.037 23.538l48.1-4.372c.24-.022.482-.033.724-.033h32V96h-32a8 8 0 0 1-3.749-.933L332.681 32h-140a39.378 39.378 0 0 0 38.666 32H319.3a8.012 8.012 0 0 1 4.449 1.323l.01.006.015.011 48 32a8 8 0 1 1-8.875 13.312ZM179.319 480h140a39.378 39.378 0 0 0-38.666-32H192.7a7.95 7.95 0 0 1-4.449-1.323l-.01-.006-.015-.011-48-32a8 8 0 1 1 8.875-13.312l42.391 28.26a24 24 0 0 0-1.085-30.818l-24.887-27.657a72.339 72.339 0 0 0-60.037-23.533l-48.1 4.372c-.24.022-.482.033-.724.033h-32v64h32a8 8 0 0 1 3.749.933ZM232 344h48v-56a8 8 0 0 1 8-8h56v-48h-56a8 8 0 0 1-8-8v-56h-48v56a8 8 0 0 1-8 8h-56v48h56a8 8 0 0 1 8 8Z" fill="#089768" opacity="1" data-original="#000000"></path><path d="M112.447 306A151.266 151.266 0 0 1 104 256c0-83.813 68.187-152 152-152a153.459 153.459 0 0 1 16.882.932l-1.764 15.9A137.73 137.73 0 0 0 256 120c-74.991 0-136 61.009-136 136a135.311 135.311 0 0 0 7.552 44.721ZM256 408a153.472 153.472 0 0 1-16.882-.932l1.764-15.9A137.73 137.73 0 0 0 256 392c74.991 0 136-61.009 136-136a135.316 135.316 0 0 0-7.552-44.721L399.553 206A151.266 151.266 0 0 1 408 256c0 83.813-68.187 152-152 152Z" fill="#089768" opacity="1" data-original="#000000"></path><path d="m347.832 424.655-7.664-14.046a176.3 176.3 0 0 0 85.784-200.527 8 8 0 0 1 11.97-8.862l38.324 24-8.492 13.56-22.275-13.949a192.293 192.293 0 0 1-97.647 199.824ZM76.359 304a7.985 7.985 0 0 1-3.806-.964l-44.36-24 7.614-14.072L65.629 281.1A194.1 194.1 0 0 1 64 256 192.012 192.012 0 0 1 172.518 83.053l6.964 14.4A176.313 176.313 0 0 0 84.17 294.269 8 8 0 0 1 76.359 304Z" fill="#089768" opacity="1" data-original="#000000"></path></g></svg>