<svg xmlns="http://www.w3.org/2000/svg" version="1.1" xmlns:xlink="http://www.w3.org/1999/xlink" width="512" height="512" x="0" y="0" viewBox="0 0 64 64" style="enable-background:new 0 0 512 512" xml:space="preserve" class=""><g><path d="M54 3H40c-.552 0-1 .449-1 1v4h-2c-1.103 0-2 .897-2 2s.897 2 2 2h2v5h4c0-2.206 1.794-4 4-4s4 1.794 4 4h3c.552 0 1-.449 1-1V4c0-.551-.448-1-1-1zM27 61a5.01 5.01 0 0 0 4.899-4h-9.798A5.01 5.01 0 0 0 27 61zM19 21c2.206 0 4 1.794 4 4h4v-3c-2.206 0-4-1.794-4-4s1.794-4 4-4V9h-.681C17.213 9 9.726 16.064 9.05 25H15c0-2.206 1.794-4 4-4z" fill="#ffffff" opacity="1" data-original="#000000" class=""></path><path d="M20 47h7v-8c-2.206 0-4-1.794-4-4s1.794-4 4-4v-4h-6v-2c0-1.103-.897-2-2-2s-2 .897-2 2v2H9.014a17.248 17.248 0 0 0 6.338 12.723L20 43.526z" fill="#ffffff" opacity="1" data-original="#000000" class=""></path><path d="M39 25c0-1.103-.897-2-2-2s-2 .897-2 2v2h-6v6h-2c-1.103 0-2 .897-2 2s.897 2 2 2h2v10h5v-3.474l4.648-3.803A17.251 17.251 0 0 0 44.986 27H39zM33 53H21a1.001 1.001 0 0 0 0 2h12a1.001 1.001 0 0 0 0-2zM35 49H19a1.001 1.001 0 0 0 0 2h16a1.001 1.001 0 0 0 0-2z" fill="#ffffff" opacity="1" data-original="#000000" class=""></path></g></svg>