<svg xmlns="http://www.w3.org/2000/svg" version="1.1" xmlns:xlink="http://www.w3.org/1999/xlink" width="512" height="512" x="0" y="0" viewBox="0 0 66 66" style="enable-background:new 0 0 512 512" xml:space="preserve"><g><path d="M30.6 42.4V31.7c0-.5-.4-.9-.9-.9h-2.6c-2.3 0-4.4-1.2-5.5-3.2-.2-.3-.4-1.1-1.1-1.1H11c-.4 0-.7.2-.9.6-1 2.3-3.2 3.8-5.8 3.8H2c-.5 0-.9.4-.9.9v10.7C1 57 12.9 63.2 15.4 64.3c.1.1.3.1.4.1.2 0 .3 0 .5-.1 2.4-1.3 14.3-8 14.3-21.9zm-15 6.3c-.2.2-.4.3-.7.3s-.5-.1-.7-.3l-4.6-4.5c-.4-.4-.4-1 0-1.4s1-.4 1.4 0l3.9 3.9 8-7.9c.4-.4 1-.4 1.4 0s.4 1 0 1.4zM62.3 1.6H17.9c-1.5 0-2.7 1.2-2.7 2.7v8.1c0 1.5 1.2 2.7 2.7 2.7h44.4c1.5 0 2.7-1.2 2.7-2.7V4.3c0-1.5-1.2-2.7-2.7-2.7zm-38.4 8.5c0 .6-.5 1-1 1-.6 0-1-.4-1-1V6.6c0-.5.4-1 1-1 .5 0 1 .5 1 1zm34.9-.7H33.6c-.5 0-1-.4-1-1s.5-1 1-1h25.2c.6 0 1 .4 1 1 0 .5-.4 1-1 1zM62.3 32.6H32.6v9.8c0 1.3-.1 2.5-.3 3.7h30c1.5 0 2.7-1.2 2.7-2.7v-8.1c0-1.5-1.2-2.7-2.7-2.7zm-3.5 7.8H37.6c-.5 0-1-.5-1-1s.5-1 1-1h21.2c.6 0 1 .5 1 1s-.4 1-1 1zM62.3 48.1H32c-1.4 6.1-5 10.5-8.4 13.5h38.7c1.5 0 2.7-1.2 2.7-2.7v-8.2c0-1.4-1.2-2.6-2.7-2.6zm-3.5 7.8H33.6c-.5 0-1-.5-1-1s.5-1 1-1h25.2c.6 0 1 .5 1 1s-.4 1-1 1z" fill="#ffffff" opacity="1" data-original="#000000"></path><path d="M62.3 17.1H17.9c-1.5 0-2.7 1.2-2.7 2.7v4.7h5.3c2.1 0 2.7 1.9 2.9 2.1.8 1.4 2.2 2.2 3.8 2.2h2.6c1.2 0 2.3.8 2.7 1.8h29.9c1.5 0 2.7-1.2 2.7-2.7v-8.1c-.1-1.5-1.3-2.7-2.8-2.7zm-3.5 7.8H33.6c-.5 0-1-.4-1-1 0-.5.5-1 1-1h25.2c.6 0 1 .5 1 1s-.4 1-1 1z" fill="#ffffff" opacity="1" data-original="#000000"></path></g></svg>