<svg xmlns="http://www.w3.org/2000/svg" version="1.1" xmlns:xlink="http://www.w3.org/1999/xlink" width="512" height="512" x="0" y="0" viewBox="0 0 1707 1707" style="enable-background:new 0 0 512 512" xml:space="preserve" fill-rule="evenodd"><g><path d="M1204 1195c-28 0-56-3-84-11-84-22-153-75-197-149-89-154-36-352 119-442 153-90 352-37 442 118 89 154 36 352-119 442-50 28-105 42-161 42zm0-94c-20 0-40-3-60-8-58-16-107-55-137-108-31-52-39-116-23-175 16-58 53-106 105-134 111-63 247-27 311 82 31 52 39 113 24 173-16 59-53 108-105 139h-1c-36 20-75 31-114 31zM1611 1673c-8 0-16-1-24-3-25-7-45-23-57-45l-197-333v-2c-6-12-7-26-2-40 4-13 13-25 25-31l72-43h2c24-12 52-5 69 17 0 0 1 1 1 2l194 336c26 44 10 102-35 129-15 9-32 13-48 13z" fill="#ffffff" opacity="1" data-original="#000000"></path><path d="M1443 1220c-5 0-37 13-57 18 1 8-3 17-11 22-3 2-7 3-12 3-8 0-15-4-20-11l-53-87c-7-11-3-25 8-32 8-5 18-4 26 1 13-17 46-43 54-48 11-6 26-3 32 9l54 90c6 11 3 25-9 32-4 2-8 3-12 3zM547 856c-4 0-8-1-11-2-4-2-102-53-187-157-78-96-159-259-98-483 2-10 10-17 20-17C416 184 527 44 528 42c5-5 12-9 19-9s14 4 18 9c1 2 113 142 257 155 10 0 18 7 21 17 61 224-20 387-99 483-85 104-183 155-187 157-3 1-7 2-10 2zm66-236H480c-13 0-23-11-23-24v-60h-60c-13 0-24-10-24-23V376c0-13 11-23 24-23h60v-60c0-13 10-23 23-23h133c13 0 24 10 24 23v60h60c13 0 23 10 23 23v137c0 13-10 23-23 23h-60v60c0 13-11 24-24 24zm-110-47h87v-60c0-13 10-23 23-23h60v-90h-60c-13 0-23-11-23-24v-60h-87v60c0 13-10 24-23 24h-60v90h60c13 0 23 10 23 23z" fill="#ffffff" opacity="1" data-original="#000000"></path><path d="M1517 1586H103c-13 0-23-10-23-23V240c0-13 10-24 23-24s24 11 24 24v1300h1390c13 0 23 10 23 23s-10 23-23 23zM1357 636c-6 0-12-2-17-7-9-9-9-24 0-33l125-121c-7-14-8-31-8-39 0-44 34-80 76-80 45 0 80 35 80 80s-35 80-80 80c-11 0-23-3-34-9l-126 123c-5 4-10 6-16 6z" fill="#ffffff" opacity="1" data-original="#000000"></path><path d="M1160 890c-28 0-52-14-66-36l-131 38c-12 3-25-4-29-16-3-13 4-26 16-29l130-37c2-44 36-77 80-77 12 0 25 4 37 10l110-113c9-9 24-10 33-1s10 24 1 33l-110 113c6 11 9 24 9 38 0 42-36 77-80 77zM103 1586c-4 0-8-1-11-3-11-6-15-21-9-32l204-350c-15-15-24-35-24-55 0-42 36-77 80-77s80 35 80 77c0 7-1 14-3 20l191 110c11-11 24-19 39-22v-238c-31-9-53-38-53-73 0-46 33-80 76-80 29 0 55 14 70 36l154-42c13-3 26 4 29 16 3 13-4 26-16 29l-157 42c0 36-23 64-56 73v245c27 12 46 39 46 71 0 44-34 80-76 80-45 0-80-35-80-80 0-6 0-11 1-16l-192-110c-13 12-32 19-53 19-5 0-11-1-16-2l-203 351c-5 7-13 11-21 11zM23 343c-6 0-12-2-16-7-9-9-9-24 0-33l80-80c9-9 24-9 33 0s9 24 0 33l-80 80c-5 5-11 7-17 7z" fill="#ffffff" opacity="1" data-original="#000000"></path><path d="M183 343c-6 0-12-2-16-7l-80-80c-9-9-9-24 0-33s24-9 33 0l80 80c9 9 9 24 0 33-5 5-11 7-17 7z" fill="#ffffff" opacity="1" data-original="#000000"></path></g></svg>