<svg xmlns="http://www.w3.org/2000/svg" version="1.1" xmlns:xlink="http://www.w3.org/1999/xlink" width="512" height="512" x="0" y="0" viewBox="0 0 512 512" style="enable-background:new 0 0 512 512" xml:space="preserve" class=""><g><path d="M512 328.86c0 38.11-31.01 69.12-69.12 69.12-37.35 0-67.85-29.78-69.07-66.83l-33.54-6.3c-6.23 19.39-17.26 36.66-31.69 50.39l23.24 31.49c5.7-2.08 11.85-3.22 18.26-3.22 29.38 0 53.27 23.89 53.27 53.27 0 29.37-23.89 53.27-53.27 53.27-29.37 0-53.27-23.9-53.27-53.27 0-12.1 4.06-23.26 10.88-32.21l-23.23-31.5c-17.41 9.78-37.47 15.37-58.81 15.37-36.38 0-69.03-16.22-91.13-41.8l-30.37 20.2c1.55 5 2.39 10.31 2.39 15.81 0 29.38-23.89 53.27-53.27 53.27C23.9 455.92 0 432.03 0 402.65c0-29.37 23.9-53.27 53.27-53.27 13.03 0 24.97 4.71 34.23 12.5l30.38-20.2c-8.07-16.16-12.62-34.37-12.62-53.62 0-33.89 14.08-64.54 36.69-86.44l-44.31-58.97a68.66 68.66 0 0 1-28.52 6.19C31.01 148.84 0 117.83 0 79.71 0 41.6 31.01 10.59 69.12 10.59c38.12 0 69.13 31.01 69.13 69.12 0 17.13-6.28 32.81-16.64 44.9l44.3 58.96c17.61-10.11 38.01-15.9 59.74-15.9 5.48 0 10.88.38 16.17 1.09l13.06-49.15c-15.36-9.36-25.65-26.27-25.65-45.54 0-29.37 23.9-53.27 53.27-53.27 29.38 0 53.27 23.9 53.27 53.27 0 28.92-23.15 52.51-51.89 53.24l-13.07 49.16c9.83 3.99 19.02 9.25 27.36 15.57l80.87-83.1c-7.15-10.88-11.33-23.89-11.33-37.87 0-38.11 31-69.12 69.12-69.12 38.11 0 69.12 31.01 69.12 69.12 0 38.12-31.01 69.13-69.12 69.13-13.31 0-25.74-3.79-36.29-10.33l-80.87 83.09c16.48 20.61 26.36 46.72 26.36 75.1 0 2.45-.08 4.88-.23 7.3l33.53 6.3c10.59-24.63 35.08-41.93 63.55-41.93 38.11 0 69.12 31.01 69.12 69.13z" fill="#ffffff" opacity="1" data-original="#000000" class=""></path></g></svg>