<svg xmlns="http://www.w3.org/2000/svg" version="1.1" xmlns:xlink="http://www.w3.org/1999/xlink" width="512" height="512" x="0" y="0" viewBox="0 0 32 32" style="enable-background:new 0 0 512 512" xml:space="preserve" class=""><g><path d="M18 24.77a8.921 8.921 0 0 0 2-.717V21h-2zM15 24.941c.329.037.662.059 1 .059s.671-.022 1-.059V14h-2z" fill="#ffffff" opacity="1" data-original="#000000" class=""></path><path d="M16 7a9 9 0 0 0-5 16.482V17.5a.5.5 0 0 1 .5-.5H14v-3.5a.5.5 0 0 1 .5-.5h3a.5.5 0 0 1 .5.5V20h2.5a.5.5 0 0 1 .5.5v2.982A9 9 0 0 0 16 7zm5 7c1.103 0 2 .897 2 2 0 .93-.64 1.705-1.5 1.929v.571a.5.5 0 1 1-1 0v-.571c-.86-.224-1.5-1-1.5-1.929a.5.5 0 1 1 1 0c0 .551.449 1 1 1s1-.449 1-1-.449-1-1-1c-1.103 0-2-.897-2-2 0-.93.64-1.705 1.5-1.929V10.5a.5.5 0 1 1 1 0v.571c.86.224 1.5 1 1.5 1.929a.5.5 0 1 1-1 0c0-.551-.449-1-1-1s-1 .449-1 1 .449 1 1 1z" fill="#ffffff" opacity="1" data-original="#000000" class=""></path><path d="M12 24.053c.63.314 1.298.557 2 .716V18h-2z" fill="#ffffff" opacity="1" data-original="#000000" class=""></path><path d="M29 13h-1.387a11.828 11.828 0 0 0-1.277-3.093l.977-.978a1 1 0 0 0 0-1.414l-2.829-2.829c-.376-.375-1.04-.374-1.414 0l-.978.979c-.965-.571-2-.999-3.092-1.278V3a1 1 0 0 0-1-1h-4a1 1 0 0 0-1 1v1.387a11.86 11.86 0 0 0-3.093 1.278l-.978-.978a1 1 0 0 0-1.414 0L4.686 7.515a1 1 0 0 0 0 1.414l.979.979c-.571.966-.999 2-1.278 3.092H3a1 1 0 0 0-1 1v4a1 1 0 0 0 1 1h1.387a11.86 11.86 0 0 0 1.278 3.093l-.978.978a1 1 0 0 0 0 1.414l2.828 2.829a1 1 0 0 0 1.414 0l.979-.979c.966.571 2 .999 3.092 1.278V29a1 1 0 0 0 1 1h4a1 1 0 0 0 1-1v-1.387a11.849 11.849 0 0 0 3.093-1.278l.978.979a1 1 0 0 0 1.414 0l2.83-2.83a1 1 0 0 0 0-1.413l-.98-.979c.571-.965.999-2 1.278-3.092H29a1 1 0 0 0 1-1v-4a1 1 0 0 0-1-1zM16 26c-5.514 0-10-4.486-10-10S10.486 6 16 6s10 4.486 10 10-4.486 10-10 10z" fill="#ffffff" opacity="1" data-original="#000000" class=""></path></g></svg>