<svg xmlns="http://www.w3.org/2000/svg" version="1.1" xmlns:xlink="http://www.w3.org/1999/xlink" width="512" height="512" x="0" y="0" viewBox="0 0 100 100" style="enable-background:new 0 0 512 512" xml:space="preserve" class=""><g><g fill="#000"><path fill-rule="evenodd" d="m50 6-20 8v11.72a30 30 0 0 0 13.65 25.153L50 55l6.35-4.127A30 30 0 0 0 70 25.719V14zm13.414 17.414a2 2 0 1 0-2.828-2.828L48 33.172l-4.586-4.586a2 2 0 1 0-2.828 2.828L48 38.828z" clip-rule="evenodd" fill="#ffffff" opacity="1" data-original="#000000"></path><path d="M59 70.966c0-3.7 1.177-7.282 3.326-10.24a17.121 17.121 0 0 1 1.64-1.917l11.594-11.68a3.78 3.78 0 0 1 1.186-.81c.257-.105.522-.185.79-.242a3.79 3.79 0 0 1 3.404 6.394l-7.9 7.958a1 1 0 1 0 1.42 1.409l7.9-7.959a5.792 5.792 0 0 0 .51-7.57V29.564a4.565 4.565 0 1 1 9.13 0v28.819c0 5.994-2.34 11.751-6.523 16.046l-1.702 1.748a9.938 9.938 0 0 0-5.91-1.147L59 77.187zM78.092 77.018A7.998 7.998 0 0 1 87 84.966V86a8 8 0 0 1-8 8H59.399a7.399 7.399 0 0 1-.84-14.75zM19 94a8 8 0 0 1-8-8v-1.034a7.998 7.998 0 0 1 8.908-7.948l19.533 2.232a7.399 7.399 0 0 1-.84 14.75zM39 70.966c0-3.7-1.177-7.282-3.326-10.24a17.121 17.121 0 0 0-1.64-1.917L22.44 47.129a3.78 3.78 0 0 0-1.186-.81 4.623 4.623 0 0 0-.79-.242 3.79 3.79 0 0 0-3.404 6.394l7.9 7.958a1 1 0 1 1-1.42 1.409l-7.9-7.959a5.792 5.792 0 0 1-.51-7.57V29.564a4.565 4.565 0 1 0-9.13 0v28.819c0 5.994 2.34 11.751 6.523 16.046l1.702 1.748a9.938 9.938 0 0 1 5.91-1.147L39 77.187z" fill="#ffffff" opacity="1" data-original="#000000"></path></g></g></svg>