<svg xmlns="http://www.w3.org/2000/svg" version="1.1" xmlns:xlink="http://www.w3.org/1999/xlink" width="512" height="512" x="0" y="0" viewBox="0 0 512.157 512.157" style="enable-background:new 0 0 512 512" xml:space="preserve" class=""><g><path d="M184.139 430.273c32.167 0 58.335-26.169 58.335-58.335a57.967 57.967 0 0 0-9.297-31.538c-9.072 14.555-25.217 24.267-43.595 24.267-21.752 0-40.374-13.603-47.841-32.744-9.872 10.453-15.938 24.536-15.938 40.015 0 32.166 26.17 58.335 58.336 58.335zM210.924 203.816v-42.55h30v50.167a170.242 170.242 0 0 1 42.684 22.348v-127.91c0-4.871-1.671-9.35-4.448-12.929 16.181-8.002 27.315-24.669 27.315-43.941 0-27.06-21.94-49-49-49s-49 21.94-49 49c0 17.261 8.935 32.427 22.424 41.156-36.476 13.004-62.658 47.884-62.658 88.769v23.525c5.257-.484 10.558-.73 15.897-.73a171.15 171.15 0 0 1 26.786 2.095zM468.238 433h-58.893l-21.911-110.419a57.567 57.567 0 0 0-40.784-44.185l-25.25-7.149a169.42 169.42 0 0 1 19.569 34.424c8.884 21.005 13.389 43.3 13.389 66.267s-4.505 45.262-13.389 66.267a169.975 169.975 0 0 1-12.986 24.796h45.995a39.558 39.558 0 0 0-1.158 9.5c0 21.815 17.685 39.5 39.5 39.5s39.5-17.685 39.5-39.5c0-3.276-.406-6.456-1.158-9.5h17.575V433zM189.583 334.667c11.768 0 21.341-9.574 21.341-21.341v-79.043a140.826 140.826 0 0 0-26.787-2.562c-5.376 0-10.68.305-15.897.894v80.711c.001 11.767 9.575 21.341 21.343 21.341z" fill="#089768" opacity="1" data-original="#000000"></path><path d="M240.924 243.705v60.624c19.278 16.216 31.551 40.504 31.551 67.608 0 48.708-39.627 88.335-88.335 88.335s-88.336-39.627-88.336-88.335c0-31.909 17.012-59.91 42.438-75.435v-57.088c-54.899 19.01-94.322 71.157-94.322 132.523 0 77.442 62.778 140.22 140.22 140.22s140.22-62.778 140.22-140.22c-.001-57.227-34.288-106.437-83.436-128.232z" fill="#089768" opacity="1" data-original="#000000"></path></g></svg>