<svg xmlns="http://www.w3.org/2000/svg" version="1.1" xmlns:xlink="http://www.w3.org/1999/xlink" width="512" height="512" x="0" y="0" viewBox="0 0 510 510" style="enable-background:new 0 0 512 512" xml:space="preserve" class=""><g><path d="M75 405c28.948 0 52.5-23.551 52.5-52.5 0-23.736-15.84-43.834-37.5-50.305V270h150v32.195c-21.661 6.471-37.5 26.568-37.5 50.305 0 28.949 23.552 52.5 52.5 52.5s52.5-23.551 52.5-52.5c0-23.736-15.84-43.834-37.5-50.305V270h150v32.195c-21.661 6.471-37.5 26.568-37.5 50.305 0 28.949 23.552 52.5 52.5 52.5s52.5-23.551 52.5-52.5c0-23.736-15.84-43.834-37.5-50.305V240h-90v-30.002l60-.002V165c0-19.684-7.633-37.61-20.081-51.004-31.341 28.019-78.52 28-109.838 0C277.633 127.39 270 145.316 270 165v45l60-.002V240H180v-30.002l60-.002V165c0-19.684-7.633-37.61-20.081-51.004-31.341 28.019-78.52 28-109.838 0C97.633 127.39 90 145.316 90 165v45l60-.002V240H60v62.195c-21.661 6.471-37.5 26.568-37.5 50.305 0 28.949 23.552 52.5 52.5 52.5zM20.081 413.996C7.633 427.39 0 445.316 0 465v45l150-.004V465c0-19.684-7.633-37.61-20.081-51.004-31.341 28.02-78.52 28-109.838 0zM200.081 413.996C187.633 427.39 180 445.316 180 465v45l150-.004V465c0-19.684-7.633-37.61-20.081-51.004-31.341 28.02-78.52 28-109.838 0zM489.919 413.996c-31.341 28.02-78.52 28-109.838 0C367.633 427.39 360 445.316 360 465v45l150-.004V465c0-19.684-7.633-37.61-20.081-51.004z" fill="#ffffff" opacity="1" data-original="#000000" class=""></path><circle cx="165" cy="52.5" r="52.5" fill="#ffffff" opacity="1" data-original="#000000" class=""></circle><circle cx="345" cy="52.5" r="52.5" fill="#ffffff" opacity="1" data-original="#000000" class=""></circle></g></svg>