<svg xmlns="http://www.w3.org/2000/svg" version="1.1" xmlns:xlink="http://www.w3.org/1999/xlink" width="512" height="512" x="0" y="0" viewBox="0 0 64 64" style="enable-background:new 0 0 512 512" xml:space="preserve" class=""><g><path d="m45.463 23.755-13.176-7.707-13.128 7.572 12.919 8.002zM17.991 40.373l12.845 7.4V33.748l-12.845-7.965zM46.656 25.906 33.295 33.76v14.025l13.361-7.559zM10.833 41.191V22.793a4.113 4.113 0 0 1-2.154-.01v18.42a4.114 4.114 0 0 1 2.154-.012zM29.297 9.048a4.18 4.18 0 0 1-1.185-1.8L12.88 16.072a4.14 4.14 0 0 1 .948 1.95zM53.555 22.868v18.248a4.053 4.053 0 0 1 2.154.205V22.664a4.056 4.056 0 0 1-2.154.204zM12.579 48.236l15.511 8.585a4.167 4.167 0 0 1 1.142-1.83L13.72 46.404a4.166 4.166 0 0 1-1.142 1.831zM34.866 54.969a4.02 4.02 0 0 1 1.163 1.81l15.318-8.629a4.098 4.098 0 0 1-1.099-1.853zM51.207 15.974 36.018 7.238a4.06 4.06 0 0 1-1.185 1.81l15.372 8.833a4.126 4.126 0 0 1 1.002-1.907zM30.385 7.044a2.002 2.002 0 0 0 3.673-1.066 2.002 2.002 0 1 0-3.673 1.066zM33.692 56.864A1.99 1.99 0 1 0 32.065 60a2.003 2.003 0 0 0 1.627-3.135zM9.767 16.804a1.987 1.987 0 0 0 0 3.974 1.987 1.987 0 0 0 0-3.974zM9.767 43.206a1.987 1.987 0 0 0 0 3.974 1.987 1.987 0 0 0 0-3.974zM54.234 20.778a1.987 1.987 0 0 0 0-3.974 1.987 1.987 0 0 0 0 3.974zM54.234 43.206a1.988 1.988 0 0 0 0 3.974 1.988 1.988 0 0 0 0-3.974z" fill="#ffffff" opacity="1" data-original="#000000" class=""></path></g></svg>