<svg xmlns="http://www.w3.org/2000/svg" version="1.1" xmlns:xlink="http://www.w3.org/1999/xlink" width="512" height="512" x="0" y="0" viewBox="0 0 64 64" style="enable-background:new 0 0 512 512" xml:space="preserve" class=""><g><path d="M3 45.5a3.989 3.989 0 0 0 6.922 2.715l18.2 9.83a4 4 0 1 0 7.746 0l18.205-9.83A3.991 3.991 0 1 0 58 41.641V22.359a3.992 3.992 0 1 0-3.922-6.574l-18.205-9.83a4 4 0 1 0-7.746 0l-18.2 9.83A3.991 3.991 0 1 0 6 22.359v19.282A3.991 3.991 0 0 0 3 45.5zm28 9.641a3.987 3.987 0 0 0-1.922 1.144l-18.2-9.83a3.643 3.643 0 0 0-.006-1.929L20.19 39.5A13.977 13.977 0 0 0 31 45.95zm3.922 1.144A3.987 3.987 0 0 0 33 55.141V45.95a13.976 13.976 0 0 0 10.785-6.413l9.334 5.035a3.666 3.666 0 0 0 .008 1.883zM54.08 21.217A3.982 3.982 0 0 0 56 22.359v19.282a3.979 3.979 0 0 0-1.94 1.166l-9.319-5.027a13.9 13.9 0 0 0 .013-11.532zM33 8.859a3.987 3.987 0 0 0 1.922-1.144l18.205 9.83a3.652 3.652 0 0 0 0 1.913L43.8 24.489A13.977 13.977 0 0 0 33 18.05zM36 28v2h1a1 1 0 0 1 1 1v7a1 1 0 0 1-1 1H27a1 1 0 0 1-1-1v-7a1 1 0 0 1 1-1h1v-2a4 4 0 0 1 8 0zM10.873 17.545l18.2-9.83A3.987 3.987 0 0 0 31 8.859v9.191a13.977 13.977 0 0 0-10.826 6.479L10.857 19.5a3.964 3.964 0 0 0 .143-1 4.012 4.012 0 0 0-.127-.955zM8 22.359a3.983 3.983 0 0 0 1.889-1.1l9.336 5.035a13.911 13.911 0 0 0 .014 11.447l-9.33 5.032A3.985 3.985 0 0 0 8 41.641z" fill="#ffffff" opacity="1" data-original="#000000" class=""></path><path d="M34 28a2 2 0 0 0-4 0v2h4zM31 33h2v3h-2z" fill="#ffffff" opacity="1" data-original="#000000" class=""></path></g></svg>