<svg xmlns="http://www.w3.org/2000/svg" version="1.1" xmlns:xlink="http://www.w3.org/1999/xlink" width="512" height="512" x="0" y="0" viewBox="0 0 512 512" style="enable-background:new 0 0 512 512" xml:space="preserve" class=""><g><path d="M325.86 497.747a4.868 4.868 0 0 1-4.874 5.253H191.013a4.868 4.868 0 0 1-4.874-5.253c2.708-36.103 33.095-64.804 69.86-64.804 36.766 0 67.153 28.702 69.861 64.804zM78.875 393.868c20.911 0 37.863-16.952 37.863-37.863s-16.952-37.864-37.863-37.864c-20.912 0-37.864 16.952-37.864 37.864 0 20.911 16.952 37.863 37.864 37.863zm0 10c-36.765 0-67.152 28.701-69.861 64.804a4.868 4.868 0 0 0 4.874 5.253h129.973c2.86 0 5.088-2.4 4.874-5.253-2.709-36.102-33.095-64.804-69.86-64.804zm214.988-18.788c0-20.911-16.952-37.864-37.863-37.864-20.912 0-37.864 16.952-37.864 37.864 0 20.911 16.952 37.863 37.864 37.863 20.911 0 37.863-16.952 37.863-37.863zm42.131-85.225H176.007l-14.583 25.024c-1.271 2.182.448 4.575 2.629 4.575h183.894c2.181 0 3.901-2.393 2.629-4.575zm107.529-64.784H68.476V28.58C68.476 17.81 77.287 9 88.056 9h335.888c10.769 0 19.58 8.81 19.58 19.579v206.492zM128.234 92.499c0 19.424 15.747 35.17 35.17 35.17 19.424 0 35.17-15.746 35.17-35.17s-15.746-35.17-35.17-35.17c-19.423 0-35.17 15.746-35.17 35.17zm100.061 105.364c-2.516-33.534-30.741-60.194-64.89-60.194-34.15 0-62.375 26.66-64.891 60.194a4.521 4.521 0 0 0 4.527 4.879h120.728a4.52 4.52 0 0 0 4.526-4.879zm177.037-81.227h-13.446a67.802 67.802 0 0 0-10.109-24.39l9.512-9.512-18.949-18.949-9.513 9.512a67.802 67.802 0 0 0-24.39-10.109V49.742H311.64v13.446a67.789 67.789 0 0 0-24.391 10.109l-9.512-9.512-18.949 18.949 9.512 9.512a67.789 67.789 0 0 0-10.109 24.391h-13.445v26.798h13.445a67.771 67.771 0 0 0 10.109 24.391l-9.512 9.511 18.949 18.949 9.512-9.512a67.807 67.807 0 0 0 24.391 10.109v13.445h26.798v-13.445a67.789 67.789 0 0 0 24.391-10.109l9.512 9.511 18.949-18.949-9.512-9.512a67.784 67.784 0 0 0 10.109-24.39h13.446v-26.798zM88.056 283.855h335.889c10.768 0 19.579-8.81 19.579-19.579v-13.205H68.476v13.205c0 10.769 8.811 19.579 19.58 19.579zM325.039 88.422c-22.982 0-41.613 18.631-41.613 41.613s18.63 41.613 41.613 41.613 41.613-18.631 41.613-41.613-18.631-41.613-41.613-41.613zm70.223 267.583c0 20.911 16.952 37.863 37.863 37.863s37.863-16.952 37.863-37.863-16.952-37.864-37.863-37.864-37.863 16.953-37.863 37.864zm107.724 112.667c-2.708-36.103-33.096-64.804-69.861-64.804s-67.152 28.701-69.86 64.804a4.867 4.867 0 0 0 4.874 5.253h129.974a4.868 4.868 0 0 0 4.873-5.253z" fill="#ffffff" opacity="1" data-original="#000000" class=""></path></g></svg>