<svg xmlns="http://www.w3.org/2000/svg" version="1.1" xmlns:xlink="http://www.w3.org/1999/xlink" width="512" height="512" x="0" y="0" viewBox="0 0 512 512" style="enable-background:new 0 0 512 512" xml:space="preserve" class=""><g><path d="M0 457.727a15 15 0 0 0 8.293 13.418L91 512V401.273l-91-45zM121 401.273V512l81.71-40.855a15 15 0 0 0 8.29-13.418V422h90v35.727a14.996 14.996 0 0 0 8.293 13.418L391 512V401.273l-90-45V392h-90v-35.73zM112.71 273.586a14.992 14.992 0 0 0-13.417 0l-97.52 50.027L106 375.227l103.227-51.614-43.801-22.707 42.043-76.676L241 242V130.273l-90-45v101.454a15 15 0 0 0 8.293 13.418l21.32 10.664-41.828 76.293zM421 512l82.71-40.855a15 15 0 0 0 8.29-13.418V356.27l-91 45.003zM361 186.727V85.27l-90 45.003V242l33.535-17.766 42.04 76.676-43.802 22.703L406 375.227l104.227-51.614-97.516-50.031a14.992 14.992 0 0 0-13.418 0l-26.078 13.52-41.828-76.293 21.324-10.664A15.004 15.004 0 0 0 361 186.727zM249.293 1.586l-96.52 51.027L256 104.227l103.227-51.614L262.71 1.582a15.004 15.004 0 0 0-13.418.004zm0 0" fill="#ffffff" opacity="1" data-original="#000000"></path></g></svg>