<svg xmlns="http://www.w3.org/2000/svg" version="1.1" xmlns:xlink="http://www.w3.org/1999/xlink" width="512" height="512" x="0" y="0" viewBox="0 0 24 24" style="enable-background:new 0 0 512 512" xml:space="preserve" fill-rule="evenodd" class=""><g><path d="M12 1.25C6.067 1.25 1.25 6.067 1.25 12S6.067 22.75 12 22.75 22.75 17.933 22.75 12 17.933 1.25 12 1.25zm2.235 4.397a.75.75 0 0 0-1.34-.591l-5.5 7.5A.75.75 0 0 0 8 13.75h2.601l-.839 4.616a.749.749 0 0 0 1.356.559l5.5-8A.751.751 0 0 0 16 9.75h-2.585l.82-4.103z" fill="#ffffff" opacity="1" data-original="#000000" class=""></path></g></svg>