<svg xmlns="http://www.w3.org/2000/svg" version="1.1" xmlns:xlink="http://www.w3.org/1999/xlink" width="512" height="512" x="0" y="0" viewBox="0 0 512 512" style="enable-background:new 0 0 512 512" xml:space="preserve" class=""><g><path fill-rule="evenodd" d="M183.074 243.243h19.261c3.305 0 6 2.695 6 6v31.972c0 3.305-2.695 6-6 6h-19.261c-3.305 0-6-2.695-6-6v-31.972c0-3.304 2.695-6 6-6zM459.1 37.714H52.9c-20.295 0-36.9 16.605-36.9 36.901v253.858c0 20.295 16.605 36.901 36.9 36.901h127.671V424h-56.168c-17.308 0-31.468 11.314-31.468 25.142v25.143h326.129v-25.143c0-13.829-14.16-25.142-31.468-25.142h-56.168v-58.627H459.1c20.295 0 36.9-16.605 36.9-36.901V74.615c0-20.295-16.605-36.901-36.9-36.901zm6.043 265.501H46.857V73.689c0-2.815 2.303-5.118 5.117-5.118h408.05c2.815 0 5.118 2.304 5.118 5.118v229.526zM191.814 152.06a52.89 52.89 0 0 0-6.42-15.487l4.468-10.058-11.858-11.858-10.061 4.469a52.892 52.892 0 0 0-15.483-6.419l-3.952-10.267h-16.769l-3.952 10.267a52.892 52.892 0 0 0-15.483 6.419l-10.062-4.469-11.857 11.858 4.468 10.06a52.887 52.887 0 0 0-6.419 15.484l-10.266 3.951v16.769l10.265 3.951a52.88 52.88 0 0 0 6.42 15.487l-4.467 10.058 11.858 11.858 10.061-4.469a52.892 52.892 0 0 0 15.483 6.419l3.952 10.267h16.77l3.951-10.265a52.88 52.88 0 0 0 15.487-6.42l10.058 4.467 11.858-11.858-4.469-10.061a52.892 52.892 0 0 0 6.419-15.483l10.267-3.952v-16.77zm-51.691 41.582c-16.153 0-29.246-13.092-29.246-29.246 0-16.153 13.092-29.246 29.246-29.246s29.246 13.092 29.246 29.246c0 16.153-13.093 29.246-29.246 29.246zm221.262-79.714a7.97 7.97 0 0 1 0-15.938l24.876-.091c5.036 0 8.773 4.6 7.822 9.496l-4.802 24.408a7.991 7.991 0 1 1-15.687-3.063l.133-.673-42.201 38.393a7.996 7.996 0 0 1-8.812 1.693l-62.336-26.805-37.485 28.463a7.963 7.963 0 0 1-9.625-12.687l41.207-31.289a7.962 7.962 0 0 1 7.957-.973l61.875 26.574 41.246-37.525zm-45.147 97.894h19.261c3.305 0 6 2.695 6 6v63.394c0 3.305-2.695 6-6 6h-19.261c-3.305 0-6-2.695-6-6v-63.394c0-3.305 2.695-6 6-6zm66.582-62.325h19.261c3.305 0 6 2.695 6 6v125.719c0 3.305-2.695 6-6 6H382.82c-3.305 0-6-2.695-6-6V155.497c0-3.305 2.695-6 6-6zm-133.164 41.006h19.26c3.305 0 6 2.695 6 6v84.713c0 3.305-2.695 6-6 6h-19.26c-3.305 0-6-2.695-6-6v-84.713c0-3.305 2.695-6 6-6z" clip-rule="evenodd" fill="#ffffff" opacity="1" data-original="#000000" class=""></path></g></svg>