<svg xmlns="http://www.w3.org/2000/svg" version="1.1" xmlns:xlink="http://www.w3.org/1999/xlink" width="512" height="512" x="0" y="0" viewBox="0 0 512 512" style="enable-background:new 0 0 512 512" xml:space="preserve" class=""><g><path fill-rule="evenodd" d="M173.324 81.817h1.602a7.967 7.967 0 0 0 11.934 6.815l11.687-6.748 166.67-.067V129.3c0 11.125 9.04 20.165 20.165 20.165h47.483v33.466L376.593 280.4H166.056a8 8 0 0 0 0 16h201.299l-15.337 26.564H166.056a8 8 0 0 0 0 16h176.725l-11.477 19.879v6.685H166.056a8 8 0 0 0 0 16h165.248v26.159c0 .74-151.067.405-165.248.405a8 8 0 0 0 0 16H340.84c5.55 3.203 12.673 3.681 18.964.049l21.094-.049a8 8 0 0 0 4.409-14.675l16.796-9.698 30.762-53.282v140.216c0 4.588-3.742 8.33-8.33 8.33H122.418c-4.588 0-8.33-3.742-8.33-8.33V263.857c13.553 0 24.658-10.721 25.281-24.123 5.589-4.45 9.261-11.21 9.556-18.819 5.006-4.088 8.426-10.049 9.176-16.802a8.001 8.001 0 0 0 7.956 7.158h214.841a8 8 0 0 0 0-16H166.056a8.004 8.004 0 0 0-7.802 6.224l.002-9.013c.579-9.446 1.795-16.907 4.606-24.438a7.983 7.983 0 0 0 3.194.664h177.475a8 8 0 0 0 0-16H170.534c7.066-12.492 10.806-21.486 10.806-37.534 0-12.012-2.891-23.35-8.016-33.357zM483.6 226.562l12.1-20.958c5.709-9.888 2.3-22.609-7.588-28.318l-7.181-4.146c-9.888-5.709-22.609-2.3-28.318 7.588l-12.1 20.957zM351.804 410.284l38.587-22.278-43.087-24.876v44.557c0 2.303 2.505 3.749 4.5 2.597zm46.587-36.134 77.21-133.731-43.087-24.876-77.21 133.732zM158.165 54.092a7.981 7.981 0 0 1-13.812-8l6.748-11.688a7.981 7.981 0 0 1 13.812 8zM37.201 74.819a7.981 7.981 0 0 1-8 13.812l-11.687-6.748a7.981 7.981 0 0 1 8-13.812zm34.54-28.727a7.981 7.981 0 0 1-13.812 8l-6.748-11.687a7.981 7.981 0 0 1 13.812-8zm44.306-7.578a8 8 0 0 1-16 0V25.018a8 8 0 0 1 16 0zm-8 19.367c-31.642 0-57.293 25.651-57.293 57.293 0 31.82 20.327 29.918 23.083 76.82h16.316v-55.085h-5.314c-11.739 0-21.314-9.575-21.314-21.313 0-11.739 9.575-21.314 21.314-21.314s21.314 9.575 21.314 21.314v5.313h3.788v-5.313c0-11.739 9.575-21.314 21.314-21.314 11.738 0 21.314 9.575 21.314 21.314s-9.575 21.313-21.314 21.313h-5.314v55.085h16.316c2.757-46.902 23.083-45.001 23.083-76.82 0-31.642-25.651-57.293-57.293-57.293zm1.894 134.113h-3.788v-55.085h3.788zm-19.788-71.085h-5.314c-2.906 0-5.314-2.407-5.314-5.313s2.408-5.314 5.314-5.314 5.314 2.408 5.314 5.314zm35.787 0h5.314c2.906 0 5.314-2.407 5.314-5.313s-2.408-5.314-5.314-5.314-5.314 2.408-5.314 5.314zm-49.252 87.085a9.275 9.275 0 0 0 6.459 2.622h49.8a9.277 9.277 0 0 0 6.459-2.622zm46.949 21.242c2.502 0 4.781-1 6.458-2.621H85.999a9.279 9.279 0 0 0 6.459 2.621zm-28.091 16a9.277 9.277 0 0 0 6.459 2.622h12.083a9.275 9.275 0 0 0 6.459-2.622zM381.218 82.54v46.761a4.173 4.173 0 0 0 4.165 4.165h46.762a8.345 8.345 0 0 0-1.718-2.44l-46.769-46.769a8.374 8.374 0 0 0-2.44-1.717zM166.056 253.836h214.841a8 8 0 0 0 0-16H166.056a8 8 0 0 0 0 16z" clip-rule="evenodd" fill="#ffffff" opacity="1" data-original="#000000" class=""></path></g></svg>