<svg xmlns="http://www.w3.org/2000/svg" version="1.1" xmlns:xlink="http://www.w3.org/1999/xlink" width="512" height="512" x="0" y="0" viewBox="0 0 32 32" style="enable-background:new 0 0 512 512" xml:space="preserve" class=""><g><circle cx="19" cy="28" r="2" fill="#ffffff" opacity="1" data-original="#000000" class=""></circle><circle cx="13" cy="28" r="2" fill="#ffffff" opacity="1" data-original="#000000" class=""></circle><path d="M23.811 17.416A.999.999 0 0 0 23 17H8.983l-.541-1.218A3.002 3.002 0 0 0 5.7 14H4a1 1 0 0 0 0 2h1.7c.395 0 .754.233.914.594l3.472 7.812A1 1 0 0 0 11 25h10a1 1 0 0 0 .949-.684l2-6a1 1 0 0 0-.138-.9zM5 13h7a1 1 0 0 0 1-1V5H5zM12.7 4l-1.707-1.707A1 1 0 0 0 10.286 2H2.7l2 2M4 4.7l-2-2v7.586a1 1 0 0 0 .293.707L4 12.7zM30 5l-5 2v6l4.371-1.749a1 1 0 0 0 .629-.928zM19 5l5 2v6l-4.371-1.749a1 1 0 0 1-.629-.928zM19.5 4l5 2 5-2-4.629-1.927a.982.982 0 0 0-.742 0z" fill="#ffffff" opacity="1" data-original="#000000" class=""></path></g></svg>