<svg xmlns="http://www.w3.org/2000/svg" version="1.1" xmlns:xlink="http://www.w3.org/1999/xlink" width="512" height="512" x="0" y="0" viewBox="0 0 682 682.664" style="enable-background:new 0 0 512 512" xml:space="preserve" class=""><g><path d="M376.86 602.484H324.2l-23.11-98.507-163.047 98.507H24.203c-10.36 0-18.758 8.399-18.758 18.758 0 10.356 8.399 18.754 18.758 18.754H376.86c10.36 0 18.758-8.398 18.758-18.754 0-10.36-8.398-18.758-18.758-18.758zM93.992 222.2c3.688 4.902 9.313 7.488 15.008 7.488 3.926 0 7.883-1.231 11.258-3.77 8.281-6.227 9.945-17.988 3.722-26.266-12.394-16.484-19.218-36.914-19.218-57.535 0-22.054 7.699-43.601 21.68-60.664 6.562-8.012 5.39-19.832-2.626-26.398-8.011-6.563-19.832-5.39-26.398 2.62-19.461 23.75-30.176 53.74-30.176 84.442 0 28.707 9.5 57.145 26.75 80.082zm0 0" fill="#ffffff" opacity="1" data-original="#000000" class=""></path><path d="M53.926 280.031c4.16 0 8.344-1.375 11.82-4.203 8.043-6.531 9.258-18.348 2.727-26.387-24.586-30.238-38.121-68.355-38.121-107.324A170.19 170.19 0 0 1 71.645 31.012c6.761-7.844 5.89-19.688-1.957-26.457C61.843-2.207 50-1.332 43.23 6.508A207.73 207.73 0 0 0-7.168 142.12c0 47.559 16.523 94.078 46.527 130.988 3.707 4.559 9.114 6.922 14.567 6.922zM296.25 142.117c0 20.621-6.82 41.055-19.219 57.535-6.226 8.282-4.562 20.04 3.719 26.266a18.682 18.682 0 0 0 11.262 3.77 18.733 18.733 0 0 0 15.004-7.489c17.25-22.937 26.754-51.379 26.754-80.082 0-30.703-10.715-60.691-30.176-84.441-6.567-8.012-18.383-9.184-26.403-2.621-8.007 6.566-9.183 18.383-2.617 26.394 13.98 17.07 21.676 38.614 21.676 60.668zm0 0" fill="#ffffff" opacity="1" data-original="#000000" class=""></path><path d="M370.656 142.117c0 38.969-13.535 77.086-38.117 107.324-6.539 8.04-5.316 19.856 2.723 26.387a18.667 18.667 0 0 0 11.82 4.203c5.45 0 10.86-2.367 14.566-6.926 30.004-36.906 46.528-83.425 46.528-130.988a207.72 207.72 0 0 0-50.399-135.61c-6.77-7.847-18.613-8.718-26.46-1.952-7.84 6.761-8.715 18.61-1.954 26.457a170.17 170.17 0 0 1 41.293 111.105zM78.621 594.547 254.38 488.355l-136.465-61.28zM291.703 463.996l-25.195-107.402-98.61 51.804zM200.477 200.95c32.441 0 58.835-26.391 58.835-58.833 0-32.437-26.394-58.828-58.835-58.828-32.434 0-58.829 26.39-58.829 58.828 0 32.442 26.395 58.832 58.829 58.832zM237.094 231.219a95.788 95.788 0 0 1-36.617 7.246 95.748 95.748 0 0 1-36.61-7.246l-36.64 156.172 130.43-68.524zm0 0" fill="#ffffff" opacity="1" data-original="#000000" class=""></path></g></svg>