<svg xmlns="http://www.w3.org/2000/svg" version="1.1" xmlns:xlink="http://www.w3.org/1999/xlink" width="512" height="512" x="0" y="0" viewBox="0 0 100 100" style="enable-background:new 0 0 512 512" xml:space="preserve" class=""><g><path d="M92.09 42.89H97V29.68h-5.89a4.94 4.94 0 0 1-3.53-8.4l4.1-4.21-9.45-9.22-3.42 3.51a4.86 4.86 0 0 1-5.4 1.13 4.93 4.93 0 0 1-3.08-4.58V3H57.14v5.9a5 5 0 0 1-8.41 3.55l-4.22-4.12-9.21 9.45 3.5 3.41a4.87 4.87 0 0 1 1.13 5.41 4.93 4.93 0 0 1-4.58 3.08h-4.9v1.68a32.31 32.31 0 0 1 3.94-.24A34.15 34.15 0 0 1 45 32.81 19 19 0 1 1 67.18 55a34.27 34.27 0 0 1 1.69 10.6 34.93 34.93 0 0 1-.24 4h1.7v-5.9a4.93 4.93 0 0 1 8.39-3.53L83 64.25l9.21-9.45-3.52-3.43A4.86 4.86 0 0 1 87.51 46a4.92 4.92 0 0 1 4.58-3.11Z" fill="#ffffff" opacity="1" data-original="#000000" class=""></path><path d="M79.63 36.28A15.9 15.9 0 0 0 48 33.93 34.51 34.51 0 0 1 66.05 52a15.94 15.94 0 0 0 13.58-15.72Z" fill="#ffffff" opacity="1" data-original="#000000" class=""></path><path d="M45.76 36.35a31.18 31.18 0 0 0-11.37-2.13 30.24 30.24 0 0 0-5.22.45 31.38 31.38 0 1 0 36.15 36.18 30.76 30.76 0 0 0 .45-5.25 31.08 31.08 0 0 0-2.13-11.35 31.44 31.44 0 0 0-17.88-17.9ZM35.35 64.27a1.73 1.73 0 0 1 .68.15c6.08.91 10.73 5.66 10.73 11.38 0 5.37-4.13 9.89-9.69 11.16v4.66H34v-4.3c-7.08 0-12.84-5.17-12.84-11.52h3.1c0 4.64 4.37 8.42 9.74 8.42s9.74-3.78 9.74-8.42-4.37-8.43-9.74-8.43a1.51 1.51 0 0 1-.7-.17C27.43 66.3 23 61.75 23 56.29c0-5.69 4.8-10.39 11-11v-5.7h3.1v5.75c6 .75 10.62 5.37 10.62 11h-3.1c0-4.4-4.14-8-9.24-8s-9.24 3.58-9.24 8 4.11 7.93 9.21 7.93Z" fill="#ffffff" opacity="1" data-original="#000000" class=""></path></g></svg>