<svg xmlns="http://www.w3.org/2000/svg" version="1.1" xmlns:xlink="http://www.w3.org/1999/xlink" width="512" height="512" x="0" y="0" viewBox="0 0 32 32" style="enable-background:new 0 0 512 512" xml:space="preserve" class=""><g><g fill="#000"><path fill-rule="evenodd" d="M19.6 6a1 1 0 0 1 1-1h2.8a1 1 0 0 1 1 1v.85c.085.033.169.068.252.104l.6-.6a1 1 0 0 1 1.415 0l1.98 1.98a1 1 0 0 1 0 1.413l-.601.602c.036.083.07.166.104.251H29a1 1 0 0 1 1 1v2.8a1 1 0 0 1-1 1h-.85a6.446 6.446 0 0 1-.104.251l.6.602a1 1 0 0 1 0 1.414l-1.979 1.98a1 1 0 0 1-1.414 0l-.601-.601a6.68 6.68 0 0 1-.252.104V20a1 1 0 0 1-1 1h-2.8a1 1 0 0 1-1-1v-.85a6.446 6.446 0 0 1-.251-.104l-.602.6a1 1 0 0 1-1.414 0l-1.98-1.98a1 1 0 0 1 0-1.413l.602-.602a6.605 6.605 0 0 1-.105-.251H15a1 1 0 0 1-1-1v-2.8a1 1 0 0 1 1-1h.85c.033-.085.068-.168.105-.251l-.602-.602a1 1 0 0 1 0-1.414l1.98-1.98a1 1 0 0 1 1.414 0l.602.601c.083-.036.166-.07.251-.104zM22 16a3 3 0 1 0 0-6 3 3 0 0 0 0 6z" clip-rule="evenodd" fill="#ffffff" opacity="1" data-original="#000000" class=""></path><path d="m14.646 7.626.37-.37A8 8 0 0 0 5 15v.022A6.5 6.5 0 0 0 8.5 27h15a6.5 6.5 0 0 0 6.057-8.863c-.06.083-.128.162-.203.237l-1.98 1.98a2 2 0 0 1-2.142.45A2 2 0 0 1 23.4 22h-2.8a2 2 0 0 1-1.832-1.197 1.999 1.999 0 0 1-2.142-.45l-1.98-1.979a2 2 0 0 1-.449-2.142A1.998 1.998 0 0 1 13 14.4v-2.8a2 2 0 0 1 1.197-1.832 1.999 1.999 0 0 1 .45-2.142z" fill="#ffffff" opacity="1" data-original="#000000" class=""></path></g></g></svg>