<svg xmlns="http://www.w3.org/2000/svg" version="1.1" xmlns:xlink="http://www.w3.org/1999/xlink" width="512" height="512" x="0" y="0" viewBox="0 0 53 53" style="enable-background:new 0 0 512 512" xml:space="preserve" class=""><g><path d="M35.192 41.565c-.32-.438-.904-.561-1.39-.324a16.408 16.408 0 0 1-7.196 1.653c-3.122 0-6.057-.871-8.548-2.393-.464-.284-1.059-.216-1.419.191l-3.562 4.026c-.433.489-.354 1.26.188 1.623a23.888 23.888 0 0 0 13.34 4.053c4.134 0 8.022-1.047 11.42-2.89.574-.31.724-1.071.339-1.598zm8.723-17.17h5.379c.652 0 1.177-.57 1.09-1.216-1.427-10.683-9.88-19.135-20.563-20.564-.647-.086-1.215.439-1.215 1.091v5.379c0 .54.398.983.93 1.078 6.752 1.206 12.095 6.55 13.301 13.302.095.531.539.93 1.078.93zm-5.492 14.802 3.17 4.347a1.105 1.105 0 0 0 1.663.132 23.844 23.844 0 0 0 7.124-14.014c.09-.668-.412-1.268-1.085-1.268H43.92c-.542 0-.988.4-1.083.935a16.337 16.337 0 0 1-4.298 8.443c-.375.391-.436.987-.116 1.425zM2.606 26.394c0 5.991 2.196 11.47 5.837 15.677.427.493 1.2.477 1.633-.011l3.563-4.018c.36-.407.356-1.006.019-1.432a16.408 16.408 0 0 1-3.552-10.216c0-8.096 5.862-14.852 13.567-16.23.534-.096.933-.54.933-1.083V3.708c0-.653-.57-1.18-1.217-1.093C11.654 4.182 2.606 14.241 2.606 26.395z" fill="#ffffff" opacity="1" data-original="#000000" class=""></path><path d="M18.705 33.688h-2.581a.943.943 0 0 1-.943-.943v-5.41c0-.52.422-.942.943-.942h2.58c.521 0 .943.422.943.942v5.41c0 .52-.422.943-.942.943zM24.762 33.688h-2.58a.943.943 0 0 1-.943-.943V20.943c0-.521.422-.943.942-.943h2.58c.521 0 .943.422.943.943v11.802c0 .52-.422.943-.942.943zM30.819 33.688h-2.58a.943.943 0 0 1-.943-.943v-7.436c0-.52.422-.943.942-.943h2.58c.521 0 .943.422.943.943v7.436c0 .52-.422.943-.942.943zM36.876 33.688h-2.58a.943.943 0 0 1-.943-.943V17.818c0-.521.422-.943.942-.943h2.581c.52 0 .943.422.943.943v14.927c0 .52-.422.943-.943.943z" fill="#ffffff" opacity="1" data-original="#000000" class=""></path></g></svg>