<svg xmlns="http://www.w3.org/2000/svg" version="1.1" xmlns:xlink="http://www.w3.org/1999/xlink" width="512" height="512" x="0" y="0" viewBox="0 0 512 512" style="enable-background:new 0 0 512 512" xml:space="preserve" class=""><g><path d="m145.042 394.793 7.768-11.583-16.011-16.012-11.583 7.768-14.476-6.005-2.696-13.674H85.4l-2.696 13.674-14.477 6.005-11.583-7.768-16.011 16.012 7.767 11.583-6.005 14.477-13.674 2.696v22.643l13.674 2.696 6.005 14.477-7.767 11.583 16.011 16.011 11.583-7.768 14.477 6.005 2.696 13.674h22.644l2.696-13.674 14.476-6.005 11.583 7.768 16.011-16.011-7.768-11.583 6.005-14.477 13.674-2.696v-22.643l-13.674-2.696zm-48.321 63.568c-19.318 0-35.074-15.756-35.074-35.074s15.756-35.074 35.074-35.074 35.074 15.756 35.074 35.074-15.756 35.074-35.074 35.074zm45.361-407.162a7.001 7.001 0 0 1 3.042-9.42c34.237-17.55 71.24-26.448 109.969-26.448 27.652 0 54.601 4.598 80.321 13.688l-.771-1.151c-2.15-3.208-1.287-7.558 1.928-9.708a7.003 7.003 0 0 1 9.712 1.918l13.501 20.18a6.999 6.999 0 0 1 .689 6.469 6.98 6.98 0 0 1-4.931 4.24l-23.069 5.34c-.53.13-1.061.19-1.591.19a7.007 7.007 0 0 1-6.811-5.43 6.993 6.993 0 0 1 5.24-8.39l1.653-.39c-24.293-8.61-49.753-12.959-75.872-12.959-36.493 0-71.342 8.38-103.578 24.9-3.441 1.77-7.659.409-9.433-3.031zM28.643 340.689c-9.948-26.831-14.99-55.059-14.99-83.919 0-27.651 4.598-54.6 13.689-80.32l-1.138.768a7.015 7.015 0 0 1-9.722-1.919c-2.15-3.219-1.277-7.561 1.933-9.721l20.167-13.5a7.007 7.007 0 0 1 10.719 4.241l5.341 23.07a6.995 6.995 0 0 1-5.239 8.399 6.998 6.998 0 0 1-8.401-5.24l-.381-1.649c-8.609 24.29-12.966 49.75-12.966 75.87 0 27.19 4.748 53.789 14.118 79.049a7.015 7.015 0 0 1-4.126 9.002 7.218 7.218 0 0 1-2.434.439 7.013 7.013 0 0 1-6.57-4.57zm466.869-3.549-19.569 14.4a6.962 6.962 0 0 1-6.411.989 7.058 7.058 0 0 1-4.483-4.739l-6.362-22.801c-1.061-3.73 1.157-7.59 4.868-8.629s7.567 1.13 8.628 4.85l.528 1.881c6.536-21.419 9.835-43.675 9.835-66.321 0-33.62-7.182-65.98-21.304-96.19-1.639-3.5-.096-7.671 3.374-9.311a7 7 0 0 1 9.302 3.38c15.039 32.079 22.606 66.441 22.606 102.121 0 23.829-3.452 47.252-10.265 69.809l.963-.71c3.085-2.301 7.471-1.63 9.785 1.48 2.265 3.11 1.59 7.49-1.494 9.79zM342.876 474.328a6.994 6.994 0 0 1-4.14 8.99c-26.741 9.881-54.881 14.889-83.642 14.889a242.032 242.032 0 0 1-54.917-6.286l.899 1.067a7.01 7.01 0 0 1-.853 9.87 6.965 6.965 0 0 1-4.497 1.64c-2 0-3.981-.849-5.36-2.489l-15.631-18.58a6.958 6.958 0 0 1-1.398-6.351 6.993 6.993 0 0 1 4.439-4.76l22.346-7.84c3.644-1.28 7.645.65 8.922 4.289 1.282 3.651-.641 7.65-4.29 8.921l-1.582.556a228.045 228.045 0 0 0 51.923 5.964c27.098 0 53.608-4.72 78.788-14.019a7.001 7.001 0 0 1 8.994 4.138zm-189.155-342.11h-114c2.628-29.174 27.142-52.037 57-52.037s54.372 22.863 57 52.037zm-84.26-79.481c0-15.014 12.245-27.259 27.259-27.259s27.26 12.245 27.26 27.259-12.246 27.26-27.26 27.26-27.259-12.246-27.259-27.26zm342.1 49.507v-9.76c-10.255-10.062-16.618-24.076-16.618-39.577 0-18.778 9.336-35.373 23.618-45.405 14.281 10.032 23.618 26.627 23.618 45.405 0 15.502-6.363 29.515-16.617 39.577v9.761c9.633-22.336 29.348-36.361 60-29.802 0 33.752-21.134 57.561-48.969 64.739a2.689 2.689 0 0 1-2.87-1.005 2.69 2.69 0 0 1-.172-3.037c6.028-10.225 13.309-21.694 23.267-34.834-4.334 3.315-17.192 13.347-31.255 31.514v35.084a7 7 0 1 1-14 0V129.82c-14.063-18.167-26.921-28.199-31.255-31.514 9.958 13.139 17.239 24.609 23.267 34.834a2.688 2.688 0 0 1-.172 3.037 2.69 2.69 0 0 1-2.87 1.005c-27.835-7.177-48.969-30.986-48.969-64.739 30.652-6.559 50.367 7.467 60 29.802zm-156.469 20.903c-73.596 0-133.62 60.025-133.62 133.62s60.025 133.62 133.62 133.62 133.62-60.025 133.62-133.62-60.025-133.62-133.62-133.62zm18.165 212.72a2.709 2.709 0 0 1-2.891-1.011 2.709 2.709 0 0 1-.173-3.06c6.073-10.301 13.408-21.857 23.441-35.094-4.372 3.344-17.353 13.472-31.541 31.817v31.868a7 7 0 1 1-14 0v-31.868c-14.188-18.344-27.169-28.473-31.541-31.817 10.032 13.238 17.368 24.793 23.441 35.094.579.982.513 2.15-.173 3.06a2.707 2.707 0 0 1-2.891 1.011c-28.043-7.23-49.335-31.217-49.335-65.221 30.938-6.62 50.815 7.576 60.5 30.15V259.9c-26.297-3.43-46.603-25.917-46.603-53.148 0-29.604 23.999-53.603 53.603-53.603s53.603 23.999 53.603 53.603c0 27.232-20.307 49.719-46.603 53.148v40.896c9.686-22.574 29.562-36.77 60.5-30.15 0 34.004-21.292 57.991-49.335 65.221zm-11.16-96.876c0 3.872-3.133 7.001-7.003 7.001s-6.999-3.129-6.999-7.001v-3.325c-6.426-1.498-12.196-4.892-15.092-10.184a7.001 7.001 0 0 1 2.771-9.511c3.389-1.848 7.65-.61 9.51 2.781 1.788 3.28 11.52 5.258 16.889 2.589 1.47-.74 1.788-1.918 1.861-2.389.101-.74-.111-1.359-.632-1.839-.679-.631-2.42-1.851-6.362-2.981-1.118-.31-2.386-.61-3.726-.93-4.69-1.109-10.001-2.359-14.099-5.55-3.981-3.079-6.353-7.3-6.69-11.879-.333-4.49 1.306-8.851 4.608-12.279 2.973-3.103 6.904-4.921 10.961-5.829v-3.152c0-3.86 3.138-7 6.999-7s7.003 3.141 7.003 7v3.214c6.479 1.494 11.546 4.973 14.137 9.787 1.841 3.4.559 7.639-2.839 9.48-3.403 1.83-7.65.56-9.481-2.841-.631-1.169-2.882-2.57-6.483-3.06-4.535-.619-8.748.58-10.199 2.09-.299.311-.786.92-.737 1.57.038.559.511 1.229 1.301 1.839 1.697 1.32 5.437 2.21 8.739 2.991 1.427.331 2.916.691 4.328 1.09 5.138 1.462 9.192 3.531 12.031 6.141 3.88 3.581 5.741 8.851 4.989 14.11-.791 5.55-4.328 10.391-9.476 12.95-1.906.95-4.045 1.647-6.31 2.092v3.027zm179.337 129.625c-1.278-3.001-2.672-5.786-4.172-8.33a67.477 67.477 0 0 1 17.354 9.897 67.733 67.733 0 0 1-10.144 6.609 96.619 96.619 0 0 0-3.037-8.176zm-12.851 5.469a84.422 84.422 0 0 1 2.898 7.938c-5.887 1.676-12.125 2.573-18.597 2.573s-12.711-.898-18.598-2.573a84.704 84.704 0 0 1 2.898-7.938c4.539-10.656 10.132-17.247 15.699-17.247s11.16 6.591 15.699 17.247zm15.888 95.697a67.604 67.604 0 0 1 10.144 6.609 67.419 67.419 0 0 1-17.354 9.897c1.5-2.544 2.894-5.329 4.172-8.33a96.747 96.747 0 0 0 3.037-8.176zm-55.732-39.495h48.289c-.304 7.304-1.079 14.257-2.25 20.686-6.987-1.952-14.33-2.995-21.894-2.995s-14.907 1.044-21.894 2.995c-1.172-6.429-1.947-13.382-2.25-20.686zm62.297 0h29.024c-1.415 13.745-6.952 26.266-15.353 36.308a81.563 81.563 0 0 0-16.661-10.637c1.599-7.941 2.635-16.592 2.99-25.671zm-16.259-34.686c1.172 6.429 1.947 13.382 2.25 20.686h-48.289c.304-7.304 1.079-14.257 2.25-20.686 6.987 1.952 14.33 2.995 21.894 2.995s14.907-1.044 21.894-2.995zm29.929-15.622c8.401 10.042 13.938 22.564 15.354 36.308h-29.024c-.354-9.08-1.391-17.731-2.99-25.672a81.656 81.656 0 0 0 16.661-10.636zm-89.976 36.308h-29.024c1.415-13.745 6.953-26.266 15.354-36.308a81.558 81.558 0 0 0 16.661 10.636c-1.599 7.941-2.636 16.592-2.99 25.672zm2.99 39.671a81.563 81.563 0 0 0-16.661 10.637c-8.401-10.042-13.938-22.564-15.353-36.308h29.024c.355 9.079 1.391 17.73 2.99 25.671zm35.163 6.019c6.472 0 12.711.898 18.598 2.573a84.83 84.83 0 0 1-2.898 7.939c-4.539 10.656-10.131 17.247-15.699 17.247s-11.16-6.591-15.699-17.247a84.062 84.062 0 0 1-2.898-7.939 67.824 67.824 0 0 1 18.598-2.573zm-28.55 15.981c1.278 3.001 2.673 5.785 4.172 8.33a67.477 67.477 0 0 1-17.354-9.897 67.733 67.733 0 0 1 10.144-6.609 96.619 96.619 0 0 0 3.037 8.176zm-13.181-107.775a67.448 67.448 0 0 1 17.354-9.897c-1.5 2.544-2.894 5.329-4.172 8.33a96.619 96.619 0 0 0-3.037 8.176 67.604 67.604 0 0 1-10.144-6.609z" fill="#ffffff" opacity="1" data-original="#000000" class=""></path></g></svg>