<svg xmlns="http://www.w3.org/2000/svg" version="1.1" xmlns:xlink="http://www.w3.org/1999/xlink" width="512" height="512" x="0" y="0" viewBox="0 0 32 32" style="enable-background:new 0 0 512 512" xml:space="preserve" class=""><g><path d="M8 5c0-1.654-1.346-3-3-3S2 3.346 2 5s1.346 3 3 3c.807 0 1.537-.324 2.077-.844l1.476.739.894-1.79-1.484-.742C7.978 5.243 8 5.124 8 5zM27 12c-.807 0-1.537.324-2.077.844l-1.476-.739-.894 1.79 1.484.742c-.015.12-.037.239-.037.363 0 1.654 1.346 3 3 3s3-1.346 3-3-1.346-3-3-3zM23.447 7.895l1.476-.739c.54.52 1.27.844 2.077.844 1.654 0 3-1.346 3-3s-1.346-3-3-3-3 1.346-3 3c0 .124.022.243.037.363l-1.484.742zM8.553 12.105l-1.476.739A2.985 2.985 0 0 0 5 12c-1.654 0-3 1.346-3 3s1.346 3 3 3 3-1.346 3-3c0-.124-.022-.243-.037-.363l1.484-.742z" fill="#ffffff" opacity="1" data-original="#000000"></path><path d="m23.686 8.874-1.932-.566a5.963 5.963 0 0 0-.487-1.183l.964-1.764a.5.5 0 0 0-.106-.55l-.936-.936a.5.5 0 0 0-.55-.106l-1.764.964a5.963 5.963 0 0 0-1.183-.487l-.566-1.932A.5.5 0 0 0 16.66 2H15.34a.5.5 0 0 0-.465.314l-.566 1.932c-.415.122-.811.284-1.183.487l-1.764-.964a.5.5 0 0 0-.55.106l-.936.936a.5.5 0 0 0-.106.55l.964 1.764a5.963 5.963 0 0 0-.487 1.183l-1.932.566A.5.5 0 0 0 8 9.34v1.322a.5.5 0 0 0 .314.465l1.932.566c.122.415.284.811.487 1.183l-.964 1.764a.5.5 0 0 0 .106.55l.936.936a.5.5 0 0 0 .55.106l1.764-.964c.372.203.768.365 1.183.487l.566 1.932a.5.5 0 0 0 .465.314h1.322a.5.5 0 0 0 .465-.314l.566-1.932c.415-.122.811-.284 1.183-.487l1.764.964a.5.5 0 0 0 .55-.106l.936-.936a.5.5 0 0 0 .106-.55l-.964-1.764c.203-.372.365-.768.487-1.183l1.932-.566A.5.5 0 0 0 24 10.66V9.34a.5.5 0 0 0-.314-.465zM16 13a3 3 0 1 1 0-6 3 3 0 0 1 0 6z" fill="#ffffff" opacity="1" data-original="#000000"></path><circle cx="16" cy="10" r="2" fill="#ffffff" opacity="1" data-original="#000000"></circle><path d="M21.5 23c-.204 0-.4.027-.595.06C20.465 20.749 18.44 19 16 19s-4.465 1.749-4.905 4.06A3.491 3.491 0 0 0 10.5 23a3.5 3.5 0 0 0 0 7 3.476 3.476 0 0 0 2.634-1.218 3.982 3.982 0 0 0 5.732 0A3.476 3.476 0 0 0 21.5 30a3.5 3.5 0 0 0 0-7z" fill="#ffffff" opacity="1" data-original="#000000"></path></g></svg>