<svg xmlns="http://www.w3.org/2000/svg" width="41.896" height="41.896" viewBox="0 0 41.896 41.896">
  <g id="Group_245" data-name="Group 245" transform="translate(-870 -2871)">
    <g id="plane" transform="translate(870 2871)">
      <path id="Path_4618" data-name="Path 4618" d="M295.877,240.151l3.813-3.813-1.736-1.736-2.882,2.882-.937-3.108,3.676-3.676-1.736-1.736-2.745,2.745-.768-2.545-8.245,7.91,9.424,15.051,4.415-4.415Z" transform="translate(-261.053 -210.228)" fill="#089768"/>
      <path id="Path_4619" data-name="Path 4619" d="M22.961,46.952l-2.545-.768L23.16,43.44,21.424,41.7,17.748,45.38l-3.108-.937,2.882-2.882-1.736-1.736-3.813,3.813-7.559-2.28L0,45.773,15.051,55.2Z" transform="translate(0 -36.566)" fill="#089768"/>
      <path id="Path_4620" data-name="Path 4620" d="M41.2,6.721A3.9,3.9,0,1,0,35.681,1.2L11.818,26.075,4.31,24.438.552,28.2l8.706,4.948,4.948,8.706,3.758-3.758-1.638-7.507Z" transform="translate(-0.507 0.001)" fill="#089768"/>
    </g>
  </g>
</svg>
