<svg id="Group_122" data-name="Group 122" xmlns="http://www.w3.org/2000/svg" xmlns:xlink="http://www.w3.org/1999/xlink" width="50" height="50" viewBox="0 0 50 50">
  <defs>
    <clipPath id="clip-path">
      <rect id="Rectangle_123" data-name="Rectangle 123" width="50" height="50" fill="#089768"/>
    </clipPath>
  </defs>
  <g id="Group_121" data-name="Group 121" clip-path="url(#clip-path)">
    <path id="Path_1844" data-name="Path 1844" d="M167.429,25a12.5,12.5,0,0,1,12.5-12.5V0a25,25,0,0,0,0,50V37.5a12.5,12.5,0,0,1-12.5-12.5" transform="translate(-129.929 0.001)" fill="#089768"/>
    <path id="Path_1845" data-name="Path 1845" d="M12.5,25A12.5,12.5,0,0,1,0,37.5V50A25,25,0,0,0,25,25,25,25,0,0,0,0,0V12.5A12.5,12.5,0,0,1,12.5,25" transform="translate(0 0.001)" fill="#089768"/>
  </g>
</svg>
