<svg id="Bosch-logo" xmlns="http://www.w3.org/2000/svg" width="159.349" height="35.476" viewBox="0 0 159.349 35.476">
  <g id="logotype" transform="translate(53.141 5.336)">
    <path id="logotype-b-47" d="M159.415,27.6a5.067,5.067,0,0,0,3.238-4.784c0-4.306-3.054-6.44-7.25-6.44h-11V39.793h11.96c3.68,0,7.287-2.576,7.287-6.514A5.782,5.782,0,0,0,159.415,27.6Zm-9.274-6.367h4.269a2.083,2.083,0,0,1,2.208,1.954v.254a2.182,2.182,0,0,1-2.208,2.138H150.1Zm4.306,13.653h-4.269v-4.6h4.159c2.1,0,3.091.92,3.091,2.282C157.428,34.273,156.176,34.891,154.447,34.891Z" transform="translate(-144.4 -15.754)" fill="#656565" fill-rule="evenodd"/>
    <path id="logotype-o-47" d="M212.646,14.78c-6.771,0-10.746,5.41-10.746,12.255s3.975,12.255,10.746,12.255,10.746-5.373,10.746-12.255S219.454,14.78,212.646,14.78Zm0,18.916c-3.312,0-4.968-2.981-4.968-6.661s1.656-6.624,4.968-6.624,5,2.981,5,6.624C217.651,30.752,215.958,33.7,212.646,33.7Z" transform="translate(-180.739 -14.743)" fill="#656565" fill-rule="evenodd"/>
    <path id="logotype-s-47" d="M274.545,24.506l-.81-.184c-1.987-.4-3.57-.92-3.57-2.355,0-1.546,1.509-2.171,2.834-2.171a6.573,6.573,0,0,1,4.784,2.171l3.643-3.607a10.914,10.914,0,0,0-8.538-3.68c-4.931,0-8.685,2.76-8.685,7.36,0,4.2,3.018,6.256,6.7,7.029l.81.184c3.055.626,4.2,1.1,4.2,2.576,0,1.4-1.251,2.318-3.165,2.318a7.339,7.339,0,0,1-5.925-3.018L263.1,34.81c2.061,2.466,4.674,4.379,9.715,4.379,4.379,0,9.053-2.5,9.053-7.618C281.942,26.236,277.894,25.205,274.545,24.506Z" transform="translate(-219.417 -14.68)" fill="#656565" fill-rule="evenodd"/>
    <path id="logotype-c-47" d="M330.614,33.759c-2.576,0-5.263-2.134-5.263-6.808,0-4.159,2.5-6.477,5.115-6.477a4.518,4.518,0,0,1,4.232,2.613l4.711-3.128c-2.355-3.57-5.152-5.079-9.016-5.079-7.066,0-10.893,5.483-10.893,12.108,0,6.955,4.232,12.4,10.82,12.4,4.637,0,6.845-1.619,9.237-5.079l-4.747-3.194C333.852,32.655,332.822,33.759,330.614,33.759Z" transform="translate(-255.061 -14.806)" fill="#656565" fill-rule="evenodd"/>
    <path id="logotype-h-47" d="M393.548,16.38v8.611h-7.1V16.38H380.3V39.785h6.146V30.548h7.1v9.237h6.146V16.38Z" transform="translate(-293.486 -15.754)" fill="#656565" fill-rule="evenodd"/>
  </g>
  <g id="symbol" transform="translate(0 0)">
    <path id="Path_1761" data-name="Path 1761" d="M17.738.18A17.738,17.738,0,1,0,35.476,17.918,17.738,17.738,0,0,0,17.738.18Zm0,33.82A16.082,16.082,0,1,1,33.82,17.918,16.082,16.082,0,0,1,17.738,34Z" transform="translate(0 -0.18)" fill="#656565"/>
    <path id="Path_1762" data-name="Path 1762" d="M32.707,18.28H31.492v6.072H19.311V18.28H18.06a13.27,13.27,0,0,0,0,22.154h1.251V34.369H31.492v6.072h1.214a13.267,13.267,0,0,0,0-22.154ZM17.618,38.05a11.625,11.625,0,0,1-.968-16.413,11.963,11.963,0,0,1,.968-.964Zm13.874-5.373H19.311V26.008H31.492Zm1.656,5.336v-3.68h0v-9.98h0v-3.68a11.648,11.648,0,0,1,.88,16.454,12.394,12.394,0,0,1-.88.88Z" transform="translate(-7.645 -11.619)" fill="#656565"/>
  </g>
</svg>
