<svg xmlns="http://www.w3.org/2000/svg" width="43.065" height="42.789" viewBox="0 0 43.065 42.789">
  <g id="building" transform="translate(-2 -2.128)">
    <path id="Path_4638" data-name="Path 4638" d="M34.3,4.282a2.153,2.153,0,0,0-2.637-2.1L5.822,8.147a2.153,2.153,0,0,0-1.669,2.1V42.764H3.077a1.077,1.077,0,1,0,0,2.153H14.919v-6.46A2.153,2.153,0,0,1,17.073,36.3h4.306a2.153,2.153,0,0,1,2.153,2.153v6.46H34.3ZM11.69,14.772a1.077,1.077,0,0,0-1.077,1.077V18a1.077,1.077,0,0,0,1.077,1.077h2.153A1.077,1.077,0,0,0,14.919,18V15.848a1.077,1.077,0,0,0-1.077-1.077Zm-1.077,7.536a1.077,1.077,0,0,1,1.077-1.077h2.153a1.077,1.077,0,0,1,1.077,1.077v2.153a1.077,1.077,0,0,1-1.077,1.077H11.69a1.077,1.077,0,0,1-1.077-1.077Zm1.077,5.383a1.077,1.077,0,0,0-1.077,1.077v2.153A1.077,1.077,0,0,0,11.69,32h2.153a1.077,1.077,0,0,0,1.077-1.077V28.768a1.077,1.077,0,0,0-1.077-1.077Zm5.383-11.843a1.077,1.077,0,0,1,1.077-1.077H20.3a1.077,1.077,0,0,1,1.077,1.077V18A1.077,1.077,0,0,1,20.3,19.078H18.149A1.077,1.077,0,0,1,17.073,18Zm1.077,5.383a1.077,1.077,0,0,0-1.077,1.077v2.153a1.077,1.077,0,0,0,1.077,1.077H20.3a1.077,1.077,0,0,0,1.077-1.077V22.308A1.077,1.077,0,0,0,20.3,21.231Zm-1.077,7.536a1.077,1.077,0,0,1,1.077-1.077H20.3a1.077,1.077,0,0,1,1.077,1.077v2.153A1.077,1.077,0,0,1,20.3,32H18.149a1.077,1.077,0,0,1-1.077-1.077Zm7.536-14a1.077,1.077,0,0,0-1.077,1.077V18a1.077,1.077,0,0,0,1.077,1.077h2.153A1.077,1.077,0,0,0,27.839,18V15.848a1.077,1.077,0,0,0-1.077-1.077Zm-1.077,7.536a1.077,1.077,0,0,1,1.077-1.077h2.153a1.077,1.077,0,0,1,1.077,1.077v2.153a1.077,1.077,0,0,1-1.077,1.077H24.609a1.077,1.077,0,0,1-1.077-1.077Zm1.077,5.383a1.077,1.077,0,0,0-1.077,1.077v2.153A1.077,1.077,0,0,0,24.609,32h2.153a1.077,1.077,0,0,0,1.077-1.077V28.768a1.077,1.077,0,0,0-1.077-1.077Z" transform="translate(0 0)" fill="#089768" fill-rule="evenodd"/>
    <path id="Path_4639" data-name="Path 4639" d="M18,5.691V40.808h7.536a1.077,1.077,0,0,0,0-2.153H24.46v-28.4a2.153,2.153,0,0,0-1.19-1.926Z" transform="translate(18.452 4.109)" fill="#089768"/>
    <path id="Path_4640" data-name="Path 4640" d="M13.306,25.46H9V19h4.306Z" transform="translate(8.073 19.457)" fill="#089768"/>
  </g>
</svg>
