<svg xmlns="http://www.w3.org/2000/svg" width="34.887" height="34.887" viewBox="0 0 34.887 34.887">
  <g id="check-mark" transform="translate(-2 -2)">
    <path id="Path_1870" data-name="Path 1870" d="M30.657,3.96H28.788V7.648a1.246,1.246,0,1,1-2.492,0V3.96H12.591V7.648a1.246,1.246,0,1,1-2.492,0V3.96H8.23A6.232,6.232,0,0,0,2,10.19v1.258H36.887V10.19A6.232,6.232,0,0,0,30.657,3.96Z" transform="translate(0 0.482)" fill="#089768"/>
    <path id="Path_1871" data-name="Path 1871" d="M2,28.205a6.232,6.232,0,0,0,6.23,6.23H30.657a6.232,6.232,0,0,0,6.23-6.23V11.97H2ZM12.329,20.53a1.256,1.256,0,0,1,1.769,0l3.638,3.638L24.789,17.1a1.251,1.251,0,1,1,1.769,1.769L18.609,26.81a1.248,1.248,0,0,1-1.757,0l-4.523-4.523a1.241,1.241,0,0,1,0-1.757Z" transform="translate(0 2.452)" fill="#089768"/>
    <path id="Path_1872" data-name="Path 1872" d="M10.992,3.246a1.246,1.246,0,1,0-2.492,0v1.2h2.492Z" transform="translate(1.599 0)" fill="#089768"/>
    <path id="Path_1873" data-name="Path 1873" d="M23.992,3.246a1.246,1.246,0,1,0-2.492,0v1.2h2.492Z" transform="translate(4.796 0)" fill="#089768"/>
  </g>
</svg>
