<svg xmlns="http://www.w3.org/2000/svg" width="56" height="55.999" viewBox="0 0 56 55.999">
  <path id="chess" d="M4.667,46.665H28a4.667,4.667,0,0,1,4.667,4.667h0A4.667,4.667,0,0,1,28,56H4.667A4.667,4.667,0,0,1,0,51.332H0a4.667,4.667,0,0,1,4.667-4.667ZM27.421,13.316c-.044.1-2.4,3.733-2.4,3.733A2.333,2.333,0,0,1,23.333,21h-14a2.333,2.333,0,0,1-1.685-3.948s-2.352-3.64-2.4-3.736a6.067,6.067,0,0,1,5.483-8.649h3.29V2.333a2.333,2.333,0,1,1,4.667,0V4.667h3.243a6.067,6.067,0,0,1,5.488,8.649ZM51.332,46.665H36.079a9.317,9.317,0,0,1,0,9.333H51.332A4.667,4.667,0,0,0,56,51.332a4.555,4.555,0,0,0-4.667-4.667ZM27.386,42a108.962,108.962,0,0,1-3.561-16.333H8.845A107.906,107.906,0,0,1,5.283,42Zm5.28-16.961V42H51.332V25.038A4.667,4.667,0,0,0,53.665,21V18.666a2.333,2.333,0,1,0-4.667,0V21H44.332V18.666a2.333,2.333,0,1,0-4.667,0V21H35V18.666a2.333,2.333,0,1,0-4.667,0V21a4.667,4.667,0,0,0,2.333,4.039Z" fill="#089768"/>
</svg>
