<svg xmlns="http://www.w3.org/2000/svg" width="44.606" height="30.645" viewBox="0 0 44.606 30.645">
  <g id="cloud" transform="translate(0 -79.878)">
    <path id="Path_4677" data-name="Path 4677" d="M241.173,223.167a1.5,1.5,0,1,0-1.5,1.5A1.5,1.5,0,0,0,241.173,223.167Z" transform="translate(-217.373 -129.4)" fill="#fff"/>
    <path id="Path_4678" data-name="Path 4678" d="M35.163,88.362c-4.714-11.314-21.01-11.309-25.72,0-13.508,2.345-12.133,21.785,1.628,22.161h4.305v-4.98L12.9,103.071a4.119,4.119,0,1,1,1.854-1.854l2.856,2.856A1.311,1.311,0,0,1,18,105v5.523h2.995V97.671a4.119,4.119,0,1,1,2.622,0v12.852h2.995V105a1.31,1.31,0,0,1,.384-.927l2.856-2.856a4.119,4.119,0,1,1,1.854,1.854l-2.472,2.472v4.98h4.306C47.3,110.147,48.668,90.7,35.163,88.362Z" transform="translate(0 0)" fill="#fff"/>
    <path id="Path_4679" data-name="Path 4679" d="M369.707,287.434a1.5,1.5,0,1,0-1.5,1.5A1.5,1.5,0,0,0,369.707,287.434Z" transform="translate(-334.674 -188.051)" fill="#fff"/>
    <path id="Path_4680" data-name="Path 4680" d="M109.543,287.434a1.5,1.5,0,1,0,1.5-1.5A1.5,1.5,0,0,0,109.543,287.434Z" transform="translate(-99.97 -188.051)" fill="#fff"/>
  </g>
</svg>
