<svg id="Group_282" data-name="Group 282" xmlns="http://www.w3.org/2000/svg" xmlns:xlink="http://www.w3.org/1999/xlink" width="43.733" height="43.731" viewBox="0 0 43.733 43.731">
  <defs>
    <clipPath id="clip-path">
      <rect id="Rectangle_326" data-name="Rectangle 326" width="43.733" height="43.731" fill="#089768"/>
    </clipPath>
  </defs>
  <g id="Group_281" data-name="Group 281" transform="translate(0 0)" clip-path="url(#clip-path)">
    <path id="Path_4690" data-name="Path 4690" d="M42.861,20.18a6.444,6.444,0,0,1-4.326-6.133,1.323,1.323,0,0,0-.5-.96A1.393,1.393,0,0,0,36.95,12.8a7.57,7.57,0,0,1-8.6-6.914,1.281,1.281,0,0,0-1.72-1.09C23.154,6.068,19.869,3.768,18.561.768A1.289,1.289,0,0,0,17.109.03C7.244,2.231,0,11.758,0,21.865a21.867,21.867,0,0,0,43.733,0c-.035-.763-.042-1.386-.872-1.684M8.992,23.243a1.28,1.28,0,1,1,1.28-1.28,1.28,1.28,0,0,1-1.28,1.28M14.179,33.4a3.844,3.844,0,1,1,3.844-3.844A3.847,3.847,0,0,1,14.179,33.4m1.28-15.375a2.564,2.564,0,1,1,2.564-2.564,2.566,2.566,0,0,1-2.564,2.564M25.707,35.956a2.564,2.564,0,1,1,2.564-2.564,2.566,2.566,0,0,1-2.564,2.564m1.28-10.248a3.844,3.844,0,1,1,3.844-3.844,3.847,3.847,0,0,1-3.844,3.844m7.624,2.659a1.28,1.28,0,1,1,1.28-1.28,1.28,1.28,0,0,1-1.28,1.28" transform="translate(0 0)" fill="#089768"/>
  </g>
</svg>
