<svg xmlns="http://www.w3.org/2000/svg" xmlns:xlink="http://www.w3.org/1999/xlink" width="59" height="59" viewBox="0 0 59 59">
  <defs>
    <clipPath id="clip-path">
      <circle id="Ellipse_47" data-name="Ellipse 47" cx="29.5" cy="29.5" r="29.5" transform="translate(0)" fill="none"/>
    </clipPath>
  </defs>
  <g id="Group_170" data-name="Group 170" transform="translate(-25)">
    <g id="Group_169" data-name="Group 169" transform="translate(25)" clip-path="url(#clip-path)">
      <path id="Path_2021" data-name="Path 2021" d="M0,200v13.526L15.78,200Z" transform="translate(-4.917 -160.667)" fill="#00247d"/>
      <path id="Path_2022" data-name="Path 2022" d="M233.493,0h-19.6V16.8Z" transform="translate(-176.741)" fill="#00247d"/>
      <path id="Path_2023" data-name="Path 2023" d="M36.429,231.362h19.6v-16.8Z" transform="translate(-34.181 -172.362)" fill="#00247d"/>
      <path id="Path_2024" data-name="Path 2024" d="M0,31.225V44.75H15.78Z" transform="translate(-4.917 -25.084)" fill="#00247d"/>
      <path id="Path_2025" data-name="Path 2025" d="M56.033,0h-19.6l19.6,16.8Z" transform="translate(-34.181)" fill="#00247d"/>
      <path id="Path_2026" data-name="Path 2026" d="M285.542,213.526V200h-15.78Z" transform="translate(-221.625 -160.667)" fill="#00247d"/>
      <path id="Path_2027" data-name="Path 2027" d="M285.542,44.751V31.225l-15.78,13.526Z" transform="translate(-221.625 -25.084)" fill="#00247d"/>
      <path id="Path_2028" data-name="Path 2028" d="M213.889,231.362h19.6l-19.6-16.8Z" transform="translate(-176.741 -172.362)" fill="#00247d"/>
      <path id="Path_2029" data-name="Path 2029" d="M26.769,19.667V16.8L7.164,0H0L22.945,19.667Z" transform="translate(-4.917)" fill="#fff"/>
      <path id="Path_2030" data-name="Path 2030" d="M18.168,36.389,0,20.816v2.047L15.78,36.389Z" transform="translate(-4.917 -16.722)" fill="#fff"/>
      <path id="Path_2031" data-name="Path 2031" d="M213.889,200v2.863l19.6,16.8h7.164L217.713,200Z" transform="translate(-176.741 -160.667)" fill="#fff"/>
      <path id="Path_2032" data-name="Path 2032" d="M46.278,204.15,24.285,223h2.388l19.6-16.8Z" transform="translate(-24.426 -164)" fill="#fff"/>
      <path id="Path_2033" data-name="Path 2033" d="M15.78,200,0,213.526v6.141L22.944,200Z" transform="translate(-4.916 -160.667)" fill="#fff"/>
      <path id="Path_2034" data-name="Path 2034" d="M257.619,200l18.168,15.573v-2.047L260.007,200Z" transform="translate(-211.871 -160.667)" fill="#fff"/>
      <path id="Path_2035" data-name="Path 2035" d="M240.5,19.667l15.78-13.526V0L233.333,19.667Z" transform="translate(-192.361)" fill="#fff"/>
      <path id="Path_2036" data-name="Path 2036" d="M213.889,18.851,235.881,0h-2.388l-19.6,16.8Z" transform="translate(-176.741 0)" fill="#fff"/>
      <path id="Path_2037" data-name="Path 2037" d="M22.944,19.667,0,0V4.094L18.168,19.667Z" transform="translate(-4.916)" fill="#cf142b"/>
      <path id="Path_2038" data-name="Path 2038" d="M238.109,200h-4.776l22.944,19.667v-4.094Z" transform="translate(-192.361 -160.667)" fill="#cf142b"/>
      <path id="Path_2039" data-name="Path 2039" d="M26.769,200H22.945L0,219.667H4.776l21.992-18.85Z" transform="translate(-4.917 -160.667)" fill="#cf142b"/>
      <path id="Path_2040" data-name="Path 2040" d="M213.889,19.667h3.824L240.657,0h-4.776L213.889,18.851Z" transform="translate(-176.741)" fill="#cf142b"/>
      <path id="Path_2041" data-name="Path 2041" d="M198.333,23.6h29.828V19.667H201.393V0h-3.059Z" transform="translate(-164.244)" fill="#fff"/>
      <path id="Path_2042" data-name="Path 2042" d="M201.392,183.933h26.768V180H198.333v23.6h3.059V183.933Z" transform="translate(-164.244 -144.6)" fill="#fff"/>
      <path id="Path_2043" data-name="Path 2043" d="M29.828,180H0v3.933H26.768V203.6h3.059Z" transform="translate(-4.916 -144.6)" fill="#fff"/>
      <path id="Path_2044" data-name="Path 2044" d="M29.828,23.6V0H26.768V19.667H0V23.6Z" transform="translate(-4.916)" fill="#fff"/>
      <path id="Path_2045" data-name="Path 2045" d="M39.006,35.4H68.834V23.6H39.006V0H29.828V23.6H0V35.4H29.828V59h9.178Z" transform="translate(-4.917)" fill="#cf142b"/>
    </g>
  </g>
</svg>
