<svg id="Group_162" data-name="Group 162" xmlns="http://www.w3.org/2000/svg" xmlns:xlink="http://www.w3.org/1999/xlink" width="59" height="59" viewBox="0 0 59 59">
  <defs>
    <clipPath id="clip-path">
      <path id="Path_1936" data-name="Path 1936" d="M75,32A29.5,29.5,0,1,0,104.5,2.5,29.5,29.5,0,0,0,75,32" transform="translate(-75 -2.5)" fill="none"/>
    </clipPath>
  </defs>
  <g id="Group_159" data-name="Group 159" clip-path="url(#clip-path)">
    <rect id="Rectangle_183" data-name="Rectangle 183" width="88.403" height="58.604" transform="translate(-14.899 0.396)" fill="#b50900"/>
    <path id="Path_1899" data-name="Path 1899" d="M88.44,76.2H0V72.175H88.44Zm0-9.068H0V63.107H88.44Zm0-9.068H0V54.04H88.44Zm0-9.068H0V44.972H88.44Zm0-9.068H0V35.9H88.44Zm0-9.068H0V26.837H88.44Z" transform="translate(-14.75 -22.051)" fill="#fff"/>
    <rect id="Rectangle_184" data-name="Rectangle 184" width="42.598" height="31.978" transform="translate(-14.75)" fill="#2b1d73"/>
    <path id="Path_1900" data-name="Path 1900" d="M63.177,25.553l-.407,1.253H61.452l1.066.775-.407,1.253,1.066-.775,1.066.775-.407-1.253,1.066-.775H63.584Z" transform="translate(-64.116 -21.02)" fill="#fff"/>
    <path id="Path_1901" data-name="Path 1901" d="M63.177,57.828l-.407,1.253H61.452l1.066.775-.407,1.253,1.066-.775,1.066.775-.407-1.253,1.066-.775H63.584Z" transform="translate(-64.116 -46.947)" fill="#fff"/>
    <path id="Path_1902" data-name="Path 1902" d="M63.177,90.1l-.407,1.253H61.452l1.066.775-.407,1.253,1.066-.775,1.066.775-.407-1.253,1.066-.775H63.584Z" transform="translate(-64.116 -72.874)" fill="#fff"/>
    <path id="Path_1903" data-name="Path 1903" d="M63.584,123.63l-.407-1.253-.407,1.253H61.452l1.066.775-.407,1.253,1.066-.775,1.066.775-.407-1.253,1.066-.775Z" transform="translate(-64.116 -98.801)" fill="#fff"/>
    <path id="Path_1904" data-name="Path 1904" d="M82.157,9.416l-.407,1.253H80.432l1.066.775L81.092,12.7l1.066-.775,1.066.775-.407-1.253,1.066-.775H82.564Z" transform="translate(-79.364 -8.056)" fill="#fff"/>
    <path id="Path_1905" data-name="Path 1905" d="M82.157,41.691l-.407,1.253H80.432l1.066.775-.407,1.253,1.066-.775,1.066.775-.407-1.253,1.066-.775H82.564Z" transform="translate(-79.364 -33.983)" fill="#fff"/>
    <path id="Path_1906" data-name="Path 1906" d="M82.157,73.965l-.407,1.253H80.432l1.066.775-.407,1.253,1.066-.775,1.066.775-.407-1.253,1.066-.775H82.564Z" transform="translate(-79.364 -59.91)" fill="#fff"/>
    <path id="Path_1907" data-name="Path 1907" d="M82.157,106.24l-.407,1.253H80.432l1.066.775-.407,1.253,1.066-.774,1.066.774-.407-1.253,1.066-.775H82.564Z" transform="translate(-79.364 -85.838)" fill="#fff"/>
    <path id="Path_1908" data-name="Path 1908" d="M82.564,139.767l-.407-1.253-.407,1.253H80.432l1.066.775-.407,1.253,1.066-.775,1.066.775-.407-1.253,1.066-.775Z" transform="translate(-79.364 -111.765)" fill="#fff"/>
    <path id="Path_1909" data-name="Path 1909" d="M101.138,25.553l-.407,1.253H99.413l1.066.775-.407,1.253,1.066-.775,1.066.775-.407-1.253,1.066-.775h-1.318Z" transform="translate(-94.612 -21.02)" fill="#fff"/>
    <path id="Path_1910" data-name="Path 1910" d="M101.138,57.828l-.407,1.253H99.413l1.066.775-.407,1.253,1.066-.775,1.066.775-.407-1.253,1.066-.775h-1.318Z" transform="translate(-94.612 -46.947)" fill="#fff"/>
    <path id="Path_1911" data-name="Path 1911" d="M101.138,90.1l-.407,1.253H99.413l1.066.775-.407,1.253,1.066-.775,1.066.775L101.8,92.13l1.066-.775h-1.318Z" transform="translate(-94.612 -72.874)" fill="#fff"/>
    <path id="Path_1912" data-name="Path 1912" d="M101.545,123.63l-.407-1.253-.407,1.253H99.413l1.066.775-.407,1.253,1.066-.775,1.066.775L101.8,124.4l1.066-.775Z" transform="translate(-94.612 -98.801)" fill="#fff"/>
    <path id="Path_1913" data-name="Path 1913" d="M120.118,9.416l-.407,1.253h-1.318l1.066.775-.407,1.253,1.066-.775,1.066.775-.407-1.253,1.066-.775h-1.318Z" transform="translate(-109.86 -8.056)" fill="#fff"/>
    <path id="Path_1914" data-name="Path 1914" d="M120.118,41.691l-.407,1.253h-1.318l1.066.775-.407,1.253,1.066-.775,1.066.775-.407-1.253,1.066-.775h-1.318Z" transform="translate(-109.86 -33.983)" fill="#fff"/>
    <path id="Path_1915" data-name="Path 1915" d="M120.118,73.965l-.407,1.253h-1.318l1.066.775-.407,1.253,1.066-.775,1.066.775-.407-1.253,1.066-.775h-1.318Z" transform="translate(-109.86 -59.91)" fill="#fff"/>
    <path id="Path_1916" data-name="Path 1916" d="M120.118,106.24l-.407,1.253h-1.318l1.066.775-.407,1.253,1.066-.774,1.066.774-.407-1.253,1.066-.775h-1.318Z" transform="translate(-109.86 -85.838)" fill="#fff"/>
    <path id="Path_1917" data-name="Path 1917" d="M120.525,139.767l-.407-1.253-.407,1.253h-1.318l1.066.775-.407,1.253,1.066-.775,1.066.775-.407-1.253,1.066-.775Z" transform="translate(-109.859 -111.765)" fill="#fff"/>
    <path id="Path_1918" data-name="Path 1918" d="M139.1,25.553l-.407,1.253h-1.318l1.066.775-.407,1.253,1.066-.775,1.066.775-.407-1.253,1.066-.775h-1.318Z" transform="translate(-125.107 -21.02)" fill="#fff"/>
    <path id="Path_1919" data-name="Path 1919" d="M139.1,57.828l-.407,1.253h-1.318l1.066.775-.407,1.253,1.066-.775,1.066.775-.407-1.253,1.066-.775h-1.318Z" transform="translate(-125.107 -46.947)" fill="#fff"/>
    <path id="Path_1920" data-name="Path 1920" d="M139.1,90.1l-.407,1.253h-1.318l1.066.775-.407,1.253,1.066-.775,1.066.775-.407-1.253,1.066-.775h-1.318Z" transform="translate(-125.107 -72.874)" fill="#fff"/>
    <path id="Path_1921" data-name="Path 1921" d="M139.506,123.63l-.407-1.253-.407,1.253h-1.318l1.066.775-.407,1.253,1.066-.775,1.066.775-.407-1.253,1.066-.775Z" transform="translate(-125.107 -98.801)" fill="#fff"/>
    <path id="Path_1922" data-name="Path 1922" d="M158.079,9.416l-.407,1.253h-1.318l1.066.775-.407,1.253,1.066-.775,1.066.775-.407-1.253,1.066-.775h-1.318Z" transform="translate(-140.355 -8.056)" fill="#fff"/>
    <path id="Path_1923" data-name="Path 1923" d="M158.079,41.691l-.407,1.253h-1.318l1.066.775-.407,1.253,1.066-.775,1.066.775-.407-1.253,1.066-.775h-1.318Z" transform="translate(-140.355 -33.983)" fill="#fff"/>
    <path id="Path_1924" data-name="Path 1924" d="M158.079,73.965l-.407,1.253h-1.318l1.066.775-.407,1.253,1.066-.775,1.066.775-.407-1.253,1.066-.775h-1.318Z" transform="translate(-140.355 -59.91)" fill="#fff"/>
    <path id="Path_1925" data-name="Path 1925" d="M158.079,106.24l-.407,1.253h-1.318l1.066.775-.407,1.253,1.066-.774,1.066.774-.407-1.253,1.066-.775h-1.318Z" transform="translate(-140.355 -85.838)" fill="#fff"/>
    <path id="Path_1926" data-name="Path 1926" d="M158.486,139.767l-.407-1.253-.407,1.253h-1.318l1.066.775-.407,1.253,1.066-.775,1.066.775-.407-1.253,1.066-.775Z" transform="translate(-140.355 -111.765)" fill="#fff"/>
    <path id="Path_1927" data-name="Path 1927" d="M177.06,25.553l-.407,1.253h-1.318l1.066.775-.407,1.253,1.066-.775,1.066.775-.407-1.253,1.066-.775h-1.318Z" transform="translate(-155.603 -21.02)" fill="#fff"/>
    <path id="Path_1928" data-name="Path 1928" d="M177.06,57.828l-.407,1.253h-1.318l1.066.775-.407,1.253,1.066-.775,1.066.775-.407-1.253,1.066-.775h-1.318Z" transform="translate(-155.603 -46.947)" fill="#fff"/>
    <path id="Path_1929" data-name="Path 1929" d="M177.06,90.1l-.407,1.253h-1.318l1.066.775-.407,1.253,1.066-.775,1.066.775-.407-1.253,1.066-.775h-1.318Z" transform="translate(-155.603 -72.874)" fill="#fff"/>
    <path id="Path_1930" data-name="Path 1930" d="M177.467,123.63l-.407-1.253-.407,1.253h-1.318l1.066.775-.407,1.253,1.066-.775,1.066.775-.407-1.253,1.066-.775Z" transform="translate(-155.602 -98.801)" fill="#fff"/>
    <path id="Path_1931" data-name="Path 1931" d="M194.975,12.7l1.066-.775,1.066.775-.407-1.253,1.066-.775h-1.318l-.407-1.253-.407,1.253h-1.318l1.066.775Z" transform="translate(-170.851 -8.056)" fill="#fff"/>
    <path id="Path_1932" data-name="Path 1932" d="M196.04,41.691l-.407,1.253h-1.318l1.066.775-.407,1.253,1.066-.775,1.066.775-.407-1.253,1.066-.775h-1.318Z" transform="translate(-170.85 -33.983)" fill="#fff"/>
    <path id="Path_1933" data-name="Path 1933" d="M196.04,73.965l-.407,1.253h-1.318l1.066.775-.407,1.253,1.066-.775,1.066.775-.407-1.253,1.066-.775h-1.318Z" transform="translate(-170.85 -59.91)" fill="#fff"/>
    <path id="Path_1934" data-name="Path 1934" d="M196.04,106.24l-.407,1.253h-1.318l1.066.775-.407,1.253,1.066-.774,1.066.774-.407-1.253,1.066-.775h-1.318Z" transform="translate(-170.85 -85.838)" fill="#fff"/>
    <path id="Path_1935" data-name="Path 1935" d="M196.447,139.767l-.407-1.253-.407,1.253h-1.318l1.066.775-.407,1.253,1.066-.775,1.066.775-.407-1.253,1.066-.775Z" transform="translate(-170.85 -111.765)" fill="#fff"/>
  </g>
</svg>
