<svg xmlns="http://www.w3.org/2000/svg" width="40.318" height="46.265" viewBox="0 0 40.318 46.265">
  <g id="currency" transform="translate(-32.907)">
    <path id="Path_4652" data-name="Path 4652" d="M83.548,25.244V18.427h6.608L75.682,0,59.767,18.427H66.24L76.413,32.772A12.308,12.308,0,0,1,83.548,25.244Z" transform="translate(-24.433)" fill="#fff"/>
    <path id="Path_4653" data-name="Path 4653" d="M211.944,410.785h-2.506v9.146h7.179A12.233,12.233,0,0,1,211.944,410.785Z" transform="translate(-160.579 -373.666)" fill="#fff"/>
    <path id="Path_4654" data-name="Path 4654" d="M32.907,264.569h3.754v11.766h9.577V264.569h3.775l-8.2-11.644Z" transform="translate(0 -230.07)" fill="#fff"/>
    <path id="Path_4655" data-name="Path 4655" d="M275.678,298.961a9.625,9.625,0,1,0,9.625,9.625A9.636,9.636,0,0,0,275.678,298.961Zm-1.112,14.031-3.589-3.589,1.908-1.908,1.681,1.681,3.905-3.9,1.908,1.908Z" transform="translate(-212.079 -271.946)" fill="#fff"/>
  </g>
</svg>
