<svg id="Group_66" data-name="Group 66" xmlns="http://www.w3.org/2000/svg" xmlns:xlink="http://www.w3.org/1999/xlink" width="101.035" height="23.129" viewBox="0 0 101.035 23.129">
  <defs>
    <clipPath id="clip-path">
      <rect id="Rectangle_74" data-name="Rectangle 74" width="101.035" height="23.129" fill="#656565"/>
    </clipPath>
  </defs>
  <g id="Group_65" data-name="Group 65" clip-path="url(#clip-path)">
    <path id="Path_1822" data-name="Path 1822" d="M77.874,15.676c.353,1.638,1.285,2.216,3.212,2.216,1.7,0,2.634-.61,2.634-1.574,0-1.381-1.253-1.478-3.855-2.152-3.052-.8-5.011-1.478-5.911-2.12A5.777,5.777,0,0,1,71.449,7c0-4.24,3.341-7,9.155-7,5.654,0,8.962,2.473,9.348,6.906H83.3c-.225-1.317-1.124-1.927-2.827-1.927-1.478,0-2.216.482-2.216,1.478,0,1.156,1.124,1.381,3.244,1.927,2.73.707,4.883,1.124,6.264,2.088a5.65,5.65,0,0,1,2.795,5.108c0,4.754-3.405,7.549-9.765,7.549-5.878,0-9.316-2.763-9.765-7.453Zm-25.827-1.67c-.385,5.75-4.176,9.123-10.472,9.123-7,0-11.243-4.433-11.243-11.564C30.332,4.4,34.637,0,41.447,0c6.36,0,10.087,3.212,10.5,8.9H45.269a3.36,3.36,0,0,0-3.726-3.405c-2.763,0-4.112,2.024-4.112,6.071,0,3.983,1.478,6.039,4.337,6.039,2.12,0,3.469-1.285,3.694-3.63h6.585ZM50.537.642H57.7l3.694,14.134L65.346.642h6.906L64.9,22.55h-7ZM7.814.032A3.135,3.135,0,0,0,5.533,1L.94,5.589a3.277,3.277,0,0,0,0,4.594L13.917,23.129,26.863,10.151a3.277,3.277,0,0,0,0-4.594L22.269,1a3.219,3.219,0,0,0-4.594,0L13.917,4.786,10.127,1A3.26,3.26,0,0,0,7.814.032" transform="translate(0)" fill="#656565"/>
    <path id="Path_1823" data-name="Path 1823" d="M299.08,16.139a2.886,2.886,0,0,1-2.955-3.02,2.956,2.956,0,1,1,5.911,0,2.922,2.922,0,0,1-2.955,3.02m0-5.493a2.325,2.325,0,0,0-2.313,2.473,2.3,2.3,0,0,0,2.313,2.473,2.344,2.344,0,0,0,2.313-2.473,2.344,2.344,0,0,0-2.313-2.473m-.578,4.208h-.546V11.546h1.253c.8,0,1.221.289,1.221.964a.819.819,0,0,1-.867.9l.932,1.478h-.61l-.867-1.413H298.5Zm.61-1.863c.418,0,.771-.032.771-.514,0-.418-.385-.45-.739-.45h-.675v.964Z" transform="translate(-201.001 -6.856)" fill="#656565"/>
  </g>
</svg>
