<svg xmlns="http://www.w3.org/2000/svg" width="34.591" height="41.621" viewBox="0 0 34.591 41.621">
  <g id="engineering" transform="translate(-43.24)">
    <path id="Path_4630" data-name="Path 4630" d="M76.612,17.227H74.579v-1.72A13.916,13.916,0,0,0,71.7,6.992,14.174,14.174,0,0,0,65.592,2.4l1.025,6.51A1.219,1.219,0,0,1,65.6,10.309a1.234,1.234,0,0,1-.191.015,1.22,1.22,0,0,1-1.2-1.03L62.745,0H58.326L56.862,9.294a1.219,1.219,0,1,1-2.409-.379L55.479,2.4a14.174,14.174,0,0,0-6.111,4.587,13.915,13.915,0,0,0-2.876,8.515v1.72H44.459a1.219,1.219,0,0,0-1.219,1.219v2.439A1.219,1.219,0,0,0,44.459,22.1H76.612a1.219,1.219,0,0,0,1.219-1.219V18.446a1.219,1.219,0,0,0-1.219-1.219Z" transform="translate(0)" fill="#089768"/>
    <path id="Path_4631" data-name="Path 4631" d="M86.322,301.915a5.489,5.489,0,1,1-10.072,0H65.983a15.428,15.428,0,0,0,.291,5.876,1.219,1.219,0,0,0,1.184.928h2.763a11.891,11.891,0,0,0,1.532,2.645l-1.38,2.39a1.219,1.219,0,0,0,.211,1.489,15.522,15.522,0,0,0,6.394,3.7,1.219,1.219,0,0,0,1.4-.561l1.381-2.392a12.1,12.1,0,0,0,3.06,0l1.381,2.393a1.219,1.219,0,0,0,1.4.561,15.525,15.525,0,0,0,6.394-3.7,1.219,1.219,0,0,0,.211-1.489l-1.38-2.39a11.889,11.889,0,0,0,1.532-2.645h2.763a1.219,1.219,0,0,0,1.184-.928,15.428,15.428,0,0,0,.291-5.876Z" transform="translate(-20.751 -277.372)" fill="#089768"/>
    <path id="Path_4632" data-name="Path 4632" d="M224.576,304.1a3.041,3.041,0,0,0-.921-2.182H219.4a3.05,3.05,0,1,0,5.18,2.182Z" transform="translate(-160.99 -277.372)" fill="#089768"/>
  </g>
</svg>
