<svg xmlns="http://www.w3.org/2000/svg" width="34.774" height="34.765" viewBox="0 0 34.774 34.765">
  <g id="float" transform="translate(0 -0.071)">
    <path id="Path_4579" data-name="Path 4579" d="M33.277,36.978a9.449,9.449,0,0,1,3.595-3.592L33.7,25.758a17.468,17.468,0,0,0-8.053,8.07Z" transform="translate(-23.909 -23.943)" fill="#fff"/>
    <path id="Path_4580" data-name="Path 4580" d="M175.139,8.65a8.627,8.627,0,0,1,2.539-.351,8.85,8.85,0,0,1,2.536.358l3.156-7.6a17.15,17.15,0,0,0-11.4-.031Z" transform="translate(-160.299 0)" fill="#fff"/>
    <path id="Path_4581" data-name="Path 4581" d="M321.066,33.755a9.237,9.237,0,0,1,3.6,3.589l7.633-3.152a17.178,17.178,0,0,0-8.077-8.038Z" transform="translate(-299.272 -24.313)" fill="#fff"/>
    <path id="Path_4582" data-name="Path 4582" d="M393.024,183.709a17.043,17.043,0,0,0,.026-11.4l-7.623,3.148a9.01,9.01,0,0,1-.02,5.092Z" transform="translate(-359.246 -160.542)" fill="#fff"/>
    <path id="Path_4583" data-name="Path 4583" d="M8.222,178.017a8.629,8.629,0,0,1,.353-2.546L.956,172.325A16.9,16.9,0,0,0,0,178.018a16.451,16.451,0,0,0,.954,5.72l7.623-3.167A9.05,9.05,0,0,1,8.222,178.017Z" transform="translate(0 -160.561)" fill="#fff"/>
    <path id="Path_4584" data-name="Path 4584" d="M37,325.053a9.3,9.3,0,0,1-3.616-3.581l-7.615,3.164a17.867,17.867,0,0,0,8.077,8.056Z" transform="translate(-24.015 -299.584)" fill="#fff"/>
    <path id="Path_4585" data-name="Path 4585" d="M324.534,321.379a9.072,9.072,0,0,1-3.593,3.606l3.152,7.632a17.6,17.6,0,0,0,8.051-8.076Z" transform="translate(-299.155 -299.497)" fill="#fff"/>
    <path id="Path_4586" data-name="Path 4586" d="M180.606,385.779a8.937,8.937,0,0,1-5.043-.009l-3.156,7.643a16.447,16.447,0,0,0,5.676.938,17.145,17.145,0,0,0,5.677-.934Z" transform="translate(-160.704 -359.517)" fill="#fff"/>
  </g>
</svg>
