<svg xmlns="http://www.w3.org/2000/svg" width="42.253" height="42.242" viewBox="0 0 42.253 42.242">
  <g id="float" transform="translate(0 -0.071)">
    <path id="Path_4579" data-name="Path 4579" d="M34.918,39.391a11.481,11.481,0,0,1,4.368-4.365l-3.851-9.268a21.225,21.225,0,0,0-9.785,9.806Z" transform="translate(-23.535 -23.568)" fill="#fff"/>
    <path id="Path_4580" data-name="Path 4580" d="M175.82,10.5a10.483,10.483,0,0,1,3.085-.426,10.754,10.754,0,0,1,3.082.435l3.835-9.23a20.838,20.838,0,0,0-13.849-.037Z" transform="translate(-157.789)" fill="#fff"/>
    <path id="Path_4581" data-name="Path 4581" d="M321.066,35.39a11.223,11.223,0,0,1,4.376,4.361l9.275-3.83a20.872,20.872,0,0,0-9.814-9.767Z" transform="translate(-294.584 -23.932)" fill="#fff"/>
    <path id="Path_4582" data-name="Path 4582" d="M394.662,186.162a20.708,20.708,0,0,0,.032-13.857l-9.263,3.825a10.947,10.947,0,0,1-.024,6.187Z" transform="translate(-353.619 -158.028)" fill="#fff"/>
    <path id="Path_4583" data-name="Path 4583" d="M9.991,179.242a10.484,10.484,0,0,1,.429-3.094l-9.257-3.823A20.533,20.533,0,0,0,0,179.242a19.989,19.989,0,0,0,1.159,6.951l9.262-3.848A11,11,0,0,1,9.991,179.242Z" transform="translate(0 -158.046)" fill="#fff"/>
    <path id="Path_4584" data-name="Path 4584" d="M39.411,325.823a11.3,11.3,0,0,1-4.394-4.351l-9.253,3.844a21.71,21.71,0,0,0,9.814,9.788Z" transform="translate(-23.639 -294.891)" fill="#fff"/>
    <path id="Path_4585" data-name="Path 4585" d="M325.307,321.379a11.023,11.023,0,0,1-4.366,4.381l3.829,9.274a21.382,21.382,0,0,0,9.782-9.813Z" transform="translate(-294.469 -294.806)" fill="#fff"/>
    <path id="Path_4586" data-name="Path 4586" d="M182.37,385.781a10.859,10.859,0,0,1-6.128-.011l-3.835,9.287a19.984,19.984,0,0,0,6.9,1.14,20.831,20.831,0,0,0,6.9-1.135Z" transform="translate(-158.187 -353.886)" fill="#fff"/>
  </g>
</svg>
