<svg id="Group_224" data-name="Group 224" xmlns="http://www.w3.org/2000/svg" xmlns:xlink="http://www.w3.org/1999/xlink" width="231.027" height="456.442" viewBox="0 0 231.027 456.442">
  <defs>
    <clipPath id="clip-path">
      <rect id="Rectangle_225" data-name="Rectangle 225" width="231.027" height="456.442" fill="#089768"/>
    </clipPath>
  </defs>
  <g id="Group_223" data-name="Group 223" clip-path="url(#clip-path)">
    <path id="Path_4562" data-name="Path 4562" d="M.01,229.41c-.024,1.772.024,3.52.072,5.293,0,.34.025.68.049,1.044.024,1.7.1,3.4.194,5.1.048.486.072.971.1,1.457q.146,2.513.364,5.026c.049.51.1,1,.145,1.505.1,1.287.219,2.573.364,3.836.1.971.195,1.918.34,2.865.194,1.651.412,3.3.631,4.929a231.648,231.648,0,0,0,43.119,104.3c1.19,1.6,2.4,3.181,3.642,4.759.291.34.558.68.825,1.02,1.36,1.724,2.744,3.4,4.152,5.074,1.044,1.263,2.112,2.476,3.2,3.715.316.364.632.7.947,1.068.947,1.068,1.918,2.137,2.914,3.181.145.194.315.364.485.558,1.141,1.19,2.258,2.379,3.4,3.545,1.578,1.627,3.181,3.229,4.831,4.807.7.68,1.432,1.384,2.161,2.064.753.7,1.529,1.408,2.282,2.113,1.214,1.117,2.428,2.209,3.69,3.3.777.68,1.578,1.359,2.379,2.039,1.991,1.7,4.006,3.375,6.07,4.977,1.263,1.02,2.525,1.991,3.812,2.962,1.457,1.117,2.962,2.234,4.443,3.3,2.258,1.627,4.54,3.2,6.871,4.759,1.991,1.311,3.981,2.622,6.021,3.884.048.024.073.049.121.073,1.821,1.117,3.642,2.209,5.487,3.3,1.627.947,3.254,1.845,4.88,2.768a233.707,233.707,0,0,0,65.456,23.915l4.661.874c2.307.437,4.613.8,6.92,1.141,1.7.267,3.375.485,5.074.7,2.379.291,4.759.558,7.138.777,1.19.121,2.379.219,3.569.316,1.36.1,2.719.194,4.079.267q2.039.146,4.079.218h.243c1.36.073,2.743.1,4.1.146,1.311.024,2.646.049,3.957.049h3.744V0h-3.744c-1.845,0-3.715.048-5.56.1a4.671,4.671,0,0,0-.583.024c-1.869.048-3.714.121-5.584.218-.413.024-.8.049-1.214.1q-2.659.146-5.317.364c-.364.024-.729.073-1.093.1-1.408.121-2.792.267-4.2.413-.947.1-1.894.194-2.816.34-1.627.194-3.278.413-4.929.632A231.469,231.469,0,0,0,88.87,47.513c-.461.389-.947.729-1.408,1.117-1.554,1.214-3.084,2.428-4.613,3.69-.219.17-.413.364-.632.534q-2.84,2.368-5.608,4.807c-1.384,1.214-2.744,2.476-4.1,3.739-1.287,1.19-2.549,2.379-3.788,3.593-.194.194-.388.364-.558.558-.874.85-1.748,1.724-2.6,2.6-.51.51-1.02,1.02-1.481,1.529q-1.529,1.53-2.986,3.132c-.219.218-.413.437-.608.656-.874.947-1.748,1.894-2.6,2.865-.486.534-.947,1.044-1.408,1.578-.68.777-1.36,1.578-2.04,2.379-1.578,1.821-3.108,3.691-4.589,5.56-1.141,1.432-2.258,2.865-3.351,4.321-1.117,1.457-2.234,2.962-3.3,4.443-1.626,2.258-3.2,4.54-4.759,6.871-1.287,1.918-2.525,3.86-3.763,5.827a1.372,1.372,0,0,1-.194.315,230.128,230.128,0,0,0-22.07,46.712,233.276,233.276,0,0,0-11.046,48.9c-.121,1.214-.243,2.4-.364,3.618-.121,1.359-.243,2.719-.34,4.079C.447,213.678.3,216.4.18,219.116c-.048,1.432-.1,2.865-.146,4.322C.01,225.429-.014,227.42.01,229.41M13.169,165a185.453,185.453,0,0,1,15.271-31.829A49.248,49.248,0,0,0,32.665,151.6a212.992,212.992,0,0,0-16.024,34.719A49.438,49.438,0,0,1,13.169,165M196.6,334.684c0,6.9.024,13.5.121,19.86a447.108,447.108,0,0,1-49.116-6.118c-.267-6.482-.413-13.256-.388-20.151,0-6.07.146-12.334.364-18.646a444.1,444.1,0,0,0,49.189,6.07q-.146,9.614-.17,18.986m-51.811-28.455a357.386,357.386,0,0,1-44.7-11.435,379.15,379.15,0,0,1,5-40.594,341.915,341.915,0,0,0,42.925,10.95c-1.553,13.96-2.646,27.751-3.229,41.08m-41.929-55.744A237.088,237.088,0,0,1,66.51,234.849a317.686,317.686,0,0,1,12.528-39.307,219.01,219.01,0,0,0,33.432,14.324c-3.884,13.5-7.114,27.144-9.614,40.618m78.76-193.551a70.21,70.21,0,0,0,9.1,3.982,295.091,295.091,0,0,0-22.434,28.673,112.333,112.333,0,0,1-16.218-6.895,271.651,271.651,0,0,1,29.547-25.76M149.81,81.48a68.534,68.534,0,0,1-12.382-8.741,270.9,270.9,0,0,1,35.156-21.972,42.97,42.97,0,0,0,6.8,4.929A279.953,279.953,0,0,0,149.81,81.48m16.874,10.488a373.62,373.62,0,0,0-20.127,33.48,157,157,0,0,1-22.968-9.809A317.2,317.2,0,0,1,150,84.782a113.789,113.789,0,0,0,16.679,7.187m-21.462,36.005c-6.192,11.848-11.97,24.3-17.19,37.074a190.671,190.671,0,0,1-28.673-12.285,340.157,340.157,0,0,1,22.531-34.84,156.744,156.744,0,0,0,23.332,10.051m-18.258,39.7c-5.147,12.892-9.76,26.148-13.693,39.453A219.336,219.336,0,0,1,80.106,192.9a337.29,337.29,0,0,1,17.87-37.656,191.275,191.275,0,0,0,28.988,12.431m-62.955,65.82a143.794,143.794,0,0,1-27.144-19.3l-.631-.583A249.6,249.6,0,0,1,51,176.07,135.364,135.364,0,0,0,76.634,194.23a312.416,312.416,0,0,0-12.625,39.259m-11.7-60.066A273.734,273.734,0,0,1,73.43,138.195a117.239,117.239,0,0,0,22.215,15.757A343.888,343.888,0,0,0,77.678,191.56,131.76,131.76,0,0,1,52.72,173.836Zm20.9-39.356A62.6,62.6,0,0,1,60.44,116.757,251.833,251.833,0,0,1,89.5,88.278a53.7,53.7,0,0,0,10.44,13.96,288.085,288.085,0,0,0-26.731,31.829m28.552-30.106a95.4,95.4,0,0,0,17.845,12.722,344.022,344.022,0,0,0-22.579,34.792,115.084,115.084,0,0,1-21.754-15.441l-.194-.194a289.982,289.982,0,0,1,26.682-31.878m1.991-2.039a289.071,289.071,0,0,1,31.368-27.435,70.972,70.972,0,0,0,12.649,9.056A316.459,316.459,0,0,0,121.332,114.4a94.331,94.331,0,0,1-17.578-12.479m24.716-40.449c4.224-2.379,8.546-4.637,12.868-6.749A255.919,255.919,0,0,1,167,43.8a23.533,23.533,0,0,0,3.86,5.268,272.57,272.57,0,0,0-35.2,22,37.5,37.5,0,0,1-7.187-9.59m39.4-25.468a253.521,253.521,0,0,1,42.051-5.948,258.333,258.333,0,0,0-41.153,10.707,13.125,13.125,0,0,1-.9-4.759M211.6,32c.024.024.049.073.073.1a252.263,252.263,0,0,0-34.864,13.96l-3.35,1.675a22.673,22.673,0,0,1-3.739-4.9A258.208,258.208,0,0,1,211.6,32m1.724,1.893c.146.1.267.219.388.316A228.5,228.5,0,0,0,181.786,53.9a40.055,40.055,0,0,1-6.531-4.516c1.044-.51,2.064-1.02,3.108-1.529a245.711,245.711,0,0,1,34.961-13.96m2.6,1.675c.291.146.559.267.85.389A218.194,218.194,0,0,0,192.662,58.73a70.77,70.77,0,0,1-8.619-3.593,223.91,223.91,0,0,1,31.878-19.569m3.278,1.287c.461.146.947.267,1.432.388a236.9,236.9,0,0,0-15.2,24.886,97,97,0,0,1-10.318-2.6A210.217,210.217,0,0,1,219.2,36.855M204.146,64.582c-4.88,9.323-9.639,19.642-14.2,30.689a164.314,164.314,0,0,1-19.2-4.856,292.712,292.712,0,0,1,22.385-28.673,101.434,101.434,0,0,0,11.022,2.84M188.875,97.868c-4.468,11.071-8.74,22.943-12.746,35.3a224.437,224.437,0,0,1-27.047-6.871,371.436,371.436,0,0,1,20.03-33.5,168.871,168.871,0,0,0,19.763,5.074m-13.6,38c-3.933,12.406-7.623,25.4-10.925,38.628a271.27,271.27,0,0,1-33.724-8.6c5.2-12.771,10.95-25.25,17.117-37.074a231.284,231.284,0,0,0,27.532,7.041m-11.605,41.4c-3.278,13.353-6.191,27.022-8.691,40.715a315.955,315.955,0,0,1-39.041-9.954c3.934-13.329,8.5-26.61,13.621-39.477a277.678,277.678,0,0,0,34.111,8.716m-9.2,43.532c-2.476,13.887-4.54,27.848-6.143,41.517a343,343,0,0,1-42.73-10.9c2.476-13.5,5.681-27.144,9.566-40.642a319.209,319.209,0,0,0,39.307,10.027m-3.593,44.892a420.177,420.177,0,0,0,47.174,5.851c-.607,14.058-1.02,27.969-1.238,41.347a441.361,441.361,0,0,1-49.116-6.118c.558-13.256,1.627-27.071,3.181-41.08m47,124.065A415.992,415.992,0,0,1,150.9,383.9c-1.53-9.979-2.574-20.953-3.181-32.655a447.376,447.376,0,0,0,49.043,6.07c.194,11.629.558,22.531,1.117,32.437m-49.966-6.41a346.432,346.432,0,0,1-42.609-10.926,219.339,219.339,0,0,1-5.074-33.043,357.387,357.387,0,0,0,44.552,11.314,325.142,325.142,0,0,0,3.132,32.655m-47.9-46.907c-.461-6.555-.68-13.378-.656-20.321,0-6.045.194-12.236.558-18.428a359.383,359.383,0,0,0,44.746,11.387c-.242,6.458-.388,12.843-.388,19.059-.024,6.774.1,13.4.388,19.739a355.482,355.482,0,0,1-44.649-11.435m-2.743-42.585a245.634,245.634,0,0,1-37.948-16.34,276.892,276.892,0,0,1,6.507-39.817A241.7,241.7,0,0,0,102.345,253.3a381.959,381.959,0,0,0-5.074,40.545m-.777,22.021c-.024,6.652.194,13.232.607,19.593a246.455,246.455,0,0,1-37.827-16.316c-.607-6.652-.923-13.547-.9-20.54,0-5.924.243-11.993.7-18.087A247.559,247.559,0,0,0,97.1,296.735c-.389,6.458-.607,12.892-.607,19.132M56.7,276.05a150.287,150.287,0,0,1-28.164-20.006l-.777-.728a223.451,223.451,0,0,1,7.6-38.749,147.07,147.07,0,0,0,27.945,19.739,279.245,279.245,0,0,0-6.6,39.744M34.1,211.565a77.2,77.2,0,0,1-16.024-21.923,213.805,213.805,0,0,1,15.878-35.326A74.714,74.714,0,0,0,49,174.176,254.112,254.112,0,0,0,34.1,211.565m1.505-60.09A229.248,229.248,0,0,1,58.5,119.063,65.623,65.623,0,0,0,71.536,136.4a276.248,276.248,0,0,0-21.22,35.131A70.642,70.642,0,0,1,35.6,151.475M56.361,97.237A211.593,211.593,0,0,1,85.569,72.424,34.5,34.5,0,0,0,88.434,86,252.407,252.407,0,0,0,59.348,114.28a39.641,39.641,0,0,1-2.986-17.044M88.288,70.53A225.9,225.9,0,0,1,116.33,54.214c2.21-1.068,4.419-2.112,6.652-3.132A25.975,25.975,0,0,0,125,60.721a263.534,263.534,0,0,0-34.282,23.4,31.774,31.774,0,0,1-2.428-13.6m.291-3.035a36.133,36.133,0,0,1,4.492-12.6c4.2-2.5,8.571-4.856,12.989-7.017A190.819,190.819,0,0,1,125.6,39.623a27.175,27.175,0,0,0-2.5,8.862c-2.695,1.19-5.341,2.452-7.988,3.739A228.79,228.79,0,0,0,88.579,67.495m37.414-4.613a39.227,39.227,0,0,0,7.356,9.906A286.719,286.719,0,0,0,101.933,100.2a51.072,51.072,0,0,1-10.2-13.766,257.9,257.9,0,0,1,34.257-23.55M125.8,49.844a240.5,240.5,0,0,1,39.259-13.159,15.943,15.943,0,0,0,1,5.026A260.378,260.378,0,0,0,139.88,52.83c-4.152,2.04-8.328,4.225-12.382,6.483a23.158,23.158,0,0,1-1.7-9.469m.243-2.622a26.12,26.12,0,0,1,3.131-8.838,207.788,207.788,0,0,1,37.317-8.74,15.789,15.789,0,0,0-1.336,4.686,239.562,239.562,0,0,0-39.113,12.892m5.1-11.9a45,45,0,0,1,7.186-7.72,160.169,160.169,0,0,1,32.849-4.662,24.4,24.4,0,0,0-3.375,4.249,209.661,209.661,0,0,0-36.661,8.133m78.2-7.429a250.842,250.842,0,0,0-41.225,5.754,14.88,14.88,0,0,1,1.578-4.419A226.355,226.355,0,0,1,209.342,27.9M171.3,26.779a27.993,27.993,0,0,1,3.714-3.957,188.8,188.8,0,0,1,36.006,2.962,229.892,229.892,0,0,0-39.72,1m6.628-6.215a48.072,48.072,0,0,1,5.633-3.4,141.549,141.549,0,0,1,30.227,6.774.243.243,0,0,1-.121.1,190.73,190.73,0,0,0-35.739-3.472m9.469-5.2a77.03,77.03,0,0,1,7.7-2.816,93.3,93.3,0,0,1,21.9,9.615c-.243.1-.486.218-.7.315a144.121,144.121,0,0,0-28.892-7.114m11.727-3.958c.461-.121.922-.243,1.408-.34,2.743-.68,5.584-1.238,8.425-1.7a59.437,59.437,0,0,1,12.382,11.459c-.218.049-.461.1-.68.146-.315.073-.631.17-.947.243a100.1,100.1,0,0,0-20.588-9.809m23.89,26.318c.656.121,1.311.194,1.991.267-1.893,7.624-3.763,16.34-5.608,25.978-3.909-.291-7.769-.753-11.508-1.408a231.132,231.132,0,0,1,15.125-24.837m-4.1,28.868c-1.8,9.736-3.569,20.418-5.244,31.756a197.4,197.4,0,0,1-21.2-2.622c4.516-11.047,9.275-21.365,14.106-30.688,3.982.7,8.133,1.238,12.334,1.554m-5.632,34.476c-1.675,11.387-3.254,23.575-4.735,36.272a285.206,285.206,0,0,1-29.79-3.69c3.982-12.382,8.231-24.254,12.673-35.3a208.145,208.145,0,0,0,21.851,2.719m-5.05,39.04c-1.457,12.649-2.816,25.93-4.055,39.5a342.573,342.573,0,0,1-37.1-4.613c3.277-13.208,6.919-26.2,10.828-38.652a281.157,281.157,0,0,0,30.324,3.763M203.9,182.431c-1.214,13.62-2.306,27.508-3.229,41.4a391.448,391.448,0,0,1-42.9-5.341c2.5-13.669,5.389-27.362,8.619-40.716a344.12,344.12,0,0,0,37.51,4.662m-3.423,44.236c-.923,14.057-1.7,28.188-2.306,42.027a427.436,427.436,0,0,1-46.98-5.851c1.578-13.669,3.618-27.629,6.095-41.541a383.738,383.738,0,0,0,43.191,5.366m-.315,190.977a395.8,395.8,0,0,1-42.9-5.365,188.659,188.659,0,0,1-5.924-25.614,428.766,428.766,0,0,0,46.688,5.754c.558,9.323,1.287,17.8,2.137,25.225m.315,2.549c.85,6.8,1.821,12.7,2.913,17.578a335.8,335.8,0,0,1-37.1-4.662A92.128,92.128,0,0,1,158.162,415a392.732,392.732,0,0,0,42.318,5.2M162.9,432.479a271.2,271.2,0,0,1-32.995-8.571,91.525,91.525,0,0,1-12.867-19.059,317.393,317.393,0,0,0,38.02,9.566,98.923,98.923,0,0,0,7.842,18.063M115.48,401.717a142.649,142.649,0,0,1-9.42-26.342,348.117,348.117,0,0,0,42.294,10.731,196.2,196.2,0,0,0,5.827,25.59,314.618,314.618,0,0,1-38.7-9.979m-3.472-1.165a213.118,213.118,0,0,1-32.267-14.033A138.318,138.318,0,0,1,67.408,359.3a241.406,241.406,0,0,0,35.544,15.053,150.624,150.624,0,0,0,9.056,26.2M66.315,355.83A179.7,179.7,0,0,1,59.59,322.35,251.454,251.454,0,0,0,97.3,338.4a226.029,226.029,0,0,0,4.929,32.97A233.817,233.817,0,0,1,66.315,355.83m-3.253-1.821a142.478,142.478,0,0,1-26-18.6l-.923-.874a167.357,167.357,0,0,1-7.915-33.675,154.785,154.785,0,0,0,28.5,19.933,180.474,180.474,0,0,0,6.337,33.214M27.737,296.93A189.967,189.967,0,0,1,26.668,276.1c0-5.754.267-11.605.777-17.432a152.95,152.95,0,0,0,28.989,20.418c-.51,6.434-.777,12.892-.8,19.2,0,6.531.243,13.013.777,19.277a149.858,149.858,0,0,1-27.8-19.836Zm-2.331-43.9A79.783,79.783,0,0,1,8.9,230.284a193.655,193.655,0,0,1,8.012-37.1A82.428,82.428,0,0,0,33.2,214.528a228.5,228.5,0,0,0-7.794,38.506m4.079-130.669a45.534,45.534,0,0,0-.923,6.167,187.186,187.186,0,0,0-10.8,19.69,222.752,222.752,0,0,1,11.727-25.857m1.529,6.677a195.8,195.8,0,0,1,22.7-29.062,42.772,42.772,0,0,0,3.618,16.631,233.4,233.4,0,0,0-22.968,32.072,45.189,45.189,0,0,1-3.351-19.642M57.162,83.155a43.061,43.061,0,0,0-3.326,13.281,199.87,199.87,0,0,0-22.215,27.411,50.593,50.593,0,0,1,4.006-12.358c3.01-4.977,5.9-9.4,8.764-13.475A166.511,166.511,0,0,1,57.162,83.155m31.829-25.76a35.579,35.579,0,0,0-3.3,12.067A214.642,214.642,0,0,0,56.75,93.473a43.984,43.984,0,0,1,5.681-15.587A177.807,177.807,0,0,1,88.992,57.395m8.425-12.406A53.669,53.669,0,0,0,91.1,53.413,176.308,176.308,0,0,0,68.112,69.85c.17-.218.364-.437.534-.656A224.911,224.911,0,0,1,94.795,46.712c.85-.558,1.724-1.141,2.622-1.724M110.26,37.85a142.228,142.228,0,0,1,23.04-8.862,39.587,39.587,0,0,0-6.07,7.648,187.381,187.381,0,0,0-22.167,9.177c-3.107,1.53-6.215,3.132-9.225,4.832a61.148,61.148,0,0,1,9.906-10.488c1.36-.7,2.937-1.505,4.516-2.307m34.816-18.039a69.45,69.45,0,0,0-8.109,5.8,146.341,146.341,0,0,0-20.054,6.773c4.273-2.452,8.3-4.613,12.188-6.506,1.87-.923,3.763-1.772,5.658-2.6l1.262-.582c3.01-1.117,6.021-2.088,9.056-2.889m7.794-1.724a109.846,109.846,0,0,1,26.318-1.311,43.44,43.44,0,0,0-5.463,3.836A163.821,163.821,0,0,0,142.6,24.279a80.957,80.957,0,0,1,10.27-6.191m37.9-6.6a68.321,68.321,0,0,0-7.575,3.156l-.364.17a114.721,114.721,0,0,0-22.919.024,133.725,133.725,0,0,1,12.6-4.54,59.777,59.777,0,0,1,18.258,1.19m15.053-3.933c-2.064.364-4.127.8-6.118,1.287q-2.476.619-4.807,1.311a66.2,66.2,0,0,0-13.572-2.234c.777-.194,1.578-.364,2.355-.534l1.262-.267c3.909-.753,8.085-1.457,12.382-2.04a22.219,22.219,0,0,1,8.5,2.477M222.5,5.681a125.467,125.467,0,0,0-13.038,1.262,32.077,32.077,0,0,0-5.414-2.695q8.522-.911,17.092-1.166a11.336,11.336,0,0,1,1.36,2.6m.777,2.282a112.346,112.346,0,0,1,2.816,12.188c-.753.048-1.505.121-2.234.218A67.6,67.6,0,0,0,212.28,8.886c3.593-.461,7.284-.777,11-.923m4.006-2.4c-.753,0-1.505,0-2.258.024a21.274,21.274,0,0,0-1.068-2.574c1.117-.024,2.21-.024,3.326-.024Zm0,8.789c-.534-2.5-1.044-4.661-1.554-6.458.51-.024,1.044-.024,1.554-.024Zm0,49.942c-1.845-.024-3.666-.073-5.487-.17,1.8-9.663,3.617-18.379,5.462-25.954h.024Zm0,34.573c-3.69,0-7.381-.121-11.071-.34,1.626-11.362,3.35-22.045,5.1-31.781,1.991.121,3.982.17,5.973.194Zm0,39.186q-8.048-.037-16.073-.534c1.457-12.649,2.986-24.861,4.613-36.273,3.788.243,7.624.364,11.46.389Zm0,42.391q-10.2-.037-20.321-.656c1.19-13.5,2.525-26.78,3.958-39.5,5.438.34,10.9.51,16.364.558Zm0,44.333c-7.915-.024-15.854-.291-23.72-.777.9-13.863,1.967-27.775,3.156-41.371,6.822.389,13.693.632,20.564.656Zm0,44.964c-8.716-.024-17.481-.316-26.148-.85.583-13.863,1.335-27.993,2.234-42.027,7.939.485,15.927.753,23.914.777Zm0,44.236c-9.177-.024-18.355-.34-27.484-.9.243-13.378.632-27.265,1.214-41.347,8.716.534,17.505.826,26.27.85Zm0,41.638c-9.2-.024-18.4-.316-27.556-.874q-.146-9.578-.121-20.006c0-6.191.048-12.479.146-18.816q13.73.838,27.532.874Zm0,35.18q-13.256-.036-26.415-.85c-.558-9.881-.923-20.807-1.117-32.436q13.73.837,27.532.874Zm0,27.848c-8.06-.049-16.17-.316-24.182-.826-.85-7.4-1.554-15.878-2.088-25.2,8.716.558,17.505.826,26.27.85Zm0,20.006c-7.017,0-14.033-.243-21-.68-1.068-4.831-2.039-10.755-2.889-17.578,7.915.485,15.927.753,23.89.777Zm-15.393,13.693q7.685.437,15.393.461v.679c-4.856-.049-9.784-.243-14.737-.582a6.773,6.773,0,0,1-.656-.558m-1.675-2.379a43.5,43.5,0,0,1-3.351-9.542c6.774.412,13.6.631,20.418.631v9.469c-5.706,0-11.411-.194-17.068-.559m-17.117.7q7.612.947,15.417,1.457a3.1,3.1,0,0,0,.315.461c-5.268-.437-10.537-1.093-15.733-1.918m-25.032-14.786a339.128,339.128,0,0,0,35.909,4.346,54.209,54.209,0,0,0,3.2,9.542A280.47,280.47,0,0,1,177.634,446a39.691,39.691,0,0,1-9.566-10.124m-20.079,2.6a63.9,63.9,0,0,1-14.713-11,275.057,275.057,0,0,0,31.271,7.745,47.372,47.372,0,0,0,8.061,9.784,212.628,212.628,0,0,1-24.619-6.531m-41.978-21.559a207.1,207.1,0,0,0,22.409,8.983,70.65,70.65,0,0,0,9.1,8.449,228.544,228.544,0,0,1-27.6-14.494c-1.335-.947-2.622-1.942-3.909-2.938M82.267,390.6a221.736,221.736,0,0,0,31.247,13.086,99.278,99.278,0,0,0,11.848,18.671A181.854,181.854,0,0,1,98.7,410.6,112.725,112.725,0,0,1,82.267,390.6M57.721,374.913a143.141,143.141,0,0,0,20.224,13.378,119.434,119.434,0,0,0,13.329,17.942c-2.5-1.6-4.953-3.278-7.308-5.026a224.862,224.862,0,0,1-21.9-20.856c-1.481-1.772-2.938-3.593-4.346-5.438M37.982,339.491A149.78,149.78,0,0,0,64.131,357.53a143.529,143.529,0,0,0,11.411,26.634,129.218,129.218,0,0,1-22.482-16.291l-1.02-.947a149.64,149.64,0,0,1-14.057-27.435M25.406,326.356a90.54,90.54,0,0,0,8.692,9.566,151.083,151.083,0,0,0,9.809,21.827,229.6,229.6,0,0,1-18.039-30.4c-.146-.34-.316-.655-.461-1M9.916,278.939a87.986,87.986,0,0,0,15.441,19.253,171.6,171.6,0,0,0,6.992,32.558,77.047,77.047,0,0,1-12.673-17.359c-1.7-4.176-3.375-8.643-4.9-13.184a172.85,172.85,0,0,1-4.856-21.268M7.707,250.7c.024-5.22.267-10.488.7-15.733a87.329,87.329,0,0,0,16.631,21.462c-.607,6.434-.923,12.916-.947,19.277,0,6.24.267,12.431.85,18.5a79.887,79.887,0,0,1-16.1-22.458A197.158,197.158,0,0,1,7.707,250.7m-.68-24.886a52.438,52.438,0,0,1-3.205-17.408C4.4,202.121,5.3,195.42,6.541,188.6c1.19-5.681,2.646-11.217,4.3-16.509a53.415,53.415,0,0,0,4.54,17.918,195.365,195.365,0,0,0-8.352,35.811M3.07,221.034a56.838,56.838,0,0,0,3.35,9.857,185.526,185.526,0,0,0-1.044,19.4c-.024,4.394.146,8.813.437,13.159-.121-.461-.243-.923-.364-1.408A223.957,223.957,0,0,1,3.07,221.034" transform="translate(0)" fill="#089768" fill-rule="evenodd"/>
  </g>
</svg>
