<svg xmlns="http://www.w3.org/2000/svg" width="40.325" height="34.887" viewBox="0 0 40.325 34.887">
  <g id="XMLID_439_" transform="translate(0 -22.25)">
    <path id="XMLID_440_" d="M188.295,36.855a7.668,7.668,0,1,0,0-13.874,11.3,11.3,0,0,1,0,13.874Z" transform="translate(-165.286)" fill="#089768"/>
    <path id="XMLID_441_" d="M203.91,177.816a17.869,17.869,0,0,1,3.666,3.859,17.613,17.613,0,0,1,3.094,8.294,17.845,17.845,0,0,1,.094,1.833,5.473,5.473,0,0,1-.315,1.833h7.036a1.833,1.833,0,0,0,1.833-1.833,14.069,14.069,0,0,0-14.053-14.053Q204.585,177.75,203.91,177.816Z" transform="translate(-178.993 -136.498)" fill="#089768"/>
    <path id="XMLID_443_" d="M59.918,37.586a7.668,7.668,0,1,0-7.668-7.668A7.66,7.66,0,0,0,59.918,37.586Z" transform="translate(-45.865)" fill="#089768"/>
    <path id="XMLID_444_" d="M1.833,193.636H26.272a1.833,1.833,0,0,0,1.833-1.833,14.1,14.1,0,0,0-7.945-12.655A14.05,14.05,0,0,0,0,191.8,1.833,1.833,0,0,0,1.833,193.636Z" transform="translate(0 -136.498)" fill="#089768"/>
  </g>
</svg>
