<svg id="growth" xmlns="http://www.w3.org/2000/svg" width="35.904" height="35.904" viewBox="0 0 35.904 35.904">
  <path id="Path_4668" data-name="Path 4668" d="M151,6.311h3.156V27.419h8.415V6.311h3.156L158.363,0Z" transform="translate(-140.411)" fill="#fff"/>
  <path id="Path_4669" data-name="Path 4669" d="M351.259,187.325h2.1l-5.259-6.31-2.1,2.524v12.2h5.259Z" transform="translate(-321.737 -168.321)" fill="#fff"/>
  <path id="Path_4670" data-name="Path 4670" d="M68.363,195.74v-12.2l-2.1-2.524L61,187.325h2.1v8.415Z" transform="translate(-56.722 -168.321)" fill="#fff"/>
  <path id="Path_4671" data-name="Path 4671" d="M347.774,421l3.155,6.381h8.361L353.961,421Z" transform="translate(-323.386 -391.477)" fill="#fff"/>
  <path id="Path_4672" data-name="Path 4672" d="M155.934,421l-3.155,6.381h14.477L164.1,421Z" transform="translate(-142.064 -391.477)" fill="#fff"/>
  <path id="Path_4673" data-name="Path 4673" d="M11.517,421H5.329L0,427.381H8.361Z" transform="translate(0 -391.477)" fill="#fff"/>
</svg>
