<svg id="Group_64" data-name="Group 64" xmlns="http://www.w3.org/2000/svg" width="93.164" height="32.98" viewBox="0 0 93.164 32.98">
  <g id="Hertz-Logo">
    <path id="Path_1753" data-name="Path 1753" d="M201.009,191.456H114.2l1-4.693,86.814,0Z" transform="translate(-114.2 -158.476)" fill="#656565"/>
    <path id="Path_1754" data-name="Path 1754" d="M365.617,91.746c-.776-.835-.312-2.5.086-4.372L367.058,81h5.569l1.009-4.742h-5.574l.989-4.732H363.8l-3.441,16.279c-.518,2.432-.712,4.335.341,6.384.982,1.9,4.335,3.724,8.579,2.575l.938-4.4C367.34,92.723,366.184,92.35,365.617,91.746Z" transform="translate(-299.621 -71.53)" fill="#656565"/>
    <path id="Path_1755" data-name="Path 1755" d="M140.8,71.53l-2.506,11.757h-9.214l2.5-11.757h-5.3L120.92,96.768h5.295l1.851-8.746h9.219l-1.856,8.746h5.253l5.363-25.238Z" transform="translate(-119.271 -71.53)" fill="#656565"/>
    <path id="Path_1756" data-name="Path 1756" d="M306.389,91.447c-1.838,1.534-2.882,3.544-3.559,6.716l-2.55,12.005h5.255l2.118-9.956c.5-2.329.884-3.785,1.757-4.681,1.2-1.23,2.948-1.3,5.042-1.124l1.011-4.742A10.065,10.065,0,0,0,306.389,91.447Z" transform="translate(-254.605 -84.933)" fill="#656565"/>
    <path id="Path_1757" data-name="Path 1757" d="M428.461,90.81h-16.4l-1,4.742h9.516l-11.9,11.2-.967,4.561h16.4l1.011-4.74h-9.57L427.5,95.322Z" transform="translate(-335.658 -86.078)" fill="#656565"/>
    <path id="Path_1758" data-name="Path 1758" d="M232.344,89.28a10.737,10.737,0,0,0-6.588,2.423c-5.378,4.219-8.049,18.832,3.5,18.832a14.932,14.932,0,0,0,8.635-2.69l-2.089-3.53c-1.748,1.345-10.552,4.269-9.624-2.867h13.763c0-.015,1.755-5.719-.768-9.17C237.025,89.332,233.065,89.28,232.344,89.28Zm3.417,7.823h-8.424a5.293,5.293,0,0,1,5.407-3.621A3.07,3.07,0,0,1,235.761,97.1Z" transform="translate(-194.902 -84.923)" fill="#656565"/>
    <g id="Registered_Trademark_2_" transform="translate(90.177 22.604)">
      <path id="Path_1759" data-name="Path 1759" d="M483.4,163.62h-.015a1.913,1.913,0,0,0-1.772,1.465,1.464,1.464,0,0,0-.032.307v0a1.119,1.119,0,0,0,1.178,1.144.009.009,0,0,0,0,0,1.921,1.921,0,0,0,1.772-1.468,1.453,1.453,0,0,0,.032-.3A1.112,1.112,0,0,0,483.4,163.62Zm.938,1.411a1.721,1.721,0,0,1-1.573,1.306h0a.915.915,0,0,1-.979-.945,1.274,1.274,0,0,1,.029-.268,1.716,1.716,0,0,1,1.564-1.306.918.918,0,0,1,.992.947A1.153,1.153,0,0,1,484.336,165.031Z" transform="translate(-481.58 -163.62)" fill="#656565"/>
      <path id="Path_1760" data-name="Path 1760" d="M485.681,166.72h-.623l-.3,1.4h.309l.1-.452h.245l.2.452h.363l-.238-.5a.572.572,0,0,0,.4-.437C486.191,166.889,486.014,166.72,485.681,166.72Zm.133.479a.269.269,0,0,1-.285.2h-.307l.086-.41h.3C485.764,166.992,485.843,167.061,485.813,167.2Z" transform="translate(-483.979 -165.959)" fill="#656565"/>
    </g>
  </g>
</svg>
