<svg xmlns="http://www.w3.org/2000/svg" width="20" height="20" viewBox="0 0 32 29.247">
  <path id="hexagon-check_1_" data-name="hexagon-check(1)" d="M31.062,12.274,26.408,4.3A6.669,6.669,0,0,0,20.667,1h-9.4A6.674,6.674,0,0,0,5.523,4.3L.87,12.274a6.655,6.655,0,0,0,0,6.7L5.523,26.95a6.669,6.669,0,0,0,5.742,3.3h9.4a6.674,6.674,0,0,0,5.742-3.3l4.653-7.977A6.662,6.662,0,0,0,31.062,12.274Zm-6.855,1.371-5.884,5.777a5.29,5.29,0,0,1-7.413.029L8.386,16.967a1.329,1.329,0,0,1,1.864-1.9l2.517,2.474a2.641,2.641,0,0,0,3.7-.024l5.883-5.775a1.329,1.329,0,1,1,1.861,1.9Z" transform="translate(0.034 -1)" fill="#089768"/>
</svg>
