<svg xmlns="http://www.w3.org/2000/svg" width="19" height="17.365" viewBox="0 0 19 17.365">
  <path id="hexagon-check_1_" data-name="hexagon-check(1)" d="M18.429,7.694,15.666,2.958A3.96,3.96,0,0,0,12.257,1H6.675A3.963,3.963,0,0,0,3.266,2.958L.5,7.694a3.952,3.952,0,0,0,0,3.978l2.763,4.736a3.96,3.96,0,0,0,3.409,1.958h5.582a3.963,3.963,0,0,0,3.409-1.958l2.763-4.736A3.955,3.955,0,0,0,18.429,7.694Zm-4.07.814-3.494,3.43a3.141,3.141,0,0,1-4.4.017l-1.5-1.475A.789.789,0,0,1,6.072,9.355l1.494,1.469a1.568,1.568,0,0,0,2.2-.014L13.254,7.38a.789.789,0,1,1,1.105,1.126Z" transform="translate(0.034 -1)" fill="#e1e1e1"/>
</svg>
