<svg id="HP_New_Logo_2D" xmlns="http://www.w3.org/2000/svg" width="51.498" height="51.497" viewBox="0 0 51.498 51.497">
  <path id="Path_1763" data-name="Path 1763" d="M229.358,212.7l-5.54,15.533h3.766c2.713,0,3.867,2.14,3.013,4.535l-5.509,15.445h-5.543l6.061-16.994h-2.854l-6.06,16.994H211.1l12.436-34.87A25.755,25.755,0,0,0,223,263.42l12.564-35.276h9.1c1.882,0,4.249,1.269,3.226,4.157l-5.109,14.425a3.322,3.322,0,0,1-3.439,2.216H233.75l-5.425,15.232c.319.012.639.02.962.02a25.748,25.748,0,0,0,.071-51.5Zm10.719,18.478L234.8,245.988h2.81l5.278-14.813Z" transform="translate(-203.538 -212.697)" fill="#656565"/>
</svg>
