<svg xmlns="http://www.w3.org/2000/svg" width="56" height="55.995" viewBox="0 0 56 55.995">
  <path id="hr-person" d="M22.166,5.833A5.833,5.833,0,1,1,28,11.666,5.832,5.832,0,0,1,22.166,5.833ZM20.3,26.987a5.175,5.175,0,0,0-7.949,1.244,5.316,5.316,0,0,0,.635,6.034l7.566,7.641-3.276,3.276-8.019-8.1A9.877,9.877,0,0,1,9.549,24.2c.343-.378,2.116-1.815,2.116-1.815V13.164A6.063,6.063,0,0,0,6.434,7.027,5.834,5.834,0,0,0,0,12.83V41.738a9.328,9.328,0,0,0,2.443,6.295l7.272,7.961H32.663V41.313a7,7,0,0,0-2.293-5.182L20.3,26.985Zm22.713,7.279-5.8,5.908a11.644,11.644,0,0,0-3.7-7.494l-2.039-1.853,4.23-3.84a5.175,5.175,0,0,1,7.949,1.244,5.316,5.316,0,0,1-.635,6.034ZM56,12.832V41.74a9.328,9.328,0,0,1-2.443,6.295L46.281,56h-8.95V46.618l9.41-9.538A9.877,9.877,0,0,0,46.449,24.2c-.343-.378-2.116-1.815-2.116-1.815V12.832a5.833,5.833,0,1,1,11.666,0Zm-32.561,10.7L28,27.676l4.566-4.144a9.774,9.774,0,0,1,4.767-2.382V19.832A5.839,5.839,0,0,0,31.5,14h-7a5.839,5.839,0,0,0-5.833,5.833v1.321a9.8,9.8,0,0,1,4.769,2.384Z" transform="translate(0.001)" fill="#089768"/>
</svg>
