<svg xmlns="http://www.w3.org/2000/svg" width="32.067" height="42.098" viewBox="0 0 32.067 42.098">
  <g id="guru_1_" data-name="guru(1)" transform="translate(-61)">
    <path id="Path_1862" data-name="Path 1862" d="M83.611,360h-.822a5.756,5.756,0,1,1-11.511,0h-.822A9.466,9.466,0,0,0,61,369.456v1.809a1.233,1.233,0,0,0,1.233,1.233h29.6a1.233,1.233,0,0,0,1.233-1.233v-1.809A9.466,9.466,0,0,0,83.611,360Z" transform="translate(0 -330.4)" fill="#ffffff"/>
    <g id="Group_133" data-name="Group 133" transform="translate(61.559)">
      <path id="Path_1863" data-name="Path 1863" d="M216,345v1.233a3.289,3.289,0,1,0,6.578,0V345Z" transform="translate(-203.814 -316.633)" fill="#ffffff"/>
      <g id="Group_132" data-name="Group 132">
        <path id="Path_1864" data-name="Path 1864" d="M242.233,4.933A1.233,1.233,0,0,0,243.467,3.7V1.233a1.233,1.233,0,1,0-2.467,0V3.7A1.233,1.233,0,0,0,242.233,4.933Z" transform="translate(-226.758)" fill="#ffffff"/>
        <path id="Path_1865" data-name="Path 1865" d="M141.163,28.643l1.233,2.136a1.233,1.233,0,0,0,2.136-1.233L143.3,27.41a1.233,1.233,0,1,0-2.136,1.233Z" transform="translate(-134.979 -24.59)" fill="#ffffff"/>
        <path id="Path_1866" data-name="Path 1866" d="M68.41,102.3l2.136,1.233a1.233,1.233,0,1,0,1.233-2.136l-2.136-1.233A1.233,1.233,0,1,0,68.41,102.3Z" transform="translate(-67.793 -91.776)" fill="#ffffff"/>
        <path id="Path_1867" data-name="Path 1867" d="M390.975,100.163l-2.136,1.233a1.233,1.233,0,0,0,1.233,2.136l2.136-1.233a1.233,1.233,0,1,0-1.233-2.136Z" transform="translate(-361.875 -91.776)" fill="#ffffff"/>
        <path id="Path_1868" data-name="Path 1868" d="M326.615,31.231a1.233,1.233,0,0,0,1.685-.451l1.233-2.136A1.233,1.233,0,1,0,327.4,27.41l-1.233,2.136A1.233,1.233,0,0,0,326.615,31.231Z" transform="translate(-304.768 -24.59)" fill="#ffffff"/>
      </g>
      <path id="Path_1869" data-name="Path 1869" d="M155.045,90a9.039,9.039,0,0,0-4.838,16.678,3.329,3.329,0,0,1,1.4,1.822h2.2v-6.478l-2.105-2.105a1.233,1.233,0,0,1,1.744-1.744l1.595,1.595,1.595-1.595a1.233,1.233,0,0,1,1.744,1.744l-2.105,2.105V108.5h2.2a3.33,3.33,0,0,1,1.4-1.822A9.039,9.039,0,0,0,155.045,90Z" transform="translate(-139.57 -82.6)" fill="#ffffff"/>
    </g>
  </g>
</svg>
