<svg id="Group_49" data-name="Group 49" xmlns="http://www.w3.org/2000/svg" xmlns:xlink="http://www.w3.org/1999/xlink" width="40" height="40" viewBox="0 0 40 40">
  <defs>
    <clipPath id="clip-path">
      <path id="Path_1729" data-name="Path 1729" d="M20,0A20,20,0,0,0,0,20H0A20,20,0,0,0,20,40h0A20,20,0,0,0,40,20h0A20,20,0,0,0,20,0Z" fill="none"/>
    </clipPath>
    <radialGradient id="radial-gradient" cx="-0.025" cy="1.003" r="1.849" gradientUnits="objectBoundingBox">
      <stop offset="0" stop-color="#f5ec53"/>
      <stop offset="0.241" stop-color="#e48244"/>
      <stop offset="0.399" stop-color="#d05567"/>
      <stop offset="0.489" stop-color="#c84278"/>
      <stop offset="1" stop-color="#192cfa"/>
    </radialGradient>
    <clipPath id="clip-path-2">
      <rect id="Rectangle_50" data-name="Rectangle 50" width="40" height="40" fill="none"/>
    </clipPath>
  </defs>
  <g id="Group_46" data-name="Group 46">
    <g id="Group_45" data-name="Group 45" clip-path="url(#clip-path)">
      <rect id="Rectangle_49" data-name="Rectangle 49" width="40" height="40" transform="translate(0 0)" fill="url(#radial-gradient)"/>
    </g>
  </g>
  <g id="Group_48" data-name="Group 48">
    <g id="Group_47" data-name="Group 47" clip-path="url(#clip-path-2)">
      <path id="Path_1730" data-name="Path 1730" d="M146.022,137.029c2.928,0,3.275.011,4.431.064a6.065,6.065,0,0,1,2.036.378,3.631,3.631,0,0,1,2.081,2.081,6.07,6.07,0,0,1,.378,2.036c.053,1.156.064,1.5.064,4.431s-.011,3.275-.064,4.431a6.067,6.067,0,0,1-.378,2.036,3.631,3.631,0,0,1-2.081,2.081,6.063,6.063,0,0,1-2.036.378c-1.156.053-1.5.064-4.431.064s-3.275-.011-4.431-.064a6.06,6.06,0,0,1-2.036-.378,3.63,3.63,0,0,1-2.081-2.081,6.072,6.072,0,0,1-.378-2.036c-.053-1.156-.064-1.5-.064-4.431s.011-3.275.064-4.431a6.075,6.075,0,0,1,.378-2.036,3.631,3.631,0,0,1,2.081-2.081,6.062,6.062,0,0,1,2.036-.378c1.156-.053,1.5-.064,4.431-.064m0-1.976c-2.978,0-3.352.013-4.521.066a8.054,8.054,0,0,0-2.662.51,5.607,5.607,0,0,0-3.207,3.207,8.045,8.045,0,0,0-.51,2.662c-.053,1.17-.066,1.543-.066,4.521s.013,3.352.066,4.521a8.045,8.045,0,0,0,.51,2.662,5.607,5.607,0,0,0,3.207,3.207,8.054,8.054,0,0,0,2.662.51c1.17.053,1.543.066,4.521.066s3.352-.013,4.521-.066a8.054,8.054,0,0,0,2.662-.51,5.608,5.608,0,0,0,3.207-3.207,8.053,8.053,0,0,0,.51-2.662c.053-1.17.066-1.543.066-4.521s-.013-3.352-.066-4.521a8.053,8.053,0,0,0-.51-2.662,5.607,5.607,0,0,0-3.207-3.207,8.054,8.054,0,0,0-2.662-.51c-1.17-.053-1.543-.066-4.521-.066" transform="translate(-126.022 -126.019)" fill="#fff"/>
      <path id="Path_1731" data-name="Path 1731" d="M220.439,214.809a5.631,5.631,0,1,0,5.631,5.631,5.631,5.631,0,0,0-5.631-5.631m0,9.287a3.655,3.655,0,1,1,3.655-3.655,3.655,3.655,0,0,1-3.655,3.655" transform="translate(-200.439 -200.44)" fill="#fff"/>
      <path id="Path_1732" data-name="Path 1732" d="M369.461,193.125a1.316,1.316,0,1,1-1.316-1.316,1.316,1.316,0,0,1,1.316,1.316" transform="translate(-342.291 -178.979)" fill="#fff"/>
    </g>
  </g>
</svg>
