<svg xmlns="http://www.w3.org/2000/svg" width="56" height="56" viewBox="0 0 56 56">
  <path id="location-crosshairs" d="M35,28a7,7,0,1,1-7-7A7.009,7.009,0,0,1,35,28Zm21,0a2.333,2.333,0,0,1-2.333,2.333h-2.45A23.376,23.376,0,0,1,30.333,51.217v2.45a2.333,2.333,0,1,1-4.667,0v-2.45A23.376,23.376,0,0,1,4.783,30.333H2.333a2.333,2.333,0,1,1,0-4.667h2.45A23.374,23.374,0,0,1,25.667,4.783V2.333a2.333,2.333,0,1,1,4.667,0v2.45A23.376,23.376,0,0,1,51.217,25.667h2.45A2.333,2.333,0,0,1,56,28ZM39.667,28A11.667,11.667,0,1,0,28,39.667,11.68,11.68,0,0,0,39.667,28Z" fill="#089768"/>
</svg>
