<svg xmlns="http://www.w3.org/2000/svg" xmlns:xlink="http://www.w3.org/1999/xlink" width="135" height="36.461" viewBox="0 0 135 36.461">
  <defs>
    <clipPath id="clip-path">
      <rect id="Rectangle_71" data-name="Rectangle 71" width="135" height="36.461" fill="none"/>
    </clipPath>
  </defs>
  <g id="Group_61" data-name="Group 61" transform="translate(0 0)">
    <g id="Group_60" data-name="Group 60" transform="translate(0 0)" clip-path="url(#clip-path)">
      <path id="Path_1738" data-name="Path 1738" d="M51.193,37.932a6.084,6.084,0,0,1-.839.06c-3.3,0-4.055-2.943-4.568-4.938-.424-1.65-.824-3.206-2.145-3.89-.874-.453-1.942.022-2.794.561a11.881,11.881,0,0,1-4.337,2.164,10.483,10.483,0,0,1-2.636.339,8.9,8.9,0,0,1-9.037-7.742,11.177,11.177,0,0,1,1.539-8.169A7.414,7.414,0,0,1,31.4,13.081a5.6,5.6,0,0,1,4.352,1.327c2.42,2.065,2.531,5.455.288,8.635a1.646,1.646,0,1,1-2.689-1.9c.592-.836,1.8-2.927.266-4.235a2.333,2.333,0,0,0-1.831-.564,4.212,4.212,0,0,0-2.74,1.9,7.9,7.9,0,0,0-.966,5.654,6.06,6.06,0,0,0,2.445,4.077,6.43,6.43,0,0,0,5.166.729,9.821,9.821,0,0,0,6.129-5.236,10.2,10.2,0,0,0,.605-8.1,10.7,10.7,0,0,0-5.756-6.266,9.56,9.56,0,0,0-4.695-.779,1.689,1.689,0,0,1-1.777-1.14,1.644,1.644,0,0,1,1.432-2.132,12.843,12.843,0,0,1,6.405,1.058,13.961,13.961,0,0,1,7.5,8.188,13.45,13.45,0,0,1-.8,10.681c-.177.345-.367.678-.57,1a4.794,4.794,0,0,1,.928.367c2.582,1.337,3.263,3.982,3.76,5.911.668,2.6.906,2.667,1.92,2.531a1.583,1.583,0,1,1,.418,3.139" transform="translate(-16.84 -3.42)" fill="#009565"/>
      <path id="Path_1739" data-name="Path 1739" d="M26.32,40.536h0a1.63,1.63,0,0,1-.841,1.434,18.09,18.09,0,0,1-14.3,1.253,16.173,16.173,0,0,1-9.794-9.579A19.6,19.6,0,0,1,1,20.233a16.373,16.373,0,0,1,7.153-8.74,1.645,1.645,0,1,1,1.679,2.829A13.079,13.079,0,0,0,4.111,21.3a16.246,16.246,0,0,0,.329,11.125,12.927,12.927,0,0,0,7.8,7.685,14.865,14.865,0,0,0,11.652-1.016,1.64,1.64,0,0,1,2.425,1.443" transform="translate(0 -7.695)" fill="#009565"/>
      <path id="Path_1740" data-name="Path 1740" d="M110.533,39.561c-3.215,0-5.42-2.588-5.42-6.152,0-3.6,2.2-6.012,5.42-6.012A4.98,4.98,0,0,1,115.5,31l2.689-.767c-.8-3.393-3.842-5.559-7.653-5.559-4.894,0-8.214,3.5-8.214,8.7,0,5.243,3.32,8.911,8.214,8.911,3.846,0,6.887-2.236,7.653-5.556l-2.689-.77a5,5,0,0,1-4.964,3.6" transform="translate(-69.908 -16.855)" fill="#151515"/>
      <path id="Path_1741" data-name="Path 1741" d="M168.122,39.736c-3.111,0-5.208-2.236-5.486-5.521h13.143a13.017,13.017,0,0,0,.1-1.644,7.56,7.56,0,0,0-7.9-7.9c-4.856,0-8.144,3.532-8.144,8.74s3.288,8.876,8.249,8.876c3.95,0,7.061-2.341,7.8-5.382l-2.55-.909a5.09,5.09,0,0,1-5.211,3.741m-.035-12.512a4.755,4.755,0,0,1,5,4.856h-10.38a5.289,5.289,0,0,1,5.382-4.856" transform="translate(-109.207 -16.855)" fill="#151515"/>
      <path id="Path_1742" data-name="Path 1742" d="M228.2,25.78a6.328,6.328,0,0,0-5.382,2.864h-.6V26.128h-2.794V43.044h2.794V34.412c0-3.6,2.065-5.977,5.033-5.977a3.937,3.937,0,0,1,4.089,4.264V43.044h2.8V32.454c0-4.02-2.515-6.674-5.943-6.674" transform="translate(-149.921 -17.614)" fill="#151515"/>
      <path id="Path_1743" data-name="Path 1743" d="M281.849,22.5a5.115,5.115,0,0,1-2.376.592c-1.261,0-1.888-.735-1.888-2.1V10.577h4.438V8.306h-4.438V0h-2.8V8.306H271.4v2.271h3.389v10.45c0,2.762,1.609,4.4,4.333,4.4a6.539,6.539,0,0,0,3.427-.871Z" transform="translate(-185.428 0)" fill="#151515"/>
      <path id="Path_1744" data-name="Path 1744" d="M324.043,26.22a5.59,5.59,0,0,0-4.682,2.794h-.6V26.429h-2.8V43.344h2.8V34.956c0-4.124,2.411-6.012,4.964-6.012a11.759,11.759,0,0,1,1.749.1l.139-2.585a5.725,5.725,0,0,0-1.574-.244" transform="translate(-215.88 -17.914)" fill="#151515"/>
      <rect id="Rectangle_70" data-name="Rectangle 70" width="2.797" height="16.915" transform="translate(112.475 8.515)" fill="#151515"/>
      <path id="Path_1745" data-name="Path 1745" d="M350.895,2.632a2.629,2.629,0,1,1,2.629,2.629,2.629,2.629,0,0,1-2.629-2.629" transform="translate(-239.743 -0.002)" fill="#009565"/>
      <path id="Path_1746" data-name="Path 1746" d="M382.122,27.147a8.421,8.421,0,1,0,7.71,7.71,8.422,8.422,0,0,0-7.71-7.71m-.683,13.962a5.569,5.569,0,1,1,5.569-5.569,5.572,5.572,0,0,1-5.569,5.569" transform="translate(-254.858 -18.529)" fill="#151515"/>
    </g>
  </g>
</svg>
