<?xml version="1.0" encoding="UTF-8"?>
<svg id="Layer_2" data-name="Layer 2" xmlns="http://www.w3.org/2000/svg" viewBox="0 0 449.38 179.07">
  <defs>
    <style>
      .cls-1 {
        fill: #09ab8a;
        strokeWidth: 0px;
      }
    </style>
  </defs>
  <g id="Layer_1-2" data-name="Layer 1">
    <g>
      <path class="cls-1" d="M104.44,161.39c-1.2,1.56-2.95,2.19-4.63,2.87-2.54,1.03-5.23,1.61-7.92,1.95-28,3.48-51.97-4.43-70.9-25.73C5.26,122.78-1.73,101.69.36,78.29,3.47,43.59,21.27,18.78,53.65,5.3c14.42-6,29.51-7.02,44.72-2.49,1.86.55,3.64,1.28,5.35,2.17.62.32,1.64.63,1.41,1.44-.25.84-1.28.49-1.95.4-4.82-.68-9.67-.8-14.52-.61-10.17.4-19.86,2.85-28.96,7.37-19.15,9.53-32.46,24.5-39.01,44.76-9.63,29.77-4,56.76,17.33,79.88,12.68,13.75,28.69,21.52,47.32,23.6,5.49.61,11.02.49,16.5-.43.72-.12,1.45-.19,2.17-.26.1,0,.21.12.43.26Z"/>
      <path class="cls-1" d="M379.16,59.26c0-1.79-.05-3.58.01-5.37.11-3.36,2.7-6.16,5.89-6.47,3.73-.35,6.94,1.53,7.55,4.97.81,4.58.79,9.26,0,13.84-.56,3.31-4.09,5.51-7.32,5.1-3.51-.45-6.05-3.19-6.14-6.71-.05-1.79,0-3.58,0-5.37,0,0,0,0,0,0Z"/>
      <path class="cls-1" d="M169.26,89.25c.59-9.14-.65-18.16-3.26-26.96-3.84-12.96-10.44-24.3-20.52-33.37-15.77-14.18-34.63-19.3-55.38-17.53-19.26,1.64-35.22,10.36-48.36,24.39-.31.33-.95.61-.53,1.28.57.02.82-.42,1.15-.72,4.99-4.56,10.56-8.28,16.72-11.05,12.73-5.74,26.02-7.25,39.74-4.82,21.43,3.8,36.96,15.51,46.41,35.08,6.11,12.66,7.96,26.1,6.11,40-1.7,12.76-6.58,24.15-15.02,33.97-1.07,1.24-1.94,1.52-3.55.8-7.48-3.37-15.35-5.07-23.56-5.33-12.56-.38-24.62,1.72-36.07,6.98-.88.41-1.89.67-2.82,1.81,10.32-1.78,20.28-2.65,30.34-2,8.46.55,16.75,1.98,24.76,4.84.6.21,1.48.31,1.6,1.02.13.76-.75,1.01-1.27,1.37-6.75,4.78-14.17,8.11-22.19,10.11-17.18,4.28-33.62,2.61-49.17-6.14-.06-.04-.11-.08-.17-.11-1.78-1.19-3.57-2.39-5.35-3.58-.13.2-.26.39-.39.59,1.65,1.38,3.18,2.9,5.14,3.9,0,0,0,0,0,0,.53.39,1.05.81,1.61,1.18,14.55,9.67,30.46,14.24,47.97,12.7,11.84-1.05,22.91-4.51,33.1-10.68,4.13-2.5,4.14-2.6,7.71.73,9.18,8.57,16.42,18.6,22.29,29.66.32.61.44,1.4,1.26,1.73.32-.83.05-1.6-.09-2.36-2.57-14.11-8.91-26.2-19.33-36.09-.97-.92-1.4-1.55-.2-2.72,13.72-13.31,20.1-29.91,21.31-48.66Z"/>
      <path class="cls-1" d="M449.37,117.98c-.08-4.78-.02-9.56-.02-14.33-.48.7-.65,1.41-.77,2.13-1.13,7.04-2.77,13.95-5.57,20.54-2.01,4.73-4.27,9.32-8.26,12.78-.99.86-2.02,1.68-3.83,1.53,1.52-2.31,2.65-4.54,3.36-6.95,3.03-10.27,3.96-20.74,2.56-31.36-.65-4.98-2.34-9.6-6.26-13.02-3.5-3.05-7.41-3.95-11.82-1.91-2.93,1.35-5.17,3.47-7.14,5.93-5.56,6.93-8.16,15.13-10.09,23.62-1.11,4.87-2.5,9.66-4.64,14.19-1.47,3.13-2.94,6.28-5.45,8.76-1.62,1.6-2.98,1.33-3.82-.76-.47-1.16-.76-2.41-.93-3.65-1.48-10.78-.57-21.48,1.14-32.14.64-3.99,1.3-8.07,3.55-11.55,1.26-1.94,1.88-4.09,2.77-6.15.41-.94.15-1.39-.94-1.26-2.57.31-5.15.61-7.63,1.42-3.53,1.16-5.88,3.52-6.98,7.09-.84,2.74-1.39,5.54-1.84,8.36-1.44,8.86-3.91,17.38-8.37,25.22-1.75,3.06-3.68,6.05-7.01,7.69-2.46,1.21-4.49.65-6.04-1.64-1.34-1.98-1.84-4.24-2.13-6.57-1.07-8.67.53-17.07,2.46-25.45.2-.88.82-1.5,1.34-2.19,1.17-1.55,2.24-3.16,2.5-5.14.14-1.09.03-2.17-1.04-2.81-1.07-.65-2.07-.23-2.97.39-1.4.97-2.35,2.35-3.06,3.87-.5,1.09-1.26,1.45-2.4,1.23-.65-.13-1.32-.18-1.98-.24-3.6-.34-4.07-.71-4.92-4.23-.52-2.15-.58-4.32-.39-6.53.22-2.57-.77-3.26-3.24-2.47-2.62.83-4.03,2.78-4.2,5.67-.18,2.99.73,5.78,1.47,8.6.35,1.33.39,2.58.04,3.91-2,7.52-4.08,15.01-6.74,22.32-1.45,3.99-2.9,8.02-5.55,11.44-1.99,2.56-3.81,2.37-5.24-.55-1.53-3.1-1.84-6.5-2.31-9.85-1.24-8.92-.93-17.9-.89-26.87.03-7.78.7-15.52,1.31-23.26.11-1.43.65-2.44,2.04-3.12,1.97-.96,3.82-2.16,5.74-3.21.86-.47,1.24-1.12,1.25-2.09.04-3.52.08-7.05.16-10.57.03-1.21-.36-1.59-1.53-1.05-2.12.96-4.26,1.87-6.4,2.78-3.29,1.41-3.32,1.34-3.16-2.22.44-9.5-.02-19.01.52-28.5.08-1.37-.34-1.7-1.57-.89-3.5,2.29-7.01,4.59-10.59,6.75-1.48.89-2.09,1.93-2.06,3.69.16,11.43-.21,22.87.31,34.29.14,3.14-.39,5.44-3.67,6.47-1.2.38-1.66,1.28-1.58,2.63.15,2.45.07,4.92.11,7.38.03,2.3.17,2.38,2.23,1.51.25-.1.5-.19.73-.32,1.32-.7,1.9-.41,1.92,1.18.08,5.45.37,10.89.36,16.34-.02,9.2-2.74,17.67-7.49,25.5-1.03,1.7-2.22,3.34-3.91,4.47-1.52,1.02-2.65.64-3.27-1.06-.23-.61-.39-1.29-.39-1.94.02-8.91.09-17.81.12-26.72.01-3.92.45-7.85-.12-11.74-.59-3.99-4.01-5.92-7.83-4.59-2.09.73-3.61,2.17-4.97,3.85-1.66,2.05-3.39,4.05-5.08,6.07-.17-.06-.34-.13-.51-.19,0-1.11-.02-2.22,0-3.33.07-2.66.18-5.31.23-7.97.04-2.15-.22-2.34-2.07-1.36-2.7,1.43-5.34,2.99-8.06,4.37-1.33.67-1.76,1.53-1.64,3.01.51,6.05.39,12.05-.91,18.03-1.71,7.85-3.94,15.47-8.83,22.02-2.78,3.72-6.27,6.51-10.98,7.4-4.43.84-8.4-2.64-8.25-7.15.02-.65.08-1.24.88-1.31,2.67-.24,4.22-2.11,5.68-4.01,4.26-5.55,6.64-11.93,7.84-18.76,1.02-5.8-.09-11.26-3.13-16.28-1.88-3.11-4.61-5.06-8.44-4.47-3.4.53-6.5,1.89-9.07,4.27-3.64,3.35-5.23,7.75-6.4,12.39-1.55,6.19-2.2,12.56-3.91,18.71-2.15,7.72-5.89,14.36-12.61,19.04-2.25,1.57-4.42,1.48-6.54-.32-1.78-1.51-2.87-3.48-3.7-5.6-2.88-7.32-3.42-14.99-3.01-22.73.15-2.83.43-5.72,1.65-8.37.51-1.11.97-2.65,2.46-2.52,1.43.12,1.49,1.67,1.81,2.79.87,3.03.77,6.18,1,9.29.1,1.26.53,1.78,1.79,1.81,1.79.04,3.59.14,5.37.3,1.64.14,2.34-.46,2.6-2.16.68-4.36.87-8.73.61-13.11-.24-4.08-1.12-8.05-3.54-11.47-2.73-3.88-6.88-5.02-11.26-3.21-1.62.67-3.03,1.64-4.29,2.85-5.63,5.38-7.84,12.35-9.09,19.73-1.54,9.15-.27,18.14,1.84,27.04,1.04,4.37,2.89,8.5,6.02,11.78,6.94,7.3,14.28,8.85,22.09,1.69,4.39-4.02,7.48-8.95,9.89-14.34.28-.63.35-1.42,1.2-1.89,1.21,3.5,2.44,6.92,3.59,10.37,3.02,9.06,16.22,13.29,23.89,6.08,1.16-1.09,2.32-2.18,3.33-3.42,3.91-4.8,6.58-10.28,8.82-15.99.32-.83.48-1.75,1.15-2.5.47.65.3,1.26.31,1.83.16,7.64.3,15.28.47,22.92.07,3.36.1,3.35,2.92,1.72.69-.4,1.35-.89,2.09-1.17,4.01-1.5,5.48-4.14,5.5-8.6.04-8.48,1.01-16.96,1.38-25.45.24-5.51,1.59-10.62,4.43-15.33.49-.82.9-2.3,1.87-2.06,1.11.26.53,1.73.55,2.64.28,12.42.49,24.85.76,37.27.07,3.19,1.3,5.79,4.3,7.33,4.33,2.22,8.04,1.29,11.6-2.87,4.61-5.39,7.24-11.89,10.25-18.17.19-.41.14-1.08,1-1.11,0,1.36-.05,2.69,0,4.01.24,5.52.6,11.04,2.9,16.18,3.18,7.1,11.32,8.94,17.24,3.97.86-.72,1.64-1.56,2.35-2.43,4.82-5.84,7.62-12.74,10.24-19.72,2.29-6.1,4.13-12.35,5.9-18.62.45-1.59,1.27-1.89,2.62-1.3.98.43.65,1.37.64,2.11-.14,8.97-.36,17.94-.47,26.91-.05,4.24.81,8.35,2.78,12.12,1.72,3.28,4.35,3.85,7.51,1.92,2.42-1.48,4.34-3.5,6.08-5.7,5.11-6.44,9.15-13.53,12.93-20.8.71-1.36,1.44-2.72,2.16-4.08.46.87.46,1.58.46,2.29,0,6.18.02,12.36.02,18.54,0,2.21.31,4.38.98,6.48,1.42,4.42,4.51,5.9,8.87,4.28.68-.25,1.36-.56,1.98-.93,5.73-3.46,10.12-8.13,12.88-14.27.15-.34.2-.79.74-.8,1.24,1.8,2.38,3.67,3.73,5.38,5.14,6.55,10.99,7.92,18.49,4.37,1.69-.8,3.34-1.47,5.25-1.69,2.64-.3,4.88-1.65,6.82-3.46,2.87-2.69,4.76-6.03,6.41-9.54,1.3-2.77,2.25-5.76,3.94-8.26,1.55-2.29,1.77-4.56,1.73-7.1ZM224.86,120.43c-.39-.2-.37-.67-.4-1.07-.1-1.72-.18-3.44-.27-5.16.03-3.06,0-6.12,1.13-9.03.56-1.45,1.22-2.89,3.13-2.86,1.91.03,2.75,1.4,3.37,2.92.75,1.82.51,3.65-.07,5.45-1.14,3.54-3.2,6.53-5.77,9.18-.3.31-.58.84-1.13.56ZM426.88,134.33c-.61,2.12-1.36,4.18-2.76,5.91-1.83,2.27-3.94,2.3-5.86.1-1.47-1.69-2.34-3.71-2.94-5.82-3.1-10.84-3.31-21.71-.24-32.6.47-1.66,1.18-3.24,2.24-4.64,1.9-2.51,4.28-2.57,6.28-.11,1.23,1.52,2,3.29,2.61,5.12,1.84,5.61,2.58,11.38,2.47,17.26.1,5.01-.39,9.94-1.78,14.77Z"/>
    </g>
  </g>
</svg>