<svg xmlns="http://www.w3.org/2000/svg" width="55.441" height="50.821" viewBox="0 0 55.441 50.821">
  <g id="Group_155" data-name="Group 155" transform="translate(-1532.462 -2185.673)">
    <g id="envelope" transform="translate(1532.462 2185.673)">
      <path id="Path_1895" data-name="Path 1895" d="M55.335,5.542,35.889,24.988a11.566,11.566,0,0,1-16.337,0L.106,5.542C.074,5.907,0,6.237,0,6.6V34.321a11.564,11.564,0,0,0,11.55,11.55H43.891a11.564,11.564,0,0,0,11.55-11.55V6.6C55.441,6.237,55.367,5.907,55.335,5.542Z" transform="translate(0 4.95)" fill="#089768"/>
      <path id="Path_1896" data-name="Path 1896" d="M31.648,27.672l21.1-21.1A11.518,11.518,0,0,0,42.916,1H10.576A11.518,11.518,0,0,0,.744,6.57l21.1,21.1a6.946,6.946,0,0,0,9.8,0Z" transform="translate(0.975 -1)" fill="#089768"/>
    </g>
  </g>
</svg>
