<svg xmlns="http://www.w3.org/2000/svg" width="28.941" height="25.039" viewBox="0 0 28.941 25.039">
  <g id="XMLID_439_" transform="translate(0 -22.25)">
    <path id="XMLID_440_" d="M188.295,32.732a5.5,5.5,0,1,0,0-9.957,8.111,8.111,0,0,1,0,9.957Z" transform="translate(-171.781)" fill="#089768"/>
    <path id="XMLID_441_" d="M203.91,177.8a12.825,12.825,0,0,1,2.631,2.77,12.641,12.641,0,0,1,2.22,5.953,12.8,12.8,0,0,1,.068,1.315,3.928,3.928,0,0,1-.226,1.316h5.05a1.316,1.316,0,0,0,1.316-1.316,10.1,10.1,0,0,0-10.086-10.086Q204.394,177.75,203.91,177.8Z" transform="translate(-186.027 -141.863)" fill="#089768"/>
    <path id="XMLID_443_" d="M57.753,33.256a5.5,5.5,0,1,0-5.5-5.5A5.5,5.5,0,0,0,57.753,33.256Z" transform="translate(-47.668)" fill="#089768"/>
    <path id="XMLID_444_" d="M1.316,189.151h17.54a1.316,1.316,0,0,0,1.316-1.316,10.117,10.117,0,0,0-5.7-9.082A10.084,10.084,0,0,0,0,187.836,1.316,1.316,0,0,0,1.316,189.151Z" transform="translate(0 -141.863)" fill="#089768"/>
  </g>
</svg>
