<svg id="Praxair_logo" xmlns="http://www.w3.org/2000/svg" width="174.133" height="23.608" viewBox="0 0 174.133 23.608">
  <path id="Path_1764" data-name="Path 1764" d="M390.593,82.656,390.214,85l-1.9,1.2,1.643.442-.442,2.466L387.3,90.563l1.9.567-.317,2.088-2.592,1.709,2.212.695-.254,1.644-3.1,2.024,2.655.758-.189,1.454-3.478,2.278,2.909.822-.127.885h-.063v.066H386.8l-.065.061-.694.442h4.808l3.73-23.4Z" transform="translate(-330.683 -82.64)" fill="#656565"/>
  <path id="Path_1765" data-name="Path 1765" d="M407.01,90.544a2.924,2.924,0,0,1-3.258,2.625l.862-5.439.475-.031C406.647,87.7,407.247,89.044,407.01,90.544Zm-5.3,15.541,1.212-7.651c5.479.156,9.487-1.7,10.451-7.8.976-6.16-2.981-7.957-8.517-7.957h-5.766l-3.709,23.4Z" transform="translate(-332.629 -82.644)" fill="#656565"/>
  <path id="Path_1766" data-name="Path 1766" d="M424.184,93.476,425.1,87.7c1.768-.092,2.883.777,2.557,2.828a3.3,3.3,0,0,1-3.072,2.98Zm8.348,12.608-3.161-9.753a7.2,7.2,0,0,0,4.55-5.868c.978-6.173-2.731-7.784-8.243-7.784h-6.109l-3.707,23.4h6.327l.988-6.242c.183-1.149.3-2.3.454-3.447l.072-.064,1.988,9.753Z" transform="translate(-336.177 -82.644)" fill="#656565"/>
  <path id="Path_1767" data-name="Path 1767" d="M443.619,98.109l1.728-5.433c.478-1.458.869-2.948,1.286-4.409h.064c-.078,1.461-.189,2.951-.234,4.409l-.179,5.433Zm9.157,7.975-1.257-23.4H443.8l-9.32,23.4h6.513l1-3.006h4.248l-.012,3.006Z" transform="translate(-339.402 -82.644)" fill="#656565"/>
  <path id="Path_1768" data-name="Path 1768" d="M465.546,106.085l-.727-3.631c-.109-.869-.216-1.77-.327-2.637h-.06c-.387.867-.778,1.768-1.162,2.637l-1.97,3.631h-6.884l7.6-12.136L458.433,82.68h7.038l.575,2.826c.173.869.181,1.8.286,2.7h.064c.357-.9.655-1.8,1.077-2.7l1.286-2.826h7.1l-7.117,11.269,3.813,12.136Z" transform="translate(-342.855 -82.644)" fill="#656565"/>
  <path id="Path_1769" data-name="Path 1769" d="M483.567,98.109l1.728-5.433c.48-1.458.871-2.948,1.288-4.409h.063c-.077,1.461-.189,2.951-.234,4.409l-.179,5.433Zm9.158,7.975-1.257-23.4h-7.721l-9.32,23.4h6.513l1-3.006h4.251l-.012,3.006Z" transform="translate(-346.321 -82.644)" fill="#656565"/>
  <path id="Path_1770" data-name="Path 1770" d="M497.412,106.085l3.706-23.4h6.326l-3.706,23.4Z" transform="translate(-350.303 -82.644)" fill="#656565"/>
  <path id="Path_1771" data-name="Path 1771" d="M516.388,93.476,517.3,87.7c1.768-.092,2.883.777,2.558,2.828a3.3,3.3,0,0,1-3.072,2.98Zm8.348,12.608-3.161-9.753a7.2,7.2,0,0,0,4.55-5.868c.978-6.173-2.728-7.784-8.243-7.784h-6.109l-3.706,23.4h6.326l.988-6.242c.183-1.149.3-2.3.455-3.447l.071-.064,1.988,9.753Z" transform="translate(-352.148 -82.644)" fill="#656565"/>
  <path id="Path_1772" data-name="Path 1772" d="M330.576,107.666a8.276,8.276,0,0,1-1.835,1.076,4.6,4.6,0,0,1-1.9-.381,7.657,7.657,0,0,1,1.772-1.073A5.953,5.953,0,0,1,330.576,107.666Z" transform="translate(-320.758 -86.905)" fill="#656565"/>
  <path id="Path_1773" data-name="Path 1773" d="M331.724,102.312a8.264,8.264,0,0,1-1.834,1.073,4.575,4.575,0,0,1-1.9-.379,7.67,7.67,0,0,1,1.772-1.076A5.987,5.987,0,0,1,331.724,102.312Z" transform="translate(-320.957 -85.977)" fill="#656565"/>
  <path id="Path_1774" data-name="Path 1774" d="M332.88,96.933a8.221,8.221,0,0,1-1.835,1.074,4.568,4.568,0,0,1-1.9-.38,7.621,7.621,0,0,1,1.772-1.073A5.953,5.953,0,0,1,332.88,96.933Z" transform="translate(-321.157 -85.046)" fill="#656565"/>
  <path id="Path_1775" data-name="Path 1775" d="M334.1,91.526a8.193,8.193,0,0,1-1.834,1.073,4.6,4.6,0,0,1-1.9-.379,7.663,7.663,0,0,1,1.77-1.076A6.008,6.008,0,0,1,334.1,91.526Z" transform="translate(-321.368 -84.109)" fill="#656565"/>
  <path id="Path_1776" data-name="Path 1776" d="M335.242,86.169a8.255,8.255,0,0,1-1.834,1.076,4.571,4.571,0,0,1-1.9-.379,7.634,7.634,0,0,1,1.77-1.076A6,6,0,0,1,335.242,86.169Z" transform="translate(-321.567 -83.181)" fill="#656565"/>
  <path id="Path_1777" data-name="Path 1777" d="M328.248,83.437a6.221,6.221,0,0,1-1.376.806,3.41,3.41,0,0,1-1.422-.284,5.805,5.805,0,0,1,1.327-.808A4.513,4.513,0,0,1,328.248,83.437Z" transform="translate(-320.517 -82.725)" fill="#656565"/>
  <path id="Path_1778" data-name="Path 1778" d="M327.031,88.77a6.23,6.23,0,0,1-1.375.806,3.45,3.45,0,0,1-1.423-.284,5.755,5.755,0,0,1,1.327-.805A4.452,4.452,0,0,1,327.031,88.77Z" transform="translate(-320.306 -83.649)" fill="#656565"/>
  <path id="Path_1779" data-name="Path 1779" d="M325.876,94.146a6.22,6.22,0,0,1-1.375.808,3.471,3.471,0,0,1-1.423-.286,5.653,5.653,0,0,1,1.328-.805A4.518,4.518,0,0,1,325.876,94.146Z" transform="translate(-320.106 -84.58)" fill="#656565"/>
  <path id="Path_1780" data-name="Path 1780" d="M324.651,99.424a6.219,6.219,0,0,1-1.375.808,3.453,3.453,0,0,1-1.425-.286,5.782,5.782,0,0,1,1.329-.805A4.5,4.5,0,0,1,324.651,99.424Z" transform="translate(-319.893 -85.494)" fill="#656565"/>
  <path id="Path_1781" data-name="Path 1781" d="M323.5,104.78a6.169,6.169,0,0,1-1.375.805,3.439,3.439,0,0,1-1.425-.286,5.764,5.764,0,0,1,1.329-.805A4.5,4.5,0,0,1,323.5,104.78Z" transform="translate(-319.695 -86.422)" fill="#656565"/>
  <path id="Path_1782" data-name="Path 1782" d="M322.281,110.134a6.138,6.138,0,0,1-1.375.805,3.439,3.439,0,0,1-1.423-.284,5.767,5.767,0,0,1,1.328-.808A4.5,4.5,0,0,1,322.281,110.134Z" transform="translate(-319.483 -87.349)" fill="#656565"/>
  <path id="Path_1783" data-name="Path 1783" d="M338.526,109.324a10.7,10.7,0,0,1-2.383,1.4,5.938,5.938,0,0,1-2.466-.492,9.96,9.96,0,0,1,2.3-1.4A7.806,7.806,0,0,1,338.526,109.324Z" transform="translate(-321.942 -87.172)" fill="#656565"/>
  <path id="Path_1784" data-name="Path 1784" d="M339.674,104.046a10.76,10.76,0,0,1-2.384,1.4,5.935,5.935,0,0,1-2.466-.492,9.96,9.96,0,0,1,2.3-1.4A7.761,7.761,0,0,1,339.674,104.046Z" transform="translate(-322.14 -86.257)" fill="#656565"/>
  <path id="Path_1785" data-name="Path 1785" d="M340.821,98.844a10.778,10.778,0,0,1-2.384,1.4,5.966,5.966,0,0,1-2.466-.494,9.965,9.965,0,0,1,2.3-1.4A7.773,7.773,0,0,1,340.821,98.844Z" transform="translate(-322.339 -85.356)" fill="#656565"/>
  <path id="Path_1786" data-name="Path 1786" d="M341.97,93.642a10.791,10.791,0,0,1-2.384,1.4,5.978,5.978,0,0,1-2.467-.492,10.066,10.066,0,0,1,2.3-1.4A7.774,7.774,0,0,1,341.97,93.642Z" transform="translate(-322.538 -84.455)" fill="#656565"/>
  <path id="Path_1787" data-name="Path 1787" d="M343.041,88.441a10.83,10.83,0,0,1-2.385,1.4,5.962,5.962,0,0,1-2.466-.494,9.965,9.965,0,0,1,2.3-1.4A7.764,7.764,0,0,1,343.041,88.441Z" transform="translate(-322.723 -83.554)" fill="#656565"/>
  <path id="Path_1788" data-name="Path 1788" d="M344.188,83.161a10.825,10.825,0,0,1-2.385,1.4,5.966,5.966,0,0,1-2.466-.494,10.016,10.016,0,0,1,2.3-1.4A7.774,7.774,0,0,1,344.188,83.161Z" transform="translate(-322.922 -82.64)" fill="#656565"/>
  <path id="Path_1789" data-name="Path 1789" d="M351.328,85.818a12.969,12.969,0,0,1-2.861,1.677,7.16,7.16,0,0,1-2.961-.591,12.008,12.008,0,0,1,2.765-1.678A9.334,9.334,0,0,1,351.328,85.818Z" transform="translate(-323.991 -83.082)" fill="#656565"/>
  <path id="Path_1790" data-name="Path 1790" d="M350.028,91.1a12.843,12.843,0,0,1-2.862,1.677,7.128,7.128,0,0,1-2.958-.591,11.928,11.928,0,0,1,2.762-1.677A9.347,9.347,0,0,1,350.028,91.1Z" transform="translate(-323.766 -83.997)" fill="#656565"/>
  <path id="Path_1791" data-name="Path 1791" d="M348.8,96.451a12.968,12.968,0,0,1-2.862,1.679,7.149,7.149,0,0,1-2.958-.594,11.929,11.929,0,0,1,2.762-1.677A9.369,9.369,0,0,1,348.8,96.451Z" transform="translate(-323.554 -84.924)" fill="#656565"/>
  <path id="Path_1792" data-name="Path 1792" d="M347.427,101.73a12.863,12.863,0,0,1-2.862,1.677,7.15,7.15,0,0,1-2.959-.593,11.929,11.929,0,0,1,2.762-1.677A9.336,9.336,0,0,1,347.427,101.73Z" transform="translate(-323.315 -85.839)" fill="#656565"/>
  <path id="Path_1793" data-name="Path 1793" d="M346.2,107.085a12.863,12.863,0,0,1-2.862,1.677,7.164,7.164,0,0,1-2.959-.591,11.921,11.921,0,0,1,2.762-1.679A9.352,9.352,0,0,1,346.2,107.085Z" transform="translate(-323.103 -86.766)" fill="#656565"/>
  <path id="Path_1794" data-name="Path 1794" d="M355.021,104.233a15.076,15.076,0,0,1-3.348,1.96c-1.167.252-3.463-.692-3.463-.692s2.405-1.851,3.233-1.963A10.919,10.919,0,0,1,355.021,104.233Z" transform="translate(-324.459 -86.254)" fill="#656565"/>
  <path id="Path_1795" data-name="Path 1795" d="M356.322,98.954a15.1,15.1,0,0,1-3.348,1.963c-1.167.252-3.463-.693-3.463-.693s2.405-1.851,3.233-1.962A10.914,10.914,0,0,1,356.322,98.954Z" transform="translate(-324.684 -85.34)" fill="#656565"/>
  <path id="Path_1796" data-name="Path 1796" d="M353.8,109.589s-.683.508-1.471,1.01l-4.982-.01a11.015,11.015,0,0,1,2.873-1.692A10.878,10.878,0,0,1,353.8,109.589Z" transform="translate(-324.309 -87.182)" fill="#656565"/>
  <path id="Path_1797" data-name="Path 1797" d="M357.7,93.677a15.274,15.274,0,0,1-3.347,1.962c-1.167.251-3.463-.692-3.463-.692s2.4-1.852,3.23-1.963A10.928,10.928,0,0,1,357.7,93.677Z" transform="translate(-324.923 -84.426)" fill="#656565"/>
  <path id="Path_1798" data-name="Path 1798" d="M359,88.322a15.1,15.1,0,0,1-3.348,1.963c-1.168.25-3.463-.695-3.463-.695s2.4-1.85,3.233-1.96A10.88,10.88,0,0,1,359,88.322Z" transform="translate(-325.148 -83.498)" fill="#656565"/>
  <path id="Path_1799" data-name="Path 1799" d="M360.3,83.031a15.1,15.1,0,0,1-3.348,1.963c-1.168.252-3.463-.693-3.463-.693a19.049,19.049,0,0,1,2.4-1.664l3.162.014C359.757,82.837,360.3,83.031,360.3,83.031Z" transform="translate(-325.374 -82.637)" fill="#656565"/>
  <path id="Path_1800" data-name="Path 1800" d="M362.319,106.745a17.182,17.182,0,0,1-3.816,2.236c-1.331.286-3.949-.79-3.949-.79s2.742-2.109,3.685-2.236A12.425,12.425,0,0,1,362.319,106.745Z" transform="translate(-325.558 -86.672)" fill="#656565"/>
  <path id="Path_1801" data-name="Path 1801" d="M363.7,101.465a17.228,17.228,0,0,1-3.817,2.238c-1.329.286-3.947-.79-3.947-.79s2.742-2.111,3.685-2.238A12.479,12.479,0,0,1,363.7,101.465Z" transform="translate(-325.796 -85.757)" fill="#656565"/>
  <path id="Path_1802" data-name="Path 1802" d="M365,96.188a17.258,17.258,0,0,1-3.818,2.238c-1.329.285-3.949-.79-3.949-.79s2.745-2.112,3.687-2.239A12.5,12.5,0,0,1,365,96.188Z" transform="translate(-326.021 -84.843)" fill="#656565"/>
  <path id="Path_1803" data-name="Path 1803" d="M366.3,90.91a17.223,17.223,0,0,1-3.818,2.236c-1.331.285-3.946-.79-3.946-.79s2.74-2.11,3.684-2.236A12.435,12.435,0,0,1,366.3,90.91Z" transform="translate(-326.247 -83.929)" fill="#656565"/>
  <path id="Path_1804" data-name="Path 1804" d="M367.6,85.63a17.149,17.149,0,0,1-3.816,2.238c-1.329.286-3.949-.79-3.949-.79s2.742-2.112,3.687-2.236A12.433,12.433,0,0,1,367.6,85.63Z" transform="translate(-326.472 -83.015)" fill="#656565"/>
  <path id="Path_1805" data-name="Path 1805" d="M370.954,103.889s-2.937,2.189-4.2,2.461c-1.465.316-4.344-.869-4.344-.869s3.016-2.322,4.054-2.461C367.968,102.817,370.954,103.889,370.954,103.889Z" transform="translate(-326.919 -86.163)" fill="#656565"/>
  <path id="Path_1806" data-name="Path 1806" d="M372.1,98.611s-2.937,2.189-4.2,2.461c-1.464.314-4.341-.869-4.341-.869s3.016-2.322,4.051-2.461C369.118,97.539,372.1,98.611,372.1,98.611Z" transform="translate(-327.118 -85.249)" fill="#656565"/>
  <path id="Path_1807" data-name="Path 1807" d="M373.4,93.331s-2.937,2.191-4.2,2.461c-1.463.316-4.344-.866-4.344-.866s3.016-2.322,4.054-2.461C370.418,92.262,373.4,93.331,373.4,93.331Z" transform="translate(-327.343 -84.335)" fill="#656565"/>
  <path id="Path_1808" data-name="Path 1808" d="M374.7,88.054s-2.934,2.19-4.2,2.461c-1.464.315-4.343-.869-4.343-.869s3.016-2.32,4.054-2.461C371.719,86.982,374.7,88.054,374.7,88.054Z" transform="translate(-327.568 -83.42)" fill="#656565"/>
  <path id="Path_1809" data-name="Path 1809" d="M376,82.907s-2.934,2.189-4.2,2.461c-1.464.316-4.343-.869-4.343-.869a31.632,31.632,0,0,1,2.7-1.855l4.979-.006C375.657,82.793,376,82.907,376,82.907Z" transform="translate(-327.794 -82.637)" fill="#656565"/>
  <path id="Path_1810" data-name="Path 1810" d="M369.589,109.243s-.843.632-1.822,1.257l-6.3,0a13.827,13.827,0,0,1,3.63-2.119C366.6,108.174,369.589,109.243,369.589,109.243Z" transform="translate(-326.756 -87.091)" fill="#656565"/>
  <path id="Path_1811" data-name="Path 1811" d="M378.407,106.47s-3.258,2.428-4.661,2.73c-1.623.349-4.818-.964-4.818-.964s3.345-2.576,4.5-2.733C375.093,105.281,378.407,106.47,378.407,106.47Z" transform="translate(-328.048 -86.593)" fill="#656565"/>
  <path id="Path_1812" data-name="Path 1812" d="M379.708,101.192s-3.261,2.429-4.66,2.73c-1.625.35-4.822-.964-4.822-.964s3.348-2.578,4.5-2.733C376.394,100,379.708,101.192,379.708,101.192Z" transform="translate(-328.272 -85.679)" fill="#656565"/>
  <path id="Path_1813" data-name="Path 1813" d="M381.008,95.835s-3.26,2.431-4.661,2.733c-1.623.349-4.82-.964-4.82-.964s3.348-2.578,4.5-2.733C377.694,94.647,381.008,95.835,381.008,95.835Z" transform="translate(-328.498 -84.751)" fill="#656565"/>
  <path id="Path_1814" data-name="Path 1814" d="M382.232,90.558s-3.26,2.431-4.659,2.732c-1.627.35-4.822-.966-4.822-.966s3.348-2.576,4.5-2.731C378.918,89.369,382.232,90.558,382.232,90.558Z" transform="translate(-328.71 -83.837)" fill="#656565"/>
  <path id="Path_1815" data-name="Path 1815" d="M383.531,85.28s-3.258,2.429-4.659,2.73c-1.625.35-4.82-.964-4.82-.964s3.348-2.575,4.5-2.73C380.219,84.091,383.531,85.28,383.531,85.28Z" transform="translate(-328.935 -82.923)" fill="#656565"/>
  <path id="Path_1816" data-name="Path 1816" d="M387.351,103.391s-3.521,2.625-5.032,2.952c-1.754.377-5.207-1.042-5.207-1.042s3.616-2.784,4.86-2.95C383.773,102.109,387.351,103.391,387.351,103.391Z" transform="translate(-329.465 -86.047)" fill="#656565"/>
  <path id="Path_1817" data-name="Path 1817" d="M388.575,98.038s-3.52,2.623-5.032,2.949c-1.754.379-5.207-1.04-5.207-1.04s3.616-2.784,4.86-2.951C385,96.753,388.575,98.038,388.575,98.038Z" transform="translate(-329.677 -85.119)" fill="#656565"/>
  <path id="Path_1818" data-name="Path 1818" d="M389.873,92.758s-3.518,2.625-5.032,2.951c-1.754.377-5.2-1.042-5.2-1.042s3.616-2.782,4.857-2.951C386.3,91.474,389.873,92.758,389.873,92.758Z" transform="translate(-329.902 -84.204)" fill="#656565"/>
  <path id="Path_1819" data-name="Path 1819" d="M391.177,87.4s-3.52,2.625-5.034,2.951c-1.754.377-5.2-1.044-5.2-1.044s3.615-2.782,4.859-2.948C387.6,86.12,391.177,87.4,391.177,87.4Z" transform="translate(-330.128 -83.277)" fill="#656565"/>
  <path id="Path_1820" data-name="Path 1820" d="M391.784,82.648a18.662,18.662,0,0,1-4.5,2.566c-1.754.377-5.207-1.042-5.207-1.042s1-.772,2.137-1.528Z" transform="translate(-330.325 -82.638)" fill="#656565"/>
  <path id="Path_1821" data-name="Path 1821" d="M386.123,108.747s-1.123.843-2.375,1.631l-7.514.014c.938-.7,3.5-2.552,4.51-2.687C382.546,107.463,386.123,108.747,386.123,108.747Z" transform="translate(-329.313 -86.974)" fill="#656565"/>
</svg>
