<svg xmlns="http://www.w3.org/2000/svg" width="49.99" height="55.989" viewBox="0 0 49.99 55.989">
  <path id="secure" d="M61.607,7.836a1.83,1.83,0,0,0-1.322-1.511L37.782.067a1.829,1.829,0,0,0-.981,0L14.3,6.326a1.83,1.83,0,0,0-1.322,1.511c-.131.939-3.108,23.114,4.529,34.145A35.927,35.927,0,0,0,36.862,55.939a1.835,1.835,0,0,0,.859,0A35.926,35.926,0,0,0,57.078,41.982C64.715,30.951,61.737,8.775,61.607,7.836ZM51.8,20.783,36.454,36.132a1.829,1.829,0,0,1-2.587,0l-9.49-9.49a1.829,1.829,0,0,1,0-2.587L26.26,22.17a1.83,1.83,0,0,1,2.587,0l6.312,6.312L47.331,16.311a1.829,1.829,0,0,1,2.587,0L51.8,18.195A1.83,1.83,0,0,1,51.8,20.783Z" transform="translate(-12.296 0)" fill="#089768"/>
</svg>
