<svg id="settings" xmlns="http://www.w3.org/2000/svg" width="56" height="56" viewBox="0 0 56 56">
  <g id="Group_26" data-name="Group 26" transform="translate(16.681 29.641)">
    <g id="Group_25" data-name="Group 25">
      <path id="Path_1718" data-name="Path 1718" d="M171.981,271a8.337,8.337,0,0,1-8.146,6.563A8.216,8.216,0,0,1,155.8,271h-3.281a11.492,11.492,0,0,0,22.747,0Z" transform="translate(-152.516 -271)" fill="#089768"/>
    </g>
  </g>
  <g id="Group_28" data-name="Group 28" transform="translate(0 29.641)">
    <g id="Group_27" data-name="Group 27">
      <path id="Path_1719" data-name="Path 1719" d="M42.709,271A14.744,14.744,0,0,1,13.4,271H0v1.641A1.642,1.642,0,0,0,1.123,274.2l6.75,2.2a23.032,23.032,0,0,0,.9,2.213l-3.115,6.258a1.64,1.64,0,0,0,.309,1.891l4.625,4.625a1.642,1.642,0,0,0,1.891.309l6.258-3.115a23.07,23.07,0,0,0,2.213.9l2.2,6.75a1.642,1.642,0,0,0,1.557,1.123h6.672a1.642,1.642,0,0,0,1.557-1.123l2.2-6.75a23.046,23.046,0,0,0,2.213-.9l6.258,3.115a1.639,1.639,0,0,0,1.891-.309l4.625-4.625a1.64,1.64,0,0,0,.309-1.891l-3.115-6.258a23.06,23.06,0,0,0,.9-2.213l6.641-2.2A1.642,1.642,0,0,0,56,272.641V271Z" transform="translate(0 -271)" fill="#089768"/>
    </g>
  </g>
  <g id="Group_30" data-name="Group 30" transform="translate(23.38 29.641)">
    <g id="Group_29" data-name="Group 29">
      <path id="Path_1720" data-name="Path 1720" d="M213.763,271a4.914,4.914,0,0,0,4.62,3.281A5.058,5.058,0,0,0,223.112,271Z" transform="translate(-213.763 -271)" fill="#089768"/>
    </g>
  </g>
  <g id="Group_32" data-name="Group 32" transform="translate(21.437)">
    <g id="Group_31" data-name="Group 31">
      <path id="Path_1721" data-name="Path 1721" d="M202.563,0a6.562,6.562,0,1,0,0,13.125,6.663,6.663,0,0,0,6.672-6.562A6.663,6.663,0,0,0,202.563,0Z" transform="translate(-196 0)" fill="#089768"/>
    </g>
  </g>
  <g id="Group_34" data-name="Group 34" transform="translate(37.953)">
    <g id="Group_33" data-name="Group 33">
      <path id="Path_1722" data-name="Path 1722" d="M353.563,0a6.562,6.562,0,1,0,6.563,6.562A6.569,6.569,0,0,0,353.563,0Z" transform="translate(-347 0)" fill="#089768"/>
    </g>
  </g>
  <g id="Group_36" data-name="Group 36" transform="translate(5.031)">
    <g id="Group_35" data-name="Group 35">
      <path id="Path_1723" data-name="Path 1723" d="M52.563,0a6.562,6.562,0,1,0,6.563,6.562A6.569,6.569,0,0,0,52.563,0Z" transform="translate(-46 0)" fill="#089768"/>
    </g>
  </g>
  <g id="Group_38" data-name="Group 38" transform="translate(36.9 14.643)">
    <g id="Group_37" data-name="Group 37">
      <path id="Path_1724" data-name="Path 1724" d="M350.587,133.883a9.77,9.77,0,0,1-11.174.015,11.945,11.945,0,0,0-2.037,1.438A14.989,14.989,0,0,1,343.25,145.6h13.225v-1.641A11.624,11.624,0,0,0,350.587,133.883Z" transform="translate(-337.376 -133.883)" fill="#089768"/>
    </g>
  </g>
  <g id="Group_40" data-name="Group 40" transform="translate(16.633 16.406)">
    <g id="Group_39" data-name="Group 39">
      <path id="Path_1725" data-name="Path 1725" d="M163.436,150a11.6,11.6,0,0,0-11.367,9.953h22.844A11.71,11.71,0,0,0,163.436,150Z" transform="translate(-152.069 -150)" fill="#089768"/>
    </g>
  </g>
  <g id="Group_42" data-name="Group 42" transform="translate(0 14.643)">
    <g id="Group_41" data-name="Group 41">
      <path id="Path_1726" data-name="Path 1726" d="M17.172,133.9A9.77,9.77,0,0,1,6,133.883a11.724,11.724,0,0,0-6,10.075V145.6H13.335a14.989,14.989,0,0,1,5.874-10.263A11.951,11.951,0,0,0,17.172,133.9Z" transform="translate(0 -133.883)" fill="#089768"/>
    </g>
  </g>
</svg>
