<svg xmlns="http://www.w3.org/2000/svg" width="23.914" height="31.395" viewBox="0 0 23.914 31.395">
  <g id="guru_1_" data-name="guru(1)" transform="translate(-61)">
    <path id="Path_1862" data-name="Path 1862" d="M77.862,360h-.613a4.292,4.292,0,1,1-8.584,0h-.613A7.06,7.06,0,0,0,61,367.052V368.4a.92.92,0,0,0,.92.92H83.994a.92.92,0,0,0,.92-.92v-1.349A7.06,7.06,0,0,0,77.862,360Z" transform="translate(0 -337.926)" fill="#089768"/>
    <g id="Group_133" data-name="Group 133" transform="translate(61.417)">
      <path id="Path_1863" data-name="Path 1863" d="M216,345v.92a2.453,2.453,0,1,0,4.905,0V345Z" transform="translate(-206.912 -323.845)" fill="#089768"/>
      <g id="Group_132" data-name="Group 132">
        <path id="Path_1864" data-name="Path 1864" d="M241.92,3.679a.92.92,0,0,0,.92-.92V.92a.92.92,0,1,0-1.84,0v1.84A.92.92,0,0,0,241.92,3.679Z" transform="translate(-230.379)" fill="#089768"/>
        <path id="Path_1865" data-name="Path 1865" d="M141.121,28.173l.92,1.593a.92.92,0,0,0,1.593-.92l-.92-1.593a.92.92,0,1,0-1.593.92Z" transform="translate(-136.509 -25.15)" fill="#089768"/>
        <path id="Path_1866" data-name="Path 1866" d="M68.253,101.714l1.593.92a.92.92,0,1,0,.92-1.593l-1.593-.92a.92.92,0,1,0-.92,1.593Z" transform="translate(-67.793 -93.866)" fill="#089768"/>
        <path id="Path_1867" data-name="Path 1867" d="M390.275,100.121l-1.593.92a.92.92,0,0,0,.92,1.593l1.593-.92a.92.92,0,1,0-.92-1.593Z" transform="translate(-368.574 -93.866)" fill="#089768"/>
        <path id="Path_1868" data-name="Path 1868" d="M326.458,30.1a.92.92,0,0,0,1.256-.337l.92-1.593a.92.92,0,1,0-1.593-.92l-.92,1.593A.92.92,0,0,0,326.458,30.1Z" transform="translate(-310.165 -25.15)" fill="#089768"/>
      </g>
      <path id="Path_1869" data-name="Path 1869" d="M152.745,90a6.741,6.741,0,0,0-3.608,12.438,2.483,2.483,0,0,1,1.045,1.359h1.643V98.965l-1.57-1.57a.92.92,0,0,1,1.3-1.3l1.189,1.189,1.189-1.189a.92.92,0,1,1,1.3,1.3l-1.57,1.57V103.8h1.643a2.483,2.483,0,0,1,1.045-1.359A6.741,6.741,0,0,0,152.745,90Z" transform="translate(-141.205 -84.481)" fill="#089768"/>
    </g>
  </g>
</svg>
