<svg id="strategy" xmlns="http://www.w3.org/2000/svg" width="50" height="50" viewBox="0 0 50 50">
  <path id="Path_1713" data-name="Path 1713" d="M182.465,92a1.465,1.465,0,1,0,1.465,1.465A1.467,1.467,0,0,0,182.465,92Z" transform="translate(-163.324 -83.016)" fill="#ffffff"/>
  <path id="Path_1714" data-name="Path 1714" d="M50,0H0V2.93H3.027V38.281H23.535v3.182a4.395,4.395,0,1,0,2.93,0V38.281H46.973V2.93H50ZM20.177,24.062,18.1,26.134,16.211,24.24l-1.894,1.894-2.072-2.072,1.894-1.894-1.894-1.894L14.317,18.2,16.211,20.1,18.1,18.2l2.072,2.072-1.894,1.894Zm-1.036-9.218a4.395,4.395,0,1,1,4.395-4.395A4.4,4.4,0,0,1,19.141,14.844ZM40.685,29.921l-2.072,2.072L36.719,30.1l-1.894,1.894-2.072-2.072,1.894-1.894-1.894-1.894,2.072-2.072,1.894,1.894,1.894-1.894,2.072,2.072-1.894,1.894Zm-5.859-9.646L32.753,18.2l3.359-3.358H33.789a7.333,7.333,0,0,0-7.324,7.324A10.265,10.265,0,0,1,16.211,32.422H8.887v-2.93h7.324a7.333,7.333,0,0,0,7.324-7.324A10.265,10.265,0,0,1,33.789,11.914h2.323L32.753,8.556l2.072-2.072,6.895,6.9Z" fill="#ffffff"/>
</svg>
