<svg xmlns="http://www.w3.org/2000/svg" width="47" height="47" viewBox="0 0 47 47">
  <g id="Group_129" data-name="Group 129" transform="translate(22 -1509)">
    <g id="digitalization" transform="translate(-22 1509)">
      <path id="Path_1702" data-name="Path 1702" d="M315.637,208.867a4.333,4.333,0,0,0-4.1,2.95H300.553v2.754h10.983a4.326,4.326,0,1,0,4.1-5.7Z" transform="translate(-272.963 -189.694)" fill="#089768"/>
      <path id="Path_1703" data-name="Path 1703" d="M309.738,308.216a4.3,4.3,0,0,0-1.926.454l-3-3a1.377,1.377,0,0,0-.974-.4h-3.284v2.754h2.714l2.6,2.6a4.327,4.327,0,1,0,3.873-2.4Z" transform="translate(-272.964 -277.243)" fill="#089768"/>
      <path id="Path_1704" data-name="Path 1704" d="M7.55,271H0a23.39,23.39,0,0,0,1.716,7.57H8.433A43.294,43.294,0,0,1,7.55,271Z" transform="translate(0 -246.123)" fill="#089768"/>
      <path id="Path_1705" data-name="Path 1705" d="M8.433,158.533H1.716A23.391,23.391,0,0,0,0,166.1H7.55A43.294,43.294,0,0,1,8.433,158.533Z" transform="translate(0 -143.98)" fill="#089768"/>
      <path id="Path_1706" data-name="Path 1706" d="M44.563,20.576a23.705,23.705,0,0,0-11.131,9.91h6.049A26.512,26.512,0,0,1,44.563,20.576Z" transform="translate(-30.363 -18.687)" fill="#089768"/>
      <path id="Path_1707" data-name="Path 1707" d="M33.432,383.467a23.705,23.705,0,0,0,11.131,9.91,26.509,26.509,0,0,1-5.082-9.91Z" transform="translate(-30.363 -348.266)" fill="#089768"/>
      <path id="Path_1708" data-name="Path 1708" d="M142.124,0c-5.288,0-9.362,5.168-11.465,11.8H143.5V1.377A1.377,1.377,0,0,0,142.124,0Z" transform="translate(-118.665)" fill="#089768"/>
      <path id="Path_1709" data-name="Path 1709" d="M142.124,395.266a1.377,1.377,0,0,0,1.377-1.377V383.467H130.659C132.765,390.107,136.843,395.266,142.124,395.266Z" transform="translate(-118.665 -348.266)" fill="#089768"/>
      <path id="Path_1710" data-name="Path 1710" d="M112.266,166.1H126.8v-7.57H113.21A40.176,40.176,0,0,0,112.266,166.1Z" transform="translate(-101.96 -143.98)" fill="#089768"/>
      <path id="Path_1711" data-name="Path 1711" d="M304.811,91.529l3-3a4.326,4.326,0,1,0-1.947-1.947l-2.6,2.6h-2.714v2.754h3.284A1.376,1.376,0,0,0,304.811,91.529Z" transform="translate(-272.963 -72.955)" fill="#089768"/>
      <path id="Path_1712" data-name="Path 1712" d="M113.21,278.57H126.8V271h-14.53A40.174,40.174,0,0,0,113.21,278.57Z" transform="translate(-101.96 -246.123)" fill="#089768"/>
    </g>
  </g>
</svg>
