<svg id="Group_238" data-name="Group 238" xmlns="http://www.w3.org/2000/svg" xmlns:xlink="http://www.w3.org/1999/xlink" width="40" height="40" viewBox="0 0 40 40">
  <defs>
    <clipPath id="clip-path">
      <rect id="Rectangle_238" data-name="Rectangle 238" width="40" height="40" fill="none"/>
    </clipPath>
  </defs>
  <g id="Group_237" data-name="Group 237" clip-path="url(#clip-path)">
    <path id="Path_4588" data-name="Path 4588" d="M20,0A20,20,0,1,1,0,20,20,20,0,0,1,20,0" fill="#1da1f2"/>
    <path id="Path_4589" data-name="Path 4589" d="M87.6,84.238a10.065,10.065,0,0,1-2.9.8,5.063,5.063,0,0,0,2.22-2.793,10.1,10.1,0,0,1-3.207,1.225,5.054,5.054,0,0,0-8.6,4.605A14.335,14.335,0,0,1,64.7,82.794a5.055,5.055,0,0,0,1.563,6.741,5.023,5.023,0,0,1-2.287-.632c0,.021,0,.043,0,.064a5.052,5.052,0,0,0,4.05,4.951,5.06,5.06,0,0,1-2.28.086,5.053,5.053,0,0,0,4.716,3.507,10.2,10.2,0,0,1-7.475,2.09A14.36,14.36,0,0,0,85.09,87.5c0-.219-.006-.437-.015-.653A10.213,10.213,0,0,0,87.6,84.238" transform="translate(-55.291 -71.87)" fill="#fff"/>
  </g>
</svg>
