<svg xmlns="http://www.w3.org/2000/svg" width="56" height="55.998" viewBox="0 0 56 55.998">
  <path id="user-shield" d="M18.666,28a14,14,0,1,1,14-14A14.014,14.014,0,0,1,18.666,28Zm24.5,28a2.337,2.337,0,0,1-1.043-.245l-.469-.236C39,54.189,30.332,49.208,30.332,40.883v-7.2a6.994,6.994,0,0,1,4.795-6.645l7.305-2.422a2.355,2.355,0,0,1,1.468,0l7.3,2.422A6.994,6.994,0,0,1,56,33.685v7.2c0,9.408-8.782,13.668-11.473,14.751l-.488.2a2.346,2.346,0,0,1-.87.168Zm-17.5-15.117V36.116a2.9,2.9,0,0,0-2.133-2.807,18.759,18.759,0,0,0-7.1-.513C6.932,33.909,0,42.388,0,51.952v1.713A2.334,2.334,0,0,0,2.333,56H33.827C29.886,52.827,25.666,47.813,25.666,40.881Z" fill="#089768"/>
</svg>
