<svg id="Web_Trolley" data-name="Web Trolley" xmlns="http://www.w3.org/2000/svg" width="42.789" height="42.789" viewBox="0 0 42.789 42.789">
  <path id="Path_4633" data-name="Path 4633" d="M42.789,8.023V4.011A4.011,4.011,0,0,0,38.778,0H4.011A4.011,4.011,0,0,0,0,4.011V8.023ZM28.08,2.674h10.7a1.337,1.337,0,0,1,0,2.674H28.08a1.337,1.337,0,0,1,0-2.674Zm-13.372,0h1.337a1.337,1.337,0,0,1,0,2.674H14.709a1.337,1.337,0,0,1,0-2.674Zm-5.349,0H10.7a1.337,1.337,0,0,1,0,2.674H9.36a1.337,1.337,0,0,1,0-2.674Zm-5.349,0H5.349a1.337,1.337,0,0,1,0,2.674H4.011a1.337,1.337,0,0,1,0-2.674Z" fill="#089768"/>
  <path id="Path_4634" data-name="Path 4634" d="M13.156,23.686H24.424L26.335,17H11.819Z" transform="translate(3.985 5.732)" fill="#089768"/>
  <path id="Path_4635" data-name="Path 4635" d="M0,8V36.08a4.011,4.011,0,0,0,4.011,4.011H38.778a4.011,4.011,0,0,0,4.011-4.011V8ZM18.052,34.743a2.006,2.006,0,1,1,2.006-2.006,2.006,2.006,0,0,1-2.006,2.006Zm8.023,0a2.006,2.006,0,1,1,2.006-2.006,2.006,2.006,0,0,1-2.006,2.006Zm7.3-15.678-2.4,8.391a2.685,2.685,0,0,1-2.571,1.939H17.141a2.684,2.684,0,0,1-2.622-2.149L12.275,16.023H9.36a1.337,1.337,0,0,1,0-2.674h4.011a1.337,1.337,0,0,1,1.31,1.07l.588,2.941H32.092a1.337,1.337,0,0,1,1.286,1.7Z" transform="translate(0 2.697)" fill="#089768"/>
</svg>
