<svg xmlns="http://www.w3.org/2000/svg" width="48.162" height="40.855" viewBox="0 0 48.162 40.855">
  <g id="group" transform="translate(0 -38.84)">
    <g id="Group_135" data-name="Group 135" transform="translate(37.485 60.897)">
      <g id="Group_134" data-name="Group 134" transform="translate(0 0)">
        <path id="Path_1874" data-name="Path 1874" d="M402.219,273.32h-3.725a9.689,9.689,0,0,1,.587,3.33v14.077a4.151,4.151,0,0,1-.239,1.391H405a4.176,4.176,0,0,0,4.172-4.172v-7.674A6.96,6.96,0,0,0,402.219,273.32Z" transform="translate(-398.494 -273.32)" fill="#089768"/>
      </g>
    </g>
    <g id="Group_137" data-name="Group 137" transform="translate(0 60.897)">
      <g id="Group_136" data-name="Group 136">
        <path id="Path_1875" data-name="Path 1875" d="M10.09,276.651a9.688,9.688,0,0,1,.587-3.33H6.952A6.96,6.96,0,0,0,0,280.273v7.674a4.176,4.176,0,0,0,4.171,4.172h6.158a4.153,4.153,0,0,1-.239-1.391Z" transform="translate(0 -273.321)" fill="#089768"/>
      </g>
    </g>
    <g id="Group_139" data-name="Group 139" transform="translate(12.871 57.275)">
      <g id="Group_138" data-name="Group 138" transform="translate(0 0)">
        <path id="Path_1876" data-name="Path 1876" d="M152.3,234.815h-8.515a6.96,6.96,0,0,0-6.952,6.952v14.077a1.391,1.391,0,0,0,1.39,1.391h19.639a1.39,1.39,0,0,0,1.39-1.391V241.767A6.96,6.96,0,0,0,152.3,234.815Z" transform="translate(-136.829 -234.815)" fill="#089768"/>
      </g>
    </g>
    <g id="Group_141" data-name="Group 141" transform="translate(15.72 38.84)">
      <g id="Group_140" data-name="Group 140">
        <path id="Path_1877" data-name="Path 1877" d="M175.475,38.84a8.36,8.36,0,1,0,8.361,8.361A8.371,8.371,0,0,0,175.475,38.84Z" transform="translate(-167.114 -38.84)" fill="#089768"/>
      </g>
    </g>
    <g id="Group_143" data-name="Group 143" transform="translate(3.146 46.633)">
      <g id="Group_142" data-name="Group 142">
        <path id="Path_1878" data-name="Path 1878" d="M39.7,121.689a6.25,6.25,0,1,0,6.253,6.253A6.26,6.26,0,0,0,39.7,121.689Z" transform="translate(-33.443 -121.689)" fill="#089768"/>
      </g>
    </g>
    <g id="Group_145" data-name="Group 145" transform="translate(32.51 46.633)">
      <g id="Group_144" data-name="Group 144">
        <path id="Path_1879" data-name="Path 1879" d="M351.86,121.689a6.253,6.253,0,1,0,6.253,6.253A6.26,6.26,0,0,0,351.86,121.689Z" transform="translate(-345.607 -121.689)" fill="#089768"/>
      </g>
    </g>
  </g>
</svg>
