<svg xmlns="http://www.w3.org/2000/svg" width="46.427" height="46.427" viewBox="0 0 46.427 46.427">
  <g id="_x30_7" transform="translate(-2 -2)">
    <path id="Path_1880" data-name="Path 1880" d="M9.086,32.214A19.755,19.755,0,0,1,9.086,9H5.141a23.017,23.017,0,0,0,0,23.214Z" transform="translate(0 4.607)" fill="#089768"/>
    <path id="Path_1881" data-name="Path 1881" d="M9,9.086a19.755,19.755,0,0,1,23.214,0V5.141A23.017,23.017,0,0,0,9,5.141Z" transform="translate(4.607 0)" fill="#089768"/>
    <path id="Path_1882" data-name="Path 1882" d="M32.214,25.727A19.755,19.755,0,0,1,9,25.727v3.945a23.017,23.017,0,0,0,23.214,0Z" transform="translate(4.607 15.615)" fill="#089768"/>
    <path id="Path_1883" data-name="Path 1883" d="M25.727,9a19.755,19.755,0,0,1,0,23.214h3.945A23.017,23.017,0,0,0,29.671,9Z" transform="translate(15.615 4.607)" fill="#089768"/>
    <path id="Path_1884" data-name="Path 1884" d="M10.291,3.658A1.658,1.658,0,0,0,8.632,5.316v.972l-3.8-3.8A1.658,1.658,0,0,0,2.486,4.83l3.8,3.8H5.316a1.658,1.658,0,0,0,0,3.316h4.974a1.658,1.658,0,0,0,1.658-1.658V5.316a1.658,1.658,0,0,0-1.658-1.658Z" transform="translate(0 0)" fill="#089768"/>
    <path id="Path_1885" data-name="Path 1885" d="M10.291,24H5.316a1.658,1.658,0,1,0,0,3.316h.972l-3.8,3.8A1.658,1.658,0,1,0,4.83,33.463l3.8-3.8v.972a1.658,1.658,0,0,0,3.316,0V25.658A1.658,1.658,0,0,0,10.291,24Z" transform="translate(0 14.479)" fill="#089768"/>
    <path id="Path_1886" data-name="Path 1886" d="M29.661,27.316h.972a1.658,1.658,0,0,0,0-3.316H25.658A1.658,1.658,0,0,0,24,25.658v4.974a1.658,1.658,0,0,0,3.316,0v-.972l3.8,3.8a1.658,1.658,0,1,0,2.345-2.345Z" transform="translate(14.479 14.479)" fill="#089768"/>
    <path id="Path_1887" data-name="Path 1887" d="M25.658,11.949h4.974a1.658,1.658,0,0,0,0-3.316h-.972l3.8-3.8a1.658,1.658,0,1,0-2.345-2.345l-3.8,3.8V5.316a1.658,1.658,0,1,0-3.316,0v4.974a1.658,1.658,0,0,0,1.658,1.658Z" transform="translate(14.479 0)" fill="#089768"/>
    <path id="Path_1888" data-name="Path 1888" d="M9,15v6.632a11.607,11.607,0,0,0,23.214,0V15Zm4.974,4.974a1.648,1.648,0,0,1,1.644-1.658h.018a1.658,1.658,0,1,1-1.662,1.658ZM25.328,26.38a6.856,6.856,0,0,1-9.443,0,.829.829,0,0,1,1.151-1.193,5.181,5.181,0,0,0,7.138,0,.83.83,0,0,1,1.153,1.193Zm.257-4.748a1.658,1.658,0,0,1-.018-3.316h.018a1.658,1.658,0,0,1,0,3.316Z" transform="translate(4.607 8.556)" fill="#089768"/>
    <path id="Path_1889" data-name="Path 1889" d="M34.53,18.607H8A11.607,11.607,0,0,1,19.607,7h3.316A11.607,11.607,0,0,1,34.53,18.607Z" transform="translate(3.949 3.291)" fill="#089768"/>
  </g>
</svg>
