<svg id="Group_51" data-name="Group 51" xmlns="http://www.w3.org/2000/svg" xmlns:xlink="http://www.w3.org/1999/xlink" width="40" height="40" viewBox="0 0 40 40">
  <defs>
    <clipPath id="clip-path">
      <rect id="Rectangle_51" data-name="Rectangle 51" width="40" height="40" fill="none"/>
    </clipPath>
  </defs>
  <g id="Group_50" data-name="Group 50" clip-path="url(#clip-path)">
    <path id="Path_1733" data-name="Path 1733" d="M40,20A20,20,0,1,1,20,0,20,20,0,0,1,40,20" fill="#ed2635"/>
    <path id="Path_1734" data-name="Path 1734" d="M135.967,170.369a5.43,5.43,0,0,0-1-2.489,3.586,3.586,0,0,0-2.513-1.062c-3.51-.254-8.775-.254-8.775-.254h-.01s-5.265,0-8.775.254a3.587,3.587,0,0,0-2.513,1.062,5.425,5.425,0,0,0-1,2.489,37.871,37.871,0,0,0-.251,4.059v1.9a37.872,37.872,0,0,0,.251,4.059,5.428,5.428,0,0,0,1,2.49,4.253,4.253,0,0,0,2.765,1.072c2.007.193,8.527.252,8.527.252s5.27-.008,8.78-.262a3.59,3.59,0,0,0,2.513-1.062,5.432,5.432,0,0,0,1-2.49,37.991,37.991,0,0,0,.25-4.059v-1.9a37.99,37.99,0,0,0-.25-4.059m-14.88,8.268V171.59l6.777,3.536Z" transform="translate(-103.677 -155.384)" fill="#fff"/>
  </g>
</svg>
