<svg id="ZF_logo_STD_Blue_3C" xmlns="http://www.w3.org/2000/svg" width="51.251" height="51.251" viewBox="0 0 51.251 51.251">
  <path id="Path_1752" data-name="Path 1752" d="M193.051,167.425a25.625,25.625,0,1,0-25.625,25.625,25.627,25.627,0,0,0,25.625-25.625m-45.916-11.158h12.478l-10.29,25.445h36.3a23.142,23.142,0,0,1-38.483-25.445m35.12,11.068v-3.129h-6.275v-7.921h11.7a23.215,23.215,0,0,1,0,22.316H158.058l10.272-25.445H149.215a23.172,23.172,0,0,1,36.422,0H169.089V176.3H176v-8.97Z" transform="translate(-141.8 -141.8)" fill="#656565"/>
</svg>
