<svg xmlns="http://www.w3.org/2000/svg" version="1.1" xmlns:xlink="http://www.w3.org/1999/xlink" width="512" height="512" x="0" y="0" viewBox="0 0 25 25" style="enable-background:new 0 0 512 512" xml:space="preserve" class=""><g><path d="M15.5.5H5.3C3.8.5 2.5 1.8 2.5 3.3v18.4c0 1.5 1.3 2.8 2.8 2.8h10.1c1.5 0 2.8-1.3 2.8-2.8v-2.5h-2v.4c0 .6-.5 1-1 1H5.5c-.5 0-1-.4-1-1v-16c0-.6.5-1 1-1h9.7c.5 0 1 .4 1 1v.8H18.3v-1c0-1.6-1.3-2.9-2.8-2.9z" fill="#ffffff" opacity="1" data-original="#000000"></path><path d="M22.3 10c.1-.1.2-.3.1-.4l-.7-1.2c-.1-.1-.2-.2-.4-.1l-.9.3c-.6-.5-1.3-1-2-1.2l-.1-.9c0-.2-.2-.3-.3-.3h-1.3c-.2 0-.3.1-.3.3l-.1.9c-.8.2-1.5.6-2 1.2l-.9-.3c-.1-.1-.3 0-.4.1l-.7 1.2c-.1.1 0 .3.1.4l.6.5c.1.1.1.2.1.3-.1.3-.1.6-.1 1 0 .3 0 .7.1 1 0 .1 0 .2-.1.3l-.6.5c-.1.1-.2.3-.1.4l.7 1c.1.1.3.2.4.1l.9-.3c.6.6 1.3 1 2 1.2l.1.9c0 .2.2.3.3.3H18c.2 0 .3-.1.3-.3l.1-.9c.8-.2 1.5-.6 2-1.2l.9.3c.2 0 .3 0 .4-.1l.7-1.1c.1-.1.1-.3-.1-.4l-.5-.5c-.1-.1-.1-.2-.1-.3.1-.3.1-.6.1-1 0-.3 0-.7-.1-1 0-.1 0-.2.1-.3zm-4.9 3.8c-1.1 0-2.1-.9-2.1-2.1s.9-2.1 2.1-2.1 2.1.9 2.1 2.1c-.1 1.2-1 2.1-2.1 2.1z" fill="#ffffff" opacity="1" data-original="#000000"></path></g></svg>