<svg xmlns="http://www.w3.org/2000/svg" version="1.1" xmlns:xlink="http://www.w3.org/1999/xlink" width="512" height="512" x="0" y="0" viewBox="0 0 60 60" style="enable-background:new 0 0 512 512" xml:space="preserve" class=""><g><path d="M49.685 16.037a1 1 0 0 1-.9-1.236A7.555 7.555 0 0 0 49 13a7.983 7.983 0 0 0-13.348-5.929 1.023 1.023 0 0 1-.754.256 1 1 0 0 1-.7-.376A12.992 12.992 0 0 0 11 15a1.059 1.059 0 0 1-.9 1.055A8.995 8.995 0 0 0 11 34h5V17a4 4 0 0 1 4-4h20a4 4 0 0 1 4 4v17h5a8.994 8.994 0 0 0 .685-17.963z" fill="#ffffff" opacity="1" data-original="#000000"></path><path d="M34 17a1 1 0 0 0 1-1v-1H25v1a1 1 0 0 0 1 1z" fill="#ffffff" opacity="1" data-original="#000000"></path><path d="M20 15a2 2 0 0 0-2 2v39a2 2 0 0 0 2 2h20a2 2 0 0 0 2-2V17a2 2 0 0 0-2-2h-3v1a3 3 0 0 1-3 3h-8a3 3 0 0 1-3-3v-1zm15 39a1 1 0 0 1 0 2H25a1 1 0 0 1 0-2zm-5.707-31.707a1 1 0 0 1 1.414 1.414l-7 7a1 1 0 0 1-1.414-1.414zm-6 0a1 1 0 0 1 1.414 1.414l-2 2a1 1 0 0 1-1.414-1.414z" fill="#ffffff" opacity="1" data-original="#000000"></path></g></svg>