<svg xmlns="http://www.w3.org/2000/svg" version="1.1" xmlns:xlink="http://www.w3.org/1999/xlink" width="512" height="512" x="0" y="0" viewBox="0 0 512 512" style="enable-background:new 0 0 512 512" xml:space="preserve" class=""><g><path d="M233.944 296.94c-3.815 0-6.918 3.104-6.918 6.919 0 3.814 3.104 6.918 6.918 6.918s6.918-3.104 6.918-6.918c.001-3.815-3.103-6.919-6.918-6.919zM310.529 247.125l15.86-56.827H203.247l15.328 56.827zM310.813 87.096l13.037-33.077H188.422l14.371 33.077zM296.875 296.94c-3.815 0-6.918 3.104-6.918 6.919 0 3.814 3.104 6.918 6.918 6.918s6.918-3.104 6.918-6.918c0-3.815-3.104-6.919-6.918-6.919z" fill="#ffffff" opacity="1" data-original="#000000" class=""></path><path d="M326.923 100.763a10 10 0 0 1-9.303 6.333H196.235a10 10 0 0 1-9.172-6.015l-20.371-47.062h-4.212c-30.881 0-56 25.12-56 56v251.648h299.04V110.019c0-30.88-25.119-56-56-56h-4.216zm-92.979 230.014c-14.843 0-26.918-12.075-26.918-26.918s12.076-26.919 26.918-26.919 26.918 12.076 26.918 26.919-12.075 26.918-26.918 26.918zm62.931 0c-14.843 0-26.918-12.075-26.918-26.918s12.076-26.919 26.918-26.919 26.918 12.076 26.918 26.919-12.075 26.918-26.918 26.918zM152.438 145.954h31.188a10 10 0 0 1 9.655 7.396l4.572 16.948h141.71a10.002 10.002 0 0 1 9.632 12.688l-21.441 76.827a10 10 0 0 1-9.632 7.312H210.915a10 10 0 0 1-9.655-7.396l-25.294-93.775h-23.527c-5.523 0-10-4.478-10-10s4.476-10 9.999-10zM106.48 381.668v20.312c0 30.88 25.119 56 56 56h187.04c30.881 0 56-25.12 56-56v-20.312zM286.334 426h-60.668c-5.522 0-10-4.478-10-10 0-5.523 4.478-10 10-10h60.668c5.522 0 10 4.477 10 10 0 5.522-4.478 10-10 10z" fill="#ffffff" opacity="1" data-original="#000000" class=""></path></g></svg>