<svg xmlns="http://www.w3.org/2000/svg" version="1.1" xmlns:xlink="http://www.w3.org/1999/xlink" width="512" height="512" x="0" y="0" viewBox="0 0 512 512" style="enable-background:new 0 0 512 512" xml:space="preserve" class=""><g><path fill-rule="evenodd" d="M128.489 62.487a54.52 54.52 0 0 1 15.961 6.617l10.372-4.606 12.224 12.224-4.605 10.369a54.492 54.492 0 0 1 6.618 15.965l10.582 4.073v17.287l-10.584 4.074a54.52 54.52 0 0 1-6.617 15.961l4.607 10.372-12.224 12.224-10.368-4.605a54.513 54.513 0 0 1-15.966 6.618l-4.073 10.581h-17.287l-4.074-10.584a54.52 54.52 0 0 1-15.961-6.617l-10.372 4.607-12.224-12.224 4.605-10.368a54.486 54.486 0 0 1-6.618-15.966l-10.582-4.073v-17.287l10.583-4.074a54.515 54.515 0 0 1 6.617-15.962l-4.606-10.371 12.224-12.224 10.372 4.606a54.52 54.52 0 0 1 15.961-6.617l4.074-10.584h17.287zm29.526-23.704a7.974 7.974 0 0 0 4.684 14.618l17.091-.614c5.368.191 9.466-4.925 7.972-10.177l-4.848-16.991a7.993 7.993 0 0 0-15.429.199A103.66 103.66 0 0 0 115.771 12C58.461 12 12 58.462 12 115.772c0 18.762 5.096 37.206 14.75 53.295a7.976 7.976 0 0 0 13.688-8.188C32.211 147.169 28 131.753 28 115.772 28 67.296 67.295 28 115.771 28c14.841 0 29.257 3.634 42.244 10.783zM64.057 205.731a103.624 103.624 0 0 0 51.715 13.812c57.31 0 103.772-46.461 103.772-103.771 0-18.348-4.819-36.29-14.057-52.146a7.981 7.981 0 0 0-13.812 8c7.834 13.446 11.87 28.59 11.87 44.146 0 48.476-39.296 87.771-87.772 87.771-14.83 0-29.254-3.645-42.232-10.79a7.974 7.974 0 0 0-4.695-14.611l-17.091.614c-5.368-.189-9.467 4.924-7.972 10.177l4.848 16.991a7.991 7.991 0 0 0 15.426-.193zM233.608 94.285h230.417c2.815 0 5.118 2.303 5.118 5.117v229.526H50.857V227.092c-8.196-1.932-15.145-8.124-17.614-16.778l-4.848-16.991a24.001 24.001 0 0 1-.883-5.195A24.193 24.193 0 0 1 20 184.702v169.485c0 20.295 16.605 36.901 36.901 36.901h127.671v58.627h-56.168c-17.308 0-31.468 11.314-31.468 25.143V500h326.13v-25.143c0-13.829-14.16-25.143-31.468-25.143H335.43v-58.627H463.1c20.295 0 36.9-16.606 36.9-36.901V100.328c0-20.295-16.605-36.901-36.9-36.901H223.5a119.155 119.155 0 0 1 10.108 30.858zm-24.147 129.66a7.972 7.972 0 0 1-9.813-12.563l69.104-53.808a7.962 7.962 0 0 1 7.342-1.308l64.458 20.886 50.29-50.72-.785.069a7.998 7.998 0 1 1-1.375-15.937l22.495-1.973c5.219-.45 9.449 4.231 8.57 9.33l-2.454 21.955a7.985 7.985 0 0 1-15.904-1.423l-52.971 53.424a7.975 7.975 0 0 1-8.094 1.969l-65.109-21.102zm-16.514 32.276h23.216c3.855 0 7 3.145 7 7v49.709h-37.216v-49.709c0-3.856 3.144-7 7-7zm207.311-94.896h23.216c3.855 0 7 3.145 7 7v144.604h-37.216V168.325c0-3.855 3.144-7 7-7zm-69.104 64.33h23.216c3.856 0 7 3.145 7 7.001v80.274h-37.216v-80.274c0-3.857 3.145-7.001 7-7.001zm-69.103-15.511h23.216c3.855 0 7 3.144 7 7v95.786h-37.215v-95.786c-.001-3.856 3.143-7 6.999-7zM115.772 85.623c-16.652 0-30.149 13.497-30.149 30.149s13.497 30.149 30.149 30.149 30.149-13.497 30.149-30.149-13.497-30.149-30.149-30.149z" clip-rule="evenodd" fill="#ffffff" opacity="1" data-original="#000000" class=""></path></g></svg>