<svg xmlns="http://www.w3.org/2000/svg" version="1.1" xmlns:xlink="http://www.w3.org/1999/xlink" width="512" height="512" x="0" y="0" viewBox="0 0 128 128" style="enable-background:new 0 0 512 512" xml:space="preserve" class=""><g><path d="M86 6H32c-7.2 0-13 5.8-13 13v90c0 7.2 5.8 13 13 13h64c7.2 0 13-5.8 13-13V29c0-6.1-2.4-11.9-6.7-16.3S92.1 6 86 6zM51 79v12c0 1.7 1.3 3 3 3s3 1.3 3 3-1.3 3-3 3c-5 0-9-4-9-9V79c0-1.1-.9-2-2-2-1.7 0-3-1.3-3-3s1.3-3 3-3c1.1 0 2-.9 2-2V57c0-5 4-9 9-9 1.7 0 3 1.3 3 3s-1.3 3-3 3-3 1.3-3 3v12c0 1.9-.7 3.6-1.8 5 1.1 1.4 1.8 3.1 1.8 5zm34-2c-1.1 0-2 .9-2 2v12c0 5-4 9-9 9-1.7 0-3-1.3-3-3s1.3-3 3-3 3-1.3 3-3V79c0-1.9.7-3.6 1.8-5-1.1-1.4-1.8-3.1-1.8-5V57c0-1.7-1.3-3-3-3s-3-1.3-3-3 1.3-3 3-3c5 0 9 4 9 9v12c0 1.1.9 2 2 2 1.7 0 3 1.3 3 3s-1.3 3-3 3zm11-51c-3.9 0-7-3.1-7-7v-6.7c3.4.6 6.5 2.2 9 4.7s4.1 5.6 4.7 9z" fill="#ffffff" opacity="1" data-original="#000000" class=""></path></g></svg>