<svg xmlns="http://www.w3.org/2000/svg" version="1.1" xmlns:xlink="http://www.w3.org/1999/xlink" width="512" height="512" x="0" y="0" viewBox="0 0 512 512" style="enable-background:new 0 0 512 512" xml:space="preserve" class=""><g><path d="M489.22 218.75v28.94c0 8.65-5.33 15.99-13.55 18.68l-20.58 6.66c-6.41 2.1-10.94 6.83-12.81 13.29-4.08 14.46-9.84 28.2-17.01 41.05-3.29 5.9-3.4 12.44-.34 18.45l9.84 19.28c3.91 7.71 2.5 16.7-3.63 22.79l-20.47 20.47c-6.12 6.12-15.08 7.54-22.79 3.63l-19.28-9.84c-6.01-3.06-12.56-2.92-18.45.34-2.15 1.22-4.34 2.38-6.52 3.49 2.92-10.86 8.28-20.75 16.19-30.05 11.31-13.24 23.56-25.74 33.96-39.74 21.03-28.26 29.05-56.69 29.05-91.87 0-92.13-74.69-166.85-166.85-166.85-92.13 0-166.85 74.72-166.85 166.85 0 35.18 8.05 63.61 29.05 91.87 10.4 14 22.65 26.5 33.96 39.74 7.94 9.3 13.29 19.19 16.21 30.05a145.52 145.52 0 0 1-6.52-3.49c-5.9-3.26-12.47-3.4-18.48-.34l-19.28 9.84c-7.68 3.91-16.67 2.49-22.76-3.63L80.83 387.9c-6.09-6.09-7.51-15.08-3.6-22.79l9.84-19.28c3.06-6.01 2.92-12.56-.37-18.45a193.76 193.76 0 0 1-17.01-41.05c-1.84-6.49-6.41-11.2-12.81-13.29l-20.55-6.66c-8.22-2.69-13.55-10.03-13.55-18.68v-28.94c0-8.65 5.33-15.99 13.55-18.68l20.55-6.66c6.41-2.1 10.97-6.83 12.81-13.29a192.81 192.81 0 0 1 17.01-41.05c3.29-5.9 3.43-12.44.37-18.45l-9.84-19.28c-3.91-7.71-2.5-16.7 3.6-22.79l20.49-20.47c6.09-6.12 15.08-7.54 22.76-3.63l19.28 9.84c6.01 3.06 12.59 2.92 18.48-.34a191.79 191.79 0 0 1 41.04-17.04c6.46-1.84 11.2-6.41 13.29-12.81l6.66-20.55C225.54 5.33 232.88 0 241.53 0h28.94c8.65 0 15.99 5.33 18.65 13.55l6.69 20.55c2.07 6.41 6.8 10.97 13.29 12.81 14.43 4.11 28.2 9.86 41.04 17.04 5.9 3.26 12.44 3.4 18.45.34l19.28-9.84c7.71-3.91 16.67-2.49 22.79 3.63l20.47 20.47c6.12 6.09 7.54 15.08 3.63 22.79l-9.84 19.28c-3.06 6.01-2.95 12.56.34 18.45a192.296 192.296 0 0 1 17.04 41.05c1.84 6.49 6.38 11.2 12.81 13.29l20.55 6.66c8.23 2.7 13.56 10.04 13.56 18.68zM266.7 261.61c0-2.95-1.19-5.64-3.12-7.57a10.66 10.66 0 0 0-7.6-3.15c-2.95 0-5.64 1.19-7.57 3.15a10.713 10.713 0 0 0-3.15 7.57c0 2.98 1.22 5.64 3.15 7.6 1.93 1.93 4.62 3.12 7.57 3.12 2.98 0 5.64-1.19 7.6-3.12 1.93-1.96 3.12-4.62 3.12-7.6zm139.63-17.29C406.33 161.29 339.01 94 255.99 94c-83.03 0-150.32 67.29-150.32 150.32 0 63.33 29.37 86.12 59.04 120.9 7.6 8.9 13.27 18.4 17.06 28.54h32.15V346h-19.11c-4.56 0-8.25-3.69-8.25-8.25v-26.33c-4.2-1.33-7.97-3.66-11-6.72-4.93-4.93-7.99-11.74-7.99-19.25s3.06-14.31 7.99-19.25c4.93-4.93 11.74-7.99 19.25-7.99s14.31 3.06 19.25 7.99c4.93 4.93 7.99 11.74 7.99 19.25s-3.06 14.31-7.99 19.25c-3.03 3.06-6.8 5.39-11 6.72v18.06h19.13c4.54 0 8.25 3.71 8.25 8.28v56.01h17.29V287.58c-4.2-1.33-7.97-3.66-11-6.72-4.93-4.9-7.96-11.74-7.96-19.25s3.03-14.31 7.96-19.25a27.14 27.14 0 0 1 19.25-7.97c7.54 0 14.34 3.03 19.28 7.97 4.9 4.93 7.96 11.74 7.96 19.25s-3.06 14.34-7.96 19.25c-3.06 3.06-6.8 5.39-11 6.72v106.19h17.29v-56.01c0-4.56 3.68-8.28 8.25-8.28h19.13v-18.06a26.873 26.873 0 0 1-11-6.72c-4.93-4.93-7.99-11.74-7.99-19.25s3.06-14.31 7.99-19.25c4.9-4.93 11.74-7.99 19.25-7.99s14.32 3.06 19.25 7.99 7.97 11.74 7.97 19.25-3.03 14.31-7.97 19.25c-3.03 3.06-6.8 5.39-11 6.72v26.33c0 4.56-3.68 8.25-8.25 8.25h-19.13v47.76h32.17c3.77-10.15 9.44-19.64 17.04-28.54 29.71-34.78 59.07-57.57 59.07-120.9zm-203.95 33.56a10.59 10.59 0 0 0-7.57-3.15c-2.98 0-5.64 1.19-7.57 3.15-1.96 1.93-3.15 4.62-3.15 7.57s1.19 5.64 3.15 7.57c1.93 1.96 4.59 3.15 7.57 3.15 2.95 0 5.64-1.19 7.57-3.15 1.96-1.93 3.15-4.62 3.15-7.57s-1.19-5.64-3.15-7.57zm122.37 15.14c1.96-1.93 3.15-4.62 3.15-7.57s-1.19-5.64-3.15-7.57a10.59 10.59 0 0 0-7.57-3.15c-2.98 0-5.64 1.19-7.6 3.15-1.93 1.93-3.12 4.62-3.12 7.57s1.19 5.64 3.12 7.57a10.66 10.66 0 0 0 7.6 3.15c2.95 0 5.65-1.19 7.57-3.15zM245.61 512h20.78c26.59 0 49.13-18.11 55.96-42.6H189.66c6.8 24.48 29.36 42.6 55.95 42.6zm-58.05-84.87v25.77h136.88v-25.77c0-5.81.45-11.42 1.36-16.84H186.2c.9 5.41 1.36 11.03 1.36 16.84z" fill="#ffffff" opacity="1" data-original="#000000"></path></g></svg>