<svg xmlns="http://www.w3.org/2000/svg" version="1.1" xmlns:xlink="http://www.w3.org/1999/xlink" width="512" height="512" x="0" y="0" viewBox="0 0 64 64" style="enable-background:new 0 0 512 512" xml:space="preserve" class=""><g><path d="M42.606 39.534c.158 5.783 8.604 5.778 8.767 0a4.384 4.384 0 0 0-8.767 0z" fill="#ffffff" opacity="1" data-original="#000000" class=""></path><path d="M59 36.652c-.976.071-2-.078-2.403-1.091a1.769 1.769 0 0 1 .38-1.942l.541-.54a.997.997 0 0 0 0-1.411l-2.662-2.662a.997.997 0 0 0-1.411 0l-.54.54a1.788 1.788 0 0 1-3.033-1.261v-.76a1.004 1.004 0 0 0-1-1.001h-3.764a1.004 1.004 0 0 0-1 1v.761a1.788 1.788 0 0 1-3.033 1.26l-.54-.54a.997.997 0 0 0-1.412 0l-2.662 2.663a.997.997 0 0 0 0 1.41l.54.541a1.788 1.788 0 0 1-1.26 3.033h-.76a1.004 1.004 0 0 0-1.002 1v3.763a1.004 1.004 0 0 0 1.001 1.001h.76a1.778 1.778 0 0 1 1.262 3.033l-.54.54a.997.997 0 0 0 0 1.411l2.661 2.662a.997.997 0 0 0 1.411 0c1.519-1.985 3.904-.98 3.573 1.482a1.004 1.004 0 0 0 1.001 1h3.763a1.004 1.004 0 0 0 1-1v-.761a1.788 1.788 0 0 1 3.033-1.261l.54.54a.997.997 0 0 0 1.412 0l2.662-2.662a.997.997 0 0 0 0-1.41 2.12 2.12 0 0 1-.92-2.483c.393-1.012 1.437-1.163 2.401-1.09A1.004 1.004 0 0 0 60 41.414v-3.763a1.004 1.004 0 0 0-1-1zm-6.366 5.864c-3.05 5.804-12.02 3.653-12.03-2.982a6.385 6.385 0 1 1 12.03 2.982z" fill="#ffffff" opacity="1" data-original="#000000" class=""></path><path d="M35.2 34.65a3.04 3.04 0 0 1-.16-4.393l2.672-2.663a3.008 3.008 0 0 1 4.244 0c.213.217.135.168.15-.07a3.011 3.011 0 0 1 3.002-3.002h3.763a3.028 3.028 0 0 1 3.003 3.223 3.026 3.026 0 0 1 4.393-.15l2.662 2.662a2.935 2.935 0 0 1 .88 2.111c0 .81.191 0 .191-1.23a12.485 12.485 0 0 0-12.47-12.47 12.13 12.13 0 0 0-2.692.3 11.72 11.72 0 0 1 .16 1.81 1.001 1.001 0 0 1-2.002.001c-.22-10.766-15.004-12.909-18.314-2.722a11.184 11.184 0 0 1 2.362 1.43.998.998 0 0 1-1.231 1.572 9.368 9.368 0 0 0-14.672 4.494 1 1 0 0 1-.63.54C.608 28.96 2.504 43.267 12.802 43.477l20.066.07a3.004 3.004 0 0 1-.89-2.132v-3.763A3.028 3.028 0 0 1 35.2 34.65z" fill="#ffffff" opacity="1" data-original="#000000" class=""></path></g></svg>