<svg xmlns="http://www.w3.org/2000/svg" version="1.1" xmlns:xlink="http://www.w3.org/1999/xlink" width="512" height="512" x="0" y="0" viewBox="0 0 60 60" style="enable-background:new 0 0 512 512" xml:space="preserve" class=""><g><path d="M43.92 17.89c-1.01 0-1.99.14-2.95.41.07-.53.11-1.05.11-1.58 0-6.11-4.97-11.08-11.08-11.08s-11.08 4.97-11.08 11.08c0 .53.04 1.05.11 1.58-.96-.27-1.94-.41-2.95-.41C9.97 17.89 5 22.88 5 28.98s4.97 11.08 11.08 11.08h5.44v9.39h-3.6a3.843 3.843 0 0 0-3.7-2.83c-2.14 0-3.87 1.73-3.87 3.86s1.73 3.87 3.87 3.87c1.79 0 3.29-1.24 3.72-2.9h4.58c.55 0 1-.45 1-1V40.07H29v6.71c-1.64.44-2.86 1.93-2.86 3.71 0 2.13 1.73 3.87 3.86 3.87s3.87-1.74 3.87-3.87c0-1.78-1.22-3.27-2.87-3.71v-6.71h5.48v10.39c0 .55.45 1 1 1h4.58c.43 1.66 1.93 2.9 3.73 2.9 2.13 0 3.86-1.74 3.86-3.87s-1.73-3.86-3.86-3.86c-1.77 0-3.25 1.2-3.71 2.83h-3.6v-9.39h5.44C50.03 40.07 55 35.1 55 28.99s-4.97-11.1-11.08-11.1z" fill="#ffffff" opacity="1" data-original="#000000" class=""></path></g></svg>