<svg xmlns="http://www.w3.org/2000/svg" version="1.1" xmlns:xlink="http://www.w3.org/1999/xlink" width="512" height="512" x="0" y="0" viewBox="0 0 32 32" style="enable-background:new 0 0 512 512" xml:space="preserve" class=""><g><path d="m21.095 21.621.716-2.866a6.95 6.95 0 0 0 1.686-.697l2.532 1.52a.5.5 0 0 0 .611-.076l.862-.862a.5.5 0 0 0 .075-.61l-1.52-2.533a6.95 6.95 0 0 0 .698-1.686l2.866-.716A.5.5 0 0 0 30 12.61v-1.22a.5.5 0 0 0-.379-.485l-2.866-.716a6.95 6.95 0 0 0-.697-1.686l1.52-2.532a.5.5 0 0 0-.076-.611l-.862-.862a.5.5 0 0 0-.61-.075l-2.533 1.52a6.95 6.95 0 0 0-1.686-.698l-.716-2.866A.5.5 0 0 0 20.61 2h-1.22a.5.5 0 0 0-.485.379l-.716 2.866a6.95 6.95 0 0 0-1.686.697l-2.532-1.52a.5.5 0 0 0-.611.076l-.862.862a.5.5 0 0 0-.075.61l1.52 2.533a6.95 6.95 0 0 0-.698 1.686l-2.866.716a.5.5 0 0 0-.379.485v1.22a.5.5 0 0 0 .379.485l2.866.716a6.95 6.95 0 0 0 .697 1.686l-1.08 1.8a6.032 6.032 0 0 1 2.406 1.502l1.235-.741a6.95 6.95 0 0 0 1.686.697l.716 2.866a.5.5 0 0 0 .485.379h1.22a.5.5 0 0 0 .485-.379zM20 16a4 4 0 1 1 0-8 4 4 0 0 1 0 8zM6 22c.034 0 .066.01.1.01a5 5 0 0 1 9.8 0c.034 0 .066-.01.1-.01a4 4 0 1 1 0 8 3.962 3.962 0 0 1-2.5-.9c-.687.554-1.549.9-2.5.9s-1.813-.346-2.5-.9c-.687.554-1.549.9-2.5.9a4 4 0 1 1 0-8z" fill="#ffffff" opacity="1" data-original="#000000" class=""></path><circle cx="20" cy="12" r="3" fill="#ffffff" opacity="1" data-original="#000000" class=""></circle></g></svg>