<svg xmlns="http://www.w3.org/2000/svg" version="1.1" xmlns:xlink="http://www.w3.org/1999/xlink" width="512" height="512" x="0" y="0" viewBox="0 0 512 512" style="enable-background:new 0 0 512 512" xml:space="preserve" class=""><g><path fill-rule="evenodd" d="M234.598 12.182h42.804c6.098 0 11.087 4.989 11.087 11.088v20.193c0 12.214 6.968 22.643 18.252 27.317s23.586 2.227 32.222-6.409l14.279-14.279c4.312-4.312 11.368-4.312 15.68 0l30.267 30.267c4.312 4.312 4.312 11.368 0 15.68l-14.278 14.279c-8.637 8.636-11.083 20.938-6.41 32.222 4.674 11.284 15.103 18.252 27.317 18.252h20.193c6.098 0 11.088 4.99 11.088 11.088v1.182c-23.588 2.434-46.795 8.633-69.535 18.24-7.754 3.276-11.647 12.02-8.893 19.974l1.944 5.614c-9.975-1.088-19.208-3.305-28.283-5.937a78.547 78.547 0 0 0 2.002-17.671c0-43.263-35.072-78.335-78.335-78.335s-78.334 35.072-78.334 78.335c0 12.237 2.808 23.818 7.811 34.136a133.129 133.129 0 0 1-17.37-.675c-6.223-.656-12.493-1.774-18.962-3.387l4.183-12.08c2.754-7.954-1.139-16.698-8.893-19.974-22.74-9.607-45.947-15.806-69.536-18.24v-1.182c0-6.098 4.99-11.088 11.088-11.088h20.193c12.214 0 22.643-6.968 27.317-18.252s2.227-23.586-6.41-32.222l-14.276-14.28c-4.312-4.312-4.312-11.368 0-15.68l30.267-30.267c4.312-4.312 11.368-4.312 15.68 0l14.278 14.279c8.637 8.636 20.938 11.083 32.222 6.41 11.284-4.674 18.252-15.103 18.252-27.317V23.269c.001-6.098 4.991-11.087 11.089-11.087zM208.72 432.18a7.48 7.48 0 0 1 10.722-10.429c18.886 19.352 37.653 38.752 56.759 57.857 6.443 6.443 16.962 6.441 23.404 0 6.426-6.427 6.425-16.976-.001-23.402.028-.028-41.951-43.013-45.775-46.932a7.48 7.48 0 0 1 10.723-10.43c17.396 17.825 34.679 35.777 52.274 53.374 6.426 6.426 16.976 6.424 23.401-.001 6.441-6.441 6.446-16.959.002-23.403.028-.028-41.951-43.013-45.775-46.932a7.48 7.48 0 1 1 10.723-10.429c16.687 17.098 33.271 34.369 50.146 51.245 6.391 6.391 17.012 6.391 23.403 0 6.542-6.542 6.166-16.982-.117-23.551-3.51-3.684-7.02-7.369-10.538-11.047-5.147-2.096-9.934-5.252-14.1-9.414l-87.152-87.098c-7.344 5.986-17.973 15.434-17.973 28.367 0 17.065-8.087 31.048-20.391 41.008-13.142 10.638-31.159 16.59-48.999 16.59a7.5 7.5 0 0 1-7.5-7.5v-80.059c0-11.961 4.635-22.638 13.346-30.829l19.477-18.314c-13.25 1.762-25.638 2.1-38.195.776-7.367-.777-14.749-2.121-22.353-4.079L99.415 366.957c22.869 11.485 38.463 27.384 55.929 45.282 6.849 7.018 82.034 84.318 82.177 84.175 4.626 4.627 12.255 4.468 16.892-.056 4.763-4.679 4.804-12.523.082-17.246zm157.328-199.603c-19.084-1.147-35.438-6.32-52.251-11.642-28.701-9.084-51.451-13.675-76.062 9.466l-42.179 39.659c-5.811 5.464-8.6 11.958-8.6 19.93v72.143c11.953-1.324 23.415-5.774 32.065-12.776 8.945-7.241 14.824-17.284 14.824-29.406 0-20.985 15.738-33.688 25.129-41.267.275-.222 3.353-2.78 3.355-2.777a7.48 7.48 0 0 1 10.246.284l91.943 91.886c8.041 8.036 19.182 10.267 29.704 5.973 6.385-2.606 12.243-5.435 17.951-8.28zM501 191.058c-42.533-8.595-85.066-3.908-127.599 14.06a.998.998 0 0 0-.556 1.248l60.6 174.991c.142.41.511.673.945.673H501zm-490 0V382.03h66.61a.986.986 0 0 0 .945-.673l60.6-174.991a.998.998 0 0 0-.556-1.248C96.066 187.15 53.533 182.463 11 191.058z" clip-rule="evenodd" fill="#ffffff" opacity="1" data-original="#000000" class=""></path></g></svg>