<svg xmlns="http://www.w3.org/2000/svg" version="1.1" xmlns:xlink="http://www.w3.org/1999/xlink" width="512" height="512" x="0" y="0" viewBox="0 0 32 32" style="enable-background:new 0 0 512 512" xml:space="preserve" class=""><g><path d="M29 6a.996.996 0 0 1-.74-.328c-1.989-2.188-4.532-2.188-6.52 0a1 1 0 1 1-1.48-1.344C21.643 2.805 23.282 2 25 2s3.357.805 4.74 2.328A1 1 0 0 1 29 6z" fill="#ffffff" opacity="1" data-original="#000000" class=""></path><path d="M27.001 8a.998.998 0 0 1-.771-.362c-.68-.823-1.78-.823-2.46 0a1 1 0 1 1-1.54-1.276C22.958 5.483 23.94 5 25 5s2.042.483 2.77 1.362A1 1 0 0 1 27.002 8z" fill="#ffffff" opacity="1" data-original="#000000" class=""></path><path d="M9 21a1 1 0 0 1-.929-1.371l2-5a1 1 0 0 1 1.636-.336l1.799 1.798 1.532-5.365c.104-.366.407-.64.78-.71.373-.063.754.08.982.384l2.308 3.078 5.185-5.185a1 1 0 1 1 1.414 1.414l-6 6a.962.962 0 0 1-.778.29.997.997 0 0 1-.729-.397l-1.792-2.39-1.446 5.064a1.001 1.001 0 0 1-1.669.433l-1.928-1.928-1.436 3.592A1 1 0 0 1 9 21z" fill="#ffffff" opacity="1" data-original="#000000" class=""></path><path d="M20.414 16.414a1.965 1.965 0 0 1-1.396.587l-.18-.008c-.56-.04-1.09-.33-1.439-.795l-.583-.776-.892 3.127A2.01 2.01 0 0 1 14 19.999c-.53 0-1.045-.214-1.416-.586l-.855-.854-.873 2.183A1.99 1.99 0 0 1 9 22a2.003 2.003 0 0 1-1.857-2.742l2-5A1.993 1.993 0 0 1 11.003 13c.532 0 1.033.208 1.411.586l.597.597 1.065-3.732a1.991 1.991 0 0 1 1.917-1.45c.631 0 1.232.3 1.607.8l1.617 2.154 2.977-2.977C20.226 5.984 16.843 4 13 4 6.935 4 2 8.935 2 15s4.935 11 11 11 11-4.935 11-11c0-.678-.07-1.339-.189-1.983z" fill="#ffffff" opacity="1" data-original="#000000" class=""></path><path d="m27.32 26.034-3.742-3.741a1 1 0 0 0-1.414 0l-1.871 1.871a1 1 0 0 0 0 1.414l3.742 3.742c.439.439 1.023.68 1.642.68.62 0 1.204-.242 1.642-.68a2.326 2.326 0 0 0 0-3.286z" fill="#ffffff" opacity="1" data-original="#000000" class=""></path></g></svg>