<svg xmlns="http://www.w3.org/2000/svg" version="1.1" xmlns:xlink="http://www.w3.org/1999/xlink" width="512" height="512" x="0" y="0" viewBox="0 0 512 512" style="enable-background:new 0 0 512 512" xml:space="preserve" class=""><g><path d="M352.906 347.235H175.807c-43.881 0-79.58-35.699-79.58-79.58 0-41.119 31.346-75.055 71.399-79.164 3.804-36.072 34.405-64.276 71.469-64.276 18.898 0 36.757 7.423 50.287 20.902 10.043 10.006 16.743 22.392 19.54 35.828 22.076 3.319 39.993 19.516 45.833 40.671 33.601 1.278 60.734 28.74 60.983 62.312.125 16.876-6.352 32.764-18.237 44.737-11.885 11.975-27.723 18.57-44.595 18.57z" fill="#ffffff" opacity="1" data-original="#000000" class=""></path><path d="M52.983 355.28c-24.427-49.793-29.58-106.764-14.513-160.417 15.173-54.03 49.72-100.247 97.276-130.137 34.165-21.474 73.417-33.434 113.513-34.587 28.616-.829 57.16 3.842 83.97 13.571 2.952-9.912 7.972-18.935 14.557-26.581C316.19 5.02 282.338-.817 248.396.153c-45.445 1.308-89.918 14.854-128.614 39.175-53.87 33.86-93.003 86.216-110.193 147.424-17.065 60.769-11.219 125.312 16.463 181.74zM478.801 130.077l-26.103 14.78c28.658 50.614 36.624 109.637 22.43 166.197-14.238 56.735-49.364 105.13-98.906 136.269-36.78 23.117-78.371 34.711-120.033 34.709-30.683-.001-61.4-6.307-90.255-18.914a72.671 72.671 0 0 1-16.365 25.525 256.76 256.76 0 0 0 108.292 23.304c47.472-.268 93.921-13.833 134.324-39.227 56.119-35.273 95.908-90.094 112.038-154.364 16.077-64.066 7.049-130.931-25.422-188.279z" fill="#ffffff" opacity="1" data-original="#000000" class=""></path><circle cx="98.045" cy="437.701" r="43.498" fill="#ffffff" opacity="1" data-original="#000000" class=""></circle><circle cx="402.712" cy="64.367" r="43.498" transform="rotate(-67.48 402.758 64.252)" fill="#ffffff" opacity="1" data-original="#000000" class=""></circle></g></svg>