<svg xmlns="http://www.w3.org/2000/svg" version="1.1" xmlns:xlink="http://www.w3.org/1999/xlink" width="512" height="512" x="0" y="0" viewBox="0 0 24 24" style="enable-background:new 0 0 512 512" xml:space="preserve" fill-rule="evenodd" class=""><g><path d="M11 14.414v7.571h2v-7.571l1.293 1.293 1.414-1.414-3-3a.999.999 0 0 0-1.414 0l-3 3 1.414 1.414zM8.172 17l-1.293-1.293a2 2 0 0 1 0-2.828l3-3a2.998 2.998 0 0 1 4.242 0l3 3a2 2 0 0 1 0 2.828L15.828 17H17c2.76 0 5-2.24 5-5a5.006 5.006 0 0 0-3.582-4.796A7.004 7.004 0 0 0 12 3a7.005 7.005 0 0 0-6.944 6.112A4.001 4.001 0 0 0 6 17z" fill="#ffffff" opacity="1" data-original="#000000" class=""></path></g></svg>