<svg xmlns="http://www.w3.org/2000/svg" version="1.1" xmlns:xlink="http://www.w3.org/1999/xlink" width="512" height="512" x="0" y="0" viewBox="0 0 512 512" style="enable-background:new 0 0 512 512" xml:space="preserve" class=""><g><path fill-rule="evenodd" d="M492.7 374.84c0-46.96-38.21-85.17-85.17-85.17s-85.17 38.21-85.17 85.17c0 46.97 38.21 85.16 85.17 85.16 46.96.01 85.17-38.19 85.17-85.16zM154.61 210.49c0 18.87 13.86 34.57 31.93 37.45v-37.45c0-11.96 12.64-21.23 31.89-27.7a37.877 37.877 0 0 0-25.89-10.23c-20.92 0-37.93 17.01-37.93 37.93zm31.93 157.84H173.7c-2.86 0-5.19-2.33-5.19-5.2v-27.17c0-7.56-4.64-13.97-11.83-16.34-5.44-1.79-10.81-4.01-15.94-6.61-6.75-3.42-14.57-2.18-19.93 3.18l-19.22 19.22c-.97.98-2.28 1.51-3.67 1.51s-2.7-.53-3.67-1.51l-26.64-26.64a5.183 5.183 0 0 1-1.51-3.67c0-1.4.54-2.7 1.51-3.67l19.22-19.22c5.35-5.35 6.6-13.17 3.18-19.93a114.15 114.15 0 0 1-6.61-15.94c-2.36-7.18-8.78-11.83-16.34-11.83H39.89c-2.86 0-5.19-2.33-5.19-5.2v-37.67c0-2.87 2.33-5.2 5.19-5.2h27.17c7.56 0 13.98-4.64 16.34-11.83a114.15 114.15 0 0 1 6.61-15.94c3.42-6.75 2.17-14.57-3.18-19.92l-19.22-19.22c-.97-.98-1.51-2.28-1.51-3.67s.54-2.69 1.51-3.67l26.64-26.64c.97-.98 2.28-1.51 3.67-1.51s2.7.53 3.67 1.51l19.22 19.22c5.36 5.35 13.18 6.6 19.93 3.18 5.13-2.6 10.49-4.82 15.95-6.62 7.18-2.36 11.82-8.77 11.82-16.33V57.84c0-2.86 2.33-5.2 5.19-5.2h37.68c2.86 0 5.19 2.33 5.19 5.2v27.17c0 7.56 4.64 13.97 11.83 16.33 5.45 1.8 10.82 4.02 15.94 6.62 6.75 3.42 14.58 2.17 19.93-3.18l19.22-19.22c.97-.98 2.28-1.51 3.67-1.51s2.7.53 3.67 1.51l26.64 26.64c.97.98 1.51 2.28 1.51 3.67 0 1.4-.54 2.7-1.51 3.67l-19.22 19.22c-5.35 5.35-6.6 13.17-3.18 19.93 2.14 4.23 4.01 8.62 5.61 13.08h-.64c-8.29 0-16.6.29-24.73.86-14.8-32.42-46.81-53.14-82.77-53.14-50.18 0-91 40.82-91 91 0 48.16 37.61 87.7 85 90.8zm113.5 11.74c3.48 0 6.97-.07 10.45-.17 1.01 19.52 7.81 37.53 18.7 52.36-9.42.82-19.18 1.24-29.15 1.24-61.96 0-101.5-15.82-101.5-26.71v-47.08c19.7 13.42 60.77 20.36 101.5 20.36zm0-65.43c11.18 0 22.04-.51 32.48-1.5-12.45 15.12-20.44 34.05-21.91 54.75-3.51.11-7.04.18-10.57.18-61.96 0-101.5-15.82-101.5-26.72v-47.07c19.7 13.42 60.77 20.36 101.5 20.36zm101.49-85.79v49.02c-20.81 1.27-39.87 9.13-55.12 21.5-14.48 2.16-30.06 3.27-46.37 3.27-61.96 0-101.5-15.82-101.5-26.71v-47.07c19.7 13.42 60.77 20.36 101.5 20.36 40.72-.02 81.8-6.95 101.49-20.37zm-101.49 8.35c-28.06 0-54.42-3.32-74.21-9.34-20.14-6.13-27.29-13.19-27.29-17.38 0-4.18 7.15-11.24 27.29-17.38 19.79-6.02 46.15-9.34 74.21-9.34s54.41 3.32 74.2 9.34c20.14 6.13 27.29 13.19 27.29 17.38 0 4.18-7.15 11.24-27.29 17.38-19.79 6.02-46.14 9.34-74.2 9.34zm143.85 139.12 12.65-12.99a5.982 5.982 0 0 1 8.48-.11l12.99 12.64a5.991 5.991 0 0 1 .12 8.48 6.003 6.003 0 0 1-8.49.11l-2.74-2.66c-2.87 26.22-21.69 49.08-48.02 56.13a65.493 65.493 0 0 1-17.01 2.25c-11.31 0-22.48-2.96-32.54-8.77-15.11-8.72-25.91-22.81-30.42-39.65-4.52-16.85-2.2-34.45 6.52-49.55s22.8-25.91 39.65-30.42c21.58-5.78 44.33-.25 60.88 14.79a6.006 6.006 0 0 1 .4 8.48 5.994 5.994 0 0 1-8.47.4c-13.51-12.28-32.09-16.8-49.7-12.08-13.76 3.68-25.25 12.5-32.37 24.83s-9.01 26.69-5.32 40.45c3.68 13.75 12.5 25.25 24.83 32.36 12.33 7.12 26.69 9.02 40.45 5.33 20.86-5.59 35.94-23.33 38.95-43.93l-2.24 2.3a5.948 5.948 0 0 1-4.3 1.81c-1.5 0-3.01-.56-4.18-1.7-2.37-2.32-2.43-6.12-.12-8.5z" clip-rule="evenodd" fill="#ffffff" opacity="1" data-original="#000000" class=""></path></g></svg>