<svg xmlns="http://www.w3.org/2000/svg" version="1.1" xmlns:xlink="http://www.w3.org/1999/xlink" width="512" height="512" x="0" y="0" viewBox="0 0 512 512" style="enable-background:new 0 0 512 512" xml:space="preserve" class=""><g><path d="M151 377.187v35.987l-49.893 27.719C94.237 435.337 85.503 432 76 432c-22.056 0-40 17.944-40 40s17.944 40 40 40 40-17.944 40-40c0-1.657-.113-3.287-.31-4.891l57.594-31.997A14.998 14.998 0 0 0 181 422v-55.5l-7.138 4.283A44.987 44.987 0 0 1 151 377.187zM271 434.929V410h-30v24.929c-14.643 5.947-25 20.318-25 37.071 0 22.056 17.944 40 40 40s40-17.944 40-40c0-16.753-10.356-31.124-25-37.071zM436 432c-9.503 0-18.237 3.337-25.107 8.892L361 413.174v-35.987a44.99 44.99 0 0 1-22.861-6.404L331 366.5V422a14.998 14.998 0 0 0 7.716 13.112l57.594 31.997A40.074 40.074 0 0 0 396 472c0 22.056 17.944 40 40 40s40-17.944 40-40-17.944-40-40-40zM371.898 342.803l36.905-36.906a15 15 0 0 0 2.256-18.324l-13.707-22.847a159.16 159.16 0 0 0 11.41-27.609l25.876-6.469A15 15 0 0 0 446 216.096v-52.192a15 15 0 0 0-11.362-14.552l-25.876-6.469a159.174 159.174 0 0 0-11.411-27.61l13.708-22.847a15 15 0 0 0-2.256-18.324l-36.904-36.905a15 15 0 0 0-18.324-2.256l-22.848 13.708a159.086 159.086 0 0 0-27.609-11.411l-6.469-25.876A15.001 15.001 0 0 0 282.096 0h-52.192a14.999 14.999 0 0 0-14.552 11.362l-6.469 25.876a159.108 159.108 0 0 0-27.608 11.411l-22.849-13.708a14.999 14.999 0 0 0-18.323 2.256l-36.905 36.905a15 15 0 0 0-2.256 18.324l13.708 22.847a159.096 159.096 0 0 0-11.411 27.61l-25.876 6.469A14.999 14.999 0 0 0 66 163.904v52.192a14.999 14.999 0 0 0 11.362 14.552l25.876 6.469a159.206 159.206 0 0 0 11.41 27.609l-13.707 22.847a15 15 0 0 0 2.256 18.324l36.905 36.906a15 15 0 0 0 18.324 2.256l22.847-13.708a159.187 159.187 0 0 0 27.609 11.412l6.469 25.876a15 15 0 0 0 14.552 11.362h52.192a14.999 14.999 0 0 0 14.552-11.362l6.469-25.876a159.108 159.108 0 0 0 27.609-11.412l22.847 13.708a15.003 15.003 0 0 0 18.326-2.256zM256 260c-38.66 0-70-31.34-70-70s31.34-70 70-70 70 31.34 70 70-31.34 70-70 70z" fill="#ffffff" opacity="1" data-original="#000000" class=""></path></g></svg>