<svg xmlns="http://www.w3.org/2000/svg" version="1.1" xmlns:xlink="http://www.w3.org/1999/xlink" width="512" height="512" x="0" y="0" viewBox="0 0 512 512" style="enable-background:new 0 0 512 512" xml:space="preserve" class=""><g><path fill-rule="evenodd" d="m494.312 370.126-17.199-6.62a.979.979 0 0 1-.614-.698 94.407 94.407 0 0 0-11.07-26.704.972.972 0 0 1-.06-.928l7.485-16.853a.986.986 0 0 0-.207-1.116l-20.205-20.204a.986.986 0 0 0-1.115-.207l-16.859 7.487a.976.976 0 0 1-.927-.06 94.418 94.418 0 0 0-26.697-11.068.977.977 0 0 1-.698-.614l-6.621-17.203a.986.986 0 0 0-.936-.642h-28.573a.986.986 0 0 0-.935.642l-6.622 17.203a.975.975 0 0 1-.698.614 94.43 94.43 0 0 0-26.697 11.068.978.978 0 0 1-.928.06l-16.859-7.487a.986.986 0 0 0-1.116.207l-20.205 20.205a.986.986 0 0 0-.207 1.116l7.487 16.857a.978.978 0 0 1-.06.928 94.43 94.43 0 0 0-11.068 26.699.977.977 0 0 1-.614.698l-17.201 6.621a.987.987 0 0 0-.643.936v28.573c0 .423.248.784.643.935l17.198 6.62a.977.977 0 0 1 .614.698 94.46 94.46 0 0 0 11.07 26.703.978.978 0 0 1 .06.928l-7.485 16.853a.988.988 0 0 0 .207 1.116l20.205 20.205a.986.986 0 0 0 1.116.207l16.859-7.487a.975.975 0 0 1 .928.059 94.418 94.418 0 0 0 26.697 11.068c.329.08.576.298.698.614l6.622 17.203a.986.986 0 0 0 .936.642h28.573a.988.988 0 0 0 .936-.642l6.62-17.199a.977.977 0 0 1 .698-.614 94.448 94.448 0 0 0 26.704-11.07.975.975 0 0 1 .928-.06l16.853 7.485a.986.986 0 0 0 1.116-.207l20.205-20.205a.986.986 0 0 0 .207-1.116l-7.487-16.859a.972.972 0 0 1 .06-.928 94.387 94.387 0 0 0 11.067-26.697.979.979 0 0 1 .614-.698l17.203-6.622a.986.986 0 0 0 .642-.936V371.06a.991.991 0 0 0-.645-.934zm-110.01 67.995c-29.148 0-52.773-23.625-52.773-52.772 0-29.148 23.625-52.773 52.773-52.773s52.773 23.625 52.773 52.773c0 29.147-23.624 52.772-52.773 52.772zM210.358 132.472c-41.915 0-75.895 33.979-75.895 75.895 0 41.915 33.979 75.895 75.895 75.895s75.895-33.979 75.895-75.895c.001-41.916-33.979-75.895-75.895-75.895zm44.072 62.419-45.912 45.912c-6.638 6.639-15.518 3.94-21.405-1.947l-20.825-20.825c-5.208-5.207-5.207-13.728 0-18.935s13.728-5.208 18.935 0l13.566 13.566 36.706-36.706c5.207-5.207 13.728-5.207 18.935 0 5.208 5.207 5.208 13.728 0 18.935zm117.586-23.905a165.112 165.112 0 0 0-20.052-48.373l13.953-31.416-37.038-37.037-31.425 13.957a165.21 165.21 0 0 0-48.36-20.049L236.75 16h-52.378l-12.345 32.068a165.156 165.156 0 0 0-48.36 20.049L92.243 54.161 55.205 91.199l13.956 31.422a165.12 165.12 0 0 0-20.05 48.364l-32.065 12.343v52.378l32.061 12.341A165.137 165.137 0 0 0 69.16 296.42l-13.953 31.415 37.038 37.037 31.426-13.957a165.17 165.17 0 0 0 48.36 20.048l12.344 32.069h52.378l12.34-32.061a163.812 163.812 0 0 0 8.732-2.333 16.987 16.987 0 0 1 10.722-13.444l10.213-3.931a110.471 110.471 0 0 1 6.814-16.436l-4.445-10.01c-2.844-6.404-1.439-13.968 3.516-18.924l20.204-20.205c4.955-4.955 12.519-6.36 18.924-3.516l10.012 4.446a110.661 110.661 0 0 1 16.434-6.814l3.932-10.215a16.99 16.99 0 0 1 14.937-10.869c1.092-3.52 2.068-7.08 2.923-10.673l32.069-12.344v-52.378zM210.561 326.689c-64.713 0-117.173-52.46-117.173-117.174 0-64.713 52.46-117.173 117.173-117.173s117.173 52.46 117.173 117.173c0 64.714-52.46 117.174-117.173 117.174z" clip-rule="evenodd" fill="#ffffff" opacity="1" data-original="#000000"></path></g></svg>