<svg xmlns="http://www.w3.org/2000/svg" version="1.1" xmlns:xlink="http://www.w3.org/1999/xlink" width="512" height="512" x="0" y="0" viewBox="0 0 512 512" style="enable-background:new 0 0 512 512" xml:space="preserve" class=""><g><path fill-rule="evenodd" d="M433.026 59.29q-2.637-1.084-5.333-1.892a5.617 5.617 0 0 1-4.244-4.312l-2.633-12.208-19.928.248-2.213 11.663a5.622 5.622 0 0 1-3.964 4.622 57.4 57.4 0 0 0-5.654 2.02q-2.688 1.124-5.125 2.437a5.616 5.616 0 0 1-6-.041l-10.523-6.787-13.916 14.266 6.784 9.963a5.615 5.615 0 0 1 .365 5.908 57.441 57.441 0 0 0-2.582 5.43q-1.084 2.638-1.892 5.333a5.619 5.619 0 0 1-4.312 4.244l-12.209 2.633.248 19.928 11.665 2.214a5.621 5.621 0 0 1 4.622 3.963 57.2 57.2 0 0 0 2.019 5.652q1.123 2.686 2.437 5.124a5.615 5.615 0 0 1-.041 6l-6.789 10.523 14.267 13.916 9.961-6.783a5.616 5.616 0 0 1 5.909-.365 56.1 56.1 0 0 0 10.873 4.5 5.619 5.619 0 0 1 4.135 4.286l2.633 12.208 19.927-.248 2.214-11.665a5.619 5.619 0 0 1 3.964-4.621 57.458 57.458 0 0 0 5.652-2.02q2.686-1.124 5.123-2.437a5.615 5.615 0 0 1 6 .041l10.523 6.789 13.917-14.267-6.783-9.962a5.614 5.614 0 0 1-.365-5.908 57.586 57.586 0 0 0 2.582-5.431q1.084-2.637 1.892-5.333a5.617 5.617 0 0 1 4.312-4.244l12.208-2.633-.248-19.927-11.665-2.214a5.619 5.619 0 0 1-4.622-3.963 57.013 57.013 0 0 0-2.019-5.652q-1.125-2.688-2.438-5.125a5.614 5.614 0 0 1 .042-6l6.789-10.523-14.264-13.916-9.962 6.783a5.615 5.615 0 0 1-5.908.365 57.339 57.339 0 0 0-5.431-2.582zM386.68 88.525a34.247 34.247 0 1 1 25.493 58.137 5.713 5.713 0 0 1-.617.034v-.022a34.235 34.235 0 0 1-34.585-33.269 5.708 5.708 0 0 1-.034-.616h.022a34.125 34.125 0 0 1 9.721-24.263zM173.523 92.9l22.086 4.784a5.622 5.622 0 0 1 4.307 6.682 11.119 11.119 0 1 0 21.733 4.715 5.62 5.62 0 0 1 6.681-4.307l22.093 4.786L265.1 41.806a9.384 9.384 0 0 0-7.157-11.126L190.183 16l-3.721 17.177a22.37 22.37 0 0 1-9.218 42.548zM63.81 108.6a22.394 22.394 0 0 1 24.408-11.839 5.841 5.841 0 0 1 .6.13 22.4 22.4 0 0 1 17.305 20.876l17.294 3.746 4.746-21.913c.018-.1.038-.192.061-.288a5.622 5.622 0 0 1 6.769-4.176l.237.056.13.027a11.119 11.119 0 1 0 4.715-21.732v-.009l-.1-.018a5.817 5.817 0 0 1-.383-.069 5.62 5.62 0 0 1-4.307-6.681l4.787-22.1-67.75-14.675A9.385 9.385 0 0 0 61.2 37.093l-14.68 67.76 17.3 3.747zm44.312 83.505-3.747 17.3-67.76-14.68a9.385 9.385 0 0 1-7.159-11.126l14.679-67.759 22.093 4.786a5.62 5.62 0 0 0 6.681-4.307 11.105 11.105 0 0 1 13.224-8.509h.005a11.1 11.1 0 0 1 8.5 13.222l-.029.142v.007l-.02.112V121.344l-.011.074v.799a5.628 5.628 0 0 0 4.685 5.548l21.841 4.731-3.747 17.293a22.4 22.4 0 0 0-20.874 17.3 5.626 5.626 0 0 0-.131.6 22.392 22.392 0 0 0 11.839 24.408zm7.513-9.146a5.631 5.631 0 0 1 4.456 7l-4.729 21.827 67.754 14.678a9.385 9.385 0 0 0 11.126-7.158l14.68-67.76-76.9-16.66-4.785 22.086a5.623 5.623 0 0 1-5.55 4.435h-.14c-.047 0-.094 0-.14-.006l-.141-.011-.141-.013-.141-.017-.141-.021c-.048-.007-.095-.016-.142-.025l-.142-.028a11.118 11.118 0 0 0-4.916 21.685zm301.23 299.912V254.1H348.3v228.771h-67.869V348.393H211.87v134.478H144V274.634H75.436v208.237H43.71c-3.107 0-5.627 2.939-5.627 6.565S40.6 496 43.71 496h404.113c3.108 0 5.627-2.939 5.627-6.564s-2.519-6.565-5.627-6.565z" fill="#ffffff" opacity="1" data-original="#000000"></path></g></svg>