<svg xmlns="http://www.w3.org/2000/svg" version="1.1" xmlns:xlink="http://www.w3.org/1999/xlink" width="512" height="512" x="0" y="0" viewBox="0 0 512 512" style="enable-background:new 0 0 512 512" xml:space="preserve" class=""><g><circle cx="256" cy="45" r="45" fill="#ffffff" opacity="1" data-original="#000000" class=""></circle><circle cx="256" cy="467" r="45" fill="#ffffff" opacity="1" data-original="#000000" class=""></circle><circle cx="467" cy="156" r="45" fill="#ffffff" opacity="1" data-original="#000000" class=""></circle><circle cx="467" cy="356" r="45" fill="#ffffff" opacity="1" data-original="#000000" class=""></circle><circle cx="45" cy="156" r="45" fill="#ffffff" opacity="1" data-original="#000000" class=""></circle><path d="M198 92.47a75 75 0 0 1-14-26.54l-81 42.6a75 75 0 0 1 14 26.54zM60 282.51v-53a75.26 75.26 0 0 1-30 0v53a75.26 75.26 0 0 1 30 0zM409 108.53l-81-42.6a75 75 0 0 1-14 26.54l81 42.6a75 75 0 0 1 14-26.54zM315.54 421.47a74.74 74.74 0 0 1 13.14 27l81-44.16A74.8 74.8 0 0 1 395.3 378zM102.3 404.31l81 44.16a74.74 74.74 0 0 1 13.14-27L116.7 378a74.8 74.8 0 0 1-14.4 26.31zM452 229.49v53a75.26 75.26 0 0 1 30 0v-53a75.26 75.26 0 0 1-30 0z" fill="#ffffff" opacity="1" data-original="#000000" class=""></path><circle cx="45" cy="356" r="45" fill="#ffffff" opacity="1" data-original="#000000" class=""></circle><path d="m384.2 185.73-122.73-61.11a12.31 12.31 0 0 0-10.94 0L127.8 185.73a12.28 12.28 0 0 0 0 22l122.73 61.1a12.24 12.24 0 0 0 10.94 0l122.73-61.1a12.28 12.28 0 0 0 0-22zM268.27 292.53v96.13l115.93-57.72a12.26 12.26 0 0 0 6.8-11v-88.2l-118.59 59.05a37.69 37.69 0 0 1-4.14 1.74zM121 320a12.26 12.26 0 0 0 6.8 11l115.93 57.72v-96.19a37.69 37.69 0 0 1-4.14-1.74L121 231.74z" fill="#ffffff" opacity="1" data-original="#000000" class=""></path></g></svg>