<svg xmlns="http://www.w3.org/2000/svg" version="1.1" xmlns:xlink="http://www.w3.org/1999/xlink" width="512" height="512" x="0" y="0" viewBox="0 0 32 32" style="enable-background:new 0 0 512 512" xml:space="preserve" class=""><g><path d="M23 28h-4v-2h3V16h2v11a1 1 0 0 1-1 1zM10 16H8V5a1 1 0 0 1 1-1h4v2h-3zM28 9H16a2 2 0 0 0-2 2v2a2 2 0 0 0 2 2h12a2 2 0 0 0 2-2v-2a2 2 0 0 0-2-2zm-8.5 3.5h-3a.5.5 0 1 1 0-1h3a.5.5 0 1 1 0 1zm4.5.5a1 1 0 1 1 0-2 1 1 0 0 1 0 2zm3 0a1 1 0 1 1 0-2 1 1 0 0 1 0 2zM28 2H16a2 2 0 0 0-2 2v2a2 2 0 0 0 2 2h12a2 2 0 0 0 2-2V4a2 2 0 0 0-2-2zm-8.5 3.5h-3a.5.5 0 1 1 0-1h3a.5.5 0 1 1 0 1zM24 6a1 1 0 1 1 0-2 1 1 0 0 1 0 2zm3 0a1 1 0 1 1 0-2 1 1 0 0 1 0 2zM16 24H4a2 2 0 0 0-2 2v2a2 2 0 0 0 2 2h12a2 2 0 0 0 2-2v-2a2 2 0 0 0-2-2zm-8.5 3.5h-3a.5.5 0 1 1 0-1h3a.5.5 0 1 1 0 1zm4.5.5a1 1 0 1 1 0-2 1 1 0 0 1 0 2zm3 0a1 1 0 1 1 0-2 1 1 0 0 1 0 2zM16 17H4a2 2 0 0 0-2 2v2a2 2 0 0 0 2 2h12a2 2 0 0 0 2-2v-2a2 2 0 0 0-2-2zm-8.5 3.5h-3a.5.5 0 1 1 0-1h3a.5.5 0 1 1 0 1zm4.5.5a1 1 0 1 1 0-2 1 1 0 0 1 0 2zm3 0a1 1 0 1 1 0-2 1 1 0 0 1 0 2z" fill="#ffffff" opacity="1" data-original="#000000"></path></g></svg>