<svg xmlns="http://www.w3.org/2000/svg" version="1.1" xmlns:xlink="http://www.w3.org/1999/xlink" width="512" height="512" x="0" y="0" viewBox="0 0 65 65" style="enable-background:new 0 0 512 512" xml:space="preserve" class=""><g><path d="M50.2 37c-3.5 0-6.4 2.8-6.4 6.3s2.9 6.3 6.4 6.3 6.4-2.8 6.4-6.3-2.9-6.3-6.4-6.3zm4.1 4.3-5.5 5.5c-.2.2-.4.3-.7.3s-.5-.1-.7-.3l-1.2-1.2c-.4-.4-.4-1 0-1.4s1-.4 1.4 0l.5.5 4.8-4.8c.4-.4 1-.4 1.4 0s.3 1 0 1.4z" fill="#ffffff" opacity="1" data-original="#000000" class=""></path><path d="M64.5 35c0-.4-.2-.8-.6-.9l-13.3-6c-.3-.1-.6-.1-.8 0l-13.3 6c-.4.2-.6.5-.6.9.5 1.1-3.1 16.7 13.7 29.3.2.2.4.2.6.2.4 0 .7-.3.8-.4C67.7 51.8 64 36.4 64.5 35zM50.2 51.7c-4.6 0-8.4-3.7-8.4-8.3s3.8-8.3 8.4-8.3 8.4 3.7 8.4 8.3-3.8 8.3-8.4 8.3zM8.3 39c-4.2 4.2-4.8 10.7-1.7 15.6l-5 4.1c-1.5 1.2-1.6 3.5-.2 4.8 1.3 1.3 3.6 1.3 4.8-.2l4.1-5c2.1 1.3 4.4 2 6.7 2 11.1 0 16.7-13.5 8.8-21.3-4.7-4.8-12.6-4.8-17.5 0zm16.2 16.2C17.9 61.8 6.6 57 6.6 47.8c0-9.3 11.3-14 17.9-7.4 4.1 4.1 4.1 10.7 0 14.8z" fill="#ffffff" opacity="1" data-original="#000000" class=""></path><path d="M12.8 40.6v10.6c0 .5.4 1 1 1h10.6C29 44.7 20.2 36 12.8 40.6z" fill="#ffffff" opacity="1" data-original="#000000" class=""></path><path d="M33.9 35c0-1.2.7-2.3 1.8-2.7l13.3-6c.4-.2.8-.3 1.2-.3h.2V3.4c0-1.6-1.3-2.9-2.9-2.9H21.4c-.3 0-.5.1-.7.3L13 8.4c-.2.2-.3.4-.3.7V34c1.4-.4 2.9-.7 4.4-.7 8 0 14.5 6.5 14.5 14.5 0 1.5-.2 3-.7 4.4h6c-4.1-8.4-2.8-14.5-3-17.2zM28.2 8.1h14.5c.5 0 1 .5 1 1 0 .6-.5 1-1 1H28.2c-.6 0-1-.4-1-1 0-.5.5-1 1-1zm-7.7 6.5h22.3c.5 0 1 .4 1 1 0 .5-.5 1-1 1H20.5c-.6 0-1-.5-1-1 0-.6.4-1 1-1zm7.4 14.8h-7.5c-.6 0-1-.4-1-1 0-.5.4-1 1-1h7.5c.6 0 1 .5 1 1 0 .6-.4 1-1 1zM20.5 23c-.6 0-1-.4-1-1 0-.5.4-1 1-1H38c.6 0 1 .5 1 1 0 .6-.4 1-1 1z" fill="#ffffff" opacity="1" data-original="#000000" class=""></path></g></svg>