<svg xmlns="http://www.w3.org/2000/svg" version="1.1" xmlns:xlink="http://www.w3.org/1999/xlink" width="512" height="512" x="0" y="0" viewBox="0 0 3872.98 3872.98" style="enable-background:new 0 0 512 512" xml:space="preserve" class=""><g><g fill-rule="evenodd" clip-rule="evenodd"><path d="m3310.88 910.05-325.92-325.92c-29.15-29.15-75.15-32.85-108.59-8.73l-301.85 217.77c-24.69 17.82-57.17 21.12-84.73 8.18a1255.87 1255.87 0 0 0-117.53-48.1c-29.26-10.3-50.31-36.12-54.86-66.8l-55.28-372.75c-6.1-41.21-41.47-71.72-83.13-71.72h-460.9c-41.22 0-76.38 29.91-82.96 70.62l-61.33 379.08c-4.89 30.21-25.86 55.24-54.64 65.67a1258.79 1258.79 0 0 0-105.89 43.93c-28.11 13.19-61.14 10.09-86.07-8.41l-311.46-231c-33.46-24.81-80.03-21.39-109.48 8.07L580.33 895.88c-29.15 29.15-32.86 75.15-8.73 108.59L799.26 1320c18.01 24.96 20.78 57.68 7.61 85.49a1254.759 1254.759 0 0 0-42.72 101.42c-10.71 28.91-36.12 49.8-66.6 54.32l-387.66 57.49c-41.21 6.1-71.72 41.47-71.72 83.13v460.9c0 41.22 29.91 76.38 70.62 82.96l380.04 61.5c30.66 4.97 55.94 26.49 66.11 55.83a1261.2 1261.2 0 0 0 42.43 106.59c12.6 27.89 9.28 60.36-8.94 84.92L558.11 2865.1c-24.81 33.46-21.39 80.03 8.07 109.48L892.1 3300.5c29.15 29.15 75.15 32.85 108.59 8.73l303.21-218.76c25.13-18.12 58.25-21.1 86.02-7.37 38.24 18.91 77.23 35.78 116.81 50.59 28.47 10.66 48.74 36.14 53.2 66.2l55.02 371.03c6.1 41.21 41.47 71.72 83.13 71.72h460.91c41.22 0 76.38-29.91 82.96-70.62l57.92-358.03c4.99-30.83 26.81-56.13 56.43-66.09 43.02-14.47 85.39-31.3 126.96-50.54 28.07-12.98 60.93-9.86 85.77 8.58l292.31 216.81c33.46 24.81 80.03 21.39 109.48-8.07l325.91-325.92c29.15-29.15 32.86-75.15 8.73-108.59l-208.93-289.6c-18.23-25.28-20.82-58.49-7.14-86.49a1264.6 1264.6 0 0 0 54.75-129.98c10.49-29.42 36.1-50.8 66.99-55.38l356.05-52.8c41.21-6.1 71.72-41.47 71.72-83.13v-460.91c0-41.22-29.91-76.38-70.62-82.96l-356.66-57.7c-30.53-4.95-55.71-26.32-65.99-55.49a1257.486 1257.486 0 0 0-52.26-125.92c-13.59-28.28-10.68-61.72 8.03-86.92l217.59-293.36c24.78-33.44 21.34-80.02-8.11-109.48zm-426.45 1032.27c0 522.41-423.5 945.91-945.91 945.91s-945.91-423.5-945.91-945.91 423.5-945.91 945.91-945.91 945.91 423.5 945.91 945.91z" fill="#ffffff" opacity="1" data-original="#000000" class=""></path><path d="m1643.14 2360.58-221.69-221.69c-58.28-58.28-58.28-152.79 0-211.07s152.78-58.28 211.07 0l106.2 106.19 505.83-505.83c58.28-58.28 152.78-58.28 211.07 0 58.28 58.28 58.28 152.78 0 211.07l-621.32 621.32c-52.81 52.8-138.38 52.8-191.16.01z" fill="#ffffff" opacity="1" data-original="#000000" class=""></path></g></g></svg>