<svg xmlns="http://www.w3.org/2000/svg" version="1.1" xmlns:xlink="http://www.w3.org/1999/xlink" width="512" height="512" x="0" y="0" viewBox="0 0 100 100" style="enable-background:new 0 0 512 512" xml:space="preserve" class=""><g><path d="M85.625 59.33h-.264a16.033 16.033 0 0 1-11.115-4.707c-.169-.169-.338-.348-.496-.528a16.05 16.05 0 0 1-11.875 5.236 15.985 15.985 0 0 1-11.379-4.708c-.169-.169-.338-.348-.507-.528a16.043 16.043 0 0 1-11.864 5.236c-4.286 0-8.318-1.668-11.368-4.708-.18-.169-.349-.348-.518-.528-2.945 3.21-7.167 5.236-11.864 5.236-1.7 0-3.346-.253-4.94-.77v32.89a5.273 5.273 0 0 0 5.278 5.278h6.46V68.176a3.17 3.17 0 0 1 3.166-3.166h18.927a3.17 3.17 0 0 1 3.166 3.166V96.73h38.855a5.273 5.273 0 0 0 5.278-5.277V58.508a15.113 15.113 0 0 1-4.94.823zm-6.798 20.067a3.176 3.176 0 0 1-3.166 3.167H59.69a3.17 3.17 0 0 1-3.167-3.167v-11.22a3.163 3.163 0 0 1 3.167-3.167h15.97a3.17 3.17 0 0 1 3.167 3.166z" fill="#ffffff" opacity="1" data-original="#000000" class=""></path><path d="M97.5 33.09v9.732c0 4.803-2.85 9.141-6.935 11.136a11.22 11.22 0 0 1-5.13 1.15 11.837 11.837 0 0 1-8.202-3.472 11.828 11.828 0 0 1-3.472-8.402c0 6.555-5.331 11.875-11.886 11.875a11.89 11.89 0 0 1-8.402-3.473A11.872 11.872 0 0 1 50 43.234c0 6.555-5.31 11.875-11.875 11.875-3.272 0-6.238-1.33-8.392-3.473a11.847 11.847 0 0 1-3.494-8.402c0 6.555-5.309 11.875-11.864 11.875-1.763 0-3.43-.38-4.94-1.066a12.13 12.13 0 0 1-3.462-2.407A11.872 11.872 0 0 1 2.5 43.234V33.09c0-3.251.855-6.439 2.48-9.257l8.952-15.527a10.097 10.097 0 0 1 8.74-5.035h54.656c3.61 0 6.935 1.92 8.74 5.035l8.951 15.527A18.516 18.516 0 0 1 97.5 33.09z" fill="#ffffff" opacity="1" data-original="#000000" class=""></path></g></svg>