<svg xmlns="http://www.w3.org/2000/svg" version="1.1" xmlns:xlink="http://www.w3.org/1999/xlink" width="512" height="512" x="0" y="0" viewBox="0 0 512 512" style="enable-background:new 0 0 512 512" xml:space="preserve" class=""><g><path d="M271 264.66v105l90.933-52.5v-105zM256 238.68l90.932-52.501L256 133.68l-90.933 52.5zM241 264.66l-90.933-52.5v105L241 369.66z" fill="#ffffff" opacity="1" data-original="#000000" class=""></path><path d="M465.744 317.345c11.657-39.853 11.644-82.612-.038-122.658 19.374-16.02 24.977-44.205 11.997-66.687-12.97-22.467-40.152-31.709-63.704-22.97-28.684-30.022-65.722-51.391-106.244-61.297C303.567 18.945 281.96 0 256 0c-25.944 0-47.539 18.92-51.745 43.684-40.34 9.83-77.362 31.219-106.202 61.356-10.15-3.797-21.199-4.363-31.877-1.502-13.546 3.63-24.867 12.317-31.878 24.462-12.972 22.468-7.384 50.63 11.959 66.655-11.657 39.852-11.644 82.611.038 122.658-19.374 16.02-24.978 44.204-11.998 66.687 7.012 12.145 18.333 20.832 31.878 24.461a52.788 52.788 0 0 0 13.673 1.812c6.187 0 12.313-1.131 18.148-3.306 28.685 30.024 65.725 51.394 106.249 61.301C208.433 493.055 230.039 512 256 512c25.943 0 47.539-18.92 51.745-43.685 40.337-9.829 77.358-31.216 106.196-61.351a52.097 52.097 0 0 0 18.206 3.275c18.157-.001 35.842-9.417 45.555-26.24 12.972-22.466 7.385-50.628-11.958-66.654zM304.019 438.314C295.859 419.891 277.412 407 256 407c-21.395 0-39.83 12.871-48 31.271-32.523-8.586-62.288-25.75-85.86-49.508a52.46 52.46 0 0 0 8.335-17.425c3.629-13.545 1.767-27.693-5.245-39.838-10.698-18.528-31.061-28.056-51.081-25.932-8.828-32.466-8.845-66.833-.05-99.131 1.858.199 3.72.303 5.576.303 18.157 0 35.842-9.417 45.555-26.24 7.012-12.145 8.875-26.292 5.245-39.838a52.459 52.459 0 0 0-8.307-17.386c23.701-23.869 53.45-41.061 85.812-49.59C216.141 92.109 234.588 105 256 105c21.395 0 39.829-12.871 48-31.271 32.533 8.589 62.306 25.76 85.88 49.528-11.874 16.278-13.815 38.699-3.11 57.243 9.713 16.824 27.396 26.239 45.555 26.239a52.55 52.55 0 0 0 5.529-.298c8.827 32.466 8.842 66.833.045 99.131-20.035-2.144-40.423 7.384-51.129 25.928-10.697 18.529-8.767 40.929 3.082 57.204-23.704 23.88-53.461 41.079-85.833 49.61z" fill="#ffffff" opacity="1" data-original="#000000" class=""></path></g></svg>