<svg xmlns="http://www.w3.org/2000/svg" version="1.1" xmlns:xlink="http://www.w3.org/1999/xlink" width="512" height="512" x="0" y="0" viewBox="0 0 32 32" style="enable-background:new 0 0 512 512" xml:space="preserve" class=""><g><circle cx="7" cy="5" r="3" fill="#ffffff" opacity="1" data-original="#000000"></circle><circle cx="7" cy="20" r="3" fill="#ffffff" opacity="1" data-original="#000000"></circle><circle cx="17" cy="16" r="2" fill="#ffffff" opacity="1" data-original="#000000"></circle><path d="m29.707 8.293-4-4A1 1 0 0 0 25 4H14a1 1 0 0 0-1 1v22a1 1 0 0 0 1 1h15a1 1 0 0 0 1-1V9a1 1 0 0 0-.293-.707zM29 16.5a.5.5 0 0 1-.5.5h-8.684A2.995 2.995 0 0 1 17 19c-1.654 0-3-1.346-3-3s1.346-3 3-3 3 1.346 3 3h6v-1.5a.5.5 0 1 1 1 0V16h1v-1.5a.5.5 0 1 1 1 0zM8 8H6a4 4 0 0 0-4 4v3h10v-3a4 4 0 0 0-4-4zm1.9 1.8-3 4a.5.5 0 0 1-.754.054l-2-2a.5.5 0 1 1 .708-.708l1.592 1.593L9.1 9.2a.501.501 0 0 1 .8.6zM8 23H6a4 4 0 0 0-4 4v3h10v-3a4 4 0 0 0-4-4zm.854 5.146a.5.5 0 1 1-.708.708L7 27.707l-1.146 1.147a.498.498 0 0 1-.708 0 .5.5 0 0 1 0-.708L6.293 27l-1.147-1.146a.5.5 0 1 1 .708-.708L7 26.293l1.146-1.147a.5.5 0 1 1 .708.708L7.707 27z" fill="#ffffff" opacity="1" data-original="#000000"></path></g></svg>