<svg xmlns="http://www.w3.org/2000/svg" version="1.1" xmlns:xlink="http://www.w3.org/1999/xlink" width="512" height="512" x="0" y="0" viewBox="0 0 512 512" style="enable-background:new 0 0 512 512" xml:space="preserve" class=""><g><path d="M196 206c33.084 0 60-26.916 60-60s-26.916-60-60-60-60 26.916-60 60 26.916 60 60 60zm-27.071-57.071c3.905-3.905 10.237-3.905 14.143 0l7.929 7.929 27.929-27.929c3.905-3.905 10.237-3.905 14.143 0 3.905 3.905 3.905 10.237 0 14.143l-35 35C196.119 180.024 193.559 181 191 181s-5.119-.976-7.071-2.929l-15-15c-3.905-3.905-3.905-10.237 0-14.142z" fill="#089768" opacity="1" data-original="#000000" class=""></path><path d="M46 466V56H36c-5.523 0-10 4.477-10 10v420c0 5.522 4.477 10 10 10h320c5.522 0 10-4.478 10-10v-10H56c-5.523 0-10-4.477-10-10zM336 21.857V86h64.143z" fill="#089768" opacity="1" data-original="#000000" class=""></path><path d="M76 456h250v-30h-20v-28.333C306 369.178 329.178 346 357.667 346H366v-45.304C353.446 289.43 346 273.18 346 256c0-33.084 26.916-60 60-60v-90h-80c-5.523 0-10-4.477-10-10V16H76c-5.523 0-10 4.477-10 10v420c0 5.522 4.477 10 10 10zM196 66c44.112 0 80 35.888 80 80s-35.888 80-80 80-80-35.888-80-80 35.888-80 80-80zm-70 190h150c5.523 0 10 4.477 10 10s-4.477 10-10 10H126c-5.523 0-10-4.477-10-10s4.477-10 10-10zm0 40h150c5.523 0 10 4.478 10 10s-4.477 10-10 10H126c-5.523 0-10-4.478-10-10s4.477-10 10-10zm0 40h150c5.523 0 10 4.478 10 10s-4.477 10-10 10H126c-5.523 0-10-4.478-10-10s4.477-10 10-10z" fill="#089768" opacity="1" data-original="#000000" class=""></path><path d="M454.333 366h-96.667C340.178 366 326 380.178 326 397.667V401a5 5 0 0 0 5 5h150a5 5 0 0 0 5-5v-3.333C486 380.178 471.822 366 454.333 366zM366 256c0 14.803 8.047 27.718 20 34.635V346h40v-55.365c11.953-6.917 20-19.832 20-34.635 0-22.091-17.909-40-40-40s-40 17.909-40 40zM461 426H351a5 5 0 0 0-5 5v20a5 5 0 0 0 5 5h110a5 5 0 0 0 5-5v-20a5 5 0 0 0-5-5z" fill="#089768" opacity="1" data-original="#000000" class=""></path></g></svg>