<svg xmlns="http://www.w3.org/2000/svg" version="1.1" xmlns:xlink="http://www.w3.org/1999/xlink" width="512" height="512" x="0" y="0" viewBox="0 0 512 512" style="enable-background:new 0 0 512 512" xml:space="preserve" class=""><g><path d="M480.682 319.633v-32.315h-148.97c0 41.814-33.897 75.712-75.712 75.712s-75.712-33.897-75.712-75.712H31.318v32.315l64.688 6.85a163.7 163.7 0 0 0 19.177 46.262l-40.908 50.597 45.701 45.701 50.597-40.908a163.7 163.7 0 0 0 46.262 19.177l6.85 64.688h64.63l6.85-64.688a163.7 163.7 0 0 0 46.262-19.177l50.597 40.908 45.701-45.701-40.908-50.597a163.7 163.7 0 0 0 19.177-46.262l64.688-6.85zM256 0c-31.999 0-58.033 26.034-58.033 58.033 0 31.999 26.034 58.032 58.033 58.032 31.999 0 58.033-26.033 58.033-58.032C314.033 26.034 287.999 0 256 0zM317.787 132.109H194.213c-28.449.001-51.594 23.145-51.594 51.594v73.614h226.762v-73.614c0-28.449-23.145-51.594-51.594-51.594zM132.887 26.808c-28.666 0-51.987 23.322-51.987 51.987 0 28.435 22.951 51.598 51.3 51.969 11.74-13.732 27.939-23.533 46.343-27.128a51.666 51.666 0 0 0 6.331-24.841c0-28.666-23.321-51.987-51.987-51.987zM77.537 145.154c-25.485 0-46.219 20.733-46.219 46.219v65.945h81.301v-73.615a81.078 81.078 0 0 1 9.703-38.549H77.537zM379.113 26.808c-28.666 0-51.987 23.322-51.987 51.987a51.669 51.669 0 0 0 6.33 24.841c18.405 3.595 34.604 13.396 46.344 27.128 28.349-.37 51.3-23.534 51.3-51.969 0-28.666-23.321-51.987-51.987-51.987zM434.463 145.154h-44.785a81.078 81.078 0 0 1 9.703 38.549v73.614h81.301v-65.945c0-25.485-20.734-46.218-46.219-46.218z" fill="#ffffff" opacity="1" data-original="#000000" class=""></path></g></svg>