<svg xmlns="http://www.w3.org/2000/svg" version="1.1" xmlns:xlink="http://www.w3.org/1999/xlink" width="512" height="512" x="0" y="0" viewBox="0 0 512 512" style="enable-background:new 0 0 512 512" xml:space="preserve" class=""><g><path fill-rule="evenodd" d="M473.64 488.59V103.88H378v384.71zM149.42 239.55h20.31c2.01 0 3.68-1.57 3.82-3.57l.67-10.26c.43-6.55 4.57-11.91 10.81-13.98 3.67-1.22 7.28-2.72 10.75-4.46 5.87-2.95 12.59-2.09 17.54 2.25l7.72 6.77a3.856 3.856 0 0 0 5.24-.17l14.35-14.36c1.42-1.42 1.5-3.72.17-5.23l-6.77-7.72c-4.34-4.95-5.2-11.67-2.24-17.55 1.73-3.45 3.23-7.07 4.45-10.74 2.07-6.24 7.43-10.38 13.99-10.81l10.25-.68c2-.13 3.58-1.81 3.58-3.82v-20.3c0-2.01-1.58-3.69-3.58-3.82l-10.25-.67c-6.56-.43-11.92-4.57-13.99-10.81a80.62 80.62 0 0 0-4.46-10.75c-2.95-5.88-2.09-12.6 2.25-17.54l6.77-7.73a3.833 3.833 0 0 0-.17-5.23l-14.35-14.35a3.846 3.846 0 0 0-5.24-.18l-7.72 6.78c-4.95 4.33-11.67 5.19-17.54 2.24a79.799 79.799 0 0 0-10.75-4.45c-6.24-2.07-10.38-7.43-10.81-13.99l-.67-10.25c-.14-2.01-1.81-3.58-3.82-3.58h-20.31c-2.01 0-3.69 1.57-3.82 3.58l-.67 10.25c-.43 6.56-4.57 11.92-10.81 13.99a79.799 79.799 0 0 0-10.75 4.45c-5.87 2.95-12.59 2.09-17.54-2.24l-7.73-6.78a3.843 3.843 0 0 0-5.23.17L78.52 68.37a3.833 3.833 0 0 0-.17 5.23l6.77 7.73c4.34 4.94 5.19 11.66 2.24 17.54a81.913 81.913 0 0 0-4.45 10.75c-2.07 6.23-7.43 10.38-13.99 10.81l-10.25.67a3.836 3.836 0 0 0-3.58 3.82v20.3c0 2.01 1.57 3.69 3.58 3.82l10.25.68c6.56.43 11.92 4.57 13.99 10.81 1.22 3.66 2.71 7.28 4.45 10.74 2.96 5.88 2.09 12.6-2.24 17.55l-6.77 7.72a3.833 3.833 0 0 0 .17 5.23l14.35 14.36c1.43 1.42 3.72 1.5 5.23.17l7.73-6.77c3-2.63 6.65-3.98 10.36-3.98 2.42 0 4.87.57 7.18 1.73a80.62 80.62 0 0 0 10.75 4.46c6.24 2.07 10.38 7.43 10.81 13.98l.67 10.26c.13 2 1.81 3.57 3.82 3.57zm10.14-55.28c-27.12 0-49.2-22.07-49.2-49.2s22.08-49.2 49.2-49.2c27.13 0 49.21 22.07 49.21 49.2s-22.07 49.2-49.21 49.2zm-8.83 304.32V373.12H55.09v115.47zm107.64 0V315.62h-95.64v172.97zm107.63 0V251.23h-95.64v237.36z" clip-rule="evenodd" fill="#ffffff" opacity="1" data-original="#000000" class=""></path></g></svg>