<svg xmlns="http://www.w3.org/2000/svg" version="1.1" xmlns:xlink="http://www.w3.org/1999/xlink" width="512" height="512" x="0" y="0" viewBox="0 0 512 512" style="enable-background:new 0 0 512 512" xml:space="preserve" class=""><g><path fill-rule="evenodd" d="m369.762 316.721 54.024 93.573 18.45-18.45-17.459-39.311c14.719-21.924 25.285-46.868 30.557-73.714l40.114-15.441V215.52l-40.104-15.436c-5.274-26.851-15.837-51.805-30.561-73.731l17.453-39.299-33.841-33.84-39.311 17.459c-21.924-14.718-46.868-25.284-73.714-30.557L279.928 0h-47.857L216.63 40.114c-26.847 5.273-51.791 15.839-73.715 30.557l-39.31-17.459-33.841 33.841 17.457 39.308C72.5 148.284 61.935 173.232 56.663 200.08l-40.111 15.439v47.858l40.105 15.437c5.275 26.85 15.837 51.805 30.561 73.731l-17.454 39.299 18.45 18.45 54.024-93.573c-14.99-22.024-23.754-48.624-23.754-77.273 0-75.947 61.569-137.516 137.516-137.516s137.516 61.569 137.516 137.516c0 28.649-8.764 55.249-23.754 77.273zm-82.972-91.645 134.865 233.593c6.438 11.151 6.438 24.403 0 35.554S403.741 512 390.865 512h-269.73c-12.876 0-24.352-6.627-30.79-17.777s-6.438-24.403 0-35.554L225.21 225.076c6.438-11.15 17.914-17.776 30.79-17.776 12.875 0 24.352 6.626 30.79 17.776zM256 442.109c-9.793 0-17.733 7.939-17.733 17.733s7.939 17.733 17.733 17.733 17.733-7.939 17.733-17.733-7.94-17.733-17.733-17.733zm.001-31.654c-7.449 0-13.565-5.898-13.834-13.342l-3.499-96.893c-.141-3.897 1.163-7.302 3.87-10.109s6.063-4.232 9.962-4.232h6.998c3.9 0 7.256 1.426 9.963 4.232 2.707 2.807 4.01 6.212 3.87 10.109l-3.499 96.893c-.268 7.443-6.383 13.342-13.831 13.342z" clip-rule="evenodd" fill="#ffffff" opacity="1" data-original="#000000"></path></g></svg>