<svg xmlns="http://www.w3.org/2000/svg" version="1.1" xmlns:xlink="http://www.w3.org/1999/xlink" width="512" height="512" x="0" y="0" viewBox="0 0 24 24" style="enable-background:new 0 0 512 512" xml:space="preserve" class=""><g><path d="M15 1H7a5 5 0 0 0-5 5v12a5 5 0 0 0 5 5h5.31l-1.41-1.39a3 3 0 1 1 4.2-4.28l.47.46 3.33-3.26a2.86 2.86 0 0 1 1.1-.68V6a5 5 0 0 0-5-5zM8 17H7a1 1 0 0 1 0-2h1a1 1 0 0 1 0 2zm7-4H7a1 1 0 0 1 0-2h8a1 1 0 0 1 0 2zm0-4H7a1 1 0 0 1 0-2h8a1 1 0 0 1 0 2zm.57 14a1 1 0 0 1-.7-.29l-2.57-2.53a1 1 0 0 1 1.4-1.42l1.87 1.84L20.3 16a1 1 0 0 1 1.4 1.43l-5.43 5.33a1 1 0 0 1-.7.24z" fill="#ffffff" opacity="1" data-original="#000000" class=""></path></g></svg>