<svg xmlns="http://www.w3.org/2000/svg" version="1.1" xmlns:xlink="http://www.w3.org/1999/xlink" width="512" height="512" x="0" y="0" viewBox="0 0 64 64" style="enable-background:new 0 0 512 512" xml:space="preserve" class=""><g><path d="M17 24.88h2.48a13.482 13.482 0 0 0 .92 2.22l-1.75 1.76a.996.996 0 0 0 0 1.41l4.08 4.08a.996.996 0 0 0 1.41 0l1.76-1.75a13.48 13.48 0 0 0 2.22.92V36a.997.997 0 0 0 1 1h5.76a.997.997 0 0 0 1-1v-2.48a13.48 13.48 0 0 0 2.22-.92l1.76 1.75a.996.996 0 0 0 1.41 0l4.08-4.08a.996.996 0 0 0 0-1.41L43.6 27.1a13.482 13.482 0 0 0 .92-2.22H47a.997.997 0 0 0 1-1v-5.76a.997.997 0 0 0-1-1h-2.48a13.483 13.483 0 0 0-.92-2.22l1.75-1.76a.996.996 0 0 0 0-1.41l-4.08-4.08a.996.996 0 0 0-1.41 0L38.1 9.4a13.48 13.48 0 0 0-2.22-.92V6a.997.997 0 0 0-1-1h-5.76a.997.997 0 0 0-1 1v2.48a13.48 13.48 0 0 0-2.22.92l-1.76-1.75a.996.996 0 0 0-1.41 0l-4.08 4.08a.996.996 0 0 0 0 1.41l1.75 1.76a13.483 13.483 0 0 0-.92 2.22H17a.997.997 0 0 0-1 1v5.76a.997.997 0 0 0 1 1Zm15-10.09A6.21 6.21 0 1 1 25.79 21 6.222 6.222 0 0 1 32 14.79ZM58 50H38a.966.966 0 0 0-.5.14l-1.77 1.03h-7.46l-1.77-1.03A.966.966 0 0 0 26 50H6a2.006 2.006 0 0 0-2 2 7.008 7.008 0 0 0 7 7h42a7.008 7.008 0 0 0 7-7 2.006 2.006 0 0 0-2-2Z" fill="#ffffff" opacity="1" data-original="#000000" class=""></path><path d="m27.53 48.42 1.28.75h6.38l1.3-.76A3.024 3.024 0 0 1 38 48h20V24.88a3.999 3.999 0 0 0-4-4h-4v3a3.009 3.009 0 0 1-3 3h-.8l.57.57a3.006 3.006 0 0 1-.01 4.24l-4.08 4.07a2.939 2.939 0 0 1-2.12.88 2.973 2.973 0 0 1-2.12-.88l-.56-.56v.8a3.009 3.009 0 0 1-3 3h-5.76a3.009 3.009 0 0 1-3-3v-.8l-.57.57a3.006 3.006 0 0 1-4.24-.01l-4.07-4.08a2.939 2.939 0 0 1-.88-2.12 2.973 2.973 0 0 1 .88-2.12l.56-.56H17a3.009 3.009 0 0 1-3-3v-3h-4a3.999 3.999 0 0 0-4 4V48h20a3.06 3.06 0 0 1 1.53.42Z" fill="#ffffff" opacity="1" data-original="#000000" class=""></path></g></svg>