<svg xmlns="http://www.w3.org/2000/svg" version="1.1" xmlns:xlink="http://www.w3.org/1999/xlink" width="512" height="512" x="0" y="0" viewBox="0 0 30 30" style="enable-background:new 0 0 512 512" xml:space="preserve" class=""><g><path d="M24.34 20.889h-1.253v-1.243a2.439 2.439 0 0 0-2.436-2.436h-4.567v-1.712h4.386a3.788 3.788 0 0 0 3.792-3.777c0-1.461-.856-2.774-2.14-3.409a3.34 3.34 0 0 0 .163-1.018c0-1.889-1.55-3.423-3.453-3.423-.768 0-1.49.25-2.066.693A3.83 3.83 0 0 0 13.667 3a3.87 3.87 0 0 0-3.866 3.866v.044a4.31 4.31 0 0 0-3.896 4.28 4.301 4.301 0 0 0 4.294 4.308h3.885v1.712H9.515a2.439 2.439 0 0 0-2.435 2.436v1.243H5.66c-.574 0-1.043.469-1.043 1.043v4.025c0 .574.47 1.043 1.043 1.043h4.505c.574 0 1.043-.47 1.043-1.043v-4.025c0-.574-.47-1.043-1.043-1.043H9.08v-1.243c0-.24.195-.436.435-.436h11.136c.24 0 .436.196.436.436v1.243h-1.252c-.574 0-1.043.469-1.043 1.043v4.025c0 .574.47 1.043 1.043 1.043h4.505c.574 0 1.043-.47 1.043-1.043v-4.025c0-.574-.47-1.043-1.043-1.043z" fill="#ffffff" opacity="1" data-original="#000000" class=""></path></g></svg>