<svg xmlns="http://www.w3.org/2000/svg" version="1.1" xmlns:xlink="http://www.w3.org/1999/xlink" width="512" height="512" x="0" y="0" viewBox="0 0 32 32" style="enable-background:new 0 0 512 512" xml:space="preserve" class=""><g><path d="M30 30h-4V16a1 1 0 0 1 1-1h2a1 1 0 0 1 1 1zM25 30h-4V20a1 1 0 0 1 1-1h2a1 1 0 0 1 1 1zM20 30h-4v-6a1 1 0 0 1 1-1h2a1 1 0 0 1 1 1zM6 14v4H2z" fill="#ffffff" opacity="1" data-original="#000000"></path><path d="M2 19v10a1 1 0 0 0 1 1h10a1 1 0 0 0 1-1V15a1 1 0 0 0-1-1H7v4a1 1 0 0 1-1 1zm2 8.5a.5.5 0 0 1 .5-.5h7a.5.5 0 1 1 0 1h-7a.5.5 0 0 1-.5-.5zm0-2a.5.5 0 0 1 .5-.5h7a.5.5 0 1 1 0 1h-7a.5.5 0 0 1-.5-.5zm0-2a.5.5 0 0 1 .5-.5h7a.5.5 0 1 1 0 1h-7a.5.5 0 0 1-.5-.5zm0-2a.5.5 0 0 1 .5-.5h7a.5.5 0 1 1 0 1h-7a.5.5 0 0 1-.5-.5z" fill="#ffffff" opacity="1" data-original="#000000"></path><circle cx="8" cy="5" r="3" fill="#ffffff" opacity="1" data-original="#000000"></circle><path d="M10 8H6c-1.654 0-3 1.346-3 3v1a1 1 0 0 0 1 1h8a1 1 0 0 0 1-1v-1c0-1.654-1.346-3-3-3zM23 9a1 1 0 0 1-1-1V2c-3.355.256-6 3.079-6 6.5a6.5 6.5 0 0 0 6.5 6.5c3.421 0 6.244-2.645 6.5-6z" fill="#ffffff" opacity="1" data-original="#000000"></path><path d="M23 8h6c-.244-3.19-2.81-5.756-6-6z" fill="#ffffff" opacity="1" data-original="#000000"></path></g></svg>