<svg xmlns="http://www.w3.org/2000/svg" version="1.1" xmlns:xlink="http://www.w3.org/1999/xlink" width="512" height="512" x="0" y="0" viewBox="0 0 32 32" style="enable-background:new 0 0 512 512" xml:space="preserve" class=""><g><path d="m13.72 21.14-.45-.27c-.5-.29-.79-.86-.72-1.46.11-.91.35-1.81.72-2.69.24-.54.78-.89 1.35-.89l.52-.01c.17-.26.36-.5.56-.74l-.12-.5c-.15-.58.07-1.21.55-1.57.74-.56 1.54-1.02 2.33-1.34a1.484 1.484 0 0 1 1.64.29l.38.36c.3-.05.6-.09.92-.11l.28-.48c.28-.44.76-.71 1.27-.71a9.493 9.493 0 0 1 2.86.75c.54.24.89.77.89 1.33l.01.53c.26.17.51.36.75.56l.53-.13c.11-.02.21-.03.32-.03.36 0 .7.13.97.36.08.06.15.13.22.21.18.23.34.46.49.7.33-.7.51-1.48.51-2.3a5.5 5.5 0 0 0-5.25-5.49A8.018 8.018 0 0 0 17.5 1.5a8.05 8.05 0 0 0-6.33 3.11C7.09 3.84 3.5 7.03 3.5 11c0 .77.14 1.52.4 2.25-1.49.9-2.4 2.49-2.4 4.25 0 2.76 2.24 5 5 5h6.92c.02-.02.03-.04.05-.06l.37-.38c-.04-.19-.07-.37-.09-.56l-.03-.36z" fill="#ffffff" opacity="1" data-original="#000000" class=""></path><path d="M29.36 20.47c-.01-.6-.09-1.21-.24-1.8l.73-.78c.13-.14.17-.35.1-.53a8.84 8.84 0 0 0-1.24-2.14.52.52 0 0 0-.51-.18l-1.03.25c-.43-.43-.92-.8-1.44-1.1l-.03-1.06c0-.2-.12-.37-.3-.45a8.61 8.61 0 0 0-2.38-.65.5.5 0 0 0-.5.24l-.54.91c-.61.01-1.21.08-1.8.24l-.77-.74a.495.495 0 0 0-.54-.1c-.76.31-1.48.73-2.14 1.23-.16.12-.23.33-.18.52l.25 1.04c-.43.43-.8.92-1.1 1.44l-1.06.02c-.2 0-.38.12-.46.3-.32.76-.54 1.57-.64 2.4-.02.19.07.38.24.48l.91.55c.01.61.09 1.21.24 1.8l-.73.77c-.13.14-.17.34-.11.52.3.79.72 1.51 1.25 2.16.12.15.31.21.5.17l1.04-.24c.43.43.92.8 1.44 1.1l.02 1.06c0 .2.12.38.3.45.78.34 1.58.55 2.4.64h.05c.17 0 .34-.09.43-.24l.55-.9c.61-.01 1.22-.09 1.8-.24l.77.73c.14.14.35.18.53.11.78-.31 1.5-.73 2.15-1.25a.52.52 0 0 0 .18-.51l-.26-1.03c.43-.43.8-.91 1.11-1.44l1.06-.03c.2 0 .37-.12.45-.3.34-.78.55-1.58.64-2.39a.481.481 0 0 0-.24-.47l-.9-.56zm-5.75 2.8c-.49.28-1.03.42-1.58.42-.28 0-.56-.03-.83-.11-.82-.21-1.51-.74-1.93-1.48-.43-.73-.54-1.59-.32-2.41.22-.82.75-1.5 1.48-1.93 1.52-.87 3.47-.35 4.34 1.17a3.168 3.168 0 0 1-1.16 4.34z" fill="#ffffff" opacity="1" data-original="#000000" class=""></path><path d="M22.02 18.34a2.166 2.166 0 0 0-2.1 1.61c-.15.56-.08 1.15.21 1.65.3.51.77.87 1.33 1.02.56.15 1.15.07 1.65-.22a2.176 2.176 0 0 0-1.09-4.06zM4.5 27.592V24a.5.5 0 1 0-1 0v3.592c-.58.207-1 .757-1 1.408 0 .827.673 1.5 1.5 1.5s1.5-.673 1.5-1.5c0-.651-.42-1.2-1-1.408zM4 29.5a.5.5 0 1 1 .001-1.001A.5.5 0 0 1 4 29.5zM8.5 27.592V24a.5.5 0 1 0-1 0v3.592c-.58.207-1 .757-1 1.408 0 .827.673 1.5 1.5 1.5s1.5-.673 1.5-1.5c0-.651-.42-1.2-1-1.408zM8 29.5a.5.5 0 1 1 .001-1.001A.5.5 0 0 1 8 29.5zM12.5 27.592V24a.5.5 0 1 0-1 0v3.592c-.58.207-1 .757-1 1.408 0 .827.673 1.5 1.5 1.5s1.5-.673 1.5-1.5c0-.651-.42-1.2-1-1.408zM12 29.5a.5.5 0 1 1 .001-1.001A.5.5 0 0 1 12 29.5z" fill="#ffffff" opacity="1" data-original="#000000" class=""></path></g></svg>