<svg xmlns="http://www.w3.org/2000/svg" version="1.1" xmlns:xlink="http://www.w3.org/1999/xlink" width="512" height="512" x="0" y="0" viewBox="0 0 511.927 511.927" style="enable-background:new 0 0 512 512" xml:space="preserve" class=""><g><path d="M270.963 206.559v170.409c0-19.429 15.806-35.235 35.235-35.235h79.236V159.961h-67.872c-.222 0-.444.001-.665.003-25.389.358-45.934 21.122-45.934 46.595zM240.963 206.559c0-25.473-20.544-46.237-45.934-46.594a73.707 73.707 0 0 0-.665-.003h-67.872v181.771h79.236c19.429 0 35.235 15.806 35.235 35.235z" fill="#ffffff" opacity="1" data-original="#000000" class=""></path><path d="m247.293 0-21.215 21.211 12.672 12.675c-87.158 6.76-163.338 64.438-192.821 147.787l28.283 10.004C99.52 120.131 164.593 70.446 239.26 63.945L226.073 77.13l21.211 21.215 49.177-49.168zM63.945 272.666l13.185 13.187 21.215-21.211-49.168-49.177L0 264.634l21.211 21.215 12.675-12.672c6.761 87.159 64.438 163.338 147.788 192.821l10.004-28.283c-71.547-25.308-121.233-90.382-127.733-165.049zM465.997 330.253l-28.283-10.004c-25.307 71.546-90.381 121.232-165.047 127.732l13.187-13.185-21.211-21.215-49.177 49.168 49.168 49.177 21.215-21.211-12.672-12.675c87.158-6.76 163.337-64.437 192.82-147.787zM490.716 226.078l-12.675 12.672c-6.761-87.159-64.438-163.338-147.788-192.82L320.25 74.213c71.546 25.307 121.232 90.381 127.732 165.047l-13.185-13.187-21.215 21.211 49.168 49.177 49.177-49.168z" fill="#ffffff" opacity="1" data-original="#000000" class=""></path></g></svg>