<?xml version="1.0" encoding="UTF-8"?>
<svg id="Layer_2" data-name="Layer 2" xmlns="http://www.w3.org/2000/svg" viewBox="0 0 600.1 125.2">
  <defs>
    <style>
      .cls-1 {
        fill: #36bfec;
      }

      .cls-1, .cls-2 {
        stroke-width: 0px;
      }

      .cls-2 {
        fill: #005586;
      }
    </style>
  </defs>
  <g id="layer">
    <path class="cls-1" d="M65.8,113h16.6v-31.8c-1.3,1.3-10.5,9.2-16.6,12.1v19.7ZM121.1,29.8v28.9c-6-2.9-12.8-4.5-19.9-4.5-6.7,0-13.2,1.6-19,4v-28.4h-16.6v40.5c-.9.7-1.6,1.1-1.6,1.1-4.9,3.6-11.2,5.8-17.7,5.8-16.8,0-30.2-13.7-30.2-30.2s13.9-30.4,30.7-30.4c6,0,11.4,1.8,16.1,4.7V2.9c-4.9-1.8-10.5-2.9-16.1-2.9C21.1,0,0,21,0,46.8s20.8,46.8,46.8,46.8c6.3,0,11.4-1.1,17.7-3.6.4-.2.9-.4,1.6-.7,5.8-2.9,15-11,16.6-12.1.2,0,.2-.2.2-.2,5.1-4,11.6-6.5,18.8-6.5,7.6,0,14.5,2.9,19.9,7.4v34.9h16.6V29.8h-17.1ZM30.7,50.1c.2-.7,0-1.3,0-2,0-1.6-.2-2.9-.4-4.5-.4-3.6-.4-7.2,1.6-10.3.4-.7.9-1.3,1.6-2h.2c2.2-2.2,5.6-3.6,9.4-3.8,1.1,0,2.9,0,4.9.7,1.6.4,2.9.9,4.5,1.8.7.2,1.3.9,1.8,1.1.7.4,1.1.9,1.6,1.6.9,1.3,1.6,3.4.7,5.1l-.2.4-.2.4v-.9c0,.2-.4.9-.7.9h0c0,.4-.2.7-.2.9-.2.7-.4.9-.7,1.6v.2c.7,0,.7-.4.7-.2s-.4.4-.7.4c0,1.1,1.1,2.5,1.3,2.7.4.4.9.9,1.1,1.1.4.7-.9,1.6-1.1,1.8.2.4.4.4.4.9.2.4-.9.7-.7.9.2.2.2.9,0,1.1-.9.7-.7.9-.4,2,.2,1.3-.4,1.8-1.6,2-.9.2-3.4-.7-4.3-.2h0c-1.8,1.3-3.4,4.3,1.6,11.2.4.4,1.8,2,.9,2-3.6,0-9.4-7.6-17.7-2.7-1.1.7,3.6-6,4.5-9.6-.7,0-1.3-.4-2.2-1.1,0,.4.4.7.7,1.1h-.8c-.9,0-2-.2-2.9-.7-.4-.2-.7-.9-.9-1.3,0-.2-.2-.9-.2-1.3,0,.2-.2.7-.7.9-.5.2-.9.4-1.6.2.3-.6.5-1.5.7-2.4Z"/>
    <path class="cls-2" d="M189.4,55.7c.7-1.1,1.3-2,2.9-2s3.4,1.3,3.4,3.1c0,.7,0,1.1-.4,1.8-2,4.9-7.4,7.8-13,7.8-8.3,0-14.1-6-14.8-13.9-.2-2.7-.2-5.4,0-7.8.7-7.8,6.5-14.1,14.8-14.1,5.6,0,10.7,2.9,13,7.8.2.9.4,1.3.4,1.8,0,1.8-1.8,3.1-3.4,3.1s-2.5-.9-2.9-2c-1.3-2.7-4-4.3-6.9-4.3-4.7,0-7.8,3.6-8.1,8.3-.2,2-.2,4.3,0,6.3.4,4.9,3.4,8.3,8.1,8.3,3.1.3,5.5-1.5,6.9-4.2ZM208.6,41.2c1.1-.9,3.6-2,6.3-2,6.3,0,9.8,3.8,9.8,10.7v12.8c0,2-1.3,3.6-3.4,3.6-1.8,0-3.4-1.6-3.4-3.6v-12.3c0-2.9-1.8-4.7-4.5-4.7-2,0-4,.9-5.1,2v15c0,1.8-1.3,3.4-3.4,3.4-1.8,0-3.4-1.6-3.4-3.4v-28.6c0-2,1.3-3.4,3.4-3.4,1.8,0,3.4,1.6,3.4,3.4l.3,7.1h0ZM235,36.7c-2,0-3.6-1.6-3.6-3.6s1.6-3.6,3.6-3.6,3.6,1.6,3.6,3.6-1.5,3.6-3.6,3.6ZM238.4,43v19.9c0,1.8-1.3,3.4-3.4,3.4-1.8,0-3.4-1.6-3.4-3.4v-19.9c0-2,1.3-3.4,3.4-3.4,2.1-.2,3.4,1.4,3.4,3.4ZM252.3,34.2v28.7c0,1.8-1.3,3.4-3.4,3.4-1.8,0-3.4-1.6-3.4-3.4v-28.6c0-2,1.3-3.4,3.4-3.4,2-.2,3.4,1.3,3.4,3.3ZM269.5,39.4c2,0,4.3.7,5.8,1.3v-6.5c0-2,1.6-3.4,3.4-3.4s3.4,1.6,3.4,3.4v26.9c0,1.1-.2,1.8-1.1,2.2-1.3.9-5.4,3.1-10.3,3.1-6.9,0-11.2-4.3-11.6-10.3-.2-1.8-.2-4.9,0-6.7.3-6.2,3.9-10,10.4-10ZM270.6,60.2c1.8,0,4-.9,4.7-1.6v-11.6c-.9-.4-2.9-1.3-5.1-1.3-3.1,0-4.7,1.8-4.9,4.7v4.7c.2,3.3,2.2,5.1,5.3,5.1ZM304.9,43.2c0,1.3-1.1,3.1-3.1,3.1-1.1,0-2.2-.4-3.8-.4s-2.5.9-2.5,3.1v13.9c0,1.8-1.3,3.4-3.4,3.4-1.8,0-3.4-1.6-3.4-3.4v-15.2c0-5.1,2.9-8.5,8.7-8.5,1.6,0,3.4.2,4.3.4,2,.7,3.2,1.8,3.2,3.6ZM330.6,51.9c0,2-.9,3.4-3.4,3.4h-13.2v.4c0,3.1,2.5,4.7,5.6,4.7,1.8,0,3.6-.4,5.4-1.1,2.7-.9,4.3.9,4.3,2.7,0,.9-.4,2-1.6,2.7-1.8,1.1-4.9,1.8-8.1,1.8-6.7,0-11.4-4.3-11.9-10.5-.2-2,0-4.7,0-6.3.7-6.5,5.1-10.5,11.6-10.5s11.2,4.5,11.2,11.4c.1,0,.1,1.3.1,1.3ZM323.7,50.6c.4,0,.4-.2.4-.7.2-2.9-1.8-4.9-4.9-4.9-3.6,0-5.1,2.2-5.1,5.6h9.6ZM359.2,62.9c0,1.8-1.3,3.4-3.4,3.4-1.8,0-3.4-1.6-3.4-3.4v-12.5c0-3.1-2.2-4.7-4.7-4.7-2,0-3.8.7-4.9,1.1v15.9c0,1.8-1.3,3.4-3.4,3.4-1.8,0-3.4-1.6-3.4-3.4v-18.4c0-1.1.4-1.8,1.1-2.5,1.6-1.1,5.1-2.7,10.5-2.7,7.4,0,11.2,3.8,11.2,10.7l.4,13.1h0ZM370.2,36.7c0,1.8-.2,4-1.3,5.8-.7,1.1-1.8,2-3.1,2-1.6,0-2.7-1.3-2.7-2.7,0-1.6,1.3-2.2,1.3-4.9v-2.9c0-1.6,1.3-2.9,2.9-2.9s2.9,1.3,2.9,2.9v2.7ZM393,58c0,5.6-4.5,8.5-10.3,8.5-4.7,0-7.6-1.3-9.4-2.9-1.1-.9-1.6-2.9-.7-4,.9-1.3,2.7-1.6,4.3-.7s3.6,1.6,5.8,1.6c2.5,0,3.8-.9,3.8-2.2,0-1.1-.9-1.8-2.9-2.2q-1.8-.4-3.6-.9c-4-1.1-7.2-3.4-7.2-7.6,0-5.4,4.3-8.3,10.1-8.3,3.1,0,6.3.9,8.1,2.2,1.3,1.1,1.3,3.1.2,4.5-.9,1.1-2.7,1.1-4.3.4-1.3-.7-2.9-1.1-4.3-1.1-2.5,0-3.6.9-3.6,2s.7,1.8,2.9,2.2l3.6.9c5.1,1.1,7.5,3.5,7.5,7.6ZM410.9,34.5c0-2,1.6-3.4,3.4-3.4,2,0,3.4,1.6,3.4,3.4v11h15.7v-11c0-2,1.6-3.4,3.4-3.4,2,0,3.4,1.6,3.4,3.4v28.2c0,2-1.3,3.6-3.4,3.6-1.8,0-3.4-1.6-3.4-3.6v-10.8h-15.7v10.7c0,2-1.3,3.4-3.4,3.4-1.8,0-3.4-1.6-3.4-3.4v-28.1ZM458.4,66.5c-6.5,0-11.4-4-11.9-10.1-.2-2-.2-5.1,0-6.9.4-5.8,5.4-10.1,11.9-10.1s11.2,4,11.9,10.1c.2,2,.2,4.9,0,6.9-.5,5.8-5.2,10.1-11.9,10.1ZM463.8,50.4c-.2-2.9-2-4.7-5.1-4.7s-4.9,2-5.4,4.7v4.9c.2,2.9,2.2,4.7,5.4,4.7s4.9-2,5.1-4.7v-4.9ZM496,58c0,5.6-4.5,8.5-10.3,8.5-4.7,0-7.6-1.3-9.4-2.9-1.1-.9-1.6-2.9-.7-4,.9-1.3,2.7-1.6,4.3-.7s3.6,1.6,5.8,1.6c2.5,0,3.8-.9,3.8-2.2,0-1.1-.9-1.8-2.9-2.2q-1.8-.4-3.6-.9c-4-1.1-7.2-3.4-7.2-7.6,0-5.4,4.3-8.3,10.1-8.3,3.1,0,6.3.9,8.1,2.2,1.3,1.1,1.3,3.1.2,4.5-.9,1.1-2.7,1.1-4.3.4-1.3-.7-2.9-1.1-4.3-1.1-2.5,0-3.6.9-3.6,2s.7,1.8,2.9,2.2l3.6.9c5,1.1,7.5,3.5,7.5,7.6ZM513.4,66.5c-2.2,0-3.8-.4-5.6-1.3v7.4c0,2-1.6,3.4-3.4,3.4s-3.4-1.6-3.4-3.4v-28.2c0-.7.2-1.3.9-1.6,1.6-1.1,5.6-3.1,10.7-3.1,6.7,0,11,4.3,11.6,10.3.2,1.8.2,4.9,0,6.7-.2,5.7-4.3,9.8-10.8,9.8ZM512.8,45.7c-1.8,0-4,.9-4.9,1.6v11.6c.9.4,2.9,1.3,4.9,1.3,3.4,0,4.7-1.8,4.9-4.7v-4.7c-.2-3.4-1.8-5.1-4.9-5.1ZM534.3,36.7c-2,0-3.6-1.6-3.6-3.6s1.6-3.6,3.6-3.6,3.6,1.6,3.6,3.6c-.1,2-1.6,3.6-3.6,3.6ZM537.6,43v19.9c0,1.8-1.3,3.4-3.4,3.4-1.8,0-3.4-1.6-3.4-3.4v-19.9c0-2,1.3-3.4,3.4-3.4,1.8-.2,3.4,1.4,3.4,3.4ZM553.5,66.5c-6,0-9-4.3-9-9.6v-19.5c0-2,1.3-3.4,3.4-3.4,1.8,0,3.4,1.6,3.4,3.4v3.4h6.3c1.6,0,3.1,1.3,3.1,2.9s-1.3,2.9-3.1,2.9h-6.3v10.1c0,2.5,1.1,3.6,3.1,3.6,1.1,0,2.2-.2,3.1-.4,2.5-.7,4,.9,4,2.9,0,1.1-.4,2.2-2,2.9-1.7.5-4,.8-6,.8ZM586.6,61.3c0,1.1-.2,1.8-1.1,2.2-1.3.9-4.9,2.7-10.3,2.7-7.2,0-10.3-4-10.3-8.7,0-4.3,2.9-8.1,10.1-8.1,2.2,0,3.6.2,5.4.7v-1.3c0-2.5-1.3-3.8-4.7-3.8-1.8,0-3.6.4-4.7.9-2.9.9-4.5-.4-4.5-2.5,0-1.1.4-2.2,2.2-2.9,1.3-.7,4.3-1.3,7.2-1.3,6.9,0,11,3.1,11,10.1v12.1h-.3v-.1ZM580.4,59.5v-4.5c-1.6-.4-3.1-.9-4.9-.9-2.7,0-4.3,1.3-4.3,3.1,0,2.2,1.8,3.4,4.5,3.4s4-.6,4.7-1.1ZM600.1,34.2v28.7c0,1.8-1.3,3.4-3.4,3.4-1.8,0-3.4-1.6-3.4-3.4v-28.6c0-2,1.3-3.4,3.4-3.4,1.8-.2,3.4,1.3,3.4,3.3ZM179.5,115.7c-6.5,0-11.4-4-11.9-10.1v-6.9c.4-5.8,5.4-10.1,11.9-10.1s11.2,4,11.9,10.1c.2,2,.2,4.9,0,6.9-.7,5.8-5.4,10.1-11.9,10.1ZM184.7,99.6c-.2-2.9-2-4.7-5.1-4.7s-4.9,2-5.4,4.7v4.9c.2,2.9,2.2,4.7,5.4,4.7s4.9-2,5.1-4.7c.2-1.1.2-3.6,0-4.9ZM199.5,88.6c0-6,3.4-9.2,8.7-9.2,1.8,0,3.8.2,4.9.7,1.6.4,2.5,1.6,2.5,3.1s-1.1,2.9-3.1,2.9c-1.1,0-2.2-.4-3.8-.4-1.8,0-2.9,1.1-2.9,3.1v1.1h5.8c1.6,0,2.9,1.1,2.9,2.9,0,1.6-1.3,2.9-2.9,2.9h-5.8v16.3c0,2-1.3,3.6-3.4,3.6-1.8,0-3.4-1.6-3.4-3.6v-16.3h-1.1c-1.8,0-3.1-1.3-3.1-2.9,0-1.8,1.3-2.9,3.1-2.9h1.1v-1.3h.5ZM240.6,104.1v8.1c0,1.8-1.6,3.6-3.4,3.6s-3.4-1.6-3.4-3.6v-27.3c0-2.5,1.6-4.5,4.5-4.5h9.8c6.5,0,12.1,4.3,12.1,11.6s-5.4,11.6-12.5,11.6h-7.2v.5h.1ZM247.6,97.4c4,0,5.8-2,5.8-5.1,0-3.4-1.8-5.1-5.8-5.1h-7.2v10.3c0-.1,7.2-.1,7.2-.1ZM272,90.4c1.1-.9,3.6-2,6.3-2,6.3,0,9.8,3.8,9.8,10.7v12.8c0,2-1.3,3.6-3.4,3.6-1.8,0-3.4-1.6-3.4-3.6v-12.3c0-2.9-1.8-4.7-4.5-4.7-2,0-4,.9-5.1,2v15c0,1.8-1.3,3.4-3.4,3.4-1.8,0-3.4-1.6-3.4-3.4v-28.6c0-2,1.3-3.4,3.4-3.4,1.8,0,3.4,1.6,3.4,3.4l.3,7.1h0ZM298.4,85.9c-2,0-3.6-1.6-3.6-3.6s1.6-3.6,3.6-3.6,3.6,1.6,3.6,3.6c0,2.1-1.6,3.6-3.6,3.6ZM301.7,92.2v19.9c0,1.8-1.3,3.4-3.4,3.4-1.8,0-3.4-1.6-3.4-3.4v-19.9c0-2,1.3-3.4,3.4-3.4,1.9,0,3.4,1.4,3.4,3.4ZM315.6,83.5v28.6c0,1.8-1.3,3.4-3.4,3.4-1.8,0-3.4-1.6-3.4-3.4v-28.6c0-2,1.3-3.4,3.4-3.4,2.1-.2,3.4,1.4,3.4,3.4ZM343.6,110.6c0,1.1-.2,1.8-1.1,2.2-1.3.9-4.9,2.7-10.3,2.7-7.2,0-10.3-4-10.3-8.7,0-4.3,2.9-8.1,10.1-8.1,2.2,0,3.6.2,5.4.7v-1.3c0-2.5-1.3-3.8-4.7-3.8-1.8,0-3.6.4-4.7.9-2.9.9-4.5-.4-4.5-2.5,0-1.1.4-2.2,2.2-2.9,1.3-.7,4.3-1.3,7.2-1.3,6.9,0,11,3.1,11,10.1l-.3,12h0ZM337.1,108.8v-4.5c-1.6-.4-3.1-.9-4.9-.9-2.7,0-4.3,1.3-4.3,3.1,0,2.2,1.8,3.4,4.5,3.4,2.7.2,4.2-.7,4.7-1.1ZM360.4,88.6c2,0,4.3.7,5.8,1.3v-6.5c0-2,1.6-3.4,3.4-3.4s3.4,1.6,3.4,3.4v26.9c0,1.1-.2,1.8-1.1,2.2-1.3.9-5.4,3.1-10.3,3.1-6.9,0-11.2-4.3-11.6-10.3-.2-1.8-.2-4.9,0-6.7.1-6.2,3.9-10,10.4-10ZM361.3,109.4c1.8,0,4-.9,4.7-1.6v-11.6c-.9-.4-2.9-1.3-5.1-1.3-3.1,0-4.7,1.8-4.9,4.7v4.7c.3,3.3,2.1,5.1,5.3,5.1ZM402.2,101.2c0,2-.9,3.4-3.4,3.4h-13.2v.4c0,3.1,2.5,4.7,5.6,4.7,1.8,0,3.6-.4,5.4-1.1,2.7-.9,4.3.9,4.3,2.7,0,.9-.4,2-1.6,2.7-1.8,1.1-4.9,1.8-8.1,1.8-6.7,0-11.4-4.3-11.9-10.5-.2-2,0-4.7,0-6.3.7-6.5,5.1-10.5,11.6-10.5s11.2,4.5,11.2,11.4v1.3h.1ZM395.3,99.8c.4,0,.4-.2.4-.7.2-2.9-1.8-4.9-4.9-4.9-3.6,0-5.1,2.2-5.1,5.6h9.6ZM414.7,83.5v28.6c0,1.8-1.3,3.4-3.4,3.4-1.8,0-3.4-1.6-3.4-3.4v-28.6c0-2,1.3-3.4,3.4-3.4,1.9-.2,3.4,1.4,3.4,3.4ZM433.8,115.7c-2.2,0-3.8-.4-5.6-1.3v7.4c0,2-1.6,3.4-3.4,3.4s-3.4-1.6-3.4-3.4v-28.2c0-.7.2-1.3.9-1.6,1.6-1.1,5.6-3.1,10.7-3.1,6.7,0,11,4.3,11.6,10.3.2,1.8.2,4.9,0,6.7-.3,5.8-4.1,9.8-10.8,9.8ZM433.1,94.9c-1.8,0-4,.9-4.9,1.6v11.6c.9.4,2.9,1.3,4.9,1.3,3.4,0,4.7-1.8,4.9-4.7v-4.7c0-3.3-1.8-5.1-4.9-5.1ZM457.7,90.4c1.1-.9,3.6-2,6.3-2,6.3,0,9.8,3.8,9.8,10.7v12.8c0,2-1.3,3.6-3.4,3.6-1.8,0-3.4-1.6-3.4-3.6v-12.3c0-2.9-1.8-4.7-4.5-4.7-2,0-4,.9-5.1,2v15c0,1.8-1.3,3.4-3.4,3.4-1.8,0-3.4-1.6-3.4-3.4v-28.6c0-2,1.3-3.4,3.4-3.4,1.8,0,3.4,1.6,3.4,3.4v7.2h.3v-.1ZM484.3,85.9c-2,0-3.6-1.6-3.6-3.6s1.6-3.6,3.6-3.6,3.6,1.6,3.6,3.6c-.2,2.1-1.8,3.6-3.6,3.6ZM487.5,92.2v19.9c0,1.8-1.3,3.4-3.4,3.4-1.8,0-3.4-1.6-3.4-3.4v-19.9c0-2,1.3-3.4,3.4-3.4s3.4,1.4,3.4,3.4ZM515.7,110.6c0,1.1-.2,1.8-1.1,2.2-1.3.9-4.9,2.7-10.3,2.7-7.2,0-10.3-4-10.3-8.7,0-4.3,2.9-8.1,10.1-8.1,2.2,0,3.6.2,5.4.7v-1.3c0-2.5-1.3-3.8-4.7-3.8-1.8,0-3.6.4-4.7.9-2.9.9-4.5-.4-4.5-2.5,0-1.1.4-2.2,2.2-2.9,1.3-.7,4.3-1.3,7.2-1.3,6.9,0,11,3.1,11,10.1v12.1h-.3v-.1ZM509.2,108.8v-4.5c-1.6-.4-3.1-.9-4.9-.9-2.7,0-4.3,1.3-4.3,3.1,0,2.2,1.8,3.4,4.5,3.4,2.7.2,4.2-.7,4.7-1.1Z"/>
    <path class="cls-2" d="M523.1,97.6c-2.5,0-4.3-1.8-4.3-3.8v-1.3c0-2.2,2-3.8,4.3-3.8s4.3,1.6,4.3,3.8v1.3c-.1,2.2-2.1,3.8-4.3,3.8ZM526.4,92.4c-.2-1.8-1.6-3.1-3.4-3.1s-3.1,1.1-3.4,3.1v1.3c.2,1.8,1.6,3.1,3.4,3.1s3.1-1.1,3.4-3.1v-1.3ZM523.1,93.8c0-.2-.2-.2-.2-.2h-.7v1.3c0,.2-.2.4-.4.4s-.4-.2-.4-.4v-3.8c0-.2.2-.4.7-.4h1.6c.9,0,1.8.4,1.8,1.3,0,.7-.4,1.1-1.1,1.3l1.1,1.3.2.2c0,.2-.2.4-.4.4s-.2,0-.2-.2l-2-1.2ZM523.3,92.9c.7,0,.9-.2.9-.7,0-.4-.2-.7-.9-.7h-1.1v1.3h1.1v.1Z"/>
  </g>
</svg>