<svg viewBox="0 0 309.73 72" xmlns="http://www.w3.org/2000/svg" xmlns:xlink="http://www.w3.org/1999/xlink" id="Layer_1" overflow="hidden"><defs></defs><path d="M242.42 48.8C243.52 53.9 246.42 55.7 252.42 55.7 257.72 55.7 260.62 53.8 260.62 50.8 260.62 46.5 256.72 46.2 248.62 44.1 239.12 41.6 233.02 39.5 230.22 37.5 224.92 33.8 222.42 28.5 222.42 21.8 222.42 8.6 232.82-7.10543e-15 250.92-7.10543e-15 269.02-7.10543e-15 278.82 7.7 280.02 21.5L259.32 21.5C258.62 17.4 255.82 15.5 250.52 15.5 245.92 15.5 243.62 17 243.62 20.1 243.62 23.7 247.12 24.4 253.72 26.1 262.22 28.3 268.92 29.6 273.22 32.6 279.22 36.6 281.92 41.5 281.92 48.5 281.92 63.3 271.32 72 251.52 72 233.22 72 222.52 63.4 221.12 48.8L242.42 48.8ZM162.03 43.6C160.83 61.5 149.03 72 129.43 72 107.63 72 94.43 58.2 94.43 36 94.43 13.8 107.82 0 129.03 0 148.83 0 160.43 10 161.73 27.7L140.93 27.7C140.33 20.8 136.43 17.1 129.33 17.1 120.73 17.1 116.53 23.4 116.53 36 116.53 48.6 121.13 54.8 130.03 54.8 136.63 54.8 140.83 50.8 141.53 43.5L162.03 43.5 162.03 43.6ZM157.33 2 179.63 2 191.13 46 203.43 2 224.93 2 202.03 70.2 180.23 70.2 157.33 2ZM24.32 0.1C21.72 0.1 19.12 1.1 17.22 3.1L2.92 17.4C-0.98 21.3-0.98 27.7 2.92 31.7L43.32 72 83.62 31.6C87.52 27.7 87.52 21.3 83.62 17.3L69.32 3.1C67.32 1.1 64.72 0.1 62.22 0.1 59.72 0.1 57.02 1.1 55.02 3.1L43.32 14.9 31.53 3.1C29.53 1.1 26.93 0.1 24.32 0.1L24.32 0.1Z" stroke-width="0" fill="#CC0000"/><path d="M300.53 28.9C295.13 28.9 291.33 24.9 291.33 19.5 291.33 14.1 295.63 10.1 300.53 10.1 305.43 10.1 309.73 13.8 309.73 19.5 309.73 25.2 305.43 28.9 300.53 28.9ZM300.53 11.8C296.43 11.8 293.33 15 293.33 19.5 293.33 24 296.13 27.2 300.53 27.2 304.53 27.2 307.73 24 307.73 19.5 307.73 15 304.53 11.8 300.53 11.8ZM298.73 24.9 297.03 24.9 297.03 14.6 300.93 14.6C303.43 14.6 304.73 15.5 304.73 17.6 304.73 19.5 303.63 20.3 302.03 20.4L304.93 25 303.03 25 300.33 20.6 298.73 20.6 298.73 24.9ZM300.62 19.1C301.92 19.1 303.02 19 303.02 17.5 303.02 16.2 301.82 16.1 300.72 16.1L298.62 16.1 298.62 19.1 300.62 19.1Z" stroke-width="0" fill="#CC0000"/></svg>