<svg width="171.4" height="38.0148" viewBox="0 0 45.3496 10.0581" xmlns="http://www.w3.org/2000/svg" xmlns:xlink="http://www.w3.org/1999/xlink" id="svg7794" overflow="hidden"><defs id="defs7788"></defs><g id="layer1" transform="translate(-117.309 -158.791)"><g id="g7902" transform="translate(0.132291 -0.132289)"><path d="M117.463 162.737C117.379 162.737 117.309 162.807 117.309 162.891L117.309 167.383C117.309 167.468 117.379 167.536 117.463 167.536M118.753 162.737 117.463 162.737C117.379 162.737 117.309 162.807 117.309 162.891L117.309 167.383C117.309 167.468 117.379 167.536 117.463 167.536L118.746 167.536C120.114 167.536 121.123 166.657 121.123 165.14 121.123 163.624 120.121 162.737 118.753 162.737M118.712 166.671 118.242 166.671 118.242 163.604 118.72 163.604C119.505 163.604 120.155 164.098 120.155 165.14 120.155 166.183 119.498 166.671 118.712 166.671" id="path5605" stroke-width="0.352778" fill="#4B2A91"/><path d="M124.177 166.351C124.523 166.351 124.8 166.629 124.8 166.967 124.8 167.305 124.523 167.583 124.177 167.583 123.839 167.583 123.562 167.305 123.562 166.967 123.562 166.629 123.839 166.351 124.177 166.351" id="path5609" stroke-width="0.352778" fill="#4B2A91"/><path d="M128.147 165.573C128.776 165.391 129.169 164.883 129.169 164.213 129.169 163.38 128.574 162.737 127.639 162.737L125.918 162.737C125.833 162.737 125.764 162.807 125.764 162.891L125.764 167.383C125.764 167.468 125.833 167.536 125.918 167.536L126.551 167.536C126.636 167.536 126.705 167.467 126.705 167.383L126.705 165.688 127.192 165.688 128.058 167.383C128.101 167.468 128.206 167.536 128.29 167.536L129.019 167.536C129.103 167.536 129.138 167.467 129.095 167.383ZM127.463 164.883 126.705 164.883 126.705 163.549 127.463 163.549C127.937 163.549 128.214 163.813 128.214 164.219 128.214 164.613 127.937 164.883 127.463 164.883" id="path5613" stroke-width="0.352778" fill="#4B2A91"/><path d="M123.529 164.179C123.245 164.179 122.784 164.26 122.581 164.7L122.581 164.358C122.581 164.277 122.517 164.211 122.437 164.206L121.862 164.206C121.779 164.206 121.71 164.273 121.708 164.355L121.708 167.383C121.709 167.466 121.777 167.535 121.862 167.535L122.453 167.535 122.454 167.533C122.538 167.533 122.608 167.464 122.608 167.38L122.608 166.012C122.608 165.295 123.008 165.072 123.468 165.072 123.549 165.072 123.637 165.078 123.738 165.098L123.738 164.192C123.67 164.185 123.603 164.179 123.528 164.179" id="path5617" stroke-width="0.352778" fill="#4B2A91"/><path d="M144.553 164.206 143.901 164.206C143.818 164.207 143.71 164.275 143.663 164.359L142.908 166.155 142.091 164.359C142.043 164.275 141.935 164.207 141.851 164.207L141.851 164.206 141.155 164.206C141.071 164.206 141.039 164.275 141.088 164.36L142.428 167.116 141.712 168.696C141.669 168.779 141.704 168.849 141.788 168.849L142.436 168.849C142.518 168.849 142.616 168.784 142.662 168.704L144.62 164.358C144.666 164.274 144.637 164.207 144.553 164.206" id="path5621" stroke-width="0.352778" fill="#4B2A91"/><path d="M147.364 165.519 146.891 165.418C146.707 165.384 146.586 165.282 146.586 165.119 146.586 164.93 146.776 164.788 147.012 164.788 147.309 164.788 147.458 164.942 147.523 165.102L147.524 165.101C147.548 165.179 147.615 165.227 147.694 165.205L148.178 165.096 148.177 165.096C148.253 165.072 148.296 164.995 148.282 164.92 148.18 164.565 147.833 164.105 147.005 164.105 146.288 164.105 145.76 164.6 145.76 165.195 145.76 165.661 146.051 166.048 146.693 166.189L147.134 166.292C147.39 166.345 147.493 166.467 147.493 166.616 147.493 166.792 147.35 166.948 147.052 166.948 146.694 166.948 146.5 166.744 146.454 166.507L146.453 166.508C146.443 166.472 146.409 166.451 146.373 166.456L145.807 166.58C145.73 166.602 145.686 166.681 145.701 166.758 145.806 167.136 146.179 167.638 147.059 167.638 147.932 167.638 148.352 167.083 148.352 166.542 148.352 166.055 148.02 165.655 147.364 165.52" id="path5625" stroke-width="0.352778" fill="#4B2A91"/><path d="M131.017 164.105C130.164 164.105 129.379 164.795 129.379 165.857 129.379 166.981 130.184 167.637 131.098 167.637 131.861 167.637 132.367 167.218 132.57 166.696 132.576 166.625 132.534 166.556 132.462 166.536L131.979 166.393C131.924 166.381 131.861 166.403 131.818 166.462 131.696 166.703 131.474 166.866 131.105 166.866 130.658 166.866 130.286 166.548 130.266 166.108L132.506 166.108C132.589 166.108 132.657 166.04 132.658 165.956 132.66 165.916 132.662 165.874 132.662 165.83 132.662 164.761 132.046 164.105 131.017 164.105M130.286 165.492C130.307 165.187 130.564 164.835 131.03 164.835 131.545 164.835 131.762 165.16 131.775 165.492L130.286 165.492" id="path5629" stroke-width="0.352778" fill="#4B2A91"/><path d="M136.597 167.395 136.594 164.292 136.594 162.79C136.594 162.704 136.525 162.635 136.44 162.635L135.86 162.635C135.782 162.635 135.72 162.696 135.71 162.77 135.709 162.777 135.706 162.782 135.706 162.79L135.706 164.484 135.71 164.483 135.71 164.538C135.615 164.361 135.345 164.124 134.77 164.124 133.829 164.124 133.173 164.89 133.173 165.864 133.173 166.872 133.848 167.617 134.797 167.617 135.243 167.617 135.581 167.414 135.73 167.15 135.73 167.155 135.731 167.159 135.731 167.163L135.732 167.16C135.732 167.209 135.733 167.249 135.735 167.287 135.74 167.363 135.747 167.432 135.755 167.483L135.756 167.481 135.756 167.483C135.768 167.511 135.797 167.533 135.831 167.536L136.447 167.536 136.445 167.532C136.524 167.532 136.588 167.471 136.597 167.394M134.905 166.811C134.43 166.811 134.079 166.458 134.079 165.863 134.079 165.268 134.445 164.929 134.905 164.929 135.365 164.929 135.724 165.261 135.724 165.856 135.724 166.458 135.365 166.811 134.905 166.811" id="path5633" stroke-width="0.352778" fill="#4B2A91"/><path d="M140.6 167.395 140.598 164.292 140.598 162.79C140.598 162.704 140.529 162.635 140.444 162.635L139.864 162.635C139.786 162.635 139.724 162.696 139.714 162.77 139.713 162.777 139.71 162.782 139.71 162.79L139.71 164.484 139.714 164.483 139.714 164.538C139.619 164.361 139.349 164.124 138.773 164.124 137.833 164.124 137.176 164.89 137.176 165.864 137.176 166.872 137.853 167.617 138.801 167.617 139.247 167.617 139.585 167.414 139.735 167.15L139.735 167.163 139.737 167.16C139.737 167.209 139.737 167.249 139.74 167.287 139.745 167.363 139.752 167.432 139.76 167.483L139.761 167.481 139.761 167.483C139.773 167.511 139.802 167.533 139.836 167.536L140.452 167.536 140.45 167.532C140.529 167.532 140.593 167.471 140.601 167.394M138.91 166.811C138.436 166.811 138.084 166.458 138.084 165.863 138.084 165.268 138.449 164.929 138.91 164.929 139.37 164.929 139.728 165.261 139.728 165.856 139.728 166.458 139.37 166.811 138.91 166.811" id="path5637" stroke-width="0.352778" fill="#4B2A91"/><path d="M146.029 163.333C146.052 163.273 146.066 163.208 146.066 163.139 146.066 162.838 145.819 162.591 145.512 162.591 145.21 162.591 144.963 162.838 144.963 163.139 144.963 163.396 145.142 163.611 145.381 163.67L145.081 164.341C145.08 164.346 145.079 164.35 145.079 164.355 145.079 164.386 145.104 164.412 145.135 164.412L145.135 164.413 145.435 164.413C145.464 164.413 145.498 164.39 145.515 164.362L146.018 163.361C146.022 163.353 146.025 163.344 146.028 163.335 146.028 163.335 146.028 163.334 146.028 163.333" id="path5641" stroke-width="0.352778" fill="#4B2A91"/><path d="M155.452 165.495C155.452 165.767 155.232 165.988 154.96 165.988 154.688 165.988 154.468 165.767 154.468 165.495 154.468 165.224 154.688 165.003 154.96 165.003 155.232 165.003 155.452 165.224 155.452 165.495M156.025 168.573 156.025 161.871C156.001 160.846 155.383 159.97 154.502 159.57 154.21 159.444 153.895 159.362 153.566 159.345 151.94 159.258 150.684 160.22 150.348 161.518 150.131 162.309 150.299 163.259 150.843 164.057 151.511 165.038 154.257 167.637 155.583 168.795 155.629 168.829 155.684 168.849 155.746 168.849 155.899 168.849 156.023 168.726 156.025 168.573" id="path5645" stroke-width="0.352778" fill="#4B2A91"/><path d="M158.083 165.104C157.406 165.104 156.859 165.651 156.859 166.327 156.859 167.001 157.406 167.549 158.083 167.549 158.757 167.549 159.306 167.001 159.306 166.327 159.306 165.651 158.757 165.104 158.083 165.104" id="path5649" stroke-width="0.352778" fill="#4B2A91"/><path d="M156.859 167.878C156.626 167.878 156.437 168.067 156.437 168.301 156.437 168.534 156.626 168.722 156.859 168.722 157.092 168.722 157.281 168.534 157.281 168.301 157.281 168.067 157.092 167.878 156.859 167.878" id="path5653" stroke-width="0.352778" fill="#4B2A91"/><path d="M160.41 162.129C159.514 162.129 158.786 162.856 158.786 163.755 158.786 164.652 159.514 165.379 160.41 165.379 161.309 165.379 162.036 164.652 162.036 163.755 162.036 162.856 161.309 162.129 160.41 162.129" id="path5657" stroke-width="0.352778" fill="#4B2A91"/><path d="M161.541 160.128C161.07 160.128 160.688 160.509 160.688 160.981 160.688 161.451 161.07 161.833 161.541 161.833 162.012 161.833 162.394 161.451 162.394 160.981 162.394 160.509 162.012 160.128 161.541 160.128" id="path5661" stroke-width="0.352778" fill="#4B2A91"/><path d="M158.28 162.176C159.142 162.176 159.842 161.478 159.842 160.616 159.842 159.754 159.142 159.056 158.28 159.056 157.419 159.056 156.72 159.754 156.72 160.616 156.72 161.478 157.419 162.176 158.28 162.176" id="path5665" stroke-width="0.352778" fill="#4B2A91"/><path d="M158.34 163.55C158.34 164.062 157.924 164.477 157.412 164.477 156.9 164.477 156.485 164.062 156.485 163.55 156.485 163.037 156.9 162.622 157.412 162.622 157.924 162.622 158.34 163.037 158.34 163.55" id="path5669" stroke-width="0.352778" fill="#4B2A91"/></g></g></svg>