<svg width="1000" height="999.98" viewBox="0 0 1000 999.98" xmlns="http://www.w3.org/2000/svg" xmlns:xlink="http://www.w3.org/1999/xlink" xml:space="preserve" overflow="hidden"><g transform="translate(-203.54 -212.7)"><path d="M704.93 212.7 597.35 514.32 670.481 514.343C723.161 514.358 745.579 555.894 728.99 602.409L622.02 902.319 514.38 902.319 632.07 572.319 576.648 572.319 458.968 902.319 350.398 902.319 591.878 225.209C369.498 275.94 203.538 474.919 203.538 712.669 203.538 946.719 364.358 1143.18 581.518 1197.65L825.488 512.639 1002.18 512.639C1038.72 512.639 1084.69 537.28 1064.82 593.363L965.621 873.473C952.949 909.253 922.828 916.504 898.832 916.504L790.212 916.504 684.862 1212.29C691.065 1212.52 697.28 1212.68 703.534 1212.68 979.674 1212.68 1203.53 988.827 1203.53 712.677 1203.53 436.997 980.424 213.447 704.914 212.697ZM913.08 571.51 810.61 859.15 865.177 859.15 967.667 571.51Z" fill="#015294"/></g></svg>