<?xml version="1.0" encoding="UTF-8"?>
<svg id="Layer_2" data-name="Layer 2" xmlns="http://www.w3.org/2000/svg" viewBox="0 0 657.96 229.36">
  <defs>
    <style>
      .cls-1 {
        fill: #e20b8c;
      }

      .cls-1, .cls-2, .cls-3, .cls-4, .cls-5 {
        stroke-width: 0px;
      }

      .cls-2 {
        fill: #121212;
      }

      .cls-3 {
        fill: #332d74;
      }

      .cls-4 {
        fill: #00aacf;
      }

      .cls-5 {
        fill: #00abe2;
      }
    </style>
  </defs>
  <g id="Layer_2-2" data-name="Layer 2">
    <path class="cls-3" d="M189.21,0c4.95,4.67,8.14,10.62,11.8,16.23-1.3,1.06-2.38,2.36-3.2,3.83l-10.34,15.16c-.82-1.06-1.67-2.1-2.44-3.19-3.75-5.3-7.13-10.85-11.32-15.84,3.59-5.55,6.77-11.38,11.44-16.18h4.05Z"/>
    <path class="cls-5" d="M59.53,157.65c-7.39,11.29-14.79,22.57-22.72,33.49-3.99,2.35-5.79,6.18-7.03,10.39-.93,2.45-2.9,4.23-4.15,6.48-.71,1.28-1.9,1.38-3.19,1.38-6.63,0-13.27-.02-19.92.05-2.71.03-3.21-.77-1.61-3.03,5.41-7.57,9.88-15.79,15.98-22.88.24-.37.43-.78.56-1.21l.6-.83-.06.03c2.25-1.26,3.78-3.51,4.12-6.07l-.04-.04c1.66.14,1.51-.95,1.37-2.02l-.03.04c1.72-.6,2.84-2.26,2.76-4.08h-.06c1.8.07,1.46-1.2,1.43-2.27,2.2-3.89,4.68-7.62,7.39-11.15,1.24-.51,2.2-1.23,2.06-2.76l-.05-.02c2.24-.46,2.89-1.98,2.73-4.05l-.02.05c.74-.18.81-.73.77-1.35l-.04.02c1.43-.04,2.25-.58,1.87-2.18v-.04c3.22-.12,2.51-2.67,2.85-4.58h-.04c2.29-.12,2.7-1.61,2.57-3.5l.04.03c4.32-3.23,6.39-7.91,8.28-12.72l-.02.05c.7-.21.77-.75.75-1.35l-.02.02c2.12-.21,3.66-2.11,3.45-4.22-.02-.19-.06-.38-.1-.56h-.04c1.81.12,2.38-1.28,3.11-2.51.89-1.51,1.14-3.57,2.69-4.47,1.63-.95,1.26-2.05,1-3.33.12-.16.24-.32.36-.48,3.02-1.73,5.08-4.72,5.64-8.16l-.03-.02c1.86.14,1.46-1.18,1.44-2.23.97-2.11,2.26-4.05,3.81-5.79,2.85-1.04,3.9-3.34,4.3-6.1l-.03.03c1.68-.64,2.78-2.26,2.76-4.06l.02.06c.23-.34.45-.69.69-1.03l-.06-.22c.23-.29.47-.57.71-.85l-.08-.06c2.6.11,2.16-1.73,2.12-3.3h-.03c2.71-.11,2.79-2.3,3.28-4.17h-.06c3.49-1.23,4.32-4.19,4.82-7.37v.04c.37,0,.66-.32.64-.68,0-.03,0-.06,0-.09l-.05.02c1.91-1.67,3.81-3.35,4.02-6.13l.02.03c3.52-2.68,6-6.49,7.03-10.8.02-.23.14-.32.36-.29,4.87,6,9.27,12.38,13.16,19.07-1.83,3.51-4.02,6.81-6.54,9.86-3.04-.79-2.91,2.24-4.09,3.56-1.81,2.04-3.87,4.14-3.46,7.3l.02-.06c-2.23.77-4.06,1.77-2.85,4.65h0c-1.28.05-1.95.93-2.6,1.86-2.9,4.17-5.92,8.26-8.68,12.51-1.36,2.1-3.23,4-3.47,6.7l.03-.02c-2.7,1.09-4.38,3.8-4.15,6.71l.03-.04-.68.76.07-.04c-.91.11-1.56.95-1.45,1.86,0,.06.02.11.03.18v-.03c-3.22,3.12-6.19,6.41-7.34,10.93v-.06c-.69.06-1.29.45-1.63,1.05-2.74,3.98-5.53,7.92-8.12,12.01-1.01,1.6-3.09,2.76-2.51,5.16l.02-.06c-1.9,1.68-4.28,3.02-4.09,6.1v-.04c-.21.32-.42.65-.63.97v-.02h0Z"/>
    <path class="cls-1" d="M333.87,208.68c-5.84,1.32-11.81.02-17.64.75-5.55.7-8.55-1.54-11.63-6.04l-55.6-79.87-16.65-23.61c.06-.19.05-.39,0-.58,1.94-1.48,2.72-3.78,3.92-5.74,2.85-4.67,6.54-8.81,8.61-13.95,6.74,8.69,12.79,17.88,18.93,27,3.16,4.7,5.89,9.97,9.27,14.23,5.72,7.2,10.68,14.86,15.97,22.3,10.45,14.72,20.46,29.75,30.68,44.63l12.91,18.47c.45.76.86,1.56,1.22,2.38l.04.03h0Z"/>
    <path class="cls-5" d="M53.27,195.71c.19-.28.38-.56.58-.84l.73.42c2.28-3.67,5.38-6.86,6.71-11.11l-.02.06c2.84-1.87,4.8-4.82,5.42-8.17v.06c.54-.37,1.25-.59,1.61-1.09,3.06-4.37,6.3-8.64,8.98-13.22,1.93-3.31,4.94-6.05,5.66-10.04l-.03.06c3.56-2.16,4.96-5.74,6.2-9.43h-.04c2.63-1.51,3.64-4.17,4.73-6.77l-.02.05c.69-.22.75-.77.72-1.36l-.02.03c1.88-1.09,3.78-2.16,3.32-4.84l-.03.08c.75-.21.81-.8.78-1.43l14.59-22.08c5.31-7.97,10.64-15.93,16-23.87.56-.83,1.01-1.76,2.01-2.16,4.12,5.41,7.95,11.03,11.47,16.84l.14.17.47,1.04c-3.35,5.2-6.71,10.4-10.06,15.61-.94,1.46-2.48,2.66-2.08,4.7.04.16-.03.32-.17.42-3,1.01-4.05,3.41-4.51,6.24l.02-.06c-1.93.61-3.15,2.52-2.89,4.53l-.07.08c-2.44.69-3.18,2.5-3.23,4.8v-.02c-.2.31-.41.6-.61.91.06.18,0,.36-.16.46l-.57.68h0c-4.78,3.22-6.19,9-9.9,13.04-.88.96-1.99,2.18-1.61,3.84v-.03c-1.13.6-2.12,1.31-1.97,2.81l.03-.08c-.7.2-.78.74-.76,1.35h0c-2.07.59-2.76,2.11-2.73,4.09-.12.19-.23.38-.35.57-2.53.86-5.01,4.48-5.08,7.45h0c-2.51,1.44-4.24,3.94-4.69,6.8h0c-1.99.3-1.57,2.1-2.08,3.32h0l-.63.76.05-.05c-.23.26-.45.51-.69.76l.07-.05c-.9.1-1.54.92-1.43,1.82,0,.09.03.19.06.28l.02-.06c-2.89.33-3.44,3.08-4.7,4.9-3.24,4.72-7.02,9.16-8.9,14.71l.03-.03c-1.28-.19-1.22.96-1.73,1.61-1.28,1.61-2.25,3.41-4.8,3.77-4.67.49-9.35.71-14.05.64-1.29.02-2.71-.48-3.86.59-.46-.02-.94-.04-1.4-.06-.85-1.1-.15-2.04.24-3.08.96-2.55,3.12-4.6,3.2-7.51l.06-.08c1.76-.18,2.05-1.35,1.9-2.81h.05Z"/>
    <path class="cls-2" d="M375.53,9.94v6.21c.08,9.78-.36,19.57.24,29.35.3,4.94,1.67,6.32,6.56,7.22.7.13,1.81-.28,2.08.59.36,1.17.66,2.69-1.47,2.51-5.9-.45-11.84-.44-17.74,0-1.09.07-1.56-.34-1.58-1.5-.02-1.16.48-1.34,1.5-1.57,5.25-1.14,6.65-2.68,6.7-8.09l.15-38.39c0-1.62-.45-2.33-2.14-2.2-1.16.09-2.33-.05-3.49-.06-1.18-.02-1.05-.86-1.11-1.63-.07-.92.14-1.46,1.24-1.43l18.63.22c1.68.02,1.54,1.52,1.9,2.49l11.71,32.05c.19.53.49,1.02.96,2l5.33-14.36,7.41-20.08c.31-1.43,1.68-2.38,3.13-2.16,5.44.06,10.87-.07,16.31-.1,1.01,0,2.18-.39,2.15,1.42-.02,1.63-.98,1.56-2.1,1.62-4.91.26-4.92.28-4.92,5.21l-.06,40.43c-.02,2.12.41,3.02,2.66,2.79,1.17,0,2.33.1,3.47.31,1.21.12.89,1.06.93,1.77.05.79-.27,1.3-1.18,1.26-.58-.03-1.17.02-1.74-.02-7.07-.42-14.16-.43-21.24-.02-.96.06-2.39.74-2.52-1.33-.1-1.89,1.18-1.67,2.23-1.84,1.5-.23,3.88.18,4.36-.62.78-1.29.41-3.33.41-5.05.02-11.44.02-22.88.02-34.32v-3.03l-.54-.12-2.91,7.96c-4.29,11.98-8.57,23.97-12.83,35.96-.53,1.5-1.12,2.38-3.01,2.33-1.8-.06-2.42-.75-2.98-2.34l-15.03-41.56c-.25-.68-.58-1.32-.87-1.98l-.6.12-.02-.02Z"/>
    <path class="cls-1" d="M223.8,112.89c6.59,8.4,12.21,17.47,18.25,26.25l33.21,48.72,11.45,16.92c.93,1.08,1.61,2.35,1.99,3.72-1.75-1.09-2.74,1.12-4.46.96-3.46-.32-6.97-.11-10.47-.12-1.01-.06-2.02-.06-3.03.02-4.61.58-7.36-.84-10.25-5.15l-15.97-23.14-33.18-48.22c-.11-.17-.35-.25-.53-.37.03-.19.03-.39-.02-.58.77-.2.88-.96,1.23-1.5,3.83-5.91,7.38-12,11.78-17.51h0Z"/>
    <path class="cls-5" d="M118.26,203.93c-1.58,4.09-4.26,5.97-8.93,5.58-5.33-.44-10.73-.08-16.11-.13-1.07,0-2.53.45-3.1-.59-.68-1.25.7-2.19,1.34-3.17.37-.42.81-.77,1.29-1.05,2.59.34,1.96-2.31,2.87-3.42,1.58-1.92,3.92-3.76,3.6-6.79l-.03.06c2.29-1.44,4.01-3.26,4.05-6.16l-.03.06c1.68-.65,2.78-2.28,2.76-4.08l-.02.05c.23-.25.47-.49.71-.74l-.08.03c1.3-.38,2.28-1.46,2.53-2.79.76-2.71,4.53-3.81,3.72-7.22l.57-.74c.98.03,1.9-.47,2.41-1.31,2.14-3.12,3.38-6.78,5.97-9.65,2.72-2.85,4.69-6.33,5.75-10.11v.06c2.12-.95,3.48-3.06,3.47-5.38l-.04.05c2.03-1.23,3.87-2.6,3.46-5.39v.02l.66-.73h-.07c2.97-1.59,4.82-3.89,4.81-7.39l-.02.03c4.24-3.16,5.83-8.29,9.06-12.2.06-.06-.31-.48-.48-.73,0-.21.1-.42.27-.56,2.32-1.3,4.3-3.13,5.79-5.33,4.24,5.69,8.17,11.59,11.8,17.68-1.39,3.12-3.26,6.01-5.52,8.56-2.28.78-3.09,2.57-3.27,4.79l.02-.03c-1.7.22-1.94,1.45-1.95,2.82l.02-.06c-.51.2-.97.5-1.38.87-3.96,5.07-7.58,10.39-10.84,15.94-1.15,2.03-3.96,3.25-3.31,6.23l.03-.03-.49.18.36.37c-.11.22-.21.45-.32.67-1.23-.12-1.67.72-2.27,1.61l-8.83,12.99c-2.12,3.03-4.86,5.9-5.43,9.85l.03-.06c-2.08.83-2.74,2.54-2.87,4.58l-.04.05c-1.48.32-2.48.99-1.94,2.75h.03Z"/>
    <path class="cls-2" d="M406.02,154.71h10.48c.87,0,1.78-.15,1.8,1.22.02,1.19-.3,1.88-1.62,1.77-.1,0-.19,0-.29,0-3.82.3-5.73,2.35-5.73,6.16l-.05,39.28c-.02,2.13.3,3.29,2.74,3.04,1.16,0,2.33.09,3.48.25,1.08.04,1.5.47,1.52,1.6.02,1.17-.44,1.55-1.54,1.5-7.08-.3-14.16-.3-21.24,0-1.01.05-1.68-.13-1.63-1.38.03-.98.15-1.72,1.38-1.67.38-.02.78-.07,1.15-.14,3.45-.35,5.17-2.22,5.17-5.62l.03-16c.02-1.46-.3-2.02-1.9-2.01h-20.39c-1.37,0-1.82.35-1.82,1.78v19.79c0,1.3.24,1.92,1.71,1.88,1.54-.04,3.1.31,4.64.34,1.38.02,1.18.92,1.24,1.78.08,1.09-.53,1.31-1.43,1.27-7.08-.34-14.16-.3-21.24.02-1.02.05-1.38-.35-1.39-1.31-.02-.92-.12-1.81,1.23-1.74.29,0,.58-.03.87-.08,3.65-.38,5.48-2.36,5.48-5.95l.05-39.56c.02-2.33-.54-3.45-3.02-3.15-.95.11-1.94-.07-2.91,0-1.24.07-1.7-.4-1.73-1.66-.02-1.31.66-1.34,1.64-1.34,6.89.02,13.79.02,20.69,0,1.06,0,1.86,0,1.81,1.49-.05,1.42-.81,1.46-1.87,1.54-5.73.43-5.73.45-5.73,6.15l-.02,13.68c-.02,1.38.36,1.81,1.77,1.79,6.8-.07,13.6-.07,20.39,0,1.58.02,1.95-.54,1.92-2.01l.02-17.16c.04-1.99-.73-2.54-2.53-2.42-1.26.08-2.53-.08-3.78-.04-1.21.03-1.4-.62-1.46-1.64-.07-1.3.62-1.38,1.62-1.37h10.51v-.03ZM367.7,122.79l.02-8.43c.02-.78-.64-2.06,1.14-2.05,1.28,0,2.02.12,2.47,1.66,1.68,5.67,4.46,10.72,9.33,14.35,3.19,2.46,7.35,3.29,11.24,2.25,3.46-.83,5.72-2.85,6.34-6.36.77-3.41-.58-6.94-3.41-8.98-3.69-2.82-8.23-3.71-12.48-5.25-5.55-2.02-11.05-4.27-12.89-10.58-2.94-10.12,1.03-20.43,13.76-22.59,4.52-.67,9.13-.26,13.46,1.19,1.61.49,3.29,1.52,4.55-.74.41-.72,1.47-.47,2.18-.31,1.04.23.79,1.22.74,1.94-.26,4.36-.26,8.73-.02,13.08.04.84.31,1.86-1.1,1.85-.98,0-1.78.07-2.18-1.28-1.06-3.73-3.18-7.09-6.09-9.67-2.9-2.83-7.05-3.99-11-3.07-3.07.5-5.46,2.92-5.92,6-.65,3.03.62,6.15,3.19,7.86,3.41,2.5,7.53,3.41,11.44,4.73,3.68,1.25,7.36,2.56,10.33,5.13,5.82,5.03,6.69,11.55,4.85,18.55-1.82,6.96-6.99,10.36-13.71,11.78-6.45,1.36-12.7.34-18.82-1.82-1.71-.6-3.29-1.32-4.52.81-.55.96-1.6.53-2.38.38-.9-.17-.54-1.09-.54-1.7l-.02-8.73h.02ZM547.22,21.7c3.93-4.41,8.36-7,14.11-7.13,7.17-.16,11.84,3.94,12.69,11.16.9,7.64.36,15.31.38,22.95,0,2.62.27,4.29,3.46,3.86.77-.1,2.02-.19,2.33.71.37,1.07.85,2.71-1.36,2.56-6.69-.46-13.39-.46-20.07,0-1.03.06-1.64-.21-1.64-1.42,0-1.06.3-1.61,1.41-1.72,1.42-.14,3.75-.02,4.03-.69.66-1.58.42-3.57.37-5.4-.22-7.25.62-14.54-.54-21.77-.78-4.8-4.2-6.48-8.42-4-4.25,2.5-5.85,6.7-6.06,11.27-.3,6.19-.06,12.41-.11,18.62,0,1.24.36,1.74,1.64,1.73,1.06.06,2.12.18,3.17.34,1.15.1.98.94,1.02,1.7.06.99-.35,1.42-1.35,1.35-6.78-.46-13.59-.46-20.37,0-.97.07-1.43-.34-1.42-1.35,0-.95.17-1.56,1.28-1.9,1.48-.44,3.65.83,4.37-1.08.54-1.45.14-3.25.14-4.9v-22.98c-.02-3.79-.28-4.07-4.1-4.37-1.18-.1-1.76-.29-1.74-1.64.03-1.42.81-1.5,1.88-1.54l13.36-.86c1.48-.13,1.59.53,1.57,1.64-.04,1.62,0,3.24,0,4.85l.02-.02h-.02ZM453.36,98.3c1.47-.02,1.73-1.02,2.26-1.61,2.76-3.06,6.59-4.93,10.69-5.24,7.94-.74,13.47,3.88,13.81,12.08.33,7.74.21,15.51.17,23.26,0,1.82.38,2.73,2.38,2.48.78.02,1.54.11,2.3.26,1.32.05,1.56.82,1.52,1.94-.04,1.36-.98,1.24-1.84,1.19-6.59-.43-13.2-.42-19.78,0-.96.07-1.66-.02-1.67-1.32,0-1.16.27-1.66,1.5-1.92,1.39-.3,3.43.54,4.05-.72.66-1.33.3-3.2.26-4.85-.17-7.17.44-14.35-.47-21.5-.3-2.3-.75-4.49-3.15-5.44-2.52-.98-4.74-.05-6.69,1.59-2.94,2.46-4.66,6.09-4.7,9.93-.21,6.29-.04,12.6-.1,18.91,0,1.3.26,1.98,1.74,1.89.97.02,1.94.12,2.89.3,1.28.14,1.11,1.05,1.13,1.94.02,1.16-.72,1.22-1.55,1.18-6.69-.42-13.4-.42-20.08.02-1.06.07-1.59-.21-1.56-1.44.03-1.03.3-1.38,1.34-1.76,1.48-.51,3.67.78,4.37-1.1.54-1.45.14-3.25.14-4.9,0-7.66,0-15.32-.02-22.98,0-3.69-.44-4.18-4.1-4.42-1.09-.07-1.78-.08-1.78-1.53,0-1.38.64-1.56,1.74-1.62l13.36-.86c1.48-.12,1.88.42,1.82,1.75-.06,1.45-.02,2.9-.02,4.49h.02ZM511.65,49.1c-3.49,4.62-7.55,7.16-12.92,7.56-8.88.65-13.64-3.39-13.84-12.28-.16-6.69-.05-13.38-.06-20.07,0-4.29-.23-4.61-4.4-5.05-1.13-.1-1.5-.42-1.5-1.56,0-1.06.23-1.56,1.42-1.62,4.85-.23,9.68-.52,14.53-.86,2.07-.15,1.51,1.29,1.52,2.32l.1,26.47c0,.68.02,1.36.08,2.03.54,5.23,4.69,7.19,9.13,4.21,4.26-2.88,5.55-7.31,5.72-12.1.17-4.74.06-9.49,0-14.25-.05-3.6-.65-4.26-4.36-4.62-1.18-.11-1.47-.51-1.45-1.58.02-1,.18-1.61,1.41-1.66l14.24-.82c2.08-.15,1.51,1.3,1.51,2.3l.02,28.51v2.02c0,2.72,1.33,4.15,3.99,4.29.96.05,1.9-.18,1.91,1.38,0,1.42-.52,1.79-1.84,1.85-4.45.19-8.92.47-13.36.78-1.04.07-1.34-.3-1.38-1.28-.07-1.8-.26-3.59-.46-5.97h-.02Z"/>
    <path class="cls-1" d="M202.11,146.04l14.47,21.02c8.64,12.84,17.23,25.72,25.76,38.62.52.79,1.59,1.55.94,2.65-.56.94-1.61,1.03-2.68,1.03-6.63-.04-13.28-.12-19.9.02-2.07.04-2.65-1.35-3.52-2.62-9.31-13.74-18.63-27.48-27.93-41.22.03-.2.02-.4-.02-.6.32-.44.68-.85.96-1.31,3.74-6.02,7.31-12.16,11.92-17.6h0Z"/>
    <path class="cls-2" d="M508.73,207.09l-.03,17.18c-.02,1.33.48,1.61,1.69,1.6,1.84,0,3.68.22,5.52.3,1.19.04,1.6.52,1.62,1.76.04,1.54-.82,1.47-1.82,1.42-3.68-.18-7.35-.49-11.03-.5-2.8-.02-5.6.32-8.41.5-.9.06-1.73.12-1.67-1.26.05-1.09.17-1.7,1.5-1.95,1.58-.3,3.89.54,4.59-.86.74-1.47.3-3.59.3-5.43,0-13.68,0-27.34,0-41.02,0-5.09-.42-5.53-5.53-5.9-.92-.06-1.7,0-1.7-1.33-.02-1.19.26-1.73,1.58-1.8,3.77-.21,7.54-.52,11.31-.87,1.43-.14,1.6.6,1.58,1.72-.04,1.89,0,3.77,0,6.45,2.51-2.97,4.45-5.3,7.26-6.72,7.45-3.75,17.36-2.44,20.97,7.57,2.75,7.04,2.54,14.88-.58,21.76-4.55,9.92-17.37,13.6-27.09,7.38h-.04ZM508.84,192.83l-.02,8.6c-.06,1.06.38,2.1,1.21,2.78,6.14,5.61,16.23,2.86,18.42-5.13,1.75-6.37,1.75-13.09,0-19.46-1.66-6.18-7.68-8.71-12.88-5.43-3.24,2.02-5.51,5.27-6.29,9-.79,3.45-.28,6.93-.44,9.64h0ZM513.01,127.91c-3.76,5.83-9.1,6.82-15.17,6.01-5.19-.5-9.35-4.5-10.05-9.66-.7-5.61,1.7-9.81,7.06-11.91,4.93-1.76,10.17-2.53,15.41-2.27,2.09.03,2.66-.6,2.54-2.62-.21-3.08.3-6.2-.57-9.25-.55-2.14-2.42-3.67-4.62-3.8-2.44-.29-4.89.49-6.72,2.14-.76.66-.03,1.18.26,1.74,1.52,3.03,1.13,5.61-1.07,7.25-2.53,1.58-5.78,1.39-8.1-.49-1.86-1.81-1.98-5.65-.18-8.04,1.51-1.9,3.57-3.31,5.9-4.01,5.35-1.82,11.09-2.14,16.61-.92,5.81,1.22,9.47,5.75,9.57,11.87.1,6.1-.1,12.21-.18,18.31,0,.97-.17,1.94-.09,2.9.14,1.54.23,3.3,2.14,3.71,1.7.38,2.82-.85,3.27-2.26.58-1.79,1.76-1.22,2.7-.82,1.5.62.3,1.69,0,2.36-1.68,3.88-4.83,5.59-8.97,5.71-4.34.12-7.75-1.36-9.73-5.95h0ZM512.4,118.47c.2-3.68-1.41-5.38-4.84-5.09-.19.02-.38.05-.58.06-5.73.58-8.42,4.13-7.37,9.73.5,2.67,1.3,5.11,4.53,5.56,3.07.38,6.02-1.34,7.21-4.21.82-1.91,1.18-3.98,1.06-6.05h0ZM477.48,35.46c-.06,13.36-8.16,21.59-21.2,21.51-13.36-.07-21.03-7.85-20.95-21.22.07-12.8,8.64-21.25,21.42-21.13,13.05.11,20.79,7.89,20.74,20.84h0ZM448.15,35.3c-.3,4.09.1,8.2,1.18,12.15.78,2.66,1.99,5.07,4.87,6.05,4.45,1.51,8.27-1.04,9.53-6.64,1.68-7.29,1.68-14.87,0-22.16-.64-2.7-1.77-5.41-4.75-6.53-4.31-1.6-8.11.66-9.57,5.76-1.07,3.69-1.49,7.54-1.24,11.38h0Z"/>
    <path class="cls-5" d="M189.22,164.97c.04.19.05.4.02.6l-.32-.1-.32.02c-3.74.79-3.83,4.07-4.67,6.84l.03-.06c-1.33.58-2.4,1.62-3.02,2.93-3.06,4.7-6.04,9.48-9.36,14-1.2,1.27-1.86,2.96-1.86,4.7l.03-.04c-4.51,3.26-6.4,8.41-9.36,12.8-.05.06.39.45.59.68-.1.21-.21.43-.32.64-3.21-.31-6.38.47-9.6.49-3.19.03-6.71-.79-9.85.79l-1.32.02c.06-2.07-3.02-2.03-2.82-4.2l.8-1.19.57-.76-.06.03c3.11-1.6,5.16-4.7,5.39-8.19l-.03.06c2.44-1.05,3.06-3.23,3.49-5.54,3.42-5.68,6.94-11.31,10.87-16.65,2.63-.57,2.74-2.84,3.3-4.82l-.04.05c.75-.46,1.46-1.01,2.1-1.61,3.52-4.03,5.94-8.79,8.67-13.32.83-1.38,2.8-2.53,2.09-4.69l-.03.04c.8-.12,1.41-.78,1.48-1.59.02-.15.15-.25.3-.23,1.09.78,1.99,1.81,2.59,3.01l10.64,15.3h0,0Z"/>
    <path class="cls-2" d="M618,204.73c-5.29,7.41-13.09,7.29-18.76,4.87-4.35-1.86-6.07-5.46-6.29-9.92-.41-4.19,1.91-8.17,5.76-9.88,5.17-2.58,10.81-2.88,16.43-2.87,2.34,0,2.99-.69,2.77-2.9-.22-2.11-.02-4.27-.22-6.38-.3-2.98-1.58-5.31-4.81-6.14-2.78-.72-7.72.45-9.25,2.16-.75.86-.27,1.29.1,1.98.99,1.86,1.09,3.77-.54,5.3-1.33,1.39-3.46,1.63-5.07.58-1.87-.98-2.82-3.12-2.3-5.17.57-3.22,2.91-4.97,5.65-6.12,4.37-1.9,9.21-2.5,13.92-1.7,7.36,1.25,10.39,4.69,10.42,12.2.02,6.49-.27,12.97-.41,19.46-.08,1.06-.02,2.13.17,3.18.29,1.18.62,2.51,2.24,2.67,1.5.34,2.99-.59,3.33-2.09v-.02c.45-1.86,1.58-2.06,2.91-1.34,1.46.8.24,1.9-.14,2.7-1.34,3.21-4.49,5.3-7.97,5.29-3.52.14-5.8-1.57-7.96-5.86h0ZM617.71,194.18c0-.96-.04-1.94,0-2.91.06-1.02-.38-1.38-1.38-1.31-3.55.3-7.16.04-10.59,1.42-4.04,1.62-5.53,5.74-3.76,10.72,1.3,3.65,4.81,5.29,8.69,4.08,4.77-1.5,6.92-5.16,7.03-11.99h0ZM596.15,35.08v12.5c0,1.86,0,3.9,2.12,4.66,2.41.86,4-.61,5.4-2.38.42-.55.33-1.7,1.36-1.6.76.08,1.48.38,2.09.84.5.41,0,1.06-.22,1.58-2.14,4.88-7.28,7.18-13.72,6.13-5.5-.9-8.02-3.54-8.21-9.45-.26-8.23-.33-16.46-.18-24.7.05-2.66-.75-3.33-3.24-3.12-1.1.09-2.89,1-3.37-1.05-.37-1.57.06-2.42,2.06-2.4,4.46.05,4.46-.08,4.47-4.64,0-3-.95-6.53.3-8.85,1.28-2.39,5.33-.77,7.98-1.81,2.45-.96,3.45-.36,3.25,2.5-.26,3.57,0,7.17-.1,10.75-.05,1.6.35,2.26,2.06,2.15,2.03-.14,4.07.05,6.11-.04,1.31-.06,1.67.5,1.66,1.7,0,1.16-.27,1.85-1.6,1.82-2.02-.06-4.08.08-6.11-.07-1.7-.13-2.14.51-2.11,2.14.09,4.45.03,8.91.03,13.37l-.02-.03h0ZM458.12,189.2c-.02,12.57-7.57,21.19-18.81,21.46-12.73.31-20.66-7.46-20.79-20.39-.1-9.84,4.39-17.41,11.97-20.37,11.92-4.65,28.06.98,27.63,19.31h0ZM448.82,189.62c.02-4.57-.24-9.07-2.33-13.28-1.47-3.17-4.7-5.13-8.19-5.01-3.53-.2-6.78,1.88-8.09,5.16-3.4,8.12-3.49,17.25-.26,25.43,1.2,3.53,4.59,5.84,8.32,5.66,4.2.02,7.09-2.14,8.71-6.02,1.42-3.81,2.05-7.88,1.83-11.94h0ZM462.59,202.67v-4.65c.02-.84-.77-2.06.93-2.2,1.33-.11,2.4-.09,2.76,1.7.54,2.17,1.61,4.17,3.11,5.82,3.15,3.8,7.33,4.59,11.84,3.66,2.49-.45,4.39-2.46,4.7-4.97.46-2.78-.85-5.53-3.28-6.94-2.52-1.66-5.43-2.5-8.24-3.55-1.44-.54-2.93-.99-4.32-1.64-5.6-2.58-7.64-6.05-6.8-11.39.89-5.12,5-9.07,10.14-9.76,3.15-.62,6.41-.34,9.41.83,1.02.57,2.29.45,3.19-.3,1.83-1.31,2.9-.61,2.92,1.64.02,2.24.1,4.46-.04,6.69-.05.82.89,2.2-1.06,2.42-1.54.18-1.96-.66-2.38-1.82-1.82-5.08-5.27-7.21-10.48-6.6-2.69.31-4.58,1.68-5.24,4.27-.66,2.65.45,4.73,2.81,6.1,3.02,1.78,6.42,2.57,9.68,3.76,8.61,3.17,11.92,9.43,9,17.1-1.91,5.01-6.04,7.12-10.99,7.76-3.85.61-7.81.03-11.32-1.66-1.15-.58-2.21-1.12-3.33.26-.76.66-1.86.74-2.71.22-.9-.41-.32-1.38-.34-2.1-.04-1.55-.02-3.1-.02-4.65h.07v.02ZM569.87,188.38c0-4.26-.1-8.53.04-12.78.06-1.82-.48-2.46-2.27-2.26-1.15.13-2.33-.05-3.49.04-1.34.1-1.89-.34-1.92-1.77s.5-1.72,1.85-1.78c5.78-.24,5.78-.29,5.78-6.25v-1.18c.04-2.22-.67-4.95.38-6.5.86-1.27,3.82-1.06,5.82-1.65,1.34-.38,1.66-.04,1.63,1.31-.07,3.87.18,7.76-.04,11.62-.13,2.31.69,2.85,2.78,2.7,2.22-.16,4.46,0,6.69-.06,1.13-.02,1.85.14,1.79,1.54-.05,1.2-.14,2.06-1.71,2.01-2.52-.09-5.05.02-7.57-.04-1.26-.03-1.96.18-1.94,1.7.18,9.19-.38,18.39.32,27.58.15,1.98.68,3.64,2.88,4.13,1.94.45,3.94-.39,4.98-2.09.05-.08.11-.16.18-.22,1.11-.89,1.23-4.03,3.61-2.06,1.84,1.54-.3,2.92-1.08,4.05-2.66,3.89-7.78,5.18-13.06,3.52-3.84-1.21-5.49-3.85-5.61-9.09-.05-2.13-.04-4.26-.05-6.39v-6.1.02h0ZM650.56,177.08l-.04,26.46c-.02,1.78.23,2.74,2.31,2.58,1.23-.1,2.5.3,3.76.31,1.24,0,1.34.64,1.37,1.65.04,1.18-.41,1.54-1.52,1.46-6.39-.42-12.8-.42-19.19-.02-1.08.07-1.58-.23-1.57-1.42.02-1.01.11-1.7,1.35-1.67.48-.06.96-.14,1.42-.26,2.83-.35,4.25-1.91,4.25-4.69v-43.9c0-4.58-.63-5.3-5.27-5.66-1.11-.09-1.75-.22-1.77-1.61-.02-1.5.66-1.78,1.91-1.83,3.58-.14,7.17-.22,10.74-.58,1.86-.18,2.3.34,2.28,2.14l-.04,27.04h0v.02ZM549.9,110.77l-.04,16c-.04,1.82.38,2.74,2.37,2.5.68.03,1.35.11,2.02.25,1.26.05,1.62.67,1.58,1.87-.04,1.33-.87,1.32-1.78,1.28l-9.01-.34c-3.59,0-7.17.19-10.76.33-.94.04-1.71.07-1.73-1.25-.02-1.12.19-1.73,1.46-1.98,1.41-.26,3.51.46,4.08-.66.7-1.41.34-3.38.34-5.11.02-7.57.02-15.13,0-22.69,0-3.99-.47-4.55-4.38-4.89-1.11-.1-1.53-.36-1.5-1.5.02-1.02.16-1.57,1.38-1.62l14.52-.9c1.86-.14,1.42,1.19,1.42,2.14l.02,16.58h0l.02-.02ZM428.92,110.64l-.05,16c-.06,1.98.41,2.74,2.5,2.7,1.12-.02,2.9-.54,3.33,1.3.24,1.01.3,2.18-1.46,2.05-6.69-.46-13.39-.47-20.07-.02-.94.06-1.69-.02-1.74-1.32-.05-1.24.45-1.6,1.58-1.88,1.38-.34,3.45.46,4.06-.74.67-1.32.26-3.21.27-4.85,0-7.66,0-15.32,0-22.98,0-4.05-.3-4.43-4.32-4.83-1.02-.1-1.58-.26-1.6-1.47-.03-1.35.58-1.59,1.74-1.66l14.24-.9c1.82-.15,1.5.99,1.5,2.02,0,5.53,0,11.05,0,16.59h0ZM555.8,187.71l-.04,15.72c-.04,1.87.29,2.9,2.47,2.68,1.16.02,2.32.14,3.46.35,1.12.09,1.12.83,1.1,1.65-.03.91-.38,1.46-1.41,1.39-6.49-.38-13-.38-19.49,0-.9.05-1.24-.38-1.15-1.22.07-.7-.38-1.65.82-1.84.29-.02.58-.05.86-.1,1.67-.47,4.17.49,4.9-.81.86-1.46.36-3.73.36-5.67.02-7.37.02-14.75,0-22.11-.02-3.89-.88-4.72-4.77-4.93-.84-.05-2.17.78-2.26-1.22-.08-1.81.86-1.76,2.11-1.83,3.68-.23,7.37-.45,11.02-.86,1.94-.22,2.01.76,2,2.21l-.02,16.59h0l.02.02Z"/>
    <path class="cls-3" d="M152.68,47.36c4.43-6.55,8.88-13.1,13.31-19.64,4.54,6.55,9.39,12.9,13.22,19.92-1.35,1.89-2.76,3.75-4.02,5.7-2.97,4.65-6.69,8.84-8.81,14.02l-.82-.19c-3.52-6.33-7.61-12.33-12.2-17.92l-.68-1.88h0ZM209.32,27.93l13.66,19.97c-4.82,6.06-8.62,12.8-13.02,19.15-1.34-.74-1.83-2.18-2.68-3.32-3.78-5.04-6.8-10.63-11.2-15.22l-.13-1.37c.92-.63,1.69-1.47,2.24-2.44l11.13-16.76h0ZM121.61,65.84c-3.89-6.69-8.28-13.05-13.16-19.07,2.74-5.28,6-10.26,9.76-14.88,2.32-2.89,6.21-2.34,8.53,1.05,2.97,4.32,5.75,8.78,8.61,13.16-.64.92-1.32,1.81-1.92,2.76-3.69,5.74-8.38,10.85-11.1,17.23l-.72-.26h0ZM244.86,79.65c-2.07,5.14-5.76,9.28-8.61,13.95-1.2,1.96-1.98,4.26-3.92,5.74-.31-.3-.6-.62-.87-.95-4.33-5.88-8.02-12.24-12.75-17.85l-.12-.88,8.99-13.24c1.36-1.93,2.18-4.35,4.47-5.56,3.92,6.5,9.05,12.18,12.8,18.8h0v-.02ZM142.66,96.87c-3.53-5.82-7.35-11.43-11.47-16.84l-.41-1.47c1.37-.78,2.5-1.94,3.2-3.35,3.5-5.19,6.98-10.38,10.46-15.59,4.37,6.55,8.73,13.11,13.08,19.67-4.3,6.53-8.45,13.16-13.26,19.35l-.99-.58-.47-1.03.05-.18h-.19,0ZM166.24,131.85c-3.63-6.1-7.56-12-11.8-17.68-.36-.47-.73-.94-1.09-1.41l-.13-1.04c4.97-6.04,9.31-12.56,12.96-19.47.25.05.5.09.75.14,3.79,6.7,8.07,13.1,12.81,19.16l.13,1.25c-4.9,6-9.21,12.46-12.9,19.28l-.72-.22h0ZM189.22,164.97l-10.64-15.3c-.6-1.2-1.49-2.24-2.59-3.01l-.27-1.61c4.91-5.97,8.56-12.78,12.88-19.16.23.1.45.2.69.3,3.66,5.79,7.26,11.61,11.45,17.03.12.8.6,1.5,1.3,1.91l.08.92c-4.61,5.44-8.18,11.58-11.92,17.6-.29.45-.64.87-.96,1.31h0ZM223.8,112.89c-4.4,5.52-7.96,11.6-11.78,17.51-.35.54-.45,1.3-1.23,1.5-.28-.33-.58-.65-.83-1.01-4.15-5.93-7.81-12.19-12.6-17.66v-1.09c4.76-6.09,8.54-12.82,12.84-19.22.74.96,1.56,1.87,2.25,2.87,3.79,5.36,7.55,10.74,11.3,16.12l.04.98h.02Z"/>
    <path class="cls-1" d="M144.44,59.63c-3.49,5.2-6.97,10.39-10.46,15.59-.71,1.41-1.83,2.58-3.2,3.35-3.24-3.85-6.07-8.03-8.43-12.47,2.72-6.37,7.4-11.48,11.1-17.22.62-.94,1.28-1.84,1.92-2.76,3.02,4.34,6.04,8.68,9.05,13.02,0,.16,0,.32.03.48h0ZM166.16,92.24c-3.65,6.91-7.99,13.44-12.96,19.47-2.99-4.2-5.97-8.41-8.95-12.62v-.47c4.81-6.19,8.95-12.83,13.26-19.35l.23.04.23-.05c2.73,4.32,5.46,8.65,8.19,12.96h0v.02ZM188.59,125.89c-4.33,6.37-7.98,13.18-12.88,19.16-3.24-4.09-6.16-8.42-8.74-12.96,3.68-6.82,8-13.28,12.9-19.28,3.46,3.8,5.54,8.58,8.75,12.55-.04.18-.05.35-.03.54h0ZM232.05,60.85c-2.28,1.21-3.1,3.63-4.47,5.56-3.09,4.35-6,8.82-8.99,13.24l-8.67-12.03c.06-.19.06-.39.02-.58,4.4-6.35,8.19-13.09,13.02-19.15,3.25,4.16,6.28,8.48,9.08,12.95h0v.02ZM209.32,27.93l-11.13,16.76c-.55.97-1.32,1.81-2.24,2.44-2.83-3.81-5.65-7.63-8.48-11.44v-.48l10.34-15.16c.81-1.47,1.89-2.76,3.2-3.83,3.07,3.68,5.85,7.6,8.31,11.71h0Z"/>
    <path class="cls-5" d="M187.48,35.21v.48c-2.63,3.93-5.87,7.48-7.75,11.9-.17.06-.34.08-.52.05-3.82-7.02-8.68-13.37-13.22-19.92,2.17-4.1,4.76-7.97,7.72-11.54,4.18,4.98,7.57,10.54,11.32,15.84.77,1.09,1.62,2.12,2.44,3.19h0ZM223.76,111.9c-3.77-5.38-7.53-10.75-11.3-16.12-.7-.99-1.5-1.91-2.25-2.87-.03-.19-.04-.39,0-.58l.83-.45c.7.82,1.15,1.5,2.23.12,1.38-1.8,1.63-3.89,2.26-5.88.67-2.07,1.76-3.97,3.22-5.58,4.72,5.61,8.41,11.97,12.75,17.85.27.33.57.65.87.95.06.19.06.39,0,.58-.21-.03-.44,0-.63.1-3.4,1.66-4.32,4.93-5.27,8.17-.49,1.49-1.43,2.79-2.69,3.73h0v-.02ZM197.36,113.22c4.78,5.47,8.45,11.74,12.6,17.66.25.35.56.68.83,1.01.05.19.05.39.02.58l-.28-.05-.28.04c-3.42,1.61-4.86,4.56-5.37,8.1l.03-.06c-1.39.9-2.79,1.81-4.18,2.72-4.18-5.44-7.79-11.25-11.45-17.03h0c4.2-3,5.83-7.55,7.38-12.15l.71-.82h0ZM157.98,79.28l-.23.05-.23-.04c-4.36-6.55-8.72-13.11-13.08-19.66-.02-.16-.03-.32-.03-.48.38-.37.76-.73,1.13-1.1,1.71-.37,2.41-1.79,3.35-3.05,1.45-1.95,2.12-4.51,4.47-5.74,4.6,5.59,8.68,11.59,12.2,17.92-1.8,4.49-5.42,7.84-7.58,12.11h0Z"/>
    <path class="cls-2" d="M430.12,78c.13,3.57-2.66,6.57-6.23,6.7h-.54c-3.75.22-6.97-2.66-7.17-6.41,0-.11,0-.23,0-.34.04-3.74,3.01-6.46,7.08-6.48,4.09-.02,6.88,2.62,6.89,6.53h0ZM544.1,71.5c4.21,0,7.19,2.78,7.1,6.68-.16,3.77-3.33,6.69-7.1,6.53h-.02c-3.65.14-6.71-2.71-6.85-6.36v-.31c0-3.86,2.8-6.53,6.85-6.54h0ZM551.9,148.44c2.86.06,5.13,2.42,5.06,5.27-.06,2.86-2.42,5.13-5.27,5.06-2.85-.08-5.1-2.43-5.06-5.28.14-2.82,2.46-5.04,5.27-5.06h0Z"/>
    <g>
      <path class="cls-4" d="M89.93,112.2c.24-2.7,2.11-4.6,3.47-6.7,2.76-4.25,5.78-8.34,8.68-12.5.65-.94,1.32-1.82,2.6-1.86-2.75,4.93-5.86,9.65-9.31,14.11-1.73,2.37-2.51,5.51-5.45,6.95,0,0,0,0,0,0ZM73.69,202.66c1.87-5.57,5.66-9.98,8.9-14.72,1.24-1.82,1.79-4.57,4.7-4.9-2.37,5.08-5.77,9.52-8.98,14.06-1.36,1.93-1.97,4.63-4.61,5.55h0v.02ZM82.91,151.76c-.72,3.99-3.73,6.73-5.66,10.04-2.68,4.57-5.92,8.86-8.98,13.24-.35.5-1.07.73-1.61,1.09,2.47-5.82,6.59-10.57,10.01-15.76,1.94-2.94,3.29-6.36,6.24-8.6h0ZM140.03,170.99c-.66-2.97,2.16-4.2,3.31-6.23,3.26-5.55,6.87-10.87,10.84-15.94.41-.37.87-.66,1.38-.87-2.93,6.01-7.13,11.2-10.77,16.76-1.43,2.18-2.26,4.88-4.76,6.28ZM169.72,193.89c0-1.74.66-3.43,1.86-4.7,3.32-4.52,6.3-9.3,9.36-14,.62-1.31,1.7-2.35,3.02-2.93-.61,3.23-3.09,5.36-4.76,7.96-2.97,4.68-5.64,9.58-9.48,13.68h0ZM123.07,196.61c.58-3.95,3.3-6.82,5.43-9.85,3.02-4.29,5.88-8.67,8.83-12.99.59-.87,1.03-1.73,2.27-1.61-5.34,8.26-10.4,16.72-16.53,24.45h0ZM127.52,151.75c-1.07,3.79-3.04,7.26-5.75,10.11-2.6,2.85-3.83,6.52-5.97,9.65-.51.83-1.43,1.34-2.41,1.31,4.33-7.26,8.64-14.57,14.14-21.06h0ZM174.23,148.43c.71,2.16-1.25,3.3-2.11,4.69-2.74,4.53-5.15,9.31-8.66,13.32-.64.6-1.35,1.15-2.1,1.61,3.69-6.91,7.99-13.49,12.86-19.63h0Z"/>
      <path class="cls-4" d="M144.27,98.64v.47c-4.01,6.67-8.39,13.11-13.13,19.28-.4-2.05,1.14-3.25,2.08-4.7,3.34-5.21,6.69-10.42,10.06-15.61.33.19.66.38.99.58h0ZM64.23,150.67c-.58-2.39,1.5-3.56,2.51-5.16,2.6-4.07,5.38-8.03,8.12-12.01.34-.58.95-.97,1.62-1.05-3.4,6.5-7.51,12.62-12.26,18.21h0ZM107.45,153.3c-.39-1.66.74-2.88,1.61-3.84,3.72-4.05,5.13-9.83,9.9-13.04-3.11,6.09-6.98,11.75-11.51,16.88h0ZM49.27,209.26c1.15-1.08,2.56-.57,3.86-.59,4.69.06,9.38-.15,14.05-.64,2.54-.35,3.52-2.15,4.8-3.77.52-.65.46-1.8,1.73-1.61-2.2,6.26-2.92,6.81-9.28,6.76l-15.14-.15h-.02ZM160.99,207.34c-.21-.25-.64-.62-.59-.68,2.97-4.39,4.85-9.55,9.36-12.8-2.3,4.87-5.24,9.41-8.77,13.48h0ZM107.51,86.55c-.4-3.16,1.65-5.25,3.46-7.3,1.17-1.33,1.05-4.34,4.09-3.56-2.23,3.82-4.17,7.83-7.55,10.85h0ZM51.32,198.6c-.09,2.91-2.25,4.94-3.22,7.51-.39,1.04-1.09,1.98-.24,3.08-1.06.06-2.48.64-3-.46-.3-.61.37-1.95.96-2.66,1.99-2.38,3.09-5.4,5.47-7.47h.02,0ZM148.39,120.05c.17.25.54.67.48.73-3.24,3.91-4.82,9.03-9.06,12.2,2.26-4.69,5.15-9.04,8.59-12.94h0Z"/>
      <path class="cls-4" d="M153.36,49.25c-2.36,1.23-3.02,3.79-4.47,5.74-.94,1.26-1.63,2.68-3.35,3.05,1.86-3.88,4.27-7.47,7.13-10.68.22.63.45,1.25.68,1.88h0ZM55.93,124.82c-1.87,4.82-3.95,9.5-8.28,12.72,1.87-4.82,5.03-8.8,8.28-12.72ZM76.49,132.51c1.15-4.52,4.12-7.81,7.35-10.93-1.73,4.08-4.22,7.79-7.35,10.93h0ZM99.21,194.35c.32,3.04-2.02,4.87-3.6,6.79-.91,1.11-.29,3.76-2.87,3.42,1.42-3.82,3.62-7.3,6.47-10.21h0ZM204.88,140.57c.51-3.54,1.94-6.49,5.37-8.1-.98,3.15-2.85,5.97-5.37,8.1h0ZM61.28,184.17c-1.32,4.25-4.43,7.42-6.71,11.11,0,0-.48-.27-.73-.42,2.25-3.73,4.16-7.69,7.44-10.7h0ZM141.21,209.26c3.15-1.59,6.66-.77,9.85-.79,3.22-.03,6.39-.8,9.6-.49-.49,1.32-1.61,1.39-2.76,1.38-5.57-.03-11.14-.06-16.71-.1h0ZM112.82,173.56c.81,3.4-2.96,4.51-3.72,7.22-.25,1.34-1.23,2.41-2.53,2.79,1.46-3.68,3.58-7.08,6.25-10.01Z"/>
      <path class="cls-4" d="M108.09,47.07c-1.03,4.3-3.52,8.12-7.03,10.8,1.65-4.01,4.04-7.67,7.03-10.8ZM89.1,142.4c-1.23,3.68-2.63,7.26-6.2,9.43,1.39-3.53,3.51-6.74,6.2-9.43ZM96.59,169.47c.07-2.96,2.54-6.59,5.08-7.45-1.52,2.6-2.48,5.59-5.08,7.45ZM66.76,108.42c.26,1.28.64,2.39-.99,3.33-1.55.9-1.8,2.96-2.69,4.47-.74,1.23-1.3,2.63-3.11,2.53,1.89-3.67,4.17-7.14,6.8-10.33h0ZM153.34,112.76c.36.47.73.94,1.09,1.41-1.49,2.2-3.47,4.03-5.79,5.33.87-2.73,2.9-4.65,4.7-6.74h0ZM226.45,108.19c.95-3.25,1.86-6.51,5.27-8.17-.81,3.33-3.23,5.62-5.27,8.17ZM66.68,176.06c-.62,3.35-2.58,6.3-5.42,8.17,1.07-3.15,2.93-5.97,5.42-8.17ZM29.76,201.52c1.24-4.2,3.04-8.03,7.03-10.39-2.02,3.66-4.38,7.14-7.03,10.39ZM137.07,205.08c-.19,2.16,2.88,2.13,2.82,4.2-.33.06-.67.1-1,.1-1.36-.15-3.38.7-3.94-.73-.5-1.28,1.06-2.54,2.12-3.55h0v-.02ZM139.82,132.96c0,3.51-1.84,5.82-4.81,7.39,1.33-2.64,2.5-5.39,4.81-7.39ZM143.78,194.97c-.23,3.49-2.27,6.6-5.39,8.19,1.3-3.02,3.13-5.8,5.39-8.19ZM183.94,172.32c.84-2.76.94-6.04,4.67-6.84-1.02,2.61-2.62,4.94-4.67,6.84ZM96.43,64.68c-.5,3.17-1.34,6.13-4.82,7.35.89-2.86,2.56-5.4,4.82-7.35h0ZM126.46,125.04c.47-2.83,1.52-5.23,4.51-6.24-.7,2.66-2.64,4.43-4.51,6.24ZM85.81,118.89c-.23-2.9,1.46-5.61,4.15-6.71-.29,2.91-2.73,4.5-4.15,6.71ZM72.77,99.78c-.56,3.42-2.63,6.42-5.64,8.15,1.61-2.91,3.09-5.89,5.64-8.15Z"/>
      <path class="cls-4" d="M91.89,176.26c.45-2.86,2.18-5.35,4.69-6.78-1.01,2.6-2.63,4.93-4.69,6.78ZM200.72,143.23c1.4-.91,2.79-1.81,4.18-2.72-.43,1.82-1.44,3.44-2.89,4.63-.7-.41-1.17-1.11-1.3-1.91h0ZM93.8,135.63c-1.09,2.6-2.1,5.26-4.73,6.78.94-2.64,2.57-4.99,4.73-6.78ZM103.23,188.24c-.05,2.91-1.76,4.72-4.05,6.16.83-2.35,2.23-4.46,4.05-6.16ZM60.14,156.71c-.19-3.07,2.2-4.43,4.08-6.1-.64,2.51-2.39,4.3-4.08,6.1ZM134.42,141.08c.41,2.8-1.43,4.16-3.46,5.39.52-2.13,1.73-4.04,3.46-5.39h0ZM120.29,134.4c.05-2.29.8-4.11,3.23-4.8-.08,2.26-1.86,3.4-3.23,4.8ZM97.81,129.49c.45,2.68-1.44,3.76-3.32,4.84.54-1.94,1.71-3.65,3.32-4.84Z"/>
      <path class="cls-4" d="M104.68,91.12c-1.22-2.88.63-3.88,2.85-4.65-.24,1.99-1.7,3.22-2.85,4.65ZM101.04,57.85c-.21,2.78-2.11,4.45-4.02,6.13.61-2.44,2.03-4.6,4.02-6.13ZM130.99,146.41c0,2.33-1.35,4.43-3.48,5.38.62-2.09,1.83-3.96,3.48-5.38ZM82.29,85.64c-.4,2.76-1.45,5.07-4.3,6.1,1.31-2.12,2.25-4.5,4.3-6.1ZM22.1,175.45c-.33,2.56-1.86,4.82-4.12,6.07.77-2.38,2.2-4.47,4.12-6.07ZM45.09,141.01c-.33,1.91.37,4.46-2.85,4.58.32-1.84,1.35-3.48,2.85-4.58ZM161.41,168.02c-.57,1.98-.68,4.25-3.3,4.82.53-1.93,1.7-3.62,3.3-4.82h0ZM60,118.74c.52,2.07-.73,4.17-2.79,4.69-.19.05-.37.08-.56.1.72-1.84,1.87-3.48,3.36-4.79h0ZM157.45,145.2c.18-2.23.98-4.01,3.27-4.79-.71,1.83-1.82,3.47-3.27,4.79h0ZM147.23,189.49c-.42,2.31-1.05,4.49-3.49,5.54.47-2.28,2.14-3.81,3.49-5.54ZM102.03,161.45c-.03-1.99.67-3.5,2.73-4.09-.21,1.83-1.52,2.92-2.73,4.09ZM91.66,72.04c-.49,1.86-.57,4.05-3.28,4.17.83-1.6,1.42-3.39,3.28-4.17ZM123.59,129.51c-.26-2.01.96-3.92,2.89-4.53-.58,1.73-1.57,3.28-2.89,4.53ZM47.62,137.51c.12,1.89-.28,3.38-2.57,3.49.27-1.49,1.22-2.78,2.57-3.49ZM39.66,149.09c.17,2.07-.49,3.59-2.73,4.05.48-1.59,1.44-3,2.73-4.05ZM120.22,201.13c.13-2.04.8-3.76,2.87-4.58-.61,1.72-1.6,3.28-2.87,4.58h0Z"/>
      <path class="cls-4" d="M105.96,184.23c.03,1.8-1.08,3.43-2.76,4.08.43-1.64,1.4-3.08,2.76-4.08ZM26.16,169.34c.08,1.82-1.03,3.48-2.76,4.08.31-1.69,1.3-3.17,2.76-4.08ZM88.4,76.21c.03,1.58.47,3.41-2.12,3.3.37-1.29,1.1-2.43,2.12-3.3ZM85,81.6c.03,1.8-1.08,3.42-2.76,4.06.36-1.66,1.35-3.12,2.76-4.06ZM118.26,203.93c-.55-1.75.45-2.42,1.94-2.75-.27,1.13-.96,2.12-1.94,2.75ZM89.84,179.59c.49-1.23.09-3.02,2.08-3.33-.43,1.27-.71,2.64-2.08,3.33ZM105.48,156.08c-.17-1.51.83-2.23,1.98-2.81-.06,1.24-.83,2.34-1.97,2.81,0,0,0,0,0,0ZM155.53,148c0-1.38.26-2.6,1.95-2.82-.37,1.14-.66,2.33-1.95,2.82Z"/>
      <path class="cls-4" d="M53.27,195.71c.15,1.47-.14,2.63-1.9,2.81.11-1.29,1.07-2,1.9-2.81ZM42.24,145.62c.37,1.59-.44,2.14-1.87,2.18.06-1.07.83-1.96,1.87-2.18h0ZM36.98,153.16c.13,1.53-.82,2.25-2.06,2.76.24-1.18,1-2.19,2.06-2.76ZM87.26,183.12c-.26-.86.22-1.77,1.09-2.04.09-.03.19-.05.28-.06.05.92-.51,1.77-1.37,2.1h0ZM27.53,167.08c.03,1.08.37,2.35-1.43,2.27-.05-1.09.69-1.68,1.43-2.27ZM74.17,97.53c.02,1.07.43,2.38-1.44,2.23.03-.96.58-1.82,1.44-2.24h0ZM23.42,173.39c.14,1.08.3,2.16-1.37,2.02.05-.88.58-1.66,1.37-2.02ZM83.81,121.61c-.21-.9.35-1.79,1.24-1.99.06,0,.11-.03.18-.03-.02.9-.58,1.71-1.42,2.03h0Z"/>
      <path class="cls-4" d="M175.68,146.88c-.07.81-.69,1.46-1.48,1.59.1-.89.46-1.55,1.48-1.59h0ZM94.51,134.3c.03.59-.05,1.14-.72,1.36-.07-.57.21-1.11.72-1.36ZM104.75,157.36c-.02-.6.07-1.14.76-1.35.03.56-.27,1.09-.76,1.35ZM40.42,147.77c.04.62-.04,1.18-.77,1.35-.07-.58.24-1.12.77-1.35ZM98.57,128.14c.03.62-.03,1.22-.78,1.43-.04-.58.27-1.14.78-1.43h0ZM56.66,123.51c.02.6-.06,1.15-.75,1.35-.06-.57.24-1.1.75-1.35ZM135.08,140.36l-.67.73c.22-.25.45-.49.67-.73ZM138.42,203.12l-.57.76.57-.76ZM85.16,119.62l.68-.76-.68.76Z"/>
    </g>
    <path class="cls-1" d="M333.83,208.65l.13.06-.09-.05-.04-.03h0Z"/>
    <g>
      <path class="cls-4" d="M139.94,171.5l-.37-.37.49-.18c.06.19,0,.4-.13.55h0ZM119.67,135.29c.2-.31.41-.6.62-.91-.2.31-.41.6-.62.91ZM89.19,180.35l.62-.75-.62.75ZM85.71,80.63c-.23.34-.45.69-.69,1.03-.03-.45.25-.88.69-1.03Z"/>
      <path class="cls-4" d="M86.38,79.56c-.23.29-.47.58-.71.86.04-.45.19-.8.71-.86ZM88.55,181.07c.23-.25.45-.5.69-.76-.23.25-.45.5-.69.76ZM97.07,63.95c.06.35-.18.7-.53.76-.03,0-.06,0-.09,0,0-.42.15-.72.62-.77h0ZM59.53,157.65c.21-.32.42-.65.63-.97l-.63.97ZM18.06,181.48l-.6.83c-.09-.36.13-.71.49-.81.04,0,.07-.02.11-.02ZM106.65,183.53c-.23.25-.47.49-.71.74.23-.25.47-.49.71-.74ZM118.94,136.43l.57-.68-.57.68ZM142.66,96.87h.19l-.05.17-.14-.17h0Z"/>
    </g>
    <path class="cls-1" d="M179.21,47.64c.18.04.35.02.52-.05,2.69,4.06,5.37,8.13,8.06,12.18-3.84,6.83-8.19,13.36-13.01,19.54-3.11-3.77-5.91-7.77-8.4-11.96,2.12-5.18,5.84-9.37,8.81-14.02,1.25-1.96,2.67-3.8,4.02-5.7h0Z"/>
    <path class="cls-5" d="M209.96,67.05c.05.19.04.39-.02.58-.19-.04-.37-.04-.56-.02-2.39.49-4.43,3.51-4.57,6.74-.71,1.82-1.86,3.43-3.33,4.71-4.77-6.06-9.1-12.44-12.96-19.12l.58-1.4c1.84-.68,3.04-1.79,2.73-3.95l-.02.04.68-.76-.08-.05c2.2.17,1.34-1.5,1.54-2.54.46-1.11.83-2.31,2.14-2.78,4.39,4.57,7.42,10.18,11.2,15.22.86,1.14,1.35,2.57,2.68,3.32h0ZM166.92,92.39c2.17-4.35,4.84-8.43,7.96-12.17,4.69,6.14,9.05,12.54,13.02,19.18-2.19,4.39-4.94,8.47-8.16,12.16-4.75-6.06-9.03-12.46-12.81-19.16h0ZM188.62,125.35c.14.1.31.14.47.11.06.24.12.48.18.72h0c-.23-.1-.45-.19-.69-.3-.02-.18,0-.36.03-.54h0Z"/>
    <path class="cls-1" d="M197.37,112.15c-3.24-3.96-6.17-8.16-8.78-12.57,1.06-2.57,2.5-4.96,4.29-7.11,2.97-4,5-8.67,8.68-12.15l8.62,12.03c-.03.19-.02.39,0,.58-4.3,6.39-8.07,13.13-12.83,19.22h0Z"/>
    <path class="cls-4" d="M211.01,91.89c1.4-1.99,1.88-4.7,4.48-5.77-.64,2-.88,4.09-2.26,5.88-1.07,1.38-1.52.71-2.23-.12h0ZM189.27,126.18c-.06-.24-.12-.48-.18-.72,2.14-4.05,4.68-7.88,7.56-11.43-1.56,4.6-3.19,9.15-7.38,12.15h0Z"/>
    <path class="cls-3" d="M201.56,80.31c-3.68,3.49-5.71,8.16-8.68,12.15-1.78,2.14-3.22,4.54-4.29,7.11-.23-.06-.46-.12-.7-.19-3.97-6.63-8.32-13.04-13.02-19.18l-.1-.89c4.82-6.18,9.18-12.71,13.01-19.54.24.06.48.11.72.17,3.86,6.67,8.18,13.06,12.96,19.12.03.42.06.83.09,1.24h0Z"/>
    <g>
      <path class="cls-4" d="M209.37,67.62c-1.01,2.56-2.57,4.86-4.57,6.74.14-3.24,2.18-6.25,4.57-6.74ZM189.1,58.55c.57-1.52,1.5-2.89,2.73-3.95.32,2.16-.89,3.28-2.73,3.95Z"/>
      <path class="cls-4" d="M192.39,53.83c.14-1.02.7-1.94,1.54-2.54-.2,1.04.66,2.71-1.54,2.54ZM191.8,54.64c.04-.42.18-.75.68-.74-.22.25-.45.5-.68.74Z"/>
    </g>
  </g>
</svg>