<svg viewBox="0 0 215 33" xmlns="http://www.w3.org/2000/svg" xmlns:xlink="http://www.w3.org/1999/xlink" stroke-linejoin="round" stroke-miterlimit="1.41421" fill-rule="evenodd" clip-rule="evenodd" xml:space="preserve" overflow="hidden"><g transform="translate(-317 -80)"><path d="M391.944 82.656 391.486 85.488 389.191 86.94 391.178 87.475 390.643 90.458 387.967 92.22 390.262 92.906 389.878 95.431 386.743 97.498 389.419 98.338 389.112 100.327 385.366 102.775 388.577 103.692 388.349 105.451 384.142 108.206 387.66 109.2 387.506 110.27 387.43 110.27 387.43 110.35 387.355 110.35 387.276 110.424 386.436 110.959 392.251 110.959 396.763 82.656 391.944 82.656Z" fill="#33B75C" fill-rule="nonzero"/><path d="M409.447 92.191C409.111 94.308 407.604 95.479 405.506 95.366L406.548 88.788 407.122 88.75C409.008 88.75 409.733 90.377 409.447 92.191ZM403.032 110.988 404.498 101.734C411.125 101.923 415.973 99.674 417.139 92.304 418.32 84.854 413.534 82.68 406.838 82.68L399.864 82.68 395.378 110.988 403.032 110.988Z" fill="#33B75C" fill-rule="nonzero"/><path d="M425.928 95.738 427.037 88.75C429.175 88.639 430.524 89.69 430.13 92.17 429.84 94.01 428.46 95.774 426.415 95.774L425.928 95.738ZM436.025 110.988 432.202 99.192C435.422 97.99 437.21 95.21 437.705 92.095 438.888 84.629 434.402 82.68 427.735 82.68L420.346 82.68 415.862 110.988 423.514 110.988 424.709 103.438C424.93 102.048 425.074 100.658 425.258 99.269L425.345 99.192 427.75 110.988 436.025 110.988Z" fill="#33B75C" fill-rule="nonzero"/><path d="M445.534 101.342 447.624 94.771C448.202 93.007 448.675 91.205 449.179 89.438L449.256 89.438C449.162 91.205 449.028 93.007 448.973 94.771L448.757 101.342 445.534 101.342ZM456.61 110.988 455.09 82.68 445.75 82.68 434.477 110.988 442.354 110.988 443.568 107.352 448.706 107.352 448.692 110.988 456.61 110.988Z" fill="#33B75C" fill-rule="nonzero"/><path d="M467.878 110.988 466.999 106.596C466.867 105.545 466.738 104.455 466.603 103.406L466.531 103.406C466.063 104.455 465.59 105.545 465.125 106.596L462.742 110.988 454.416 110.988 463.603 96.31 459.274 82.68 467.786 82.68 468.482 86.098C468.691 87.149 468.701 88.274 468.828 89.364L468.905 89.364C469.337 88.274 469.697 87.185 470.208 86.098L471.763 82.68 480.35 82.68 471.742 96.31 476.354 110.988 467.878 110.988Z" fill="#33B75C" fill-rule="nonzero"/><path d="M485.482 101.342 487.572 94.771C488.153 93.007 488.626 91.205 489.13 89.438L489.206 89.438C489.113 91.205 488.978 93.007 488.923 94.771L488.707 101.342 485.482 101.342ZM496.558 110.988 495.038 82.68 485.7 82.68 474.427 110.988 482.304 110.988 483.516 107.352 488.657 107.352 488.642 110.988 496.558 110.988Z" fill="#33B75C" fill-rule="nonzero"/><path d="M497.412 110.988 501.895 82.68 509.546 82.68 505.063 110.988 497.412 110.988Z" fill="#33B75C" fill-rule="nonzero"/><path d="M518.131 95.738 519.24 88.75C521.378 88.639 522.727 89.69 522.334 92.17 522.043 94.01 520.666 95.774 518.618 95.774L518.131 95.738ZM528.228 110.988 524.405 99.192C527.626 97.99 529.414 95.21 529.908 92.095 531.091 84.629 526.608 82.68 519.938 82.68L512.549 82.68 508.066 110.988 515.717 110.988 516.912 103.438C517.133 102.048 517.279 100.658 517.462 99.269L517.548 99.192 519.953 110.988 528.228 110.988Z" fill="#33B75C" fill-rule="nonzero"/><path d="M331.358 107.748C331.358 107.748 329.806 108.905 329.138 109.049 328.366 109.214 326.844 108.588 326.844 108.588 326.844 108.588 328.44 107.362 328.987 107.29 329.782 107.182 331.358 107.748 331.358 107.748Z" fill="#33B75C" fill-rule="nonzero"/><path d="M332.506 102.394C332.506 102.394 330.953 103.55 330.288 103.692 329.513 103.86 327.991 103.234 327.991 103.234 327.991 103.234 329.585 102.007 330.134 101.933 330.929 101.827 332.506 102.394 332.506 102.394Z" fill="#33B75C" fill-rule="nonzero"/><path d="M333.662 97.015C333.662 97.015 332.11 98.172 331.442 98.314 330.67 98.482 329.148 97.855 329.148 97.855 329.148 97.855 330.742 96.629 331.291 96.557 332.086 96.449 333.662 97.015 333.662 97.015Z" fill="#33B75C" fill-rule="nonzero"/><path d="M334.877 91.608C334.877 91.608 333.326 92.765 332.659 92.906 331.886 93.072 330.365 92.448 330.365 92.448 330.365 92.448 331.956 91.222 332.506 91.147 333.3 91.042 334.877 91.608 334.877 91.608Z" fill="#33B75C" fill-rule="nonzero"/><path d="M336.024 86.251C336.024 86.251 334.474 87.408 333.806 87.552 333.034 87.72 331.512 87.094 331.512 87.094 331.512 87.094 333.103 85.867 333.653 85.793 334.447 85.687 336.024 86.251 336.024 86.251Z" fill="#33B75C" fill-rule="nonzero"/><path d="M328.834 83.498C328.834 83.498 327.67 84.365 327.17 84.473 326.59 84.6 325.45 84.13 325.45 84.13 325.45 84.13 326.645 83.21 327.055 83.153 327.65 83.074 328.834 83.498 328.834 83.498Z" fill="#33B75C" fill-rule="nonzero"/><path d="M327.617 88.831C327.617 88.831 326.453 89.698 325.954 89.806 325.373 89.93 324.233 89.462 324.233 89.462 324.233 89.462 325.428 88.543 325.838 88.488 326.434 88.406 327.617 88.831 327.617 88.831Z" fill="#33B75C" fill-rule="nonzero"/><path d="M326.462 94.207C326.462 94.207 325.298 95.076 324.799 95.184 324.218 95.306 323.078 94.838 323.078 94.838 323.078 94.838 324.271 93.917 324.684 93.864 325.279 93.785 326.462 94.207 326.462 94.207Z" fill="#33B75C" fill-rule="nonzero"/><path d="M325.238 99.485C325.238 99.485 324.074 100.354 323.575 100.462 322.994 100.586 321.852 100.116 321.852 100.116 321.852 100.116 323.05 99.197 323.46 99.142 324.055 99.062 325.238 99.485 325.238 99.485Z" fill="#33B75C" fill-rule="nonzero"/><path d="M324.091 104.842C324.091 104.842 322.927 105.71 322.428 105.816 321.847 105.941 320.705 105.47 320.705 105.47 320.705 105.47 321.902 104.551 322.313 104.496 322.908 104.417 324.091 104.842 324.091 104.842Z" fill="#33B75C" fill-rule="nonzero"/><path d="M322.867 110.196C322.867 110.196 321.703 111.065 321.204 111.17 320.623 111.295 319.483 110.827 319.483 110.827 319.483 110.827 320.678 109.906 321.089 109.85 321.684 109.771 322.867 110.196 322.867 110.196Z" fill="#33B75C" fill-rule="nonzero"/><path d="M339.542 109.43C339.542 109.43 337.526 110.935 336.66 111.12 335.652 111.338 333.677 110.525 333.677 110.525 333.677 110.525 335.748 108.929 336.461 108.833 337.493 108.696 339.542 109.43 339.542 109.43Z" fill="#33B75C" fill-rule="nonzero"/><path d="M340.69 104.153C340.69 104.153 338.674 105.655 337.807 105.842 336.802 106.061 334.824 105.247 334.824 105.247 334.824 105.247 336.895 103.651 337.608 103.555 338.64 103.416 340.69 104.153 340.69 104.153Z" fill="#33B75C" fill-rule="nonzero"/><path d="M341.837 98.95C341.837 98.95 339.821 100.454 338.954 100.642 337.949 100.858 335.971 100.044 335.971 100.044 335.971 100.044 338.042 98.45 338.755 98.354 339.787 98.215 341.837 98.95 341.837 98.95Z" fill="#33B75C" fill-rule="nonzero"/><path d="M342.986 93.749C342.986 93.749 340.968 95.251 340.102 95.438 339.096 95.654 337.118 94.843 337.118 94.843 337.118 94.843 339.19 93.25 339.902 93.151 340.934 93.012 342.986 93.749 342.986 93.749Z" fill="#33B75C" fill-rule="nonzero"/><path d="M344.057 88.548C344.057 88.548 342.038 90.05 341.172 90.238 340.166 90.454 338.189 89.64 338.189 89.64 338.189 89.64 340.26 88.046 340.973 87.95 342.007 87.811 344.057 88.548 344.057 88.548Z" fill="#33B75C" fill-rule="nonzero"/><path d="M345.204 83.268C345.204 83.268 343.188 84.77 342.319 84.96 341.314 85.176 339.336 84.362 339.336 84.362 339.336 84.362 341.41 82.766 342.12 82.67 343.152 82.531 345.204 83.268 345.204 83.268Z" fill="#33B75C" fill-rule="nonzero"/><path d="M352.548 85.946C352.548 85.946 350.126 87.749 349.087 87.974 347.88 88.234 345.506 87.259 345.506 87.259 345.506 87.259 347.993 85.346 348.85 85.229 350.088 85.063 352.548 85.946 352.548 85.946Z" fill="#33B75C" fill-rule="nonzero"/><path d="M351.247 91.224C351.247 91.224 348.828 93.029 347.786 93.252 346.582 93.514 344.208 92.537 344.208 92.537 344.208 92.537 346.692 90.624 347.549 90.509 348.787 90.343 351.247 91.224 351.247 91.224Z" fill="#33B75C" fill-rule="nonzero"/><path d="M350.023 96.578C350.023 96.578 347.602 98.383 346.562 98.609 345.355 98.868 342.984 97.891 342.984 97.891 342.984 97.891 345.468 95.978 346.325 95.863 347.563 95.698 350.023 96.578 350.023 96.578Z" fill="#33B75C" fill-rule="nonzero"/><path d="M348.646 101.858C348.646 101.858 346.226 103.663 345.185 103.886 343.98 104.146 341.606 103.169 341.606 103.169 341.606 103.169 344.09 101.256 344.947 101.141 346.186 100.975 348.646 101.858 348.646 101.858Z" fill="#33B75C" fill-rule="nonzero"/><path d="M347.422 107.213C347.422 107.213 345.002 109.018 343.961 109.241 342.754 109.5 340.382 108.526 340.382 108.526 340.382 108.526 342.866 106.61 343.723 106.495 344.962 106.33 347.422 107.213 347.422 107.213Z" fill="#33B75C" fill-rule="nonzero"/><path d="M356.448 104.383C356.448 104.383 353.616 106.493 352.399 106.754 350.988 107.059 348.211 105.917 348.211 105.917 348.211 105.917 351.12 103.678 352.121 103.543 353.57 103.349 356.448 104.383 356.448 104.383Z" fill="#33B75C" fill-rule="nonzero"/><path d="M357.749 99.103C357.749 99.103 354.917 101.215 353.7 101.477 352.289 101.782 349.512 100.639 349.512 100.639 349.512 100.639 352.421 98.4 353.422 98.266 354.871 98.071 357.749 99.103 357.749 99.103Z" fill="#33B75C" fill-rule="nonzero"/><path d="M355.15 109.738C355.15 109.738 354.324 110.352 353.371 110.959L347.345 110.947C348.194 110.321 350.059 109.001 350.82 108.9 352.27 108.703 355.15 109.738 355.15 109.738Z" fill="#33B75C" fill-rule="nonzero"/><path d="M359.126 93.826C359.126 93.823 356.294 95.935 355.078 96.199 353.666 96.502 350.89 95.362 350.89 95.362 350.89 95.362 353.798 93.122 354.797 92.988 356.249 92.794 359.126 93.826 359.126 93.826Z" fill="#33B75C" fill-rule="nonzero"/><path d="M360.427 88.471C360.427 88.471 357.595 90.583 356.378 90.845 354.965 91.147 352.19 90.005 352.19 90.005 352.19 90.005 355.097 87.768 356.1 87.634 357.547 87.437 360.427 88.471 360.427 88.471Z" fill="#33B75C" fill-rule="nonzero"/><path d="M361.728 83.114C361.728 83.114 358.896 85.226 357.679 85.488 356.266 85.793 353.491 84.65 353.491 84.65 353.491 84.65 355.145 83.304 356.398 82.637L360.223 82.654C361.07 82.879 361.728 83.114 361.728 83.114Z" fill="#33B75C" fill-rule="nonzero"/><path d="M363.946 106.915C363.946 106.915 360.718 109.322 359.33 109.62 357.72 109.966 354.554 108.665 354.554 108.665 354.554 108.665 357.871 106.114 359.011 105.96 360.665 105.737 363.946 106.915 363.946 106.915Z" fill="#33B75C" fill-rule="nonzero"/><path d="M365.323 101.635C365.323 101.635 362.095 104.042 360.706 104.342 359.098 104.688 355.932 103.387 355.932 103.387 355.932 103.387 359.249 100.834 360.389 100.68 362.04 100.459 365.323 101.635 365.323 101.635Z" fill="#33B75C" fill-rule="nonzero"/><path d="M366.624 96.358C366.624 96.358 363.394 98.765 362.006 99.065 360.398 99.41 357.23 98.11 357.23 98.11 357.23 98.11 360.55 95.556 361.69 95.402 363.341 95.182 366.624 96.358 366.624 96.358Z" fill="#33B75C" fill-rule="nonzero"/><path d="M367.925 91.08C367.925 91.08 364.694 93.487 363.307 93.785 361.697 94.13 358.534 92.83 358.534 92.83 358.534 92.83 361.848 90.278 362.99 90.125 364.642 89.902 367.925 91.08 367.925 91.08Z" fill="#33B75C" fill-rule="nonzero"/><path d="M369.223 85.8C369.223 85.8 365.995 88.21 364.608 88.507 363 88.853 359.832 87.552 359.832 87.552 359.832 87.552 363.149 84.998 364.291 84.847 365.942 84.624 369.223 85.8 369.223 85.8Z" fill="#33B75C" fill-rule="nonzero"/><path d="M372.744 104.076C372.744 104.076 369.192 106.723 367.666 107.052 365.894 107.434 362.412 106.001 362.412 106.001 362.412 106.001 366.06 103.193 367.315 103.025 369.132 102.78 372.744 104.076 372.744 104.076Z" fill="#33B75C" fill-rule="nonzero"/><path d="M373.891 98.798C373.891 98.798 370.339 101.446 368.813 101.774 367.042 102.154 363.562 100.723 363.562 100.723 363.562 100.723 367.21 97.915 368.462 97.747 370.282 97.502 373.891 98.798 373.891 98.798Z" fill="#33B75C" fill-rule="nonzero"/><path d="M375.192 93.518C375.192 93.518 371.64 96.168 370.114 96.494 368.345 96.876 364.86 95.446 364.86 95.446 364.86 95.446 368.508 92.638 369.763 92.47 371.582 92.225 375.192 93.518 375.192 93.518Z" fill="#33B75C" fill-rule="nonzero"/><path d="M376.49 88.241C376.49 88.241 372.941 90.89 371.414 91.217 369.643 91.598 366.161 90.166 366.161 90.166 366.161 90.166 369.809 87.36 371.064 87.19 372.883 86.945 376.49 88.241 376.49 88.241Z" fill="#33B75C" fill-rule="nonzero"/><path d="M377.791 82.963C377.791 82.963 374.242 85.61 372.715 85.939 370.944 86.321 367.462 84.888 367.462 84.888 367.462 84.888 369.23 83.525 370.728 82.644L376.75 82.637C377.374 82.826 377.791 82.963 377.791 82.963Z" fill="#33B75C" fill-rule="nonzero"/><path d="M371.29 109.43C371.29 109.43 370.27 110.194 369.086 110.95L361.471 110.945C362.52 110.17 364.898 108.509 365.861 108.382 367.68 108.137 371.29 109.43 371.29 109.43Z" fill="#33B75C" fill-rule="nonzero"/><path d="M380.393 106.678C380.393 106.678 376.452 109.615 374.755 109.98 372.792 110.402 368.928 108.814 368.928 108.814 368.928 108.814 372.974 105.698 374.369 105.509 376.385 105.24 380.393 106.678 380.393 106.678Z" fill="#33B75C" fill-rule="nonzero"/><path d="M381.694 101.4C381.694 101.4 377.75 104.338 376.058 104.702 374.093 105.125 370.226 103.536 370.226 103.536 370.226 103.536 374.275 100.418 375.67 100.231 377.686 99.96 381.694 101.4 381.694 101.4Z" fill="#33B75C" fill-rule="nonzero"/><path d="M382.994 96.043C382.994 96.043 379.051 98.983 377.357 99.348 375.394 99.77 371.527 98.182 371.527 98.182 371.527 98.182 375.576 95.064 376.968 94.877 378.986 94.606 382.994 96.043 382.994 96.043Z" fill="#33B75C" fill-rule="nonzero"/><path d="M384.218 90.766C384.218 90.766 380.275 93.706 378.583 94.07 376.615 94.493 372.751 92.902 372.751 92.902 372.751 92.902 376.8 89.786 378.192 89.599 380.21 89.328 384.218 90.766 384.218 90.766Z" fill="#33B75C" fill-rule="nonzero"/><path d="M385.517 85.488C385.517 85.488 381.576 88.426 379.882 88.79 377.916 89.213 374.052 87.624 374.052 87.624 374.052 87.624 378.101 84.509 379.493 84.322 381.511 84.05 385.517 85.488 385.517 85.488Z" fill="#33B75C" fill-rule="nonzero"/><path d="M389.496 103.615C389.496 103.615 385.238 106.79 383.41 107.186 381.288 107.642 377.112 105.926 377.112 105.926 377.112 105.926 381.485 102.559 382.99 102.358 385.169 102.065 389.496 103.615 389.496 103.615Z" fill="#33B75C" fill-rule="nonzero"/><path d="M390.72 98.263C390.72 98.263 386.462 101.436 384.634 101.83 382.512 102.288 378.336 100.572 378.336 100.572 378.336 100.572 382.709 97.205 384.214 97.003 386.393 96.708 390.72 98.263 390.72 98.263Z" fill="#33B75C" fill-rule="nonzero"/><path d="M392.018 92.983C392.018 92.983 387.763 96.158 385.932 96.552 383.81 97.008 379.637 95.292 379.637 95.292 379.637 95.292 384.01 91.927 385.512 91.723 387.694 91.43 392.018 92.983 392.018 92.983Z" fill="#33B75C" fill-rule="nonzero"/><path d="M393.322 87.629C393.322 87.629 389.064 90.804 387.233 91.198 385.111 91.654 380.938 89.935 380.938 89.935 380.938 89.935 385.31 86.57 386.815 86.369 388.994 86.076 393.322 87.629 393.322 87.629Z" fill="#33B75C" fill-rule="nonzero"/><path d="M393.818 82.649C392.558 83.546 389.762 85.452 388.373 85.752 386.251 86.208 382.075 84.492 382.075 84.492 382.075 84.492 383.29 83.558 384.66 82.644L393.818 82.649Z" fill="#33B75C" fill-rule="nonzero"/><path d="M388.195 108.972C388.195 108.972 386.837 109.992 385.322 110.945L376.234 110.962C377.369 110.117 380.47 107.875 381.689 107.712 383.868 107.419 388.195 108.972 388.195 108.972Z" fill="#33B75C" fill-rule="nonzero"/></g></svg>