<svg width="956.693" height="436.181" xmlns="http://www.w3.org/2000/svg" xmlns:xlink="http://www.w3.org/1999/xlink" id="svg2" overflow="hidden"><defs id="defs4"><radialGradient cx="0" cy="0" r="0.551" fx="0" fy="0" gradientUnits="userSpaceOnUse" id="radialGradient2950" gradientTransform="matrix(0 -26.785 -26.7863 0 297.029 96.1676)"><stop offset="0" stop-color="#E4F4E6"/><stop offset="0.696153" stop-color="#009E59"/><stop offset="1" stop-color="#006032"/></radialGradient><radialGradient cx="0" cy="0" r="0.573" fx="0" fy="0" gradientUnits="userSpaceOnUse" id="radialGradient2570" gradientTransform="matrix(20.3678 -18.6376 -18.6385 -20.3668 299.378 88.6947)"><stop offset="0" stop-color="#FFFFFF"/><stop offset="0.824065" stop-color="#E9E8E8"/><stop offset="0.880618" stop-color="#D3D2D2"/><stop offset="1" stop-color="#919191"/></radialGradient><radialGradient cx="0" cy="0" r="0.77" fx="0" fy="0" gradientUnits="userSpaceOnUse" id="radialGradient2502" gradientTransform="matrix(0 -33.1419 -33.1435 0 298.946 92.9223)"><stop offset="0" stop-color="#FFFFFF"/><stop offset="1" stop-color="#BDBCBC"/></radialGradient><radialGradient cx="0" cy="0" r="1" fx="0" fy="0" gradientUnits="userSpaceOnUse" id="radialGradient2490" gradientTransform="matrix(0 -33.1419 -33.1435 0 298.946 92.9223)"><stop offset="0" stop-color="#B2B2B2"/><stop offset="1" stop-color="#808080"/></radialGradient><radialGradient cx="226.093" cy="834.648" r="90.8022" fx="226.093" fy="834.648" gradientUnits="userSpaceOnUse" xlink:href="#radialGradient2950" id="radialGradient3437" gradientTransform="matrix(1.41308 0 0 1.3748 -93.3932 -311.305)"></radialGradient><radialGradient cx="0" cy="0" r="1" fx="0" fy="0" gradientUnits="userSpaceOnUse" xlink:href="#radialGradient2490" id="radialGradient3439" gradientTransform="matrix(0 155.012 -155.019 0 235.176 851.861)"></radialGradient><radialGradient cx="0" cy="0" r="0.77" fx="0" fy="0" gradientUnits="userSpaceOnUse" xlink:href="#radialGradient2502" id="radialGradient3441" gradientTransform="matrix(0 155.012 -155.019 0 235.176 851.861)"></radialGradient><radialGradient cx="0" cy="0" r="0.573" fx="0" fy="0" gradientUnits="userSpaceOnUse" xlink:href="#radialGradient2570" id="radialGradient3443" gradientTransform="matrix(104.5 39.833 -39.8349 104.495 252.786 862.686)"></radialGradient><radialGradient cx="3.12771e-15" cy="2.09815e-15" r="0.573" fx="3.12771e-15" fy="2.09815e-15" gradientUnits="userSpaceOnUse" xlink:href="#radialGradient2570" id="radialGradient3445" gradientTransform="matrix(100.234 92.1411 -87.3941 95.0599 237.197 871.635)"></radialGradient><radialGradient cx="0" cy="0" r="0.76" fx="0" fy="0" gradientUnits="userSpaceOnUse" xlink:href="#radialGradient2570" id="radialGradient3447" gradientTransform="matrix(-67.5487 -21.3599 21.3608 -67.5454 200.247 910.315)"></radialGradient><radialGradient cx="0" cy="0" r="0.596" fx="0" fy="0" gradientUnits="userSpaceOnUse" xlink:href="#radialGradient2570" id="radialGradient3449" gradientTransform="matrix(-99.8823 -63.5043 63.5076 -99.8776 219.299 898.769)"></radialGradient></defs><g id="g3252" transform="matrix(1.33635 0 0 1.33635 0.56968 -907.774)"><path d="M101.48 734.292C86.3262 727.561 77.2758 724.966 68.3189 724.966 58.8944 724.966 52.8701 728.328 52.8701 733.529 52.8701 749.278 106.228 744.844 106.228 781.237 106.228 801.288 89.3898 812.939 66.0037 812.939 47.6691 812.939 38.6374 808.187 28.2306 802.822L28.2306 780.32C43.2304 790.259 52.4117 793.777 63.9925 793.777 74.0345 793.777 79.4413 790.259 79.4413 784.142 79.4413 767.014 26.0884 773.286 26.0884 735.821 26.0884 717.758 41.6963 705.798 66.0037 705.798 77.7388 705.798 88.3187 708.254 101.48 713.927L101.48 734.292" id="path2394" fill="#4F4C4C"/><path d="M176.175 808.145C167.284 811.382 159.772 812.92 152.261 812.92 127.429 812.92 111.349 798.449 111.349 776.424 111.349 754.815 128.042 739.554 151.339 739.554 158.542 739.554 167.742 741.387 175.104 744.133L175.104 760.676C169.276 757.584 162.532 755.887 157.013 755.887 143.673 755.887 135.086 763.889 135.086 776.27 135.086 788.809 143.519 797.065 156.246 797.065 161.611 797.065 166.363 795.839 176.175 792.172L176.175 808.145" id="path2396" fill="#4F4C4C"/><path d="M233.925 799.417 233.925 771.34C233.925 760.77 229.327 755.863 222.433 755.863 217.223 755.863 212.784 759.081 207.573 766.593L207.573 811.634 185.361 811.634 185.361 707.108 207.573 707.108 207.573 751.406 207.877 751.406C214.313 743.263 221.512 739.572 230.244 739.572 243.116 739.572 256.137 747.411 256.137 766.593L256.137 795.011C248.663 795.063 239.407 797.836 233.925 799.417" id="path2398" fill="#4F4C4C"/><path d="M266.637 793.922C266.637 780.91 266.637 740.859 266.637 740.859L288.849 740.859 288.849 751.004C295.917 742.912 302.825 739.554 311.885 739.554 322.927 739.554 337.633 745.812 337.633 766.644L337.633 811.634 315.421 811.634 315.421 768.487C315.421 758.506 310.659 754.362 304.364 754.362 298.835 754.362 294.686 757.28 288.849 766.031 288.849 766.031 288.849 785.704 288.849 797.186 281.328 795.063 273.705 794.52 266.637 793.922" id="path2400" fill="#4F4C4C"/><path d="M383.741 739.572C361.94 739.572 346.421 754.965 346.421 776.644 346.421 798.468 362.553 812.92 387.426 812.92 392.95 812.92 406.294 812.92 419.002 803.524L419.002 789.707C408.591 797.107 401.701 799.675 392.8 799.675 378.829 799.675 370.233 792.425 369.466 780.035L420.227 780.035C421.303 754.198 404.302 739.572 383.741 739.572ZM369.929 768.319C370.845 758.496 376.528 752.818 385.275 752.818 393.871 752.818 399.709 758.651 400.63 768.319L369.929 768.319" id="path2402" fill="#4F4C4C"/><path d="M428.819 740.859 451.032 740.859 451.032 811.63 428.819 811.63 428.819 740.859Z" id="path2404" fill="#4F4C4C"/><path d="M512.794 707.108 512.794 743.983C506.803 741.078 500.811 739.554 494.357 739.554 474.132 739.554 460.096 754.516 460.096 776.172 460.096 797.364 474.132 812.939 493.126 812.939 500.657 812.939 506.494 810.956 512.794 805.919L512.794 811.63 535.011 811.63 535.011 707.108 512.794 707.108ZM512.794 792.294C508.187 796.443 504.347 798.131 499.581 798.131 489.132 798.131 482.528 789.53 482.528 776.63 482.528 762.5 489.132 754.362 500.348 754.362 504.347 754.362 509.571 756.205 512.794 758.51L512.794 792.294" id="path2406" fill="#4F4C4C"/><path d="M581.666 739.572C559.861 739.572 544.346 754.965 544.346 776.644 544.346 798.468 560.478 812.92 585.352 812.92 590.875 812.92 604.219 812.92 616.927 803.524L616.927 789.707C606.516 797.107 599.626 799.675 590.721 799.675 576.755 799.675 568.158 792.425 567.391 780.035L618.153 780.035C619.224 754.198 602.227 739.572 581.666 739.572ZM567.849 768.319C568.771 758.496 574.454 752.818 583.2 752.818 591.797 752.818 597.629 758.651 598.551 768.319L567.849 768.319" id="path2408" fill="#4F4C4C"/><path d="M651.398 761.134 651.703 761.134C658.297 746.41 665.655 739.507 674.242 739.507 678.685 739.507 682.521 741.191 688.956 745.947L682.825 765.582C677.002 761.901 673.166 760.367 669.64 760.367 661.515 760.367 656.305 768.033 651.398 781.012L651.398 811.564 629.182 811.564 629.182 740.793 651.398 740.793 651.398 761.134" id="path2410" fill="#4F4C4C"/><path d="M388.273 845.427 352.02 845.427 352.02 871.166 387.019 871.166 387.019 882.227 352.02 882.227 352.02 908.836 389.4 908.836 389.4 919.902 339.826 919.902 339.826 834.361 388.273 834.361 388.273 845.427" id="path2412" fill="#4F4C4C"/><path d="M396.439 834.342 407.548 834.342 407.548 919.921 396.439 919.921 396.439 834.342Z" id="path2414" fill="#4F4C4C"/><path d="M424.442 893.354 464.053 893.354C464.053 872.517 454.497 862.433 439.591 862.433 424.067 862.433 413.333 873.897 413.333 890.969 413.333 906.568 423.066 921.006 440.592 921.006 450.11 921.006 456.256 918.873 463.047 914.36L463.047 903.546C456.509 907.826 450.11 910.347 443.347 910.347 432.58 910.347 426.191 904.556 424.442 893.354ZM439.839 872.012C447.729 872.012 452.612 877.414 452.987 885.95L424.689 885.95C426.191 877.036 431.326 872.012 439.839 872.012" id="path2416" fill="#4F4C4C"/><path d="M514.974 878.331C508.575 873.953 504.31 872.667 499.417 872.667 489.258 872.667 482.233 880.464 482.233 891.872 482.233 903.537 489.759 910.557 501.302 910.557 506.068 910.557 510.582 909.304 516.227 906.797L516.227 917.774C512.462 919.519 505.315 921.011 499.417 921.011 482.612 921.011 470.91 909.43 470.91 892.877 470.91 874.211 481.611 862.433 498.664 862.433 505.189 862.433 509.581 863.93 514.974 866.301L514.974 878.331" id="path2418" fill="#4F4C4C"/><path d="M539.024 863.523 556.835 863.523 556.835 873.537 539.024 873.537 539.024 902.447C539.024 909.107 543.79 910.992 547.05 910.992 551.063 910.992 555.202 909.612 559.721 906.843L559.721 917.255C555.829 919.383 549.81 921.011 546.171 921.011 534.029 921.011 527.915 913.499 527.915 903.326L527.915 873.537 518.131 873.537 518.131 872.288 539.024 851.858 539.024 863.523" id="path2420" fill="#4F4C4C"/><path d="M577.195 863.523 577.195 876.577 577.447 876.577C583.093 866.577 588.485 862.438 593.752 862.438 598.27 862.438 602.536 864.571 607.175 868.958L601.282 878.766C597.891 875.417 593.504 873.097 590.866 873.097 583.219 873.097 577.195 880.894 577.195 890.525L577.195 919.921 566.091 919.921 566.091 863.523 577.195 863.523" id="path2422" fill="#4F4C4C"/><path d="M612.821 863.523 623.929 863.523 623.929 919.926 612.821 919.926 612.821 863.523Z" id="path2424" fill="#4F4C4C"/><path d="M676.286 878.331C669.887 873.953 665.627 872.667 660.734 872.667 650.571 872.667 643.55 880.464 643.55 891.872 643.55 903.537 651.076 910.557 662.614 910.557 667.38 910.557 671.899 909.304 677.539 906.797L677.539 917.774C673.779 919.519 666.627 921.011 660.734 921.011 643.924 921.011 632.222 909.43 632.222 892.877 632.222 874.211 642.923 862.433 659.981 862.433 666.501 862.433 670.893 863.93 676.286 866.301L676.286 878.331" id="path2426" fill="#4F4C4C"/><path d="M452.056 711.098C454.133 716.603 450.391 724.269 443.702 728.216 437.009 732.168 429.9 730.906 427.823 725.4 425.742 719.9 429.484 712.234 436.177 708.282 442.87 704.334 449.979 705.597 452.056 711.098" id="path2428" fill="#4F4C4C"/><path d="M624.336 843.229C625.374 845.979 623.504 849.81 620.159 851.783 616.815 853.757 613.26 853.13 612.222 850.375 611.184 847.625 613.055 843.795 616.399 841.821 619.743 839.847 623.298 840.479 624.336 843.229" id="path2430" fill="#4F4C4C"/><path d="M307.638 817.93C334.719 845.011 322.432 900.712 280.229 941.067 238.027 981.417 181.54 990.804 154.8 964.064 128.066 937.33 139.483 880.763 181.685 840.408 223.892 800.053 280.557 790.853 307.638 817.93" id="path2448" fill="#006032"/><path d="M307.638 817.93C334.719 845.011 322.432 900.712 280.229 941.067 238.027 981.417 181.54 990.804 154.8 964.064 128.066 937.33 139.483 880.763 181.685 840.408 223.892 800.053 280.557 790.853 307.638 817.93" id="path2438" fill="url(#radialGradient3437)"/><path d="M269.168 860.315C266.75 860.315 265.702 860.754 264.724 861.853 264.331 862.293 264.163 862.733 264.037 863.612L251.623 910.604C248.724 927.091 228.471 943.546 202.092 943.546L165.394 943.546 171.751 919.388 195.324 919.388C197.742 919.388 199.622 918.508 201.184 916.754 201.774 916.095 202.531 914.996 202.63 913.897L212.4 872.836C215.3 856.344 232.723 838.14 259.102 838.14L296.679 838.14 291.866 860.315 269.168 860.315" id="path2484" fill="#808080"/><path d="M269.168 860.315C266.75 860.315 265.702 860.754 264.724 861.853 264.331 862.293 264.163 862.733 264.037 863.612L251.623 910.604C248.724 927.091 228.471 943.546 202.092 943.546L165.394 943.546 171.751 919.388 195.324 919.388C197.742 919.388 199.622 918.508 201.184 916.754 201.774 916.095 202.531 914.996 202.63 913.897L212.4 872.836C215.3 856.344 232.723 838.14 259.102 838.14L296.679 838.14 291.866 860.315 269.168 860.315" id="path2496" fill="url(#radialGradient3439)"/><path d="M269.168 860.315C266.75 860.315 265.702 860.754 264.724 861.853 264.331 862.293 264.163 862.733 264.037 863.612L251.623 910.604C248.724 927.091 228.471 943.546 202.092 943.546L165.394 943.546 171.751 919.388 195.324 919.388C197.742 919.388 199.622 918.508 201.184 916.754 201.774 916.095 202.531 914.996 202.63 913.897L212.4 872.836C215.3 856.344 232.723 838.14 259.102 838.14L296.679 838.14 291.866 860.315 269.168 860.315" id="path2508" fill="url(#radialGradient3441)"/><path d="M277.647 889.009 315.542 889.009C317.474 883.892 318.989 878.799 320.06 873.79L281.838 873.79 277.647 889.009" id="path2542" fill="url(#radialGradient3443)" fill-rule="evenodd"/><path d="M269.682 918.658 299.593 918.658C303.133 913.663 306.277 908.569 308.999 903.438L274.168 903.438 269.682 918.658" id="path2576" fill="url(#radialGradient3445)" fill-rule="evenodd"/><path d="M180.216 890.071 147.644 890.071C145.633 895.179 144.052 900.267 142.874 905.291L175.02 905.291 180.216 890.071" id="path2610" fill="url(#radialGradient3447)" fill-rule="evenodd"/><path d="M187.433 860.422 164.127 860.422C160.488 865.403 157.275 870.497 154.454 875.642L182.092 875.642 187.433 860.422" id="path2644" fill="url(#radialGradient3449)" fill-rule="evenodd"/><g id="g2958"><path d="M216.479 970.383C194.192 974.434 179.071 971.67 169.403 962.965 183.579 965.266 194.463 968.003 215.684 964.064 236.904 960.126 253.967 952.951 258.452 950.028 253.05 955.72 240.314 966.052 216.479 970.383" id="path2646" fill="#006032"/><path d="M216.474 970.374C194.243 974.406 179.108 971.665 169.459 962.989 183.579 965.28 194.468 968.017 215.684 964.083 236.886 960.15 253.939 952.97 258.41 950.056 253.017 955.739 240.244 966.057 216.474 970.374" id="path2648" fill="#006033"/><path d="M216.465 970.36C194.295 974.382 179.15 971.66 169.51 963.007 183.584 965.294 194.473 968.031 215.679 964.097 236.867 960.173 253.915 952.989 258.373 950.084 252.98 955.758 240.169 966.057 216.465 970.36" id="path2650" fill="#016133"/><path d="M216.46 970.346C194.346 974.354 179.192 971.656 169.566 963.031 183.584 965.304 194.473 968.04 215.674 964.116 236.843 960.192 253.892 953.007 258.331 950.112 252.947 955.776 240.094 966.062 216.46 970.346" id="path2652" fill="#016134"/><path d="M216.455 970.332C194.398 974.331 179.234 971.651 169.623 963.049 183.589 965.318 194.477 968.054 215.674 964.13 236.825 960.215 253.864 953.026 258.288 950.145 252.914 955.795 240.024 966.062 216.455 970.332" id="path2654" fill="#026234"/><path d="M216.451 970.323C194.449 974.303 179.276 971.646 169.674 963.068 183.589 965.332 194.482 968.063 215.67 964.149 236.806 960.238 253.84 953.04 258.246 950.173 252.882 955.814 239.949 966.062 216.451 970.323" id="path2656" fill="#026234"/><path d="M216.441 970.308C194.501 974.279 179.314 971.641 169.73 963.092 183.593 965.341 194.482 968.077 215.67 964.163 236.783 960.262 253.817 953.059 258.204 950.201 252.849 955.833 239.874 966.066 216.441 970.308" id="path2658" fill="#036234"/><path d="M216.437 970.294C194.552 974.251 179.356 971.637 169.786 963.11 183.593 965.355 194.487 968.091 215.665 964.181 236.764 960.285 253.789 953.078 258.162 950.229 252.816 955.851 239.804 966.066 216.437 970.294" id="path2660" fill="#046335"/><path d="M216.432 970.28C194.604 974.228 179.398 971.632 169.842 963.134 183.598 965.365 194.491 968.101 215.665 964.195 236.745 960.304 253.766 953.096 258.12 950.262 252.779 955.87 239.729 966.071 216.432 970.28" id="path2662" fill="#046335"/><path d="M216.427 970.271C194.655 974.2 179.44 971.627 169.894 963.152 183.603 965.379 194.491 968.115 215.66 964.214 236.727 960.327 253.742 953.115 258.083 950.29 252.746 955.889 239.654 966.071 216.427 970.271" id="path2664" fill="#056436"/><path d="M216.418 970.257C194.706 974.177 179.477 971.623 169.95 963.176 183.603 965.393 194.496 968.129 215.656 964.228 236.708 960.351 253.714 953.134 258.041 950.318 252.713 955.907 239.584 966.071 216.418 970.257" id="path2666" fill="#056436"/><path d="M216.413 970.243C194.758 974.148 179.52 971.618 170.006 963.194 183.607 965.402 194.501 968.138 215.656 964.247 236.684 960.374 253.691 953.152 257.998 950.351 252.68 955.926 239.509 966.076 216.413 970.243" id="path2668" fill="#066537"/><path d="M216.409 970.229C194.809 974.125 179.562 971.613 170.062 963.218 183.607 965.416 194.501 968.152 215.651 964.261 236.666 960.393 253.667 953.171 257.956 950.379 252.648 955.945 239.439 966.076 216.409 970.229" id="path2670" fill="#076537"/><path d="M216.404 970.22C194.856 974.097 179.604 971.609 170.114 963.237 183.612 965.425 194.505 968.166 215.651 964.28 236.647 960.416 253.639 953.19 257.914 950.407 252.61 955.964 239.364 966.08 216.404 970.22" id="path2672" fill="#076638"/><path d="M216.395 970.206C194.908 974.074 179.641 971.604 170.17 963.255 183.612 965.44 194.51 968.176 215.646 964.294 236.628 960.44 253.616 953.209 257.872 950.435 252.578 955.982 239.29 966.08 216.395 970.206" id="path2674" fill="#086638"/><path d="M216.39 970.192C194.959 974.05 179.683 971.599 170.226 963.279 183.617 965.454 194.51 968.19 215.646 964.312 236.605 960.463 253.593 953.227 257.83 950.468 252.545 956.001 239.219 966.085 216.39 970.192" id="path2676" fill="#096738"/><path d="M216.385 970.177C195.01 974.022 179.725 971.595 170.282 963.297 183.617 965.463 194.515 968.204 215.642 964.326 236.586 960.482 253.564 953.246 257.788 950.496 252.512 956.02 239.145 966.085 216.385 970.177" id="path2678" fill="#096739"/><path d="M216.376 970.168C195.062 973.999 179.767 971.59 170.334 963.321 183.621 965.477 194.519 968.213 215.642 964.345 236.567 960.505 253.541 953.265 257.751 950.524 252.479 956.038 239.07 966.085 216.376 970.168" id="path2680" fill="#0A6839"/><path d="M216.371 970.154C195.113 973.971 179.81 971.585 170.39 963.339 183.626 965.491 194.519 968.227 215.637 964.359 236.549 960.528 253.518 953.283 257.708 950.557 252.447 956.057 239 966.09 216.371 970.154" id="path2682" fill="#0A6839"/><path d="M216.367 970.14C195.165 973.947 179.847 971.581 170.446 963.363 183.626 965.5 194.524 968.236 215.632 964.378 236.525 960.552 253.49 953.302 257.666 950.585 252.409 956.076 238.925 966.09 216.367 970.14" id="path2684" fill="#0B693A"/><path d="M216.362 970.126C195.216 973.919 179.889 971.576 170.497 963.382 183.631 965.514 194.529 968.25 215.632 964.392 236.507 960.57 253.466 953.321 257.624 950.613 252.376 956.094 238.85 966.094 216.362 970.126" id="path2686" fill="#0C693A"/><path d="M216.353 970.117C195.268 973.896 179.931 971.571 170.553 963.4 183.631 965.524 194.529 968.265 215.628 964.411 236.488 960.594 253.443 953.34 257.582 950.641 252.344 956.113 238.78 966.094 216.353 970.117" id="path2688" fill="#0C6A3B"/><path d="M216.348 970.103C195.319 973.868 179.973 971.567 170.609 963.424 183.636 965.538 194.533 968.274 215.628 964.425 236.469 960.617 253.415 953.358 257.54 950.674 252.311 956.132 238.705 966.094 216.348 970.103" id="path2690" fill="#0D6A3B"/><path d="M216.343 970.089C195.371 973.844 180.011 971.562 170.666 963.442 183.636 965.552 194.538 968.288 215.623 964.443 236.446 960.641 253.391 953.377 257.498 950.702 252.278 956.151 238.63 966.099 216.343 970.089" id="path2692" fill="#0E6B3C"/><path d="M216.339 970.075C195.422 973.816 180.053 971.557 170.717 963.466 183.64 965.561 194.538 968.302 215.623 964.457 236.427 960.659 253.368 953.396 257.456 950.73 252.245 956.169 238.56 966.099 216.339 970.075" id="path2694" fill="#0E6B3C"/><path d="M216.329 970.065C195.474 973.793 180.095 971.553 170.773 963.484 183.64 965.575 194.543 968.311 215.618 964.476 236.408 960.683 253.34 953.414 257.418 950.762 252.208 956.188 238.485 966.104 216.329 970.065" id="path2696" fill="#0F6C3D"/><path d="M216.325 970.051C195.525 973.765 180.137 971.548 170.829 963.508 183.645 965.589 194.547 968.325 215.614 964.49 236.39 960.706 253.317 953.433 257.376 950.79 252.175 956.207 238.41 966.104 216.325 970.051" id="path2698" fill="#106C3D"/><path d="M216.32 970.037C195.576 973.742 180.179 971.543 170.885 963.527 183.65 965.599 194.547 968.339 215.614 964.509 236.366 960.73 253.293 953.452 257.334 950.819 252.143 956.225 238.34 966.104 216.32 970.037" id="path2700" fill="#106D3E"/><path d="M216.315 970.028C195.628 973.714 180.216 971.539 170.937 963.545 183.65 965.613 194.552 968.349 215.609 964.523 236.348 960.748 253.265 953.471 257.292 950.847 252.11 956.244 238.265 966.108 216.315 970.028" id="path2702" fill="#116D3E"/><path d="M216.306 970.014C195.679 973.69 180.259 971.534 170.993 963.569 183.654 965.622 194.557 968.363 215.609 964.541 236.329 960.772 253.242 953.489 257.25 950.879 252.077 956.263 238.195 966.108 216.306 970.014" id="path2704" fill="#126E3E"/><path d="M216.301 970C195.731 973.662 180.301 971.529 171.049 963.587 183.654 965.636 194.561 968.377 215.604 964.555 236.31 960.795 253.218 953.508 257.208 950.907 252.04 956.281 238.12 966.113 216.301 970" id="path2706" fill="#126E3F"/><path d="M216.296 969.986C195.778 973.639 180.343 971.525 171.105 963.611 183.659 965.65 194.561 968.386 215.604 964.574 236.287 960.818 253.195 953.527 257.166 950.935 252.007 956.3 238.045 966.113 216.296 969.986" id="path2708" fill="#136E3F"/><path d="M216.292 969.976C195.829 973.611 180.38 971.52 171.157 963.629 183.659 965.659 194.566 968.4 215.6 964.588 236.268 960.842 253.167 953.545 257.128 950.968 251.974 956.319 237.975 966.113 216.292 969.976" id="path2710" fill="#146F40"/><path d="M216.282 969.962C195.88 973.587 180.422 971.515 171.213 963.653 183.664 965.673 194.571 968.414 215.595 964.607 236.249 960.861 253.144 953.564 257.086 950.996 251.941 956.338 237.9 966.118 216.282 969.962" id="path2712" fill="#146F40"/><path d="M216.278 969.948C195.932 973.559 180.464 971.51 171.269 963.672 183.664 965.683 194.571 968.424 215.595 964.621 236.231 960.884 253.12 953.583 257.044 951.024 251.909 956.356 237.826 966.118 216.278 969.948" id="path2714" fill="#157041"/><path d="M216.273 969.934C195.983 973.536 180.506 971.506 171.32 963.69 183.668 965.697 194.576 968.438 215.59 964.64 236.207 960.907 253.092 953.602 257.002 951.052 251.871 956.375 237.755 966.122 216.273 969.934" id="path2716" fill="#167041"/><path d="M216.264 969.925C196.035 973.508 180.544 971.501 171.377 963.714 183.673 965.711 194.58 968.447 215.59 964.654 236.189 960.931 253.069 953.62 256.96 951.085 251.839 956.394 237.681 966.122 216.264 969.925" id="path2718" fill="#167142"/><path d="M216.259 969.911C196.086 973.484 180.586 971.496 171.433 963.732 183.673 965.72 194.58 968.461 215.586 964.672 236.17 960.949 253.045 953.639 256.918 951.113 251.806 956.412 237.606 966.122 216.259 969.911" id="path2720" fill="#177142"/><path d="M216.254 969.897C196.138 973.456 180.628 971.492 171.489 963.756 183.678 965.734 194.585 968.475 215.586 964.686 236.151 960.973 253.017 953.658 256.876 951.141 251.773 956.431 237.536 966.127 216.254 969.897" id="path2722" fill="#187243"/><path d="M216.25 969.883C196.189 973.433 180.67 971.487 171.545 963.774 183.678 965.748 194.59 968.484 215.581 964.705 236.128 960.996 252.994 953.676 256.834 951.169 251.74 956.45 237.461 966.127 216.25 969.883" id="path2724" fill="#197242"/><path d="M216.24 969.873C196.241 973.405 180.708 971.482 171.596 963.798 183.682 965.758 194.59 968.498 215.581 964.719 236.109 961.02 252.97 953.695 256.796 951.202 251.708 956.469 237.386 966.132 216.24 969.873" id="path2726" fill="#197343"/><path d="M216.236 969.859C196.292 973.381 180.75 971.478 171.653 963.817 183.682 965.772 194.594 968.512 215.576 964.738 236.09 961.038 252.942 953.714 256.754 951.23 251.67 956.487 237.316 966.132 216.236 969.859" id="path2728" fill="#1A7344"/><path d="M216.231 969.845C196.343 973.353 180.792 971.473 171.709 963.84 183.687 965.781 194.599 968.522 215.572 964.752 236.072 961.062 252.919 953.732 256.712 951.258 251.637 956.506 237.241 966.132 216.231 969.845" id="path2730" fill="#1B7444"/><path d="M216.222 969.831C196.395 973.33 180.834 971.468 171.76 963.859 183.687 965.795 194.599 968.536 215.572 964.771 236.053 961.085 252.896 953.751 256.67 951.291 251.605 956.525 237.166 966.136 216.222 969.831" id="path2732" fill="#1B7445"/><path d="M216.217 969.822C196.446 973.302 180.871 971.464 171.816 963.877 183.692 965.809 194.604 968.55 215.567 964.785 236.03 961.108 252.868 953.77 256.628 951.319 251.572 956.543 237.096 966.136 216.217 969.822" id="path2734" fill="#1C7545"/><path d="M216.212 969.808C196.498 973.279 180.913 971.459 171.872 963.901 183.696 965.818 194.608 968.559 215.567 964.803 236.011 961.127 252.844 953.789 256.586 951.347 251.539 956.562 237.021 966.141 216.212 969.808" id="path2736" fill="#1D7546"/><path d="M216.208 969.794C196.549 973.25 180.955 971.454 171.928 963.919 183.696 965.832 194.608 968.573 215.562 964.817 235.992 961.151 252.821 953.803 256.544 951.375 251.502 956.581 236.946 966.141 216.208 969.794" id="path2738" fill="#1E7647"/><path d="M216.198 969.78C196.601 973.227 180.998 971.45 171.98 963.943 183.701 965.842 194.613 968.587 215.562 964.836 235.973 961.174 252.793 953.821 256.506 951.408 251.469 956.6 236.876 966.141 216.198 969.78" id="path2740" fill="#1E7647"/><path d="M216.194 969.771C196.652 973.199 181.04 971.445 172.036 963.961 183.701 965.856 194.618 968.597 215.557 964.85 235.95 961.197 252.769 953.84 256.464 951.436 251.436 956.618 236.801 966.146 216.194 969.771" id="path2742" fill="#1F7748"/><path d="M216.189 969.757C196.699 973.176 181.077 971.44 172.092 963.985 183.706 965.87 194.618 968.611 215.553 964.869 235.931 961.216 252.746 953.859 256.422 951.464 251.404 956.637 236.731 966.146 216.189 969.757" id="path2744" fill="#207748"/><path d="M216.184 969.743C196.75 973.148 181.119 971.436 172.148 964.004 183.706 965.879 194.622 968.62 215.553 964.883 235.913 961.239 252.718 953.877 256.38 951.497 251.371 956.656 236.656 966.15 216.184 969.743" id="path2746" fill="#217848"/><path d="M216.175 969.729C196.802 973.124 181.161 971.431 172.2 964.022 183.71 965.893 194.627 968.634 215.548 964.902 235.894 961.263 252.695 953.896 256.338 951.525 251.338 956.674 236.582 966.15 216.175 969.729" id="path2748" fill="#217949"/><path d="M216.17 969.719C196.853 973.096 181.203 971.426 172.256 964.046 183.715 965.907 194.627 968.648 215.548 964.916 235.871 961.286 252.671 953.915 256.296 951.553 251.301 956.693 236.511 966.15 216.17 969.719" id="path2750" fill="#227949"/><path d="M216.165 969.705C196.905 973.073 181.241 971.422 172.312 964.064 183.715 965.917 194.632 968.657 215.543 964.934 235.852 961.305 252.643 953.934 256.254 951.581 251.268 956.712 236.437 966.155 216.165 969.705" id="path2752" fill="#237A4A"/><path d="M216.161 969.691C196.956 973.045 181.283 971.417 172.368 964.088 183.72 965.931 194.636 968.671 215.543 964.948 235.833 961.328 252.62 953.952 256.216 951.614 251.235 956.731 236.362 966.155 216.161 969.691" id="path2754" fill="#247B4A"/><path d="M216.151 969.682C197.008 973.021 181.325 971.412 172.42 964.107 183.72 965.94 194.636 968.685 215.539 964.967 235.814 961.352 252.596 953.971 256.174 951.642 251.202 956.749 236.292 966.16 216.151 969.682" id="path2756" fill="#247B4B"/><path d="M216.147 969.668C197.059 972.993 181.367 971.408 172.476 964.13 183.724 965.954 194.641 968.695 215.539 964.981 235.791 961.375 252.568 953.99 256.132 951.67 251.17 956.768 236.217 966.16 216.147 969.668" id="path2758" fill="#257B4B"/><path d="M216.142 969.654C197.111 972.97 181.404 971.403 172.532 964.149 183.724 965.968 194.646 968.709 215.534 965 235.772 961.394 252.545 954.008 256.09 951.703 251.137 956.787 236.142 966.16 216.142 969.654" id="path2760" fill="#267C4C"/><path d="M216.133 969.64C197.162 972.942 181.447 971.398 172.583 964.167 183.729 965.977 194.646 968.723 215.529 965.014 235.754 961.417 252.521 954.027 256.048 951.731 251.1 956.805 236.072 966.164 216.133 969.64" id="path2762" fill="#267C4C"/><path d="M216.128 969.63C197.213 972.918 181.489 971.394 172.639 964.191 183.729 965.991 194.65 968.732 215.529 965.033 235.735 961.44 252.493 954.046 256.006 951.759 251.067 956.824 235.997 966.164 216.128 969.63" id="path2764" fill="#277D4D"/><path d="M216.123 969.616C197.265 972.89 181.531 971.389 172.696 964.209 183.734 966.005 194.655 968.746 215.525 965.047 235.712 961.464 252.47 954.065 255.964 951.787 251.034 956.843 235.922 966.169 216.123 969.616" id="path2766" fill="#287D4D"/><path d="M216.119 969.602C197.316 972.867 181.573 971.384 172.752 964.233 183.738 966.015 194.655 968.76 215.525 965.065 235.693 961.487 252.447 954.083 255.926 951.819 251.001 956.862 235.852 966.169 216.119 969.602" id="path2768" fill="#297E4E"/><path d="M216.109 969.588C197.368 972.839 181.61 971.38 172.803 964.251 183.738 966.029 194.66 968.77 215.52 965.079 235.674 961.506 252.419 954.102 255.884 951.848 250.969 956.88 235.777 966.169 216.109 969.588" id="path2770" fill="#2A7E4E"/><path d="M216.105 969.579C197.419 972.815 181.652 971.375 172.859 964.275 183.743 966.038 194.664 968.784 215.52 965.098 235.655 961.529 252.395 954.121 255.842 951.876 250.931 956.899 235.702 966.174 216.105 969.579" id="path2772" fill="#2B7F4F"/><path d="M216.1 969.565C197.471 972.792 181.694 971.37 172.915 964.294 183.743 966.052 194.664 968.798 215.515 965.112 235.632 961.553 252.372 954.139 255.8 951.904 250.898 956.918 235.632 966.174 216.1 969.565" id="path2774" fill="#2B7F4F"/><path d="M216.095 969.551C197.522 972.764 181.737 971.366 172.971 964.312 183.748 966.066 194.669 968.807 215.511 965.131 235.613 961.576 252.344 954.158 255.758 951.936 250.866 956.936 235.557 966.178 216.095 969.551" id="path2776" fill="#2C8050"/><path d="M216.086 969.537C197.574 972.741 181.774 971.361 173.023 964.336 183.748 966.076 194.674 968.821 215.511 965.145 235.595 961.595 252.32 954.177 255.716 951.964 250.833 956.955 235.487 966.178 216.086 969.537" id="path2778" fill="#2D8050"/><path d="M216.081 969.527C197.62 972.713 181.816 971.356 173.079 964.354 183.752 966.09 194.674 968.83 215.506 965.164 235.576 961.618 252.297 954.195 255.674 951.993 250.8 956.974 235.412 966.178 216.081 969.527" id="path2780" fill="#2E8151"/><path d="M216.077 969.513C197.672 972.689 181.858 971.352 173.135 964.378 183.752 966.099 194.678 968.844 215.506 965.178 235.553 961.642 252.269 954.214 255.632 952.025 250.767 956.992 235.337 966.183 216.077 969.513" id="path2782" fill="#2F8252"/><path d="M216.072 969.499C197.723 972.661 181.9 971.347 173.191 964.396 183.757 966.113 194.683 968.859 215.501 965.196 235.534 961.665 252.245 954.233 255.594 952.053 250.73 957.011 235.267 966.183 216.072 969.499" id="path2784" fill="#308252"/><path d="M216.063 969.485C197.775 972.638 181.942 971.342 173.243 964.42 183.762 966.127 194.683 968.868 215.501 965.21 235.515 961.684 252.222 954.252 255.552 952.081 250.697 957.03 235.192 966.188 216.063 969.485" id="path2786" fill="#308353"/><path d="M216.058 969.476C197.826 972.61 181.98 971.337 173.299 964.439 183.762 966.136 194.688 968.882 215.497 965.229 235.496 961.707 252.194 954.27 255.51 952.109 250.665 957.049 235.118 966.188 216.058 969.476" id="path2788" fill="#318454"/><path d="M216.053 969.462C197.878 972.586 182.022 971.333 173.355 964.457 183.766 966.15 194.692 968.896 215.497 965.243 235.478 961.73 252.171 954.289 255.468 952.142 250.632 957.067 235.047 966.193 216.053 969.462" id="path2790" fill="#328454"/><path d="M216.044 969.448C197.929 972.558 182.064 971.328 173.411 964.481 183.766 966.164 194.692 968.905 215.492 965.262 235.454 961.754 252.147 954.308 255.426 952.17 250.599 957.086 234.973 966.193 216.044 969.448" id="path2792" fill="#338555"/><path d="M216.039 969.434C197.981 972.535 182.106 971.323 173.463 964.499 183.771 966.174 194.697 968.919 215.487 965.276 235.436 961.773 252.119 954.326 255.384 952.198 250.562 957.105 234.898 966.193 216.039 969.434" id="path2794" fill="#338555"/><path d="M216.035 969.424C198.032 972.507 182.143 971.319 173.519 964.523 183.771 966.188 194.702 968.933 215.487 965.294 235.417 961.796 252.096 954.345 255.342 952.231 250.529 957.123 234.828 966.197 216.035 969.424" id="path2796" fill="#348656"/><path d="M216.03 969.41C198.083 972.483 182.186 971.314 173.575 964.541 183.776 966.197 194.702 968.943 215.483 965.309 235.398 961.819 252.072 954.364 255.3 952.259 250.496 957.142 234.753 966.197 216.03 969.41" id="path2798" fill="#358656"/><path d="M216.021 969.396C198.135 972.455 182.228 971.309 173.626 964.565 183.776 966.211 194.706 968.957 215.483 965.327 235.375 961.843 252.044 954.383 255.262 952.287 250.463 957.161 234.678 966.202 216.021 969.396" id="path2800" fill="#368757"/><path d="M216.016 969.387C198.186 972.432 182.27 971.305 173.682 964.584 183.781 966.225 194.711 968.971 215.478 965.341 235.356 961.861 252.021 954.401 255.22 952.315 250.431 957.18 234.608 966.202 216.016 969.387" id="path2802" fill="#378758"/><path d="M216.011 969.373C198.238 972.404 182.307 971.3 173.739 964.607 183.785 966.235 194.711 968.98 215.478 965.36 235.337 961.885 251.998 954.42 255.178 952.348 250.398 957.198 234.533 966.202 216.011 969.373" id="path2804" fill="#388858"/><path d="M216.006 969.359C198.289 972.38 182.349 971.295 173.795 964.626 183.785 966.249 194.716 968.994 215.473 965.374 235.319 961.908 251.97 954.439 255.136 952.376 250.361 957.217 234.463 966.207 216.006 969.359" id="path2806" fill="#398959"/><path d="M215.997 969.345C198.341 972.352 182.391 971.291 173.846 964.644 183.79 966.263 194.721 969.004 215.469 965.393 235.295 961.932 251.946 954.457 255.094 952.404 250.328 957.236 234.388 966.207 215.997 969.345" id="path2808" fill="#398959"/><path d="M215.992 969.336C198.392 972.329 182.433 971.286 173.902 964.668 183.79 966.272 194.725 969.018 215.469 965.407 235.277 961.95 251.923 954.476 255.052 952.437 250.295 957.254 234.313 966.211 215.992 969.336" id="path2810" fill="#3A8A5A"/><path d="M215.988 969.322C198.444 972.301 182.471 971.277 173.958 964.686 183.795 966.286 194.725 969.032 215.464 965.425 235.258 961.974 251.895 954.495 255.01 952.465 250.262 957.273 234.243 966.211 215.988 969.322" id="path2812" fill="#3B8A5A"/><path d="M215.983 969.308C198.495 972.278 182.513 971.272 174.014 964.71 183.795 966.295 194.73 969.041 215.464 965.44 235.239 961.997 251.871 954.514 254.972 952.493 250.23 957.292 234.168 966.211 215.983 969.308" id="path2814" fill="#3C8B5B"/><path d="M215.974 969.294C198.542 972.25 182.555 971.267 174.066 964.729 183.799 966.309 194.735 969.055 215.459 965.458 235.216 962.02 251.848 954.532 254.93 952.521 250.192 957.311 234.093 966.216 215.974 969.294" id="path2816" fill="#3D8B5B"/><path d="M215.969 969.284C198.593 972.226 182.597 971.263 174.122 964.752 183.799 966.323 194.735 969.069 215.459 965.472 235.197 962.039 251.825 954.546 254.888 952.554 250.159 957.329 234.023 966.216 215.969 969.284" id="path2818" fill="#3E8C5C"/><path d="M215.964 969.27C198.645 972.198 182.639 971.258 174.178 964.771 183.804 966.333 194.739 969.078 215.455 965.491 235.178 962.063 251.796 954.565 254.846 952.582 250.127 957.348 233.948 966.221 215.964 969.27" id="path2820" fill="#3E8C5D"/><path d="M215.955 969.256C198.696 972.175 182.677 971.253 174.234 964.789 183.809 966.347 194.744 969.092 215.45 965.505 235.16 962.086 251.773 954.584 254.804 952.61 250.094 957.367 233.873 966.221 215.955 969.256" id="path2822" fill="#3F8D5D"/><path d="M215.95 969.242C198.748 972.147 182.719 971.249 174.286 964.813 183.809 966.356 194.744 969.106 215.45 965.524 235.136 962.109 251.75 954.602 254.762 952.638 250.061 957.385 233.803 966.221 215.95 969.242" id="path2824" fill="#408D5E"/><path d="M215.946 969.233C198.799 972.123 182.761 971.244 174.342 964.831 183.813 966.37 194.749 969.116 215.445 965.538 235.118 962.133 251.722 954.621 254.72 952.671 250.028 957.404 233.728 966.225 215.946 969.233" id="path2826" fill="#418E5F"/><path d="M215.941 969.219C198.85 972.095 182.803 971.239 174.398 964.855 183.813 966.384 194.753 969.13 215.445 965.556 235.099 962.151 251.698 954.64 254.678 952.699 249.991 957.423 233.654 966.225 215.941 969.219" id="path2828" fill="#428F5F"/><path d="M215.932 969.205C198.902 972.072 182.84 971.235 174.449 964.874 183.818 966.394 194.753 969.144 215.441 965.57 235.08 962.175 251.675 954.659 254.64 952.727 249.958 957.441 233.583 966.23 215.932 969.205" id="path2830" fill="#438F60"/><path d="M215.927 969.191C198.953 972.044 182.882 971.23 174.506 964.897 183.818 966.408 194.758 969.153 215.441 965.589 235.057 962.198 251.647 954.677 254.598 952.76 249.926 957.46 233.509 966.23 215.927 969.191" id="path2832" fill="#449061"/><path d="M215.922 969.181C199.005 972.02 182.925 971.225 174.562 964.916 183.823 966.422 194.763 969.167 215.436 965.603 235.038 962.222 251.623 954.696 254.556 952.788 249.893 957.479 233.434 966.23 215.922 969.181" id="path2834" fill="#459161"/><path d="M215.918 969.167C199.056 971.992 182.967 971.221 174.618 964.934 183.823 966.431 194.763 969.181 215.436 965.622 235.019 962.24 251.6 954.715 254.514 952.816 249.86 957.498 233.364 966.235 215.918 969.167" id="path2836" fill="#469161"/><path d="M215.908 969.153C199.108 971.969 183.004 971.216 174.669 964.958 183.827 966.445 194.767 969.191 215.431 965.636 235.001 962.264 251.572 954.733 254.472 952.844 249.823 957.516 233.289 966.235 215.908 969.153" id="path2838" fill="#479262"/><path d="M215.904 969.139C199.159 971.941 183.046 971.211 174.725 964.976 183.832 966.454 194.772 969.205 215.426 965.655 234.977 962.287 251.549 954.752 254.43 952.877 249.79 957.535 233.219 966.239 215.904 969.139" id="path2840" fill="#479263"/><path d="M215.899 969.13C199.211 971.917 183.088 971.206 174.782 965 183.832 966.469 194.772 969.214 215.426 965.673 234.959 962.31 251.525 954.771 254.388 952.905 249.757 957.554 233.144 966.239 215.899 969.13" id="path2842" fill="#489364"/><path d="M215.89 969.116C199.262 971.889 183.13 971.202 174.838 965.019 183.837 966.483 194.777 969.228 215.422 965.687 234.94 962.329 251.497 954.789 254.35 952.933 249.724 957.572 233.069 966.239 215.89 969.116" id="path2844" fill="#499364"/><path d="M215.885 969.102C199.314 971.866 183.172 971.197 174.889 965.042 183.837 966.492 194.781 969.242 215.422 965.706 234.921 962.353 251.474 954.808 254.308 952.965 249.692 957.591 232.999 966.244 215.885 969.102" id="path2846" fill="#4A9465"/><path d="M215.88 969.092C199.365 971.838 183.21 971.192 174.945 965.061 183.841 966.506 194.781 969.251 215.417 965.72 234.898 962.376 251.45 954.827 254.266 952.993 249.659 957.61 232.924 966.244 215.88 969.092" id="path2848" fill="#4B9566"/><path d="M215.876 969.078C199.412 971.815 183.252 971.188 175.001 965.079 183.841 966.52 194.786 969.265 215.417 965.739 234.879 962.399 251.422 954.846 254.224 953.022 249.622 957.629 232.849 966.249 215.876 969.078" id="path2850" fill="#4C9667"/><path d="M215.871 969.064C199.468 971.786 183.294 971.183 175.058 965.103 183.846 966.529 194.791 969.279 215.412 965.753 234.86 962.418 251.399 954.864 254.182 953.05 249.589 957.647 232.779 966.249 215.871 969.064" id="path2852" fill="#4D9667"/><path d="M215.861 969.05C199.515 971.763 183.336 971.178 175.109 965.121 183.851 966.543 194.791 969.289 215.408 965.772 234.842 962.441 251.376 954.883 254.14 953.082 249.556 957.666 232.704 966.249 215.861 969.05" id="path2854" fill="#4E9768"/><path d="M215.857 969.041C199.566 971.735 183.374 971.174 175.165 965.145 183.851 966.553 194.795 969.303 215.408 965.786 234.823 962.465 251.347 954.902 254.098 953.11 249.523 957.685 232.629 966.253 215.857 969.041" id="path2856" fill="#4F9768"/><path d="M215.852 969.027C199.618 971.712 183.416 971.169 175.221 965.164 183.855 966.567 194.8 969.317 215.403 965.804 234.799 962.488 251.324 954.92 254.056 953.138 249.491 957.703 232.559 966.253 215.852 969.027" id="path2858" fill="#509769"/><path d="M215.843 969.013C199.669 971.684 183.458 971.164 175.273 965.187 183.855 966.581 194.8 969.326 215.403 965.818 234.781 962.507 251.301 954.939 254.018 953.171 249.453 957.722 232.484 966.258 215.843 969.013" id="path2860" fill="#51986A"/><path d="M215.838 968.999C199.72 971.66 183.5 971.16 175.329 965.206 183.86 966.59 194.805 969.34 215.398 965.837 234.762 962.53 251.273 954.958 253.976 953.199 249.42 957.741 232.409 966.258 215.838 968.999" id="path2862" fill="#52996A"/><path d="M215.833 968.99C199.772 971.632 183.537 971.155 175.385 965.229 183.86 966.604 194.809 969.354 215.398 965.851 234.743 962.554 251.249 954.977 253.934 953.227 249.388 957.76 232.339 966.258 215.833 968.99" id="path2864" fill="#52996B"/><path d="M215.829 968.975C199.823 971.609 183.579 971.15 175.441 965.248 183.865 966.613 194.809 969.364 215.394 965.87 234.72 962.577 251.226 954.995 253.892 953.255 249.355 957.778 232.264 966.263 215.829 968.975" id="path2866" fill="#539A6B"/><path d="M215.819 968.961C199.875 971.581 183.621 971.146 175.492 965.266 183.865 966.628 194.814 969.378 215.394 965.884 234.701 962.596 251.198 955.014 253.85 953.288 249.322 957.797 232.19 966.263 215.819 968.961" id="path2868" fill="#549B6D"/><path d="M215.815 968.947C199.926 971.557 183.664 971.141 175.549 965.29 183.869 966.642 194.819 969.392 215.389 965.903 234.683 962.619 251.174 955.033 253.808 953.316 249.285 957.816 232.119 966.267 215.815 968.947" id="path2870" fill="#559B6D"/><path d="M215.81 968.938C199.978 971.534 183.706 971.136 175.605 965.309 183.874 966.651 194.819 969.401 215.384 965.917 234.664 962.643 251.151 955.051 253.766 953.344 249.252 957.834 232.045 966.267 215.81 968.938" id="path2872" fill="#569C6E"/><path d="M215.801 968.924C200.029 971.506 183.743 971.132 175.661 965.332 183.874 966.665 194.823 969.415 215.384 965.935 234.64 962.666 251.123 955.07 253.728 953.377 249.219 957.853 231.974 966.267 215.801 968.924" id="path2874" fill="#579C6F"/><path d="M215.796 968.91C200.081 971.482 183.785 971.127 175.712 965.351 183.879 966.679 194.828 969.424 215.38 965.949 234.622 962.689 251.1 955.089 253.686 953.405 249.187 957.872 231.9 966.272 215.796 968.91" id="path2876" fill="#589D70"/><path d="M215.791 968.896C200.132 971.454 183.827 971.122 175.768 965.374 183.879 966.688 194.828 969.439 215.38 965.968 234.603 962.708 251.076 955.108 253.644 953.433 249.154 957.891 231.825 966.272 215.791 968.896" id="path2878" fill="#599D70"/><path d="M215.787 968.887C200.183 971.431 183.869 971.118 175.825 965.393 183.883 966.702 194.833 969.453 215.375 965.982 234.584 962.731 251.048 955.126 253.602 953.461 249.121 957.909 231.755 966.277 215.787 968.887" id="path2880" fill="#5A9E71"/><path d="M215.777 968.873C200.235 971.403 183.907 971.113 175.881 965.411 183.883 966.712 194.837 969.462 215.375 966.001 234.561 962.755 251.025 955.145 253.56 953.494 249.084 957.928 231.68 966.277 215.777 968.873" id="path2882" fill="#5B9F71"/><path d="M215.773 968.859C200.286 971.38 183.949 971.108 175.932 965.435 183.888 966.726 194.837 969.476 215.37 966.015 234.542 962.778 251.001 955.164 253.518 953.522 249.051 957.947 231.605 966.281 215.773 968.859" id="path2884" fill="#5CA072"/><path d="M215.768 968.844C200.338 971.352 183.991 971.104 175.988 965.454 183.888 966.74 194.842 969.49 215.366 966.034 234.524 962.797 250.973 955.182 253.476 953.55 249.018 957.965 231.535 966.281 215.768 968.844" id="path2886" fill="#5DA073"/><path d="M215.763 968.835C200.389 971.328 184.033 971.099 176.044 965.477 183.893 966.749 194.847 969.499 215.366 966.048 234.505 962.82 250.95 955.201 253.434 953.578 248.985 957.984 231.46 966.281 215.763 968.835" id="path2888" fill="#5EA174"/><path d="M215.754 968.821C200.436 971.3 184.07 971.094 176.096 965.496 183.897 966.763 194.847 969.513 215.361 966.066 234.481 962.844 250.927 955.22 253.396 953.611 248.953 958.003 231.385 966.286 215.754 968.821" id="path2890" fill="#5FA174"/><path d="M215.749 968.807C200.488 971.277 184.113 971.09 176.152 965.519 183.897 966.773 194.851 969.527 215.361 966.08 234.463 962.867 250.898 955.239 253.354 953.639 248.915 958.021 231.315 966.286 215.749 968.807" id="path2892" fill="#60A275"/><path d="M215.745 968.793C200.539 971.249 184.155 971.085 176.208 965.538 183.902 966.787 194.856 969.537 215.356 966.099 234.444 962.886 250.875 955.257 253.312 953.667 248.883 958.04 231.24 966.291 215.745 968.793" id="path2894" fill="#61A376"/><path d="M215.74 968.784C200.59 971.225 184.197 971.08 176.264 965.556 183.902 966.801 194.856 969.551 215.356 966.113 234.425 962.909 250.852 955.276 253.27 953.7 248.85 958.059 231.165 966.291 215.74 968.784" id="path2896" fill="#62A477"/><path d="M215.731 968.77C200.642 971.197 184.239 971.076 176.316 965.58 183.907 966.81 194.861 969.565 215.352 966.132 234.402 962.932 250.824 955.295 253.228 953.728 248.817 958.078 231.095 966.291 215.731 968.77" id="path2898" fill="#63A478"/><path d="M215.726 968.756C200.693 971.174 184.276 971.071 176.372 965.599 183.907 966.824 194.865 969.574 215.347 966.146 234.383 962.956 250.8 955.309 253.186 953.756 248.784 958.096 231.02 966.295 215.726 968.756" id="path2900" fill="#64A579"/><path d="M215.721 968.746C200.745 971.146 184.318 971.066 176.428 965.622 183.911 966.838 194.865 969.588 215.347 966.164 234.365 962.975 250.777 955.327 253.144 953.784 248.752 958.115 230.95 966.295 215.721 968.746" id="path2902" fill="#65A579"/><path d="M215.712 968.732C200.796 971.122 184.36 971.062 176.484 965.641 183.911 966.847 194.87 969.598 215.342 966.178 234.346 962.998 250.749 955.346 253.106 953.817 248.714 958.134 230.875 966.3 215.712 968.732" id="path2904" fill="#66A67A"/><path d="M215.707 968.718C200.848 971.094 184.403 971.057 176.536 965.664 183.916 966.861 194.875 969.612 215.342 966.197 234.322 963.021 250.725 955.365 253.064 953.845 248.681 958.152 230.8 966.3 215.707 968.718" id="path2906" fill="#67A67A"/><path d="M215.702 968.704C200.899 971.071 184.44 971.052 176.592 965.683 183.921 966.871 194.88 969.626 215.338 966.211 234.304 963.045 250.702 955.383 253.022 953.873 248.649 958.171 230.73 966.3 215.702 968.704" id="path2908" fill="#68A77B"/><path d="M215.698 968.695C200.951 971.043 184.482 971.047 176.648 965.701 183.921 966.885 194.88 969.635 215.338 966.23 234.285 963.063 250.674 955.402 252.98 953.906 248.616 958.19 230.655 966.305 215.698 968.695" id="path2910" fill="#69A87C"/><path d="M215.688 968.681C201.002 971.019 184.524 971.043 176.704 965.725 183.926 966.899 194.884 969.649 215.333 966.244 234.266 963.087 250.651 955.421 252.938 953.934 248.583 958.209 230.581 966.305 215.688 968.681" id="path2912" fill="#6AA87D"/><path d="M215.684 968.667C201.053 970.991 184.566 971.038 176.755 965.744 183.926 966.908 194.889 969.663 215.333 966.263 234.243 963.11 250.627 955.44 252.896 953.962 248.55 958.227 230.51 966.309 215.684 968.667" id="path2914" fill="#6BA97E"/><path d="M215.679 968.653C201.105 970.968 184.604 971.033 176.811 965.767 183.93 966.922 194.889 969.672 215.328 966.277 234.224 963.134 250.599 955.458 252.854 953.99 248.513 958.246 230.436 966.309 215.679 968.653" id="path2916" fill="#6CA97E"/><path d="M215.674 968.643C201.156 970.94 184.646 971.029 176.868 965.786 183.93 966.936 194.894 969.686 215.324 966.295 234.205 963.152 250.576 955.477 252.816 954.022 248.48 958.265 230.361 966.309 215.674 968.643" id="path2918" fill="#6DAA7F"/><path d="M215.665 968.629C201.208 970.917 184.688 971.024 176.924 965.809 183.935 966.946 194.898 969.7 215.324 966.309 234.187 963.176 250.552 955.496 252.774 954.05 248.448 958.283 230.291 966.314 215.665 968.629" id="path2920" fill="#6EAA80"/><path d="M215.66 968.615C201.259 970.888 184.73 971.019 176.975 965.828 183.935 966.96 194.898 969.71 215.319 966.328 234.168 963.199 250.529 955.514 252.732 954.079 248.415 958.302 230.216 966.314 215.66 968.615" id="path2922" fill="#6FAC81"/><path d="M215.656 968.601C201.306 970.865 184.767 971.015 177.031 965.846 183.94 966.969 194.903 969.724 215.319 966.342 234.145 963.222 250.501 955.533 252.69 954.111 248.382 958.321 230.141 966.319 215.656 968.601" id="path2924" fill="#70AC81"/><path d="M215.646 968.592C201.357 970.837 184.809 971.01 177.087 965.87 183.944 966.983 194.908 969.738 215.314 966.361 234.126 963.241 250.477 955.552 252.648 954.139 248.345 958.339 230.071 966.319 215.646 968.592" id="path2926" fill="#72AD82"/><path d="M215.642 968.578C201.409 970.814 184.852 971.005 177.144 965.888 183.944 966.997 194.908 969.747 215.314 966.375 234.107 963.265 250.449 955.571 252.606 954.167 248.312 958.358 229.996 966.319 215.642 968.578" id="path2928" fill="#72AD83"/><path d="M215.637 968.564C201.46 970.786 184.894 971.001 177.195 965.912 183.949 967.006 194.912 969.761 215.31 966.394 234.089 963.288 250.426 955.589 252.564 954.195 248.279 958.377 229.921 966.323 215.637 968.564" id="path2930" fill="#74AE84"/><path d="M215.632 968.55C201.512 970.762 184.936 970.996 177.251 965.931 183.949 967.02 194.917 969.775 215.305 966.408 234.065 963.311 250.403 955.608 252.521 954.228 248.246 958.396 229.851 966.323 215.632 968.55" id="path2932" fill="#75AE85"/><path d="M215.628 968.54C201.563 970.734 184.973 970.991 177.307 965.954 183.954 967.03 194.917 969.785 215.305 966.426 234.046 963.335 250.379 955.627 252.484 954.256 248.214 958.414 229.776 966.328 215.628 968.54" id="path2934" fill="#76B086"/><path d="M215.618 968.526C201.615 970.711 185.015 970.987 177.359 965.973 183.954 967.044 194.922 969.799 215.3 966.44 234.028 963.353 250.351 955.645 252.442 954.284 248.176 958.433 229.706 966.328 215.618 968.526" id="path2936" fill="#77B086"/><path d="M215.614 968.512C201.666 970.683 185.057 970.982 177.415 965.996 183.958 967.058 194.926 969.808 215.3 966.459 234.009 963.377 250.328 955.664 252.4 954.312 248.144 958.452 229.631 966.328 215.614 968.512" id="path2938" fill="#78B188"/><path d="M215.609 968.498C201.718 970.659 185.099 970.977 177.471 966.015 183.958 967.067 194.926 969.822 215.296 966.473 233.986 963.4 250.304 955.683 252.358 954.345 248.111 958.47 229.556 966.333 215.609 968.498" id="path2940" fill="#79B188"/><path d="M215.6 968.489C201.769 970.631 185.137 970.973 177.527 966.034 183.963 967.081 194.931 969.836 215.296 966.492 233.967 963.424 250.276 955.702 252.316 954.373 248.078 958.489 229.486 966.333 215.6 968.489" id="path2942" fill="#7AB28A"/><path d="M215.595 968.475C201.82 970.608 185.179 970.968 177.579 966.057 183.968 967.095 194.936 969.845 215.291 966.506 233.948 963.442 250.253 955.72 252.274 954.401 248.045 958.508 229.411 966.338 215.595 968.475" id="path2944" fill="#7BB38A"/><path d="M215.59 968.461C201.872 970.58 185.221 970.963 177.635 966.076 183.968 967.105 194.936 969.859 215.291 966.525 233.93 963.466 250.23 955.739 252.231 954.434 248.013 958.527 229.337 966.338 215.59 968.461" id="path2946" fill="#7CB48B"/><path d="M215.586 968.447C201.923 970.556 185.263 970.959 177.691 966.099 183.972 967.119 194.94 969.873 215.286 966.539 233.906 963.489 250.202 955.758 252.194 954.462 247.975 958.545 229.266 966.338 215.586 968.447" id="path2948" fill="#7DB48B"/><path d="M215.576 968.438C201.975 970.528 185.301 970.954 177.747 966.118 183.972 967.128 194.945 969.883 215.282 966.557 233.887 963.513 250.178 955.776 252.152 954.49 247.942 958.564 229.192 966.342 215.576 968.438" id="path2950" fill="#7FB58C"/><path d="M215.572 968.424C202.026 970.505 185.343 970.949 177.798 966.141 183.977 967.142 194.945 969.897 215.282 966.571 233.869 963.531 250.155 955.795 252.11 954.518 247.91 958.583 229.117 966.342 215.572 968.424" id="path2952" fill="#7FB58D"/></g></g></svg>