<?xml version="1.0" encoding="UTF-8"?>
<svg id="Layer_2" data-name="Layer 2" xmlns="http://www.w3.org/2000/svg" viewBox="0 0 599.87 93.6">
  <defs>
    <style>
      .cls-1 {
        fill: #26235d;
      }

      .cls-1, .cls-2 {
        stroke-width: 0px;
      }

      .cls-2 {
        fill: #de1b54;
      }
    </style>
  </defs>
  <g id="layer">
    <path class="cls-1" d="M137.57,43.7c-5.8-1.4-10.5-2.6-10.5-7,0-4.8,5.3-6.5,10.3-6.5,3.4,0,6.5.5,9.6,1.7.5.2,1,.2,1.2.2,1.9,0,2.9-1.7,2.9-3.1s-.7-2.4-1.9-2.9c-3.6-1.4-7.9-2.2-12.2-2.2-11.3,0-16.3,6.5-16.3,12.9,0,8.9,8.4,11,15.8,12.9,5.5,1.4,10.1,2.6,10.1,6.2,0,4.3-3.4,6.5-10.3,6.5-4.1,0-8.1-.7-11.7-2.4-.5-.2-1-.2-1.4-.2-1.9,0-2.9,1.4-2.9,3.1,0,1.2,1,2.4,1.9,2.9,4.6,1.9,9.6,2.9,14.6,2.9,9.6,0,16.1-5,16.1-12.5,0-8.9-8.1-10.8-15.3-12.5ZM199.37,24.5c-1.7,0-3.1,1.4-3.1,3.4v24.2c0,7.4-6,10.8-11.5,10.8s-11.5-3.4-11.5-10.8v-24.2c0-1.7-1.4-3.4-3.4-3.4-1.7,0-3.1,1.4-3.1,3.4v24c0,11.3,9.1,17,18,17s18-5.8,18-17v-24c0-1.7-1.7-3.4-3.4-3.4ZM248.57,25h-30.4c-1.7,0-3.1,1.4-3.1,3.1s1.2,3.1,3.1,3.1h12v34.5c0,1.7,1.4,3.1,3.1,3.1,1.9,0,3.4-1.4,3.4-3.1V30.9h12c1.7,0,3.1-1.4,3.1-3.1-.1-1.6-1.3-2.8-3.2-2.8ZM296.27,24.5c-1.7,0-3.1,1.4-3.1,3.4v15.8h-22.1v-15.8c0-1.7-1.4-3.4-3.4-3.4-1.7,0-3.1,1.4-3.1,3.4v37.6c0,1.7,1.4,3.1,3.1,3.1,1.9,0,3.4-1.4,3.4-3.1v-15.8h22.1v15.8c0,1.7,1.4,3.1,3.1,3.1,1.9,0,3.4-1.4,3.4-3.1V27.9c-.1-1.7-1.5-3.4-3.4-3.4ZM345.17,31c1.7,0,3.1-1.4,3.1-3.1s-1.4-3.1-3.1-3.1h-24.4c-1.7,0-3.1,1.4-3.1,3.4v36.9c0,1.7,1.4,3.1,3.1,3.1h24.4c1.7,0,3.1-1.4,3.1-3.1s-1.4-3.1-3.1-3.1h-21.1v-12.5h18.9c1.7,0,3.1-1.4,3.1-3.1s-1.4-3.1-3.1-3.1h-18.9v-12.5l21.1.2h0ZM397.17,37.7c0-8.1-6.2-12.9-17-12.9h-14.1c-1.7,0-3.1,1.4-3.1,3.4v37.4c0,1.7,1.4,3.1,3.1,3.1,1.9,0,3.4-1.4,3.4-3.1v-13.7h12.2c7.9,0,8.9,6.2,8.9,11.7v1.9c0,1.9,1.4,3.1,3.4,3.1,1.7,0,3.1-1.4,3.1-3.1v-2.9c0-2.6-.5-11.3-6.7-13.9,3.9-1.9,6.8-6,6.8-11ZM390.47,38.2c0,4.6-4.1,7.4-11,7.4h-10.5v-14.6h10.3c10,0,11.2,3.8,11.2,7.2ZM439.07,61.9h-19.4V27.9c0-1.7-1.4-3.4-3.4-3.4-1.7,0-3.1,1.4-3.1,3.4v36.2c0,2.4,1.9,4.3,4.3,4.3h21.6c1.9,0,3.4-1.4,3.4-3.1,0-2-1.5-3.4-3.4-3.4ZM477.67,27.4c-.7-1.7-2.2-2.9-4.1-2.9h-.7c-1.7,0-3.1,1-4.1,2.9l-15.6,36.7c-.2.5-.2,1-.2,1.4,0,1.9,1.4,3.1,3.1,3.1,1.4,0,2.4-.7,3.1-1.9l3.8-9.1h20.1l3.8,9.1c.5,1.2,1.7,1.9,3.1,1.9,1.9,0,3.1-1.4,3.1-3.1,0-.5,0-1-.2-1.4l-15.2-36.7ZM480.77,51.4h-15.1l7.4-18,7.7,18ZM541.47,24.5c-1.7,0-3.1,1.4-3.1,3.4v31.4l-22.6-32.6c-1-1.2-2.4-1.9-3.8-1.9h-.7c-2.4,0-4.6,1.9-4.6,4.6v36.4c0,1.7,1.4,3.1,3.1,3.1,1.9,0,3.4-1.4,3.4-3.1v-31.6l22.8,32.8c1,1.2,2.2,1.9,3.6,1.9h.7c2.4,0,4.6-1.9,4.6-4.6V27.9c-.3-1.7-1.8-3.4-3.4-3.4ZM594.37,31.9c-4.1-4.6-9.8-7-16.5-7h-12.2c-1.7,0-3.1,1.4-3.1,3.4v37c0,1.7,1.4,3.1,3.1,3.1h12.2c7,0,12.5-2.4,16.5-7,3.4-3.8,5.5-9.3,5.5-14.9s-1.9-10.7-5.5-14.6ZM593.47,46.6c0,9.3-6.5,15.6-16.3,15.6h-8.4v-31.2h8.4c9.8,0,16.3,6.2,16.3,15.6Z"/>
    <path class="cls-1" d="M58.67,26.7c-1.9-.2-3.6-.2-5.5,0-1,0-1.7.5-2.2,1.4-.5,1-.2,1.9.5,2.6l34.5,33.3c.5.5,1,.7,1.9.7,1.2,0,1.7-.7,1.9-1.4.7-1.7,1.2-3.4,1.7-5.3.2-1,0-2.2-.7-2.9l-.2-.2-27.8-26.3c-1.2-1.2-2.6-1.7-4.1-1.9ZM32.87,66.7c1.9.2,3.6.2,5.5,0,1,0,1.7-.5,2.2-1.4.5-1,.2-1.9-.5-2.6L5.57,29.6c-.5-.5-1-.7-1.9-.7-1.2,0-1.7.7-1.9,1.4-.7,1.7-1.2,3.4-1.7,5.3-.2,1,0,2.2.7,2.9l.2.2,27.8,26.3c1.2,1,2.6,1.7,4.1,1.7Z"/>
    <path class="cls-2" d="M28.07,7l15.6,15.8c4.3,4.3,10.8-2.4,6.7-6.7l-13.4-13.9c-1.7-1.9-5-.2-7,.5-1.9.5-3.6,2.4-1.9,4.3ZM79.77,31.7c4.3,4.3,10.8-2.4,6.7-6.7l-20.6-20.4c-2.2-2.2-5.3-2.9-7.9-3.6-1.7-.5-3.6-1-5.3-1-1,0-1.7,0-2.2,1-.2.7-.2,1.4.2,1.9l29.1,28.8ZM80.57,74.6L18.17,12.3c-1.7-1.7-3.8-.2-5,1.2-1.4,1.4-3.4,3.6-1.4,5.5l62.3,62.3c1.7,1.7,3.6.5,5-1,1.2-1.4,3.4-3.5,1.5-5.7ZM63.77,86.6l-15.6-15.6c-4.3-4.3-10.8,2.4-6.7,6.7l13.4,13.9c1.7,1.9,5,.2,7-.5,2.1-.9,3.8-2.6,1.9-4.5ZM12.17,61.9c-4.3-4.3-10.8,2.4-6.7,6.7l20.6,20.4c2.2,2.2,5.3,2.9,7.9,3.6,1.7.5,3.6,1,5.3,1,1,0,1.7,0,2.2-1,.2-.7.2-1.4-.2-1.9l-29.1-28.8Z"/>
  </g>
</svg>