<?xml version="1.0" encoding="UTF-8"?>
<svg id="Layer_2" data-name="Layer 2" xmlns="http://www.w3.org/2000/svg" viewBox="0 0 714.8 163.89">
  <defs>
    <style>
      .cls-1 {
        fill: #000;
      }

      .cls-1, .cls-2 {
        stroke-width: 0px;
      }

      .cls-2 {
        fill: #ec192d;
      }
    </style>
  </defs>
  <g id="layer">
    <path class="cls-1" d="M445.79,10.97h0c3.45,1.22,5.27,1.89,5.74,1.89,1.01,0,1.76-.54,2.3-1.22.68-.88,1.01-1.69,1.15-2.7h2.3v19.13h-1.96c-1.96-4.06-3.92-7.43-5.88-9.8-3.58-4.39-7.84-6.62-12.44-6.62-5.41,0-9.19,2.37-11.29,7.1-2.3,4.73-3.45,11.02-3.45,18.99,0,5.95.68,10.68,1.96,14.4,2.43,7.1,7.03,10.68,13.58,10.68,4.06,0,7.84-1.22,11.29-3.58,1.96-1.35,4.46-3.58,7.03-6.42l2.3,2.03c-2.97,3.58-5.74,6.08-8.04,7.64-4.26,2.91-8.85,4.26-13.92,4.26-7.7,0-14.26-2.37-19.46-7.1-5.88-5.27-8.85-12.37-8.85-21.36s2.77-16.08,8.52-21.49c5.27-5.07,11.62-7.77,19.19-7.77,3.24-.07,6.69.61,9.93,1.96v-.02Z"/>
    <path class="cls-1" d="M459.44,63.14h0c1.28-.2,2.43-.54,3.11-1.22.68-.54,1.01-1.89,1.01-3.72V16.7c0-1.69-.14-2.91-.81-3.38-.47-.68-1.62-1.22-3.24-1.35v-2.03h15.21v23.05c1.49-2.03,3.24-3.72,5.07-4.73,1.82-1.22,3.78-1.69,5.88-1.69,3.11,0,5.54,1.01,7.5,2.7,1.96,1.89,2.97,4.93,2.97,9.33v19.67c0,1.89.34,3.04,1.01,3.58.68.68,1.62,1.01,3.11,1.35v2.03h-18.65v-2.03c1.49-.2,2.43-.68,2.97-1.22.47-.54.81-1.55.81-3.38v-19.8c0-1.89-.14-3.24-.68-4.06-.47-1.69-1.76-2.57-3.58-2.57-1.28,0-2.77.68-4.26,1.89-1.28,1.35-2.1,2.23-2.1,2.7v21.83c0,1.89.34,2.91.81,3.38.47.54,1.49,1.01,2.77,1.22v2.03h-18.92v-2.1.02Z"/>
    <path class="cls-1" d="M499.04,63.14h0c1.28-.2,2.3-.54,2.77-1.01.68-.68,1.15-2.03,1.15-3.92v-23.86c0-1.69-.34-2.91-.81-3.38-.47-.68-1.62-1.22-3.11-1.35v-2.03h14.94v30.95c0,1.89.34,2.91.81,3.38.47.54,1.49,1.01,2.97,1.22v2.03h-18.65v-2.03h-.07ZM504.11,10.83h0c1.15-1.35,2.64-1.89,4.46-1.89,1.62,0,3.11.54,4.26,1.89,1.15,1.22,1.76,2.7,1.76,4.39s-.68,3.24-1.76,4.6c-1.15,1.22-2.64,1.89-4.26,1.89-1.82,0-3.31-.68-4.46-1.89-1.15-1.35-1.82-2.91-1.82-4.6s.68-3.24,1.82-4.39Z"/>
    <path class="cls-1" d="M516.55,63.14h0c1.49-.34,2.43-.68,2.97-1.35.68-.54.81-1.69.81-3.58V16.72c0-1.69-.2-2.91-.68-3.38-.68-.68-1.62-1.01-3.11-1.35v-2.03h14.94v48.25c0,1.89.34,3.04,1.01,3.58.47.54,1.49,1.01,2.97,1.35v2.03h-18.86v-2.03h-.07.02Z"/>
    <path class="cls-1" d="M539.32,32.12h0c3.11-3.72,6.56-5.61,10.81-5.61,1.96,0,3.92.54,5.54,1.69,1.01.54,2.16,1.69,3.78,3.38v-14.87c0-2.03-.47-3.38-1.15-3.92-.81-.54-2.43-.88-4.73-.88v-2.03h17.03v47.04c0,1.55.14,2.7.81,3.38.67.68,1.82,1.01,3.58,1.22v1.89c-4.39.54-7.23.88-8.52,1.01-1.28.34-3.58.88-6.89,1.69v-5.27c-1.49,1.55-2.77,2.7-4.06,3.58-1.96,1.22-3.92,1.69-6.22,1.69-3.92,0-7.23-1.69-10.21-4.93-2.77-3.38-4.26-7.97-4.26-13.85,0-6.42,1.49-11.49,4.46-15.21h.03ZM557.3,59.22h0c1.49-1.55,2.16-2.57,2.16-3.24v-19.8c0-.68-.68-1.69-1.82-3.04-1.15-1.22-2.64-1.89-4.6-1.89-2.77,0-4.73,2.03-5.74,5.95-.47,2.23-.81,5.27-.81,9.12,0,4.26.34,7.43.81,9.46.81,3.92,2.77,5.74,5.41,5.74,1.82.07,3.31-.61,4.6-2.3h0Z"/>
    <path class="cls-1" d="M573.99,63.14h0c1.49-.2,2.43-.54,3.11-1.01.47-.54.81-1.69,1.01-3.24v-24.53c0-1.69-.34-2.91-.81-3.58s-1.62-1.01-3.24-1.22v-2.03h14.73v6.42c1.82-2.37,3.45-4.06,5.07-5.41,1.62-1.35,3.58-2.03,5.74-2.03,1.62,0,3.11.54,4.39,1.69,1.28,1.01,1.96,2.57,1.96,4.6,0,1.69-.47,3.04-1.49,4.06-.81,1.01-2.16,1.55-3.58,1.55-1.62,0-3.11-.88-4.26-2.37-1.28-1.69-2.16-2.57-2.64-2.57-1.01,0-2.16.68-3.11,2.03-1.15,1.35-1.62,3.24-1.62,5.74v15.54c0,2.7.34,4.39,1.15,5.07.68.68,2.3,1.01,4.6,1.22v2.03h-20.95v-1.96h-.07.01Z"/>
    <path class="cls-1" d="M608.39,31.78h0c3.24-3.58,7.23-5.27,11.76-5.27,2.64,0,4.93.68,7.23,2.23,2.3,1.35,4.06,3.24,5.41,5.74.81,1.89,1.49,4.39,1.76,7.3.2,1.55.34,2.57.34,3.38h-20.14c.2,3.24.68,5.95,1.62,8.45,1.49,4.39,4.26,6.62,8.04,6.62,1.76,0,3.58-.54,5.27-1.69,1.01-.68,2.3-2.03,3.78-3.72l1.76,1.22c-2.43,4.26-5.27,7.1-8.52,8.65-1.96,1.01-4.46,1.55-7.03,1.55-3.92,0-7.5-1.55-10.95-4.73-3.45-3.04-5.07-8.11-5.07-15.07,0-6.35,1.62-11.29,4.73-14.67h.01ZM625.29,42h0c0-4.73-.47-7.97-1.15-10-.68-1.89-1.96-2.7-3.92-2.7-2.16,0-3.45,1.01-4.26,3.24-.81,2.23-1.15,5.41-1.28,9.46h10.61Z"/>
    <path class="cls-1" d="M633.94,63.14h0c1.49-.2,2.43-.54,3.24-1.22.68-.54,1.01-1.89,1.01-3.72v-23.86c0-1.69-.34-2.91-.81-3.58-.68-.54-1.82-1.01-3.45-1.22v-2.03h14.94v5.95c1.28-2.03,2.77-3.72,4.73-4.93,1.96-1.35,4.12-2.03,6.56-2.03,3.24,0,5.88.88,7.84,2.7,1.82,1.89,2.77,5.07,2.77,9.46v19.8c0,1.89.34,3.04,1.01,3.58.47.54,1.49.88,2.97,1.01v2.03h-18.52v-2.03c1.28-.2,2.3-.68,2.77-1.22.68-.54.81-1.55.81-3.38v-19.8c0-1.89-.14-3.24-.47-4.06-.68-1.69-1.82-2.57-3.58-2.57-1.49,0-2.64.54-3.78,1.55-1.15,1.01-2.1,2.03-2.77,3.04v21.83c0,1.89.34,2.91.81,3.38.47.54,1.49,1.01,2.97,1.22v2.03h-18.99v-1.96h-.07v.03Z"/>
    <path class="cls-1" d="M688.01,52.81h2.3c.68,3.92,2.1,6.62,4.26,8.31,2.1,1.55,4.26,2.37,6.35,2.37s3.58-.54,4.46-1.55c1.01-.88,1.49-2.03,1.49-3.72,0-1.35-.47-2.7-1.49-3.72-.68-.54-1.49-1.01-2.77-1.69l-5.88-3.04c-2.97-1.55-5.27-3.24-6.56-5.07-1.28-1.89-1.96-3.92-1.96-6.42,0-3.24,1.01-5.95,3.11-8.31,2.1-2.23,5.27-3.38,8.99-3.38,1.62,0,3.45.34,5.41.88,1.76.54,2.97.88,3.45.88.68,0,1.15-.2,1.49-.34.14-.34.47-.68.68-1.22h1.62v11.62h-1.96c-.81-2.7-1.96-4.93-3.78-6.62-1.62-1.69-3.58-2.57-5.88-2.57-1.76,0-3.11.54-3.92,1.55-.81,1.01-1.28,2.23-1.28,3.24s.34,2.03,1.15,2.91c.68,1.01,2.1,2.03,4.26,3.04l4.26,2.23c2.77,1.35,4.73,2.57,5.88,3.92,2.1,2.03,3.11,4.73,3.11,7.77s-1.01,5.95-3.11,8.45c-2.16,2.7-5.41,3.92-9.46,3.92-1.15,0-2.16,0-3.24-.34-1.01-.2-2.3-.54-3.92-1.22l-1.28-.34c-.47-.34-.81-.34-1.01-.34-.13-.13-.29-.2-.47-.2-.34,0-.81.2-1.15.68-.2.34-.68.88-1.01,1.69h-1.96v-13.38h-.18Z"/>
    <path class="cls-1" d="M674.56,35.5h0c2.43-1.69,4.26-3.24,5.54-4.6,2.1-2.23,3.11-4.26,3.11-6.29,0-.54,0-1.01-.34-1.35-.34-.34-.68-.54-1.15-.54-1.01.2-1.49.2-1.82.2-1.62,0-3.11-.54-4.26-1.69-1.01-1.22-1.62-2.7-1.62-4.6,0-2.03.68-3.72,1.82-5.07,1.15-1.22,2.77-1.89,4.93-1.89,2.3,0,4.06.88,5.54,2.57,1.48,1.69,2.3,4.06,2.3,6.96,0,4.26-1.62,8.11-4.73,11.49-1.96,2.23-4.73,4.39-8.31,6.42l-1.01-1.62h0Z"/>
    <path class="cls-1" d="M261.28,32.32h0c3.24-3.58,7.23-5.27,11.76-5.27,2.64,0,4.93.68,7.23,2.23,2.3,1.35,4.12,3.24,5.41,5.74.81,1.89,1.49,4.39,1.82,7.3.14,1.55.34,2.57.34,3.38h-20.21c.14,3.24.68,5.95,1.62,8.45,1.49,4.39,4.12,6.62,8.04,6.62,1.82,0,3.58-.54,5.27-1.69,1.01-.68,2.3-2.03,3.78-3.72l1.82,1.22c-2.43,4.26-5.27,7.1-8.52,8.65-2.16,1.01-4.39,1.55-7.23,1.55-3.78,0-7.37-1.55-10.81-4.73-3.45-3.04-5.07-8.11-5.07-15.07,0-6.42,1.62-11.29,4.73-14.67h.02ZM278.11,42.47h0c0-4.73-.47-7.97-1.15-10-.68-1.89-1.96-2.7-3.92-2.7-2.1,0-3.45,1.01-4.26,3.24-.81,2.23-1.15,5.41-1.28,9.46h10.61Z"/>
    <path class="cls-1" d="M287.51,63.61h0c1.28-.2,2.43-.68,3.45-1.22,1.01-.68,2.3-2.23,4.26-4.73.81-1.01,1.96-2.37,3.24-4.26,1.28-1.69,2.3-3.24,3.24-4.39l-10.14-15.88c-1.01-1.35-1.49-2.03-1.96-2.37-.47-.34-1.28-.54-2.3-.68v-2.03h19.8v2.03c-1.82.2-2.97.34-3.24.54-.34.2-.47.54-.47,1.01,0,.54.68,1.89,2.16,4.06,1.28,2.23,2.43,3.92,3.45,5.41,2.64-3.58,4.26-5.74,4.93-6.76s1.01-1.69,1.01-2.37c0-.88-.34-1.35-1.01-1.55-.47-.2-1.62-.34-2.97-.34v-2.03h13.11v2.03c-1.01.2-1.82.34-2.43.68-1.15.54-2.16,1.35-2.97,2.37l-8.18,10.34,11.76,18.45c.34.54.68.88,1.01,1.01.34.34.81.54,1.49.68v2.03h-19.13v-2.03c1.15,0,1.96-.2,2.64-.34.68-.2,1.01-.68,1.01-1.35,0-.54-.34-1.22-.81-2.23-.34-.54-.81-1.55-1.49-2.57-.47-.68-1.01-1.55-1.62-2.57-.81-1.22-1.49-2.23-1.96-3.04-1.82,2.23-2.97,3.92-3.92,5.07-1.62,2.57-2.43,4.06-2.43,4.93s.34,1.35,1.01,1.69c.68.2,1.62.34,2.97.34v2.03h-13.52v-1.96h.01Z"/>
    <path class="cls-1" d="M329.75,49.22h0c3.45-2.23,8.85-4.39,16.02-6.62v-5.95c0-2.37-.47-4.06-1.49-5.27-1.02-1.21-2.64-1.69-5.27-1.69-1.49,0-2.64.2-3.45.88-1.01.54-1.49,1.22-1.49,2.03,0,.2.14.54.14.68.14.34.34.54.47.68l.47.68c.34.34.68.88.81,1.35.34.68.34,1.22.34,1.89,0,1.55-.47,2.7-1.49,3.58-1.02.88-2.1,1.22-3.45,1.22-1.49,0-2.77-.54-3.92-1.35-1.01-1.01-1.49-2.37-1.49-4.06,0-3.04,1.28-5.61,4.26-7.43,2.77-1.69,6.35-2.7,10.48-2.7,4.39,0,8.18.88,11.15,2.7,3.11,1.89,4.6,5.07,4.6,10v19.67c0,.68.14,1.22.34,1.55.34.54.68.68,1.01.68s.68-.2.81-.2c.34-.2.68-.54,1.15-1.01l1.28,1.69c-1.62,1.89-3.24,3.24-5.27,3.92-1.15.54-2.3.68-3.58.68-2.43,0-4.12-.68-5.27-2.03-.47-.88-1.01-2.03-1.28-3.58-2.16,2.23-4.6,3.92-7.37,4.73-1.62.68-3.24.88-4.93.88-2.3,0-4.26-.68-6.08-2.03-1.96-1.55-2.77-3.72-2.77-6.62.14-3.85,1.82-6.69,5.27-8.92v-.03ZM343.47,59.75h0c.68-.54,1.28-1.22,2.16-2.23v-12.03c-1.96.54-3.92,1.35-5.54,2.57-2.64,2.03-3.92,4.39-3.92,7.43,0,1.89.34,3.24,1.15,4.06.81,1.01,1.62,1.35,2.64,1.35,1.22,0,2.37-.34,3.51-1.15Z"/>
    <path class="cls-1" d="M360.7,53.28h2.16c.81,3.92,2.3,6.62,4.39,8.31,1.96,1.55,4.26,2.37,6.35,2.37,1.96,0,3.58-.54,4.39-1.35,1.01-1.01,1.49-2.23,1.49-3.92,0-1.35-.47-2.7-1.49-3.72-.68-.54-1.49-1.01-2.77-1.69l-5.88-3.04c-2.97-1.55-5.27-3.24-6.56-5.07-1.28-1.89-1.96-3.92-1.96-6.42,0-3.24,1.01-5.95,3.11-8.11,2.1-2.37,5.27-3.58,8.99-3.58,1.62,0,3.45.34,5.41.88,1.82.68,2.97.88,3.45.88.68,0,1.15-.2,1.28-.34.34-.34.47-.68.81-1.22h1.62v11.69h-1.96c-.81-2.7-1.96-4.93-3.78-6.62-1.62-1.69-3.58-2.57-5.88-2.57-1.82,0-3.11.54-3.92,1.55-1.01,1.01-1.28,2.23-1.28,3.24s.34,2.03,1.15,2.91c.68,1.01,2.16,2.03,4.26,3.04l4.26,2.23c2.77,1.35,4.73,2.7,5.88,3.92,2.1,2.03,3.11,4.73,3.11,7.77s-1.01,5.95-3.11,8.45c-2.1,2.7-5.41,3.92-9.66,3.92-1.01,0-2.1,0-3.11-.34-1.15-.2-2.43-.54-3.92-1.22l-1.28-.34c-.47-.34-.81-.34-1.01-.34-.14-.2-.34-.2-.47-.2-.34,0-.81.2-1.15.68-.34.34-.68.88-1.01,1.69h-1.96v-13.45h.07-.02Z"/>
    <path class="cls-1" d="M216.07,10.5h47.51v16.56h-2.3c-.68-5.95-2.77-10-6.35-12.03-1.96-1.22-4.93-1.69-8.85-1.89v42.98c0,2.91.47,4.93,1.49,5.95,1.15,1.01,3.24,1.55,6.35,1.55v2.03h-28.19v-2.03c3.11,0,5.27-.54,6.22-1.55,1.01-1.01,1.49-3.04,1.49-5.95V13.14c-3.78.2-6.69.68-8.85,1.89-3.78,2.23-5.88,6.08-6.35,12.03h-2.1V10.5h-.07Z"/>
    <path class="cls-2" d="M52.04,123.75h0c12.64,11.15,24.4,17.1,42.71,17.44,18.65,0,30.82-6.08,43.39-17.44l32.91-35.01c1.96-2.03,4.73-3.38,7.91-3.38,6.01,0,11.15,5.2,11.15,11.49,0,3.18-1.28,6.08-3.24,8.11l-43.73,43.52c-12.17,10.34-29.33,15.41-48.32,15.41s-36.36-5.07-48.46-15.41L3.24,104.96c-1.96-2.03-3.24-4.93-3.24-8.11,0-6.29,5.07-11.49,11.15-11.49,3.11,0,5.74,1.35,7.84,3.38l33.05,35.01Z"/>
    <path class="cls-2" d="M74.82,90.9h0c4.93,5.61,12.1,8.99,20,8.99s14.94-3.38,19.8-8.99l28.86-29.94c2.1-2.16,4.93-3.51,8.04-3.51,6.22,0,11.29,5.07,11.29,11.49,0,3.04-1.28,5.88-3.24,8.11l-25.55,26.56c-12.77,12.71-20.28,21.15-39.27,20.82-18.32-.2-25.68-8.11-38.32-20.68l-25.68-26.76c-1.96-2.23-3.24-5.07-3.24-8.11,0-6.42,5.07-11.49,11.15-11.49,3.24,0,6.08,1.35,8.18,3.51l27.98,30.01h0Z"/>
    <path class="cls-2" d="M57.79,48.8h0c-1.96-2.23-3.24-5.07-3.24-8.31,0-6.22,4.93-11.49,11.15-11.49,2.97,0,5.74,1.35,7.7,3.24l17.71,19.13c1.01,1.01,2.3,1.69,3.78,1.69,1.35,0,2.64-.68,3.65-1.49l18.32-19.26c1.96-1.89,4.73-3.24,7.7-3.24,6.08,0,11.15,5.27,11.15,11.49,0,3.24-1.28,6.08-3.24,8.31l-31.43,31.97c-1.49,1.69-3.58,2.7-5.88,2.7-2.43,0-4.6-1.01-6.08-2.7l-31.29-32.03h0Z"/>
    <path class="cls-2" d="M94.76,0h0c8.04,0,14.6,6.76,14.6,15.07s-6.56,15.07-14.6,15.07-14.73-6.76-14.73-15.07S86.59,0,94.76,0Z"/>
    <path class="cls-1" d="M215.2,142.82h0c2.1-.2,3.58-.34,4.39-.88,1.49-.88,2.1-2.57,2.1-4.93v-39.47c0-2.37-.68-3.92-1.96-4.73-.68-.54-2.3-.88-4.6-1.01v-2.03h26.7v2.03c-2.3,0-3.92.34-4.93.88-1.49.88-2.1,2.57-2.1,4.93v16.96h18.86v-16.96c0-2.37-.81-4.06-2.1-4.93-1.01-.34-2.64-.68-4.93-.88v-2.03h26.7v2.03c-2.3.2-3.78.54-4.6,1.01-1.49.88-2.16,2.37-2.16,4.73v39.54c0,2.37.81,4.06,2.3,4.93.81.54,2.43.88,4.39.88v2.03h-26.7v-2.03c2.3,0,3.78-.34,4.73-1.01,1.49-.88,2.3-2.37,2.3-4.73v-18.79h-18.86v18.72c0,2.37.81,4.06,2.3,4.93,1.01.54,2.43.88,4.73.88v2.03h-26.7v-2.1h.14Z"/>
    <path class="cls-1" d="M278.93,112.07h0c3.45-3.72,7.7-5.74,12.77-5.74s9.53,2.03,12.77,5.95c3.24,3.92,4.93,8.45,4.93,14.06s-1.62,10.14-4.93,14.06c-3.24,3.92-7.5,5.95-12.77,5.95s-9.53-2.03-12.77-5.74c-3.45-3.92-5.07-8.65-5.07-14.19,0-5.88,1.62-10.61,5.07-14.33v-.02ZM286.3,138.29h0c.81,3.58,2.64,5.27,5.41,5.27,2.43,0,4.12-1.35,4.93-4.06.81-2.71,1.28-7.1,1.28-13.18s-.47-10.48-1.28-13.18-2.43-4.06-4.93-4.06c-2.64,0-4.39,1.69-5.41,5.27-.47,2.37-.81,6.42-.81,12.03s.34,9.53.81,11.89v.02Z"/>
    <path class="cls-1" d="M310.56,132.54h2.1c.81,3.92,2.3,6.76,4.39,8.31,1.96,1.55,4.26,2.37,6.35,2.37,1.96,0,3.58-.54,4.46-1.35,1.01-1.01,1.49-2.23,1.49-3.72s-.47-2.7-1.49-3.72c-.68-.68-1.49-1.22-2.77-1.89l-5.88-2.91c-2.97-1.69-5.27-3.38-6.56-5.27-1.28-1.69-1.96-3.92-1.96-6.42,0-3.24,1.01-5.95,3.11-8.11,2.1-2.37,5.27-3.58,8.99-3.58,1.62,0,3.45.34,5.41.88,1.76.68,2.97.88,3.45.88.68,0,1.15,0,1.28-.34.34-.34.47-.68.81-1.22h1.62v11.83h-1.96c-.81-2.91-1.96-5.07-3.78-6.76-1.62-1.69-3.58-2.57-5.88-2.57-1.82,0-3.11.54-3.92,1.55-1.01,1.01-1.28,2.23-1.28,3.38,0,.88.34,1.89,1.15,2.91.68.88,2.1,1.89,4.26,3.04l4.26,2.03c2.77,1.35,4.73,2.7,5.88,3.92,2.1,2.23,3.11,4.73,3.11,7.97,0,2.91-1.01,5.74-3.11,8.45-2.16,2.57-5.41,3.92-9.66,3.92-1.01,0-2.1-.2-3.11-.34-1.15-.34-2.43-.68-3.92-1.22l-1.28-.54c-.47-.2-.81-.34-1.01-.34h-.47c-.34,0-.81.2-1.15.54-.34.34-.68,1.01-1.01,1.89h-1.96v-13.58h.07-.03Z"/>
    <path class="cls-1" d="M337.73,159.79h0c1.76-.2,2.97-.54,3.45-1.22.68-.68,1.01-1.89,1.01-3.58v-40.89c0-1.69-.34-2.91-.81-3.58-.68-.54-1.82-1.01-3.45-1.22v-2.03h15.21v5.41c1.01-1.89,2.1-3.24,3.11-4.06,1.76-1.55,4.06-2.37,7.03-2.37,4.12,0,7.5,1.69,10.34,4.93,2.64,3.24,4.06,7.97,4.06,14.4,0,5.74-1.49,10.68-4.39,14.53-2.97,3.92-6.56,5.95-10.81,5.95-2.16,0-4.12-.68-6.08-2.03-1.01-.68-2.16-1.69-3.11-2.91v13.04c.2,2.23.68,3.72,1.62,4.39.81.88,2.3,1.35,4.46,1.35v1.89h-21.63v-2.03h0v.03ZM365.24,135.72h0c.47-2.23.81-5.27.81-9.33,0-4.73-.47-8.45-1.28-11.15-.81-2.7-2.43-4.26-4.93-4.26-1.82,0-3.24.88-4.6,2.37-1.28,1.55-1.96,2.7-1.96,3.38v19.8c0,.68.47,1.89,1.82,3.04,1.28,1.22,2.77,1.89,4.46,1.89,2.7,0,4.66-1.82,5.68-5.74Z"/>
    <path class="cls-1" d="M378.48,143.03h0c1.28-.34,2.3-.68,2.77-1.22.81-.68,1.15-2.03,1.15-3.92v-23.79c0-1.69-.34-2.91-.81-3.38-.47-.68-1.62-1.01-3.11-1.35v-2.03h15.07v31.09c0,1.69.14,2.91.68,3.38.68.54,1.62.88,2.97,1.22v1.89h-18.65v-1.89h-.07ZM383.55,90.51h0c1.28-1.22,2.77-1.89,4.46-1.89s3.11.68,4.26,1.89c1.28,1.22,1.76,2.7,1.76,4.39,0,1.89-.47,3.38-1.76,4.6-1.15,1.22-2.64,1.89-4.26,1.89s-3.11-.68-4.46-1.89c-1.15-1.22-1.76-2.7-1.76-4.6,0-1.62.61-3.18,1.76-4.39Z"/>
    <path class="cls-1" d="M397.34,110.85h0v-2.23c.68-.68,1.49-1.35,2.64-2.37,1.28-1.22,2.64-2.57,3.78-3.92,2.43-2.7,4.6-5.74,6.56-8.79h1.96v13.72h7.5v3.58h-7.5v24.74c0,1.01.2,2.03.47,2.7.47,1.35,1.49,1.89,2.64,1.89,1.01,0,1.76-.34,2.64-1.22.68-.68,1.28-1.69,1.96-3.04l1.96,1.01c-1.01,2.23-2.16,3.92-3.24,5.41-2.3,2.37-5.07,3.72-8.38,3.72-1.76,0-3.45-.34-4.73-1.22-2.77-1.35-4.12-3.92-4.12-7.43v-26.56h-4.14Z"/>
    <path class="cls-1" d="M426.46,128.5h0c3.45-2.23,8.85-4.26,16.02-6.42v-5.95c0-2.57-.47-4.26-1.49-5.41-1.01-1.22-2.77-1.69-5.27-1.69-1.49,0-2.64.34-3.45.88-1.01.54-1.49,1.22-1.49,2.03,0,.34.2.54.2.68.14.34.34.54.47.88l.47.54c.34.34.68.88.81,1.55.34.54.34,1.01.34,1.69,0,1.55-.47,2.7-1.49,3.58-1.02.88-2.16,1.22-3.45,1.22-1.49,0-2.77-.34-3.92-1.35-1.01-.88-1.62-2.23-1.62-4.06,0-3.04,1.49-5.61,4.46-7.3,2.77-1.89,6.22-2.91,10.48-2.91s8.18,1.01,11.15,2.7c3.11,1.89,4.6,5.07,4.6,10v19.8c0,.54.2,1.01.34,1.35.34.54.68.68,1.01.68s.68,0,.81-.2c.34-.2.68-.54,1.15-1.01l1.28,1.69c-1.62,1.89-3.24,3.24-5.27,3.92-1.15.54-2.3.88-3.58.88-2.43,0-4.06-.68-5.27-2.23-.47-.88-1.01-2.03-1.28-3.58-2.1,2.37-4.6,3.92-7.37,4.73-1.62.68-3.24,1.01-4.93,1.01-2.3,0-4.26-.88-6.01-2.23-1.96-1.35-2.77-3.58-2.77-6.62,0-3.78,1.62-6.69,5.07-8.85ZM440.18,138.97h0c.68-.34,1.28-1.22,2.16-2.23v-12.03c-1.96.54-3.92,1.35-5.61,2.57-2.64,2.03-3.92,4.39-3.92,7.43,0,1.89.34,3.24,1.15,4.06.81,1.01,1.62,1.55,2.64,1.55,1.35,0,2.5-.54,3.58-1.35Z"/>
    <path class="cls-1" d="M457.08,143.03h0c1.28-.34,2.3-.88,2.97-1.35.47-.68.81-1.89.81-3.72v-41.5c0-1.69-.34-2.91-.81-3.38-.47-.54-1.49-1.01-2.97-1.35v-1.89h14.87v48.05c0,1.89.34,3.04.81,3.58.68.68,1.62,1.01,3.11,1.55v1.89h-18.79v-1.89h0Z"/>
    <path class="cls-1" d="M486.41,98.82h0c-4.46,0-8.04-3.72-8.04-8.31s3.58-8.11,8.04-8.11,8.04,3.58,8.04,8.11c-.07,4.6-3.65,8.31-8.04,8.31ZM486.41,83.41h0c-3.78,0-6.89,3.24-6.89,7.1,0,4.06,3.11,7.3,6.89,7.3s7.03-3.24,7.03-7.3-3.11-7.1-7.03-7.1ZM483.44,88.01h0c0-1.01,0-1.89-1.15-1.89v-.34h4.73c1.96,0,3.45.88,3.45,2.57,0,1.22-.81,2.23-1.96,2.37l1.28,2.7c.34.54.68,1.35,1.28,1.35v.54h-2.64l-2.43-4.39h-.47v2.03c0,1.35,0,1.89,1.28,1.89v.54h-4.73v-.54c1.28,0,1.28-.54,1.28-1.89v-4.93h.08ZM485.6,90.38h.68c1.15,0,1.82-1.01,1.82-2.23,0-.88-.34-1.89-1.82-1.89h-.68v4.12Z"/>
  </g>
</svg>