<svg width="985.961" height="336.72" xmlns="http://www.w3.org/2000/svg" xmlns:xlink="http://www.w3.org/1999/xlink" id="svg10463" overflow="hidden"><defs id="defs10465"><clipPath id="clp24"><path d="M473.26 498.55C473.82 505.17 477.99 511.9 484.63 512 488.36 512.06 491.47 509.8 493.52 506.65L492.88 506.65C491.15 509.22 488.59 511.05 485.52 511.08 479.57 511.13 475.94 505.01 475.66 499.12 475.65 498.95 475.66 498.72 475.66 498.55 474.89 498.55 474.07 498.55 473.26 498.55" id="path14898"/></clipPath><clipPath id="clp29"><path d="M472.89 498.91C473.46 505.35 477.78 512.14 484.66 512.24 488.56 512.3 491.8 509.86 493.93 506.65L493.27 506.65C491.48 509.3 488.8 511.31 485.58 511.34 479.42 511.39 475.66 505.43 475.37 499.7 475.36 499.53 475.36 499.08 475.36 498.91" id="path15309"/></clipPath><clipPath id="clp34"><path d="M472.45 499.15C473.03 505.72 477.45 512.4 484.49 512.51 488.67 512.57 492.11 510.05 494.27 506.65L493.6 506.65C491.77 509.47 488.91 511.55 485.43 511.58 479.13 511.64 475.29 505.57 474.99 499.72 474.98 499.55 474.98 499.32 474.98 499.15" id="path15502"/></clipPath></defs><g id="layer1" transform="translate(16.0153 -521.649)"><path d="M378.885 653.194C360.382 648.285 343.202 644.887 327.249 644.887 310.446 644.887 297.135 652.061 297.135 663.2 297.135 673.678 307.047 679.909 324.7 679.909 342.824 679.909 361.232 668.675 378.885 653.194M324.511 689.537C291.471 689.537 270.704 679.72 270.704 665.371 270.704 644.887 303.46 634.22 341.975 634.22 357.928 634.22 375.297 636.202 393.611 639.223 400.785 631.954 407.865 624.214 414.662 616.662 428.255 601.558 448.268 579.846 464.976 567.008 496.694 542.747 537.191 525.189 579.954 525.189 633.101 525.189 675.674 543.125 675.674 569.934 675.674 585.321 660.571 598.631 633.573 599.67L632.723 594.761C638.387 592.118 645.372 587.398 645.372 572.861 645.372 553.792 623.944 534.818 584.58 534.818 546.726 534.818 525.108 552.565 500.753 577.864 488.01 591.08 474.322 607.505 461.861 620.343 452.516 629.877 442.509 638.656 432.126 646.492 474.794 655.082 519.916 665.088 561.641 665.088 604.592 665.088 624.133 653.949 634.139 644.698L636.876 648.663C626.115 670.752 593.547 689.537 551.918 689.537 498.582 689.537 451.005 674.528 409.281 661.973 380.112 679.437 349.904 689.537 324.511 689.537M103.523 817.259 73.7878 817.259 73.7878 852.375 57.9288 852.375 57.9288 771.287 73.7878 771.287 73.7878 804.704 103.523 804.704 103.523 771.287 119.382 771.287 119.382 852.375 103.523 852.375 103.523 817.259ZM25.5501 852.375 9.78547 852.375 9.78547 784.975-10.6991 784.975-10.6991 771.287 45.9402 771.287 45.9402 784.975 25.5501 784.975 25.5501 852.375ZM140.811 771.287 189.143 771.287 189.143 783.936 156.481 783.936 156.481 804.043 184.518 804.043 184.518 816.598 156.481 816.598 156.481 839.632 189.804 839.632 189.804 852.375 140.811 852.375 140.811 771.287ZM391.44 852.375 391.44 794.698C391.44 782.992 387.286 769.493 362.742 769.682 349.715 769.776 338.765 772.514 331.496 776.007L331.496 852.375 347.261 852.375 347.261 785.541C350.754 784.031 356.135 782.803 361.704 782.898 374.354 783.181 375.581 789.789 375.581 797.435L375.581 852.375 391.44 852.375ZM920.922 821.601 920.922 852.375 905.252 852.375 905.252 775.912 906.291 775.346C913.087 771.853 922.81 769.682 931.684 769.682 952.263 769.682 964.629 779.594 964.629 796.019 964.629 811.878 951.413 822.168 929.701 822.168 926.681 822.168 923.471 821.885 920.922 821.601M920.922 784.031 920.922 809.33C923.282 809.613 926.397 809.802 929.135 809.802 942.917 809.802 948.77 804.043 948.77 796.019 948.77 787.24 943.295 782.237 931.684 782.237 928.002 782.237 923.66 783.087 920.922 784.031M823.692 825.472 823.692 771.287 839.551 771.287 839.551 825.66C839.551 834.723 845.403 840.198 854.56 840.198 863.717 840.198 869.664 834.723 869.664 825.66L869.664 771.287 885.523 771.287 885.523 825.472C885.523 842.747 872.968 853.98 854.56 853.98 836.152 853.98 823.692 842.747 823.692 825.472M579.104 811.878C579.104 787.051 593.642 769.682 619.035 769.682 627.909 769.682 636.216 771.759 641.974 775.44L643.484 776.384 638.292 787.995 636.31 786.768C632.534 784.408 626.587 782.52 619.885 782.52 603.837 782.52 594.963 793.848 594.963 811.69 594.963 829.531 603.931 841.236 618.374 841.236 623.094 841.236 626.776 840.481 629.23 839.537L629.23 818.297 614.221 818.297 614.221 806.214 644.334 806.214 644.334 847.655 643.39 848.222C637.443 851.903 628.569 853.98 618.752 853.98 593.642 853.98 579.104 836.988 579.104 811.878M685.02 812.35C695.876 812.35 706.448 807.536 706.448 796.397 706.448 788.845 701.823 781.765 690.684 781.765 686.436 781.765 682.282 782.426 678.884 783.747L678.884 852.375 663.403 852.375 663.403 775.912 664.441 775.346C670.954 771.853 681.81 769.682 690.684 769.682 711.168 769.682 722.024 779.971 722.024 796.019 722.024 808.857 711.829 816.598 705.316 818.675L725.139 852.375 706.448 852.375 685.02 812.35ZM736.09 811.69C736.09 787.807 748.267 768.832 771.583 768.832 794.9 768.832 807.077 787.807 807.077 811.69 807.077 835.667 794.9 854.83 771.583 854.83 748.267 854.83 736.09 835.667 736.09 811.69M751.949 811.595C751.949 829.625 759.028 840.953 771.583 840.953 784.233 840.953 791.218 829.625 791.218 811.595 791.218 793.565 784.233 782.52 771.583 782.52 759.028 782.52 751.949 793.565 751.949 811.595M492.069 771.287 540.401 771.287 540.401 783.936 507.833 783.936 507.833 804.043 535.87 804.043 535.87 816.598 507.833 816.598 507.833 839.632 541.156 839.632 541.156 852.375 492.069 852.375 492.069 771.287ZM294.492 771.287 310.351 771.287 310.351 852.375 294.492 852.375 294.492 771.287ZM237.003 771.287 252.862 771.287 252.862 838.688 281.843 838.688 281.843 852.375 237.003 852.375 237.003 771.287ZM427.122 784.408 427.122 839.16C429.671 840.198 433.258 840.859 437.129 840.859 450.911 840.859 459.501 831.23 459.501 811.69 459.501 792.243 450.816 782.615 437.129 782.615 433.258 782.615 429.766 783.37 427.122 784.408M412.207 848.127 411.075 847.561 411.075 775.912 412.207 775.346C419.193 771.759 428.161 769.682 437.034 769.682 461.2 769.682 475.36 786.107 475.36 811.69 475.36 837.366 461.2 853.791 437.034 853.791 428.161 853.791 419.193 851.715 412.207 848.127" id="path26659" fill="#003867" fill-rule="evenodd"/></g></svg>