<svg width="926.906" height="321.777" viewBox="0 0 926.906 321.777" xmlns="http://www.w3.org/2000/svg" xmlns:xlink="http://www.w3.org/1999/xlink" id="Capa_1" xml:space="preserve" overflow="hidden"><g><path d="M53.328 229.809C57.245 240.204 62.668 249.092 69.598 256.473 76.528 263.855 84.738 269.504 94.228 273.421 103.719 277.338 114.038 279.296 125.186 279.296 136.033 279.296 146.201 277.262 155.692 273.194 165.183 269.126 173.468 263.402 180.548 256.021 187.628 248.639 193.127 239.827 197.044 229.583 200.961 219.339 202.919 207.891 202.919 195.236L202.919 0 250.372 0 250.372 316.354 203.371 316.354 203.371 286.978C192.826 298.125 180.397 306.712 166.086 312.739 151.774 318.764 136.334 321.777 119.763 321.777 102.89 321.777 87.148 318.839 72.535 312.964 57.923 307.089 45.268 298.729 34.573 287.882 23.878 277.035 15.441 264.006 9.265 248.79 3.088 233.575 0 216.628 0 197.947L0 0 47.453 0 47.453 195.236C47.453 207.891 49.411 219.414 53.328 229.809Z" fill="#010202"/><path d="M332.168 0 332.168 115.243C342.713 104.698 354.916 96.338 368.775 90.161 382.634 83.984 397.699 80.896 413.968 80.896 430.841 80.896 446.657 84.059 461.421 90.386 476.184 96.713 488.988 105.3 499.835 116.147 510.682 126.994 519.269 139.798 525.596 154.561 531.923 169.325 535.086 184.992 535.086 201.563 535.086 218.133 531.923 233.725 525.596 248.337 519.269 262.95 510.682 275.68 499.835 286.525 488.988 297.372 476.184 305.959 461.421 312.286 446.657 318.613 430.84 321.776 413.968 321.776 397.698 321.776 382.559 318.688 368.549 312.511 354.539 306.335 342.261 297.974 331.716 287.429L331.716 316.353 286.523 316.353 286.523 0 332.168 0ZM337.365 232.746C341.432 242.388 347.082 250.824 354.313 258.055 361.544 265.286 369.98 271.011 379.621 275.229 389.263 279.447 399.657 281.556 410.805 281.556 421.652 281.556 431.895 279.447 441.536 275.229 451.177 271.011 459.537 265.287 466.619 258.055 473.699 250.825 479.348 242.388 483.566 232.746 487.784 223.105 489.893 212.711 489.893 201.563 489.893 190.415 487.784 179.945 483.566 170.153 479.348 160.361 473.699 151.85 466.619 144.619 459.538 137.389 451.178 131.739 441.536 127.672 431.894 123.605 421.651 121.57 410.805 121.57 399.959 121.57 389.715 123.604 380.074 127.672 370.433 131.74 361.997 137.389 354.765 144.619 347.535 151.85 341.81 160.361 337.592 170.153 333.374 179.945 331.265 190.415 331.265 201.563 331.264 212.711 333.298 223.105 337.365 232.746Z" fill="#010202"/><path d="M560.842 155.014C566.867 140.552 575.154 127.823 585.698 116.826 596.242 105.829 608.747 97.167 623.209 90.84 637.671 84.513 653.338 81.35 670.21 81.35 686.781 81.35 702.147 84.363 716.308 90.388 730.468 96.414 742.67 104.775 752.914 115.471 763.158 126.166 771.143 138.821 776.866 153.433 782.591 168.046 785.453 183.939 785.453 201.113L785.453 216.027 597.901 216.027C599.408 225.367 602.421 234.029 606.94 242.012 611.46 249.996 617.108 256.926 623.887 262.801 630.666 268.677 638.349 273.272 646.936 276.585 655.523 279.899 664.636 281.557 674.278 281.557 701.696 281.557 723.841 270.258 740.713 247.661L773.704 272.065C762.255 287.431 748.095 299.483 731.223 308.22 714.35 316.957 695.369 321.326 674.279 321.326 657.105 321.326 641.062 318.312 626.148 312.287 611.234 306.262 598.279 297.825 587.282 286.978 576.285 276.131 567.623 263.402 561.296 248.79 554.969 234.178 551.805 218.284 551.805 201.111 551.803 184.842 554.817 169.476 560.842 155.014ZM624.339 137.162C611.534 147.858 603.023 162.094 598.805 179.87L739.357 179.87C735.44 162.094 727.079 147.858 714.274 137.162 701.469 126.467 686.48 121.119 669.307 121.119 652.133 121.119 637.144 126.467 624.339 137.162Z" fill="#010202"/><path d="M870.866 142.359C861.225 152.904 856.404 167.215 856.404 185.293L856.404 316.355 810.758 316.355 810.758 85.868 855.951 85.868 855.951 114.34C861.676 105 869.133 97.618 878.322 92.195 887.511 86.771 898.433 84.059 911.088 84.059L926.905 84.059 926.905 126.541 907.924 126.541C892.86 126.542 880.507 131.814 870.866 142.359Z" fill="#010202"/></g></svg>