<?xml version="1.0" encoding="UTF-8"?>
<svg id="Layer_2" data-name="Layer 2" xmlns="http://www.w3.org/2000/svg" viewBox="0 0 173.67 113.77">
  <defs>
    <style>
      .cls-1 {
        fill: #231f20;
        fill-rule: evenodd;
        stroke-width: 0px;
      }
    </style>
  </defs>
  <g id="Layer_1-2" data-name="Layer 1">
    <path class="cls-1" d="M138.79,89.66c-.42-1.58-.84-3.15-1.24-4.73h0l1.24,4.73Z"/>
    <path class="cls-1" d="M16.54,81.19h0l.62.25h0c-.18-.12-.38-.21-.6-.25h-.02Z"/>
    <path class="cls-1" d="M104.32,17.34c-.04.07-.1.12-.17.16,7.09,1.51,13.85,4.31,19.94,8.24,6.15,3.98,11.55,9.04,15.92,14.92,4.43,5.96,7.78,12.64,9.91,19.75,2.14,7.16,3.03,14.63,2.65,22.09h.94c.51-7.62-.31-15.26-2.42-22.6-2.1-7.27-5.49-14.11-10-20.19-4.46-6.01-9.99-11.14-16.31-15.15-6.25-3.96-13.19-6.71-20.46-8.12.21.25.21.63,0,.88v.02Z"/>
    <path class="cls-1" d="M27.19,62.34c.5-1.46.79-2.29,1.22-3.39.43-1.1,1-2.19,1.8-4.12.8-1.93,2-4.68,3.46-7.33,1.41-2.64,3.01-5.18,4.77-7.6,2.02-2.83,4.34-5.44,6.91-7.78,3.97-3.69,8.33-6.94,13-9.7,5.08-2.93,10.57-5.08,16.28-6.39,5.7-1.31,11.55-1.79,17.38-1.43h0l-.51,1h0c-5.72-.24-11.44.33-17,1.7-5.57,1.36-10.92,3.52-15.86,6.43-4.54,2.73-8.78,5.93-12.64,9.55-2.51,2.3-4.77,4.85-6.75,7.62-1.73,2.37-3.3,4.84-4.7,7.41-1.39,2.58-2.6,5.26-3.41,7.18s-1.22,3.07-1.6,4.24c-.76,2.35-1.36,4.74-1.82,7.17l-1.56-1.14s.53-1.96,1.03-3.42Z"/>
    <path class="cls-1" d="M25.64,71.22c-.29,3.55-.1,7.55-.07,11.1h.74c.07-3,0-6.48.18-9.52l-.85-1.58Z"/>
    <path class="cls-1" d="M110.36,36.06l-1.17,3.35h2.49l-1.32-3.35h0Z"/>
    <path class="cls-1" d="M52.21,61.45l-2.61-5.97h-2.2s-3.13,5.97-3.13,5.97h7.94Z"/>
    <path class="cls-1" d="M47.7,54.16l1.52.02-.64-1.76-.88,1.74h0Z"/>
    <path class="cls-1" d="M57.35,55.37l-1.15,6.23,75.52.02-2.14-6.24h-2.23l-1.4,1.7-1.56-1.7H57.35Z"/>
    <path class="cls-1" d="M68.46,47.94l-3.82-7.65h-2.75s-4.43,7.62-4.43,7.62l11,.03h0Z"/>
    <path class="cls-1" d="M129.36,54.45l-.88-2.44-.9,2.44h1.78Z"/>
    <path class="cls-1" d="M104.36,39.41v-7.32h-1.8v-2.33h-9.59v2.34h-1.59l-.54,1.71-1.43-2.44-2.61,6.02h-1.42l.41-1.59-2.49-6.07h-1.39s-2.73,6.09-2.73,6.09l.32,1.57h-1.07l.7,2.01h25.23Z"/>
    <path class="cls-1" d="M82.59,27.49l-.48,1.21h.98l-.5-1.21h0Z"/>
    <path class="cls-1" d="M102.56,28.95v-3.66l1.29-2.86-1.29-1.38v-3.26h-9.49v3.25s-1.24,1.4-1.24,1.4l1.14,2.84v3.67h9.59Z"/>
    <path class="cls-1" d="M62.24,39.7h2.22l-1.06-2.24-1.16,2.24h0Z"/>
    <path class="cls-1" d="M48.44,49.99v-2.02l-4.24,1.18,4.24.84h0Z"/>
    <path class="cls-1" d="M63.43,34.88v-2.01l-4.25,1.17,4.25.84h0Z"/>
    <path class="cls-1" d="M82.48,24.89v-2.01l-4.24,1.17,4.24.84h0Z"/>
    <path class="cls-1" d="M110.32,33.88v-2.01l-4.24,1.18,4.24.83h0Z"/>
    <path class="cls-1" d="M120.49,40.43v-2.01l-4.24,1.18,4.24.83h0Z"/>
    <path class="cls-1" d="M57.74,52.58c-.03.64-.1,1.27-.23,1.89h57.81c-.42-.55-.79-1.13-1.11-1.74-.66-1.22-1.13-2.54-1.41-3.9h-4.39l-.5.7-.81-.7h-34.33l-1.33,3.41h-2.72l1.45-3.41h-12.87c.34,1.23.49,2.51.44,3.78v-.03Z"/>
    <path class="cls-1" d="M120.52,42.96l-1.91,4.91h3.48l-1.57-4.91h0Z"/>
    <path class="cls-1" d="M122.32,48.81h-4.04l-1.84,5.64h7.72l-1.84-5.64h0Z"/>
    <path class="cls-1" d="M135.16,82.5l-1.31-5.21h-13.47c-.36.73-.79,1.43-1.29,2.08-.49.64-1.05,1.23-1.66,1.76-.62.52-1.29.98-2,1.36h19.73Z"/>
    <path class="cls-1" d="M97.9,4.04l-6,12.51h0c-.13.2-.08.46.1.6.08.07.19.11.3.1h11c.17.01.33-.08.41-.23.09-.15.09-.34,0-.49h0l-5.85-12.49h.04Z"/>
    <path class="cls-1" d="M97.9,0l-4.24,1.17,4.24.84V0h0Z"/>
    <path class="cls-1" d="M77.28,47.93l-2.06-6.77-2.19,6.77h4.25Z"/>
    <path class="cls-1" d="M108.41,47.9h4.5v-2.34l.92-1.14-1.88-4.06h-3.1l-1.44,4.05,1,1.14h0v2.35Z"/>
    <path class="cls-1" d="M79.48,47.95h27.26c-.41-.79-.77-1.6-1.09-2.43-.63-1.67-1.07-3.41-1.29-5.18h-24.8c.67,2.5.64,5.13-.08,7.62h0Z"/>
    <path class="cls-1" d="M41.95,81.8c.15.14.28.3.37.48h34v-5.17h-34.29l-1.18,4.29h0c.2-.01.4.02.58.09.19.07.36.17.51.31h.01Z"/>
    <path class="cls-1" d="M59.64,69.98h-17.69v5.1h34.38c.16-.91.42-1.81.77-2.67-3.9-1.28-8.03-1.69-12.1-1.21-.05.35-.15.69-.31,1-.16.31-.38.59-.64.82-.78.71-1.91.89-2.87.46-.31-.14-.6-.34-.84-.58-.5-.5-.79-1.17-.83-1.88-.02-.34.02-.68.12-1v-.04Z"/>
    <path class="cls-1" d="M111.24,69.96h-13.39c.42.5.81,1.04,1.16,1.59.72,1.12,1.3,2.31,1.75,3.56h2.78c1.3-1.66,2.94-3.02,4.81-4,.92-.48,1.9-.86,2.9-1.13v-.02Z"/>
    <path class="cls-1" d="M67.85,66.77c4.23-.71,8.57-.36,12.63,1,1.73-1.29,3.77-2.11,5.91-2.38.6-.09,1.21-.12,1.82-.09.96.04,1.91.16,2.84.37,1.02.24,2,.62,2.93,1.11.93.49,1.81,1.1,2.6,1.8h40.4l-4.82-5.68-88.73-.13-4,5.78h22.35c1.96-.85,4.02-1.46,6.13-1.82l-.06.04Z"/>
    <path class="cls-1" d="M133.85,69.95h-16.81c1.17.24,2.23.87,3,1.78.4.46.72.99.94,1.56.23.57.37,1.18.41,1.79h12.46v-5.15.02Z"/>
    <path class="cls-1" d="M103.06,77.3l-1.74-.05,2.46,5.25h0c-.61-1.66-.86-3.44-.72-5.2Z"/>
    <path class="cls-1" d="M106.65,99.05c.01.23.07.46.16.68.09.21.21.41.36.59.45.54,1.16.79,1.85.68.4-.08.78-.25,1.11-.49.36-.27.59-.69.62-1.14.06-1.09.09-2.18.1-3.28,0-1.1,0-2.18-.05-3.1s0-1.66-.09-2.4c-.09-.74-.08-1.48-.11-2s-.06-.69-.09-.9c-.03-.21-.07-.42-.11-.62-.04-.2-.11-.41-.16-.59-.13-.44-.37-.84-.7-1.16-.31-.37-.82-.49-1.27-.32-.15.05-.28.13-.39.24-.23.26-.39.58-.46.92,0,.18-.09.36-.13.54-.04.18-.06.37-.09.66-.03.29-.06.69-.09,1.08s0,.79-.07,1.25c0,.94-.12,2.06-.26,3.1-.3,2.06-.34,4.15-.13,6.22v.04Z"/>
    <path class="cls-1" d="M138.79,89.66l.39,1.72h0c.18.56.27,1.14.26,1.73-.09.13-.46-.4-.83-.94-.26-.32-.52-.65-1.1-1.4l-2-2.62c-.53-.69-.7-.9-.88-1.11-.36-.4-.75-.79-1.16-1.14-.45-.35-1.06-.42-1.58-.17-.17.08-.32.19-.45.33-.13.14-.24.3-.31.48-.7,1.53-1.16,3.15-1.36,4.82h0l-.52,3.07h0c-.37,1.61-.29,3.29.23,4.86.08.18.2.35.34.49.45.43,1.1.57,1.68.37.19-.06.37-.15.53-.28.42-.37.68-.89.72-1.45.28-2.21.52-4.42.78-6.63.97,2.15,2.19,4.18,3.63,6.05.44.6,1.01,1.1,1.66,1.47.89.33,1.89.16,2.61-.45.19-.14.37-.3.53-.48.32-.37.6-.77.84-1.19.67-1.32.96-2.81.82-4.29-.04-.98-.17-1.95-.38-2.91-.2-.87-.47-1.72-.8-2.54-.66-1.64-1.57-3.17-2.7-4.53-.37-.5-.96-.79-1.58-.77-.14.02-.27.07-.39.14-.38.23-.58.65-.53,1.09.06.52.16,1.04.28,1.55h0l1.24,4.73h.03Z"/>
    <path class="cls-1" d="M144.7,87.8c.46.54,1.1.89,1.8,1h0l-.88,2h0c-.15.04-.29.11-.41.2-.54.37-.75,1.05-.53,1.66.05.15.12.29.22.41-.61.99-1.04,2.08-1.28,3.22-.05.91.13,1.82.54,2.64.15.36.32.7.5,1,.14.26.32.5.54.71.21.21.45.38.72.51,1.21.46,2.55.44,3.74-.06.94-.38,1.87-.79,2.78-1.25.91-.46,1.8-1,2.3-1.25.26-.12.5-.29.71-.49.43-.57.45-1.35.06-1.95-.1-.17-.23-.32-.37-.45-.71-.5-1.62-.64-2.45-.38-.9.19-1.76.44-2.64.66-.88.22-1.82.68-2,.31-.18-.37.37-1.46.92-2.55.3.05.6.08.9.07h3l.17-.05,1.4-.41c.3-.1.55-.32.7-.6.24-.53.17-1.15-.17-1.62-.31-.38-.76-.62-1.25-.65-1.07-.09-2.15-.12-3.22-.18h0l.1-1.13h0c.86.05,1.72.03,2.58-.06,1.2-.15,2.38-.36,3.56-.63.28-.06.55-.19.76-.38.43-.32.56-.91.31-1.39-.23-.39-.48-.77-.76-1.13-.29-.33-.63-.62-1-.86-.75-.46-1.63-.68-2.51-.62-2.36,0-4.71.29-7,.88-.57.18-1.13.39-1.68.63-.22.11-.4.29-.49.52-.19.55-.07,1.16.32,1.59v.08Z"/>
    <path class="cls-1" d="M116.96,89.13c3.53-.43,7.06-.83,10.6-1.29.46-.08.89-.29,1.23-.6.41-.31.59-.85.44-1.34-.13-.28-.32-.53-.56-.73-.16-.13-.33-.24-.5-.34-.2-.1-.41-.17-.63-.22-.62-.15-1.26-.26-1.9-.32h-1.31c-.64,0-1.58,0-2.53.1-1.89.17-3.75.57-5.54,1.2-.63.23-1.22.54-1.77.92-.27.18-.52.38-.76.6-.61.52-1.03,1.22-1.21,2-.07.35-.07.71,0,1.06.12.7.5,1.32,1.07,1.75.55.36,1.18.58,1.83.64,1.24.11,2.5.11,3.74,0,1.15-.04,2.31.04,3.45.24.52.11,1.03.26,1.52.46.49.19.97.43,1.42.71.29.18.4.56.25.87-.27.38-.61.7-1,.94-.16.1-.33.2-.5.28-2.62,1.2-5.61,1.31-8.32.32-.11-.06-.2-.15-.25-.26-.11-.23-.04-.52.18-.66.27-.14.57-.22.87-.23.69-.02,1.38.13,2,.44,1.67.78,3.59.78,5.26,0,.15-.07.27-.19.34-.34.08-.15.1-.33.07-.5-.11-.4-.35-.75-.67-1-.46-.35-.99-.6-1.55-.73-.26-.06-.52-.11-.79-.13-.39,0-1-.09-1.52-.12-.52-.03-1.14,0-1.7,0s-1.13.08-1.53.13c-.29.04-.58.09-.86.17-.23.07-.45.16-.66.26-.21.11-.41.22-.6.35-.68.45-1.12,1.19-1.18,2-.03.2-.03.41,0,.61.06.24.16.47.28.69.2.35.44.69.7,1,.3.34.63.64,1,.91.4.3.84.54,1.31.72.68.27,1.38.48,2.09.64.76.17,1.55.27,2.33.29.71.02,1.42-.01,2.13-.1.42-.04.83-.12,1.23-.24.34-.09.67-.21,1-.33.31-.12.61-.26.9-.42.24-.12.47-.26.69-.42.21-.15.4-.31.58-.48.5-.45.89-1.02,1.12-1.65.08-.24.14-.49.16-.75.12-.92.02-1.85-.28-2.73-.16-.45-.38-.87-.64-1.26-.25-.38-.55-.71-.89-1-.67-.53-1.49-.86-2.34-.94-1.84-.21-3.68-.34-5.52-.65-.74-.13-1.48-.29-2.21-.45l-.07-.07Z"/>
    <path class="cls-1" d="M48.62,92.69c.14-1,.31-2.06.56-3.15.13-.56.29-1.12.44-1.61.15-.49.27-.93.39-1.36.12-.43.22-.88.29-1.18.08-.33.12-.66.11-1,0-.3-.08-.59-.23-.84-.31-.48-.88-.71-1.44-.59-.42.12-.78.41-1,.79l-.31.45c-.14.21-.26.43-.36.66-.16.35-.41.89-.63,1.44-.64,1.62-1.13,3.29-1.46,5-.1.54-.17,1.08-.23,1.63-.08,1-.11,2-.09,3v1.34c.03.37.11.73.24,1.08.12.33.29.64.51.91.34.44.77.8,1.26,1.07.6.29,1.27.39,1.92.28.99-.18,1.92-.61,2.71-1.24.21-.15.41-.3.72-.55.61-.51,1.5-1.28,2.26-2v2.21c0,.74.11,1.48.18,2,.04.34.1.67.19,1,.15.56.38,1.1.69,1.59.19.3.41.58.67.83.27.25.59.45.93.58.31.11.62.18.95.21.17.02.33,0,.49-.06.25-.11.45-.29.57-.53.17-.3.27-.65.28-1v-3.7c0-.72,0-1.76.07-2.76.12-2.02.41-4.03.88-6l2.55-.69.71-.22.25-.13c.27-.18.52-.39.73-.63,1.07-1,1.39-2.56.81-3.9-.16-.42-.37-.83-.63-1.2-.12-.18-.27-.34-.43-.48-.16-.14-.34-.26-.53-.34-.21-.1-.44-.17-.68-.2-.72-.13-1.45-.06-2.13.2-.43.18-.84.43-1.2.72-.51.39-1.21,1-1.88,1.6-.79-.07-1.58-.22-2.34-.46-.34-.11-.67-.24-1-.39-.23-.1-.44-.23-.63-.39-.16-.15-.29-.32-.4-.51-.1-.2-.17-.41-.23-.55-.08-.18-.23-.3-.42-.34-.17-.06-.34-.06-.51,0-.31.09-.57.3-.74.58-.15.26-.26.53-.35.81-.05.23-.05.46,0,.69.02.34.08.67.16,1,.23.74.72,1.38,1.37,1.8.38.28.88.59,1.38.9s1,.6,1.51.87c-.36,1.32-.64,2.65-.85,4h0l-1.45-.03-3.4,1.14h0c-.4.21-.88.21-1.28,0-.26-.15-.35-.49-.19-.75.02-.03.03-.05.06-.08h0v-.16h0c.05-.44.11-.89.17-1.35h.02Z"/>
    <path class="cls-1" d="M44.49,96.41v-2.23c0-.17,0-.34-.28-1.64s-.69-3.74-1-5.17c-.31-1.43-.38-1.86-.5-2.28-.24-.85-.55-1.67-.93-2.47-.07-.12-.17-.22-.28-.31-.11-.08-.24-.14-.37-.17-.37-.07-.75-.02-1.09.13-.22.09-.41.22-.59.37-.36.45-.7.92-1,1.41-.2.28-.42.54-.67.84-.25.3-.52.64-.78,1s-.5.72-.87,1.31c-.37.59-.84,1.4-1.29,2.22-.45.82-.87,1.67-1.27,2.52h0l-1.09-.09h0c.6-1.85,1-3.75,1.2-5.68.22-2.05.19-4.12-.07-6.16-.14-1.07-.36-2.14-.66-3.18-.31-1-.69-2-1-2.78-.22-.54-.48-1.07-.78-1.58-.24-.42-.5-.83-.78-1.23-.28-.4-.58-.78-1-1.24-.42-.46-.84-1-1.31-1.49-.47-.49-.93-1-1.3-1.4-.27-.29-.57-.54-.89-.76-.28-.18-.58-.33-.89-.44-.28-.09-.56-.16-.85-.2-.23-.05-.48,0-.68.13-.28.16-.41.49-.31.79.06.14.15.26.25.37l.93,1.14c.63.75,1.2,1.56,1.69,2.41.2.36.39.73.61,1.22.22.49.49,1.09.75,1.7.49,1.09.92,2.22,1.26,3.37.15.52.26,1.05.34,1.58.09.55.15,1.11.17,1.67.09,1.94-.02,3.89-.31,5.81-.29,1.96-.88,3.86-1.74,5.64-.87,1.75-2.07,3.31-3.54,4.59-.73.63-1.51,1.18-2.35,1.66-.58.33-1.22.56-1.88.68-.31.06-.62.09-.94.09-.46,0-.92-.08-1.35-.26-.21-.08-.41-.18-.59-.31-.2-.13-.38-.3-.52-.49-.29-.39-.45-.86-.45-1.35.48-.42,1-.86,1.4-1.31s.88-.93,1.29-1.42c.74-.87,1.41-1.79,2-2.76.25-.42.49-.85.71-1.3.26-.49.48-1,.65-1.52.25-.74.42-1.51.52-2.28.09-.83.07-1.67-.06-2.5-.13-.74-.33-1.47-.6-2.17-.13-.39-.33-.76-.58-1.08-.21-.25-.45-.47-.71-.65-.86-.52-1.87-.73-2.86-.6-.43.04-.85.15-1.25.31-.73.27-1.44.61-2.1,1.03-.74.5-1.4,1.11-1.94,1.82-.5.68-.92,1.41-1.26,2.18-.24.52-.43,1.06-.57,1.61-.42,1.41-.66,2.87-.73,4.34-.01.47,0,.93.05,1.4,0,.46.13.92.25,1.78.12.86.29,2.13.46,3.4-.3.34-.7.58-1.14.69-.27.05-.54.05-.81,0-.46-.08-.92-.22-1.34-.42-.47-.22-.9-.53-1.26-.91-.37-.38-.67-.82-.89-1.3-.39-1.03-.57-2.13-.51-3.23,0-.56,0-1.12.07-1.68.05-.62.14-1.24.26-1.85.13-.74.33-1.65.55-2.56.22-.91.46-1.8.8-2.82.37-1.1.79-2.18,1.28-3.24.52-1.09,1.12-2.13,1.8-3.12.6-.87,1.25-1.7,1.95-2.5.5-.59.75-.84,1-1.08l.67-.67c.24-.23.46-.48.66-.74.41-.53.58-.88.29-1.37-.16-.22-.42-.35-.69-.35-.13,0-.26.03-.39.07-.61.19-1.2.45-1.75.78-.69.45-1.36.94-2,1.47-.38.3-.74.61-1.06.89-.58.51-1.11,1.07-1.6,1.67-.24.3-.47.6-.84,1.15s-.86,1.33-1.31,2.15c-.46.81-.88,1.65-1.25,2.51-.37.86-.7,1.74-1,2.54s-.49,1.56-.68,2.3c-.19.74-.37,1.5-.5,2.11-.2.99-.34,1.99-.41,3-.17,1.86.04,3.74.62,5.51.16.43.35.84.58,1.24.23.39.52.74.84,1.06.6.59,1.3,1.07,2.06,1.42.35.16.71.32,1.08.45.92.39,1.94.51,2.93.37.84-.18,1.54-.55,2.25-.71.23-.06.47-.11.7-.15.27.33.55.65.83,1,.32.35.65.68,1,1,.44.44.92.84,1.44,1.19.56.36,1.16.65,1.79.85.7.23,1.44.34,2.18.33,1.05,0,2.1-.11,3.12-.34,1.1-.27,2.16-.69,3.15-1.24.9-.49,1.76-1.07,2.56-1.71.48-.38.92-.79,1.34-1.23.34-.37.68-.74,1-1.12s.63-.77.86-1.09c.35-.46.67-.95.93-1.47.13-.24.25-.48.35-.73h0l1,.3-1,3.23h0c-.17.56-.2,1.16-.07,1.74.07.28.17.55.3.8.12.23.28.44.47.61.37.33.86.5,1.36.46.23-.02.45-.08.65-.18.14-.06.27-.15.38-.25.38-.39.65-.88.79-1.4.37-1,.76-2,1.11-3,0-.14.08-.28.11-.41h0l4-.08h0c0,.5.09,1,.12,1.29.03.29,0,.36.05.43.05.07,0,.14,0,.21s0,.14.12.3.17.39.28.63.24.46.35.64c.16.28.38.52.66.69.42.36,1.05.3,1.41-.12.05-.06.1-.13.13-.2.13-.19.24-.4.3-.63.09-.33.15-.66.18-1v-2.23l.12.03ZM14.49,92.3c-.13-.52-.23-1.05-.29-1.59-.14-1.1-.14-2.21,0-3.31.07-.6.19-1.27.32-1.94.13-.67.3-1.32.41-1.76s.18-.64.25-.84c.15-.41.32-.8.53-1.18.05-.09.11-.17.18-.24.18-.15.3-.28.57-.25h0c.26-.05.52.06.67.27.17.25.3.53.37.82.12.74.16,1.49.11,2.23,0,.3,0,.6-.1,1-.1.4-.15,1-.27,1.63-.12.63-.24,1.18-.39,1.69-.14.47-.32.92-.54,1.36-.22.41-.48.8-.79,1.15-.3.35-.63.66-1,.93l-.03.03ZM40.06,91.9c-.3.29-.77.28-1.06-.02-.04-.04-.08-.09-.11-.14l.92-1.91h0l.41,1.86h0c-.04.08-.1.15-.16.21Z"/>
    <path class="cls-1" d="M106.25,88.33c-.57-1.91-1.49-3.7-2.7-5.28-.54-.77-1.12-1.51-1.73-2.22-.61-.71-1.25-1.38-1.93-2-.67-.64-1.38-1.24-2.12-1.8-.75-.65-1.53-1.26-2.32-1.85-.79-.59-1.61-1.14-2.45-1.67-.84-.53-1.68-1-2.55-1.48-2.11-1.12-4.32-2.05-6.59-2.78-4.52-1.47-9.25-2.14-14-2-1.7.02-3.39.3-5,.83-.53.18-1.04.39-1.54.63-.49.25-.97.52-1.44.82-.47.3-.92.64-1.35,1-.47.32-.65.92-.42,1.44.17.32.44.58.78.72.22.1.46.16.7.18.84.02,1.66-.23,2.35-.7.18-.13.47-.4.39-.66-.04-.16-.17-.29-.33-.33-.28-.08-.57-.06-.84.05.5-.34,1.05-.59,1.63-.75.43-.1.87-.15,1.31-.16.72,0,1.86-.08,3,0,2.29.07,4.56.4,6.77,1,1.94.57,3.86,1.21,5.75,1.93,1.89.72,3.75,1.52,5.06,2.1s2.05,1,2.78,1.37c.73.37,1.44.86,2.13,1.33.69.47,1.37,1,2,1.51.81.69,1.62,1.39,2.38,2.13.76.74,1.49,1.52,2.21,2.31.38.44.74.9,1.07,1.38.67.96,1.22,2,1.64,3.09.27.69.43,1.41.47,2.15.03.74-.07,1.48-.29,2.18-.21.7-.55,1.36-1,1.94-.5.65-1.13,1.2-1.84,1.61-1.04.63-2.13,1.15-3.27,1.57-2.45.92-5.06,1.35-7.68,1.27-1.71-.07-3.42-.23-5.11-.49h0l-.09-9.57h0c3.39.29,6.73,1.01,9.93,2.14-.17.37-.43.7-.75.95-.24.19-.47.4-.68.62-.13.19-.16.43-.07.64.04.08.09.16.16.22.11.1.23.2.36.28.45.24.97.35,1.48.31.95-.16,1.82-.65,2.44-1.39.23-.24.42-.52.57-.83.58-1.22.41-2.66-.44-3.71-.17-.23-.36-.44-.57-.64-.21-.19-.43-.36-.67-.51-1.27-.75-2.63-1.32-4.05-1.71-.73-.19-1.48-.34-2.23-.44-1.74-.27-3.49-.41-5.25-.43-.03-1.05-.14-2.09-.31-3.12-.09-.52-.19-1-.27-1.39-.06-.26-.13-.52-.21-.78-.06-.19-.12-.37-.2-.55-.09-.22-.19-.43-.3-.64-.18-.33-.45-.59-.78-.76-.34-.17-.75-.09-1,.2-.07.07-.12.15-.16.24-.32.83-.58,1.69-.75,2.57-.09.44-.15.89-.21,1.41-.13,1.07-.29,2.37-.48,3.57-1.59.2-3.16.54-4.7,1-.74.23-1.47.51-2.17.84l-1,.51c-.51.29-.99.62-1.43,1-.22.18-.43.37-.63.58-.56.61-.82,1.43-.7,2.25.12.67.4,1.29.81,1.83.15.2.32.4.49.58.24.27.59.64.95,1,.7.71,1.35,1.35,2,1.86.29.24.59.48.9.71.31.23.62.43,1.14.77l2,1.23,2.19,1.33c0,.17.07.34.11.53s.09.4.15.69c.06.29.15.67.24,1.05.06.23.15.46.28.66.12.2.28.38.46.52.56.46,1.32.59,2,.33.27-.1.51-.24.73-.42.23-.18.42-.4.57-.65.16-.25.27-.52.34-.81.9.13,1.81.24,2.72.32.91.08,1.82.15,2.59.19,1.3.06,2.61.02,3.91-.12,1.85-.19,3.66-.62,5.4-1.28,1.15-.44,2.25-1,3.29-1.67,1.05-.67,2.02-1.43,2.92-2.29.33-.32.64-.65.93-1,.59-.71,1.1-1.48,1.52-2.3,1.05-1.9,1.3-4.15.69-6.23l-.09-.06ZM73.85,95.9c-.52-.28-1.03-.59-1.52-.92-.43-.29-.84-.6-1.24-.93-.39-.31-.76-.65-1.11-1-.35-.36-.69-.73-.87-1-.11-.1-.19-.24-.24-.38-.07-.24,0-.5.18-.67.13-.1.28-.17.43-.22.3-.12.85-.32,1.39-.49.54-.17,1.11-.32,1.59-.42.48-.1.89-.17,1.17-.22l.78-.09,1.34-.1c.5,0,1-.05,1.5-.05h0v7.66h0c-1.18-.22-2.33-.61-3.4-1.17Z"/>
    <path class="cls-1" d="M120.45,73.79c-.03-.3-.11-.6-.25-.87-.12-.23-.27-.44-.46-.62-.55-.56-1.35-.79-2.11-.61-.07-.19-.17-.37-.3-.53-.25-.32-.6-.54-1-.64-1.06-.29-2.17-.35-3.25-.17-.79.12-1.58.29-2.35.51-.86.25-1.7.58-2.49,1-.8.43-1.55.94-2.25,1.52-.29.24-.56.51-.81.79-1.02,1.06-1.63,2.44-1.74,3.91,0,.81.14,1.61.44,2.36.18.45.45,1,.75,1.54l.43.82c.06.14.13.27.22.4.08.09.17.17.27.23.31.15.66.18,1,.11.22-.04.44-.11.64-.21.2-.1.38-.24.53-.42.15-.19.27-.42.41-.47.14-.05.33.1.51.2.17.1.36.16.55.2.22.05.45.07.68.06h1.09l.87-.07c.2-.02.39-.06.58-.1.74-.13,1.47-.34,2.17-.62.9-.39,1.74-.91,2.49-1.54.88-.74,1.65-1.6,2.29-2.56.59-.84.96-1.81,1.09-2.82.05-.46.05-.93,0-1.39h0ZM108.36,76.23c-.65.63-1.26,1.29-1.83,2,.13-.53.32-1.05.58-1.53.51-.96,1.29-1.77,2.23-2.32,1.04-.61,2.18-1.03,3.37-1.23-.79.41-1.55.88-2.27,1.4-.73.52-1.42,1.09-2.08,1.7v-.02ZM117.01,75.91c-.08.44-.27.85-.55,1.2-.14.17-.31.33-.49.46-.45.3-.9.6-1.36.88-.87.55-1.83.97-2.83,1.23-.97.2-1.97.16-2.92-.11.46-.69.99-1.33,1.59-1.91.61-.58,1.28-1.08,2-1.51.7-.42,1.44-.75,2.22-1,.56-.19,1.16-.23,1.74-.13.17.02.32.1.43.23.18.19.25.45.21.7l-.04-.04Z"/>
    <path class="cls-1" d="M173.64,90.83c-.02-.58-.11-1.16-.27-1.72-.16-.56-.39-1.1-.69-1.6-.29-.49-.65-.95-1.06-1.35-.73-.68-1.77-.91-2.72-.6-.5.2-.95.48-1.35.84-.75.58-2,1.59-3.13,2.65-1.13,1.06-2.3,2.16-3.39,3.3.25-.74.53-1.47.84-2.18.31-.71.67-1.4.94-1.92.27-.52.45-.84.61-1.18.16-.34.3-.7.39-.95.13-.32.19-.66.17-1,0-.14-.03-.28-.06-.42-.02-.1-.06-.19-.12-.27-.35-.45-.85-.28-1.3,0-.14.1-.26.21-.37.34-.19.2-.49.52-.78.85s-.58.67-.86,1c-.43.53-.83,1.09-1.19,1.68-.37.58-.71,1.19-1,1.81-.29.63-.53,1.28-.69,1.72-.21.54-.34,1.11-.38,1.69-.02.28-.02.56,0,.84.04.79.16,1.57.35,2.33.1.39.22.78.36,1.16-.53,1.17-1,2.36-1.4,3.58-.4,1.22-.73,2.46-1,3.72-.27,1.26-.48,2.53-.58,3.3-.08.43-.11.86-.1,1.3.14,1.33.73,2.57,1.68,3.51.67.68,1.77.68,2.45.01.04-.04.08-.08.11-.12.49-1.95,1-3.89,1.43-5.84h0l.45-1.55h0c.15-.52.38-1,.68-1.77.3-.77.69-1.77,1.09-2.79.45-.08.91-.18,1.36-.29.45-.11.9-.22,1.28-.33.64-.17,1.26-.42,1.84-.74.28-.16.55-.33.92-.59.37-.26.81-.61,1.26-1s.87-.75,1.23-1.09c.63-.6,1.2-1.27,1.68-2,.93-1.27,1.41-2.82,1.35-4.39l-.03.06ZM169.85,92.99c-.24.4-.55.77-.9,1.08-.62.52-1.26,1.01-1.93,1.47-.46.31-1.05.35-1.55.12.3-.73.66-1.43,1.06-2.11.4-.69.83-1.36,1.31-2,.48-.62.99-1.21,1.54-1.76.18-.2.47-.27.72-.17.25.11.41.34.44.61.04.96-.2,1.9-.69,2.72v.04Z"/>
  </g>
</svg>