<svg xmlns="http://www.w3.org/2000/svg" version="1.1" xmlns:xlink="http://www.w3.org/1999/xlink" width="512" height="512" x="0" y="0" viewBox="0 0 64 64" style="enable-background:new 0 0 512 512" xml:space="preserve" class=""><g><path d="M59.167 32.02a3.278 3.278 0 0 0-5.661 1.93c-3.081 26.337-40.581 25.727-42.962-.62A21.46 21.46 0 0 1 30.05 10.494a3.256 3.256 0 0 0-.51-6.491C3.062 5.853-5.85 43.203 17.646 56.386c9.003 4.612 19.185 4.962 27.948.14a28.028 28.028 0 0 0 14.403-22.065 3.22 3.22 0 0 0-.83-2.441z" fill="#ffffff" opacity="1" data-original="#000000"></path><path d="M14.495 32A17.524 17.524 0 0 0 32 49.505c23.226-.96 23.216-34.05 0-35.01A17.524 17.524 0 0 0 14.495 32zM33 19.997v9.182A3.036 3.036 0 0 1 34.82 31h6.312a1 1 0 0 1 0 2.001h-6.311A2.996 2.996 0 1 1 31 29.18v-9.183a1 1 0 0 1 2 0z" fill="#ffffff" opacity="1" data-original="#000000"></path><path d="M32 33a1 1 0 0 0 0-2 1 1 0 0 0 0 2z" fill="#ffffff" opacity="1" data-original="#000000"></path></g></svg>