<svg xmlns="http://www.w3.org/2000/svg" version="1.1" xmlns:xlink="http://www.w3.org/1999/xlink" width="512" height="512" x="0" y="0" viewBox="0 0 500 500" style="enable-background:new 0 0 512 512" xml:space="preserve" class=""><g><path fill-rule="evenodd" d="M46.969 432.155a6.45 6.45 0 0 1-7.42-10.55l79.172-55.964c2.398-1.69 5.111-1.463 7.449.017l96.944 61.414a.852.852 0 0 0 1.027-.078L440.396 238.56c.6-.523.23-1.511-.566-1.511h-46.724a6.461 6.461 0 0 1 0-12.922h63.659c3.807 0 6.694 3.02 6.406 7.323l-4.247 64.792a6.449 6.449 0 0 1-12.872-.808l2.97-45.312c.05-.764-.848-1.209-1.425-.706L228.52 440.31l-.009-.011a6.443 6.443 0 0 1-7.663.591l-97.727-61.91a.847.847 0 0 0-.958.024zm171.538-247.511c0 4.331 5.258 6.5 8.313 3.444 3.056-3.056.887-8.313-3.444-8.313a4.867 4.867 0 0 0-4.869 4.869zm-87.794 7.39c3.574 45.444 39.829 81.699 85.273 85.274a.858.858 0 0 0 .929-.859v-9.929a6.461 6.461 0 0 1 12.922 0v9.929c0 .505.425.899.929.859 45.445-3.575 81.699-39.829 85.274-85.274a.858.858 0 0 0-.859-.929h-9.929a6.461 6.461 0 0 1 0-12.922h9.929a.858.858 0 0 0 .859-.929c-3.574-45.445-39.829-81.699-85.274-85.274a.858.858 0 0 0-.929.859v9.929a6.461 6.461 0 0 1-12.922 0v-9.929a.858.858 0 0 0-.929-.859c-45.444 3.575-81.699 39.828-85.273 85.274a.858.858 0 0 0 .859.929h9.929a6.461 6.461 0 0 1 0 12.922h-9.929a.859.859 0 0 0-.859.929zm92.664 10.402c-10.56 0-18.805-9.148-17.693-19.683a.846.846 0 0 0-.437-.843l-30.242-16.86a6.44 6.44 0 0 1 6.259-11.257l30.256 16.868a.847.847 0 0 0 .948-.072 17.8 17.8 0 0 1 17.545-2.457.847.847 0 0 0 .931-.19l38.415-38.415a6.46 6.46 0 1 1 9.136 9.136l-38.416 38.415c-.909.909 1.089 2.234 1.089 7.566.001 9.824-7.966 17.792-17.791 17.792zm-118.116 24.989c14.912 54.007 58.275 111.818 90.302 154 8.855 11.663 17.143 22.549 23.64 31.874a296.012 296.012 0 0 0 3.477 4.901.86.86 0 0 0 1.394 0c1.498-2.063 2.75-3.86 3.473-4.896l.017.012c6.61-9.483 14.656-20.076 23.627-31.892 32.027-42.182 75.391-99.993 90.302-154 6.786-24.58 8.368-50.189 1.274-77.283-14.091-53.819-62.924-92.023-119.39-92.023s-105.299 38.203-119.39 92.023c-7.094 27.095-5.512 52.704 1.274 77.284zm118.116 63.095c58.472 0 105.876-47.403 105.876-105.876 0-58.472-47.404-105.876-105.876-105.876s-105.875 47.403-105.875 105.876c0 58.472 47.403 105.876 105.875 105.876z" clip-rule="evenodd" fill="#ffffff" opacity="1" data-original="#000000"></path></g></svg>