<svg xmlns="http://www.w3.org/2000/svg" version="1.1" xmlns:xlink="http://www.w3.org/1999/xlink" width="512" height="512" x="0" y="0" viewBox="0 0 512.037 512.037" style="enable-background:new 0 0 512 512" xml:space="preserve" class=""><g><path d="m504.752 147.146-241-144.999a15 15 0 0 0-15.467 0l-241 144.999c-7.099 4.271-9.391 13.487-5.119 20.586 4.27 7.099 13.486 9.392 20.586 5.119L256.019 32.506l233.267 140.346a14.925 14.925 0 0 0 7.719 2.149c5.09 0 10.053-2.591 12.867-7.269 4.271-7.098 1.979-16.315-5.12-20.586z" fill="#ffffff" opacity="1" data-original="#000000" class=""></path><path d="M251.269 203.435c0-37.654-30.635-68.289-68.29-68.289-37.654 0-68.289 30.635-68.289 68.289 0 37.655 30.635 68.29 68.289 68.29 37.655 0 68.29-30.635 68.29-68.29zM110.317 269.556c-26.503 20.529-44.037 52.095-45.662 87.742h161.364v-65.512c-13.006 6.362-27.612 9.939-43.04 9.939-28.759 0-54.672-12.416-72.662-32.169zM420.409 230.999H282.205c-14.439 0-26.187 11.748-26.187 26.188v100.111h190.577V257.187c.001-14.44-11.746-26.188-26.186-26.188zM465.019 387.298h-418c-8.284 0-15 6.716-15 15s6.716 15 15 15h13v79.739a14.996 14.996 0 0 0 15.001 15l362-.03c8.284-.001 14.999-6.716 14.999-15v-79.709h13c8.284 0 15-6.716 15-15s-6.716-15-15-15z" fill="#ffffff" opacity="1" data-original="#000000" class=""></path></g></svg>