<svg xmlns="http://www.w3.org/2000/svg" version="1.1" xmlns:xlink="http://www.w3.org/1999/xlink" width="512" height="512" x="0" y="0" viewBox="0 0 512 512" style="enable-background:new 0 0 512 512" xml:space="preserve" class=""><g><path d="M147.424 385.311h-44.33L35.669 270.995l14.023-22.027a102.408 102.408 0 0 1-9.489-28.284 103.934 103.934 0 0 1-1.388-11.265L0 270.389l67.783 114.922H41.39c-19.587 0-35.521 15.935-35.521 35.521v28.718h177.076v-28.718c0-19.586-15.935-35.521-35.521-35.521zM480.262 62.45H156.431c-17.5 0-31.738 14.237-31.738 31.738v6.639a103.142 103.142 0 0 1 35.107.26c20.71 3.721 39.546 13.577 54.471 28.502l20.562 20.562-108.899 108.897H512V94.188c0-17.501-14.238-31.738-31.738-31.738z" fill="#ffffff" opacity="1" data-original="#000000" class=""></path><path d="M124.693 289.462v42.514c0 17.5 14.237 31.737 31.738 31.737H247.2l-5.363 55.423h-25.101v30.414h203.219v-30.414h-25.101l-5.362-55.423h90.768c17.5 0 31.738-14.237 31.738-31.737v-42.514H124.693zM112.419 135.94l-9.507 4.158-43.246-43.247-23.701 23.701 43.246 43.246-4.157 9.507c-11.869 27.147-6.271 58.158 14.219 79.393l102.54-102.538c-21.236-20.492-52.246-26.088-79.394-14.22z" fill="#ffffff" opacity="1" data-original="#000000" class=""></path></g></svg>