<svg xmlns="http://www.w3.org/2000/svg" version="1.1" xmlns:xlink="http://www.w3.org/1999/xlink" width="512" height="512" x="0" y="0" viewBox="0 0 297 297" style="enable-background:new 0 0 512 512" xml:space="preserve" class=""><g><path d="M47.383 90.724c18.456 0 33.47-15.015 33.47-33.47s-15.015-33.471-33.47-33.471-33.471 15.015-33.471 33.471 15.015 33.47 33.471 33.47zM17.21 129.172v62.716c0 15.966 12.943 28.908 28.908 28.908h37.675V288.4a7.082 7.082 0 0 0 7.082 7.082h33.384a7.082 7.082 0 0 0 7.082-7.082v-90.32c0-13.477-10.925-24.402-24.402-24.402H77.555v-44.505C77.555 112.509 64.046 99 47.383 99c-16.664 0-30.173 13.509-30.173 30.172zM194.916 100.048a8.556 8.556 0 0 0 3.191.617 8.603 8.603 0 0 0 7.987-5.407l33.384-83.461a8.599 8.599 0 0 0-4.79-11.178 8.593 8.593 0 0 0-11.177 4.789L190.126 88.87a8.6 8.6 0 0 0 4.79 11.178z" fill="#ffffff" opacity="1" data-original="#000000" class=""></path><path d="M191.028 134.047h33.384a8.6 8.6 0 0 0 8.599-8.599V75.372a8.6 8.6 0 0 0-17.198 0v41.478h-24.785a8.6 8.6 0 0 0 0 17.197zM265.89 288.401a8.6 8.6 0 0 0 17.198 0V198H265.89v90.401zM274.489 146.946H157.644a8.6 8.6 0 0 0-8.599 8.599V181.5h134.044v-25.955a8.6 8.6 0 0 0-8.6-8.599zM149.045 288.401a8.6 8.6 0 0 0 17.198 0V198h-17.198v90.401z" fill="#ffffff" opacity="1" data-original="#000000" class=""></path></g></svg>