<svg xmlns="http://www.w3.org/2000/svg" version="1.1" xmlns:xlink="http://www.w3.org/1999/xlink" width="512" height="512" x="0" y="0" viewBox="0 0 4000 4000" style="enable-background:new 0 0 512 512" xml:space="preserve" class=""><g><path d="m282.923 1683.708 745.315 421.265c3.208 1.815 6.643 2.819 10.046 4.051 1.815.648 3.467 1.685 5.314 2.139 5.412 1.426 10.985 2.171 16.559 2.171s11.115-.745 16.559-2.171c1.847-.486 3.5-1.491 5.315-2.139 3.37-1.231 6.837-2.268 10.045-4.051l307.037-173.529 252.306 142.452-428.686 242.292c-.745.421-1.296 1.069-2.009 1.523a64.757 64.757 0 0 0-9.624 7.291c-1.102 1.004-2.203 1.977-3.208 3.046-2.981 3.111-5.639 6.546-8.004 10.305-.421.713-1.004 1.296-1.393 2.009l-.292.389c-2.495 4.439-4.278 9.041-5.639 13.74-.357 1.231-.518 2.528-.81 3.791-.875 3.954-1.426 7.874-1.588 11.86-.032.843-.324 1.653-.324 2.495v745.315a64.8 64.8 0 0 0 32.923 56.417l745.315 421.265c3.208 1.815 6.643 2.852 10.045 4.051 1.815.648 3.467 1.685 5.315 2.138 5.412 1.426 10.985 2.171 16.559 2.171s11.115-.745 16.559-2.171c1.847-.486 3.5-1.491 5.314-2.138 3.37-1.231 6.838-2.269 10.046-4.051l745.315-421.265a64.8 64.8 0 0 0 32.923-56.417v-745.315c0-5.801-.778-11.471-2.268-16.916-.583-2.171-1.75-4.083-2.56-6.189-1.231-3.143-2.204-6.384-3.921-9.3-1.264-2.203-3.078-4.018-4.601-6.06-1.847-2.463-3.435-5.087-5.606-7.259-1.847-1.847-4.18-3.208-6.254-4.829-2.301-1.815-4.375-3.889-6.935-5.379-.129-.065-.259-.097-.389-.162s-.227-.194-.357-.292l-428.686-242.292 252.305-142.453 307.037 173.529c3.208 1.815 6.643 2.819 10.045 4.051 1.815.648 3.467 1.685 5.314 2.139 5.412 1.426 10.986 2.171 16.559 2.171s11.115-.745 16.559-2.171c1.847-.486 3.5-1.49 5.314-2.139 3.37-1.231 6.837-2.268 10.045-4.051l745.315-421.265a64.801 64.801 0 0 0 32.924-56.417V882.04c0-5.801-.778-11.471-2.269-16.916-.583-2.171-1.75-4.083-2.56-6.189-1.231-3.143-2.203-6.384-3.921-9.3-1.264-2.204-3.079-4.018-4.601-6.06-1.847-2.463-3.435-5.087-5.606-7.259-1.847-1.847-4.18-3.208-6.254-4.828-2.301-1.815-4.375-3.889-6.935-5.379-.129-.065-.259-.097-.389-.162-.129-.065-.227-.194-.356-.292L2971.794 404.39a64.882 64.882 0 0 0-63.805 0l-745.315 421.265c-.81.454-1.426 1.199-2.236 1.685a66.273 66.273 0 0 0-9.268 7c-1.167 1.069-2.333 2.074-3.403 3.208-2.917 3.079-5.541 6.481-7.875 10.175-.454.713-1.037 1.329-1.458 2.074-.065.13-.194.259-.259.389-2.495 4.44-4.278 9.041-5.639 13.74-.356 1.231-.519 2.528-.81 3.791-.875 3.953-1.426 7.874-1.588 11.86-.032.843-.324 1.653-.324 2.495v518.48h-259.24v-518.48c0-5.801-.778-11.471-2.268-16.916-.583-2.171-1.75-4.083-2.56-6.189-1.231-3.143-2.203-6.384-3.921-9.3-1.264-2.204-3.078-4.018-4.601-6.06-1.847-2.463-3.435-5.088-5.606-7.259-1.847-1.847-4.18-3.208-6.254-4.828-2.301-1.815-4.375-3.889-6.935-5.379-.13-.065-.259-.097-.389-.162s-.227-.194-.357-.292l-745.315-421.265c-19.799-11.18-43.974-11.18-63.806 0L283.248 825.688c-.778.454-1.361 1.134-2.139 1.62a64.371 64.371 0 0 0-9.43 7.129c-1.134 1.037-2.268 2.009-3.305 3.111-2.949 3.079-5.574 6.513-7.939 10.24-.454.713-1.004 1.296-1.426 2.009l-.292.389c-2.495 4.44-4.277 9.041-5.638 13.74-.357 1.231-.518 2.528-.81 3.791-.875 3.953-1.426 7.874-1.588 11.86-.389.746-.68 1.523-.68 2.366v745.315a64.811 64.811 0 0 0 32.922 56.45zm96.697-690.681 615.695 347.997v596.414L379.62 1589.441zm2233.871 1379.546-613.621 346.831-613.589-346.798 613.589-346.831zm-1294.126 111.084 615.695 347.997v596.414l-615.695-347.997zm1620.25-1948.512 613.621 346.831-613.621 346.798-613.589-346.798zM2259.11 993.027l615.695 347.997v596.414l-615.695-347.997v-59.398h291.645c35.775 0 64.81-29.035 64.81-64.81s-29.035-64.81-64.81-64.81H2259.11zm-129.62 537.016v97.215a64.8 64.8 0 0 0 32.923 56.417l306.519 173.27-252.305 142.453-184.871-104.506a64.882 64.882 0 0 0-63.805 0l-184.871 104.506-252.306-142.452 306.519-173.27c20.383-11.471 32.956-33.021 32.956-56.417v-97.215h259.241zM1060.125 535.145l613.621 346.831-613.621 346.798-613.589-346.831z" fill="#ffffff" opacity="1" data-original="#000000"></path></g></svg>