<svg xmlns="http://www.w3.org/2000/svg" version="1.1" xmlns:xlink="http://www.w3.org/1999/xlink" width="512" height="512" x="0" y="0" viewBox="0 0 512 512" style="enable-background:new 0 0 512 512" xml:space="preserve" class=""><g><path d="M421 316h-5.142c-12.524-35.405-46.45-60-84.858-60-38.657 0-72.759 24.917-85.093 60.674-31.641 4.277-57.085 28.374-63.398 59.326H181c-33.091 0-60 26.909-60 60s26.909 60 60 60h240c49.629 0 91-40.371 91-90s-41.371-90-91-90zM391 16H0v120h391zM91 106H61V76h30zm60 0h-30V76h30zm60 0h-30V76h30zM331 226c21.553 0 42.133 5.839 60 16.179V166H0v90h251.975c21.418-18.794 49.204-30 79.025-30zm-240 0H61v-30h30zm60 0h-30v-30h30zm60 0h-30v-30h30zM159.979 348.476c12.173-27.466 35.669-48.56 64.438-57.627.877-1.694 1.998-3.208 2.95-4.849H0v120h96.162c10.093-28.458 34.101-50.387 63.817-57.524zM121 316h30v30h-30zm-30 30H61v-30h30z" fill="#ffffff" opacity="1" data-original="#000000" class=""></path></g></svg>