<svg xmlns="http://www.w3.org/2000/svg" version="1.1" xmlns:xlink="http://www.w3.org/1999/xlink" width="512" height="512" x="0" y="0" viewBox="0 0 512 512" style="enable-background:new 0 0 512 512" xml:space="preserve" class=""><g><path fill-rule="evenodd" d="M423.227 213.135a13.47 13.47 0 0 0-13.47-13.478h-.072a13.474 13.474 0 1 0 13.542 13.478zm88.793 289.039a9.888 9.888 0 0 1-9.826 9.826H317.24a9.9 9.9 0 0 1-9.826-9.826V195.791a9.9 9.9 0 0 1 9.826-9.826h184.954a9.893 9.893 0 0 1 9.826 9.826zM38.878 358.155A38.906 38.906 0 0 1 .021 319.634L-.02 315.1h138.51l2.7 8.3a30.627 30.627 0 0 0 29.2 21.222h110.06v13.531zM27.9 31.638A31.676 31.676 0 0 1 59.534 0h340.7a31.665 31.665 0 0 1 31.638 31.638v127.379H317.24a36.836 36.836 0 0 0-36.782 36.774v121.885h-112.8l-6.558-20.208a13.472 13.472 0 0 0-12.807-9.313H27.9z" fill="#089768" opacity="1" data-original="#000000" class=""></path></g></svg>