<svg xmlns="http://www.w3.org/2000/svg" version="1.1" xmlns:xlink="http://www.w3.org/1999/xlink" width="512" height="512" x="0" y="0" viewBox="0 0 512 512" style="enable-background:new 0 0 512 512" xml:space="preserve" class=""><g><path d="M256 151a85 85 0 1 0 85 85 85.1 85.1 0 0 0-85-85zm50.31 73.39-47.53 45a15 15 0 0 1-20.62 0l-32.47-30.73a15 15 0 0 1 20.62-21.79l22.16 21 37.22-35.23a15 15 0 1 1 20.62 21.78z" fill="#ffffff" opacity="1" data-original="#000000" class=""></path><path d="M459.5 48.64A15 15 0 0 0 445.62 47 162.18 162.18 0 0 1 268.15 6L267 4.77a15 15 0 0 0-21.94 0L243.85 6A162.16 162.16 0 0 1 66.38 47 15 15 0 0 0 46 61v85.51a427.49 427.49 0 0 0 202.09 363.24 15 15 0 0 0 15.82 0A427.49 427.49 0 0 0 466 146.51V61a15 15 0 0 0-6.5-12.36zM256 351a115 115 0 1 1 115-115 115.13 115.13 0 0 1-115 115z" fill="#ffffff" opacity="1" data-original="#000000" class=""></path></g></svg>