<svg xmlns="http://www.w3.org/2000/svg" version="1.1" xmlns:xlink="http://www.w3.org/1999/xlink" width="512" height="512" x="0" y="0" viewBox="0 0 512 512" style="enable-background:new 0 0 512 512" xml:space="preserve" class=""><g><path fill-rule="evenodd" d="M511.987 256a42.765 42.765 0 0 1-84.778 8h-31.421a139.786 139.786 0 0 1-35.336 85.127L382.72 371.4a42.761 42.761 0 1 1-6.18 65.619 42.752 42.752 0 0 1-5.143-54.31l-22.268-22.269a139.6 139.6 0 0 1-85.156 35.327V427.2a42.767 42.767 0 1 1-15.993 0v-31.43a139.584 139.584 0 0 1-85.109-35.327L140.6 382.711a42.784 42.784 0 0 1-65.625 54.31 42.776 42.776 0 0 1 54.3-65.619l22.268-22.273A139.786 139.786 0 0 1 116.212 264H84.791a42.782 42.782 0 1 1 0-16h31.421a139.751 139.751 0 0 1 35.336-85.119L129.28 140.6a42.752 42.752 0 1 1 11.32-11.31l22.268 22.272a139.565 139.565 0 0 1 85.109-35.331V84.8a42.814 42.814 0 1 1 15.993 0v31.43a139.58 139.58 0 0 1 85.156 35.331L371.4 129.29a42.757 42.757 0 1 1 11.32 11.31l-22.268 22.28A139.751 139.751 0 0 1 395.788 248h31.421a42.765 42.765 0 0 1 84.778 8zm-172.435-29.382a118.169 118.169 0 0 0-167.1 0 8.006 8.006 0 0 0 11.323 11.322 102.121 102.121 0 0 1 144.458 0 8.006 8.006 0 0 0 5.662 2.34 7.925 7.925 0 0 0 5.661-2.34 8.029 8.029 0 0 0 0-11.322zM256 224.009a85.645 85.645 0 0 0-60.954 25.24 8 8 0 1 0 11.323 11.313 70.205 70.205 0 0 1 99.262 0 7.986 7.986 0 1 0 11.276-11.313A85.456 85.456 0 0 0 256 224.009zm0 32a53.79 53.79 0 0 0-38.308 15.87 8 8 0 0 0 11.322 11.309 38.166 38.166 0 0 1 53.972 0 8 8 0 0 0 11.323-11.309A53.794 53.794 0 0 0 256 256.01zm22.174 54.169A22.174 22.174 0 1 0 256 332.362a22.2 22.2 0 0 0 22.174-22.183zm-15.994 0a6.18 6.18 0 1 0-6.18 6.18 6.19 6.19 0 0 0 6.18-6.179z" fill="#ffffff" opacity="1" data-original="#000000"></path></g></svg>