<svg xmlns="http://www.w3.org/2000/svg" version="1.1" xmlns:xlink="http://www.w3.org/1999/xlink" width="512" height="512" x="0" y="0" viewBox="0 0 32 32" style="enable-background:new 0 0 512 512" xml:space="preserve" class=""><g><path d="M23 28c-1.1 0-2.1-.7-2.5-1.8 0-.1 0-.2-.1-.2h-8.9c0 .1 0 .2-.1.2-.3 1.1-1.3 1.8-2.4 1.8-.6 0-1 .4-1 1s.4 1 1 1h14c.6 0 1-.4 1-1s-.4-1-1-1zM27 3H5C3.3 3 2 4.3 2 6v15c0 1.7 1.3 3 3 3h22c1.7 0 3-1.3 3-3V6c0-1.7-1.3-3-3-3zm-2 12h-5c-.3 0-.6-.2-.8-.4l-.9-1.4-1.3 3.2c-.2.3-.6.6-1 .6s-.7-.2-.9-.6l-1.4-2.8-1 1c-.2.3-.4.4-.7.4H7c-.6 0-1-.4-1-1s.4-1 1-1h4.6l1.7-1.7c.2-.2.6-.3.9-.3.3.1.6.3.7.5l1 2 1.2-2.9c.1-.3.5-.6.8-.6.4 0 .7.1.9.4l1.7 2.6H25c.6 0 1 .4 1 1s-.4 1-1 1z" fill="#089768" opacity="1" data-original="#000000" class=""></path></g></svg>