<svg xmlns="http://www.w3.org/2000/svg" version="1.1" xmlns:xlink="http://www.w3.org/1999/xlink" width="512" height="512" x="0" y="0" viewBox="0 0 32 32" style="enable-background:new 0 0 512 512" xml:space="preserve" class=""><g><path d="M29.923 26.618a.999.999 0 0 0-.217-.326l-1.999-1.999a1 1 0 1 0-1.414 1.414l.293.293h-3.967a11.99 11.99 0 0 0 5.361-9.606l.313.313a.997.997 0 0 0 1.414 0 1 1 0 0 0 0-1.414l-2-2c-.01-.01-.022-.012-.032-.021-1.21-5.18-5.78-9.072-11.28-9.252l.312-.313a1 1 0 1 0-1.414-1.414l-2 2c-.01.01-.012.022-.021.032-5.18 1.21-9.072 5.78-9.252 11.28l-.313-.312a1 1 0 1 0-1.414 1.414l2 2c.01.01.022.012.032.021A12.026 12.026 0 0 0 9.38 26H3a1 1 0 1 0 0 2h23.586l-.293.293a1 1 0 1 0 1.414 1.414l2-2a.999.999 0 0 0 .216-1.089zM6.244 18.17l1.463-1.463a1 1 0 1 0-1.414-1.414l-.27.27c.198-4.572 3.472-8.355 7.807-9.319l1.463 1.463a.997.997 0 0 0 1.414 0 1 1 0 0 0 0-1.414l-.27-.27c4.572.198 8.355 3.472 9.319 7.807l-1.463 1.463a1 1 0 1 0 1.414 1.414l.27-.27C25.748 21.746 21.368 26 16 26c-4.768 0-8.761-3.357-9.756-7.83z" fill="#ffffff" opacity="1" data-original="#000000" class=""></path><path d="M15.486 10.147 10 13l6 3 6-3-5.486-2.853a.976.976 0 0 0-1.028 0zM10 19.55a1 1 0 0 0 .445.832L15.5 23v-6.2L10 14.085zM16.5 23l5.055-2.618A1 1 0 0 0 22 19.55v-5.465L16.5 16.8z" fill="#ffffff" opacity="1" data-original="#000000" class=""></path></g></svg>