<svg xmlns="http://www.w3.org/2000/svg" version="1.1" xmlns:xlink="http://www.w3.org/1999/xlink" width="512" height="512" x="0" y="0" viewBox="0 0 1707 1707" style="enable-background:new 0 0 512 512" xml:space="preserve" fill-rule="evenodd" class=""><g><path d="M1406 1522H301c-64 0-116-53-116-116V301c0-64 52-116 116-116h1103c64 0 117 52 117 116v1103c1 65-52 118-115 118zm-56-153H357c-11 0-20-8-20-19V357c0-11 9-20 20-20h993c11 0 19 9 19 20v993c0 11-8 19-19 19zm-973-40h954V377H377z" fill="#089768" opacity="1" data-original="#000000" class=""></path><path d="M480 225c-11 0-19-9-19-20V21c0-11 8-20 19-20s20 9 20 20v184c0 11-10 20-20 20zM728 225c-11 0-19-9-19-20V21c0-11 8-20 19-20 12 0 20 9 20 20v184c1 11-8 20-20 20zM978 225c-11 0-19-9-19-20V21c0-11 8-20 19-20s20 9 20 20v184c0 11-9 20-20 20zM1227 225c-12 0-20-9-20-20V21c0-11 8-20 20-20 11 0 19 9 19 20v184c1 11-8 20-19 20zM480 1705c-11 0-19-8-19-19v-185c0-11 8-19 19-19s20 8 20 19v185c0 11-10 19-20 19zM728 1705c-11 0-19-8-19-19v-185c0-11 8-19 19-19 12 0 20 8 20 19v185c1 11-8 19-20 19zM978 1705c-11 0-19-8-19-19v-185c0-11 8-19 19-19s20 8 20 19v185c0 11-9 19-20 19zM1227 1705c-12 0-20-8-20-19v-185c0-11 8-19 20-19 11 0 19 8 19 19v185c1 11-8 19-19 19zM1686 500h-185c-11 0-19-9-19-20s8-19 19-19h185c11 0 19 8 19 19s-8 20-19 20zM1686 749h-185c-11 0-19-8-19-19s8-20 19-20h185c11 0 19 9 19 20s-8 19-19 19zM1686 998h-185c-11 0-19-9-19-20s8-19 19-19h185c11 0 19 8 19 19s-8 20-19 20zM1686 1247h-185c-11 0-19-8-19-19s8-19 19-19h185c11 0 19 8 19 19s-8 19-19 19zM205 500H21c-11 0-20-9-20-20s9-19 20-19h184c11 0 20 8 20 19s-9 20-20 20zM205 749H21c-11 0-20-8-20-19s9-20 20-20h184c11 0 20 9 20 20s-9 19-20 19zM205 998H21c-11 0-20-9-20-20s9-19 20-19h184c11 0 20 8 20 19s-9 20-20 20zM205 1247H21c-11 0-20-8-20-19s9-19 20-19h184c11 0 20 8 20 19s-9 19-20 19z" fill="#089768" opacity="1" data-original="#000000" class=""></path></g></svg>