<svg xmlns="http://www.w3.org/2000/svg" version="1.1" xmlns:xlink="http://www.w3.org/1999/xlink" width="512" height="512" x="0" y="0" viewBox="0 0 469.333 469.333" style="enable-background:new 0 0 512 512" xml:space="preserve" class=""><g><path d="M426.667 0h-384C19.135 0 0 19.135 0 42.667v64c0 23.531 19.135 42.667 42.667 42.667h384c23.531 0 42.667-19.135 42.667-42.667v-64C469.333 19.135 450.198 0 426.667 0zM85.333 96c0 5.896-4.771 10.667-10.667 10.667S64 101.896 64 96V53.333c0-5.896 4.771-10.667 10.667-10.667s10.667 4.771 10.667 10.667V96zM128 96a10.66 10.66 0 0 1-10.667 10.667A10.66 10.66 0 0 1 106.666 96V53.333a10.66 10.66 0 0 1 10.667-10.667A10.66 10.66 0 0 1 128 53.333V96zm42.667 0A10.66 10.66 0 0 1 160 106.667 10.66 10.66 0 0 1 149.333 96V53.333A10.66 10.66 0 0 1 160 42.666a10.66 10.66 0 0 1 10.667 10.667V96zM320 96c-11.76 0-21.333-9.573-21.333-21.333S308.24 53.333 320 53.333c11.76 0 21.333 9.573 21.333 21.333S331.76 96 320 96zm64 0c-11.76 0-21.333-9.573-21.333-21.333S372.24 53.333 384 53.333c11.76 0 21.333 9.573 21.333 21.333S395.76 96 384 96zM426.667 160h-384C19.135 160 0 179.135 0 202.667v64c0 23.531 19.135 42.667 42.667 42.667h384c23.531 0 42.667-19.135 42.667-42.667v-64C469.333 179.135 450.198 160 426.667 160zM85.333 256c0 5.896-4.771 10.667-10.667 10.667S64 261.896 64 256v-42.667c0-5.896 4.771-10.667 10.667-10.667s10.667 4.771 10.667 10.667V256zM128 256a10.66 10.66 0 0 1-10.667 10.667A10.66 10.66 0 0 1 106.666 256v-42.667a10.66 10.66 0 0 1 10.667-10.667A10.66 10.66 0 0 1 128 213.333V256zm42.667 0A10.66 10.66 0 0 1 160 266.667 10.66 10.66 0 0 1 149.333 256v-42.667A10.66 10.66 0 0 1 160 202.666a10.66 10.66 0 0 1 10.667 10.667V256zM320 256c-11.76 0-21.333-9.573-21.333-21.333s9.573-21.333 21.333-21.333c11.76 0 21.333 9.573 21.333 21.333S331.76 256 320 256zm64 0c-11.76 0-21.333-9.573-21.333-21.333s9.573-21.333 21.333-21.333c11.76 0 21.333 9.573 21.333 21.333S395.76 256 384 256zM426.667 320h-384C19.135 320 0 339.135 0 362.667v64c0 23.531 19.135 42.667 42.667 42.667h384c23.531 0 42.667-19.135 42.667-42.667v-64C469.333 339.135 450.198 320 426.667 320zM85.333 416c0 5.896-4.771 10.667-10.667 10.667S64 421.896 64 416v-42.667c0-5.896 4.771-10.667 10.667-10.667s10.667 4.771 10.667 10.667V416zM128 416a10.66 10.66 0 0 1-10.667 10.667A10.66 10.66 0 0 1 106.666 416v-42.667a10.66 10.66 0 0 1 10.667-10.667A10.66 10.66 0 0 1 128 373.333V416zm42.667 0A10.66 10.66 0 0 1 160 426.667 10.66 10.66 0 0 1 149.333 416v-42.667A10.66 10.66 0 0 1 160 362.666a10.66 10.66 0 0 1 10.667 10.667V416zM320 416c-11.76 0-21.333-9.573-21.333-21.333 0-11.76 9.573-21.333 21.333-21.333 11.76 0 21.333 9.573 21.333 21.333 0 11.76-9.573 21.333-21.333 21.333zm64 0c-11.76 0-21.333-9.573-21.333-21.333 0-11.76 9.573-21.333 21.333-21.333 11.76 0 21.333 9.573 21.333 21.333 0 11.76-9.573 21.333-21.333 21.333z" fill="#089768" opacity="1" data-original="#000000" class=""></path></g></svg>