<svg xmlns="http://www.w3.org/2000/svg" version="1.1" xmlns:xlink="http://www.w3.org/1999/xlink" width="512" height="512" x="0" y="0" viewBox="0 0 32 32" style="enable-background:new 0 0 512 512" xml:space="preserve" class=""><g><path d="M2 29c0 1.65 1.35 3 3 3h22c1.65 0 3-1.35 3-3v-2H2zM30 20l-.003-10.347c1.14-.392 1.791-1.658 1.84-2.862s-.384-2.371-.809-3.5C30.579 2.1 30.024.791 28.861.272c-.616-.274-1.313-.278-1.987-.278L4.947.003c-.693 0-1.418.008-2.03.334-.873.465-1.306 1.455-1.676 2.372C.708 4.03.157 5.408.153 6.854c-.003 1.172.79 2.304 1.849 2.8L2 20.008c-1.39-.153-2.058 1.421-2.052 2.56.004.792.255 1.654.918 2.087.517.337 1.173.348 1.79.348l26.923-.004c.472 0 .965-.004 1.386-.219.69-.352 1.003-1.179 1.069-1.95.103-1.205-.527-2.95-2.034-2.829zM4 9.965a3.612 3.612 0 0 0 1.53-.61.836.836 0 0 1 .943.001c1.19.842 2.862.843 4.056 0a.836.836 0 0 1 .944 0c1.19.842 2.862.843 4.056 0a.836.836 0 0 1 .944 0c1.19.842 2.863.843 4.056 0a.837.837 0 0 1 .944 0c1.19.842 2.863.843 4.056 0a.837.837 0 0 1 .944 0c.444.315.99.526 1.527.609V20h-6.343a6.02 6.02 0 0 0-3.774-3.683A2.982 2.982 0 0 0 19 14c0-1.654-1.346-3-3-3s-3 1.346-3 3c0 .938.441 1.766 1.117 2.317A6.02 6.02 0 0 0 10.343 20H4V9.965z" fill="#089768" opacity="1" data-original="#000000" class=""></path></g></svg>