<svg xmlns="http://www.w3.org/2000/svg" version="1.1" xmlns:xlink="http://www.w3.org/1999/xlink" width="512" height="512" x="0" y="0" viewBox="0 0 512 512" style="enable-background:new 0 0 512 512" xml:space="preserve" class=""><g><path d="M256 109.603c-80.724 0-146.397 65.674-146.397 146.397S175.276 402.397 256 402.397 402.397 336.724 402.397 256 336.724 109.603 256 109.603zM135.547 256l57.495-57.493 21.213 21.214-36.282 36.28 36.283 36.286-21.214 21.212zm102.938 73.055-27.189-12.679 62.22-133.432 27.189 12.679zm80.473-15.555-21.213-21.214 36.282-36.28-36.283-36.286 21.214-21.212 57.495 57.499z" fill="#ffffff" opacity="1" data-original="#000000" class=""></path><path d="M498.975 222.372a32.821 32.821 0 0 1-15.739-58.737l10.466-7.923-32-55.426-12.135 5.12a32.803 32.803 0 0 1-42.975-42.975l5.12-12.135-55.426-32-7.923 10.466a32.821 32.821 0 0 1-58.736-15.739L288 0h-64l-1.628 13.025a32.821 32.821 0 0 1-58.736 15.739l-7.923-10.466-55.426 32 5.12 12.135a32.803 32.803 0 0 1-42.975 42.975l-12.135-5.12-32 55.426 10.466 7.923a32.821 32.821 0 0 1-15.739 58.737L0 224v64l13.025 1.628a32.821 32.821 0 0 1 15.739 58.737l-10.466 7.923 32 55.426 12.135-5.12a32.803 32.803 0 0 1 42.975 42.975l-5.12 12.135 55.426 32 7.923-10.466a32.821 32.821 0 0 1 58.736 15.739L224 512h64l1.628-13.025a32.821 32.821 0 0 1 58.736-15.739l7.923 10.466 55.426-32-5.12-12.135a32.803 32.803 0 0 1 42.975-42.975l12.135 5.12 32-55.426-10.466-7.923a32.821 32.821 0 0 1 15.739-58.737L512 288v-64zM256 432.397c-97.266 0-176.397-79.131-176.397-176.397S158.734 79.603 256 79.603 432.397 158.734 432.397 256 353.266 432.397 256 432.397z" fill="#ffffff" opacity="1" data-original="#000000" class=""></path></g></svg>