<svg xmlns="http://www.w3.org/2000/svg" version="1.1" xmlns:xlink="http://www.w3.org/1999/xlink" width="512" height="512" x="0" y="0" viewBox="0 0 512.243 512.243" style="enable-background:new 0 0 512 512" xml:space="preserve" class=""><g><path d="M100.399 304.565h95.327v-20.116c0-34.33-27.83-62.16-62.16-62.16H62.16c-34.33 0-62.16 27.83-62.16 62.16v97.06h100.399z" fill="#ffffff" opacity="1" data-original="#000000" class=""></path><circle cx="97.863" cy="118.91" r="71.955" fill="#ffffff" opacity="1" data-original="#000000" class=""></circle><path d="M130.399 334.565h51.583v157.541h-51.583zM365.444 316.82h-20.691v-48.722c0-28.264-22.912-51.177-51.177-51.177-11.683 0-21.153 9.471-21.153 21.154v50.232L248.47 316.82l-36.488 17.745v157.541l33.614 20.002h119.848c27.972 0 50.648-22.676 50.648-50.648v-93.992c0-27.972-22.676-50.648-50.648-50.648zM241.041 67.652a222.223 222.223 0 0 1 67.518 67.517 222.186 222.186 0 0 1 67.517-67.517A222.197 222.197 0 0 1 308.559.135a222.211 222.211 0 0 1-67.518 67.517zM512.243 175.866a222.223 222.223 0 0 1-67.518-67.517 222.186 222.186 0 0 1-67.517 67.517 222.208 222.208 0 0 1 67.517 67.517 222.2 222.2 0 0 1 67.518-67.517z" fill="#ffffff" opacity="1" data-original="#000000" class=""></path></g></svg>