<svg xmlns="http://www.w3.org/2000/svg" version="1.1" xmlns:xlink="http://www.w3.org/1999/xlink" width="512" height="512" x="0" y="0" viewBox="0 0 512 512" style="enable-background:new 0 0 512 512" xml:space="preserve" class=""><g><path d="m445 134.5 21.901-28.2L405.7 45.099 377.5 67c-22.5-14.401-47.699-24.9-73.799-30.6L299.2 0h-86.4l-4.501 36.4C182.199 42.1 157 52.599 134.5 67l-28.2-21.901L45.099 106.3 67 134.5c-14.401 22.5-24.9 47.699-30.6 73.799L0 212.8v86.4l36.4 4.499C42.1 329.799 52.599 355 67 377.5l-21.901 28.2 61.201 61.199L134.5 445c22.5 14.399 47.699 24.901 73.799 30.601L212.8 512h86.4l4.501-36.4c26.1-5.7 51.299-16.201 73.799-30.6l28.2 21.899 61.201-61.199L445 377.5c14.401-22.5 24.901-47.701 30.601-73.801L512 299.2v-86.4l-36.4-4.501c-5.7-26.1-16.199-51.299-30.6-73.799zM256 421c-90.901 0-165-74.101-165-165 0-90.901 74.099-165 165-165s165 74.099 165 165c0 90.899-74.099 165-165 165z" fill="#ffffff" opacity="1" data-original="#000000" class=""></path><path d="M256 121c-74.399 0-135 60.599-135 135 0 74.399 60.601 135 135 135s135-60.601 135-135c0-74.401-60.601-135-135-135zm-15 186.299-55.499-55.8 20.999-21 34.501 34.2 64.501-64.2 20.999 21z" fill="#ffffff" opacity="1" data-original="#000000" class=""></path></g></svg>