<svg xmlns="http://www.w3.org/2000/svg" version="1.1" xmlns:xlink="http://www.w3.org/1999/xlink" width="512" height="512" x="0" y="0" viewBox="0 0 64 64" style="enable-background:new 0 0 512 512" xml:space="preserve" class=""><g><path d="M19.37 45H6c-1.65 0-3 1.35-3 3v6c0 1.65 1.35 3 3 3h19.92a21.948 21.948 0 0 1-6.55-12zM16 52h-6c-.55 0-1-.45-1-1s.45-1 1-1h6c.55 0 1 .45 1 1s-.45 1-1 1zM44 3H6C4.35 3 3 4.35 3 6v6c0 1.65 1.35 3 3 3h38c1.65 0 3-1.35 3-3V6c0-1.65-1.35-3-3-3zm-28 7h-6c-.55 0-1-.45-1-1s.45-1 1-1h6c.55 0 1 .45 1 1s-.45 1-1 1zm24 0H22c-.55 0-1-.45-1-1s.45-1 1-1h18c.55 0 1 .45 1 1s-.45 1-1 1zm4 7H6c-1.65 0-3 1.35-3 3v6c0 1.65 1.35 3 3 3h16.57a22.07 22.07 0 0 1 4.49-5H22c-.55 0-1-.45-1-1s.45-1 1-1h7.93c3.25-1.91 7.04-3 11.07-3 2.08 0 4.09.29 5.99.83A3.01 3.01 0 0 0 44 17zm-28 7h-6c-.55 0-1-.45-1-1s.45-1 1-1h6c.55 0 1 .45 1 1s-.45 1-1 1zm5.42 7H6c-1.65 0-3 1.35-3 3v6c0 1.65 1.35 3 3 3h13.09c-.06-.66-.09-1.32-.09-2 0-3.6.87-7 2.42-10zM16 38h-6c-.55 0-1-.45-1-1s.45-1 1-1h6c.55 0 1 .45 1 1s-.45 1-1 1zm25-17c-11.028 0-20 8.972-20 20s8.972 20 20 20 20-8.972 20-20-8.972-20-20-20zm-8.667 30.685a1 1 0 0 1-.737-1.676c1.866-2.034 2.517-3.763 2.844-4.886a1 1 0 1 1 1.92.56c-.61 2.09-1.655 3.895-3.29 5.677a.997.997 0 0 1-.737.325zm3.527 2.206a1 1 0 0 1-.714-1.7C39.527 47.728 40 42.71 40 40.76a1 1 0 1 1 2 0c0 2.195-.528 7.842-5.426 12.83a1 1 0 0 1-.714.3zm5.495.725a1 1 0 1 1-1.57-1.238C44.597 47.273 45 43.789 45 41.004c0-2.206-1.794-4-4-4s-4 1.794-4 4a1 1 0 1 1-2 0c0-3.31 2.691-6 6-6s6 2.69 6 6c0 3.35-.684 7.318-5.645 13.612zm7.677-4.71a1 1 0 1 1-1.78-.912c1.54-3.006 1.748-5.726 1.748-7.99 0-4.412-3.589-8-8-8s-8 3.588-8 8c0 1.885-.19 4.144-2.465 7.104a1 1 0 0 1-1.586-1.219C30.843 44.426 31 42.7 31 41.004c0-5.514 4.486-10 10-10s10 4.486 10 10c0 2.503-.233 5.518-1.968 8.904zm5.87-7.232a1 1 0 0 1-1.987-.236c.057-.473.085-.956.085-1.435 0-6.616-5.383-12-12-12s-12 5.384-12 12a1 1 0 1 1-2 0c0-7.72 6.28-14 14-14s14 6.28 14 14c0 .557-.033 1.12-.099 1.671z" fill="#ffffff" opacity="1" data-original="#000000" class=""></path></g></svg>