<svg xmlns="http://www.w3.org/2000/svg" version="1.1" xmlns:xlink="http://www.w3.org/1999/xlink" width="512" height="512" x="0" y="0" viewBox="0 0 512 512" style="enable-background:new 0 0 512 512" xml:space="preserve" class=""><g><path d="m274.852 230.556-18.889-26.352-18.888 26.352-30.899 9.82 19.225 26.107-.208 32.421 30.77-10.216 30.77 10.216-.208-32.421 19.225-26.107z" fill="#ffffff" opacity="1" data-original="#000000" class=""></path><path d="M255.963 110.602c-80.173 0-145.398 65.226-145.398 145.398s65.226 145.398 145.398 145.398S401.361 336.173 401.361 256s-65.225-145.398-145.398-145.398zm61.038 229.962-61.038-20.267-61.038 20.267.413-64.313-38.136-51.787 61.293-19.482 37.468-52.273 37.468 52.273 61.293 19.482-38.136 51.787z" fill="#ffffff" opacity="1" data-original="#000000" class=""></path><path d="M477.831 224.133c-13.99-98.266-91.702-175.99-189.963-189.995V0h-63.734v34.127C125.837 48.105 48.089 125.842 34.096 224.133H0v63.734h34.096c13.993 98.291 91.741 176.028 190.037 190.005V512h63.734v-34.138c98.261-14.006 175.974-91.729 189.963-189.995H512v-63.734zM255.963 431.398c-96.715 0-175.398-78.684-175.398-175.398S159.249 80.602 255.963 80.602 431.361 159.285 431.361 256s-78.683 175.398-175.398 175.398z" fill="#ffffff" opacity="1" data-original="#000000" class=""></path></g></svg>