<svg xmlns="http://www.w3.org/2000/svg" version="1.1" xmlns:xlink="http://www.w3.org/1999/xlink" width="512" height="512" x="0" y="0" viewBox="0 0 512 512" style="enable-background:new 0 0 512 512" xml:space="preserve" class=""><g><path d="M67.048 186.392H15c-8.284 0-15 6.716-15 15V512h67.048zM497 186.392h-52.048V512H512V201.392c0-8.284-6.716-15-15-15zM282.084 411.772V512h-52.168V411.772z" fill="#089768" opacity="1" data-original="#000000" class=""></path><path d="M399.952 61.61h-47.224V15c0-8.284-6.716-15-15-15H176.396c-8.284 0-15 6.716-15 15v46.61h-49.348c-8.284 0-15 6.716-15 15V512h102.868V396.772c0-8.284 6.716-15 15-15h82.168c8.284 0 15 6.716 15 15V512h102.868V76.61c0-8.284-6.716-15-15-15zM188.077 329.935h-16.154c-8.284 0-15-6.716-15-15s6.716-15 15-15h16.154c8.284 0 15 6.716 15 15s-6.716 15-15 15zm0-60h-16.154c-8.284 0-15-6.716-15-15s6.716-15 15-15h16.154c8.284 0 15 6.716 15 15s-6.716 15-15 15zm0-60h-16.154c-8.284 0-15-6.716-15-15s6.716-15 15-15h16.154c8.284 0 15 6.716 15 15s-6.716 15-15 15zm76 120h-16.154c-8.284 0-15-6.716-15-15s6.716-15 15-15h16.154c8.284 0 15 6.716 15 15s-6.716 15-15 15zm0-60h-16.154c-8.284 0-15-6.716-15-15s6.716-15 15-15h16.154c8.284 0 15 6.716 15 15s-6.716 15-15 15zm0-60h-16.154c-8.284 0-15-6.716-15-15s6.716-15 15-15h16.154c8.284 0 15 6.716 15 15s-6.716 15-15 15zm22.154-89.704H271v15.231c0 8.284-6.716 15-15 15s-15-6.716-15-15v-15.231h-15.231c-8.284 0-15-6.716-15-15s6.716-15 15-15H241V75c0-8.284 6.716-15 15-15s15 6.716 15 15v15.231h15.231c8.284 0 15 6.716 15 15s-6.716 15-15 15zm53.846 209.704h-16.154c-8.284 0-15-6.716-15-15s6.716-15 15-15h16.154c8.284 0 15 6.716 15 15s-6.716 15-15 15zm0-60h-16.154c-8.284 0-15-6.716-15-15s6.716-15 15-15h16.154c8.284 0 15 6.716 15 15s-6.716 15-15 15zm0-60h-16.154c-8.284 0-15-6.716-15-15s6.716-15 15-15h16.154c8.284 0 15 6.716 15 15s-6.716 15-15 15z" fill="#089768" opacity="1" data-original="#000000" class=""></path></g></svg>