<svg xmlns="http://www.w3.org/2000/svg" version="1.1" xmlns:xlink="http://www.w3.org/1999/xlink" width="512" height="512" x="0" y="0" viewBox="0 0 512 512" style="enable-background:new 0 0 512 512" xml:space="preserve" class=""><g><path d="M408.3 312.8c-.2-.2-.4-.5-.6-.7h26.9V340h-6.1zm86.5-3.7-48.9-57.4v111.8l16.3 22.1c4.4 5.9-4.6 12.8-9 6.7-11.2-15-42.5-57.1-54.1-72.7-15.5-19.5-44.3 3.1-28.8 22.8v.1c4.7 6.3 31.4 42.2 35.4 47.6 1 1.4 1.4 3.1 1 4.7-5.8 18.7 3.7 46.9 23.7 57.8 4.9 2.7 2.5 10.7-2.9 10.5-10.4-3.6-20.6-14-28.2-29.6-7.2-16.2-5.7-31.2-4.2-38.8l-2.9-4H366c-2.4 35.3 21 74.7 45.1 90 1.2.9 2.1 2.3 2.3 3.8 1.4 8.8 2.7 17.6 4.1 26.5H511V353.2c0-16.1-5.8-31.8-16.2-44.1zM363 351.3H159.4v19.6c0 4.7 3.7 8.4 8.3 8.4h148c.4-.1 24.1-.1 24.5 0h43.6zm-1.9-39.2H159.4V340h196.9c-3.2-9.5-1.2-20.1 4.8-27.9zm-39.6 108.8c0 6.3-5.1 11.5-11.5 11.5H74.9c-6.3 0-11.5-5.1-11.5-11.5V184.8c-4.2.3-8.6.1-12.8-.5v278.9c0 4.6 3.7 8.4 8.4 8.4h267c4.6 0 8.4-3.7 8.4-8.4v-72.5h-12.8v30.2zm113.1-203.4c0-4.6-3.7-8.4-8.4-8.4H167.7c-4.6 0-8.3 3.7-8.3 8.4v83.3h275.2zM63.4 24.1c0-3.1 2.5-5.7 5.7-5.7h72.3c1.8 0 3.4.8 4.5 2.2l7.6 9.7c1.1 1.5 2.8 2.3 4.6 2.3H227c1.8 0 3.5-.8 4.6-2.3l7.6-9.8c1.1-1.4 2.7-2.2 4.5-2.2H316c3.1 0 5.7 2.5 5.7 5.7v173.7h12.8V9.4c0-4.6-3.7-8.3-8.4-8.3h-267c-4.7 0-8.4 3.6-8.4 8.3v36.4c4.2-.5 8.5-.5 12.8-.5-.1 0-.1-21.2-.1-21.2zm104.3 173.7h142.5V29.7h-63.8c-4.8 6.4-10.3 14.8-19.5 14.2H158c-9.1.5-14.7-7.8-19.4-14.2H74.7v17.1c72.6 17.5 72.5 118.9 0 136.3v237.8l235.3.2.2-.2v-30.3H167.7c-10.8 0-19.6-8.8-19.6-19.7V217.5c0-10.9 8.8-19.7 19.6-19.7zM53.6 173.2C23.8 170.5.8 144.9 1 115c0-28.7 20.8-50.2 45.4-56.3 34.7-10.2 72.5 19.4 71.7 56.3.4 34-30.8 62.3-64.5 58.2zm-1.1-30.1L100.6 95c5.2-5.3-2.7-13.2-8-8l-44.2 44.2-22-22c-5.2-5.2-13.3 2.7-8 8l26 26c2.2 2.1 6 2.1 8.1-.1zM446 42.3v-5.6h-37.6v5.6zm-55.8-16.9h74c1.1 0 2-.8 2-2V11.1c0-1.1-.8-1.9-2-1.9h-74c-1.1 0-2 .8-2 1.9v12.3c.1 1.2 1 2 2 2zm91.6 59.4c0-4.7-2-9.4-5.4-12.8l-18.7-18.4h-61L378.1 72c-3.7 3.6-5.6 8.7-5.4 13.9h109.1zm-104.3 88.1H477c2.6 0 4.7-2.1 4.7-4.7v-10.6h-109v10.6c0 2.6 2.1 4.7 4.8 4.7zm104.3-26.6H372.7V97.2h109.1zm-38.4-24.6c0-3.1-2.5-5.7-5.7-5.7h-4.9v-4.9c0-3.1-2.5-5.7-5.7-5.7s-5.7 2.5-5.7 5.7v4.9h-4.9c-3.1 0-5.7 2.5-5.7 5.7s2.5 5.7 5.7 5.7h4.9v4.9c0 3.1 2.5 5.7 5.7 5.7 3.1 0 5.7-2.5 5.7-5.7v-4.9h4.9c3.2 0 5.7-2.5 5.7-5.7z" fill="#089768" opacity="1" data-original="#000000" class=""></path></g></svg>