<svg xmlns="http://www.w3.org/2000/svg" version="1.1" xmlns:xlink="http://www.w3.org/1999/xlink" width="512" height="512" x="0" y="0" viewBox="0 0 512 512" style="enable-background:new 0 0 512 512" xml:space="preserve" class=""><g><path d="M360.773 428.425H54.608V77.695h153.888a142.063 142.063 0 0 1 6.557-14.376 144.328 144.328 0 0 1 32.128-41.004A143.602 143.602 0 0 1 266.37 7.939H98.321c-32.025 0-58.089 26.063-58.089 58.089v387.413c0 32.015 26.064 58.058 58.089 58.058H317.06c32.025 0 58.089-26.043 58.089-58.058V269.837a141.364 141.364 0 0 1-14.376 2.586zm-142.027 48.72h-22.113c-3.961 0-7.183-3.212-7.183-7.183s3.222-7.183 7.183-7.183h22.113a7.184 7.184 0 0 1 0 14.366zM342.425.5c-71.326 0-129.353 58.027-129.353 129.343 0 29.286 9.533 56.899 27.582 79.853a7.185 7.185 0 0 1 1.283 6.311l-10.641 39.69 45.273-12.139a7.23 7.23 0 0 1 1.857-.246c1.17 0 2.329.287 3.376.841 18.532 9.861 39.495 15.074 60.623 15.074 71.316 0 129.343-58.038 129.343-129.384C471.768 58.527 413.741.5 342.425.5zm69.428 147.085h-44.534c-3.971 0-7.183 3.222-7.183 7.193v44.524h-35.463v-44.524c0-3.971-3.212-7.193-7.183-7.193h-44.503v-35.453h44.503a7.178 7.178 0 0 0 7.183-7.183V60.415h35.463v44.534a7.178 7.178 0 0 0 7.183 7.183h44.534zm-243.048 88.339-6.926 6.957c13.637 30.178 39.054 55.595 69.274 69.274l6.937-6.957c9.215-9.173 22.113-12.406 34.529-8.671 10.651 3.232 21.323 6.465 31.964 9.656 11.246 3.407 18.019 9.389 20.122 17.793 3.766 15.002-9.615 31.174-17.926 39.485-11.185 11.164-25.458 17.064-40.532 17.064-4.679 0-9.44-.564-14.201-1.724-18.06-4.402-35.914-11.708-53.061-21.713-33.913-19.753-62.286-48.115-82.028-82.028-10.077-17.301-17.382-35.165-21.713-53.092-4.895-20.122.698-40.07 15.341-54.703 8.311-8.322 24.504-21.713 39.496-17.947 8.394 2.114 14.366 8.876 17.752 20.102l1.857 6.157c2.606 8.62 5.213 17.229 7.799 25.859 3.773 12.406.531 25.314-8.684 34.488z" fill="#089768" opacity="1" data-original="#000000"></path></g></svg>