<svg xmlns="http://www.w3.org/2000/svg" version="1.1" xmlns:xlink="http://www.w3.org/1999/xlink" width="512" height="512" x="0" y="0" viewBox="0 0 64 64" style="enable-background:new 0 0 512 512" xml:space="preserve" class=""><g><g fill="#000"><path d="M5 24a3 3 0 0 1-3-3V5a3 3 0 0 1 3-3h16a3 3 0 0 1 3 3v16a3 3 0 0 1-3 3zM43 62a3 3 0 0 1-3-3V43a3 3 0 0 1 3-3h16a3 3 0 0 1 3 3v16a3 3 0 0 1-3 3zM41.707 15.206a3 3 0 0 1 0-4.242l7.256-7.257a3 3 0 0 1 4.243 0l7.257 7.257a3 3 0 0 1 0 4.242l-7.257 7.257a3 3 0 0 1-4.243 0zM11.293 28.707a1 1 0 0 0 1.414 0l.293-.293V36a1 1 0 1 0 2 0v-7.586l.293.293a1 1 0 0 0 1.414-1.414L14.715 25.3a.992.992 0 0 0-.712-.301h-.019a1 1 0 0 0-.691.293l-2 2a1 1 0 0 0 0 1.414zM52.293 33.293a1 1 0 0 1 1.414 1.414l-2 2a.997.997 0 0 1-1.422-.008l-1.992-1.992a1 1 0 0 1 1.414-1.414l.293.293V26a1 1 0 1 1 2 0v7.586zM14 61C7.925 61 3 56.075 3 50s4.925-11 11-11 11 4.925 11 11-4.925 11-11 11zM34.293 10.293a1 1 0 0 0 0 1.414l.293.293H27a1 1 0 1 0 0 2h7.586l-.293.293a1 1 0 0 0 1.414 1.414l2-1.865c.203-.203.3-.509.293-.81V13a.997.997 0 0 0-.29-.705l-.003-.002-2-2a1 1 0 0 0-1.414 0z" fill="#ffffff" opacity="1" data-original="#000000" class=""></path></g></g></svg>