<svg xmlns="http://www.w3.org/2000/svg" version="1.1" xmlns:xlink="http://www.w3.org/1999/xlink" width="512" height="512" x="0" y="0" viewBox="0 0 32 32" style="enable-background:new 0 0 512 512" xml:space="preserve" class=""><g><path d="M17 2H5a3 3 0 0 0-3 3v22a3 3 0 0 0 3 3h12a3 3 0 0 0 3-3V5a3 3 0 0 0-3-3zm2 24.5c0 1.378-1.121 2.5-2.5 2.5h-11A2.503 2.503 0 0 1 3 26.5v-21C3 4.122 4.122 3 5.5 3h11C17.879 3 19 4.122 19 5.5z" fill="#ffffff" opacity="1" data-original="#000000" class=""></path><path d="M16.5 4H13a2 2 0 0 1-4 0H5.5C4.673 4 4 4.673 4 5.5v21c0 .827.673 1.5 1.5 1.5h11c.827 0 1.5-.673 1.5-1.5v-21c0-.827-.673-1.5-1.5-1.5zM9.83 19.124a.5.5 0 0 1-.66.752l-4-3.5a.5.5 0 0 1 0-.752l4-3.5a.5.5 0 0 1 .658.753L6.26 16zm7-2.748-4 3.5a.497.497 0 0 1-.706-.047.5.5 0 0 1 .047-.705L15.74 16l-3.57-3.124a.5.5 0 0 1 .658-.752l4 3.5a.5.5 0 0 1 0 .752zM29.491 17.897l-1.409-.795c.055-.372.082-.74.082-1.102s-.027-.73-.082-1.102l1.41-.795a1 1 0 0 0 .37-1.38L27.813 9.26a1 1 0 0 0-1.352-.362l-1.434.81a8.236 8.236 0 0 0-1.981-1.126V7a1 1 0 0 0-1-1H21v6a4 4 0 1 1 0 8v6h1.047a1 1 0 0 0 1-1v-1.58a8.271 8.271 0 0 0 1.981-1.126l1.434.809a1 1 0 0 0 1.352-.362l2.047-3.464a1 1 0 0 0-.37-1.38z" fill="#ffffff" opacity="1" data-original="#000000" class=""></path></g></svg>