<svg xmlns="http://www.w3.org/2000/svg" version="1.1" xmlns:xlink="http://www.w3.org/1999/xlink" width="512" height="512" x="0" y="0" viewBox="0 0 512 512" style="enable-background:new 0 0 512 512" xml:space="preserve" class=""><g><path fill-rule="evenodd" d="M141.9 107.563h35.084a9.115 9.115 0 0 1 9.088 9.088V133.2a24.235 24.235 0 0 0 41.371 17.137l11.7-11.7a9.116 9.116 0 0 1 12.853 0l24.804 24.806a9.116 9.116 0 0 1 0 12.853L265.1 188a24.235 24.235 0 0 0 17.137 41.371h16.551a9.114 9.114 0 0 1 9.087 9.088v35.084a9.115 9.115 0 0 1-9.088 9.088h-16.553A24.235 24.235 0 0 0 265.1 324l11.7 11.7a9.116 9.116 0 0 1 0 12.853l-24.808 24.808a9.116 9.116 0 0 1-12.853 0l-11.7-11.7a24.235 24.235 0 0 0-41.372 17.139v16.551a9.115 9.115 0 0 1-9.088 9.088H141.9a9.115 9.115 0 0 1-9.088-9.088V378.8a24.235 24.235 0 0 0-41.371-17.137l-11.7 11.7a9.115 9.115 0 0 1-12.852 0l-24.817-24.806a9.116 9.116 0 0 1 0-12.853l11.7-11.7a24.234 24.234 0 0 0-17.133-41.374H20.088A9.115 9.115 0 0 1 11 273.542v-35.084a9.115 9.115 0 0 1 9.088-9.088h16.551A24.234 24.234 0 0 0 53.775 188l-11.7-11.7a9.116 9.116 0 0 1 0-12.853l24.805-24.812a9.115 9.115 0 0 1 12.852 0l11.7 11.7a24.234 24.234 0 0 0 41.375-17.135v-16.549a9.115 9.115 0 0 1 9.088-9.088zm246.642 192.291a6.176 6.176 0 0 0-6.158 6.158v11.214a16.42 16.42 0 0 1-28.031 11.611l-7.929-7.93a6.177 6.177 0 0 0-8.708 0l-16.809 16.809a6.175 6.175 0 0 0 0 8.708l7.93 7.929a16.42 16.42 0 0 1-11.611 28.031h-11.214a6.175 6.175 0 0 0-6.157 6.158v23.771a6.175 6.175 0 0 0 6.157 6.157h11.214a16.42 16.42 0 0 1 11.611 28.03l-7.93 7.929a6.175 6.175 0 0 0 0 8.708l16.809 16.809a6.175 6.175 0 0 0 8.708 0l7.929-7.929a16.42 16.42 0 0 1 28.031 11.61v11.214a6.176 6.176 0 0 0 6.158 6.159h23.771a6.175 6.175 0 0 0 6.157-6.158v-11.214a16.42 16.42 0 0 1 28.031-11.61l7.93 7.929a6.175 6.175 0 0 0 8.708 0l16.808-16.809a6.175 6.175 0 0 0 0-8.708l-7.929-7.929a16.42 16.42 0 0 1 11.61-28.031h11.215a6.176 6.176 0 0 0 6.157-6.157v-23.771a6.176 6.176 0 0 0-6.157-6.158h-11.214a16.42 16.42 0 0 1-11.611-28.031l7.929-7.929a6.175 6.175 0 0 0 0-8.708l-16.808-16.809a6.177 6.177 0 0 0-8.708 0l-7.93 7.93a16.421 16.421 0 0 1-28.031-11.611v-11.214a6.175 6.175 0 0 0-6.157-6.158zm11.886 57.071a43.5 43.5 0 1 1-43.5 43.5 43.5 43.5 0 0 1 43.5-43.5zM388.542 11a6.176 6.176 0 0 0-6.158 6.157v11.214a16.42 16.42 0 0 1-28.031 11.611l-7.929-7.929a6.175 6.175 0 0 0-8.708 0l-16.809 16.808a6.175 6.175 0 0 0 0 8.708l7.93 7.93a16.421 16.421 0 0 1-11.611 28.031h-11.214a6.174 6.174 0 0 0-6.157 6.157v23.771a6.175 6.175 0 0 0 6.157 6.158h11.214a16.42 16.42 0 0 1 11.611 28.03l-7.93 7.93a6.175 6.175 0 0 0 0 8.708l16.809 16.809a6.177 6.177 0 0 0 8.708 0l7.929-7.93a16.42 16.42 0 0 1 28.031 11.611v11.214a6.176 6.176 0 0 0 6.158 6.158h23.771a6.175 6.175 0 0 0 6.157-6.158v-11.214a16.421 16.421 0 0 1 28.03-11.611l7.93 7.93a6.177 6.177 0 0 0 8.708 0l16.808-16.809a6.175 6.175 0 0 0 0-8.708l-7.929-7.93a16.419 16.419 0 0 1 11.61-28.03h11.215a6.176 6.176 0 0 0 6.158-6.158V99.687a6.175 6.175 0 0 0-6.157-6.157h-11.214a16.42 16.42 0 0 1-11.611-28.03l7.929-7.93a6.175 6.175 0 0 0 0-8.708l-16.808-16.809a6.175 6.175 0 0 0-8.708 0l-7.93 7.929a16.42 16.42 0 0 1-28.031-11.61V17.157A6.175 6.175 0 0 0 412.313 11zm11.886 57.07a43.5 43.5 0 1 1-43.5 43.5 43.5 43.5 0 0 1 43.5-43.5zM121.146 261.131l22.1 24.609a10.316 10.316 0 0 0 15.807-.594l38.837-45.309a10.287 10.287 0 0 0-15.632-13.376l-31.529 36.783-14.27-15.891a10.3 10.3 0 0 0-15.311 13.778zM159.437 186a70 70 0 1 0 70 70 70 70 0 0 0-70-70z" fill="#ffffff" opacity="1" data-original="#000000" class=""></path></g></svg>