<svg xmlns="http://www.w3.org/2000/svg" version="1.1" xmlns:xlink="http://www.w3.org/1999/xlink" width="512" height="512" x="0" y="0" viewBox="0 0 512 512" style="enable-background:new 0 0 512 512" xml:space="preserve" class=""><g><path d="m506.764 309.708-36.746-31.515a161.494 161.494 0 0 0 0-44.387l36.746-31.515a15 15 0 0 0 3.225-18.886l-36.15-62.611a15.001 15.001 0 0 0-17.968-6.65l-45.699 16.078a158.215 158.215 0 0 0-38.407-22.221l-8.921-47.566A15 15 0 0 0 348.101 48.2h-72.3a15 15 0 0 0-14.743 12.237l-8.915 47.569a159.298 159.298 0 0 0-32.109 17.538 15.002 15.002 0 0 0-1.956 22.86l46.674 46.681a15 15 0 0 0 17.452 2.741c42.492-22.456 95.68 10.071 95.08 58.175.601 48.096-52.596 80.636-95.08 58.173a15.001 15.001 0 0 0-17.452 2.741l-46.674 46.681a15.004 15.004 0 0 0 1.956 22.86 159.222 159.222 0 0 0 32.109 17.538l8.915 47.569a15 15 0 0 0 14.743 12.237h72.3a15 15 0 0 0 14.743-12.235l8.921-47.566a158.247 158.247 0 0 0 38.407-22.221l45.699 16.078a15.001 15.001 0 0 0 17.968-6.65l36.15-62.611a15 15 0 0 0-3.225-18.887z" fill="#ffffff" opacity="1" data-original="#000000" class=""></path><path d="M266.606 245.394 154.14 132.927c-9.347-9.41-25.652-2.649-25.606 10.606V192.8H15c-8.284 0-15 6.716-15 15v96.4c0 8.284 6.716 15 15 15h113.533v49.267c-.044 13.261 16.265 20.013 25.606 10.606l112.467-112.467c5.858-5.857 5.858-15.355 0-21.212z" fill="#ffffff" opacity="1" data-original="#000000" class=""></path></g></svg>