<svg xmlns="http://www.w3.org/2000/svg" version="1.1" xmlns:xlink="http://www.w3.org/1999/xlink" width="512" height="512" x="0" y="0" viewBox="0 0 30 30" style="enable-background:new 0 0 512 512" xml:space="preserve" class=""><g><path d="M14.946 26.506a1.412 1.412 0 0 1-1.12.537H4.549c-.439 0-.845-.19-1.12-.537a1.428 1.428 0 0 1-.282-1.218 6.142 6.142 0 0 1 4.695-4.681.432.432 0 0 1 .211.009c.362.104.74.158 1.134.158.395 0 .773-.054 1.135-.158a.432.432 0 0 1 .21-.01 6.143 6.143 0 0 1 4.696 4.682c.098.432-.007.878-.282 1.218z" fill="#ffffff" opacity="1" data-original="#000000" class=""></path><circle cx="9.19" cy="16.556" r="2.908" transform="rotate(-45 9.187 16.558)" fill="#ffffff" opacity="1" data-original="#000000" class=""></circle><path d="M26.57 15.815a1.412 1.412 0 0 1-1.12.537h-9.276c-.439 0-.845-.19-1.12-.537a1.428 1.428 0 0 1-.282-1.218 6.142 6.142 0 0 1 4.695-4.682.432.432 0 0 1 .211.01c.362.103.74.158 1.134.158.395 0 .773-.055 1.135-.159a.432.432 0 0 1 .21-.009 6.143 6.143 0 0 1 4.696 4.682c.098.432-.007.877-.282 1.218z" fill="#ffffff" opacity="1" data-original="#000000" class=""></path><circle cx="20.815" cy="5.864" r="2.908" transform="rotate(-45 20.816 5.868)" fill="#ffffff" opacity="1" data-original="#000000" class=""></circle><path d="M21.366 24.868h-2.985a1 1 0 0 1 0-2h2.985a.096.096 0 0 0 .096-.096v-3.037a1 1 0 0 1 2 0v3.037c0 1.156-.94 2.096-2.096 2.096zM8.831 11.318a1 1 0 0 1-1-1V7.281c0-1.156.94-2.095 2.096-2.095h2.986a1 1 0 0 1 0 2H9.927a.096.096 0 0 0-.096.095v3.037a1 1 0 0 1-1 1z" fill="#ffffff" opacity="1" data-original="#000000" class=""></path></g></svg>