<svg xmlns="http://www.w3.org/2000/svg" version="1.1" xmlns:xlink="http://www.w3.org/1999/xlink" width="512" height="512" x="0" y="0" viewBox="0 0 512 512" style="enable-background:new 0 0 512 512" xml:space="preserve" class=""><g><path d="M136 162v290h240V162H136zm185 230H191v-30h130v30zm0-70H191v-30h130v30zm0-70H191v-30h130v30zM136 482v30h75.812l10-30zM290.188 482l10 30H376v-30z" fill="#ffffff" opacity="1" data-original="#000000" class=""></path><path d="M381.702 58.118C350.255 21.089 304.849 0 256 0c-38.303 0-75.626 13.423-105.094 37.795-25.924 21.441-44.72 50.396-53.764 82.496C42.901 124.323 0 169.746 0 225c0 57.897 47.103 105 105 105h1V132h300v194.659C466.604 312.961 512 258.685 512 194c0-73.082-57.938-132.885-130.298-135.882z" fill="#ffffff" opacity="1" data-original="#000000" class=""></path></g></svg>