<svg xmlns="http://www.w3.org/2000/svg" version="1.1" xmlns:xlink="http://www.w3.org/1999/xlink" width="512" height="512" x="0" y="0" viewBox="0 0 24 24" style="enable-background:new 0 0 512 512" xml:space="preserve" class=""><g><path fill="#ffffff" fill-rule="evenodd" d="M6.75 4c0-.69.56-1.25 1.25-1.25h12c.69 0 1.25.56 1.25 1.25v6c0 .69-.56 1.25-1.25 1.25h-1a.75.75 0 0 0 0 1.5h1A2.75 2.75 0 0 0 22.75 10V4A2.75 2.75 0 0 0 20 1.25H8A2.75 2.75 0 0 0 5.25 4v1.5a.75.75 0 0 0 1.5 0zM7 10a2 2 0 1 1-4 0 2 2 0 0 1 4 0zm10.63-.594a.75.75 0 1 0-1.26-.811l-3.892 6.052a1.448 1.448 0 0 0-1.235.153L8 16.5V16a3 3 0 1 0-6 0v6h6v-2.32c.263-.04.523-.132.764-.283l4.027-2.142c.483-.301.728-.84.676-1.372zM9.25 6a.75.75 0 0 1 .75-.75h8a.75.75 0 0 1 0 1.5h-8A.75.75 0 0 1 9.25 6zM10 8.25a.75.75 0 0 0 0 1.5h4a.75.75 0 0 0 0-1.5z" clip-rule="evenodd" opacity="1" data-original="#000000" class=""></path></g></svg>