<svg xmlns="http://www.w3.org/2000/svg" version="1.1" xmlns:xlink="http://www.w3.org/1999/xlink" width="512" height="512" x="0" y="0" viewBox="0 0 24 24" style="enable-background:new 0 0 512 512" xml:space="preserve"><g><path fill="#ffffff" fill-rule="evenodd" d="M9.876 2.224a4.75 4.75 0 0 1 4.248 0l5.106 2.552a2.75 2.75 0 0 1 1.52 2.46v7.547a4.75 4.75 0 0 1-2.232 4.028l-5.06 3.163a2.75 2.75 0 0 1-2.916 0l-5.06-3.163a4.75 4.75 0 0 1-2.232-4.028V7.236a2.75 2.75 0 0 1 1.52-2.46zm5.654 8.306a.75.75 0 1 0-1.06-1.06L11 12.94l-1.47-1.47a.75.75 0 0 0-1.06 1.06l2 2a.75.75 0 0 0 1.06 0z" clip-rule="evenodd" opacity="1" data-original="#000000"></path></g></svg>