<svg xmlns="http://www.w3.org/2000/svg" version="1.1" xmlns:xlink="http://www.w3.org/1999/xlink" width="512" height="512" x="0" y="0" viewBox="0 0 512 512" style="enable-background:new 0 0 512 512" xml:space="preserve" class=""><g><path fill-rule="evenodd" d="M194.747 372.161c-22.175 2.888-46.105 3.603-69.157 2.157a29.925 29.925 0 0 0 6.45-3.923l43.508-34.616a126.716 126.716 0 0 0 19.199 36.382zm208.19-162.39 32.605 2.016-134.44 95.266-74.682-53.013c-3.545-2.772-8.652-2.867-12.329.056L107.19 339.15c-4.306 3.424-5.022 9.69-1.598 13.997 3.424 4.306 9.69 5.022 13.997 1.599l101.05-80.397 74.688 53.018c3.599 2.561 8.319 2.387 11.688-.104l142.891-101.255-6.003 35.466c-.904 5.426 2.761 10.559 8.188 11.463 5.426.904 10.559-2.762 11.463-8.188l10.079-59.553c.959-5.799-3.347-11.233-9.239-11.579l-60.285-3.728c-5.491-.323-10.204 3.867-10.527 9.357-.325 5.489 3.864 10.202 9.355 10.525zm4.231 175.787-25.65-25.65c13.499-17.907 21.506-40.188 21.506-64.341 0-3.851-.208-7.653-.605-11.399l-29.698 21.044c-4.747 38.132-37.27 67.641-76.688 67.641-40.774 0-74.171-31.577-77.077-71.61l-26.532 21.109c11.891 46.127 53.77 80.205 103.609 80.205 24.153 0 46.435-8.006 64.341-21.506l25.65 25.65c-3.031 5.246-2.309 12.109 2.166 16.585l74.244 74.244c5.337 5.337 14.069 5.337 19.406 0l16.157-16.157c5.337-5.337 5.337-14.069 0-19.406l-74.244-74.245c-4.475-4.474-11.338-5.195-16.585-2.164zM296.034 188.577c33.273 0 62.999 15.188 82.62 39.01l-24.326 17.238c-14.168-16.263-35.03-26.543-58.294-26.543-21.109 0-40.238 8.466-54.186 22.184l-3.574-2.537c-8.787-6.599-20.331-7.749-30.081-3.446 19.33-27.745 51.462-45.906 87.841-45.906zM95.675 371.116a29.954 29.954 0 0 1-5.739-5.522c-10.287-12.939-8.133-31.803 4.802-42.094l79.226-63.033c7.352-25.601 22.54-47.889 42.802-64.102-20.073-11.27-43.225-17.705-67.883-17.705C72.185 178.659 10 240.836 10 317.532c0 28.326 37.889 46.184 85.675 53.584zM84.695 74.644c0 35.451 28.736 64.187 64.187 64.187s64.187-28.736 64.187-64.187c0-35.441-28.736-64.177-64.187-64.177S84.695 39.204 84.695 74.644z" clip-rule="evenodd" fill="#ffffff" opacity="1" data-original="#000000" class=""></path></g></svg>