<svg xmlns="http://www.w3.org/2000/svg" version="1.1" xmlns:xlink="http://www.w3.org/1999/xlink" width="512" height="512" x="0" y="0" viewBox="0 0 512 512" style="enable-background:new 0 0 512 512" xml:space="preserve" class=""><g><path fill-rule="evenodd" d="M111.7 197.062A53.241 53.241 0 0 0 122.742 186l37.171 21.444L138.78 244zM213.452 84.493l-84.672 48.883a53.024 53.024 0 0 1 0 42.237l37.123 21.44L224.49 95.559a53.212 53.212 0 0 1-11.038-11.066zm169.769 48.883a53.013 53.013 0 0 0 0 42.237l-37.121 21.44-58.59-101.494a53.212 53.212 0 0 0 11.038-11.066zM373.22 244l27.077-46.94A53.362 53.362 0 0 1 389.258 186l-37.171 21.444zm27.08 70.938a53.246 53.246 0 0 0-11.039 11.067l-37.174-21.445L373.22 268zM298.548 427.512l84.673-48.883a53.025 53.025 0 0 1 0-42.242L346.1 314.952l-58.59 101.494a53.236 53.236 0 0 1 11.038 11.066zM128.78 378.629a53.037 53.037 0 0 0 0-42.242l37.12-21.435 58.59 101.494a53.236 53.236 0 0 0-11.038 11.066zm78.634-143.75-37.124-21.434L145.714 256l24.576 42.56 37.124-21.439a53.037 53.037 0 0 1 0-42.242zm97.172 42.242a53.037 53.037 0 0 0 0-42.242l37.124-21.434L366.286 256l-24.576 42.56zM256 406.03a52.807 52.807 0 0 0-21.133 4.406l-58.586-101.484 37.171-21.444a52.877 52.877 0 0 0 85.1 0l37.171 21.444-58.59 101.484A52.807 52.807 0 0 0 256 406.03zm0-300.055a52.892 52.892 0 0 0 21.133-4.406l58.586 101.484-37.171 21.447a52.877 52.877 0 0 0-85.1 0l-37.171-21.444 58.586-101.484A52.892 52.892 0 0 0 256 105.975zM138.78 268l-27.08 46.938A53.343 53.343 0 0 1 122.742 326l37.171-21.44zm-37.5 40.926a52.4 52.4 0 0 0-21.086-4.406 52.987 52.987 0 1 0 42.549 84.493l84.671 48.887a52.973 52.973 0 1 0 97.172 0l84.672-48.883a53 53 0 1 0 21.463-80.087L380.154 256l30.567-52.926a52.493 52.493 0 0 0 21.086 4.405 52.987 52.987 0 1 0-42.549-84.493l-84.672-48.88a52.973 52.973 0 1 0-97.172 0l-84.672 48.883a52.994 52.994 0 1 0-21.463 80.088L131.846 256z" fill="#ffffff" opacity="1" data-original="#000000"></path></g></svg>