<svg xmlns="http://www.w3.org/2000/svg" version="1.1" xmlns:xlink="http://www.w3.org/1999/xlink" width="512" height="512" x="0" y="0" viewBox="0 0 512 512" style="enable-background:new 0 0 512 512" xml:space="preserve"><g><path fill-rule="evenodd" d="M341.42 30.219a7.98 7.98 0 0 1-.812-15.938l41.643-2.26a7.98 7.98 0 0 1 8.307 9.093l.006.001-6.009 41.269a7.986 7.986 0 0 1-15.812-2.25l2.808-19.283c-51.049 45.219-104.45 82.435-158.378 113.172-58.675 33.442-117.958 59.195-175.501 79.233a7.976 7.976 0 0 1-5.25-15.062c56.687-19.741 115.085-45.108 172.875-78.046 52.868-30.133 105.243-66.625 155.352-110.973zm-97.803 137.546c-5.508 0-10 4.492-10 10v88.959c0 .274.35.385.511.169a108.317 108.317 0 0 1 23.645-20.007 107.168 107.168 0 0 1 28.273-12.43.285.285 0 0 0 .208-.272l.001-56.42c0-5.508-4.492-10-10-10l-32.638.001zm96.685-49.165c-5.508 0-10 4.492-10 10v102.847c0 .147.112.268.257.282a106.967 106.967 0 0 1 27.453 7.88 107.745 107.745 0 0 1 24.467 14.902.283.283 0 0 0 .461-.22V128.6c0-5.508-4.492-10-10-10h-32.638zM137.213 232.7v132.234c0 5.508 4.492 10 10 10h32.071c5.508 0 10-4.492 10-10V232.699c0-5.508-4.492-10-10-10h-32.071c-5.508.001-10 4.494-10 10.001zM92.597 364.934v-79.895c0-5.508-4.492-10-10-10H50.526c-5.508 0-10 4.492-10 10v79.895c0 5.508 4.492 10 10 10h32.071c5.507-.001 10-4.493 10-10zm297.622 26.052 28.698 28.16 1.131-1.165c3.204-3.301 8.527-3.382 11.828-.178l50.527 49.03c3.301 3.204 3.382 8.526.178 11.827l-18.242 18.8c-3.204 3.302-8.526 3.381-11.828.178l-50.527-49.03c-3.302-3.203-3.381-8.527-.178-11.828l.948-.977-28.133-27.609c-16.087 13.79-36.991 22.122-59.841 22.122-50.815 0-92.009-41.194-92.009-92.009 0-50.547 40.948-92.009 92.009-92.009 50.858 0 92.009 41.245 92.009 92.009-.001 19.595-6.13 37.756-16.57 52.679zm-20.445-16.053c6.995-10.482 11.073-23.078 11.073-36.626 0-36.669-29.761-66.068-66.068-66.068-36.285 0-66.068 29.376-66.068 66.068 0 36.349 29.44 66.068 66.068 66.068 22.941.001 43.15-11.691 54.995-29.442z" clip-rule="evenodd" fill="#ffffff" opacity="1" data-original="#000000"></path></g></svg>