<svg xmlns="http://www.w3.org/2000/svg" version="1.1" xmlns:xlink="http://www.w3.org/1999/xlink" width="512" height="512" x="0" y="0" viewBox="0 0 32 32" style="enable-background:new 0 0 512 512" xml:space="preserve" class=""><g><path d="M15.11 17.97a9.057 9.057 0 0 0-3.04 5.07 3.338 3.338 0 1 1 3.04-5.07z" fill="#ffffff" opacity="1" data-original="#000000" class=""></path><path d="m21.42 11.48-.93-.93a1.863 1.863 0 0 0-2.2-.32l-1.62.86a10.113 10.113 0 0 0-1.44-.59l-.52-1.74a1.866 1.866 0 0 0-1.79-1.34H11.6a1.857 1.857 0 0 0-1.78 1.33l-.53 1.75a10.113 10.113 0 0 0-1.44.59l-1.61-.86a1.86 1.86 0 0 0-2.2.32l-.94.93a1.911 1.911 0 0 0-.32 2.21l.87 1.61a9.108 9.108 0 0 0-.6 1.44l-1.74.52a1.866 1.866 0 0 0-1.34 1.79v1.32a1.86 1.86 0 0 0 1.33 1.78l1.75.53a9.108 9.108 0 0 0 .6 1.44l-.86 1.61a1.85 1.85 0 0 0 .32 2.21l.93.93a1.863 1.863 0 0 0 2.2.32l1.61-.86a10.113 10.113 0 0 0 1.44.59l.53 1.74A1.854 1.854 0 0 0 11.6 32h1.32a1.904 1.904 0 0 0 1.51-.76 9.067 9.067 0 0 1-2.56-6.21 5.337 5.337 0 1 1 4.91-8.17 8.99 8.99 0 0 1 4.17-1.02h.18c-.07-.18-.16-.36-.25-.54l.86-1.61a1.877 1.877 0 0 0-.32-2.21z" fill="#ffffff" opacity="1" data-original="#000000" class=""></path><path d="M20.95 17.84a7.08 7.08 0 1 0 7.08 7.08 7.087 7.087 0 0 0-7.08-7.08zm1.93 9.02a1.002 1.002 0 0 1-1.41 0l-1.23-1.23a.99.99 0 0 1-.29-.71v-2.6a1 1 0 0 1 2 0v2.19l.93.93a1.008 1.008 0 0 1 0 1.42zM31.701 5.287 26.703.358a1 1 0 0 0-1.406 0l-4.998 4.93A1 1 0 0 0 21 7h2v3a2.002 2.002 0 0 0 2 2h2a2.002 2.002 0 0 0 2-2V7h2a1 1 0 0 0 .701-1.713z" fill="#ffffff" opacity="1" data-original="#000000" class=""></path></g></svg>