<svg xmlns="http://www.w3.org/2000/svg" version="1.1" xmlns:xlink="http://www.w3.org/1999/xlink" width="512" height="512" x="0" y="0" viewBox="0 0 512 512" style="enable-background:new 0 0 512 512" xml:space="preserve" class=""><g><path d="M176.71 240.009h90v-90h-90zm30-60h30v30h-30z" fill="#ffffff" opacity="1" data-original="#000000" class=""></path><path d="M356.71 360.009v-30h60v-30h68.54L391.925 99.795C351.773 28.149 273.009-10.157 191.197 2.339c-82.676 12.568-149.341 79.072-162.1 161.719-8.877 57.554 7.676 115.459 45.425 158.848 10.151 11.675 14.209 26.382 11.104 40.342L53.004 512h210.732l19.995-91.991H416.71v-60zm-30-180h-30v30h30v30h-30v30h-30v30h-30v-30h-30v30h-30v-30h-30v-30h-30v-30h30v-30h-30v-30h30v-30h30v-30h30v30h30v-30h30v30h30v30h30z" fill="#ffffff" opacity="1" data-original="#000000" class=""></path></g></svg>