<svg xmlns="http://www.w3.org/2000/svg" version="1.1" xmlns:xlink="http://www.w3.org/1999/xlink" width="512" height="512" x="0" y="0" viewBox="0 0 512 512" style="enable-background:new 0 0 512 512" xml:space="preserve" class=""><g><path d="M436.236 104.188c-6.084-24.359-19.683-46.45-38.951-62.997-22.076-18.957-50.239-29.396-79.304-29.396-21.805 0-42.692 5.623-61.127 16.366C237.331 10.307 211.733.277 184.835.277 127.142.277 79.988 46.268 78.106 103.51c-19.945 5.575-38.004 16.923-51.809 32.752A106.686 106.686 0 0 0 0 206.381c0 58.883 47.904 106.787 106.787 106.787h298.426c58.883 0 106.787-47.904 106.787-106.787 0-47.211-31.312-88.685-75.764-102.193zM161 343.17v28.55h-53.097c-6.548-23.055-27.777-39.997-52.903-39.997-30.327 0-55 24.673-55 55s24.673 55 55 55c25.128 0 46.358-16.945 52.905-40.003H176c8.28 0 15-6.71 15-15v-43.55h-30zM271 403.819V343.17h-30v60.649c-23.057 6.547-40 27.777-40 52.904 0 30.327 24.673 55 55 55s55-24.673 55-55c0-25.127-16.943-46.357-40-52.904zM457 331.723c-25.126 0-46.355 16.942-52.903 39.997H351v-28.55h-30v43.55c0 8.29 6.72 15 15 15h68.095c6.547 23.058 27.777 40.003 52.905 40.003 30.327 0 55-24.673 55-55s-24.673-55-55-55z" fill="#089768" opacity="1" data-original="#000000" class=""></path></g></svg>