<svg xmlns="http://www.w3.org/2000/svg" version="1.1" xmlns:xlink="http://www.w3.org/1999/xlink" width="512" height="512" x="0" y="0" viewBox="0 0 20 20" style="enable-background:new 0 0 512 512" xml:space="preserve" class=""><g><path d="M2.8 8.8 0 18.8c-.1.6.3 1.2 1 1.2h18c.7 0 1.1-.6 1-1.2l-2.8-10c-.1-.4-.5-.8-1-.8H11V6h5c.4 0 .8-.3 1-.7l1-3c.2-.5-.1-1.1-.6-1.3s-1.1.1-1.3.6L15.3 4H4.7L4 1.7c-.2-.5-.8-.8-1.3-.6-.5.1-.8.7-.6 1.2l1 3c.1.4.5.7.9.7h5v2H3.8c-.5 0-.9.3-1 .8zM14 14c0 2.2-1.8 4-4 4s-4-1.8-4-4 1.8-4 4-4 4 1.8 4 4z" fill="#089768" opacity="1" data-original="#000000" class=""></path><path d="M13 0H7L6 3h8z" fill="#089768" opacity="1" data-original="#000000" class=""></path></g></svg>