<svg xmlns="http://www.w3.org/2000/svg" version="1.1" xmlns:xlink="http://www.w3.org/1999/xlink" width="512" height="512" x="0" y="0" viewBox="0 0 512 512" style="enable-background:new 0 0 512 512" xml:space="preserve" class=""><g><path d="m437 300-17.988 23.992 23.996 18.004H391v-30H121v30H90c-33.09 0-60-26.906-60-60 0-33.09 26.91-60 60-60h31v30h270v-30h31c49.629 0 90-40.371 90-90s-40.371-90-90-90h-31v-30H121v30h-10L54.992 0 37.008 23.992l23.996 18.004H0v30h61.004L37.008 90l17.984 23.992L111 71.996h10v30h270v-30h31c33.09 0 60 26.91 60 60 0 33.094-26.91 60-60 60h-31v-30H121v30H90c-49.629 0-90 40.371-90 90s40.371 90 90 90h31v30h270v-30h52.008L419.012 390 437 413.992l75-56.996zm0 0" fill="#ffffff" opacity="1" data-original="#000000" class=""></path></g></svg>