<svg xmlns="http://www.w3.org/2000/svg" version="1.1" xmlns:xlink="http://www.w3.org/1999/xlink" width="512" height="512" x="0" y="0" viewBox="0 0 512 512" style="enable-background:new 0 0 512 512" xml:space="preserve" class=""><g><path d="M215.52 474.53H37.47V240.64H0V512h241v-11.99c0-14.05-11.43-25.48-25.48-25.48zM474.53 240.64v233.89H296.48c-14.05 0-25.48 11.43-25.48 25.48V512h241V240.64z" fill="#089768" opacity="1" data-original="#000000"></path><path d="M188.55 280.48c.172-21.505-10.898-41.568-28.35-54.84a146.069 146.069 0 0 1-26.93-31.1h-65.8v249.99h148.05c9.18 0 17.85 2.24 25.48 6.21V345.22h-52.45zM351.8 225.64c-17.497 13.198-28.514 33.299-28.35 55.48v64.1H271v105.52c7.63-3.97 16.3-6.21 25.48-6.21h148.05V194.54h-65.82a145.767 145.767 0 0 1-26.91 31.1z" fill="#089768" opacity="1" data-original="#000000"></path><path d="M218.55 315.22h74.9c.082-4.938-.219-36.549.23-40.73h-75.32c.37 3.314.123 36.584.19 40.73zM39.87 27.404 52.05-.016l54.011 23.992-12.18 27.42zM33.617 100.546h57.354v30H33.617zM406.016 24.065 460.026.073l12.18 27.42-54.01 23.992zM421.029 100.546h57.354v30h-57.354zM256 .007c-100.971.372-153.247 120.27-84.85 194.533 3.57 3.85 7.44 7.49 11.58 10.87 12.804 10.487 22.629 23.856 28.76 39.08H241V134.94h-31.67v-30h93.34v30H271v109.55h29.51c6.131-15.224 15.956-28.593 28.76-39.08 4.14-3.38 8.01-7.02 11.58-10.87C409.247 120.277 356.971.379 256 .007z" fill="#089768" opacity="1" data-original="#000000"></path></g></svg>