<svg xmlns="http://www.w3.org/2000/svg" version="1.1" xmlns:xlink="http://www.w3.org/1999/xlink" width="512" height="512" x="0" y="0" viewBox="0 0 512 512" style="enable-background:new 0 0 512 512" xml:space="preserve" class=""><g><path d="M271 30h30V0h-90v30h30v30H0v30h30v302h171.728l-45 90H106v30h69.272l30-60h101.455l30 60H406v-30h-50.728l-45-90H391v30h30v-30h61V90h30V60H271zM136 211c24.814 0 45 20.186 45 45 0 19.53-12.578 36.024-30 42.237V331h-30v-32.763C103.578 292.024 91 275.53 91 256h30c0 8.276 6.724 15 15 15s15-6.724 15-15-6.724-15-15-15c-24.814 0-45-20.186-45-45 0-19.53 12.578-36.024 30-42.237V121h30v32.763c17.422 6.213 30 22.707 30 42.237h-30c0-8.276-6.724-15-15-15s-15 6.724-15 15 6.724 15 15 15zm84.272 211 15-30h41.455l15 30zM241 331v-30h30v30zm90 0h-30v-30h30zm60 0h-30v-30h30zm-90-90v-90h30v90h30V121h30v120h30v30H211v-30h30v-60h30v60z" fill="#089768" opacity="1" data-original="#000000" class=""></path></g></svg>