<svg xmlns="http://www.w3.org/2000/svg" version="1.1" xmlns:xlink="http://www.w3.org/1999/xlink" width="512" height="512" x="0" y="0" viewBox="0 0 512 512" style="enable-background:new 0 0 512 512" xml:space="preserve" class=""><g><path fill-rule="evenodd" d="M45.851 9h438.418c6.665 0 12.119 5.454 12.119 12.119v256.012c0 6.353-4.954 11.605-11.19 12.083-19.263-35.993-55.51-61.53-98.034-65.894V89.554c0-1.652-1.348-3-3-3H351.02c-1.652 0-3 1.348-3 3v135.829a124.997 124.997 0 0 0-29.212 10.078v-82.797c0-1.652-1.348-3-3-3h-33.143c-1.652 0-3 1.348-3 3v105.249c0 1.652 1.348 3 3 3h1.145a126.244 126.244 0 0 0-20.694 28.336H201c-2.968-12.575-9.683-23.701-18.901-32.137v-61.383c0-1.652-1.348-3-3-3h-33.143c-1.652 0-3 1.348-3 3v44.889c-31.27-1.756-58.331 19.353-65.241 48.63H45.851c-6.666 0-12.119-5.454-12.119-12.119V21.119C33.732 14.454 39.185 9 45.851 9zm328.315 229.656c-60.672 0-109.856 49.184-109.856 109.856s49.184 109.856 109.856 109.856 109.856-49.184 109.856-109.856-49.184-109.856-109.856-109.856zm-20.027 89.845.119 89.594a4.918 4.918 0 0 0 4.915 4.902l30.251-.04a4.918 4.918 0 0 0 4.902-4.914l-.119-89.595 19.579-.026c4.332-.003 6.977-4.998 4.201-8.58l-39.684-51.213c-2.136-2.756-6.291-2.751-8.42.011l-39.547 51.319c-2.766 3.589-.109 8.576 4.222 8.568zm-94.337 93.34H18.913a3.31 3.31 0 0 0-3.3 3.3v18.267a3.31 3.31 0 0 0 3.3 3.3h240.89a3.31 3.31 0 0 0 3.3-3.3v-18.267a3.311 3.311 0 0 0-3.301-3.3zm-41.354-16c-14.115-29.542-44.319-50.079-79.091-50.079s-64.976 20.537-79.09 50.079zM24.875 462.709v38.388c0 1.047.856 1.903 1.903 1.903h225.159a1.908 1.908 0 0 0 1.903-1.903v-38.388zm114.483-206.193c-26.144 0-47.338 21.194-47.338 47.338s21.194 47.338 47.338 47.338 47.338-21.194 47.338-47.338c-.001-26.144-21.195-47.338-47.338-47.338zm29.482-105.883 63.81-82.964 62.15 41.648a7.975 7.975 0 0 0 9.837-.757l54.767-50.553-1.076 7.151a7.995 7.995 0 0 0 15.813 2.374l4.27-28.529c.709-4.758-2.92-9.074-7.757-9.153l-28.843-.483a7.97 7.97 0 0 0-.25 15.938l7.919.133-51.039 47.122-62.977-42.202a7.976 7.976 0 0 0-10.894 1.653l-68.355 88.872a7.976 7.976 0 0 0 12.625 9.75zm45.47-33.463c-1.652 0-3 1.347-3 3v137.745c0 1.652 1.348 3 3 3h33.143c1.652 0 3-1.348 3-3V120.17c0-1.652-1.348-3-3-3z" clip-rule="evenodd" fill="#ffffff" opacity="1" data-original="#000000" class=""></path></g></svg>