<svg xmlns="http://www.w3.org/2000/svg" version="1.1" xmlns:xlink="http://www.w3.org/1999/xlink" width="512" height="512" x="0" y="0" viewBox="0 0 468 468" style="enable-background:new 0 0 512 512" xml:space="preserve" class=""><g><path d="M160.059 0C65.734 0 0 32.755 0 62.153s65.734 62.153 160.059 62.153S320.118 91.55 320.118 62.153 254.385 0 160.059 0zM0 347.715v58.132C0 435.245 65.734 468 160.059 468c42.275 0 82.178-6.658 112.359-18.75 19.671-7.88 34.23-17.654 41.809-27.811-14.275-11.168-30.756-27.226-45.115-49.381-31.607 10.12-68.965 15.43-109.052 15.43-50.439 0-97.623-8.689-132.86-24.468-10.278-4.602-19.369-9.731-27.2-15.305zM.001 233.416 0 290.755c0 29.397 65.734 62.152 160.059 62.152 33.453 0 65.55-4.195 92.44-11.957-9.751-22.544-16.055-47.43-18.836-74.36-23.001 4.326-48.067 6.584-73.604 6.584-50.764 0-98.17-8.788-133.484-24.745-10.024-4.53-18.906-9.56-26.574-15.013z" fill="#ffffff" opacity="1" data-original="#000000" class=""></path><path d="M0 119.062v57.378c0 29.397 65.734 62.153 160.059 62.153 25.228 0 49.822-2.377 71.961-6.92.031-5.434 1.652-19.575 14.744-23.169 20.631-5.664 35.068-19.26 36.345-37.91.526-7.678 10.134-18.437 17.291-18.33h19.719v-33.202c-7.669 5.453-16.547 10.484-26.57 15.019-35.359 15.996-82.767 24.806-133.489 24.806s-98.129-8.81-133.488-24.806C16.547 129.546 7.669 124.515 0 119.062zM418.963 186.846H315.797c-5.768 23.983-24.209 43.658-49.153 52.237 1.94 115.121 68.111 159.018 97.285 172.781 1.668.786 3.644.702 5.289-.223 29.287-16.504 95.691-65.629 98.782-172.598-24.883-8.599-43.277-28.25-49.037-52.197zm-57.764 149.917c-7.001 7.201-19.052 6.806-25.566-.838l-32.874-38.574 26.329-22.428 20.551 24.116 57.335-58.971 24.803 24.103z" fill="#ffffff" opacity="1" data-original="#000000" class=""></path></g></svg>