<svg xmlns="http://www.w3.org/2000/svg" version="1.1" xmlns:xlink="http://www.w3.org/1999/xlink" width="512" height="512" x="0" y="0" viewBox="0 0 512 512" style="enable-background:new 0 0 512 512" xml:space="preserve" class=""><g><path fill-rule="evenodd" d="m243.42 13.05-63.61 63.61c-1.23 1.23-2.18 2.58-2.85 4.05h58.02c6.88 0 12.49-5.61 12.49-12.49V10.2c-1.47.67-2.82 1.62-4.05 2.85zm-5.25 299.57c4.59-4.62 12.06-4.64 16.68-.05s4.64 12.06.05 16.68l-39.41 39.78c-4.56 4.59-11.96 4.64-16.59.14l-19.5-19c-4.67-4.54-4.77-12.01-.23-16.68s12.01-4.77 16.68-.23l11.12 10.84zm-89.35 120.92-4.67-4.67 6.32-6.32c-5.53-4.51-10.59-9.57-15.1-15.1l-6.32 6.32-4.67-4.67c-.62-.62-1.64-.62-2.27 0l-10.41 10.41 26.71 26.71 10.41-10.41c.62-.63.62-1.65 0-2.27zm-48.44-2.72 26.71 26.71-39.96 39.96c-7.35 7.35-19.37 7.35-26.71 0-7.35-7.35-7.35-19.37 0-26.71zm116.71-179.45c-49.4 0-89.45 40.05-89.45 89.45s40.05 89.45 89.45 89.45 89.45-40.05 89.45-89.45-40.05-89.45-89.45-89.45zm0 23.52c-36.41 0-65.93 29.52-65.93 65.93s29.52 65.93 65.93 65.93 65.93-29.52 65.93-65.93-29.52-65.93-65.93-65.93zm226.17 121.7H306.59a104.676 104.676 0 0 0 13.55-33.37h104.61c4.42 0 8-3.58 8-8s-3.58-8-8-8H322.34c.32-5.42.25-10.53-.24-15.93h102.66c4.42 0 8-3.58 8-8s-3.58-8-8-8H319.42c-3.78-15.19-10.85-29.07-20.41-40.85 2.44 0 4.13-1.55 4.13-3.77V147.41c0-2.08-1.69-3.77-3.77-3.77H271.3c-2.08 0-3.77 1.69-3.77 3.77V248.2c-8.25-4.51-17.18-7.94-26.58-10.11v-21.92c0-2.08-1.69-3.77-3.77-3.77h-28.07c-2.08 0-3.77 1.69-3.77 3.77v19.86a104.821 104.821 0 0 0-29.56 7.75V96.71H235c15.71 0 28.49-12.78 28.49-28.49V9h179.79c7.62 0 13.83 6.21 13.83 13.83v359.93c-.02 7.61-6.24 13.83-13.85 13.83zm-47.57-280.81c-2.08 0-3.77 1.69-3.77 3.77v151.11c0 2.08 1.69 3.77 3.77 3.77h28.07c2.08 0 3.77-1.69 3.77-3.77V119.55c0-2.08-1.69-3.77-3.77-3.77zm-62.2 57.42c-2.08 0-3.77 1.69-3.77 3.77v93.69c0 2.08 1.69 3.77 3.77 3.77h28.07c2.08 0 3.77-1.69 3.77-3.77v-93.69c0-2.08-1.69-3.77-3.77-3.77zm-108.51-19.03 45.86-59.62c-4.03-10.12 3.39-21.35 14.49-21.35 8.94 0 16.05 7.49 15.57 16.43l39.93 26.76c3.45-1.64 7.42-1.96 11.12-.87l40.12-37.05-6.28-.3c-4.4-.21-7.8-3.94-7.59-8.34s3.94-7.8 8.34-7.59l26.22 1.24c4.86.23 8.45 4.66 7.39 9.78l-4.62 25.42a7.98 7.98 0 0 1-9.25 6.44 7.98 7.98 0 0 1-6.44-9.25l.62-3.42-37.7 34.8c2.03 9.66-5.32 18.81-15.26 18.81-8.94 0-16.05-7.49-15.57-16.43L292 102.87a15.57 15.57 0 0 1-8.54 1.4l-45.86 59.62c4.03 10.12-3.39 21.35-14.49 21.35-8.61 0-15.59-6.98-15.59-15.59.02-9.34 8.17-16.58 17.46-15.48z" clip-rule="evenodd" fill="#ffffff" opacity="1" data-original="#000000"></path></g></svg>