<svg xmlns="http://www.w3.org/2000/svg" version="1.1" xmlns:xlink="http://www.w3.org/1999/xlink" width="512" height="512" x="0" y="0" viewBox="0 0 512.432 512.432" style="enable-background:new 0 0 512 512" xml:space="preserve" class=""><g><path d="m504.536 468.48-33.28-33.28c10.24-15.36 15.36-33.28 15.36-51.2 0-56.32-46.08-102.4-102.4-102.4s-102.4 46.08-102.4 102.4 46.08 102.4 102.4 102.4c17.92 0 35.84-5.12 51.2-15.36l33.28 33.28c5.12 5.12 20.48 15.36 35.84 0 10.24-10.24 10.24-25.6 0-35.84zm-120.32-33.28c-28.16 0-51.2-23.04-51.2-51.2s23.04-51.2 51.2-51.2 51.2 23.04 51.2 51.2-23.04 51.2-51.2 51.2z" fill="#ffffff" opacity="1" data-original="#000000" class=""></path><path d="M384.216 0h-358.4C10.456 0 .216 10.24.216 25.6v460.8c0 15.36 10.24 25.6 25.6 25.6h273.92c-40.96-28.16-69.12-74.24-69.12-128 0-84.48 69.12-153.6 153.6-153.6 7.68 0 17.92 0 25.6 2.56V25.6c0-15.36-10.24-25.6-25.6-25.6zm-179.2 204.8h-128c-15.36 0-25.6-12.8-25.6-25.6 0-15.36 10.24-25.6 25.6-25.6h128c15.36 0 25.6 10.24 25.6 25.6 0 12.8-10.24 25.6-25.6 25.6zm128-102.4h-256c-15.36 0-25.6-12.8-25.6-25.6 0-15.36 10.24-25.6 25.6-25.6h256c15.36 0 25.6 10.24 25.6 25.6 0 12.8-10.24 25.6-25.6 25.6z" fill="#ffffff" opacity="1" data-original="#000000" class=""></path></g></svg>