<svg xmlns="http://www.w3.org/2000/svg" version="1.1" xmlns:xlink="http://www.w3.org/1999/xlink" width="512" height="512" x="0" y="0" viewBox="0 0 510 510" style="enable-background:new 0 0 512 512" xml:space="preserve" class=""><g><path d="M195 375v30h-90v-90h30v38.787L270.527 218.26C241.902 194.386 205.102 180 165 180 74.019 180 0 254.019 0 345s74.019 165 165 165 165-74.019 165-165c0-40.102-14.386-76.902-38.26-105.527L156.213 375z" fill="#ffffff" opacity="1" data-original="#000000"></path><path d="M345 0c-86.139 0-157.06 66.352-164.367 150.628 42.26 3.368 80.758 20.276 111.164 46.362l61.99-61.99H315v-30h90v90h-30v-38.787l-61.99 61.99c26.085 30.406 42.994 68.904 46.362 111.165C443.648 322.06 510 251.139 510 165 510 74.019 435.981 0 345 0z" fill="#ffffff" opacity="1" data-original="#000000"></path><path d="m291.797 196.99-21.27 21.27a166.453 166.453 0 0 1 21.213 21.213l21.27-21.27a196.61 196.61 0 0 0-21.213-21.213z" fill="#ffffff" opacity="1" data-original="#000000"></path></g></svg>