<svg xmlns="http://www.w3.org/2000/svg" version="1.1" xmlns:xlink="http://www.w3.org/1999/xlink" width="512" height="512" x="0" y="0" viewBox="0 0 512 512" style="enable-background:new 0 0 512 512" xml:space="preserve" class=""><g><path d="M266.01 395.34c-23.24 3.66-48.56 5.64-75 5.64-56.1 0-107.04-9.01-144.06-23.58-19.87-7.85-35.92-17.4-46.94-28.26v79.63c0 17.92 20.27 34.84 53.04 47.76 35.18 13.86 83.93 22.42 137.96 22.42s102.78-8.56 137.93-22.42c7.63-3 14.57-6.24 20.75-9.64-36.77-11.32-67.02-37.51-83.68-71.55zm-131.67 52.78a8.387 8.387 0 0 1-9.41 7.2c-9.86-1.36-19.39-2.98-28.49-4.88-9.16-1.9-17.97-4.08-26.39-6.55-4.45-1.28-7-5.92-5.7-10.35 1.28-4.45 5.92-7 10.35-5.73 7.88 2.3 16.27 4.39 25.17 6.24 8.73 1.81 17.86 3.37 27.3 4.65 4.56.63 7.79 4.85 7.17 9.42zm-81.3-86.35C88.22 375.64 136.97 384.2 191 384.2c24.09 0 47.14-1.7 68.4-4.82a138.777 138.777 0 0 1-7.43-44.82c0-19.02 3.86-37.13 10.8-53.63-22.37 3.34-46.54 5.16-71.77 5.16-56.1 0-107.04-9.01-144.06-23.58-19.87-7.86-35.91-17.44-46.94-28.27v79.8c0 17.89 20.27 34.81 53.04 47.73zm11.31-44.3c1.28-4.42 5.92-6.97 10.35-5.7 7.88 2.3 16.27 4.39 25.17 6.24 8.73 1.81 17.86 3.37 27.3 4.65 4.56.62 7.79 4.85 7.17 9.41a8.387 8.387 0 0 1-9.41 7.2c-9.86-1.36-19.39-2.98-28.49-4.88-9.16-1.9-17.97-4.08-26.39-6.55-4.45-1.27-7-5.92-5.7-10.37zm-11.31-70.58c35.18 13.86 83.93 22.42 137.96 22.42 29.06 0 56.58-2.49 81.27-6.92 22.96-37.47 63.24-63.18 109.73-65.96v-78.09c-11.03 10.86-27.07 20.41-46.97 28.26-36.99 14.57-87.93 23.58-144.03 23.58S83.97 161.17 46.95 146.6c-19.87-7.85-35.92-17.4-46.94-28.26v80.79c-.01 17.91 20.26 34.83 53.03 47.76zm11.31-45.47c1.28-4.42 5.92-6.97 10.35-5.7 7.88 2.3 16.27 4.39 25.17 6.24 8.73 1.81 17.86 3.37 27.3 4.65 4.56.62 7.79 4.82 7.17 9.41s-4.82 7.8-9.41 7.17c-9.86-1.33-19.39-2.95-28.49-4.85-9.16-1.9-17.97-4.11-26.39-6.55-4.45-1.3-7-5.92-5.7-10.37zM0 83.24C0 65.33 20.27 48.4 53.04 35.48 88.22 21.62 136.97 13.06 191 13.06s102.78 8.56 137.93 22.42C361.7 48.4 382 65.33 382 83.24c0 17.89-20.3 34.84-53.06 47.74-35.15 13.86-83.91 22.42-137.94 22.42s-102.78-8.56-137.96-22.42C20.27 118.08 0 101.13 0 83.24zm390.39 129.72c-66.98 0-121.61 54.62-121.61 121.61 0 66.98 54.62 121.61 121.61 121.61 66.98 0 121.61-54.62 121.61-121.61s-54.63-121.61-121.61-121.61zm79.74 122.96a80.21 80.21 0 0 1-23.36 55.28c-14.17 14.29-33.68 23.16-55.22 23.16-.82 0 .4-.03-1.3-.06a81.137 81.137 0 0 1-31.18-6.72c-9.95-4.34-18.85-10.54-26.22-18.17-3.2-3.34-3.09-8.65.23-11.85 3.35-3.2 8.65-3.09 11.85.23a65.078 65.078 0 0 0 20.78 14.46 65.189 65.189 0 0 0 24.8 5.33c.12 0 .2.01.25.01 0 0 .13-.01.79-.01 16.92 0 32.23-6.97 43.37-18.17 11.17-11.25 18.2-26.76 18.48-43.77 0-.88-.03.51-.03-1.08 0-17.38-7.06-33.14-18.45-44.53-11.4-11.4-27.16-18.45-44.53-18.45-15.42 0-29.54 5.58-40.45 14.8-9.78 8.22-17.04 19.36-20.41 31.97l8.22-5.87a8.367 8.367 0 0 1 11.68 1.96c2.66 3.77 1.79 8.99-1.98 11.68l-24.24 17.35c-3.77 2.66-9.01 1.79-11.68-1.98l-17.35-24.24c-2.66-3.77-1.79-8.99 1.96-11.68 3.77-2.69 9.01-1.79 11.68 1.96l5.27 7.4c4.2-16.33 13.49-30.73 26.08-41.33 13.89-11.71 31.75-18.79 51.22-18.79 22.02 0 41.95 8.93 56.41 23.36 14.43 14.43 23.36 34.38 23.36 56.41 0 .78 0-.39-.03 1.34z" fill="#ffffff" opacity="1" data-original="#000000" class=""></path></g></svg>