<svg xmlns="http://www.w3.org/2000/svg" version="1.1" xmlns:xlink="http://www.w3.org/1999/xlink" width="512" height="512" x="0" y="0" viewBox="0 0 66 66" style="enable-background:new 0 0 512 512" xml:space="preserve" class=""><g><path d="M44.9 42.9c-.3-2.4-2.4-4.6-5.1-5.3-2.8-.8-5.9-1.4-9.1-1.7-.3 0-.7.1-.9.4s-.3.6-.2.9c1.3 4.3.7 9-1.5 13.2l-.5-6.3.9-2.1c.1-.1.1-.3.1-.4v-3c0-.6-.4-1-1-1h-6.5c-.5 0-1 .4-1 1v3c0 .1 0 .3.1.4l.9 2.1-.5 6.3c-2.3-4.3-2.9-8.9-1.5-13.3.1-.3 0-.7-.2-.9-.2-.3-.5-.4-.9-.4-3.3.3-6.4.9-9.2 1.7-2.7.8-4.6 2.9-5 5.3L1 62.4c-.1.5.3 1 .8 1.1 6.7 1.1 14.6 1.6 22.5 1.6s15.8-.5 22.5-1.6c.5-.1.9-.6.8-1.1zM10.5 27.2h1.8c.6 0 1-.5 1-1v-.5c.2.4.5.7.8 1 .3.2.6.4.9.4 1.7 4.3 5 8.5 9 8.5 3.1 0 5.7-2.4 7.5-5.4.8.3 1.7.5 2.6.5.4 0 .9 0 1.3-.1 1.8-.3 3.1-1.7 3.2-3.5 1.6-.5 2.8-1.9 2.8-3.7v-.8c0-1.8-1.2-3.3-2.8-3.7-.8-8-7.1-14.2-14.6-14.2-7.6 0-13.8 6.2-14.6 14.2-1.6.5-2.8 2-2.8 3.7v.8c.1 2 1.8 3.8 3.9 3.8zm13.6 6.4c-3.1 0-6.1-4-7.4-7.8-.1-.4-.5-.7-.9-.7h-.4c-.3-.3-.7-1.2-.7-2.2 0-1.3.5-2.1.8-2.2s.6-.4.6-.8c.6-4.8 4-8.3 8.1-8.3 4 0 7.5 3.5 8 8.3 0 .4.3.7.6.8.7.3 1 2.3.5 3.7 0 0-.3.9-.6.8-.5-.1-1 .1-1.2.6-.2.6-.5 1.3-.8 1.9 0 0-.1 0-.1-.1-.9-.4-1.8-.9-3-1.2-.3-1.2-1.5-2.1-2.8-2.1-1.6 0-2.9 1.3-2.9 2.9s1.3 2.9 2.9 2.9c1.1 0 2.1-.7 2.6-1.6.9.3 1.6.6 2.3 1-1.4 2.2-3.4 4.1-5.6 4.1zm11.2-5.1c-1 .2-1.9.1-2.7-.2.2-.4.4-.8.6-1.3.6-.1 1.3-.5 1.8-1.3v.4c0 .6.5 1 1 1h.8c-.2.8-.8 1.3-1.5 1.4zM24.1 6.6c6.4 0 11.8 5.2 12.6 12h-.8c-.5 0-1 .5-1 1v.4c-.2-.4-.5-.7-.8-.9-.9-5.5-5.1-9.5-10-9.5s-9.1 4-10 9.5c-.3.2-.6.5-.8.9v-.4c0-.5-.4-1-1-1h-.8c.8-6.8 6.2-12 12.6-12zM60.7.8H44.8c-2.4 0-4.3 1.9-4.3 4.3V13c0 2.4 1.9 4.3 4.3 4.3h1.1l-.7 3.5c-.1.4.1.8.4 1 .4.2.8.2 1.1 0l6.7-4.5h7.3c2.4 0 4.3-1.9 4.3-4.3V5.1C65 2.7 63.1.8 60.7.8zm-13 9.3h-2.9c-.6 0-1-.4-1-1s.4-1 1-1h2.9c.6 0 1 .4 1 1 0 .5-.5 1-1 1zm6.5 0h-2.9c-.6 0-1-.4-1-1s.4-1 1-1h2.9c.6 0 1 .4 1 1 0 .5-.4 1-1 1zm6.5 0h-2.9c-.6 0-1-.4-1-1s.4-1 1-1h2.9c.6 0 1 .4 1 1 0 .5-.4 1-1 1z" fill="#ffffff" opacity="1" data-original="#000000" class=""></path></g></svg>