<svg xmlns="http://www.w3.org/2000/svg" version="1.1" xmlns:xlink="http://www.w3.org/1999/xlink" width="512" height="512" x="0" y="0" viewBox="0 0 512 512" style="enable-background:new 0 0 512 512" xml:space="preserve" class=""><g><path fill-rule="evenodd" d="M360.69 48.5c3.31 0 6 2.69 6 6v8.4c0 3.32-2.69 6-6 6s-6-2.68-6-6v-8.4c0-3.31 2.69-6 6-6zm-98.94 357.7c-59.66 0-108.53-46.94-111.67-105.83H64.9v21.93c0 2.12 1.39 3.84 3.47 4.28l36.67 7.88c5.72 1.23 10.09 5.09 12 10.59 1.88 5.34 4.08 10.64 6.57 15.76 2.53 5.26 2.16 11.1-1.02 16l-20.38 31.53c-1.14 1.78-.9 3.98.57 5.47l39.52 39.5c1.47 1.5 3.67 1.73 5.47.59l31.52-20.38c4.9-3.17 10.74-3.54 16.01-1 5.1 2.47 10.41 4.67 15.76 6.54 5.47 1.93 9.35 6.31 10.58 12.02l7.88 36.68c.45 2.07 2.16 3.46 4.29 3.46h55.86c2.12 0 3.84-1.39 4.29-3.46l7.88-36.68c1.22-5.71 5.06-10.09 10.58-12.02a149.43 149.43 0 0 0 15.76-6.54c5.27-2.54 11.11-2.17 16.01 1l31.52 20.38c1.8 1.14 4 .91 5.47-.58l39.52-39.51c1.47-1.49 1.71-3.69.57-5.47l-20.38-31.53c-3.18-4.9-3.55-10.74-1.02-16 2.49-5.13 4.7-10.43 6.57-15.76 1.92-5.5 6.29-9.36 12-10.59l36.71-7.88c2.04-.44 3.43-2.16 3.43-4.28v-21.93h-85.17c-3.13 58.89-52 105.83-111.66 105.83zm72.07-105.83c-3.06 37.09-34.22 66.34-72.07 66.34-37.89 0-69.01-29.25-72.07-66.34zm148.1-29.64H41.59c-4.86 0-8.82 3.96-8.82 8.82s3.96 8.82 8.82 8.82h440.33c4.86 0 8.82-3.96 8.82-8.82s-3.96-8.82-8.82-8.82zM175.6 233.94h-25.56v24.79h25.56zm40.18-189.28h41.81V33.22h-41.81zm42.95 71.32c3.31 0 6 2.68 6 6 0 3.31-2.69 6-6 6h-25.48v12.5h57V56.66H183.11v30.53h44.14c3.1 0 5.68 2.36 5.96 5.38h25.52c3.31 0 6 2.69 6 6s-2.69 6-6 6h-25.48v11.41zm0-34.82h-44.1c-3.31 0-6-2.68-6-6 0-3.31 2.69-6 6-6h44.1c3.31 0 6 2.69 6 6 0 3.32-2.69 6-6 6zm-37.48 177.57H187.6v-30.79c0-3.31-2.69-6-6-6h-37.57c-3.31 0-6 2.69-6 6v30.79h-33.65V99.19h116.86v159.54zm-16.46-87.75c0-3.32-2.69-6-6-6s-6 2.68-6 6v8.4c0 3.31 2.69 6 6 6s6-2.69 6-6zm-12 29.22v8.4c0 3.32 2.69 6 6 6s6-2.68 6-6v-8.4c0-3.31-2.69-6-6-6s-6 2.69-6 6zm-29.11-6c-3.31 0-6 2.69-6 6v8.4c0 3.32 2.69 6 6 6s6-2.68 6-6v-8.4c0-3.31-2.7-6-6-6zm-29.16 6c0-3.31-2.69-6-6-6s-6 2.69-6 6v8.4c0 3.32 2.69 6 6 6s6-2.68 6-6zm35.16-29.22c0-3.32-2.69-6-6-6s-6 2.68-6 6v8.4c0 3.31 2.69 6 6 6s6-2.69 6-6zm-35.16 0c0-3.32-2.69-6-6-6s-6 2.68-6 6v8.4c0 3.31 2.69 6 6 6s6-2.69 6-6zm70.27-20.83c0 3.32-2.69 6-6 6s-6-2.68-6-6v-8.4c0-3.31 2.69-6 6-6s6 2.69 6 6zm-35.11-8.4c0-3.31-2.69-6-6-6s-6 2.69-6 6v8.4c0 3.32 2.69 6 6 6s6-2.68 6-6zm-35.16 0c0-3.31-2.69-6-6-6s-6 2.69-6 6v8.4c0 3.32 2.69 6 6 6s6-2.68 6-6zm64.27-14.82c-3.31 0-6-2.69-6-6v-8.4c0-3.31 2.69-6 6-6s6 2.69 6 6v8.4c0 3.31-2.69 6-6 6zm-29.11-6v-8.4c0-3.31-2.69-6-6-6s-6 2.69-6 6v8.4c0 3.31 2.69 6 6 6 3.3 0 6-2.69 6-6zm-35.16-8.4c0-3.31-2.69-6-6-6s-6 2.69-6 6v8.4c0 3.31 2.69 6 6 6s6-2.69 6-6zm220.17 39.95H233.25v106.25h121.43V152.48zm-23.44 21.15c0-3.31 2.65-6.01 5.96-6.02h.04c3.31 0 5.96 2.67 6 5.98l.24 63.99c0 3.31-2.69 6.01-6 6.02-3.31 0-6-2.67-6-5.97zm-17.19-.04.24 63.99c0 3.31-2.65 6.01-5.96 6.02h-.04c-3.31 0-5.96-2.67-6-5.97l-.24-64c0-3.31 2.69-6.01 6-6.02 3.3 0 6 2.67 6 5.98zm-28.67.04-.24 64c-.04 3.3-2.69 5.97-6 5.97h-.04c-3.31-.01-6-2.71-5.96-6.02l.24-63.99c0-3.31 2.69-5.98 6-5.98 3.31.01 6 2.71 6 6.02zm-28.7 0-.24 64c0 3.3-2.69 5.97-6 5.97h-.04c-3.31-.01-5.96-2.71-5.96-6.02l.24-63.99c0-3.31 2.69-5.98 6-5.98h.04c3.31.01 5.96 2.71 5.96 6.02zm68.8-125.13c3.31 0 6 2.69 6 6v8.4c0 3.32-2.69 6-6 6s-6-2.68-6-6v-8.4c0-3.31 2.69-6 6-6zm-23.23-14.48v106.46h58.43c3.31 0 6 2.69 6 6v112.25h52.43V34.02zm87.58 204.23v-8.4c0-3.31 2.69-6 6-6 3.35 0 6 2.69 6 6v8.4c0 3.31-2.65 6-6 6-3.3 0-6-2.69-6-6zm0-29.22v-8.4c0-3.32 2.69-6 6-6 3.35 0 6 2.68 6 6v8.4c0 3.31-2.65 6-6 6-3.3 0-6-2.69-6-6zm0-29.23v-8.4c0-3.31 2.69-6 6-6 3.35 0 6 2.69 6 6v8.4c0 3.31-2.65 6-6 6-3.3 0-6-2.69-6-6zm0-29.22v-8.4c0-3.32 2.69-6 6-6 3.35 0 6 2.68 6 6v8.4c0 3.31-2.65 6-6 6-3.3 0-6-2.69-6-6zm0-29.23v-8.4c0-3.31 2.69-6 6-6 3.35 0 6 2.69 6 6v8.4c0 3.32-2.65 6-6 6-3.3 0-6-2.68-6-6zm-23.15-37.62v8.4c0 3.31-2.69 6-6 6s-6-2.69-6-6v-8.4c0-3.32 2.69-6 6-6s6 2.68 6 6zm-12 29.22c0-3.31 2.69-6 6-6s6 2.69 6 6v8.4c0 3.32-2.69 6-6 6s-6-2.68-6-6zm-29.2-6c3.31 0 6 2.69 6 6v8.4c0 3.32-2.69 6-6 6s-6-2.68-6-6v-8.4c0-3.31 2.69-6 6-6zm64.35-14.82v-8.4c0-3.32 2.69-6 6-6 3.35 0 6 2.68 6 6v8.4c0 3.31-2.65 6-6 6-3.3 0-6-2.69-6-6zm-64.35-14.4c3.31 0 6 2.68 6 6v8.4c0 3.31-2.69 6-6 6s-6-2.69-6-6v-8.4c0-3.32 2.69-6 6-6zm64.35-14.83v-8.4c0-3.31 2.69-6 6-6 3.35 0 6 2.69 6 6v8.4c0 3.32-2.65 6-6 6-3.3 0-6-2.68-6-6z" clip-rule="evenodd" fill="#ffffff" opacity="1" data-original="#000000"></path></g></svg>