<svg xmlns="http://www.w3.org/2000/svg" version="1.1" xmlns:xlink="http://www.w3.org/1999/xlink" width="512" height="512" x="0" y="0" viewBox="0 0 66 66" style="enable-background:new 0 0 512 512" xml:space="preserve" class=""><g><path d="M50.8 63h-5.6l-4.4-6.1H25.3L20.9 63h-5.6c-.5 0-1 .5-1 1 0 .6.5 1 1 1h35.5c.5 0 1-.4 1-1s-.5-1-1-1zM59.7 17.8H41.1c-.2.8-.7 1.6-1.4 2h20c1.1 0 2 .9 2 2v23.6H4.3V21.8c0-1.1.9-2 2-2h4.1c-.7-.4-1.2-1.2-1.4-2H6.3c-2.2 0-4 1.8-4 4v29c0 2.2 1.8 4 4 4h53.4c2.2 0 4-1.8 4-4v-29c0-2.2-1.8-4-4-4zM33.6 51c-.4.4-1 .4-1.4 0s-.4-1 0-1.4 1-.4 1.4 0 .4 1 0 1.4z" fill="#ffffff" opacity="1" data-original="#000000"></path><path d="M43.3 35.2c-.7 0-1.4.2-1.9.6l-2.5-2.2c.6-1.9-.9-4.1-3.1-4.1-2.1 0-3.7 2.1-3.1 4.2l-3.1 2.5c-1.3-.8-3.1-.6-4.1.6l-3.7-1.7V35c0-1.8-1.5-3.2-3.3-3.2s-3.2 1.5-3.2 3.2c0 1.8 1.4 3.3 3.2 3.3 1.1 0 2-.5 2.6-1.3l3.6 1.7c-.2 2 1.4 3.6 3.2 3.6 2.3 0 3.9-2.4 3-4.5l3-2.4c1.2.9 2.8.9 4 0l2.5 2.2c-.7 2 .9 4.2 3.1 4.2 1.8 0 3.3-1.5 3.3-3.3 0-.8-.3-1.5-.8-2.1.4-.9.2-.5 2.5-5.1 1.7.3 3.7-1.1 3.7-3.2 0-1.8-1.5-3.2-3.2-3.2-2.9 0-4.4 3.5-2.3 5.6-.1.2-2.3 4.7-2.4 4.9-.5-.2-.7-.2-1-.2zM11.8 18.2l2 .4c.2.7.5 1.5.9 2.2l-1.2 1.7c-.3.4-.2.9.1 1.3l2.9 2.9c.3.3.9.4 1.3.1l1.7-1.2c.7.4 1.4.7 2.2.9l.4 2c.1.5.5.8 1 .8h4.1c.5 0 .9-.4 1-.8l.4-2c.8-.2 1.5-.5 2.2-.9l1.7 1.2c.4.3.9.2 1.3-.1l2.9-2.9c.3-.4.4-.9.1-1.3l-1.2-1.7c.4-.7.7-1.4.9-2.2l2-.4c.5-.1.8-.5.8-1v-4.1c0-.5-.4-.9-.8-1l-2-.4c-.2-.8-.5-1.5-.9-2.2l1.2-1.7c.3-.4.2-.9-.1-1.3l-2.9-2.9c-.3-.3-.9-.4-1.3-.1l-1.7 1.2c-.7-.4-1.4-.7-2.2-.9l-.4-2c-.2-.5-.6-.8-1.1-.8H23c-.5 0-.9.3-1 .8l-.4 2c-.8.2-1.5.5-2.2.9l-1.7-1.2c-.4-.3-.9-.2-1.3.1l-2.9 2.9c-.3.3-.4.9-.1 1.3l1.2 1.7c-.4.7-.7 1.4-.9 2.2l-2 .4c-.5.1-.8.5-.8 1v4.1c0 .5.4.9.9 1zM25 9c3.4 0 6.1 2.7 6.1 6.1s-2.7 6.1-6.1 6.1-6.1-2.8-6.1-6.1c0-3.4 2.8-6.1 6.1-6.1z" fill="#ffffff" opacity="1" data-original="#000000"></path></g></svg>