<svg xmlns="http://www.w3.org/2000/svg" version="1.1" xmlns:xlink="http://www.w3.org/1999/xlink" width="512" height="512" x="0" y="0" viewBox="0 0 512 512" style="enable-background:new 0 0 512 512" xml:space="preserve" class=""><g><path fill-rule="evenodd" d="M333.488 161.423H178.512c3.573-39.66 36.898-70.741 77.488-70.741s73.915 31.081 77.488 70.741zM256 90.431c20.411 0 37.057-16.647 37.057-37.058S276.41 16.316 256 16.316s-37.058 16.647-37.058 37.057S235.589 90.431 256 90.431zm176.624 93.379c-33.24 0-60.531 25.453-63.456 57.931h126.913c-2.926-32.478-30.216-57.931-63.456-57.931zm0-.205c16.714 0 30.347-13.632 30.347-30.347s-13.633-30.347-30.347-30.347-30.347 13.633-30.347 30.347 13.632 30.347 30.347 30.347zm-353.248.205c-33.24 0-60.531 25.453-63.456 57.931h126.913c-2.926-32.478-30.216-57.931-63.456-57.931zm0-.205c16.714 0 30.347-13.632 30.347-30.347s-13.632-30.347-30.347-30.347-30.347 13.633-30.347 30.347 13.632 30.347 30.347 30.347zm183.621 163.654v38.854c28.54.877 56.361 7.119 82.153 18.23 11.428-32.261 17.858-69.871 18.538-109.425h-13.539v30.294c0 12.151-9.891 22.047-22.052 22.047zm-33.538-80.138h-44.99a25.7 25.7 0 0 1-8.623-1.48v59.571c0 4.439 3.61 8.049 8.049 8.049h144.201c4.439 0 8.049-3.61 8.049-8.049v-59.571a25.696 25.696 0 0 1-8.618 1.48h-44.99c-.463 5.678-5.22 10.17-11.018 10.17h-31.041c-5.799 0-10.561-4.492-11.019-10.17zm12.617-11.803v9.604h27.844v-9.604zm-61.049 181.493c18.687 35.037 42.609 55.662 67.972 58.872v-95.562c-26.804.882-52.924 6.801-77.12 17.299 2.82 6.753 5.871 13.231 9.148 19.391zm-12.349 6.579c-3.393-6.348-6.541-13.019-9.462-19.969a211.34 211.34 0 0 0-39.269 26.178c25.672 21.632 56.549 37.273 90.448 44.754-15.559-11.303-29.74-28.491-41.717-50.962zm174.64 0c-11.983 22.471-26.158 39.659-41.722 50.962 33.9-7.481 64.782-23.122 90.453-44.754a211.377 211.377 0 0 0-39.274-26.178c-2.916 6.95-6.068 13.621-9.457 19.969zm-12.354-6.579c3.283-6.16 6.333-12.638 9.153-19.391-24.202-10.498-50.312-16.417-77.121-17.299v95.562c25.373-3.21 49.28-23.835 67.967-58.872zM169.536 221.312c-.169-.993.019-1.711.67-2.473.641-.767 1.311-1.08 2.318-1.08h41.504v-8.893c0-4.49 1.837-8.574 4.793-11.529 2.955-2.955 7.039-4.793 11.529-4.793h51.299c4.49 0 8.574 1.837 11.529 4.793 2.955 2.955 4.793 7.039 4.793 11.529v8.893h41.496c1.012 0 1.682.313 2.319 1.08.651.761.844 1.48.67 2.473l-4.059 23.17c-.858 4.931-5.538 8.637-10.869 8.637h-44.99c-.463-5.678-5.22-10.17-11.018-10.17h-31.041c-5.799 0-10.561 4.492-11.019 10.17h-44.99c-5.331 0-10.011-3.707-10.869-8.637l-4.063-23.17zm58.492-3.552h55.943v-8.893c0-.626-.265-1.205-.691-1.631s-1.005-.691-1.631-.691H230.35c-.626 0-1.205.265-1.631.691s-.691 1.005-.691 1.631zm-66.18 107.453v-30.294h-13.54c.68 39.553 7.11 77.164 18.538 109.425 25.792-11.11 53.613-17.352 82.153-18.23V347.26h-65.104c-12.156 0-22.047-9.896-22.047-22.047zm-27.542-30.294H44.717c1.86 56.944 26.351 108.253 64.743 145.223a224.953 224.953 0 0 1 44.667-29.841c-12.248-34.049-19.121-73.751-19.82-115.382zm223.573 115.382a224.777 224.777 0 0 1 44.658 29.841c38.392-36.97 62.882-88.279 64.743-145.223h-89.595c-.689 41.631-7.567 81.324-19.806 115.382z" fill="#ffffff" opacity="1" data-original="#000000"></path></g></svg>