<svg xmlns="http://www.w3.org/2000/svg" version="1.1" xmlns:xlink="http://www.w3.org/1999/xlink" width="512" height="512" x="0" y="0" viewBox="0 0 100 100" style="enable-background:new 0 0 512 512" xml:space="preserve" class=""><g><path d="M36.807 12.53h4.38a1 1 0 1 0 0-2h-4.38a1 1 0 1 0 0 2zM33.154 12.53h.808a1 1 0 1 0 0-2h-.808a1 1 0 1 0 0 2z" fill="#ffffff" opacity="1" data-original="#000000" class=""></path><path d="M90.827 39.75c-.08-.07-.17-.12-.25-.17-2.842-1.987-6.786-1.322-8.85 1.43l-3.57 4.65V22.47c0-7.41-6.03-13.43-13.44-13.43h-7.9a3.012 3.012 0 0 0-2.92-2.3h-3.34l-1.88-3.44c-.44-.8-1.28-1.3-2.2-1.3h-9.41c-.91 0-1.76.5-2.2 1.3l-1.88 3.44h-3.33c-1.42 0-2.6.98-2.93 2.3h-6.69c-7.41 0-13.44 6.02-13.44 13.43v62.1c0 7.41 6.03 13.43 13.44 13.43h44.68c7.41 0 13.44-6.02 13.44-13.43V67.35l13.94-18.5c2.238-2.976 1.462-7.045-1.27-9.1zm-62.2-29.98c0-.57.46-1.03 1.03-1.03h24.24c.56 0 1.02.46 1.02 1.03v8.71c0 .57-.46 1.03-1.02 1.03h-24.24c-.57 0-1.03-.46-1.03-1.03zm41.41 74.8c0 2.93-2.39 5.31-5.32 5.31h-44.68c-2.93 0-5.32-2.38-5.32-5.31v-62.1c0-2.92 2.39-5.31 5.32-5.31h6.59v1.32c0 1.67 1.36 3.03 3.03 3.03h24.24c1.66 0 3.02-1.36 3.02-3.03v-1.32h7.8c2.93 0 5.32 2.39 5.32 5.31v34.06l-8.82 11.69a5.741 5.741 0 0 0-1.15 3.79l.33 5.95c.064 1.07 1.086 1.796 2.07 1.55l5.81-1.31c.63-.14 1.22-.39 1.76-.73v7.1zm-.04-9.71a3.74 3.74 0 0 1-2.05 1.36 6.961 6.961 0 0 0-5.88-4.3v-.03c-.05-.88.21-1.75.75-2.46l1.31-1.74 7.43 5.1zm2.76-3.67-7.42-5.1 13.66-18.13 7.18 5.42z" fill="#ffffff" opacity="1" data-original="#000000" class=""></path><path d="M25.022 44.216a1 1 0 0 0 1-1v-5.591h6.634c.606 0 1.151-.338 1.422-.88s.212-1.181-.153-1.664l-1.497-1.99 1.497-1.99c.365-.485.423-1.123.153-1.665s-.816-.88-1.422-.88h-6.634v-.2a1 1 0 1 0-2 0v14.86a1 1 0 0 0 1 1zM27.94 75.38h-5.476a2.328 2.328 0 0 0-2.326 2.325v5.486a2.328 2.328 0 0 0 2.326 2.326h5.475a2.328 2.328 0 0 0 2.325-2.326v-5.486a2.328 2.328 0 0 0-2.325-2.326zM55.91 77.557H35.46a1 1 0 1 0 0 2h20.45a1 1 0 1 0 0-2zM48.727 82.259H35.46a1 1 0 1 0 0 2h13.267a1 1 0 1 0 0-2zM58.956 43.073h-3.69a2.14 2.14 0 0 0-2.137 2.137v.309H25.023a1 1 0 1 0 0 2H53.13v1.38a2.14 2.14 0 0 0 2.136 2.138h.847v5.13c0 .208-.17.378-.378.378h-26.73v-.543a2.14 2.14 0 0 0-2.136-2.137h-3.69a2.14 2.14 0 0 0-2.137 2.137v3.69a2.14 2.14 0 0 0 2.137 2.137h.845v4.867a2.38 2.38 0 0 0 2.378 2.378h24.975a1 1 0 1 0 0-2H26.4a.379.379 0 0 1-.378-.378v-4.867h.845a2.14 2.14 0 0 0 2.137-2.137v-1.147h26.729a2.38 2.38 0 0 0 2.378-2.379v-5.13h.844a2.14 2.14 0 0 0 2.136-2.136v-3.69a2.14 2.14 0 0 0-2.136-2.137zM45.248 28.356a1 1 0 0 0 1 1h14.326a1 1 0 1 0 0-2H46.248a1 1 0 0 0-1 1zM60.574 32.49H46.248a1 1 0 1 0 0 2h14.326a1 1 0 1 0 0-2z" fill="#ffffff" opacity="1" data-original="#000000" class=""></path></g></svg>