<svg xmlns="http://www.w3.org/2000/svg" version="1.1" xmlns:xlink="http://www.w3.org/1999/xlink" width="512" height="512" x="0" y="0" viewBox="0 0 32 32" style="enable-background:new 0 0 512 512" xml:space="preserve" class=""><g><g data-name="Layer 2"><path d="M16 13.02a3.723 3.723 0 0 1 3.18 1.77l1.7 2.72a5.66 5.66 0 0 0 .87-3.01 5.75 5.75 0 0 0-11.5 0 5.66 5.66 0 0 0 .87 3.01l1.7-2.72A3.723 3.723 0 0 1 16 13.02Z" fill="#ffffff" opacity="1" data-original="#000000" class=""></path><path d="M25.33 8.06a1.201 1.201 0 0 0 0-1.7l-1.69-1.69a1.201 1.201 0 0 0-1.7 0l-.44.44a1.23 1.23 0 0 1-1.41.21c-.28-.13-.56-.24-.84-.34a1.232 1.232 0 0 1-.85-1.15V3.2A1.204 1.204 0 0 0 17.2 2h-2.4a1.204 1.204 0 0 0-1.2 1.2v.63a1.21 1.21 0 0 1-.85 1.14c-.28.11-.56.22-.84.35a1.23 1.23 0 0 1-1.41-.21l-.44-.44a1.201 1.201 0 0 0-1.7 0L6.67 6.36a1.201 1.201 0 0 0 0 1.7l.44.44a1.23 1.23 0 0 1 .21 1.41c-.13.28-.24.56-.34.84a1.232 1.232 0 0 1-1.15.85H5.2A1.204 1.204 0 0 0 4 12.8v2.4a1.204 1.204 0 0 0 1.2 1.2h.63a1.232 1.232 0 0 1 1.15.85c.1.28.21.56.34.84a1.23 1.23 0 0 1-.21 1.41l-.44.44a1.201 1.201 0 0 0 0 1.7l1.15 1.15 2.43-3.89a7.174 7.174 0 0 1-1.5-4.4 7.25 7.25 0 0 1 14.5 0 7.174 7.174 0 0 1-1.5 4.4l2.43 3.89 1.15-1.15a1.201 1.201 0 0 0 0-1.7l-.44-.44a1.23 1.23 0 0 1-.21-1.41c.13-.28.24-.56.34-.84a1.232 1.232 0 0 1 1.15-.85h.63a1.204 1.204 0 0 0 1.2-1.2v-2.4a1.204 1.204 0 0 0-1.2-1.2h-.63a1.232 1.232 0 0 1-1.15-.85c-.1-.28-.21-.56-.34-.84a1.23 1.23 0 0 1 .21-1.41Z" fill="#ffffff" opacity="1" data-original="#000000" class=""></path><path d="M7.2 28.33a2.724 2.724 0 0 0 2.41 1.42h12.78a2.747 2.747 0 0 0 2.33-4.21l-6.39-10.22a2.738 2.738 0 0 0-4.66 0L7.28 25.54a2.714 2.714 0 0 0-.08 2.79ZM15 19.5a1 1 0 0 1 2 0v3a1 1 0 0 1-2 0Zm1 5.5a1 1 0 1 1-1 1 1.003 1.003 0 0 1 1-1Z" fill="#ffffff" opacity="1" data-original="#000000" class=""></path></g></g></svg>